<svg version="1.2" xmlns="http://www.w3.org/2000/svg" viewBox="0 0 1605 551" width="1605" height="551">
	<title>22314005_6589549-ai</title>
	<defs>
		<clipPath clipPathUnits="userSpaceOnUse" id="cp1">
			<path d="m2560-889v1440h-2560v-1440z"/>
		</clipPath>
	</defs>
	<style>
		.s0 { fill: #ffc7d5 } 
		.s1 { fill: #fa99ba } 
	</style>
	<g id="OBJECTS">
		<g id="&lt;Group&gt;">
			<g id="&lt;Group&gt;">
				<path id="&lt;Path&gt;" class="s0" d="m1604.6 551c-6.8-20-18.5-40.1-30.4-57.9-80.5-120.6-182.8-254.5-356.6-281.9-135.4-21.4-281.2 29.9-411.8-4.8-101.8-27-168.8-99.7-256-148.1-148.7-82.6-530.4-84.4-549.8 38.7v454z"/>
			</g>
		</g>
		<g id="&lt;Group&gt;">
			<g id="&lt;Group&gt;">
				<g id="&lt;Group&gt;">
					<path id="&lt;Path&gt;" class="s1" d="m242.9 551h-56.5c1-14.9 0.6-29.9-1.5-44.5-3.2-22.6-10.2-44.9-20.3-65.6-10.2-20.8-23.5-40.2-39.1-57.3-30.9-33.9-71.1-59.2-114.4-70.5q-0.8-0.3-1.7-0.5c-5-1.4-7.7-2.4-8.8-3.4q-0.9-0.6-0.5-1.2c0.3-0.3 1-0.7 1.8-0.9 1.8-0.6 4.8-0.9 8.3-1.2q0.5 0 0.9 0 2.3-0.1 4.8-0.1c2 0.1 4.1 0.1 6.2 0.3-2.7-0.3-3.9-1.1-5.1-2-1.2-0.9-2.3-1.9-5.1-2 0.4-1.7 3.6-3.4 9.6-4 2.9-0.2 6.6-0.2 10.9 0.3 4.3 0.7 9.2 1.7 14.6 3.6-5.3-2.2-10.7-4-16.1-5.8-5.2-2.8 1-3.4 1.8-5.7 5.6 1.8 11.1 3.8 11.5 2.6 0.4-1.1 1.2-3.3 1.6-4.5-2.8-0.9-7-2.5-11.3-3.8-3.3-1-6.5-2-9.2-2.7q1 0.3 1.9 0.5c1.3 0.4 2.6 0.7 3.7 1 2.2 0.5 3.7 0.6 3.9 0.1 0.4-1.2 1.1-3.5 1.4-4.6 3.1 0.6 6.4 1.7 9.8 2.9 1.8 0.6 3.5 1.4 5.2 2.1q2.6 1.2 5.3 2.3c3.5 1.6 6.9 3.3 10.3 4.8 3.2 1.6 6.4 3.1 9.3 4.1l1.6-3.1c-2.7-1.7-5.8-3.4-9.1-5-3.4-1.5-6.9-3.1-10.6-4.5q-2.7-1-5.5-2c-1.8-0.7-3.5-1.3-5.3-1.9-3.6-1.1-6.9-2.3-9.9-3.1 6.3 0.7 6.7-0.3 7.5-2.6 9.3 2.4 17.9 6.7 26.4 10.9 4.2 2.2 8.5 4.3 12.7 6.4 2.1 1 4.3 2 6.5 2.9 2.2 1 4.4 1.9 6.7 2.7-2.8-1.5-5.5-3.2-8.3-4.7-2.8-1.5-5.6-3-8.4-4.5 3.5 0.2 7.8 1.5 12.5 3.6 2.3 1.1 4.7 2.4 7.2 3.8 2.4 1.4 4.9 3.1 7.4 4.8 9.9 6.8 19.6 15.1 27.3 20.8 25.7 18.6 49.4 45.9 67 76.6 8.8 15.4 16.3 31.6 22.2 47.9 6 16.4 10.4 32.9 13.8 48.9l0.8 3.6 0.6 3.6q0.7 3.7 1.3 7.4 0.5 3.6 0.9 7.4l0.5 3.7 0.3 3.7q0.3 3.8 0.5 7.5 0.2 3.8 0.3 7.6l0.1 3.8-0.1 3.7q0 2.9-0.1 5.8z"/>
				</g>
				<g id="&lt;Group&gt;">
					<path id="&lt;Path&gt;" class="s1" d="m364.9 551c-0.2-13.8-1.1-27.6-2.9-41.3-2.8-22.8-8-45.4-15.1-67q-1.4-4-2.8-8.1l-1.5-4-1.5-3.9q-1.6-4-3.2-7.9-1.7-3.9-3.4-7.7l-1.7-3.9-1.9-3.7q-1.8-3.8-3.7-7.5-2-3.7-4-7.4l-1.9-3.6-2.2-3.6c-9.2-15.9-19.6-32-31.3-47.8-11.7-15.7-24.8-31-38.9-45.2-28.3-28.4-61.3-52-94-66.8-9.9-4.5-22.6-11.4-35.1-16.8-3.2-1.3-6.3-2.6-9.3-3.7q-4.6-1.6-8.8-2.7c-5.6-1.5-10.6-2.2-14.5-1.9 3.5 1.1 6.9 2.2 10.3 3.3 3.5 1.1 6.8 2.4 10.2 3.6q-4-0.7-7.9-1.7c-2.7-0.7-5.3-1.3-7.9-2.1-5.1-1.5-10.3-2.9-15.5-4.6-10.3-3-20.7-6.1-31.5-7.3-0.4 2.4-0.6 3.5-7.8 3.5 3.5 0.5 7.4 1.2 11.6 1.9 4.2 0.6 8.5 1.5 12.9 2.4 4.3 0.9 8.7 2 12.7 3.1 4.1 1.1 7.9 2.4 11.2 3.7l-1 3.4c-3.5-0.7-7.3-1.7-11.3-2.9-4.1-1-8.3-2.3-12.5-3.4-4.3-1-8.5-2.2-12.6-3-4.1-0.7-8-1.4-11.6-1.6-0.1 1.2-0.5 3.5-0.7 4.7-0.1 0.6-1.8 0.6-4.4 0.4-1.6-0.1-3.6-0.4-5.7-0.6 3 0.4 6.4 0.9 9.9 1.4 5.1 0.8 10.2 1.8 13.6 2.4-0.2 1.1-0.7 3.5-0.9 4.6-0.2 1.3-6.9 0-13.6-1.1-0.4 2.3-7.4 3.8-0.9 5.9 6.6 1.1 13.1 2.2 19.6 3.7-6.5-1.2-12.4-1.5-17.4-1.7-5.1 0.1-9.3 0.4-12.7 1-6.8 1.4-10.2 3.4-10.4 5.2 3.3-0.2 4.8 0.5 6.4 1.3 1.5 0.8 3 1.5 6.3 1.4-2.5 0-4.9 0.3-7.3 0.5-2.3 0.2-4.6 0.5-6.7 0.7-4.1 0.7-7.5 1.4-9.5 2.2-1 0.3-1.7 0.7-2 1.1-0.3 0.4 0 0.8 0.7 1.2 1.5 0.8 4.9 1.5 11.1 2.3 54.2 6 107.2 26.3 152.9 57.6 45.7 31.2 84.2 73.6 109 122.9 21.5 42.6 32.9 90.7 34 139.1z"/>
				</g>
				<g id="&lt;Group&gt;">
					<path id="&lt;Path&gt;" class="s1" d="m499.2 546.7c-0.2 1.1-0.3 2.5-0.3 4.3h-29.6c-1.7-17.3-4.4-34.5-8-51.5-14.4-68.4-43.9-133.7-86.5-188.5-42.5-54.8-98.3-99.3-160.4-130.3-62.1-31-130.7-48.7-199.2-50.4-7.8-0.3-12.2-0.8-14.1-1.5q-0.1 0-0.2 0c-0.8-0.3-1.1-0.7-0.8-1.1q0.2-0.3 0.8-0.6 0.6-0.4 1.5-0.7c2.5-0.9 6.7-1.9 11.8-2.9 2.5-0.4 5.3-0.8 8.2-1.2 2.9-0.4 5.9-0.8 8.9-1.1-4 0.4-6-0.2-8-0.9-1.9-0.6-3.9-1.3-8-0.8 0.1-1.8 4.1-4.1 12.3-5.9 4.1-0.9 9.3-1.6 15.5-2 6.1-0.2 13.4-0.3 21.6 0.5-8.2-1.1-16.4-1.8-24.6-2.3-8.1-1.7 0.2-3.6 0.4-6 8.3 0.6 16.6 1.4 16.7 0.2 0.2-1.2 0.4-3.6 0.5-4.8-4.2-0.3-10.5-1-16.8-1.4-4.7-0.2-9.4-0.5-13.3-0.7q1.4 0 2.7 0.1c1.9 0.1 3.8 0.2 5.4 0.2 3.1 0 5.3-0.2 5.3-0.8 0.1-1.2 0.2-3.5 0.3-4.7 4.3-0.1 9.1 0.3 14.1 0.8 2.6 0.2 5.1 0.6 7.8 0.9q3.9 0.6 7.8 1.2c5.3 0.8 10.6 1.8 15.6 2.6 4.9 0.8 9.7 1.6 13.9 2.1l0.7-3.5c-4.2-1.1-8.9-2.1-13.9-3-5.1-0.8-10.4-1.6-15.7-2.2q-4.1-0.4-8-0.8c-2.7-0.3-5.3-0.6-7.8-0.7-5.1-0.3-10-0.8-14.2-1 8.6-0.6 8.7-1.7 8.9-4.1 13.1 0.4 26 2.8 38.7 5.1 6.4 1.3 12.8 2.4 19.2 3.6q4.8 0.8 9.6 1.5 4.9 0.8 9.8 1.3c-4.2-1-8.4-2.1-12.7-3-4.3-0.9-8.5-1.8-12.8-2.6 4.6-0.6 10.6-0.3 17.5 0.9 3.4 0.6 7.1 1.3 10.9 2.2 3.7 0.8 7.6 2 11.5 3.1 15.8 4.6 32.1 10.9 44.5 15 41.2 13.1 84.4 35.7 123.4 64.1 19.5 14.2 38 29.7 55.2 45.9 17.1 16.3 32.9 33.2 47.2 49.8l3.3 3.8 3.2 3.8q3.1 3.9 6.3 7.8 3 3.9 6.1 7.9l3 4.1 3 4.1q2.9 4.1 5.8 8.2 2.8 4.3 5.6 8.5l2.8 4.3 2.7 4.3q2.6 4.4 5.3 8.8c13.8 23.6 25.8 48.5 35.4 74.4 9.8 25.9 17.2 52.6 22.6 79.3 4 20.3 6.8 40.5 8.4 60.6h-23.6q-0.1-1.3-0.3-2.5c-1.6-10.4-2.9-14.5-2.9-1.8z"/>
				</g>
			</g>
			<g id="&lt;Group&gt;">
			</g>
		</g>
		<g id="&lt;Group&gt;">
			<g id="&lt;Group&gt;">
				<g id="&lt;Group&gt;">
				</g>
			</g>
			<g id="&lt;Group&gt;">
			</g>
			<g id="&lt;Group&gt;">
				<g id="&lt;Group&gt;">
				</g>
			</g>
			<g id="&lt;Group&gt;">
				<g id="&lt;Group&gt;">
				</g>
				<g id="&lt;Group&gt;">
				</g>
				<g id="&lt;Group&gt;">
				</g>
				<g id="&lt;Group&gt;">
				</g>
				<g id="&lt;Group&gt;">
				</g>
			</g>
			<g id="&lt;Group&gt;">
			</g>
			<g id="&lt;Group&gt;">
			</g>
		</g>
		<g id="&lt;Clip Group&gt;" clip-path="url(#cp1)">
			<g id="&lt;Group&gt;">
				<path id="&lt;Path&gt;" class="s1" d="m989.7 134.3c-36.8 4.8-30.5 134.9-18.4 202.7 7.8 43.9 21.3 86.4 36.7 128.3-48.3-78.3-97.4-154.6-148.5-229.3-13.8-20.3-28.1-4-22 12.9 20.7 57 47.4 98.6 88.3 160.6l27.6 38.8c-97.5-94.9-233.2-201-246.9-169.7-22.1 29.8 76 115.6 133.2 153.9 49.6 33.3 104.5 57.6 159.8 80.6l35.3 49.6c-31.4-15.7-64.5-28.1-98.5-36.7-9.6-2.4-19.6-4.6-29.3-2.8-9.7 1.7-19.2 8.3-21.4 17.9-1.9 7.8 1.3 16 6.5 22 5.2 6 12.3 10.1 19.3 13.6 37.1 18.7 101.4 13.1 142.3 20.6 2.1 0.4 4.4 0.9 6.8 1.4l52.3 73.5c10.4 9.6 10.7-2.5 3.7-19.8-6.9-17.3-18.6-37.5-29.7-56.4q-12.2-20.5-24.3-40.8c15.9-26.9 38.1-50 57.1-75 22.7-29.9 41.9-66 36.9-103.2-0.9-7.2-4.6-15.9-11.9-16.1-3.7-0.1-7.4 1.9-10 4.6-51.3 51.4-73.2 98.9-84.7 168.8q-7.1-11.8-14.2-23.6c10.9-134.4-7-390.9-46-376.4z"/>
			</g>
			<g id="&lt;Group&gt;">
			</g>
		</g>
	</g>
</svg>