<svg version="1.2" xmlns="http://www.w3.org/2000/svg" viewBox="0 0 2560 1440" width="2560" height="1440">
	<title>22314005_6589549-ai</title>
	<defs>
		<clipPath clipPathUnits="userSpaceOnUse" id="cp1">
			<path d="m2560 0v1440h-2560v-1440z"/>
		</clipPath>
	</defs>
	<style>
		.s0 { fill: #bceaed } 
		.s1 { fill: #ffc7d5 } 
		.s2 { fill: #fa99ba } 
		.s3 { fill: #00c7d8 } 
		.s4 { fill: #a4e5eb } 
	</style>
	<g id="OBJECTS">
		<g id="&lt;Group&gt;">
			<path id="&lt;Path&gt;" class="s0" d="m2560 1003.7v436.3h-711.4c118.7-216.8-17.7-186.5 30.7-289.5 68.4-145.4 459.4-276.5 680.7-146.8z"/>
			<path id="&lt;Path&gt;" class="s0" d="m1136.9 0c-4.9 14.2-13.1 28.4-21.6 41.1-57 85.4-129.5 180.3-252.6 199.7-96 15.1-199.3-21.2-291.8 3.3-72.1 19.2-119.6 70.7-181.3 105-105.4 58.5-375.8 59.8-389.6-27.4v-321.7z"/>
			<g id="&lt;Group&gt;">
				<path id="&lt;Path&gt;" class="s1" d="m1604.6 1440c-6.8-20-18.5-40.1-30.4-57.9-80.5-120.6-182.8-254.5-356.6-281.9-135.4-21.4-281.2 29.9-411.8-4.8-101.8-27-168.8-99.7-256-148.1-148.7-82.6-530.4-84.4-549.8 38.7v454z"/>
			</g>
		</g>
		<g id="&lt;Group&gt;">
			<g id="&lt;Group&gt;">
				<g id="&lt;Group&gt;">
					<path id="&lt;Path&gt;" class="s2" d="m242.9 1440h-56.5c1-14.9 0.6-29.9-1.5-44.5-3.2-22.6-10.2-44.9-20.3-65.6-10.2-20.8-23.5-40.2-39.1-57.3-30.9-33.9-71.1-59.2-114.4-70.5q-0.8-0.3-1.7-0.5c-5-1.4-7.7-2.4-8.8-3.4q-0.9-0.6-0.5-1.2c0.3-0.3 1-0.7 1.8-0.9 1.8-0.6 4.8-0.9 8.3-1.2q0.5 0 0.9 0 2.3-0.1 4.8-0.1c2 0.1 4.1 0.1 6.2 0.3-2.7-0.3-3.9-1.1-5.1-2-1.2-0.9-2.3-1.9-5.1-2 0.4-1.7 3.6-3.4 9.6-4 2.9-0.2 6.6-0.2 10.9 0.3 4.3 0.7 9.2 1.7 14.6 3.6-5.3-2.2-10.7-4-16.1-5.8-5.2-2.8 1-3.4 1.8-5.7 5.6 1.8 11.1 3.8 11.5 2.6 0.4-1.1 1.2-3.3 1.6-4.5-2.8-0.9-7-2.5-11.3-3.8-3.3-1-6.5-2-9.2-2.7q1 0.3 1.9 0.5c1.3 0.4 2.6 0.7 3.7 1 2.2 0.5 3.7 0.6 3.9 0.1 0.4-1.2 1.1-3.5 1.4-4.6 3.1 0.6 6.4 1.7 9.8 2.9 1.8 0.6 3.5 1.4 5.2 2.1q2.6 1.2 5.3 2.3c3.5 1.6 6.9 3.3 10.3 4.8 3.2 1.6 6.4 3.1 9.3 4.1l1.6-3.1c-2.7-1.7-5.8-3.4-9.1-5-3.4-1.5-6.9-3.1-10.6-4.5q-2.7-1-5.5-2c-1.8-0.7-3.5-1.3-5.3-1.9-3.6-1.1-6.9-2.3-9.9-3.1 6.3 0.7 6.7-0.3 7.5-2.6 9.3 2.4 17.9 6.7 26.4 10.9 4.2 2.2 8.5 4.3 12.7 6.4 2.1 1 4.3 2 6.5 2.9 2.2 1 4.4 1.9 6.7 2.7-2.8-1.5-5.5-3.2-8.3-4.7-2.8-1.5-5.6-3-8.4-4.5 3.5 0.2 7.8 1.5 12.5 3.6 2.3 1.1 4.7 2.4 7.2 3.8 2.4 1.4 4.9 3.1 7.4 4.8 9.9 6.8 19.6 15.1 27.3 20.8 25.7 18.6 49.4 45.9 67 76.6 8.8 15.4 16.3 31.6 22.2 47.9 6 16.4 10.4 32.9 13.8 48.9l0.8 3.6 0.6 3.6q0.7 3.7 1.3 7.4 0.5 3.6 0.9 7.4l0.5 3.7 0.3 3.7q0.3 3.8 0.5 7.5 0.2 3.8 0.3 7.6l0.1 3.8-0.1 3.7q0 2.9-0.1 5.8z"/>
				</g>
				<g id="&lt;Group&gt;">
					<path id="&lt;Path&gt;" class="s2" d="m364.9 1440c-0.2-13.8-1.1-27.6-2.9-41.3-2.8-22.8-8-45.4-15.1-67q-1.4-4-2.8-8.1l-1.5-4-1.5-3.9q-1.6-4-3.2-7.9-1.7-3.9-3.4-7.7l-1.7-3.9-1.9-3.7q-1.8-3.8-3.7-7.5-2-3.7-4-7.4l-1.9-3.6-2.2-3.6c-9.2-15.9-19.6-32-31.3-47.8-11.7-15.7-24.8-31-38.9-45.2-28.3-28.4-61.3-52-94-66.8-9.9-4.5-22.6-11.4-35.1-16.8-3.2-1.3-6.3-2.6-9.3-3.7q-4.6-1.6-8.8-2.7c-5.6-1.5-10.6-2.2-14.5-1.9 3.5 1.1 6.9 2.2 10.3 3.3 3.5 1.1 6.8 2.4 10.2 3.6q-4-0.7-7.9-1.7c-2.7-0.7-5.3-1.3-7.9-2.1-5.1-1.5-10.3-2.9-15.5-4.6-10.3-3-20.7-6.1-31.5-7.3-0.4 2.4-0.6 3.5-7.8 3.5 3.5 0.5 7.4 1.2 11.6 1.9 4.2 0.6 8.5 1.5 12.9 2.4 4.3 0.9 8.7 2 12.7 3.1 4.1 1.1 7.9 2.4 11.2 3.7l-1 3.4c-3.5-0.7-7.3-1.7-11.3-2.9-4.1-1-8.3-2.3-12.5-3.4-4.3-1-8.5-2.2-12.6-3-4.1-0.7-8-1.4-11.6-1.6-0.1 1.2-0.5 3.5-0.7 4.7-0.1 0.6-1.8 0.6-4.4 0.4-1.6-0.1-3.6-0.4-5.7-0.6 3 0.4 6.4 0.9 9.9 1.4 5.1 0.8 10.2 1.8 13.6 2.4-0.2 1.1-0.7 3.5-0.9 4.6-0.2 1.3-6.9 0-13.6-1.1-0.4 2.3-7.4 3.8-0.9 5.9 6.6 1.1 13.1 2.2 19.6 3.7-6.5-1.2-12.4-1.5-17.4-1.7-5.1 0.1-9.3 0.4-12.7 1-6.8 1.4-10.2 3.4-10.4 5.2 3.3-0.2 4.8 0.5 6.4 1.3 1.5 0.8 3 1.5 6.3 1.4-2.5 0-4.9 0.3-7.3 0.5-2.3 0.2-4.6 0.5-6.7 0.7-4.1 0.7-7.5 1.4-9.5 2.2-1 0.3-1.7 0.7-2 1.1-0.3 0.4 0 0.8 0.7 1.2 1.5 0.8 4.9 1.5 11.1 2.3 54.2 6 107.2 26.3 152.9 57.6 45.7 31.2 84.2 73.6 109 122.9 21.5 42.6 32.9 90.7 34 139.1z"/>
				</g>
				<g id="&lt;Group&gt;">
					<path id="&lt;Path&gt;" class="s2" d="m499.2 1435.7c-0.2 1.1-0.3 2.5-0.3 4.3h-29.6c-1.7-17.3-4.4-34.5-8-51.5-14.4-68.4-43.9-133.7-86.5-188.5-42.5-54.8-98.3-99.3-160.4-130.3-62.1-31-130.7-48.7-199.2-50.4-7.8-0.3-12.2-0.8-14.1-1.5q-0.1 0-0.2 0c-0.8-0.3-1.1-0.7-0.8-1.1q0.2-0.3 0.8-0.6 0.6-0.4 1.5-0.7c2.5-0.9 6.7-1.9 11.8-2.9 2.5-0.4 5.3-0.8 8.2-1.2 2.9-0.4 5.9-0.8 8.9-1.1-4 0.4-6-0.2-8-0.9-1.9-0.6-3.9-1.3-8-0.8 0.1-1.8 4.1-4.1 12.3-5.9 4.1-0.9 9.3-1.6 15.5-2 6.1-0.2 13.4-0.3 21.6 0.5-8.2-1.1-16.4-1.8-24.6-2.3-8.1-1.7 0.2-3.6 0.4-6 8.3 0.6 16.6 1.4 16.7 0.2 0.2-1.2 0.4-3.6 0.5-4.8-4.2-0.3-10.5-1-16.8-1.4-4.7-0.2-9.4-0.5-13.3-0.7q1.4 0 2.7 0.1c1.9 0.1 3.8 0.2 5.4 0.2 3.1 0 5.3-0.2 5.3-0.8 0.1-1.2 0.2-3.5 0.3-4.7 4.3-0.1 9.1 0.3 14.1 0.8 2.6 0.2 5.1 0.6 7.8 0.9q3.9 0.6 7.8 1.2c5.3 0.8 10.6 1.8 15.6 2.6 4.9 0.8 9.7 1.6 13.9 2.1l0.7-3.5c-4.2-1.1-8.9-2.1-13.9-3-5.1-0.8-10.4-1.6-15.7-2.2q-4.1-0.4-8-0.8c-2.7-0.3-5.3-0.6-7.8-0.7-5.1-0.3-10-0.8-14.2-1 8.6-0.6 8.7-1.7 8.9-4.1 13.1 0.4 26 2.8 38.7 5.1 6.4 1.3 12.8 2.4 19.2 3.6q4.8 0.8 9.6 1.5 4.9 0.8 9.8 1.3c-4.2-1-8.4-2.1-12.7-3-4.3-0.9-8.5-1.8-12.8-2.6 4.6-0.6 10.6-0.3 17.5 0.9 3.4 0.6 7.1 1.3 10.9 2.2 3.7 0.8 7.6 2 11.5 3.1 15.8 4.6 32.1 10.9 44.5 15 41.2 13.1 84.4 35.7 123.4 64.1 19.5 14.2 38 29.7 55.2 45.9 17.1 16.3 32.9 33.2 47.2 49.8l3.3 3.8 3.2 3.8q3.1 3.9 6.3 7.8 3 3.9 6.1 7.9l3 4.1 3 4.1q2.9 4.1 5.8 8.2 2.8 4.3 5.6 8.5l2.8 4.3 2.7 4.3q2.6 4.4 5.3 8.8c13.8 23.6 25.8 48.5 35.4 74.4 9.8 25.9 17.2 52.6 22.6 79.3 4 20.3 6.8 40.5 8.4 60.6h-23.6q-0.1-1.3-0.3-2.5c-1.6-10.4-2.9-14.5-2.9-1.8z"/>
				</g>
			</g>
			<g id="&lt;Group&gt;">
				<path id="&lt;Path&gt;" class="s3" d="m2560 1301.9c-98.1-16.1-238.7-83.7-286.1-167.6-12-21.1-21.6-46.9-12-69.3 10.6-24.6 42.1-34.9 68.3-29.1 26.2 5.9 47.8 24.2 66.3 43.7 18.5 19.5 35.3 40.9 57.4 56.2-43.9-52.6-70.1-119.8-73.4-188.3-1.4-30.5 5.9-67.3 34.3-78.2 32.2-12.4 65.6 19 77.2 51.4 11.7 32.5 12.6 69.3 31.5 98.2-16.5-64.2-33.1-129.5-30.6-195.8 2.2-61.2 23-124.2 67.1-166z"/>
			</g>
		</g>
		<g id="&lt;Group&gt;">
			<g id="&lt;Group&gt;">
				<g id="&lt;Group&gt;">
					<path id="&lt;Path&gt;" class="s1" d="m1277.2 321.9c-0.5-3-13.8-3.2-16.9-3.9-9.6-2.2-11.8-13.7-11.8-23.5-0.1-30.5-7.7-29.4-8.4-29v0.2c-1 0-4.3 3-4.3 30.8 0 9.8-0.8 18.4-10.3 20.5-3.2 0.7-20.1-1.3-20.5 3.1-0.4 4.5-0.8 5.1 16 8.6 22.6 4.8 5.3 46.2 19.4 48.4v-0.4c13.6-2.6-3.3-43.5 19.1-48.3 16.8-3.5 18.5-1.9 17.7-6.5z"/>
				</g>
				<path id="&lt;Path&gt;" class="s0" d="m1174.4 430c-0.4-2.5-11-2.6-13.5-3.2-7.6-1.7-9.3-10.9-9.4-18.6 0-24.3-6-23.4-6.6-23.1v0.2c-0.8 0-3.4 2.3-3.4 24.5 0 7.7-0.7 14.5-8.2 16.3-2.5 0.5-15.9-1.1-16.3 2.4-0.4 3.6-0.6 4 12.8 6.9 17.9 3.8 4.1 36.6 15.3 38.4v-0.3c10.8-2.1-2.6-34.6 15.2-38.4 13.4-2.8 14.7-1.5 14.1-5.1z"/>
			</g>
			<g id="&lt;Group&gt;">
				<path id="&lt;Compound Path&gt;" fill-rule="evenodd" class="s3" d="m1926.9 1311.5c-12.3 22.5-39 34.8-63.5 24.7-24.2-10-32.4-38.3-21.1-61.2 12-24.4 42.3-32.1 66.8-24.1q1.4 0.4 2.2 1.2c25.6 6.2 26.8 39 15.6 59.4zm-20.8-48.6c-1.7-0.1-3-0.8-3.9-1.8-17-4.2-36.9-0.3-47.2 15.1-9.8 14.7-8.2 36.3 7.3 46.4 15.7 10.2 36 5.7 48.2-7.8 11-12.4 22-49.6-4.4-51.9z"/>
				<path id="&lt;Compound Path&gt;" fill-rule="evenodd" class="s3" d="m1822.9 1205.2c-6.5 12.4-21 19.3-34.5 14.4-13.9-5.1-19.1-20.9-13.1-34 6.4-13.9 22.9-18.3 36.7-14.1q1.3 0.4 2.2 1.2c12.8 4.5 14.9 20.5 8.7 32.5zm-13.2-22c-1-0.1-1.9-0.5-2.7-1-6.9-1.6-14.6-0.5-19.3 5.3-4.6 5.7-4.8 15 1.6 19.6 6.1 4.3 14.4 2.7 19.5-2.3 4.2-4 11.3-20.3 0.9-21.6z"/>
				<path id="&lt;Compound Path&gt;" fill-rule="evenodd" class="s3" d="m1966.3 1180.9c-6.8 16.5-26.3 22.2-41.8 14-15.9-8.4-20.6-27.9-15.3-44.1 0.2-0.7 0.5-1.3 0.9-1.8 4.5-17.3 27.1-17.8 40.6-10 14.5 8.4 22.2 25.9 15.6 41.9zm-45.5-26.1c-0.2 1.3-0.7 2.3-1.4 2.9-1.8 8.9-0.1 18.4 7.2 24.6 8.1 6.9 21.6 6.4 27.6-3.1 15.5-25-30.6-45.3-33.4-24.4z"/>
			</g>
			<g id="&lt;Group&gt;">
				<g id="&lt;Group&gt;">
					<path id="&lt;Path&gt;" class="s1" d="m2143.3 588.1c0.5-3.1 13.8-3.2 16.9-4 9.6-2.1 11.8-13.7 11.8-23.5 0.1-30.4 7.7-29.4 8.3-29v0.3c1.1 0 4.3 2.9 4.4 30.8 0 9.8 0.8 18.3 10.3 20.5 3.2 0.7 20-1.4 20.5 3 0.4 4.6 0.7 5.1-16.1 8.7-22.5 4.8-5.2 46.1-19.3 48.3v-0.4c-13.6-2.6 3.3-43.5-19.1-48.2-16.8-3.6-18.5-2-17.7-6.5z"/>
				</g>
				<path id="&lt;Path&gt;" class="s0" d="m2246.1 696.1c0.4-2.4 11-2.6 13.5-3.1 7.5-1.7 9.3-10.9 9.3-18.7 0.1-24.2 6.1-23.4 6.7-23.1v0.2c0.8 0 3.4 2.4 3.4 24.5 0 7.8 0.6 14.6 8.2 16.3 2.5 0.6 15.9-1.1 16.3 2.4 0.3 3.7 0.6 4.1-12.8 6.9-17.9 3.8-4.1 36.7-15.3 38.4v-0.3c-10.9-2.1 2.6-34.5-15.2-38.3-13.4-2.9-14.7-1.6-14.1-5.2z"/>
			</g>
			<g id="&lt;Group&gt;">
				<g id="&lt;Group&gt;">
					<path id="&lt;Path&gt;" class="s4" d="m179.1 587.3c-14.1 0.8-27.9 9.5-33.2 22.6-5.2 13.1-0.6 30 11.5 37.2 10.9 6.5 25.8 4.3 35.2-4.1 9.4-8.4 13.4-22.1 11.3-34.5-1-6.2-3.5-12.4-8.2-16.6-4.6-4.2-11.6-6.2-17.4-3.8"/>
				</g>
				<g id="&lt;Group&gt;">
					<path id="&lt;Path&gt;" class="s4" d="m272.9 598.7c-14.1 0.9-27.9 9.6-33.1 22.7-5.3 13.1-0.7 29.9 11.5 37.2 10.8 6.4 25.7 4.2 35.1-4.2 9.4-8.4 13.4-22 11.3-34.5-1-6.2-3.5-12.3-8.2-16.6-4.6-4.2-11.6-6.1-17.4-3.7"/>
				</g>
				<g id="&lt;Group&gt;">
					<path id="&lt;Path&gt;" class="s4" d="m141.8 702.7c-14.1 0.9-27.9 9.6-33.2 22.7-5.3 13.1-0.6 29.9 11.5 37.1 10.8 6.5 25.7 4.3 35.2-4.1 9.4-8.4 13.3-22 11.3-34.5-1.1-6.2-3.6-12.3-8.2-16.6-4.7-4.2-11.7-6.1-17.5-3.7"/>
				</g>
				<g id="&lt;Group&gt;">
					<path id="&lt;Path&gt;" class="s4" d="m226.4 732.6c-8.7 0.5-17.2 5.9-20.5 14-3.2 8-0.4 18.4 7.1 22.9 6.7 4 15.9 2.6 21.7-2.6 5.8-5.1 8.2-13.5 7-21.2-0.7-3.9-2.2-7.7-5.1-10.3-2.9-2.6-7.2-3.8-10.8-2.3"/>
				</g>
				<g id="&lt;Group&gt;">
					<path id="&lt;Path&gt;" class="s4" d="m235.1 501.5c-8.7 0.5-17.2 5.9-20.4 13.9-3.3 8.1-0.4 18.5 7.1 23 6.7 4 15.8 2.6 21.6-2.6 5.9-5.2 8.3-13.6 7-21.3-0.6-3.8-2.2-7.6-5-10.2-2.9-2.6-7.2-3.8-10.8-2.3"/>
				</g>
			</g>
			<g id="&lt;Group&gt;">
				<path id="&lt;Compound Path&gt;" fill-rule="evenodd" class="s3" d="m1682.5 123.6c18.1 10.3 27.8 32.1 19.3 51.8-8.4 19.5-31.4 25.9-49.9 16.5-19.7-10.1-25.5-34.7-18.8-54.5q0.4-1.1 1.1-1.8c5.2-20.6 31.9-21.2 48.3-12zm-39.6 16.4c-0.2 1.3-0.8 2.4-1.6 3.1-3.6 13.8-0.6 30 11.7 38.5 11.8 8.1 29.4 7 37.7-5.4 8.5-12.7 5.1-29.2-5.8-39.2-9.8-9.1-39.9-18.4-42 3z"/>
				<path id="&lt;Compound Path&gt;" fill-rule="evenodd" class="s3" d="m1595.1 206.8c10 5.4 15.4 17.2 11.3 28.1-4.3 11.3-17.2 15.3-27.7 10.3-11.2-5.3-14.7-18.8-11-29.9q0.3-1.1 0.9-1.8c3.9-10.4 16.8-11.9 26.5-6.7zm-18 10.4c-0.1 0.9-0.4 1.6-0.8 2.2-1.4 5.6-0.6 11.8 4.1 15.7 4.5 3.8 12.1 4.1 15.8-1 3.6-4.9 2.4-11.7-1.6-15.9-3.2-3.4-16.3-9.4-17.5-1z"/>
				<path id="&lt;Compound Path&gt;" fill-rule="evenodd" class="s3" d="m1577 90.2c13.3 5.7 17.7 21.6 10.9 34.1-7 12.8-22.9 16.3-36 11.9-0.5-0.2-1-0.4-1.4-0.7-14-3.9-14.1-22.2-7.6-33.1 6.9-11.6 21.2-17.7 34.1-12.2zm-21.7 36.7c1.1 0.1 1.9 0.5 2.4 1.1 7.2 1.6 14.9 0.3 20-5.5 5.7-6.6 5.5-17.5-2.2-22.4-20.1-12.9-37.1 24.2-20.2 26.8z"/>
			</g>
			<g id="&lt;Group&gt;">
				<path id="&lt;Path&gt;" class="s3" d="m717.2 211.2c3.7-14.5 15.7-26 31-26.8 15.8-0.7 27.1 9 34.1 22.2 6.1 11.4 12.1 22.5 24.1 28.7 9.4 4.9 21 5.4 30.5 0.2 11.2-6.1 12.6-16.5 16-27.7 4.3-14.5 18.7-24.9 34.1-22.5 29.4 4.7 23.9 42.2 49.7 50.5 25.4 8.2 45.2-19.1 33.3-41.5-3.5-6.6-13.5-0.7-10 5.9 7.6 14.5-7.1 31.6-22.4 23.5-10.8-5.7-13-21.4-19.2-30.8-12.3-18.6-37.7-25.1-57-13.7-8.8 5.1-15.5 13.3-18.9 22.9-2.3 6.6-2.2 15.3-7.5 20.6-5.4 5.5-14.1 6-20.9 3.3-14.4-5.7-18.1-20.8-26-32.6-6.1-9.2-15.3-15.9-26-18.9-24.9-7-49.9 9.1-56.1 33.6-1.9 7.3 9.3 10.3 11.2 3.1z"/>
				<path id="&lt;Path&gt;" class="s3" d="m714.1 283.4c3.7-14.5 15.7-26 31.1-26.8 15.7-0.7 27 9 34 22.2 6.1 11.4 12.2 22.5 24.1 28.7 9.5 4.9 21.1 5.4 30.6 0.2 11.1-6.1 12.6-16.4 15.9-27.6 4.3-14.6 18.8-25 34.2-22.6 29.3 4.7 23.9 42.2 49.7 50.5 25.4 8.2 45.1-19 33.2-41.5-3.5-6.6-13.5-0.7-10 5.9 7.7 14.5-7.1 31.6-22.4 23.5-10.7-5.7-12.9-21.4-19.2-30.8-12.3-18.5-37.7-25.1-57-13.7-8.7 5.1-15.5 13.3-18.8 22.9-2.4 6.6-2.3 15.3-7.5 20.6-5.4 5.5-14.1 6-20.9 3.3-14.4-5.7-18.2-20.8-26-32.5-6.2-9.3-15.4-16-26-19-25-7-49.9 9.1-56.2 33.7-1.8 7.2 9.4 10.2 11.2 3z"/>
			</g>
		</g>
		<g id="&lt;Clip Group&gt;" clip-path="url(#cp1)">
			<path id="&lt;Compound Path&gt;" fill-rule="evenodd" class="s2" d="m2018.8 110.3c1-17.3-12.9-34.1 0.8-50 15-17.2 38.8-9.7 55.5 0.2 21.2 12.5 41.8 26.4 61.7 40.9 35.9 26.3 67.6 56.7 94 92.4 58.1-47 113.5-97.1 164.3-152.1 14.1-15.3 27.8-30.9 41.3-46.8-37.2 2.8-74.3-3.1-108.8-17.9-18.7-8-36.2-18.3-52.2-31-11.9-9.5-32.1-23.7-31.3-41.2 0.8-17.9 19.4-20.3 33.6-19.7 21.8 0.9 43.8 4.6 64.8 10.6 41.9 11.9 87.3 38.4 120.1 67.3 30.3-37.8 59.1-76.7 87.3-116.2 5.8-8.2 19.3-0.1 13.4 8.2-45.6 64-93.2 126.9-145.8 185.4 7.1 44.7 18 97 20.1 142.3 1 22.1-2.7 89.9-42.3 71.8-15.2-7-20.2-25.5-24.3-40.3-5.2-18.8-7.9-38.4-8.2-57.9-0.4-25.4 5.2-49.6 14.1-72.9-43.8 44.6-90.8 86-139.5 125.2 37.3 27 65.7 64.3 82 107.4 7.7 20.1 12.3 41.3 14 62.8 1.6 20.9 1.4 45.9-15.6 61-6.4 5.7-14.9 9.4-23.5 9.3-10.5-0.1-21.6-11.7-31.2-9.7-14.1 3-20.9 22.3-35.6 26.6-18.3 5.4-33.8-9.7-38.3-26.3-6.1-22.8-2.3-50.5-1.2-73.9q1-21.7 3.7-43.2c-8.4 14.1-18.4 27.4-29.7 39.6-22.9 24.7-71 68.4-107.5 47-7.4-4.3-13.3-11.2-15.5-19.5-2.6-9.7 2-21.9-8-28-14.7-8.9-35.9-5.2-43.1-24.8-7.7-20.8 9.3-37.9 25.7-47.7 21-12.5 42.9-23.8 64.9-34.2 19-9 38.4-16.6 58.1-22.9-17.7-0.2-35.4-2.3-52.9-6.5-22-5.3-43.5-14-62.9-25.8-15.9-9.8-31.8-24-32.3-44.1-0.2-9.2 2.8-18.7 9.6-25.2 7.1-6.8 20-8.8 20.7-20.2zm188.4 121.7c-42.9 5.7-83.8 19.1-122.9 37.6-17.5 8.3-34.6 17.5-51.6 26.9-9.2 5.1-20.4 10.1-26.6 19-8 11.4-2.7 20.9 9.2 24.9 12.9 4.3 28.1 5.6 35.1 19.1 3.5 6.8 2.5 14 3.2 21.2 1 10.5 8.3 16.8 18.7 18 19.3 2.1 40.3-14.2 54.6-25.4 15.1-12 28.7-26.1 40-41.6 21.5-29.4 35.5-63.7 40.3-99.7zm25-7.7c-17.3 43.9-25.7 89.7-28.2 136.9-1.1 21.1-2.6 43-1.1 64.1 0.8 10.7 6 30.1 20.9 25.3 5.9-1.8 10.5-7.8 14.7-12 7.9-8.1 16.9-16 28.9-15 9.8 0.9 17.4 9.3 27 9.5 12.3 0.2 19.6-11.4 22.2-22.1 4.6-18.6 1-40.9-3-59.2-3.8-17.9-9.9-35.1-18.1-51.4-15-30-36.6-56-63.3-76.1zm187.3-71.5c-3-33.8-7.3-67.4-12.5-100.8q-3.9 4.1-7.8 8.2c-11.9 25.4-18.9 52.9-20.4 80.9-1.5 28.5 0.8 63.4 14.4 89.2 2.5 4.9 9.5 12 16.1 10.3 3.6-1 6.5-8.2 7.7-11.2 3.2-8.5 4.4-17.9 4.9-27 0.9-16.5-0.9-33.2-2.4-49.6zm30.7-174.6q1-1.2 2-2.5c-26.7-23.5-65.5-48.5-98.8-60.1-16.1-5.6-32.8-9.8-49.7-12.3-8.7-1.3-17.4-2.1-26.1-2.5-2.4-0.1-10.1-1-12.3 0.3-6.5 3.6-3 11.1 0.3 14.8 42.7 49.6 118.3 70.8 181.5 62.2 1.1-0.2 2.1-0.1 3.1 0.1zm-420 109.2c2.7 12.8 7.9 26.4-0.1 38.4-4.3 6.5-11 8.7-17 13.1-9.1 6.7-11.2 16.9-6 27.1 8.8 17.2 32.4 27.3 49.4 34.3 17.8 7.3 36.8 12.3 55.9 14.6 35.5 4.3 71.7 0 105-13-25.3-34.2-56.1-63.3-90.4-88.2-15.7-11.4-31.9-22-48.3-32.4-10-6.3-21.6-15.6-34-15.8-13.5-0.1-16.9 10.8-14.5 21.9z"/>
			<g id="&lt;Group&gt;">
				<path id="&lt;Path&gt;" class="s2" d="m989.7 1023.3c-36.8 4.8-30.5 134.9-18.4 202.7 7.8 43.9 21.3 86.4 36.7 128.3-48.3-78.3-97.4-154.6-148.5-229.3-13.8-20.3-28.1-4-22 12.9 20.7 57 47.4 98.6 88.3 160.6l27.6 38.8c-97.5-94.9-233.2-201-246.9-169.7-22.1 29.8 76 115.6 133.2 153.9 49.6 33.3 104.5 57.6 159.8 80.6l35.3 49.6c-31.4-15.7-64.5-28.1-98.5-36.7-9.6-2.4-19.6-4.6-29.3-2.8-9.7 1.7-19.2 8.3-21.4 17.9-1.9 7.8 1.3 16 6.5 22 5.2 6 12.3 10.1 19.3 13.6 37.1 18.7 101.4 13.1 142.3 20.6 2.1 0.4 4.4 0.9 6.8 1.4l52.3 73.5c10.4 9.6 10.7-2.5 3.7-19.8-6.9-17.3-18.6-37.5-29.7-56.4q-12.2-20.5-24.3-40.8c15.9-26.9 38.1-50 57.1-75 22.7-29.9 41.9-66 36.9-103.2-0.9-7.2-4.6-15.9-11.9-16.1-3.7-0.1-7.4 1.9-10 4.6-51.3 51.4-73.2 98.9-84.7 168.8q-7.1-11.8-14.2-23.6c10.9-134.4-7-390.9-46-376.4z"/>
			</g>
			<g id="&lt;Group&gt;">
				<path id="&lt;Path&gt;" class="s3" d="m101.3 451c36.1-8.6 16-137.3-3.3-203.4-12.4-42.9-30.4-83.7-50.1-123.8 56.4 72.8 113.3 143.5 172 212.3 15.9 18.7 28.4 0.9 20.5-15.2-26.6-54.4-57.6-93-104.8-150.4l-31.6-35.5c107 83.9 253.3 175 263.5 142.3 18.8-31.9-87.8-106.7-148.8-138.8-52.9-27.8-110.1-46.1-167.5-63l-40.4-45.6c32.9 12.3 67.1 21.1 101.9 26 9.8 1.4 19.9 2.5 29.4-0.3 9.5-2.8 18.2-10.4 19.4-20.2 1-7.8-3-15.7-8.8-21.1-5.9-5.4-13.3-8.7-20.7-11.5-38.9-14.6-102.2-2.2-143.7-5.3-2.1-0.1-4.5-0.4-6.9-0.7l-59.8-67.5c-11.3-8.4-10.4 3.6-1.6 20.1 8.7 16.5 22.5 35.3 35.6 52.9q14.3 19.1 28.5 38c-12.9 28.5-32.5 53.8-48.8 80.7-19.4 32.1-34.6 70.1-25.7 106.5 1.7 7.1 6.3 15.3 13.5 14.7 3.8-0.3 7.2-2.7 9.5-5.6 45.5-56.5 62.2-106.1 66.2-176.8q8.3 11 16.6 21.9c3.6 134.7 48.7 387.9 85.9 369.3z"/>
			</g>
		</g>
	</g>
</svg>