<svg version="1.2" xmlns="http://www.w3.org/2000/svg" viewBox="0 0 1040 500" width="1040" height="500">
	<title>58493221_9403711-ai</title>
	<style>
		.s0 { fill: #fe5487 } 
	</style>
	<g id="OBJECTS">
		<g id="&lt;Group&gt;">
			<g id="&lt;Group&gt;">
				<path id="&lt;Path&gt;" class="s0" d="m0 377c0 0 86.2-30.8 181.8 25.7 95.7 56.6 293.3 96.8 406 97.3h-587.8z"/>
			</g>
			<g id="&lt;Group&gt;">
				<path id="&lt;Path&gt;" class="s0" d="m1040 87.1c0 0-112.9 40.2-238.1-33.8-125.2-74-383.9-126.6-531.4-127.3h769.5z"/>
				<path id="&lt;Path&gt; copy" class="s0" d="m222.8-14.5c0 0 5.9 134.2-172.9 174.7-178.8 40.5-391.6 215.8-467.1 342.5l388.4-664.3z"/>
				<path id="&lt;Path&gt; copy 2" class="s0" d="m364.3 1149.7c0 0-47.8-192.9 199.6-304 247.5-111.1 505-427.7 577.4-633.6l-369 1077.3z"/>
			</g>
		</g>
		<g id="&lt;Group&gt;">
			<g id="&lt;Group&gt;">
				<g id="&lt;Group&gt;">
					<g id="&lt;Group&gt;">
						<g id="&lt;Group&gt;" style="opacity: .3;mix-blend-mode: overlay">
						</g>
						<g id="&lt;Group&gt;" style="opacity: .3;mix-blend-mode: overlay">
						</g>
						<g id="&lt;Group&gt;" style="opacity: .3;mix-blend-mode: overlay">
						</g>
					</g>
					<g id="&lt;Group&gt;">
						<g id="&lt;Group&gt;">
						</g>
					</g>
					<g id="&lt;Group&gt;">
						<g id="&lt;Group&gt;" style="opacity: .3">
						</g>
						<g id="&lt;Group&gt;" style="opacity: .3;mix-blend-mode: overlay">
						</g>
					</g>
					<g id="&lt;Group&gt;">
						<g id="&lt;Group&gt;" style="mix-blend-mode: overlay">
						</g>
						<g id="&lt;Group&gt;" style="opacity: .3;mix-blend-mode: overlay">
						</g>
						<g id="&lt;Group&gt;">
						</g>
						<g id="&lt;Group&gt;">
						</g>
					</g>
				</g>
			</g>
		</g>
	</g>
</svg>