<svg version="1.2" xmlns="http://www.w3.org/2000/svg" viewBox="0 0 358 238" width="358" height="238">
	<title>986087_81502-OGUDTQ-704-ai</title>
	<style>
		.s0 { fill: #ffffff } 
		.s1 { fill: #fce148 } 
		.s2 { fill: #fcfa68 } 
		.s3 { fill: #fcb42f } 
		.s4 { fill: #f49749 } 
		.s5 { fill: #d1ecff } 
		.s6 { fill: none;stroke: #ffff6a;stroke-miterlimit:10;stroke-width: 2 } 
		.s7 { fill: #6dccfa } 
		.s8 { fill: #52bbf3 } 
		.s9 { fill: #3296ca } 
	</style>
	<g id="OBJECTS">
		<g id="&lt;Group&gt;">
			<g id="&lt;Group&gt;">
				<g id="&lt;Group&gt;">
					<g id="&lt;Group&gt;">
						<g id="&lt;Group&gt;">
							<path id="&lt;Path&gt;" class="s0" d="m5.1 88.5c0 0-13.6 14 4.9 11.7 0 0-5.1 15.2 12.7 9.4 0 0 2.4 19.3 12.2 0.7l-9.2-18.8z"/>
						</g>
						<g id="&lt;Group&gt;">
							<path id="&lt;Path&gt;" class="s0" d="m220.3 27.4c0 0 18.9 4.8 2 12.6 0 0 12.3 10.3-5.8 14.7 0 0 8 17.7-10.1 6.9l-2-20.8z"/>
						</g>
						<g id="&lt;Group&gt;">
							<path id="&lt;Path&gt;" class="s1" d="m220.3 27.4c-63-30-118.6-10-118.6-10 0 0-58.7 12.4-96.6 71.1l29.8 21.8 16.6-17.5 25.1 111.9c0 0 43.8 34 84.6 22.4 40.8-11.6 60.2-63.5 60.2-63.5l-38.4-108.1 23.4 6.1z"/>
						</g>
						<g id="&lt;Group&gt;">
							<path id="&lt;Path&gt;" class="s2" d="m158.7 227.8q1.2-0.3 2.5-0.7 1.2-0.3 2.4-0.7l-54.4-191.9-4.9 1.4z"/>
						</g>
						<g id="&lt;Group&gt;">
							<path id="&lt;Path&gt;" class="s3" d="m105.6 31c-4.6 1.3-14.7-0.7-21.3-7.9-5.2 2.1-11.4 4.9-18 8.6-3 4-4.5 8.9-2.2 14.6 6.2 15.4 21.5 3.7 21.5 3.7 0 0-3.6 14.9 9.1 19.6 14.5 5.4 17.5-15.1 17.5-15.1 0 0 13.4 15.9 22.9 3.7 8.3-10.7-2.6-21.5-2.6-21.5 0 0 19.2 1.9 16.4-14.4-1-6-4.8-9.4-9.3-11.2-7.7 0.3-14.5 1.1-20.1 2.1-1.8 9.5-9.4 16.5-13.9 17.8z"/>
						</g>
						<g id="&lt;Group&gt;">
							<path id="&lt;Path&gt;" class="s4" d="m122.9 11.3c-13.4 2.2-21.4 5.2-21.4 5.2 0 0-8.5 1.6-21 6.8l3.8 13.3 42.4-12z"/>
						</g>
						<path id="&lt;Path&gt;" class="s4" d="m72.9 188.6l3.7 16.1c0 0 37.8 29.3 75.9 24.2-17.6-36.9-57.1-42.4-79.6-40.3z"/>
						<path id="&lt;Path&gt;" class="s4" d="m221.4 163.6l-5.4-16c-47.3 24.8-47.3 63.7-45.9 76.2 34.7-15.9 51.3-60.2 51.3-60.2z"/>
						<g id="&lt;Group&gt;">
							<path id="&lt;Path&gt;" class="s0" d="m105.2 29.7c-4.8 1.3-15.5-0.4-21.8-7.6-4.4 1.7-9.4 3.9-14.9 6.6-4.4 4.1-7.5 9.5-4.9 15.9 5.8 13.9 21.3 2.9 21.3 2.9 0 0-4 13.7 8.5 17.6 14.3 4.6 17.8-14.2 17.8-14.2 0 0 12.9 14.1 22.7 2.8 8.5-9.9-2.1-19.5-2.1-19.5 0 0 19 1.2 16.6-13.6-1.1-6.9-6.6-9.8-12.5-11-6.1 0.6-11.5 1.3-16.2 2.2-1.5 9.4-9.7 16.5-14.5 17.9z"/>
						</g>
						<g id="&lt;Group&gt;">
							<path id="&lt;Path&gt;" class="s5" d="m94.8 61.5q2.7 0.7 4.7 0.2c4.9-1.4 7.3-8.8 7.9-11.5l0.2-1.4c-3.9 4.5-8.2 8.8-12.8 12.7z"/>
						</g>
						<g id="&lt;Group&gt;">
							<path id="&lt;Path&gt;" class="s5" d="m137.8 14.2c-0.5 6.5-3.4 12.7-8.4 15.9l2.7 0.2c0 0 3.4 0.2 6.8-0.8 5.8-1.6 6.1-5.1 5.6-8.3-0.3-2.3-1.5-5.3-6.7-7z"/>
						</g>
						<g id="&lt;Group&gt;">
							<path id="&lt;Path&gt;" class="s5" d="m118.4 51.8c2.5 1.6 5.7 2.9 8.4 2.1q2.2-0.6 4.1-2.8c5.4-6.3 0-12.3-1.5-13.8-2.3 5.6-6.3 10.5-11 14.5z"/>
						</g>
						<path id="&lt;Path&gt;" class="s6" d=""/>
						<g id="&lt;Group&gt;">
							<path id="&lt;Path&gt;" class="s4" d="m145.5 86.8c0.8 2.8-0.8 5.7-3.6 6.5-2.8 0.7-5.6-0.9-6.4-3.6-0.8-2.8 0.8-5.7 3.6-6.5 2.7-0.7 5.6 0.9 6.4 3.6z"/>
						</g>
						<g id="&lt;Group&gt;">
							<path id="&lt;Path&gt;" class="s4" d="m160 137.9c0.8 2.8-0.8 5.7-3.6 6.4-2.8 0.8-5.7-0.8-6.4-3.5-0.8-2.8 0.8-5.7 3.5-6.5 2.8-0.8 5.7 0.8 6.5 3.6z"/>
						</g>
					</g>
					<g id="&lt;Group&gt;">
						<path id="&lt;Path&gt;" class="s3" d="m51.5 92.8l8.6-10.8-0.5 46.8z"/>
					</g>
					<g id="&lt;Group&gt;">
						<path id="&lt;Path&gt;" class="s3" d="m183 55.5l-12.9-4.7 25 39.6z"/>
					</g>
				</g>
				<g id="&lt;Group&gt;">
					<g id="&lt;Group&gt;">
						<path id="&lt;Path&gt;" class="s0" d="m168.3 54.9l-4.7 4.1c-1.2 1.1-1.4 2.9-0.5 4.2l11.7 16.4c1.1 1.5 3.2 1.7 4.6 0.5l3.8-3.3z"/>
					</g>
					<g id="&lt;Group&gt;">
						<path id="&lt;Path&gt;" class="s7" d="m168.3 54.9c42.4-53.2 87.2-52.5 87.2-52.5 22-0.7 43.6 6.3 60.9 19.8 0 0 36.6 25.9 39.5 93.8l-25 9c0 0-8.3-9.7-15-21.9-2.5 33.6-9 91.4-25 127.6l-39-12.7c0 0 15.7-38.6-17-49.2-32.6-10.7-42.7 29.8-42.7 29.8l-39-12.7c8.4-38.8 37.3-89.2 55.1-117.8-12.6 5.8-25.1 8.7-25.1 8.7z"/>
					</g>
					<g id="&lt;Group&gt;">
						<path id="&lt;Path&gt;" class="s8" d="m319.5 24.8c-1.9-1.7-3.1-2.6-3.1-2.6q-1.7-1.3-3.4-2.5c-17 9.3-31.8 3.9-31.8 3.9 0 0-14.8-4.3-23.1-21.3q-1.3 0-2.6 0.1c0 0-2.2-0.1-5.9 0.4 2.4 11.9 16.8 23.1 29.5 27.3 12.9 4.2 31.8 3.5 40.4-5.3z"/>
					</g>
					<path id="&lt;Path&gt;" class="s8" d="m215.5 146.7c0 0-27.1 25.3-34.6 48.2l11.3 3.7c0 0 10.1-40.5 42.7-29.8 32.7 10.6 17 49.2 17 49.2l12.6 4.1c8.8-26.8 1.1-59.1 1.1-59.1z"/>
					<g id="&lt;Group&gt;">
						<path id="&lt;Path&gt;" class="s8" d="m234.9 168.8c13.9 4.5 19.1 14.1 20.4 23.7 17.4-11.1 20.3-37.4 20.7-45.9 0.1-1.6-0.9-3.1-2.4-3.6l-27.4-8.9-27.4-8.9c-1.5-0.5-3.1 0.1-4 1.4-4.6 7.1-17.8 30.1-10.3 49.3 6.7-6.9 16.5-11.7 30.4-7.1z"/>
					</g>
					<g id="&lt;Group&gt;">
						<path id="&lt;Path&gt;" class="s9" d="m314 20.4c-16.4-12-36.3-18.3-56.7-18.1 0.9 8.8 10.4 18.2 23.9 22.6 13.7 4.5 27 2.4 32.8-4.5z"/>
					</g>
					<g id="&lt;Group&gt;">
						<path id="&lt;Path&gt;" class="s0" d="m355.9 116l1.4 6.1c0.3 1.6-0.6 3.2-2.1 3.7l-19.1 6.4c-1.7 0.5-3.6-0.5-4.1-2.3l-1.1-4.9z"/>
					</g>
					<g id="&lt;Group&gt;">
						<path id="&lt;Path&gt;" class="s9" d="m278.2 139.9c0.1-1.6-0.9-3-2.4-3.5l-27.4-8.9-27.4-9c-1.5-0.5-3.2 0.1-4 1.4-5.1 7.9-20.5 34.8-7.5 54.9 0 0 10.4-7.4 24.4-2.8 14 4.5 18 16.6 18 16.6 22.4-8.6 25.8-39.4 26.3-48.7z"/>
					</g>
					<g id="&lt;Group&gt;">
						<path id="&lt;Path&gt;" class="s0" d="m320.3 23.2l-6.1-4.5c-16.6 9.2-31.6 3.7-31.6 3.7 0 0-15.3-4.4-23.2-21.6h-7.6c1 11.7 15.9 23.3 28.9 27.5 13 4.3 31.9 3.7 39.6-5.1z"/>
					</g>
					<g id="&lt;Group&gt;">
						<path id="&lt;Path&gt;" class="s8" d="m215.3 57.5l-32.1 19.3c0 0 12.5-2.9 25.1-8.7z"/>
					</g>
					<g id="&lt;Group&gt;">
						<path id="&lt;Path&gt;" class="s8" d="m316.4 90.5l14.5 34.5c0 0-8.3-9.7-15-21.9z"/>
					</g>
					<path id="&lt;Path&gt;" class="s0" d="m153.2 185.9c-3.5 5.4-3.3 7.1 4.1 9.8 7.4 2.7 30.2 10.7 33.2 10.8 3 0.2 1.7-7.9 1.7-7.9z"/>
					<path id="&lt;Path&gt;" class="s0" d="m251.9 218c-2.7 3.3-4.4 7.5 1 9.3 5.4 1.8 27.8 9.1 32.3 10.5 4.5 1.5 6.4-3.2 5.7-7.1z"/>
					<g id="&lt;Group&gt;">
						<path id="&lt;Path&gt;" class="s5" d="m290.9 65.8c-7.2-12.3-21.8 0.5-21.8 0.5 0 0-3.8-19.1-16.9-13.6-21.5 8.8 5.9 46.2 5.9 46.2 0 0 44.4-13.1 32.8-33.1z"/>
					</g>
				</g>
			</g>
		</g>
	</g>
</svg>