<svg version="1.2" xmlns="http://www.w3.org/2000/svg" viewBox="0 0 1156 654" width="1156" height="654">
	<title>4435997_93178-ai</title>
	<style>
		.s0 { fill: #eeb13d } 
		.s1 { fill: #2483a4 } 
		.s2 { fill: #93c2c9 } 
		.s3 { fill: #96c5d6 } 
	</style>
	<g id="Object">
		<g id="&lt;Group&gt;">
			<g id="&lt;Group&gt;">
				<g id="&lt;Group&gt;">
					<path id="&lt;Path&gt;" class="s0" d="m82.3 160.7l-25-34.4c-0.4-0.5-1.1-0.9-1.8-0.8l-42.5 1.1c-1.7 0.1-2.8-1.9-1.7-3.4l24.9-34.4c0.4-0.5 0.5-1.3 0.3-1.9l-14.3-40c-0.5-1.7 1-3.3 2.7-2.8l40.4 13.1c0.7 0.2 1.4 0.1 2-0.3l33.6-25.9c1.4-1.1 3.4-0.1 3.4 1.7l0.1 42.4c0 0.7 0.4 1.4 0.9 1.8l35.1 24c1.4 1 1.1 3.2-0.6 3.8l-40.4 13.2c-0.6 0.2-1.1 0.7-1.3 1.4l-12.1 40.7c-0.5 1.7-2.7 2.1-3.7 0.7z"/>
				</g>
			</g>
			<g id="&lt;Group&gt;">
				<g id="&lt;Group&gt;">
					<path id="&lt;Path&gt;" class="s0" d="m1038.6 155.9l-4.3-44.9c0-0.7-0.5-1.4-1.1-1.7l-39.4-21.9c-1.6-0.9-1.5-3.3 0.2-4.1l41.3-17.9c0.7-0.3 1.2-0.9 1.3-1.6l8.7-44.3c0.3-1.8 2.6-2.4 3.9-1l29.8 33.7c0.5 0.6 1.2 0.9 2 0.8l44.7-5.5c1.9-0.2 3.2 1.8 2.2 3.4l-22.9 38.8c-0.3 0.7-0.4 1.5-0.1 2.1l19 40.9c0.8 1.7-0.7 3.5-2.5 3.1l-44-9.7c-0.7-0.2-1.5 0-2 0.5l-33 30.7c-1.4 1.3-3.6 0.4-3.8-1.4z"/>
				</g>
			</g>
			<g id="&lt;Group&gt;">
				<g id="&lt;Group&gt;">
					<path id="&lt;Path&gt;" class="s1" d="m907.3 194.2q-0.1 0.2-0.3 0.4 0.2-0.2 0.3-0.4z"/>
				</g>
				<g id="&lt;Group&gt;">
					<path id="&lt;Path&gt;" class="s1" d="m907 194.7q-0.1 0.2-0.2 0.3 0.1-0.1 0.2-0.3z"/>
				</g>
				<g id="&lt;Group&gt;">
					<path id="&lt;Path&gt;" class="s1" d="m906.5 195.3q0 0 0 0 0 0 0 0z"/>
				</g>
				<g id="&lt;Group&gt;">
					<path id="&lt;Path&gt;" class="s1" d="m910 202.1q0 0 0 0c0.4 0.1 0.8 0 0.9-0.4-0.1 0.4-0.5 0.5-0.9 0.4z"/>
				</g>
				<g id="&lt;Group&gt;">
					<path id="&lt;Path&gt;" class="s1" d="m905.4 191.6c-1.4 0.2-2.4 2.2-1.8 3.9-0.5-1.8 0.4-3.7 1.8-3.9z"/>
				</g>
				<g id="&lt;Group&gt;">
					<path id="&lt;Path&gt;" class="s1" d="m921.6 181.6c0.3-0.3 0.7-0.3 1-0.3l-1-0.3q-0.2 0-0.4-0.2c0.1 0.2 0.3 0.6 0.4 0.8z"/>
				</g>
				<g id="&lt;Group&gt;">
					<path id="&lt;Path&gt;" class="s1" d="m923.6 181.6c0.5 0.2 1 0.4 1.5 0.4z"/>
				</g>
				<g id="&lt;Group&gt;">
					<path id="&lt;Path&gt;" class="s1" d="m887.6 179.2l-3.2 0.1c-0.3 0.5-0.4 1.2-0.4 1.9q0 0.2 0.1 0.4l1.5 1.8c1-1.2 1.7-2.6 2-4.2z"/>
				</g>
				<g id="&lt;Group&gt;">
					<path id="&lt;Path&gt;" class="s1" d="m889.5 182.5c-0.4-1-0.1-1.6 0.9-1.8 0.7-0.2 1 0.3 0.8 1 0.8 0.3 1.4 0.6 1.9 1.3 0.7-1.3 0-2.7 0.2-4l-2.9 0.1q-0.2 0.2-0.4 0.4-1.9 2.3-3.8 4.5-0.1 0-0.1 0l2.9 3.7q0.1-0.1 0.2-0.2c1.2-1.6 1.7-3.3 0.3-5z"/>
				</g>
				<g id="&lt;Group&gt;">
					<path id="&lt;Path&gt;" class="s1" d="m893.9 192.9q0.7-0.4 1.3-0.9c0.8-1.3-0.5-2.2-0.8-3.3-0.1-0.6-0.7-0.1-1 0.2-0.4 0.5-0.8 1.1-1.2 1.7-0.5-2.2-0.4-2.5 1.4-3.2 0.1 0 0.4 0 0.4-0.1 0.3-1.9 1.9-3 2.6-4.6 0.6-1.2 1.3-2.5 1.9-3.8l-5.2 0.1c-0.2 1.3 0.5 2.7-0.2 4q-0.2 0.6-0.5 1.2c-0.9 1.7-1.2 3.6-2.1 5.2l2.9 3.7q0.2-0.1 0.5-0.2z"/>
				</g>
				<g id="&lt;Group&gt;">
					<path id="&lt;Path&gt;" class="s1" d="m890 179.5q0.2-0.2 0.4-0.4l-2.8 0.1c-0.3 1.6-1 3-2 4.2l0.5 0.6q0 0 0.1 0 1.9-2.2 3.8-4.5z"/>
				</g>
				<g id="&lt;Group&gt;">
					<path id="&lt;Compound Path&gt;" fill-rule="evenodd" class="s1" d="m902.5 178.8c0.3 0 0.6-0.2 0.7-0.4l1.3-2.1c0.5 0.2 1 0.3 1.1 1 0.1 0.4 1.2 0.2 1.3-0.3 0.2-2.6 1.8-3.7 4.2-4.1-0.4 2.4-1.3 4.5-3.7 5.7-0.1 0.1-0.1 0.3-0.2 0.4-0.5-0.7-1.2-0.9-1.9-0.5-0.7 0.5-1.1 1.3-0.8 2.1 0.4 1.1 0.4 2-0.3 2.9-0.4 0.4-0.4 1.2 0.4 2.2 0.5-1.2 1-2.2 1.2-3.2 0.2-0.8-0.3-1.8 0.9-2.2-0.2 0.5-0.7 1.2 0.5 1.1-0.7 2.2-1 4.6-2.7 6.2-1.8 1.8-1.9 1.9 0.5 3-2.3 1-2.4 3.2-3.1 5.1-0.1 0.4 1 1.5-0.7 1.2-1.1-0.2-1.6-0.7-2.1-1.4q0.4-0.9-0.3-1.6c-0.3-0.9-1.3-0.9-1.7-1.6 0.4-0.8 0.2-1.6-0.2-2.4-0.7-1.6-0.5-1.9 1.3-2.6 0.6 0.4-1 1 0 1.3 0.6 0.2 1.2-0.4 1.1-0.8-0.2-1 1.1-2.4 0.3-2.5-3-0.3-0.6-2.3-1.1-3.4-0.3-0.7 2-2 2.4-1.4 0.3 0.7 0.7 1 1.2 0.3 0.4-0.6 0.8-1.6 0.4-2zm-3.5 12.4c-0.3 0.8 0 1.4 0.8 1.7 0.5 0.2 1.1 0.4 1.3-0.3 0.3-0.9-0.4-1.5-1.1-1.9-0.4-0.3-0.8 0-1 0.5z"/>
				</g>
				<g id="&lt;Group&gt;">
					<path id="&lt;Path&gt;" class="s1" d="m921 215.3c0-1-0.1-1.9 0.4-3 0.5-1.5-0.7-2.6-2.3-3 0 0.6 0 1.3 0.1 2.2-1.2-0.8-1.9-2.4-3.4-1.1 0.7 1 0.6 1.7 0 2.3l4.9 3.3q0.1-0.3 0.3-0.7z"/>
				</g>
				<g id="&lt;Group&gt;">
					<path id="&lt;Path&gt;" class="s1" d="m923.3 211.6c0.6 1.5-1.4 2.4-0.9 3.9 0.2 0.6 0.1 1.1-0.4 1.4l2.3 1.6q0.1 0.1 0.2 0.1c-0.1-0.5-0.1-1.1 0-1.6 0.3-0.9 0.6-1.5 1.1-1.8l-0.3-6.5c-0.2 0.1-0.3 0.4-0.5 0.6-0.4 0.8 0.4 2.5-1.5 2.3z"/>
				</g>
				<g id="&lt;Group&gt;">
					<path id="&lt;Path&gt;" class="s1" d="m924.5 217c-0.1 0.5-0.1 1.1 0 1.6 0.6 0.2 1.3-0.2 1.2-0.9l-0.1-2.5c-0.5 0.3-0.8 0.9-1.1 1.8z"/>
				</g>
				<g id="&lt;Group&gt;">
					<path id="&lt;Path&gt;" class="s1" d="m897.8 210.8c-0.8-0.2-1 0.3-1.4 0.8-0.7 1-1.6 0.5-2.4 0.1-0.9-0.6-0.4-1.2 0.1-1.8 0.2-0.4 0.6-0.8 0.3-1.2-0.5-0.6-0.9 0.1-1.3 0.2-0.8 0.1-1.5 0.4-2.1 0.9l-0.5 2q0 0 0.1 0c0.4 0.2 0.6 0.8 0.4 1.2-0.3 0.3-0.7 0.6-1.1 0.7 0 0.3 0.1 0.5 0.3 0.7 0.5-0.7 1.1-1.2 1.6-1.3 0.6 0 1 0.3 1.5 0.7l3.8-1.5c0.2-0.5 0.5-1 0.7-1.5z"/>
				</g>
				<g id="&lt;Group&gt;">
					<path id="&lt;Path&gt;" class="s1" d="m917.7 178.9q-0.5-0.4-1-0.9c-0.5 1.4-1.9 1-2.9 1.3 0.9 0.7 1 3 0.3 3.7-0.3 0.3-0.7 0.4-1.1 0.2-0.5-0.2-0.5-0.7-0.3-1.1 0.6-0.7 0.6-1.6 1-2.4-2.2-0.2-1.5-1.2-0.6-2.2-1.4-0.4-1-1.2-0.6-2.1-1 0.4-0.9 1.5-1.4 2.3 0.9 1.1 1 1.9-0.5 2.5-0.5 0.2-0.9 0.7-1.1 1.1-1.2 2.1-2.3 4.3-3.4 6.4-0.2 0.6-0.5 1.5 0.4 1.7 0.9 0.2 1.2-0.5 1.2-1.3 0-1.5 0.5-1.8 1.8-1 0.3 0.2 1 0.4 0.9-0.3-0.1-1.2 0.4-1 1.1-0.7 0.9 0.2 1.2 0.7 0.9 1.6-0.4 1.1-1.1 1.7-2.2 1.6-1-0.1-1.8 0.2-2.8 1.3 1.6-0.2 2.8 0.3 3.9-0.3 1.9 0 2.8-1 2.8-2.9 0-0.6 0.2-1.3 0.7-1.8 0.4-0.3 1-1 1.1 0 0.2 1.7 2.2-0.2 2.3 1.3 0 1.2-1.8 1.1-1.9 2.2-0.1 1-0.5 1.7-0.8 2.6-0.8 1.8-1.7 1.9-3 0.5-0.9 0.2-1.7 0.6-2.1 1.6q-0.4 1-0.8 2c-0.9 1.2 0 2.6-0.9 4.1-0.5-1.1-0.6-2.4-1.9-2.4-0.1 0-0.2 0.6-0.2 1 0.5 0.5 0.6 1.2 0.2 1.8-0.3 0.5-0.6 0-0.9-0.1q-0.1 0.2-0.1 0.4-0.5 0.5-0.9 1c-1.9 2.1-1.2 3.3 1.8 3.8-0.9 0.7-1.5 1.3-2.2 1.9-0.2 0.3-0.6 0.7-0.5 0.9 0.2 0.5 0.6 0.2 0.9 0.1 1.8-0.6 3.9-0.8 3.2-3.6-0.1-0.6 0.6-0.8 1.1-0.8 0.1-0.1 0.2-0.2 0.2-0.2-1.5-2.8 1.8-4.4 1.8-6.9 0-0.8 0.6-1.6 1.6-0.6 0.4 0.3 0.1 1.2 0.9 1 0.9-0.2 1.8-0.4 2.6-0.8 0.4-0.2 0-0.7-0.3-0.8-0.5-0.3-1.1-1-0.8-1.2 1.8-1.2 1.5-4 3.7-4.9 1-0.6 2.2-0.9 2-2.5 0-0.5 0.4-0.8 0.9-0.9 0.6-0.1 1.1 0.1 1.3 0.6 0.3 0.4 0.5 0.9 0.7 1.4q0.4 0.2 0.8 0.3c0.1-0.3 0.3-0.6 0.7-0.6 0.3-0.8 0.6-1.5 1.3-1.9 2.2-0.1 4 1.5 6.3 1q0.3-0.1 0.6-0.2c0.1-0.2 0.5-0.6 0.4-0.7-0.5-0.9-0.4-1.4-0.1-1.7l-4.1-1.1c-0.4 0.4-0.7 0.8-0.5 1.5-1-0.1-1.9-0.2-2.8-0.4-1.2-0.3-1.7-1-0.4-1.8q0.2-0.1 0.3-0.2l-1.2-0.3c-0.5 0-1-0.2-1.5-0.4l-1-0.3c-0.3 0-0.7 0-1 0.3-0.1-0.2-0.3-0.6-0.4-0.8q-0.1-0.1-0.2-0.3l-0.6-1.8c-0.9 0.9-1.7 1.3-2.7 0.2z"/>
				</g>
				<g id="&lt;Group&gt;">
					<path id="&lt;Path&gt;" class="s1" d="m939.4 185.8l-2.8-0.8q-0.3 0.2-0.8 0.4c-0.8 0.3-0.8 1.2-1.1 1.8q0.3 2-1.3 3.3-0.3 0.8 0.5 1.2 0.1 0 0.1 0l3.4-2.6q0.3-0.4 0.8-0.8-0.3 0.3-0.4 0.5l1.9-1.4c0.6-0.5 0.4-1.4-0.3-1.6z"/>
				</g>
				<g id="&lt;Group&gt;">
					<path id="&lt;Path&gt;" class="s1" d="m926.4 184.3c0.9 0.2 1.8 0.3 2.8 0.4-0.2-0.7 0.1-1.1 0.5-1.5l-3.4-0.9q-0.1 0.1-0.3 0.2c-1.3 0.8-0.8 1.5 0.4 1.8z"/>
				</g>
				<g id="&lt;Group&gt;">
					<path id="&lt;Path&gt;" class="s1" d="m911.2 171.5c0.3-0.2 0.6-0.5 0.8-0.7 0.2-0.3 0.4-0.7 0.8-0.3 0.4 0.3 0.4 0.7 0 1.1-0.5 0.5-1.1 0.9-1.7 1.3-0.4 2.4-1.3 4.5-3.7 5.7-0.1 0.1-0.1 0.3-0.2 0.4q0.5 1-0.5 1.3c-0.2 0.5-0.7 1.2 0.5 1.1q0.8-0.8 1.7-1.7c0.3-0.7 0.3-1.6 1.2-1.9q0.5-0.1 1-0.1c0.5-0.8 0.4-1.9 1.4-2.3 1.7-2.4 2.5-5.3 3.9-7.9l-0.5-1.3c-0.6 0.8-1.4 1.5-2.7 1.6-0.4 0-0.7 0.4-1.1 0.1-0.8-0.6-0.5-1.5-0.6-2.2l-0.9 1.3c-0.2 0.4-0.4 0.8-0.7 1l-1.7 2.6c1.1-0.3 2 0.7 3 0.9z"/>
				</g>
				<g id="&lt;Group&gt;">
					<path id="&lt;Path&gt;" class="s1" d="m912.1 167.9c0.4 0.3 0.7-0.1 1.1-0.1 1.3-0.1 2.1-0.8 2.7-1.6l-0.4-1.3q-0.3 0.1-0.6 0.2 0.1-0.6 0.3-1.1l-0.4-0.8c-0.2-0.8-1.2-0.9-1.6-0.2l-1.7 2.7c0.1 0.7-0.2 1.6 0.6 2.2z"/>
				</g>
				<g id="&lt;Group&gt;">
					<path id="&lt;Path&gt;" class="s1" d="m913.1 177.5c0.8-0.2 0.8-0.9 0.9-1.6 0-1 0.7-2 1.4-2.3 1.3-0.5 1.9-1.3 2.4-2.2l-1.4-3.9c-1.4 2.6-2.2 5.5-3.9 7.9-0.4 0.9-0.8 1.7 0.6 2.1z"/>
				</g>
				<g id="&lt;Group&gt;">
					<path id="&lt;Path&gt;" class="s1" d="m914 175.9c-0.1 0.7-0.1 1.4-0.9 1.6-0.9 1-1.6 2 0.6 2.2q0-0.2 0.1-0.4c1-0.3 2.4 0.1 2.9-1.3 0.9-0.7 1.2-2.3 2.6-2.2l-1.5-4.4c-0.5 0.9-1.1 1.7-2.4 2.2-0.7 0.3-1.4 1.3-1.4 2.3z"/>
				</g>
				<g id="&lt;Group&gt;">
					<path id="&lt;Path&gt;" class="s1" d="m884.4 179.3h-0.3c-0.7 0-1.1 0.9-0.7 1.5l0.7 0.8q-0.1-0.2-0.1-0.4c0-0.7 0.1-1.4 0.4-1.9z"/>
				</g>
				<g id="&lt;Group&gt;">
					<path id="&lt;Path&gt;" class="s1" d="m892.6 184.2q0.3-0.6 0.5-1.2c-0.5-0.7-1.1-1-1.9-1.3 0.1 2-1 1-1.7 0.8 1.4 1.7 0.9 3.4-0.3 5q-0.1 0.1-0.2 0.2l1 1.1c0.5-1.7 1.4-3.2 2.6-4.6z"/>
				</g>
				<g id="&lt;Group&gt;">
					<path id="&lt;Path&gt;" class="s1" d="m890.4 180.7c-1 0.2-1.3 0.8-0.9 1.8q0.4-1.5 1.7-0.8c0.2-0.7-0.1-1.2-0.8-1z"/>
				</g>
				<g id="&lt;Group&gt;">
					<path id="&lt;Path&gt;" class="s1" d="m894 187.3c0 0.1-0.3 0.1-0.4 0.1-1.8 0.7-1.9 1-1.4 3.2 0.4-0.6 0.8-1.2 1.2-1.7 0.3-0.3 0.9-0.8 1-0.2 0.3 1.1 1.6 2 0.8 3.3 0.8-0.3 1.5-0.5 1.2 0.8-0.2 0.4-0.4 0.9-0.6 1.4 0.9-0.3 0.9-1.3 1.3-1.9 0.4-0.8 0.2-1.6-0.2-2.4-0.7-1.6-0.5-1.9 1.3-2.6 0.6 0.4-1 1 0 1.3 0.6 0.2 1.2-0.4 1.1-0.8-0.2-1 1.1-2.4 0.3-2.5-3-0.3-0.6-2.3-1.1-3.4-0.3-0.7 2-2 2.4-1.4 0.3 0.7 0.7 1 1.2 0.3 0.4-0.6 0.8-1.6 0.4-2l-2.3 0.1c-0.2 0.3-0.5 0.7-1 0.6-0.5-0.1-0.6-0.3-0.5-0.6h-0.2c-0.6 1.3-1.3 2.6-1.9 3.8-0.7 1.6-2.3 2.7-2.6 4.6z"/>
				</g>
				<g id="&lt;Group&gt;">
					<path id="&lt;Path&gt;" class="s1" d="m894.5 199.9c0.3-0.8 0.5-1.5 1.4-1.8 0.5-0.2 0.9-0.4 0.8-1.1-0.2-2.2 1-2.1 2.4-1.5q0.4-0.9-0.3-1.6c-1-0.5-1.8-0.6-2.2 0.7-0.1 0.3-0.5 0.6-0.7 0.8-0.3 0.2-0.5 0.5-0.8 0.6l-0.5 1.9c0.1 0.6-0.5 1.5-0.1 2z"/>
				</g>
				<g id="&lt;Group&gt;">
					<path id="&lt;Path&gt;" class="s1" d="m895.2 194.4c-0.6-0.3-1.6-0.3-1.3-1.5q-0.3 0.1-0.5 0.2l1.3 1.6c0.2-0.1 0.4-0.2 0.5-0.3z"/>
				</g>
				<g id="&lt;Group&gt;">
					<path id="&lt;Path&gt;" class="s1" d="m892.7 205.5c0.3-1 0.9-1.6 1.8-1.6 0.4-1.2-2.2-1.5-0.5-2.8q-0.2 0-0.3-0.1l-1.7 5.7q0.5-0.5 0.7-1.2z"/>
				</g>
				<g id="&lt;Group&gt;">
					<path id="&lt;Path&gt;" class="s1" d="m894.5 199.9c-0.4-0.5 0.2-1.4 0.1-2l-0.9 3.1q0.1 0.1 0.3 0.1 0.2-0.6 0.5-1.2z"/>
				</g>
				<g id="&lt;Group&gt;">
					<path id="&lt;Path&gt;" class="s1" d="m896.4 192.8c0.3-1.3-0.4-1.1-1.2-0.8q-0.6 0.5-1.3 0.9c-0.3 1.2 0.7 1.2 1.3 1.5q0.3-0.1 0.6-0.2c0.2-0.5 0.4-1 0.6-1.4z"/>
				</g>
				<g id="&lt;Group&gt;">
					<path id="&lt;Path&gt;" class="s1" d="m892.6 184.2c-1.2 1.4-2.1 2.9-2.6 4.6l0.5 0.6c0.9-1.6 1.2-3.5 2.1-5.2z"/>
				</g>
				<g id="&lt;Group&gt;">
					<path id="&lt;Path&gt;" class="s1" d="m899.2 179.5c0.5 0.1 0.8-0.3 1-0.6h-1.5c-0.1 0.3 0 0.5 0.5 0.6z"/>
				</g>
				<g id="&lt;Group&gt;">
					<path id="&lt;Path&gt;" class="s1" d="m893.1 208.9c0.4-0.1 0.8-0.8 1.3-0.2 0.3 0.4-0.1 0.8-0.3 1.2-0.5 0.6-1 1.2-0.1 1.8 0.8 0.4 1.7 0.9 2.4-0.1 0.4-0.5 0.6-1 1.4-0.8q0.4 0.7 1.2 0.5c0.5-1.5-0.8-3.1 0-4.7 0.1-0.2 0-1.2-0.6-0.7-1.1 0.9-1.9 0.2-2.6-0.3-1.2-0.9 0.6-1.4 0.5-2.2 0-0.3 0-0.6 0-0.9 0.3-0.5-0.1-1.5 1-1.3 0.7 0.1 0.6 0.8 0.4 1.4-0.2 0.6-0.6 1.5 0.5 1.5 1.1 0 1.8-0.8 1.7-2.1-0.7-0.8-0.8-1.9 0.3-2 2.1-0.3 2.1-2.2 3.2-3.3q-0.7-0.5-1.5-1c-0.1 0.4 1 1.5-0.7 1.2-1.1-0.2-1.6-0.7-2.1-1.4-1.4-0.6-2.6-0.7-2.4 1.5 0.1 0.7-0.3 0.9-0.8 1.1-0.9 0.3-1.1 1-1.4 1.8q-0.3 0.6-0.5 1.2c-1.7 1.3 0.9 1.6 0.5 2.8-0.9 0-1.5 0.6-1.8 1.6q-0.2 0.7-0.7 1.2l-1 3.1c0.6-0.5 1.3-0.8 2.1-0.9z"/>
				</g>
				<g id="&lt;Group&gt;">
					<path id="&lt;Path&gt;" class="s1" d="m903.6 195.5c-0.6-1.7 0.4-3.7 1.8-3.9 0.6-0.1 1.3-0.1 1.5 0.6 0.1 0.6-0.6 0.8-1.1 0.9-1.1 0.5-2 1.2-1.9 2.9 1.1 0.4 1.9 0 2.6-0.7q0 0 0 0 0.1-0.2 0.3-0.3 0.1-0.1 0.2-0.3 0 0 0-0.1 0.2-0.2 0.3-0.4c0.9-1.4 1.8-1.9 3.1-0.4 0.4-1 1.2-1.4 2.1-1.6-0.9-0.3-1.8-0.6-1.2-1.9-1.1 0.6-2.3 0.1-3.9 0.3 1-1.1 1.8-1.4 2.8-1.3 1.1 0.1 1.8-0.5 2.2-1.6 0.3-0.9 0-1.4-0.9-1.6-0.7-0.3-1.2-0.5-1.1 0.7 0.1 0.7-0.6 0.5-0.9 0.3-1.3-0.8-1.8-0.5-1.8 1 0 0.8-0.3 1.5-1.2 1.3-0.9-0.2-0.6-1.1-0.4-1.7 1.1-2.1 2.2-4.3 3.4-6.4 0.2-0.4 0.6-0.9 1.1-1.1 1.5-0.6 1.4-1.4 0.5-2.5q-0.5 0-1 0.1c-0.4 0.6-0.3 1.6-1.2 1.9q-0.9 0.9-1.7 1.7c-0.7 2.2-1 4.6-2.7 6.2-1.8 1.8-1.9 1.9 0.5 3-2.3 1-2.4 3.2-3.1 5.1q0.8 0.5 1.5 1 0.2-0.3 0.3-0.7-0.1-0.2-0.1-0.5z"/>
				</g>
				<g id="&lt;Group&gt;">
					<path id="&lt;Path&gt;" class="s1" d="m905.6 177.3c0.1 0.4 1.2 0.2 1.3-0.3 0.2-2.6 1.8-3.7 4.2-4.1 0.6-0.4 1.2-0.8 1.7-1.3 0.4-0.4 0.4-0.8 0-1.1-0.4-0.4-0.6 0-0.8 0.3-0.2 0.2-0.5 0.5-0.8 0.7-1.1 0-2.3 0.5-3.4-0.3l-3.3 5.1c0.5 0.2 1 0.3 1.1 1z"/>
				</g>
				<g id="&lt;Group&gt;">
					<path id="&lt;Path&gt;" class="s1" d="m907.2 179c-0.5-0.7-1.2-0.9-1.9-0.5-0.7 0.5-1.1 1.3-0.8 2.1 0.4 1.1 0.4 2-0.3 2.9-0.4 0.4-0.4 1.2 0.4 2.2 0.5-1.2 1-2.2 1.2-3.2 0.2-0.8-0.3-1.8 0.9-2.2q1-0.3 0.5-1.3z"/>
				</g>
				<g id="&lt;Group&gt;">
					<path id="&lt;Path&gt;" class="s1" d="m899.8 192.9c0.5 0.2 1.1 0.4 1.3-0.3 0.3-0.9-0.4-1.5-1.1-1.9-0.4-0.3-0.8 0-1 0.5-0.3 0.8 0 1.4 0.8 1.7z"/>
				</g>
				<g id="&lt;Group&gt;">
					<path id="&lt;Path&gt;" class="s1" d="m895.9 195.4c0.2-0.2 0.6-0.5 0.7-0.8 0.4-1.3 1.2-1.2 2.2-0.7-0.3-0.9-1.3-0.9-1.7-1.6-0.4 0.6-0.4 1.6-1.3 1.9q-0.3 0.1-0.6 0.2c-0.1 0.1-0.3 0.2-0.5 0.3l0.3 0.3c0.2 0.3 0.2 0.6 0.2 0.9l-0.1 0.1c0.3-0.1 0.5-0.4 0.8-0.6z"/>
				</g>
				<g id="&lt;Group&gt;">
					<path id="&lt;Path&gt;" class="s1" d="m927.6 193.9c0.7-0.7 0.2-1.4-0.7-1.7-0.9 0-1.3 0.6-1.5 1.4-0.2 1.7-0.1 3.5-0.5 5.2q0.1-0.1 0.2-0.2l1.7-1.3c-0.1-1.2-0.2-2.4 0.8-3.4z"/>
				</g>
				<g id="&lt;Group&gt;">
					<path id="&lt;Path&gt;" class="s1" d="m922.4 204.5c-1.2-0.1-1.3 1-1.6 1.8-0.3 0.7-0.7 1.1-1.5 1.2-0.3 0.5-0.3 1.2-0.2 1.8 1.6 0.4 2.8 1.5 2.3 3-0.5 1.1-0.4 2-0.4 3q1.2 0.4 0.8 1.5l0.2 0.1c0.5-0.3 0.6-0.8 0.4-1.4-0.5-1.5 1.5-2.4 0.9-3.9 1.9 0.2 1.1-1.5 1.5-2.3 0.2-0.2 0.3-0.5 0.5-0.6l-0.3-4.5c-0.4 0.8-0.6 1.7-1.5 2.1-0.7-0.4 0-1.7-1.1-1.8z"/>
				</g>
				<g id="&lt;Group&gt;">
					<path id="&lt;Path&gt;" class="s1" d="m922.1 202.6c1.2 0.5 2 0.4 2.7-0.2q0.1-0.1 0.1-0.1l-0.1-2.9c-0.4 1.2-1.2 2.3-2.7 3.2z"/>
				</g>
				<g id="&lt;Group&gt;">
					<path id="&lt;Path&gt;" class="s1" d="m915.8 210.4c-1 0.6-1.9 0.5-2.9 0.3l2.9 2c0.6-0.6 0.7-1.3 0-2.3z"/>
				</g>
				<g id="&lt;Group&gt;">
					<path id="&lt;Path&gt;" class="s1" d="m915.8 210.4c1.5-1.3 2.2 0.3 3.4 1.1-0.1-0.9-0.1-1.6-0.1-2.2-2-0.9-0.6-1.3 0.2-1.8 0.4-0.5 0.8-0.9 1-1.5 0.3-0.6 1-1.3 0-1.9-0.9-0.6-1.6 0.4-1.7 0.9-0.2 1.8-1.9 2.5-2.8 3.8-0.2 0.4-0.6 0.3-0.9 0.2q-0.3 0.2-0.6 0.3c-0.4 1.5 1 0.6 1.5 1.1z"/>
				</g>
				<g id="&lt;Group&gt;">
					<path id="&lt;Path&gt;" class="s1" d="m921 215.3q-0.2 0.4-0.3 0.7l1.1 0.8q0.4-1.1-0.8-1.5z"/>
				</g>
				<g id="&lt;Group&gt;">
					<path id="&lt;Path&gt;" class="s1" d="m891.8 213.1c-0.5 0.1-1.1 0.6-1.6 1.3 0.3 0.2 0.6 0.3 1 0.2l2.1-0.8c-0.5-0.4-0.9-0.7-1.5-0.7z"/>
				</g>
				<g id="&lt;Group&gt;">
					<path id="&lt;Path&gt;" class="s1" d="m899 211.3q-0.8 0.2-1.2-0.5c-0.2 0.5-0.5 1-0.7 1.5l1.8-0.7q0.1-0.1 0.1-0.3z"/>
				</g>
				<g id="&lt;Group&gt;">
					<path id="&lt;Path&gt;" class="s1" d="m891 213c0.2-0.4 0-1-0.4-1.2q-0.1 0-0.1 0l-0.5 1.7q-0.1 0.1-0.1 0.2c0.4-0.1 0.8-0.4 1.1-0.7z"/>
				</g>
				<g id="&lt;Group&gt;">
					<path id="&lt;Path&gt;" class="s1" d="m924.7 196.4c-0.1 0.8-0.5 1.6-1.6 1.4-1.1-0.1-1-0.8-0.7-1.6-0.9 0.2-1.4-0.2-1.2-1.2 0.2-1 1.3-1.3 2-1.1 0.9 0.3 0 1.1 0 1.6 1-0.5 1.3-1.4 0.7-2.4-0.3-0.6-0.3-1-0.1-1.6-0.6 0-1.3 0.5-2 0.1-0.4 0.8-0.9 1.5-1.3 2.3-0.4 0.7-0.9 0.7-1.5 0.4-0.6-0.2-1.1-0.6-1-1.3 0.2-0.7 0.7-1.1 1.3-0.8 1.1 0.4 1.7-0.5 2.5-0.6 0.3-0.7 0.8-1.4 0.7-2.5-0.7 0.5-1.3 0.9-2 1.3-0.9 0.5-1.7 0.6-1.6-0.9-2.2 0.9-1.9 3.7-3.7 4.9-0.3 0.2 0.3 0.9 0.8 1.2 0.3 0.1 0.7 0.6 0.3 0.8-0.8 0.4-1.7 0.6-2.6 0.8-0.8 0.2-0.5-0.7-0.9-1-1.4 2-0.6 4.6-1.7 6.8-0.3 0.7 0.1 1.3 0.9 1.4 0.9 0.1 0.9 0.6 0.9 1.3 0 0.7-0.5 0.7-1 0.8-1.1 0.3-1.8 1.1-2.4 1.8l1.1 0.8c-0.2-1.2 0-1.9 1.9-1.1 1.3 0.5 2.6-0.9 2.2-1.6-1.7-2.7 0.1-3.7 1.7-4.9-0.3-0.4-0.5-0.9-0.3-1.4 0.1-0.5 0.2-1 0.8-1.1 0.4-0.1 0.7 0.2 0.9 0.5 0.2 0.7-0.2 0.9-0.6 1.2-0.3 0.2-0.5 0.5-0.8 0.8q0.9 0.1 1.8 0.3c0.5 0.1 0.9 0.5 0.9 1.1 0 0.4-0.1 1-0.6 1.1-2.2 0.3-2.5 2-2.8 3.8 0 0.5-0.5 0.8-0.8 1.2 0.3 0.1 0.7 0.2 0.9-0.2 0.9-1.3 2.6-2 2.8-3.8 0.1-0.5 0.8-1.5 1.7-0.9 1 0.6 0.3 1.3 0 1.9-0.2 0.6-0.6 1-1 1.5 0.8-0.1 1.2-0.5 1.5-1.2 0.3-0.8 0.4-1.9 1.6-1.8 1.1 0.1 0.4 1.4 1.1 1.8 0.9-0.4 1.1-1.3 1.5-2.1l-0.1-1.9q0 0-0.1 0.1c-0.7 0.6-1.5 0.7-2.7 0.2 1.5-0.9 2.3-2 2.7-3.2q0-0.4 0.1-0.6c0.4-1.7 0.3-3.5 0.5-5.2-0.5 0.8-0.7 1.7-0.7 2.8z"/>
				</g>
				<g id="&lt;Group&gt;">
					<path id="&lt;Path&gt;" class="s1" d="m909.2 203.9c-0.5 0-1.2 0.2-1.1 0.8 0.7 2.8-1.4 3-3.2 3.6-0.3 0.1-0.7 0.4-0.9-0.1-0.1-0.2 0.3-0.6 0.5-0.9-0.7 0-1.3 0.5-2 0.1-0.2 0.9-0.2 1.8 0.4 2.6 1.2-0.3 2.3-1.7 3.4-1.2l2-0.8c0.9-1.2 0.1-2.9 0.9-4.1z"/>
				</g>
				<g id="&lt;Group&gt;">
					<path id="&lt;Compound Path&gt;" fill-rule="evenodd" class="s1" d="m928.8 195.8l-2 1.5c-0.1-1.2-0.2-2.4 0.8-3.4 0.7-0.7 0.2-1.4-0.7-1.7 0.3-0.4 1.2 0.3 1.4-0.6-0.6-0.9-2-0.5-2.4-1.7-0.1-0.8-1.2-0.7-1.3-1.5 0.1-0.3 0.3-0.6 0.7-0.6-0.2 0.7 0.1 1.2 0.9 1 0.8-0.1 1.3-0.9 1.6-1.6 0.5-1.1-0.7-1-1.2-1.3 2.2-0.1 4 1.5 6.3 1-0.8 1.8-4 2.6-2.3 5.4 0.1 0-0.2 0.2-0.2 0.3-0.1 1.3-1 2.2-1.6 3.2zm-0.2-6.6c-0.6-0.1-1 0.1-1.4 0.5-0.4 0.4 0 0.6 0.3 0.8 0.6 0.3 1 0.1 1.4-0.4 0.2-0.4 0-0.6-0.3-0.9z"/>
				</g>
				<g id="&lt;Group&gt;">
					<path id="&lt;Path&gt;" class="s1" d="m933.4 190.5q0.6-1.6 1.3-3.3-0.6-0.2-1.2-0.5-0.3 0.1-0.6 0.2c-0.8 1.8-4 2.6-2.3 5.4 0.1 0-0.2 0.2-0.2 0.3-0.1 1.3-1 2.2-1.6 3.2l3.3-2.6c-0.2-0.1-0.3-0.4-0.2-0.8 0.2-1 1-0.6 1.7-0.3l0.1-0.1q0.1-0.2 0.2-0.3-0.8-0.4-0.5-1.2z"/>
				</g>
				<g id="&lt;Group&gt;">
					<path id="&lt;Compound Path&gt;" fill-rule="evenodd" class="s1" d="m909.5 208.3l-0.3-0.2c-0.3-0.1-0.6-0.2-0.9-0.1 0.9-1.2 0.1-2.9 0.9-4.1 0.1-0.1 0.2-0.2 0.2-0.2-1.5-2.8 1.8-4.4 1.8-6.9 0-0.8 0.6-1.6 1.6-0.6-1.4 2-0.6 4.6-1.7 6.8-0.3 0.7 0.1 1.3 0.9 1.4 0.9 0.1 0.9 0.6 0.9 1.3 0 0.7-0.5 0.7-1 0.8-1.1 0.3-1.8 1.1-2.4 1.8zm1.4-6.6q0-0.1 0.1-0.2c0-0.3-0.1-0.7-0.5-0.8-0.5-0.1-0.9 0.1-1 0.6-0.1 0.3 0.1 0.7 0.5 0.8q0 0 0 0c0.4 0.1 0.8 0 0.9-0.4z"/>
				</g>
				<g id="&lt;Group&gt;">
					<path id="&lt;Path&gt;" class="s1" d="m904.4 200.4c0.1-0.4 0.9 0 1.4 0.2q0-0.2 0.1-0.4v-0.1c-1.4-1.1-2.5 0.1-3.9 0.9 0.2-1.3 0.3-2.3 1.3-2.5 1-0.2 2.2-0.3 3 0.8q0.1-0.4 0.3-0.8c-0.4-0.3-1.3-0.2-1.2-0.8 0.1-0.4 0.9-0.8 1.4-1 0.8-0.3 2 0.4 2.4-1-0.7-0.1-1.7 0.4-1.5-1 0.1-0.7 0.8-1.3 1.4-1.1 1.2 0.5 0.2 1.4 0.1 2.1q0.2 0.1 0.4 0.1 0.4-1 0.8-2c-1.3-1.5-2.2-1-3.1 0.4q-0.1 0.2-0.3 0.4 0 0.1 0 0.1-0.1 0.2-0.2 0.3-0.2 0.1-0.3 0.3 0 0 0 0c-0.7 0.7-1.5 1.1-2.6 0.7q0 0.2 0 0.4-0.1-0.2-0.2-0.4-0.1 0.4-0.3 0.7c-1.1 1.1-1.1 3-3.2 3.3-1.1 0.1-1 1.2-0.3 2q0.5 0 1 0c1-0.8 2.8 0.3 3.5-1.6z"/>
				</g>
				<g id="&lt;Group&gt;">
					<path id="&lt;Path&gt;" class="s1" d="m912.5 192.2c1.3 1.4 2.2 1.3 3-0.5 0.3-0.9 0.7-1.6 0.8-2.6 0.1-1.1 1.9-1 1.9-2.2-0.1-1.5-2.1 0.4-2.3-1.3-0.1-1-0.7-0.3-1.1 0-0.5 0.5-0.7 1.2-0.7 1.8 0 1.9-0.9 2.9-2.8 2.9 0.5 0.6 2.7 0.1 1.2 1.9z"/>
				</g>
				<g id="&lt;Group&gt;">
					<path id="&lt;Path&gt;" class="s1" d="m923.8 188.1c-0.2-0.5-0.4-1-0.7-1.4-0.2-0.5-0.7-0.7-1.3-0.6-0.5 0.1-0.9 0.4-0.9 0.9 0.2 1.6-1 1.9-2 2.5-0.1 1.5 0.7 1.4 1.6 0.9 0.7-0.4 1.3-0.8 2-1.3 0.1 1.1-0.4 1.8-0.7 2.5 0.7 0.4 1.4-0.1 2-0.1 0.9-1.2-0.1-2.3 0-3.4z"/>
				</g>
				<g id="&lt;Group&gt;">
					<path id="&lt;Path&gt;" class="s1" d="m904.9 201.6q0.4-0.5 0.9-1c-0.5-0.2-1.3-0.6-1.4-0.2-0.7 1.9-2.5 0.8-3.5 1.6 2 0.3 2 1.6 1.3 3-0.4 0.7-0.9 1.3 0.1 1.9-0.3-1.7 1.2-1.6 1.9-1.5 1.4 0.2 0.4 1.2 0.3 1.9 0.7-0.6 1.3-1.2 2.2-1.9-3-0.5-3.7-1.7-1.8-3.8z"/>
				</g>
				<g id="&lt;Group&gt;">
					<path id="&lt;Path&gt;" class="s1" d="m916.7 178q0.5 0.5 1 0.9c1 1.1 1.8 0.7 2.7-0.2l-1.1-2.9c-1.4-0.1-1.7 1.5-2.6 2.2z"/>
				</g>
				<g id="&lt;Group&gt;">
					<path id="&lt;Path&gt;" class="s1" d="m933.9 186c0.1 0.1-0.3 0.5-0.4 0.7q0.6 0.3 1.2 0.5 0 0 0 0 0 0 0 0c0.3-0.6 0.3-1.5 1.1-1.8q0.5-0.2 0.8-0.4l-2.8-0.7c-0.3 0.3-0.4 0.8 0.1 1.7z"/>
				</g>
				<g id="&lt;Group&gt;">
					<path id="&lt;Path&gt;" class="s1" d="m909.2 195.7q0 0 0 0 0 0 0 0c-0.4 1.4-1.6 0.7-2.4 1-0.5 0.2-1.3 0.6-1.4 1-0.1 0.6 0.8 0.5 1.2 0.8 0-0.4 0.1-1 0.2-1 1.3 0 1.4 1.3 1.9 2.4 0.9-1.5 0-2.9 0.9-4.1q-0.2 0-0.4-0.1z"/>
				</g>
				<g id="&lt;Group&gt;">
					<path id="&lt;Path&gt;" class="s1" d="m912.7 182.1c-0.2 0.4-0.2 0.9 0.3 1.1 0.4 0.2 0.8 0.1 1.1-0.2 0.7-0.7 0.6-3-0.3-3.7q-0.1 0.2-0.1 0.4c-0.4 0.8-0.4 1.7-1 2.4z"/>
				</g>
				<g id="&lt;Group&gt;">
					<path id="&lt;Path&gt;" class="s1" d="m925.3 187.8c-0.2 0.7 0.1 1.2 0.9 1 0.8-0.1 1.3-0.9 1.6-1.6 0.5-1.1-0.7-1-1.2-1.3-0.7 0.4-1 1.1-1.3 1.9z"/>
				</g>
				<g id="&lt;Group&gt;">
					<path id="&lt;Path&gt;" class="s1" d="m923.8 191.5c0.7-0.1 1.2-0.3 1.2-1.1 0-0.7 0.4-0.6 0.9-0.5-0.1-0.8-1.2-0.7-1.3-1.5q-0.4-0.1-0.8-0.3c-0.1 1.1 0.9 2.2 0 3.4z"/>
				</g>
				<g id="&lt;Group&gt;">
					<path id="&lt;Path&gt;" class="s1" d="m905.9 200.1v0.1c0.3 0.1 0.6 0.6 0.9 0.1 0.4-0.6 0.3-1.3-0.2-1.8q-0.2 0.4-0.3 0.8c0.3 0.5-0.2 0.6-0.4 0.8z"/>
				</g>
				<g id="&lt;Group&gt;">
					<path id="&lt;Path&gt;" class="s1" d="m933.7 192l0.3-0.3q0 0-0.1 0-0.1 0.1-0.2 0.3z"/>
				</g>
				<g id="&lt;Group&gt;">
					<path id="&lt;Path&gt;" class="s1" d="m937.4 189.1l0.4-0.3q0.1-0.2 0.4-0.5-0.5 0.4-0.8 0.8z"/>
				</g>
				<g id="&lt;Group&gt;">
					<path id="&lt;Path&gt;" class="s1" d="m934.7 187.2q-0.7 1.7-1.3 3.3 1.6-1.3 1.3-3.3 0 0 0 0 0 0 0 0z"/>
				</g>
				<g id="&lt;Group&gt;">
					<path id="&lt;Path&gt;" class="s1" d="m910.6 167l-0.7 1c0.3-0.2 0.5-0.6 0.7-1z"/>
				</g>
				<g id="&lt;Group&gt;">
					<path id="&lt;Path&gt;" class="s1" d="m911.2 171.5c-1-0.2-1.9-1.2-3-0.9l-0.4 0.6c1.1 0.8 2.3 0.3 3.4 0.3z"/>
				</g>
				<g id="&lt;Group&gt;">
					<path id="&lt;Path&gt;" class="s1" d="m910.1 177.8c-0.9 0.3-0.9 1.2-1.2 1.9 0.9-0.3 0.8-1.3 1.2-1.9z"/>
				</g>
				<g id="&lt;Group&gt;">
					<path id="&lt;Path&gt;" class="s1" d="m915.5 164.9l-0.3-0.9q-0.2 0.5-0.3 1.1 0.3-0.1 0.6-0.2z"/>
				</g>
				<g id="&lt;Group&gt;">
					<path id="&lt;Path&gt;" class="s1" d="m889.5 182.5c0.7 0.2 1.8 1.2 1.7-0.8q-1.3-0.7-1.7 0.8z"/>
				</g>
				<g id="&lt;Group&gt;">
					<path id="&lt;Path&gt;" class="s1" d="m901.3 207.9c0.1-0.1 0.1-0.5 0-0.6-0.7-1.7-0.9-3.8-0.4-5.3q-0.5 0-1 0c0.1 1.3-0.6 2.1-1.7 2.1-1.1 0-0.7-0.9-0.5-1.5q-0.7 0-1.4-0.1c0 0.3 0 0.6 0 0.9 0.1 0.8-1.7 1.3-0.5 2.2 0.7 0.5 1.5 1.2 2.6 0.3 0.6-0.5 0.7 0.5 0.6 0.7-0.8 1.6 0.5 3.2 0 4.7 0.6 0.1 0.8-1.3 1.6-0.3-0.3-1.2-1.1-2.4 0.7-3.1z"/>
				</g>
				<g id="&lt;Group&gt;">
					<path id="&lt;Path&gt;" class="s1" d="m897.3 201.2c-1.1-0.2-0.7 0.8-1 1.3q0.7 0.1 1.4 0.1c0.2-0.6 0.3-1.3-0.4-1.4z"/>
				</g>
				<g id="&lt;Group&gt;">
					<path id="&lt;Path&gt;" class="s1" d="m905.8 193.1c0.5-0.1 1.2-0.3 1.1-0.9-0.2-0.7-0.9-0.7-1.5-0.6-1.4 0.2-2.3 2.1-1.8 3.9q0 0.3 0.1 0.5 0.1 0.2 0.2 0.4 0-0.2 0-0.4c-0.1-1.7 0.8-2.4 1.9-2.9z"/>
				</g>
				<g id="&lt;Group&gt;">
					<path id="&lt;Path&gt;" class="s1" d="m911.3 190.3c-0.6 1.3 0.3 1.6 1.2 1.9 1.5-1.8-0.7-1.3-1.2-1.9z"/>
				</g>
				<g id="&lt;Group&gt;">
					<path id="&lt;Path&gt;" class="s1" d="m925 190.4c0 0.8-0.5 1-1.2 1.1-0.2 0.6-0.2 1 0.1 1.6 0.6 1 0.3 1.9-0.7 2.4q-0.4 0.4-0.8 0.7c-0.3 0.8-0.4 1.5 0.7 1.6 1.1 0.2 1.5-0.6 1.6-1.4 0-1.1 0.2-2 0.7-2.8 0.2-0.8 0.6-1.4 1.5-1.4 0.3-0.4 1.2 0.3 1.4-0.6-0.6-0.9-2-0.5-2.4-1.7-0.5-0.1-0.9-0.2-0.9 0.5z"/>
				</g>
				<g id="&lt;Group&gt;">
					<path id="&lt;Path&gt;" class="s1" d="m919.1 209.3c-0.1-0.6-0.1-1.3 0.2-1.8-0.8 0.5-2.2 0.9-0.2 1.8z"/>
				</g>
				<g id="&lt;Group&gt;">
					<path id="&lt;Path&gt;" class="s1" d="m902.9 210q0 0.1 0 0.1l3.4-1.3c-1.1-0.5-2.2 0.9-3.4 1.2z"/>
				</g>
				<g id="&lt;Group&gt;">
					<path id="&lt;Path&gt;" class="s1" d="m899 211.3q0 0.2-0.1 0.3l1.7-0.6c-0.8-1-1 0.4-1.6 0.3z"/>
				</g>
				<g id="&lt;Group&gt;">
					<path id="&lt;Path&gt;" class="s1" d="m915.8 210.4c-0.5-0.5-1.9 0.4-1.5-1.1-0.9 0.1-1.8 0.4-2.7 0.5l1.3 0.9c1 0.2 1.9 0.3 2.9-0.3z"/>
				</g>
				<g id="&lt;Group&gt;">
					<path id="&lt;Path&gt;" class="s1" d="m914.9 209c0.3-0.4 0.8-0.7 0.8-1.2 0.3-1.8 0.6-3.5 2.8-3.8 0.5-0.1 0.6-0.7 0.6-1.1 0-0.6-0.4-1-0.9-1.1q-0.9-0.2-1.8-0.3c-1.6 1.2-3.4 2.2-1.7 4.9 0.4 0.7-0.9 2.1-2.2 1.6-1.9-0.8-2.1-0.1-1.9 1.1l1 0.7c0.9-0.1 1.8-0.4 2.7-0.5q0.3-0.1 0.6-0.3z"/>
				</g>
				<g id="&lt;Group&gt;">
					<path id="&lt;Path&gt;" class="s1" d="m902.5 207.4q-0.1-0.3-0.2-0.5c-1-0.6-0.5-1.2-0.1-1.9 0.7-1.4 0.7-2.7-1.3-3-0.5 1.5-0.3 3.6 0.4 5.3 0.1 0.1 0.1 0.5 0 0.6-1.8 0.7-1 1.9-0.7 3.1l2.3-0.9q0 0 0-0.1c-0.6-0.8-0.6-1.7-0.4-2.6z"/>
				</g>
				<g id="&lt;Group&gt;">
					<path id="&lt;Path&gt;" class="s1" d="m919.3 192.2c-0.6-0.3-1.1 0.1-1.3 0.8-0.1 0.7 0.4 1.1 1 1.3 0.6 0.3 1.1 0.3 1.5-0.4 0.4-0.8 0.9-1.5 1.3-2.3-0.8 0.1-1.4 1-2.5 0.6z"/>
				</g>
				<g id="&lt;Group&gt;">
					<path id="&lt;Path&gt;" class="s1" d="m904.2 205.4c-0.7-0.1-2.2-0.2-1.9 1.5q0.1 0.2 0.2 0.5c0.7 0.4 1.3-0.1 2-0.1 0.1-0.7 1.1-1.7-0.3-1.9z"/>
				</g>
				<g id="&lt;Group&gt;">
					<path id="&lt;Path&gt;" class="s1" d="m923.2 193.9c-0.7-0.2-1.8 0.1-2 1.1-0.2 1 0.3 1.4 1.2 1.2q0.4-0.3 0.8-0.7c0-0.5 0.9-1.3 0-1.6z"/>
				</g>
				<g id="&lt;Group&gt;">
					<path id="&lt;Path&gt;" class="s1" d="m917.8 199.5c-0.2-0.3-0.5-0.6-0.9-0.5-0.6 0.1-0.7 0.6-0.8 1.1-0.2 0.5 0 1 0.3 1.4 0.3-0.3 0.5-0.6 0.8-0.8 0.4-0.3 0.8-0.5 0.6-1.2z"/>
				</g>
				<g id="&lt;Group&gt;">
					<path id="&lt;Path&gt;" class="s1" d="m928.6 189.2c-0.6-0.1-1 0.1-1.4 0.5-0.4 0.4 0 0.6 0.3 0.8 0.6 0.3 1 0.1 1.4-0.4 0.2-0.4 0-0.6-0.3-0.9z"/>
				</g>
				<g id="&lt;Group&gt;">
					<path id="&lt;Path&gt;" class="s1" d="m931.9 192.4c-0.1 0.4 0 0.7 0.2 0.8l1.5-1.1c-0.7-0.3-1.5-0.7-1.7 0.3z"/>
				</g>
				<g id="&lt;Group&gt;">
					<path id="&lt;Path&gt;" class="s1" d="m910.5 200.7c-0.5-0.1-0.9 0.1-1 0.6-0.1 0.3 0.1 0.7 0.5 0.8 0.4 0.1 0.8 0 0.9-0.4q0-0.1 0.1-0.2c0-0.3-0.1-0.7-0.5-0.8z"/>
				</g>
				<g id="&lt;Group&gt;">
					<path id="&lt;Path&gt;" class="s1" d="m906.3 199.3c-0.8-1.1-2-1-3-0.8-1 0.2-1.1 1.2-1.3 2.5 1.4-0.8 2.5-2 3.9-0.9 0.2-0.2 0.7-0.3 0.4-0.8z"/>
				</g>
				<g id="&lt;Group&gt;">
					<path id="&lt;Path&gt;" class="s1" d="m909.2 195.7c0.1-0.7 1.1-1.6-0.1-2.1-0.6-0.2-1.3 0.4-1.4 1.1-0.2 1.4 0.8 0.9 1.5 1q0 0 0 0 0 0 0 0z"/>
				</g>
			</g>
			<g id="&lt;Group&gt;">
				<g id="&lt;Group&gt;">
					<path id="&lt;Path&gt;" class="s1" d="m530.9 192.6l2-29.2c0.1-0.5-0.1-0.9-0.5-1.2l-22.9-18.3c-0.9-0.7-0.6-2.2 0.6-2.5l28.4-7.1c0.4-0.1 0.8-0.4 1-0.9l10.2-27.4c0.5-1.1 2-1.2 2.7-0.2l15.4 24.8c0.3 0.4 0.7 0.7 1.2 0.7l29.2 1.3c1.2 0.1 1.8 1.5 1.1 2.4l-18.8 22.4c-0.4 0.3-0.5 0.8-0.3 1.3l7.7 28.2c0.4 1.2-0.8 2.2-1.9 1.7l-27.1-10.9c-0.5-0.2-1-0.2-1.4 0.1l-24.4 16.1c-1 0.7-2.3-0.1-2.2-1.3z"/>
				</g>
			</g>
			<g id="&lt;Group&gt;">
				<g id="&lt;Group&gt;">
					<path id="&lt;Path&gt;" class="s0" d="m381.4 220.3l-8-18.6c-0.1-0.3-0.4-0.6-0.7-0.6l-19.9-4c-0.8-0.2-1.1-1.2-0.4-1.8l15.2-13.3c0.3-0.2 0.4-0.6 0.4-0.9l-2.4-20.1c-0.1-0.9 0.8-1.4 1.5-1l17.4 10.4c0.3 0.2 0.7 0.2 1 0l18.4-8.4c0.8-0.4 1.6 0.3 1.4 1.1l-4.5 19.8c-0.1 0.3 0 0.7 0.3 0.9l13.7 14.9c0.5 0.6 0.2 1.6-0.7 1.7l-20.2 1.8c-0.3 0.1-0.6 0.3-0.8 0.6l-9.9 17.6c-0.4 0.7-1.5 0.7-1.8-0.1z"/>
				</g>
			</g>
			<g id="&lt;Group&gt;">
				<g id="&lt;Group&gt;">
					<path id="&lt;Path&gt;" class="s2" d="m177.2 304.6l-1-18.4c0-0.3-0.2-0.5-0.5-0.7l-15.7-9.6c-0.6-0.4-0.5-1.4 0.2-1.6l17.2-6.7c0.2-0.1 0.5-0.3 0.5-0.6l4.3-18c0.2-0.7 1.1-0.9 1.6-0.3l11.6 14.3c0.2 0.2 0.5 0.3 0.8 0.3l18.4-1.5c0.7 0 1.2 0.8 0.8 1.5l-10 15.4c-0.1 0.3-0.2 0.6 0 0.9l7 17c0.3 0.7-0.3 1.4-1.1 1.2l-17.8-4.7c-0.3-0.1-0.6 0-0.8 0.2l-14 12c-0.6 0.5-1.5 0.1-1.5-0.7z"/>
				</g>
			</g>
			<g id="&lt;Group&gt;">
				<g id="&lt;Group&gt;">
					<path id="&lt;Path&gt;" class="s1" d="m45.6 288.4l-15.6-22.6c-0.3-0.4-0.7-0.6-1.1-0.6l-27.5 0.1c-1.1 0-1.8-1.3-1.1-2.2l16.7-21.9c0.2-0.3 0.3-0.8 0.2-1.2l-8.6-26.1c-0.3-1.1 0.7-2.1 1.8-1.7l25.9 9c0.4 0.2 0.9 0.1 1.3-0.1l22.1-16.2c0.9-0.7 2.2 0 2.2 1.1l-0.6 27.4c0 0.5 0.2 0.9 0.5 1.2l22.3 16.1c0.9 0.6 0.7 2.1-0.4 2.4l-26.3 7.9c-0.5 0.1-0.8 0.4-0.9 0.9l-8.4 26.1c-0.4 1.1-1.8 1.3-2.5 0.4z"/>
				</g>
			</g>
			<g id="&lt;Group&gt;">
				<g id="&lt;Group&gt;">
					<path id="&lt;Path&gt;" class="s2" d="m869.3 330.5l0.7-11.8c0-0.2 0-0.4-0.2-0.5l-9.3-7.4c-0.4-0.3-0.2-0.9 0.2-1l11.5-2.9c0.2-0.1 0.4-0.2 0.4-0.4l4.1-11.1c0.2-0.4 0.8-0.5 1.1-0.1l6.3 10c0.1 0.2 0.3 0.3 0.5 0.3l11.8 0.5c0.5 0 0.7 0.6 0.4 0.9l-7.5 9.1c-0.2 0.2-0.2 0.4-0.2 0.6l3.2 11.4c0.2 0.4-0.3 0.9-0.7 0.7l-11-4.4c-0.2-0.1-0.4-0.1-0.6 0l-9.8 6.6c-0.4 0.3-1 0-0.9-0.5z"/>
				</g>
			</g>
			<g id="&lt;Group&gt;">
				<g id="&lt;Group&gt;">
					<path id="&lt;Path&gt;" class="s1" d="m681.6 135.3l-2.5-8.4q-0.1-0.3-0.3-0.3l-8.4-2.8c-0.4-0.1-0.4-0.5-0.1-0.7l7.2-5.1q0.2-0.1 0.2-0.3v-8.9c0-0.3 0.4-0.5 0.7-0.3l7.1 5.3q0.1 0.2 0.4 0.1l8.4-2.7c0.3-0.1 0.6 0.2 0.5 0.5l-2.9 8.4q-0.1 0.2 0 0.4l5.3 7.1c0.2 0.3 0 0.7-0.4 0.7l-8.9-0.2q-0.2 0-0.3 0.2l-5.2 7.2c-0.2 0.3-0.7 0.2-0.8-0.2z"/>
				</g>
			</g>
			<g id="&lt;Group&gt;">
				<g id="&lt;Group&gt;">
					<path id="&lt;Compound Path&gt;" fill-rule="evenodd" class="s1" d="m238.1 195.4q-0.5 0-1-0.2c-1.1-0.4-1.8-1.3-1.9-2.4l-3.2-28.2-24.9-13.3c-1-0.5-1.6-1.6-1.5-2.7 0-1.1 0.7-2.1 1.7-2.5l25.8-11.7 4.9-27.9c0.2-1.1 1-2 2.1-2.3 1.1-0.3 2.2 0 3 0.9l19.1 20.9 28-3.9c1.1-0.1 2.2 0.4 2.8 1.3 0.6 0.9 0.7 2.1 0.1 3.1l-14 24.6 12.4 25.4c0.5 1 0.3 2.2-0.4 3.1-0.6 0.9-1.7 1.3-2.8 1.1l-27.8-5.7-20.4 19.6c-0.5 0.5-1.3 0.8-2 0.8zm-29.4-46.7l24.8 13.3c0.9 0.5 1.4 1.3 1.5 2.3l3.2 28 20.3-19.5c0.7-0.7 1.7-1 2.6-0.8l27.7 5.7-12.4-25.4c-0.4-0.8-0.4-1.8 0.1-2.7l13.9-24.5-27.9 3.9c-0.9 0.1-1.9-0.2-2.5-1l-19-20.8-5 27.8c-0.2 0.9-0.8 1.7-1.7 2.1zm80.2 29l-0.3 1.5z"/>
				</g>
			</g>
			<g id="&lt;Group&gt;">
				<g id="&lt;Group&gt;">
					<path id="&lt;Compound Path&gt;" fill-rule="evenodd" class="s1" d="m1009.3 377.8q-0.2 0-0.4 0c-0.9-0.2-1.6-0.8-1.9-1.7l-5.1-17.1-17-5.5c-0.8-0.3-1.5-1-1.6-1.9-0.1-0.9 0.3-1.8 1-2.4l14.7-10.1v-17.9c0-0.9 0.5-1.7 1.3-2.1 0.8-0.4 1.8-0.3 2.5 0.2l14.2 10.9 17-5.6c0.9-0.3 1.8 0 2.5 0.6 0.6 0.7 0.8 1.6 0.5 2.5l-5.9 16.8 10.5 14.5c0.5 0.7 0.6 1.7 0.2 2.5-0.4 0.8-1.3 1.3-2.2 1.3l-17.8-0.4-10.5 14.4c-0.5 0.7-1.2 1-2 1zm-22.3-26.8l16.1 5.2c0.8 0.3 1.4 0.9 1.6 1.6l4.9 16.3 9.9-13.7c0.5-0.7 1.2-1 2-1l17 0.4-10-13.7c-0.5-0.7-0.6-1.5-0.3-2.3l5.6-16-16.1 5.3c-0.8 0.3-1.6 0.1-2.2-0.4l-13.5-10.3v17c0 0.8-0.4 1.5-1 2zm22.9 24.2q0 0 0 0zm21-30.9q0 0 0 0z"/>
				</g>
			</g>
			<g id="&lt;Group&gt;">
				<g id="&lt;Group&gt;">
					<path id="&lt;Path&gt;" class="s0" d="m57.6 374.9l-4.7-11.2c-0.1-0.2-0.3-0.3-0.5-0.3l-11.9-2.4c-0.5-0.1-0.6-0.8-0.3-1.1l9.2-8c0.1-0.1 0.2-0.3 0.2-0.5l-1.4-12.1c-0.1-0.5 0.5-0.8 0.9-0.6l10.4 6.2c0.2 0.1 0.4 0.2 0.6 0.1l11-5.1c0.5-0.2 1 0.2 0.9 0.7l-2.7 11.8c-0.1 0.2 0 0.4 0.1 0.6l8.3 8.9c0.3 0.4 0.1 1-0.4 1.1l-12.1 1c-0.2 0.1-0.4 0.2-0.5 0.4l-6 10.5c-0.2 0.5-0.9 0.4-1.1 0z"/>
				</g>
			</g>
			<g id="&lt;Group&gt;">
				<g id="&lt;Group&gt;">
					<path id="&lt;Path&gt;" class="s1" d="m346.9 73.9l0.4-6q0-0.1-0.1-0.2l-4.7-3.7c-0.2-0.2-0.1-0.5 0.1-0.6l5.8-1.4q0.2-0.1 0.2-0.2l2.1-5.6c0.1-0.2 0.4-0.3 0.5-0.1l3.2 5.1q0.1 0.1 0.3 0.1l6 0.3c0.2 0 0.3 0.3 0.2 0.4l-3.9 4.6q0 0.2 0 0.3l1.6 5.8c0.1 0.2-0.2 0.4-0.4 0.3l-5.5-2.2q-0.2 0-0.3 0l-5 3.4c-0.2 0.1-0.5-0.1-0.5-0.3z"/>
				</g>
			</g>
			<g id="&lt;Group&gt;">
				<g id="&lt;Group&gt;">
					<path id="&lt;Path&gt;" class="s1" d="m1099.1 389.2l-2.5-5.9q-0.1-0.2-0.3-0.2l-6.3-1.3c-0.2 0-0.3-0.3-0.1-0.5l4.8-4.2q0.1-0.2 0.1-0.3l-0.7-6.4c0-0.3 0.2-0.5 0.5-0.3l5.5 3.3q0.1 0.1 0.3 0l5.8-2.7c0.3-0.1 0.5 0.1 0.5 0.4l-1.4 6.2q-0.1 0.2 0 0.3l4.4 4.8c0.2 0.2 0 0.5-0.2 0.5l-6.4 0.6q-0.2 0-0.3 0.1l-3.1 5.6c-0.2 0.3-0.5 0.3-0.6 0z"/>
				</g>
			</g>
			<g id="&lt;Group&gt;">
				<g id="&lt;Group&gt;">
					<path id="&lt;Path&gt;" class="s1" d="m1071.5 266.5l11.7-26.8c0.2-0.4 0.2-0.9-0.1-1.3l-15.3-24.9c-0.7-1 0.1-2.3 1.3-2.2l29.1 2.9c0.5 0 1-0.2 1.3-0.5l18.9-22.4c0.8-0.9 2.3-0.5 2.5 0.7l6.3 28.5c0.1 0.5 0.4 0.9 0.8 1.1l27.1 11c1.1 0.5 1.2 2 0.2 2.6l-25.3 14.8c-0.4 0.2-0.6 0.7-0.7 1.2l-2.1 29.1c-0.1 1.2-1.6 1.8-2.5 1l-21.8-19.4c-0.4-0.4-0.9-0.5-1.3-0.4l-28.4 7c-1.2 0.3-2.2-0.9-1.7-2z"/>
				</g>
			</g>
			<g id="&lt;Group&gt;">
				<g id="&lt;Group&gt;">
					<path id="&lt;Compound Path&gt;" fill-rule="evenodd" class="s1" d="m807.4 95.5c-0.7 0-1.5-0.2-2-0.7l-21.8-20-28.8 6.6c-1.1 0.3-2.2-0.1-2.9-1-0.8-0.9-0.9-2.1-0.4-3.1l12.2-26.9-15.2-25.3c-0.5-1-0.5-2.2 0.1-3.2 0.6-0.9 1.7-1.5 2.8-1.3l29.4 3.3 19.4-22.2c0.7-0.9 1.9-1.2 3-1 1.1 0.3 1.9 1.2 2.1 2.3l5.9 29 27.2 11.5c1 0.5 1.7 1.5 1.8 2.6 0.1 1.2-0.5 2.2-1.5 2.8l-25.7 14.5-2.6 29.4c-0.1 1.2-0.9 2.1-1.9 2.5q-0.6 0.2-1.1 0.2zm-23.8-23.7c0.8 0 1.5 0.3 2 0.8l21.8 19.9 2.6-29.4c0.1-0.9 0.6-1.8 1.5-2.3l25.7-14.5-27.2-11.6c-0.9-0.4-1.5-1.2-1.7-2.1l-5.9-29-19.4 22.3c-0.6 0.8-1.6 1.1-2.6 1l-29.3-3.3 15.2 25.3c0.5 0.8 0.6 1.8 0.2 2.7l-12.3 26.9 28.8-6.6q0.3-0.1 0.6-0.1z"/>
				</g>
			</g>
			<g id="&lt;Group&gt;">
				<g id="&lt;Group&gt;">
					<path id="&lt;Compound Path&gt;" fill-rule="evenodd" class="s1" d="m112.1 451.3q-0.6 0-1.1-0.3c-0.7-0.4-1-1.2-1-2l1.1-11.6-9-7.5c-0.6-0.5-0.9-1.3-0.7-2.1 0.2-0.8 0.8-1.4 1.6-1.5l11.4-2.6 4.3-10.9c0.3-0.7 1-1.2 1.8-1.3 0.8 0 1.5 0.3 2 1l5.9 10.1 11.7 0.7c0.8 0.1 1.5 0.6 1.8 1.3 0.3 0.8 0.2 1.6-0.4 2.2l-7.7 8.8 2.9 11.3c0.2 0.8 0 1.6-0.7 2.1-0.6 0.6-1.4 0.7-2.2 0.4l-10.7-4.6-9.8 6.2q-0.6 0.3-1.2 0.3zm-6.7-22.5l8 6.6c0.5 0.4 0.8 1.1 0.7 1.8l-0.9 10.3 8.7-5.5c0.6-0.4 1.3-0.5 2-0.2l9.5 4.1-2.6-10c-0.2-0.7 0-1.4 0.5-1.9l6.8-7.8-10.3-0.7c-0.7 0-1.3-0.4-1.7-1l-5.3-8.9-3.8 9.6c-0.3 0.7-0.8 1.1-1.5 1.3zm17.3 15.8q0 0 0 0zm-11.3-6.9q0 0 0 0zm22.3-2.5q0 0 0 0zm-29.7-7.6q0 0 0 0zm10.8-4q0 0 0 0zm13.1-1.1q0 0 0 0zm-6.4-8.5q0 0 0 0z"/>
				</g>
			</g>
			<g id="&lt;Group&gt;">
				<path id="&lt;Path&gt;" class="s0" d="m243.2 355.9c0 4.2-3.4 7.6-7.6 7.6-4.3 0-7.7-3.4-7.7-7.6 0-4.2 3.4-7.7 7.7-7.7 4.2 0 7.6 3.5 7.6 7.7z"/>
			</g>
			<g id="&lt;Group&gt;">
				<path id="&lt;Path&gt;" class="s1" d="m44.1 563.9c0.8-2.4 3.4-3.7 5.8-2.9 2.4 0.9 3.7 3.5 2.8 5.9-0.8 2.4-3.4 3.7-5.8 2.8-2.4-0.8-3.7-3.4-2.8-5.8z"/>
			</g>
			<g id="&lt;Group&gt;">
				<path id="&lt;Path&gt;" class="s0" d="m960.9 460.1c0 4.2-3.4 7.7-7.7 7.7-4.2 0-7.6-3.5-7.6-7.7 0-4.2 3.4-7.7 7.6-7.7 4.3 0 7.7 3.5 7.7 7.7z"/>
			</g>
			<g id="&lt;Group&gt;">
				<g id="&lt;Group&gt;">
					<path id="&lt;Path&gt;" class="s0" d="m543.8 55.7l-5.6-11.6c0-0.2-0.2-0.4-0.4-0.4l-12.8-2c-0.5-0.1-0.7-0.8-0.3-1.1l9.3-8.9c0.2-0.1 0.3-0.4 0.2-0.6l-2-12.7c-0.1-0.5 0.5-0.9 1-0.7l11.3 6.2c0.2 0.1 0.4 0.1 0.6 0l11.5-5.8c0.5-0.3 1 0.1 0.9 0.6l-2.3 12.7c-0.1 0.2 0 0.4 0.1 0.6l9.1 9.1c0.4 0.4 0.2 1-0.3 1.1l-12.8 1.7c-0.2 0-0.4 0.1-0.5 0.3l-5.8 11.5c-0.3 0.5-1 0.5-1.2 0z"/>
				</g>
			</g>
			<g id="&lt;Group&gt;">
				<g id="&lt;Group&gt;">
					<path id="&lt;Path&gt;" class="s0" d="m771.9 248.4l-16-3.3c-0.3-0.1-0.5 0-0.7 0.2l-11.8 11.3c-0.5 0.5-1.3 0.2-1.4-0.5l-1.8-16.2c-0.1-0.3-0.2-0.5-0.5-0.7l-14.4-7.7c-0.6-0.3-0.6-1.2 0-1.5l15-6.7c0.2-0.1 0.4-0.3 0.4-0.6l2.9-16.1c0.1-0.7 1-0.9 1.4-0.4l11.1 12.1c0.1 0.2 0.4 0.3 0.7 0.2l16.2-2.2c0.7-0.1 1.2 0.6 0.8 1.2l-8.1 14.2c-0.1 0.3-0.1 0.6 0 0.8l7.1 14.7c0.3 0.6-0.2 1.3-0.9 1.2z"/>
				</g>
			</g>
			<g id="&lt;Group&gt;">
				<g id="&lt;Group&gt;">
					<path id="&lt;Path&gt;" class="s2" d="m193.2 57.7l14.6-16.7c0.2-0.3 0.3-0.6 0.2-1l-5.4-21.4c-0.3-0.9 0.6-1.7 1.5-1.3l20.3 8.7c0.3 0.1 0.7 0.1 1-0.1l18.7-11.8c0.8-0.5 1.8 0.1 1.7 1l-2 22c0 0.4 0.1 0.7 0.4 1l17 14.1c0.7 0.6 0.5 1.7-0.4 1.9l-21.6 4.9c-0.3 0.1-0.6 0.4-0.8 0.7l-8.1 20.6c-0.4 0.8-1.5 0.9-2 0.1l-11.4-19c-0.1-0.3-0.5-0.5-0.8-0.5l-22.1-1.4c-0.9-0.1-1.4-1.2-0.8-1.8z"/>
				</g>
			</g>
			<g id="&lt;Group&gt;">
				<g id="&lt;Group&gt;">
					<path id="&lt;Path&gt;" class="s0" d="m1107.7 479.5l-10.5-7.5c-0.2-0.2-0.4-0.2-0.6-0.1l-12.1 4.4c-0.5 0.1-1-0.3-0.8-0.8l3.9-12.3c0-0.2 0-0.5-0.1-0.6l-8-10.2c-0.3-0.4 0-1 0.6-1l12.8-0.1c0.3 0 0.4-0.1 0.6-0.3l7.2-10.7c0.3-0.4 1-0.3 1.1 0.2l4.1 12.2c0.1 0.2 0.2 0.4 0.4 0.4l12.4 3.6c0.5 0.2 0.7 0.8 0.2 1.2l-10.4 7.6c-0.1 0.1-0.2 0.3-0.2 0.5l0.4 12.9c0 0.6-0.6 0.9-1 0.6z"/>
				</g>
			</g>
			<g id="&lt;Group&gt;">
				<path id="&lt;Path&gt;" class="s3" d="m192.9 327.6c0.7 0-0.6 133.1-0.6 133.1 0 2.2-0.7 4.1-1.4 4-0.7 0-1.3-1.8-1.3-4.1 0 0 2.5-133 3.3-133z"/>
			</g>
			<g id="&lt;Group&gt;">
				<path id="&lt;Path&gt;" class="s3" d="m412.3 4.7c0.6 0 1.7 102.3 1.7 102.3 0 1.7-0.4 3.2-1 3.1-0.6 0-1-1.4-1-3.1 0 0-0.2-102.3 0.3-102.3z"/>
			</g>
			<g id="&lt;Group&gt;">
				<path id="&lt;Path&gt;" class="s3" d="m505.9 203c1 0.1 1.5 156.2 1.5 156.2 0 2.6-0.8 4.8-1.8 4.7-0.9 0-1.7-2.1-1.7-4.8 0 0 1.1-156.1 2-156.1z"/>
			</g>
			<g id="&lt;Group&gt;">
				<path id="&lt;Path&gt;" class="s3" d="m960 236.4c0.9-0.1 5.3 130.3 5.3 130.3 0.1 2.2-0.6 4-1.6 4.1-0.9 0-1.7-1.8-1.8-4.1 0 0-2.9-130.3-1.9-130.3z"/>
			</g>
			<g id="&lt;Group&gt;">
				<path id="&lt;Path&gt;" class="s3" d="m833.6 105.8c0.4 0 0.6 73.1 0.6 73.1 0 1.3-0.3 2.3-0.7 2.3-0.4 0-0.8-1-0.8-2.3 0 0 0.4-73.1 0.9-73.1z"/>
			</g>
			<g id="&lt;Group&gt;">
				<path id="&lt;Path&gt;" class="s3" d="m59.1 415.7c0.6 0-0.5 106-0.5 106 0 1.9-0.5 3.3-1.1 3.3-0.6 0-1.1-1.5-1-3.3 0 0 2-106.1 2.6-106z"/>
			</g>
			<g id="&lt;Group&gt;">
				<path id="&lt;Path&gt;" class="s3" d="m718.1 307.3c0.4 0 0.7 85 0.7 85 0 1.5-0.4 2.7-0.8 2.6-0.5 0-0.9-1.1-0.9-2.6 0 0 0.5-85 1-85z"/>
			</g>
			<g id="&lt;Group&gt;">
				<path id="&lt;Path&gt;" class="s3" d="m1142.2 508.2c0.4 0 0.6 73.2 0.6 73.2 0 1.2-0.3 2.2-0.7 2.2-0.4 0-0.7-1-0.7-2.3 0 0 0.4-73.1 0.8-73.1z"/>
			</g>
			<g id="&lt;Group&gt;">
				<g id="&lt;Group&gt;">
					<path id="&lt;Compound Path&gt;" fill-rule="evenodd" class="s1" d="m651.4 290.6q-0.2 0-0.4 0c-0.8-0.2-1.5-0.7-1.7-1.5l-3.6-12.2-12.1-3.9c-0.8-0.3-1.3-0.9-1.5-1.8-0.1-0.8 0.3-1.6 0.9-2l10.5-7.2v-12.7c0-0.9 0.5-1.6 1.2-2 0.7-0.3 1.6-0.2 2.3 0.3l10 7.7 12.1-3.9c0.8-0.3 1.6-0.1 2.2 0.5 0.6 0.6 0.8 1.5 0.5 2.2l-4.2 12 7.4 10.3c0.5 0.6 0.6 1.5 0.2 2.2-0.4 0.8-1.2 1.2-2 1.2l-12.6-0.3-7.5 10.2c-0.4 0.6-1.1 0.9-1.7 0.9zm-15.2-19.9l10.8 3.5c0.7 0.2 1.2 0.7 1.4 1.4l3.3 11 6.7-9.3c0.4-0.5 1.1-0.9 1.8-0.8l11.4 0.2-6.7-9.2c-0.4-0.6-0.5-1.3-0.3-2l3.8-10.8-10.9 3.6c-0.6 0.2-1.4 0.1-1.9-0.4l-9.1-6.9v11.4c0 0.7-0.3 1.4-0.9 1.8zm9.9 6.4q0 0 0 0zm-11.3-5.4q0 0 0 0zm32.7-5.2h-0.1q0.1 0 0.1 0zm-10.9-11.1q0 0 0 0z"/>
				</g>
			</g>
			<g id="&lt;Group&gt;">
				<g id="&lt;Group&gt;">
					<path id="&lt;Path&gt;" class="s2" d="m915.3 564.5l0.7-11.8c0-0.2 0-0.4-0.2-0.5l-9.3-7.4c-0.4-0.3-0.2-0.9 0.2-1l11.5-2.9c0.2-0.1 0.4-0.2 0.4-0.4l4.1-11.1c0.2-0.4 0.8-0.5 1.1-0.1l6.3 10c0.1 0.2 0.3 0.3 0.5 0.3l11.8 0.5c0.5 0 0.7 0.6 0.4 0.9l-7.5 9.1c-0.2 0.2-0.2 0.4-0.2 0.6l3.2 11.4c0.2 0.4-0.3 0.9-0.7 0.7l-11-4.4c-0.2-0.1-0.4-0.1-0.6 0l-9.8 6.6c-0.4 0.3-1 0-0.9-0.5z"/>
				</g>
			</g>
			<g id="&lt;Group&gt;">
				<g id="&lt;Group&gt;">
					<path id="&lt;Path&gt;" class="s0" d="m568.9 369.3l-2.6-8.4q0-0.3-0.2-0.3l-8.5-2.8c-0.3-0.1-0.4-0.5-0.1-0.7l7.3-5.1q0.2-0.1 0.2-0.3v-8.9c0-0.3 0.4-0.5 0.7-0.3l7 5.3q0.2 0.2 0.4 0.1l8.4-2.7c0.4-0.1 0.7 0.2 0.6 0.5l-2.9 8.4q-0.1 0.2 0 0.4l5.2 7.1c0.2 0.3 0 0.7-0.3 0.7l-8.9-0.2q-0.2 0-0.3 0.2l-5.2 7.2c-0.3 0.3-0.7 0.2-0.8-0.2z"/>
				</g>
			</g>
			<g id="&lt;Group&gt;">
				<g id="&lt;Group&gt;">
					<path id="&lt;Path&gt;" class="s0" d="m10.1 653.7l-2.5-6q-0.1-0.1-0.2-0.1l-6.4-1.3c-0.2-0.1-0.3-0.4-0.1-0.6l4.8-4.2q0.2-0.1 0.2-0.3l-0.8-6.4c0-0.2 0.3-0.4 0.5-0.3l5.5 3.3q0.2 0.1 0.3 0l5.9-2.6c0.2-0.2 0.5 0.1 0.4 0.3l-1.4 6.3q-0.1 0.1 0.1 0.3l4.3 4.7c0.2 0.2 0.1 0.5-0.2 0.5l-6.4 0.6q-0.2 0-0.3 0.2l-3.1 5.6c-0.1 0.2-0.5 0.2-0.6 0z"/>
				</g>
			</g>
			<g id="&lt;Group&gt;">
				<g id="&lt;Group&gt;">
					<path id="&lt;Path&gt;" class="s1" d="m343.5 317.9l-6.9-7.5q-0.2-0.2-0.5-0.1l-10.1 1.4c-0.4 0.1-0.7-0.4-0.5-0.7l5-8.9q0.1-0.3 0-0.5l-4.5-9.2c-0.2-0.3 0.1-0.8 0.6-0.7l10 2q0.2 0.1 0.4-0.1l7.3-7.1c0.3-0.3 0.8-0.1 0.9 0.3l1.2 10.1q0 0.3 0.2 0.4l9.1 4.8c0.3 0.2 0.3 0.7-0.1 0.9l-9.2 4.2q-0.3 0.1-0.3 0.4l-1.8 10.1c0 0.4-0.5 0.5-0.8 0.2z"/>
				</g>
			</g>
			<g id="&lt;Group&gt;">
				<g id="&lt;Group&gt;">
					<path id="&lt;Path&gt;" class="s1" d="m1099.1 640.2l-2.5-5.9q-0.1-0.2-0.3-0.2l-6.3-1.3c-0.2 0-0.3-0.3-0.1-0.5l4.8-4.2q0.1-0.2 0.1-0.3l-0.7-6.4c0-0.3 0.2-0.5 0.5-0.3l5.5 3.3q0.1 0.1 0.3 0l5.8-2.7c0.3-0.1 0.5 0.1 0.5 0.4l-1.4 6.2q-0.1 0.2 0 0.3l4.4 4.8c0.2 0.2 0 0.5-0.2 0.5l-6.4 0.6q-0.2 0-0.3 0.1l-3.1 5.6c-0.2 0.3-0.5 0.3-0.6 0z"/>
				</g>
			</g>
			<g id="&lt;Group&gt;">
				<g id="&lt;Group&gt;">
					<path id="&lt;Path&gt;" class="s0" d="m125.7 564.9l5.5-7.9q0.2-0.2 0.1-0.5l-3.4-9c-0.1-0.4 0.2-0.7 0.6-0.6l9.2 2.8q0.2 0 0.4-0.1l7.6-6c0.3-0.2 0.7 0 0.7 0.4l0.2 9.6q0 0.2 0.2 0.4l8.1 5.3c0.3 0.2 0.2 0.7-0.1 0.8l-9.1 3.2q-0.3 0.1-0.3 0.3l-2.6 9.3c-0.1 0.4-0.6 0.5-0.8 0.1l-5.8-7.6q-0.2-0.2-0.4-0.2l-9.7 0.4c-0.4 0-0.6-0.4-0.4-0.7z"/>
				</g>
			</g>
			<g id="&lt;Group&gt;">
				<path id="&lt;Path&gt;" class="s1" d="m817.2 379.8c0 2-1.6 3.7-3.6 3.7-2 0-3.6-1.7-3.6-3.7 0-2 1.6-3.6 3.6-3.6 2 0 3.6 1.6 3.6 3.6z"/>
			</g>
			<g id="&lt;Group&gt;">
				<g id="&lt;Group&gt;">
					<path id="&lt;Path&gt;" class="s0" d="m928.5 96.3l-12.7-2.1c-0.2 0-0.4 0.1-0.5 0.2l-9 9.3c-0.3 0.4-1 0.2-1.1-0.3l-1.9-12.8c0-0.2-0.2-0.4-0.4-0.4l-11.6-5.7c-0.4-0.2-0.5-0.9 0-1.1l11.5-5.8c0.2-0.1 0.4-0.3 0.4-0.5l1.7-12.8c0.1-0.5 0.8-0.7 1.1-0.3l9.1 9.1c0.2 0.2 0.4 0.3 0.6 0.2l12.7-2.2c0.5-0.1 0.9 0.4 0.6 0.9l-5.9 11.4c-0.1 0.2-0.1 0.4 0 0.6l6.1 11.4c0.3 0.5-0.1 1-0.7 0.9z"/>
				</g>
			</g>
		</g>
	</g>
</svg>