<!--?xml version="1.0" standalone="no"?-->
              <svg id="sw-js-blob-svg" viewBox="0 0 100 100" xmlns="http://www.w3.org/2000/svg" version="1.1">
                    <defs>
                        <linearGradient id="sw-gradient" x1="0" x2="1" y1="1" y2="0">
                            <stop id="stop1" stop-color="rgba(37, 169, 225, 0.2)" offset="0%"></stop>
                            <stop id="stop2" stop-color="rgba(37, 169, 225, 0.2)" offset="100%"></stop>
                        </linearGradient>
                    </defs>
                <path fill="url(#sw-gradient)" d="M24.6,-29.5C32.4,-22.8,39.5,-15.5,42.3,-6.4C45.1,2.6,43.6,13.5,38.2,21.2C32.7,29,23.3,33.7,14.3,35.2C5.2,36.7,-3.5,35.1,-12.5,32.6C-21.5,30,-30.8,26.6,-35.9,19.8C-41,13,-41.8,2.7,-38.8,-5.5C-35.7,-13.7,-28.8,-19.9,-21.7,-26.7C-14.6,-33.5,-7.3,-41,0.6,-41.6C8.4,-42.3,16.8,-36.2,24.6,-29.5Z" width="100%" height="100%" transform="translate(50 50)" stroke-width="0" style="transition: 0.3s;"></path>
              </svg>