<svg version="1.2" xmlns="http://www.w3.org/2000/svg" viewBox="0 0 240 212" width="240" height="212">
	<title>1825152_245016-P431FJ-152-ai</title>
	<style>
		.s0 { fill: #04435b } 
		.s1 { fill: #506c91 } 
		.s2 { opacity: .3;mix-blend-mode: multiply;fill: #506c91 } 
		.s3 { fill: #ffa741 } 
		.s4 { fill: #86b4f2 } 
	</style>
	<g id="OBJECTS">
		<g id="&lt;Group&gt;">
			<path id="&lt;Path&gt;" class="s0" d="m90.1 0.1v35.4h59.8v-35.4z"/>
			<path id="&lt;Path&gt;" class="s1" d="m167.7 7.5c-3.3-3.2-10.1-5.7-17.8-7.4-1.7 7.6-14.4 13.5-29.9 13.5-15.5 0-28.2-5.9-29.9-13.5-7.7 1.7-14.5 4.2-17.8 7.4 0 0-23.9 65.7-22.4 200.5 0 0 17.9 4 46.1 3.6v-33.4c0-13.2 10.7-24 24-24 13.3 0 24 10.8 24 24v33.4c28.2 0.4 46.1-3.6 46.1-3.6 1.5-134.8-22.4-200.5-22.4-200.5z"/>
			<g id="&lt;Group&gt;" style="opacity: .3;mix-blend-mode: multiply">
				<path id="&lt;Path&gt;" class="s1" d="m98.4 209.2v-33.3q0-3.5 0.9-6.7c-24.9-9.4-37.9-30.3-44.5-46.4-1.8 23.9-2.8 51.5-2.5 82.9 0 0 17.9 3.9 46.1 3.5z"/>
				<path id="&lt;Path&gt;" class="s1" d="m144 178.2v33.4c28.2 0.4 46.1-3.6 46.1-3.6 0.2-16.9-0.1-32.7-0.6-47.5-17.2 7.8-32.3 12.4-45.7 14.5q0.2 1.6 0.2 3.2z"/>
			</g>
			<path id="&lt;Path&gt;" class="s2" d="m56.6 101.5c32.1-37.2 20.1-79.2 20.1-79.2l-7.7 3.2c-3.9 15.9-8.8 41.2-12.4 76z"/>
			<path id="&lt;Path&gt;" class="s2" d="m188.2 101.5c-32.1-37.2-20.1-79.2-20.1-79.2l7.7 3.2c3.9 15.9 8.8 41.2 12.4 76z"/>
			<g id="&lt;Group&gt;">
				<path id="&lt;Path&gt;" class="s3" d="m190.1 188.8c-12.4 2.7-28.3 4.8-46.1 5.8v17c28.2 0.4 46.1-3.6 46.1-3.6q0.1-9.9 0-19.2z"/>
				<path id="&lt;Path&gt;" class="s3" d="m96 211.6v-17c-17.8-1-33.7-3.1-46.1-5.8q-0.1 9.3 0 19.2c0 0 17.9 4 46.1 3.6z"/>
			</g>
			<g id="&lt;Group&gt;">
				<g id="&lt;Group&gt;">
					<g id="&lt;Group&gt;">
						<path id="&lt;Path&gt;" class="s4" d="m72.4 7.5c0 0 9.7 33.6-14 63.2l-31.2 35.1-27-20.6c0 0 37.5-57.7 72.2-77.7z"/>
					</g>
					<g id="&lt;Group&gt;">
						<path id="&lt;Path&gt;" class="s4" d="m167.6 7.5c0 0-9.7 33.6 14 63.2l31.2 35.1 27-20.6c0 0-37.5-57.7-72.2-77.7z"/>
					</g>
				</g>
				<path id="&lt;Path&gt;" class="s3" d="m212.8 105.8l27-20.6c0 0-3.5-5.3-9.3-13.3l-29.3 20.9z"/>
				<path id="&lt;Path&gt;" class="s3" d="m38.8 92.8l-29.3-20.9c-5.8 8-9.3 13.3-9.3 13.3l27 20.6z"/>
			</g>
			<path id="&lt;Path&gt;" class="s3" d="m120 105.8c-19.2 0-34.8 15-34.8 33.4 0 11 5.6 20.8 14.1 26.8 4.2-7 11.9-11.8 20.7-11.8 8.8 0 16.5 4.8 20.7 11.8 8.5-6 14.1-15.8 14.1-26.8 0-18.4-15.6-33.4-34.8-33.4z"/>
			<path id="&lt;Path&gt;" class="s3" d="m120 22.8c19.9 0 35.7-8.3 38.7-20.2-2.6-1-5.6-1.8-8.8-2.5-1.7 7.6-14.4 13.5-29.9 13.5-15.5 0-28.3-5.9-29.9-13.5-3.2 0.7-6.2 1.5-8.8 2.5 3 11.9 18.8 20.2 38.7 20.2z"/>
			<g id="&lt;Group&gt;">
				<path id="&lt;Path&gt;" class="s3" d="m142 66.9c0 12.1-9.9 21.9-22 21.9-12.1 0-22-9.8-22-21.9v-14.6c0-12.2 44-12.2 44 0z"/>
			</g>
			<g id="&lt;Group&gt;" style="opacity: .4;mix-blend-mode: multiply">
				<path id="&lt;Path&gt;" class="s3" d="m129 76.4c-13 0-23.5-10.6-23.5-23.8 0-2.7 0.4-5.3 1.3-7.8-5.2 1.5-8.8 4-8.8 7.5v14.6c0 12.1 9.9 21.9 22 21.9 10 0 18.4-6.6 21.1-15.8-3.5 2.2-7.7 3.4-12.1 3.4z"/>
			</g>
		</g>
	</g>
</svg>