<svg version="1.2" xmlns="http://www.w3.org/2000/svg" viewBox="0 0 1500 1000" width="1500" height="1000">
	<title>44423432_9102342-ai</title>
	<defs>
		<clipPath clipPathUnits="userSpaceOnUse" id="cp1">
			<path d="m1500 0l-0.2 1000-1499.8-0.59 0.2-1000z"/>
		</clipPath>
		<clipPath clipPathUnits="userSpaceOnUse" id="cp2">
			<path d="m901.17 874.03c0 0 2.97 66.32-8.31 78.65-11.28 12.33-43.46 27.7-27.75 51.61 15.71 23.91 90.13 4.65 107-32.66 16.87-37.31 13.66-97.37 13.66-97.37z"/>
		</clipPath>
		<clipPath clipPathUnits="userSpaceOnUse" id="cp3">
			<path d="m1018 845.41c0 0 29.88 59.28 24.64 75.15-5.25 15.87-28.3 43.07-4.18 58.44 24.13 15.38 84.13-32.67 84.24-73.62 0.1-40.96-27.43-94.43-27.43-94.43z"/>
		</clipPath>
		<clipPath clipPathUnits="userSpaceOnUse" id="cp4">
			<path d="m1563.46 1015.18h-190.92v-267.13h190.92z"/>
		</clipPath>
		<clipPath clipPathUnits="userSpaceOnUse" id="cp5">
			<path d="m1500 0l-0.2 1000-1499.8-0.59 0.2-1000z"/>
		</clipPath>
	</defs>
	<style>
		.s0 { fill: #ffffff }
		.s1 { fill: rgb(254, 84, 136, 0.1)}
		.s2 { fill: #ffdde7}
		.s3 { fill: #ffcbdb}
		.s4 { fill: #ffbbcf}
		.s5 { fill: rgb(254 135 171) }
		.s6 { fill: rgb(254 115 157)}
		.s7 { fill: rgb(254, 84, 136)}
		.s8 { fill: #fcbaa2 }
		.s9 { opacity: .1;fill: rgb(254, 84, 136) }
		.s10 { fill: rgb(254, 84, 136) }
		.s11 { opacity: .3;fill: #ffffff }
		.s12 { fill: #f9b4b4 }
	</style>
	<g id="_Artboards_">
		<path id="Mesa de trabajo 1" class="s0" d="m0 999.7h1500v-1000h-1500z"/>
		<path id="Mesa de trabajo 2" class="s0" d="m0 1000h1500v-1000.6h-1500z"/>
		<path id="Mesa de trabajo 3" class="s0" d="m0 1000h1500v-1000.6h-1500z"/>
	</g>
	<g id="BACKGROUND">
		<path id="&lt;Path&gt;" class="s1" d="m1500 0l-0.2 1000-1499.8-0.6 0.2-1000z"/>
		<g id="&lt;Group&gt;">
			<path id="&lt;Path&gt;" class="s2" d="m0.2-0.6v210.6c52.4-0.1 121.6-12.2 168.8-65.7 85.6-96.7 136.6-120.7 275.3-41.3 121.5 69.7 239.2-1.2 219.6-103.3z"/>
			<path id="&lt;Path&gt;" class="s2" d="m1055.9 103c138.7-79.4 189.7-55.4 275.2 41.3 47.3 53.5 116.5 65.6 168.9 65.7v-210.6l-663.7 0.3c-19.6 102.1 98 173 219.6 103.3z"/>
			<path id="&lt;Path&gt;" class="s2" d="m1331.1 854.8c-85.5 96.8-136.5 120.8-275.2 41.3-121.6-69.6-239.2 1.2-219.6 103.3l663.7 0.3v-210.6c-52.4 0.1-121.6 12.2-168.9 65.7z"/>
			<path id="&lt;Path&gt;" class="s2" d="m444.3 896.1c-138.7 79.5-189.7 55.5-275.3-41.3-47.2-53.5-116.4-65.6-168.8-65.7v210.6l663.7-0.3c19.6-102.1-98.1-172.9-219.6-103.3z"/>
		</g>
	</g>
	<g id="OBJECTS">
		<g id="&lt;Group&gt;">
			<path id="&lt;Path&gt;" class="s3" d="m346.2 719.7l-2.5 22.2 22.2 11.5-23 5.4-2.9 23.8-12.7-19.8-23.1 4.1 14.5-18.4-10.6-20.4 22.5 8.3z"/>
			<path id="&lt;Path&gt;" class="s3" d="m46.9 623.8l-1.5 13.4 13.4 7-13.9 3.3-1.8 14.3-7.6-11.9-14 2.5 8.8-11.2-6.5-12.3 13.6 5z"/>
			<path id="&lt;Path&gt;" class="s3" d="m142.5 671l5.7 5.8 8.4-3.6-3.8 7.8 6.1 6.3-8.6-0.9-4.2 7.5-1.8-8.4-8.3-1.7 7.6-4.5z"/>
			<path id="&lt;Path&gt;" class="s3" d="m412.7 708.3l5.7 5.8 8.4-3.6-3.8 7.8 6.1 6.3-8.5-0.9-4.2 7.5-1.9-8.4-8.3-1.7 7.6-4.5z"/>
			<path id="&lt;Path&gt;" class="s3" d="m508.9 749.2l-1.5 13.4 13.4 6.9-13.9 3.3-1.8 14.4-7.7-11.9-13.9 2.4 8.7-11.1-6.4-12.4 13.6 5.1z"/>
			<path id="&lt;Path&gt;" class="s3" d="m896.6 747.3l-2.4 22.2 22.2 11.5-23 5.4-3 23.7-12.6-19.7-23.1 4.1 14.5-18.4-10.7-20.5 22.6 8.4z"/>
			<path id="&lt;Path&gt;" class="s3" d="m590.7 815.8l5.8 5.8 8.4-3.6-3.8 7.8 6 6.3-8.5-1-4.2 7.5-1.9-8.3-8.2-1.8 7.6-4.4z"/>
			<path id="&lt;Path&gt;" class="s3" d="m983.5 713.1l-1.5 13.4 13.5 7-14 3.3-1.7 14.4-7.7-12-14 2.5 8.8-11.1-6.4-12.4 13.6 5z"/>
			<path id="&lt;Path&gt;" class="s3" d="m1145.8 795.8l5.7 5.9 8.4-3.6-3.8 7.7 6.1 6.4-8.5-1-4.2 7.5-1.9-8.4-8.3-1.7 7.6-4.4z"/>
			<path id="&lt;Path&gt;" class="s3" d="m1235 689.3l-1.4 13.4 13.4 7-13.9 3.2-1.8 14.4-7.7-11.9-13.9 2.4 8.7-11.1-6.4-12.4 13.6 5.1z"/>
			<path id="&lt;Path&gt;" class="s3" d="m1444.3 599.4l-2.4 22.1 22.1 11.6-23 5.4-2.9 23.7-12.6-19.7-23.1 4.1 14.5-18.4-10.7-20.5 22.5 8.4z"/>
			<path id="&lt;Path&gt;" class="s3" d="m1322.5 691.7l5.7 5.8 8.4-3.6-3.8 7.8 6.1 6.3-8.6-1-4.2 7.5-1.8-8.4-8.3-1.7 7.6-4.4z"/>
		</g>
		<g id="&lt;Group&gt;">
			<g id="&lt;Group&gt;">
				<g id="&lt;Group&gt;">
					<g id="&lt;Group&gt;">
						<g id="&lt;Group&gt;">
							<path id="&lt;Path&gt;" class="s4" d="m184.3 230.1c5.8-38.1 29-69.9 63.6-81.2 34.6-11.3 72.1 0.7 99.3 28l71.5-23.3c-45.5-69.9-124.4-105.5-196.1-82.1-71.7 23.4-114.3 98.7-109.9 182z"/>
							<path id="&lt;Path&gt;" class="s5" d="m184.3 230.1c5.8-38.1 29-69.9 63.6-81.2 34.6-11.3 72.1 0.7 99.3 28l59.3-19.3c-42.6-62.3-114.2-93.7-179.4-72.4-65.2 21.3-104.5 88.9-102.1 164.3z"/>
							<path id="&lt;Path&gt;" class="s6" d="m184.3 230.1c5.8-38.1 29-69.9 63.6-81.2 34.6-11.3 72.1 0.7 99.3 28l44.5-14.5c-38.9-53.3-101.8-79.6-159.3-60.8-57.4 18.7-92.6 77.1-92.6 143.1z"/>
							<path id="&lt;Path&gt;" class="s7" d="m184.3 230.1c5.8-38.1 29-69.9 63.6-81.2 34.6-11.3 72.1 0.7 99.3 28l30.5-9.9c-35.4-44.9-90.1-66.5-140.3-50.2-50.1 16.4-81.6 66.2-83.7 123.3z"/>
							<path id="&lt;Path&gt;" class="s8" d="m184.3 230.1c5.8-38.1 29-69.9 63.6-81.2 34.6-11.3 72.1 0.7 99.3 28l15.2-4.9c-31.4-35.9-77.3-52.6-119.6-38.8-42.3 13.8-69.6 54.4-73.8 101.9z"/>
						</g>
					</g>
					<path id="&lt;Path&gt;" class="s9" d="m322 74.2c-32.1 23.1-76.9 44.6-128.5 59.9-20.1 5.9-39.8 10.5-58.7 13.7-16.2 30.7-24.1 67.3-22.1 105.7l56.3-18.4 15.3-5c5.8-38.1 29-69.9 63.6-81.2 34.6-11.3 72.1 0.7 99.3 28l71.5-23.3c-24.6-37.8-59-65.6-96.7-79.4z"/>
				</g>
				<g id="&lt;Group&gt;">
					<g id="&lt;Group&gt;">
						<path id="&lt;Path&gt;" class="s0" d="m217.9 216.2c-6.4 0-12.4 1.2-17.7 3.4-3.6-8.9-14.9-15.4-28.2-15.4-3.1 0-6.1 0.4-8.9 1-0.3-1.1-0.6-2.2-1.1-3.3-5.1-10.7-21.1-13.7-35.8-6.8-2.3 1.1-4.5 2.4-6.4 3.9-4.7-12.3-16.5-21.1-30.4-21.1-17.9 0-32.5 14.6-32.5 32.5 0 6.9 2.2 13.3 5.9 18.6-10.8 3.2-18.4 10.9-18.4 19.9 0 11.8 13.1 21.4 29.4 21.4 2.4 0 4.7-0.3 7-0.7 8.1 7.2 20.2 11.7 33.9 11.7 11.8 0 22.6-3.5 30.5-9.1 6 4.3 14.1 6.9 23.1 6.9 13.2 0 24.6-5.6 29.8-13.8 5.7 2.7 12.5 4.2 19.8 4.2 20.2 0 36.6-11.9 36.6-26.6 0-14.7-16.4-26.7-36.6-26.7z"/>
						<g id="&lt;Group&gt;">
							<path id="&lt;Path&gt;" class="s4" d="m89.4 187.6c13.9 0 25.7 8.8 30.4 21.1 1.9-1.5 4.1-2.8 6.4-3.9 14.7-6.9 30.7-3.9 35.8 6.8 0.5 1.1 0.8 2.2 1.1 3.3 2.8-0.6 5.8-1 8.9-1 13.3 0 24.6 6.5 28.2 15.4 5.3-2.2 11.3-3.4 17.7-3.4 18 0 32.9 9.4 36 21.8 0.4-1.5 0.6-3.1 0.6-4.8 0-14.7-16.4-26.7-36.6-26.7-6.4 0-12.4 1.2-17.7 3.4-3.6-8.9-14.9-15.4-28.2-15.4-3.1 0-6.1 0.4-8.9 1-0.3-1.1-0.6-2.2-1.1-3.3-5.1-10.7-21.1-13.7-35.8-6.8-2.3 1.1-4.5 2.4-6.4 3.9-4.7-12.3-16.5-21.1-30.4-21.1-17.9 0-32.5 14.6-32.5 32.5q0 2.5 0.4 5c2.3-15.7 15.8-27.8 32.1-27.8z"/>
							<path id="&lt;Path&gt;" class="s4" d="m62.8 238.7c-1.7-2.5-3.1-5.2-4.1-8.2-8.6 3.8-14.3 10.6-14.3 18.4 0 1.6 0.3 3.2 0.7 4.8 2.2-6.8 8.9-12.4 17.7-15z"/>
						</g>
					</g>
					<g id="&lt;Group&gt;">
						<path id="&lt;Compound Path&gt;" class="s0" d="m529.1 164c1.7-14.7-14.2-28.6-35.5-31.1-3.4-0.4-6.7-0.5-9.9-0.3-0.4-14-17.3-27-39.4-29.6-16.7-1.9-31.8 2.5-39.8 10.6-6.5-5.6-15-9.6-24.7-10.7-22.9-2.7-43.4 11.3-45.7 31.3-1 8.3 1.3 16.3 6 23-11 2.2-19.4 9.7-20.5 19.4-1.6 12.9 10.1 24.9 26 26.7 7 0.9 13.6-0.4 19-3.1 6.5 5.8 16.3 10.2 27.7 11.5 15.7 1.9 29.9-2.5 37-10.5 7 4.5 15.7 7.6 25.4 8.7 24.5 2.9 46-8 49.4-24.5 13.6-2.7 23.8-10.8 25-21.4z"/>
						<g id="&lt;Group&gt;">
							<path id="&lt;Path&gt;" class="s4" d="m379.8 112.6c9.7 1.1 18.2 5.1 24.7 10.7 8-8.1 23.1-12.5 39.8-10.6 22.1 2.6 39 15.6 39.4 29.6 3.2-0.2 6.5-0.1 9.9 0.3 17.9 2.1 31.9 12.2 35 24.1q0.3-1.3 0.5-2.7c1.7-14.7-14.2-28.6-35.5-31.1-3.4-0.4-6.7-0.5-9.9-0.3-0.4-14-17.3-27-39.4-29.6-16.7-1.9-31.8 2.5-39.8 10.6-6.5-5.6-15-9.6-24.7-10.7-22.9-2.7-43.4 11.3-45.7 31.3-0.4 2.9-0.3 5.8 0.2 8.7 2.9-19.5 23-32.9 45.5-30.3z"/>
							<path id="&lt;Path&gt;" class="s4" d="m340.1 166.9c-1.9-2.7-3.3-5.5-4.4-8.5-8.7 3.1-15.2 9.8-16.1 18.2-0.3 2.5-0.1 4.9 0.5 7.2 2.2-8.5 10-14.9 20-16.9z"/>
						</g>
					</g>
				</g>
			</g>
			<g id="&lt;Group&gt;">
				<g id="&lt;Group&gt;">
					<g id="&lt;Group&gt;">
						<g id="&lt;Group&gt;">
							<path id="&lt;Path&gt;" class="s4" d="m1321.9 216.3c-18.7-36.6-56-62.4-100.8-64.9-44.7-2.5-85.8 19.1-110 53.3l-92.4-5.1c33.1-81.4 116.3-137.1 209-132 92.8 5.1 166.6 69.5 186.6 153.8z"/>
							<path id="&lt;Path&gt;" class="s5" d="m1321.9 216.3c-18.7-36.6-56-62.4-100.8-64.9-44.7-2.5-85.8 19.1-110 53.3l-76.6-4.2c31.9-73.1 107.7-122.6 192.1-118 84.3 4.6 151.7 62.1 171.9 138z"/>
							<path id="&lt;Path&gt;" class="s6" d="m1321.9 216.3c-18.7-36.6-56-62.4-100.8-64.9-44.7-2.5-85.8 19.1-110 53.3l-57.5-3.2c30.3-63.1 97.3-105.4 171.6-101.3 74.2 4.1 134.1 53.3 154.2 119.3z"/>
							<path id="&lt;Path&gt;" class="s7" d="m1321.9 216.3c-18.7-36.6-56-62.4-100.8-64.9-44.7-2.5-85.8 19.1-110 53.3l-39.4-2.2c28.6-53.8 87.3-89.4 152.2-85.8 64.8 3.6 117.5 45.2 137.4 101.8z"/>
							<path id="&lt;Path&gt;" class="s8" d="m1321.9 216.3c-18.7-36.6-56-62.4-100.8-64.9-44.7-2.5-85.8 19.1-110 53.3l-19.6-1.1c26.5-43.9 76.3-72.2 131-69.2 54.7 3 99.6 36.6 119 83z"/>
						</g>
					</g>
					<path id="&lt;Path&gt;" class="s9" d="m1110 95.7c45.2 14.9 105.3 24.9 171.6 27 25.7 0.8 50.6 0.3 74.2-1.2 28.6 26.5 49.3 61.1 58.5 99.9l-72.8-4-19.6-1.1c-18.7-36.6-56-62.4-100.8-64.9-44.7-2.5-85.8 19.1-110 53.3l-92.4-5.1c17.9-44 50.5-80.5 91.3-103.9z"/>
				</g>
				<g id="&lt;Group&gt;">
					<path id="&lt;Path&gt;" class="s0" d="m1158 203.1c2-3.1 3.1-6.7 3.1-10.5 0-12.9-12.7-23.4-28.5-23.4q-2.9 0-5.8 0.4c0-12.3-6.6-22.7-17.1-25.2-8.4-2-17.2 1.5-23.7 8.4-7-15.9-24-27.1-43.8-27.2-26.1 0-47.2 19.5-47.3 43.5 0 6.2 1.4 12 4 17.4-15.4 3.1-26.8 13.6-26.8 26.1 0 15 16.3 27.1 36.5 27.2 9 0 17.2-2.5 23.6-6.5 10.7 5.9 25 9.5 40.9 9.5 16 0 30.5-3.6 41.2-9.6 6.3 4.1 15.3 6.7 25.4 6.7 18.8 0 34.1-8.9 34.1-19.9 0-7.1-6.3-13.3-15.8-16.9z"/>
					<g id="&lt;Group&gt;">
						<path id="&lt;Path&gt;" class="s4" d="m1042.2 136.2c19.8 0 36.7 11.3 43.8 27.2 6.5-6.9 15.3-10.4 23.7-8.5 10.5 2.5 17.1 13 17.1 25.3q2.8-0.5 5.8-0.5c13.5 0.1 24.8 7.8 27.7 18.1 0.5-1.7 0.8-3.4 0.8-5.2 0-12.9-12.7-23.4-28.5-23.4q-2.9 0-5.8 0.4c0-12.3-6.6-22.7-17.1-25.2-8.4-2-17.2 1.5-23.7 8.4-7-15.9-24-27.1-43.8-27.2-26.1 0-47.2 19.5-47.3 43.5q0.1 2.7 0.4 5.3c2.9-21.6 22.8-38.2 46.9-38.2z"/>
						<path id="&lt;Path&gt;" class="s4" d="m1158 213.7c7 2.6 12.3 6.7 14.5 11.5 0.8-1.6 1.3-3.4 1.3-5.2 0-6.3-5-11.9-12.8-15.6-0.2 3.3-1.3 6.5-3 9.3z"/>
						<path id="&lt;Path&gt;" class="s4" d="m998.8 197c-1.4-3-2.5-6.3-3.1-9.7-13.8 3.8-23.6 13.7-23.6 25.3q0 2.7 0.7 5.3c2.7-10.1 12.9-18.1 26-20.9z"/>
					</g>
				</g>
				<g id="&lt;Group&gt;">
					<path id="&lt;Path&gt;" class="s0" d="m1292.5 212c0-0.3-0.1-0.5-0.1-0.8 0-12.3 12.6-22.2 28.1-22.2 3.4 0 6.7 0.5 9.8 1.5 0-0.5-0.1-1-0.1-1.5 0-14.7 12.3-26.7 27.5-26.7 11.1 0.1 20.6 6.5 24.9 15.8 7.5-8.2 18.1-13.3 29.9-13.3 22.5 0 40.8 18.8 40.7 41.9 0 8.3-2.4 16.1-6.5 22.6 5.5 3.5 8.9 8.7 8.9 14.5 0 10.5-11.3 19-25.3 18.9-6.5 0-12.4-1.8-16.9-4.9-10.8 8.5-27.6 13.9-46.4 13.9-18.4-0.1-34.8-5.2-45.5-13.3-5.8 2.7-12.6 4.2-20 4.2-20.2 0-36.5-11.6-36.5-25.8 0-11.9 11.7-22 27.5-24.8z"/>
					<g id="&lt;Group&gt;">
						<path id="&lt;Path&gt;" class="s4" d="m1450.6 232.5q-1.5 4.2-3.9 8c3.6 2.3 6.4 5.4 7.8 8.9 0.7-1.8 1.1-3.6 1.1-5.6 0-4.3-1.8-8.2-5-11.3z"/>
						<path id="&lt;Path&gt;" class="s4" d="m1292.5 223.2c-0.1-0.3-0.1-0.5-0.1-0.8 0-12.3 12.6-22.2 28.1-22.2 3.4 0 6.7 0.5 9.8 1.4 0-0.4-0.1-0.9-0.1-1.4 0-14.7 12.3-26.7 27.5-26.7 11.1 0.1 20.6 6.5 24.9 15.8 7.5-8.2 18.1-13.3 29.9-13.3 20.7 0 37.7 15.8 40.4 36.3q0.3-2.8 0.3-5.6c0.1-23.1-18.2-41.9-40.7-41.9-11.8 0-22.4 5.1-29.9 13.3-4.3-9.3-13.8-15.7-24.9-15.8-15.2 0-27.5 12-27.5 26.7 0 0.5 0.1 1 0.1 1.5-3.1-1-6.4-1.5-9.8-1.5-15.5 0-28.1 9.9-28.1 22.2 0 0.3 0.1 0.5 0.1 0.8-15.8 2.8-27.5 12.9-27.5 24.8 0 2 0.3 3.8 0.9 5.6 3-9.4 13.3-16.8 26.6-19.2z"/>
					</g>
				</g>
			</g>
			<g id="&lt;Group&gt;">
				<path id="&lt;Path&gt;" class="s3" d="m404.7 257.9l-2.4 22.1 22.2 11.5-23.1 5.4-2.9 23.8-12.6-19.7-23.1 4 14.5-18.4-10.7-20.4 22.5 8.4z"/>
				<path id="&lt;Path&gt;" class="s3" d="m452 237.5l5.7 5.9 8.4-3.7-3.8 7.8 6.1 6.4-8.6-1-4.2 7.5-1.8-8.4-8.3-1.7 7.6-4.5z"/>
				<path id="&lt;Path&gt;" class="s3" d="m475 320.7l-1.5 13.4 13.5 7-14 3.2-1.7 14.4-7.7-11.9-14 2.4 8.8-11.1-6.4-12.3 13.6 5z"/>
				<path id="&lt;Path&gt;" class="s3" d="m145.4 318.3l5.7 5.8 8.4-3.6-3.8 7.8 6.1 6.3-8.6-1-4.1 7.5-1.9-8.3-8.3-1.8 7.6-4.4z"/>
				<path id="&lt;Path&gt;" class="s3" d="m119.5 357.9l-2.4 22.1 22.1 11.6-23 5.4-2.9 23.7-12.7-19.7-23 4.1 14.5-18.4-10.7-20.5 22.5 8.4z"/>
				<path id="&lt;Path&gt;" class="s3" d="m168.5 452.3l-1.5 13.4 13.5 6.9-14 3.3-1.7 14.4-7.7-12-14 2.5 8.8-11.1-6.4-12.4 13.6 5.1z"/>
				<path id="&lt;Path&gt;" class="s3" d="m140.8 52.5l5.8 5.8 8.4-3.6-3.8 7.8 6 6.3-8.5-1-4.2 7.5-1.9-8.4-8.2-1.7 7.6-4.4z"/>
				<path id="&lt;Path&gt;" class="s3" d="m91.8 87.2l-1.5 13.4 13.4 7-13.9 3.2-1.8 14.4-7.6-11.9-14 2.4 8.8-11.1-6.5-12.4 13.6 5.1z"/>
				<path id="&lt;Path&gt;" class="s3" d="m1127.5 319.3l-2.5 22.2 22.2 11.5-23 5.4-3 23.7-12.6-19.7-23.1 4.1 14.5-18.4-10.7-20.5 22.6 8.4z"/>
				<path id="&lt;Path&gt;" class="s3" d="m1058.3 276.8l-1.4 13.4 13.4 7-13.9 3.3-1.8 14.3-7.7-11.9-13.9 2.5 8.7-11.2-6.4-12.3 13.6 5z"/>
				<path id="&lt;Path&gt;" class="s3" d="m1021.7 411.3l5.7 5.8 8.4-3.6-3.8 7.8 6.1 6.3-8.5-1-4.2 7.6-1.9-8.4-8.3-1.7 7.6-4.5z"/>
				<path id="&lt;Path&gt;" class="s3" d="m1326.3 393.9l5.8 5.8 8.4-3.6-3.8 7.8 6 6.3-8.5-1-4.2 7.5-1.9-8.3-8.2-1.8 7.6-4.4z"/>
				<path id="&lt;Path&gt;" class="s3" d="m1412.2 295.3l-2.5 22.1 22.2 11.6-23 5.4-2.9 23.7-12.7-19.7-23.1 4.1 14.5-18.4-10.6-20.5 22.5 8.4z"/>
				<path id="&lt;Path&gt;" class="s3" d="m1407.8 449.2l-1.5 13.5 13.4 6.9-13.9 3.3-1.8 14.4-7.6-12-14 2.5 8.8-11.1-6.5-12.4 13.7 5z"/>
				<path id="&lt;Path&gt;" class="s3" d="m1385.8 46.6l-1.5 13.4 13.4 7-13.9 3.2-1.8 14.4-7.6-11.9-14 2.4 8.8-11.1-6.5-12.4 13.7 5.1z"/>
				<path id="&lt;Path&gt;" class="s3" d="m1439.2 94.8l5.7 5.8 8.4-3.6-3.8 7.7 6.1 6.4-8.5-1-4.2 7.5-1.9-8.4-8.3-1.7 7.6-4.4z"/>
			</g>
		</g>
		<g id="&lt;Clip Group&gt;" clip-path="url(#cp1)">
			<g id="&lt;Group&gt;">
				<g id="&lt;Group&gt;">
					<g id="&lt;Group&gt;">
						<path id="&lt;Path&gt;" class="s8" d="m94.6 911.7l-91.9-20.6-4.8 21.6c0 0 9.5 45.8 47 93.1l27.3 6.1 27.4 6.1c54-26.9 82.1-64.3 82.1-64.3l4.8-21.5z"/>
						<g id="&lt;Group&gt;">
							<path id="&lt;Path&gt;" class="s4" d="m265.6 755.1c-17.2-29.9-42.9-35.6-42.9-35.6l-39.7-8.9c-9.3 41.4-50.5 31.3-50.5 31.3 0 0-41.6-8.4-32.3-49.8l-39.8-8.9c0 0-25.6-5.7-54 14-27.5 19.3-43.5 29.4-43.5 29.4l35.7 58.4 31.7-17.2-32.4 144.9c0 0 63.7 18.5 47 93.1l27.3 6.1 27.4 6.1c16.6-74.6 82.1-64.3 82.1-64.3l32.4-144.9 21.3 29.1 57.1-37.7c0 0-10.1-16-26.9-45.1z"/>
							<g id="&lt;Group&gt;">
								<g id="&lt;Group&gt;">
									<path id="&lt;Path&gt;" class="s6" d="m130.8 749.9c0 0 49.3 12 60.3-37.5l-8.1-1.8c-9.3 41.4-50.5 31.3-50.5 31.3 0 0-41.6-8.4-32.3-49.8l-8.1-1.8c-11.1 49.5 38.7 59.6 38.7 59.6z"/>
									<path id="&lt;Path&gt;" class="s6" d="m-2.1 912.7c0 0 64.4 18.9 47 93.1l5.1 1.1c0 0 26.6-73.8-50.7-100.5z"/>
									<path id="&lt;Path&gt;" class="s6" d="m181.8 953.7c0 0-66.4-10.2-82.2 64.3l-5-1.2c0 0 7.3-78.1 88.6-69.4z"/>
								</g>
								<g id="&lt;Group&gt;">
									<path id="&lt;Path&gt;" class="s6" d="m-37.1 726.6l35.7 58.4 11.6-6.3-36.7-59z"/>
									<path id="&lt;Path&gt;" class="s6" d="m292.5 800.2l-57.1 37.7-7.8-10.7 58.3-37.7z"/>
								</g>
							</g>
							<path id="&lt;Path&gt;" class="s6" d="m98.2 835.9c-4.6-24.3 11-47.7 35.1-52.9-5.9-1.1-12.2-1.2-18.5 0-26.5 5.1-43.8 30.7-38.8 57.2 5.1 26.4 30.7 43.8 57.2 38.8 6.3-1.2 12-3.6 17.1-6.9-24.2 4.1-47.4-11.9-52.1-36.2z"/>
							<g id="&lt;Group&gt;" style="opacity: .1">
								<path id="&lt;Path&gt;" class="s10" d="m47.6 984.6c-0.2 6.5-1 13.5-2.7 21.2l27.3 6.1 27.4 6.1c16.6-74.6 82.1-64.3 82.1-64.3l29.5-131.7c-21.2 86.3-87.5 148.7-163.6 162.6z"/>
								<path id="&lt;Path&gt;" class="s10" d="m265.6 755.1c-17.2-29.9-42.9-35.6-42.9-35.6l-9.9-2.3c6.6 30 7.1 62.3 0.6 94.8l0.7-3.2 21.3 29.1 57.1-37.7c0 0-10.1-16-26.9-45.1z"/>
							</g>
						</g>
					</g>
					<path id="&lt;Path&gt;" class="s11" d="m71.4 698c-6 0.6-11.4 1.2-16.8 2-5.3 0.7-10.5 1.7-15.5 3l-1.9 0.5c-0.7 0.1-1.3 0.4-1.9 0.6-1.2 0.3-2.5 0.7-3.8 1.1-2.4 0.9-5 1.6-7.4 2.7-1.2 0.5-2.6 0.8-3.8 1.4q-1.8 0.9-3.8 1.7c-2.6 1-5 2.4-7.9 3.4 2.8-5.2 6.7-9.9 11.7-13.4 2.3-1.9 5-3.2 7.7-4.6 2.8-1.2 5.7-2.4 8.6-3.1 5.9-1.5 12-1.9 18-1.2 5.9 0.8 11.8 2.5 16.8 5.9z"/>
				</g>
				<g id="&lt;Group&gt;">
					<g id="&lt;Group&gt;">
						<g id="&lt;Group&gt;">
							<g id="&lt;Group&gt;">
								<g id="&lt;Group&gt;">
									<path id="&lt;Path&gt;" class="s4" d="m326.5 943.3c20.6-33.9 55.2-55.1 92.6-52.2 37.5 2.9 68.4 29.2 83.5 65.9l77.3 6c-15.8-84.5-76.8-149.5-154.3-155.6-77.5-6-147.8 48.9-176.5 129.9z"/>
									<path id="&lt;Path&gt;" class="s5" d="m326.5 943.3c20.6-33.9 55.2-55.1 92.6-52.2 37.5 2.9 68.4 29.2 83.5 65.9l64 5c-15.9-76.1-71.6-134.2-142.1-139.7-70.5-5.5-134.6 43.3-162.1 116z"/>
									<path id="&lt;Path&gt;" class="s6" d="m326.5 943.3c20.6-33.9 55.2-55.1 92.6-52.2 37.5 2.9 68.4 29.2 83.5 65.9l48.1 3.8c-16.1-66.2-65.5-116-127.6-120.9-62.1-4.8-118.7 36.8-144.7 99.7z"/>
									<path id="&lt;Path&gt;" class="s7" d="m326.5 943.3c20.6-33.9 55.2-55.1 92.6-52.2 37.5 2.9 68.4 29.2 83.5 65.9l33 2.6c-16-56.7-59.6-98.9-113.8-103.2-54.2-4.2-103.8 30.8-128.3 84.3z"/>
									<path id="&lt;Path&gt;" class="s8" d="m326.5 943.3c20.6-33.9 55.2-55.1 92.6-52.2 37.5 2.9 68.4 29.2 83.5 65.9l16.4 1.3c-15.7-46.6-52.8-80.6-98.6-84.2-45.7-3.5-87.7 24.3-110.4 67.9z"/>
								</g>
							</g>
							<path id="&lt;Path&gt;" class="s9" d="m519.1 849.2c-39.6 9.4-90.8 12.2-146 6.3-21.4-2.3-41.9-5.7-61.2-10.1-27.5 22.8-49.6 54.6-62.8 91.9l60.9 4.7 16.5 1.3c20.6-33.9 55.2-55.1 92.6-52.2 37.5 2.9 68.4 29.2 83.5 65.9l77.3 6c-8.5-45.7-30.3-85.7-60.8-113.8z"/>
						</g>
						<g id="&lt;Group&gt;">
							<g id="&lt;Group&gt;">
								<path id="&lt;Path&gt;" class="s0" d="m364.6 965.6c2.2-3.1 3.7-6.7 4.1-10.6 1.4-13.2-9.5-25.2-24.4-26.8q-2.8-0.3-5.5-0.1c1.3-12.6-3.8-24-13.5-27.6-7.7-2.9-16.4-0.1-23.3 6.3-4.9-17-19.7-30.2-38.4-32.2-24.6-2.6-46.7 15.2-49.3 39.9-0.7 6.3 0 12.5 1.8 18.2-14.9 1.7-26.7 11.3-28.1 24.1-1.6 15.4 12.5 29.5 31.6 31.5 8.5 0.9 16.5-0.8 22.9-4.2 9.5 7 22.7 12.1 37.6 13.7 15.1 1.6 29.3-0.7 40-5.7 5.5 4.8 13.7 8.4 23.2 9.4 17.8 1.9 33.2-5.8 34.4-17.1 0.8-7.2-4.5-14.2-13.1-18.8z"/>
								<g id="&lt;Group&gt;">
									<path id="&lt;Path&gt;" class="s4" d="m262.5 885.5c18.7 1.9 33.5 15.1 38.4 32.2 6.9-6.5 15.6-9.2 23.3-6.3 9.7 3.6 14.8 14.9 13.4 27.6q2.8-0.2 5.6 0.1c12.7 1.3 22.6 10.4 24.2 21.3q1-2.6 1.3-5.4c1.4-13.2-9.5-25.2-24.4-26.8q-2.8-0.3-5.5-0.1c1.3-12.6-3.8-24-13.5-27.6-7.7-2.9-16.4-0.1-23.3 6.3-4.9-17-19.7-30.2-38.4-32.2-24.6-2.6-46.7 15.2-49.3 39.9q-0.3 2.7-0.2 5.4c5-21.8 25.6-36.9 48.4-34.4z"/>
									<path id="&lt;Path&gt;" class="s4" d="m363.4 976.4c6.4 3.4 11 8.1 12.6 13.3 0.9-1.6 1.5-3.4 1.7-5.3 0.7-6.4-3.4-12.7-10.4-17.2-0.6 3.4-1.9 6.5-3.9 9.2z"/>
									<path id="&lt;Path&gt;" class="s4" d="m214.9 943.5c-1-3.3-1.7-6.8-1.9-10.3-13.4 2.6-23.7 11.7-25 23.6q-0.3 2.8 0.1 5.5c3.6-10 14.1-17.3 26.8-18.8z"/>
								</g>
							</g>
							<g id="&lt;Group&gt;">
								<path id="&lt;Path&gt;" class="s0" d="m467.5 958.9c0-0.3 0-0.6 0.1-0.9 1.4-13.1 15.5-22.3 31.6-20.6 3.6 0.4 7 1.3 10 2.6 0.1-0.5 0.1-1 0.1-1.5 1.7-15.7 15.8-27.1 31.5-25.4 11.6 1.2 20.8 9.1 24.2 19.5 8.6-8 20.3-12.3 32.5-11 23.4 2.5 40.3 24.5 37.7 49.2-1 8.9-4.3 16.9-9.3 23.4 5.2 4.3 8.2 10.2 7.6 16.4-1.2 11.2-13.9 19-28.4 17.4-6.8-0.7-12.7-3.3-17.1-7.1-12.1 7.9-30.1 11.8-49.8 9.7-19-2-35.5-9.3-45.7-19.1-6.3 2.2-13.6 3.1-21.3 2.3-20.9-2.2-36.6-16.3-35-31.4 1.3-12.8 14.6-22.2 31.3-23.5z"/>
								<g id="&lt;Group&gt;">
									<path id="&lt;Path&gt;" class="s4" d="m629.6 998q-2.1 4.3-5 8.1c3.5 2.9 6 6.5 7.1 10.4 0.9-1.8 1.6-3.8 1.8-5.9 0.5-4.5-1-8.9-3.9-12.6z"/>
									<path id="&lt;Path&gt;" class="s4" d="m466.3 970.8c0-0.3 0-0.6 0-0.9 1.4-13 15.5-22.3 31.6-20.5 3.6 0.3 7 1.3 10.1 2.6 0-0.5 0-1.1 0-1.6 1.7-15.7 15.8-27.1 31.6-25.4 11.5 1.2 20.7 9.1 24.1 19.5 8.7-7.9 20.3-12.2 32.5-10.9 21.5 2.3 37.5 21 37.9 43.1q0.7-2.9 1.1-5.9c2.6-24.7-14.3-46.7-37.7-49.2-12.2-1.3-23.9 3-32.5 11-3.4-10.4-12.6-18.3-24.2-19.5-15.7-1.7-29.8 9.7-31.5 25.4 0 0.5 0 1-0.1 1.5-3-1.3-6.4-2.2-10-2.6-16.1-1.7-30.2 7.5-31.6 20.6-0.1 0.3-0.1 0.6-0.1 0.9-16.7 1.3-30 10.7-31.3 23.5-0.2 2-0.1 4.1 0.3 6 4.1-9.7 15.7-16.5 29.8-17.6z"/>
								</g>
							</g>
						</g>
					</g>
					<g id="&lt;Group&gt;">
						<path id="&lt;Path&gt;" class="s0" d="m478.1 844.2l3.8 7.2 9.1-1-5.9 6.3 4 7.8-7.9-3.4-6.2 6 0.7-8.6-7.4-4 8.5-2.1z"/>
						<path id="&lt;Path&gt;" class="s0" d="m357.3 846.5l6.3 12 15-1.7-9.7 10.4 6.5 13-13-5.7-10.2 9.9 1.1-14.2-12.3-6.6 14.1-3.4z"/>
					</g>
				</g>
				<g id="&lt;Group&gt;">
					<g id="&lt;Group&gt;">
						<path id="&lt;Path&gt;" class="s5" d="m847.5 828.3c-25.3-2.7-50.3-9.5-73-21.1-13.2-6.7-26-14.9-37-24.9-1.8-1.7-3.7-3.4-5.4-5.3-1.3-1.5-3.6-0.7-4.2 1-6.9 19.9-20.4 37.4-34.1 53.1-11.8 13.5-24.7 26.2-38.2 38-2.7 2.4-5.4 4.8-8.2 7-2.5 2.1 1 5.7 3.5 3.7 8-6.6 15.7-13.7 23.2-20.9 15.4-14.8 30-30.8 42.2-48.4 5.8-8.5 11.1-17.5 14.9-27.2 4.7 4.7 10.1 8.9 15.4 12.8 16.4 12 35 21.1 54.3 27.4 15 4.9 30.7 8.1 46.4 9.8 3.2 0.4 3.4-4.6 0.2-5z"/>
						<g id="&lt;Group&gt;">
							<path id="&lt;Compound Path&gt;" fill-rule="evenodd" class="s5" d="m775.6 760.3c-2.3 4.1-6.4 7.2-10.4 9.6-4.6 2.7-9.7 4.8-14.7 6.6-6.2 2.2-12.6 4-19.1 5.2q0 0 0 0-0.1 0-0.2 0.1c-0.9 0.1-1.7-0.2-2.3-0.8-0.5-0.5-0.8-1.2-0.7-2.1q0-0.1 0-0.1 0-0.1 0.1-0.2 0 0 0-0.1 0-0.1 0.1-0.2c2.3-8.8 5.7-17.6 10-25.7 4.6-8.5 12.8-20.1 24-16.9 5.5 1.6 10.5 6.5 13.1 11.4 2.3 4.2 2.4 8.9 0.1 13.2zm-5.8-13c-2.7-3.6-7.1-7.5-11.9-7.1-3.8 0.3-7.3 3.6-9.8 6.7-3.3 4.1-5.9 8.9-8.1 13.7-2.2 5-4.2 10.1-5.8 15.4 5.5-1.3 11-2.9 16.3-4.8 4.6-1.7 9.1-3.7 13.2-6.3 3.1-1.9 6.6-4.7 7.9-7.8 1.5-3.4 0.5-6.6-1.8-9.8z"/>
							<path id="&lt;Compound Path&gt;" fill-rule="evenodd" class="s5" d="m675.5 770.9c0.1-5.6 2.4-12.2 6.6-16.1 8.5-7.9 21.1-1.2 29 4.3 7.5 5.2 14.5 11.6 20.6 18.4q0.1 0.1 0.1 0.2 0.1 0 0.1 0 0.1 0.1 0.1 0.2 0 0 0 0.1c0.6 0.7 0.6 1.5 0.4 2.2-0.2 0.7-0.8 1.4-1.8 1.7q0 0-0.1 0 0 0 0 0c-6.4 1.8-12.9 3.1-19.4 3.9-5.3 0.7-10.7 1.2-16.1 0.8-4.7-0.4-9.7-1.2-13.6-3.9-4-2.8-6-7-5.9-11.8zm8 7.2c2.6 2.1 6.9 3 10.6 3.4 4.8 0.4 9.8 0.2 14.6-0.4 5.6-0.6 11.2-1.6 16.7-3-3.8-4-7.9-7.7-12.1-11.2-4.1-3.2-8.6-6.4-13.4-8.6-3.6-1.6-8.3-2.9-11.8-1.5-4.5 1.8-6.6 7.2-7.3 11.7-0.7 3.8-0.1 7.2 2.7 9.6z"/>
						</g>
					</g>
					<g id="&lt;Group&gt;">
						<path id="&lt;Path&gt;" class="s3" d="m759.3 901.3c-38.4 9.1-76.9-2.2-104.1-26.9-4.3-3.9-11.1-1.4-11.9 4.3-1.9 14.7-1.1 30 3.1 45.3 15.7 57.6 73.9 94 132.7 82.8 64.8-12.4 105.6-76.2 90.5-139.8-3.4-14-9.1-26.8-16.8-38.1-3.2-4.7-10.5-3.9-12.6 1.5-13.1 34.3-42.4 61.7-80.9 70.9z"/>
						<path id="&lt;Path&gt;" class="s6" d="m809.6 932l-18.8 21.2 14.5 28.2-27.8-11.3-20.5 22.4 1.4-29.7-26.9-12.8 28.5-8.4 4-29 17.2 25.3z"/>
						<path id="&lt;Path&gt;" class="s9" d="m852.8 828.9c-1.8-2.7-5-3.6-7.7-2.8q1.1 3.6 2 7.4c16.1 67.7-25.7 135.6-93.4 151.7-24.2 5.7-48.4 4-70.3-3.6 25.8 21.6 60.6 31.9 95.7 25.2 64.8-12.4 105.6-76.2 90.5-139.8-3.4-14-9.1-26.8-16.8-38.1z"/>
					</g>
				</g>
				<g id="&lt;Group&gt;">
					<g id="&lt;Group&gt;">
						<g id="&lt;Group&gt;">
							<g id="&lt;Group&gt;">
								<path id="&lt;Path&gt;" class="s5" d="m901.2 874c0 0 2.9 66.4-8.3 78.7-11.3 12.3-43.5 27.7-27.8 51.6 15.7 23.9 90.1 4.6 107-32.7 16.9-37.3 13.7-97.3 13.7-97.3z"/>
								<g id="&lt;Clip Group&gt;" clip-path="url(#cp2)">
									<g id="&lt;Group&gt;">
										<path id="&lt;Path&gt;" class="s3" d="m1015.6 965.9c4.2 20.6-9 40.8-29.6 45.1-20.6 4.2-40.8-9-45-29.6-4.3-20.6 8.9-40.8 29.5-45.1 20.6-4.2 40.8 9 45.1 29.6z"/>
										<path id="&lt;Path&gt;" class="s3" d="m900.5 997c4.3 20.6-9 40.7-29.6 45-20.6 4.3-40.8-9-45-29.6-4.3-20.6 9-40.8 29.6-45 20.6-4.3 40.7 9 45 29.6z"/>
									</g>
								</g>
							</g>
							<path id="&lt;Path&gt;" class="s9" d="m976.3 874.2c-0.6 20.9-3.4 52.5-13.7 75.4-15.4 33.9-78.2 52.9-101.3 38.2-1.1 5-0.1 10.5 3.8 16.5 15.7 23.9 90.1 4.6 107-32.7 16.9-37.3 13.7-97.3 13.7-97.3z"/>
						</g>
						<g id="&lt;Group&gt;">
							<g id="&lt;Group&gt;">
								<path id="&lt;Path&gt;" class="s3" d="m1000.8 867.9c0.2 13-10.3 23.8-23.3 23.9l-67.8 1c-13 0.2-23.8-10.3-24-23.3l-0.2-10.6c-0.2-13 10.3-23.8 23.3-24l67.9-1c13-0.2 23.8 10.3 24 23.3z"/>
								<g id="&lt;Group&gt;">
									<g id="&lt;Group&gt;">
										<path id="&lt;Path&gt;" class="s12" d="m905.4 863.2c0.2 11.5-1.3 20.9-3.3 21-2 0-3.8-9.4-4-20.9-0.1-11.6 1.4-21 3.4-21 2-0.1 3.7 9.3 3.9 20.9z"/>
										<path id="&lt;Path&gt;" class="s12" d="m922 862.9c0.1 11.6-1.4 21-3.4 21-2 0.1-3.7-9.3-3.9-20.9-0.2-11.5 1.3-20.9 3.3-21 2 0 3.8 9.4 4 20.9z"/>
									</g>
									<g id="&lt;Group&gt;">
										<path id="&lt;Path&gt;" class="s12" d="m938.5 862.7c0.2 11.6-1.3 21-3.3 21-2 0-3.8-9.3-3.9-20.9-0.2-11.6 1.3-21 3.3-21 2 0 3.8 9.3 3.9 20.9z"/>
										<path id="&lt;Path&gt;" class="s12" d="m955.1 862.4c0.2 11.6-1.3 21-3.3 21-2.1 0.1-3.8-9.3-4-20.9-0.2-11.5 1.3-20.9 3.3-21 2.1 0 3.8 9.4 4 20.9z"/>
									</g>
									<g id="&lt;Group&gt;">
										<path id="&lt;Path&gt;" class="s12" d="m971.6 862.2c0.2 11.6-1.3 21-3.3 21-2 0-3.8-9.3-3.9-20.9-0.2-11.6 1.3-21 3.3-21 2 0 3.8 9.3 3.9 20.9z"/>
										<path id="&lt;Path&gt;" class="s12" d="m988.2 862c0.2 11.5-1.3 20.9-3.3 21-2 0-3.8-9.4-4-20.9-0.1-11.6 1.3-21 3.4-21 2-0.1 3.7 9.3 3.9 20.9z"/>
									</g>
								</g>
							</g>
							<path id="&lt;Path&gt;" class="s9" d="m978.7 834c2.8 3.8 4.4 8.4 4.5 13.4l0.2 10.7c0.2 13-10.3 23.8-23.3 24l-67.9 1q-1 0-2-0.1c4.3 6 11.5 10 19.5 9.8l67.8-1c13-0.1 23.5-10.9 23.3-23.9l-0.1-10.7c-0.2-12.3-9.9-22.4-22-23.2z"/>
						</g>
					</g>
					<g id="&lt;Group&gt;">
						<g id="&lt;Group&gt;">
							<g id="&lt;Group&gt;">
								<path id="&lt;Path&gt;" class="s5" d="m1018 845.4c0 0 29.9 59.3 24.6 75.2-5.2 15.8-28.3 43-4.1 58.4 24.1 15.4 84.1-32.7 84.2-73.6 0.1-41-27.4-94.4-27.4-94.4z"/>
								<g id="&lt;Clip Group&gt;" clip-path="url(#cp3)">
									<g id="&lt;Group&gt;">
										<path id="&lt;Path&gt;" class="s3" d="m1160 882.4c12.3 17 8.5 40.8-8.5 53.2-17.1 12.3-40.9 8.5-53.2-8.6-12.4-17-8.5-40.8 8.5-53.2 17.1-12.3 40.9-8.5 53.2 8.6z"/>
										<path id="&lt;Path&gt;" class="s3" d="m1067.7 957.8c12.4 17.1 8.6 40.9-8.5 53.2-17 12.4-40.9 8.5-53.2-8.5-12.3-17.1-8.5-40.9 8.5-53.2 17.1-12.4 40.9-8.5 53.2 8.5z"/>
									</g>
								</g>
							</g>
							<path id="&lt;Path&gt;" class="s9" d="m1086.6 814.8c8 19.3 18.4 49.2 18.4 74.4-0.1 37.2-49.7 80.3-76.8 76.3 1.1 5 4.2 9.6 10.3 13.5 24.1 15.4 84.1-32.7 84.2-73.6 0.1-41-27.4-94.4-27.4-94.4z"/>
						</g>
						<g id="&lt;Group&gt;">
							<g id="&lt;Group&gt;">
								<path id="&lt;Path&gt;" class="s3" d="m1106.4 798.9c5.5 11.8 0.3 26-11.4 31.5l-61.5 28.7c-11.8 5.5-26 0.3-31.5-11.5l-4.5-9.6c-5.5-11.8-0.3-25.9 11.5-31.4l61.4-28.7c11.8-5.5 26-0.4 31.5 11.4z"/>
								<g id="&lt;Group&gt;">
									<g id="&lt;Group&gt;">
										<path id="&lt;Path&gt;" class="s12" d="m1017.4 833.8c4.9 10.4 7.4 19.6 5.6 20.5-1.8 0.8-7.3-7-12.2-17.5-4.9-10.4-7.4-19.6-5.5-20.5 1.8-0.8 7.2 7 12.1 17.5z"/>
										<path id="&lt;Path&gt;" class="s12" d="m1032.4 826.8c4.9 10.4 7.4 19.6 5.6 20.5-1.8 0.8-7.3-7-12.2-17.5-4.9-10.5-7.4-19.6-5.5-20.5 1.8-0.8 7.2 7 12.1 17.5z"/>
									</g>
									<g id="&lt;Group&gt;">
										<path id="&lt;Path&gt;" class="s12" d="m1047.4 819.8c4.9 10.4 7.4 19.6 5.6 20.5-1.8 0.8-7.3-7-12.2-17.5-4.9-10.5-7.3-19.6-5.5-20.5 1.8-0.8 7.2 7 12.1 17.5z"/>
										<path id="&lt;Path&gt;" class="s12" d="m1062.4 812.7c4.9 10.5 7.4 19.7 5.6 20.6-1.8 0.8-7.3-7-12.2-17.5-4.9-10.5-7.3-19.6-5.5-20.5 1.8-0.8 7.2 7 12.1 17.4z"/>
									</g>
									<g id="&lt;Group&gt;">
										<path id="&lt;Path&gt;" class="s12" d="m1077.4 805.7c4.9 10.5 7.4 19.7 5.6 20.6-1.8 0.8-7.3-7-12.2-17.5-4.8-10.5-7.3-19.7-5.5-20.5 1.8-0.9 7.2 7 12.1 17.4z"/>
										<path id="&lt;Path&gt;" class="s12" d="m1092.4 798.7c4.9 10.5 7.4 19.7 5.6 20.6-1.8 0.8-7.3-7-12.1-17.5-4.9-10.5-7.4-19.7-5.6-20.5 1.8-0.9 7.2 7 12.1 17.4z"/>
									</g>
								</g>
							</g>
							<path id="&lt;Path&gt;" class="s9" d="m1072.3 777.1c4.1 2.3 7.5 5.9 9.6 10.4l4.6 9.7c5.5 11.8 0.3 25.9-11.5 31.4l-61.5 28.7q-0.9 0.4-1.9 0.8c6.5 3.7 14.6 4.4 21.9 1l61.5-28.7c11.7-5.5 16.9-19.7 11.4-31.5l-4.5-9.6c-5.2-11.2-18.2-16.4-29.6-12.2z"/>
						</g>
					</g>
				</g>
				<g id="&lt;Group&gt;">
					<path id="&lt;Path&gt;" class="s3" d="m1340.3 992.4l-90.8-17.7 32.3-165.7c1.4-7.2-2.6-14.1-8.9-15.3-6.3-1.3-12.6 3.6-14 10.9l-32.2 165.7-90.8-17.7c-7.2-1.4-14.1 2.6-15.3 8.9-1.3 6.3 3.6 12.6 10.9 14l204.4 39.7c7.2 1.4 14.1-2.6 15.3-8.8 1.2-6.3-3.7-12.6-10.9-14z"/>
					<g id="&lt;Group&gt;">
						<g id="&lt;Group&gt;">
							<path id="&lt;Path&gt;" class="s5" d="m1345.3 972.1c-2.2 11.3-13.4 18.6-25 16.4l-164.4-32c-11.6-2.2-19.2-13.3-17-24.5 2.2-11.3 13.4-18.7 25-16.4l164.4 32c11.5 2.2 19.2 13.3 17 24.5z"/>
							<path id="&lt;Path&gt;" class="s9" d="m1322.9 975.4l-164.4-32c-9.2-1.8-16-9.2-17.2-17.8-1.1 1.9-2 4.1-2.4 6.4-2.2 11.2 5.4 22.3 17 24.5l164.4 32c11.6 2.2 22.8-5.1 25-16.4 0.4-2.3 0.5-4.6 0.1-6.8-4.4 7.5-13.3 11.8-22.5 10.1z"/>
						</g>
						<g id="&lt;Group&gt;">
							<path id="&lt;Path&gt;" class="s6" d="m1334.9 927.6c-2.2 11.3-13.5 18.6-25 16.4l-130.3-25.3c-11.5-2.3-19.2-13.3-17-24.6 2.2-11.2 13.4-18.6 25-16.3l130.2 25.3c11.6 2.2 19.3 13.3 17.1 24.5z"/>
							<path id="&lt;Path&gt;" class="s9" d="m1312.4 930.9l-130.2-25.4c-9.2-1.8-15.9-9.1-17.2-17.7-1.1 1.9-2 4-2.4 6.3-2.2 11.3 5.5 22.3 17 24.6l130.3 25.3c11.5 2.2 22.8-5.1 25-16.4 0.4-2.3 0.4-4.5 0.1-6.8-4.4 7.5-13.4 11.9-22.6 10.1z"/>
						</g>
						<g id="&lt;Group&gt;">
							<path id="&lt;Path&gt;" class="s8" d="m1327.1 883.7c-2.2 11.2-13.5 18.6-25 16.3l-98.8-19.2c-11.5-2.2-19.2-13.3-17-24.5 2.2-11.3 13.4-18.6 25-16.4l98.7 19.2c11.6 2.3 19.3 13.3 17.1 24.6z"/>
							<path id="&lt;Path&gt;" class="s9" d="m1304.6 886.9l-98.7-19.2c-9.2-1.8-15.9-9.2-17.2-17.8-1.1 2-1.9 4.1-2.4 6.4-2.2 11.2 5.5 22.3 17 24.5l98.8 19.2c11.5 2.3 22.8-5.1 25-16.3 0.4-2.3 0.4-4.6 0.1-6.8-4.4 7.5-13.4 11.8-22.6 10z"/>
						</g>
						<g id="&lt;Group&gt;">
							<path id="&lt;Path&gt;" class="s7" d="m1319.3 839.7c-2.2 11.2-13.5 18.6-25 16.3l-67.2-13c-11.6-2.3-19.3-13.3-17.1-24.6 2.2-11.2 13.5-18.6 25-16.3l67.2 13c11.6 2.3 19.3 13.3 17.1 24.6z"/>
							<path id="&lt;Path&gt;" class="s9" d="m1296.8 842.9l-67.2-13.1c-9.2-1.8-15.9-9.1-17.2-17.7-1.1 1.9-1.9 4-2.4 6.3-2.2 11.3 5.5 22.3 17.1 24.6l67.2 13c11.5 2.3 22.8-5.1 25-16.3 0.4-2.3 0.4-4.6 0.1-6.8-4.4 7.5-13.4 11.8-22.6 10z"/>
						</g>
					</g>
				</g>
				<g id="&lt;Group&gt;">
					<g id="&lt;Group&gt;">
						<g id="&lt;Group&gt;">
							<g id="&lt;Group&gt;">
								<g id="&lt;Group&gt;">
									<path id="&lt;Path&gt;" class="s4" d="m1563.5 1015.2h-191v-267.1h191z"/>
									<g id="&lt;Clip Group&gt;" clip-path="url(#cp4)">
										<g id="&lt;Group&gt;">
											<g id="&lt;Group&gt;">
												<g id="&lt;Group&gt;">
													<g id="&lt;Group&gt;">
														<g id="&lt;Group&gt;">
															<path id="&lt;Path&gt;" class="s5" d="m1385 791.9l-1.5 13.9 13.9 7.2-14.4 3.4-1.9 14.9-7.9-12.4-14.5 2.6 9.1-11.5-6.7-12.8 14.2 5.2z"/>
															<path id="&lt;Path&gt;" class="s5" d="m1435.1 791.9l-1.5 13.9 13.9 7.2-14.4 3.4-1.8 14.9-8-12.4-14.4 2.6 9-11.5-6.6-12.8 14.1 5.2z"/>
														</g>
														<g id="&lt;Group&gt;">
															<path id="&lt;Path&gt;" class="s5" d="m1485.3 791.9l-1.6 13.9 13.9 7.2-14.4 3.4-1.8 14.9-8-12.4-14.4 2.6 9.1-11.5-6.7-12.8 14.1 5.2z"/>
															<path id="&lt;Path&gt;" class="s5" d="m1535.4 791.9l-1.5 13.9 13.8 7.2-14.4 3.4-1.8 14.9-7.9-12.4-14.5 2.6 9.1-11.5-6.7-12.8 14.1 5.2z"/>
														</g>
													</g>
													<g id="&lt;Group&gt;">
														<g id="&lt;Group&gt;">
															<path id="&lt;Path&gt;" class="s5" d="m1585.5 791.9l-1.5 13.9 13.9 7.2-14.4 3.4-1.9 14.9-7.9-12.4-14.5 2.6 9.1-11.5-6.7-12.8 14.1 5.2z"/>
															<path id="&lt;Path&gt;" class="s5" d="m1635.6 791.9l-1.5 13.9 13.9 7.2-14.4 3.4-1.9 14.9-7.9-12.4-14.5 2.6 9.1-11.5-6.6-12.8 14.1 5.2z"/>
														</g>
														<g id="&lt;Group&gt;">
															<path id="&lt;Path&gt;" class="s5" d="m1685.8 791.9l-1.6 13.9 13.9 7.2-14.4 3.4-1.8 14.9-8-12.4-14.4 2.6 9.1-11.5-6.7-12.8 14.1 5.2z"/>
															<path id="&lt;Path&gt;" class="s5" d="m1735.9 791.9l-1.6 13.9 13.9 7.2-14.4 3.4-1.8 14.9-7.9-12.4-14.5 2.6 9.1-11.5-6.7-12.8 14.1 5.2z"/>
														</g>
													</g>
												</g>
												<g id="&lt;Group&gt;">
													<g id="&lt;Group&gt;">
														<g id="&lt;Group&gt;">
															<path id="&lt;Path&gt;" class="s5" d="m1411 851.9l-1.5 13.9 13.9 7.2-14.4 3.4-1.9 14.9-7.9-12.4-14.5 2.6 9.1-11.5-6.7-12.8 14.2 5.2z"/>
															<path id="&lt;Path&gt;" class="s5" d="m1461.1 851.9l-1.5 13.9 13.9 7.2-14.4 3.4-1.8 14.9-8-12.4-14.4 2.6 9-11.5-6.6-12.8 14.1 5.2z"/>
														</g>
														<g id="&lt;Group&gt;">
															<path id="&lt;Path&gt;" class="s5" d="m1511.3 851.9l-1.6 13.9 13.9 7.2-14.4 3.4-1.8 14.9-8-12.4-14.4 2.6 9.1-11.5-6.7-12.8 14.1 5.2z"/>
															<path id="&lt;Path&gt;" class="s5" d="m1561.4 851.9l-1.5 13.9 13.8 7.2-14.4 3.4-1.8 14.9-7.9-12.4-14.5 2.6 9.1-11.5-6.7-12.8 14.1 5.2z"/>
														</g>
													</g>
													<g id="&lt;Group&gt;">
														<g id="&lt;Group&gt;">
															<path id="&lt;Path&gt;" class="s5" d="m1611.5 851.9l-1.5 13.9 13.9 7.2-14.4 3.4-1.9 14.9-7.9-12.4-14.5 2.6 9.1-11.5-6.7-12.8 14.1 5.2z"/>
															<path id="&lt;Path&gt;" class="s5" d="m1661.6 851.9l-1.5 13.9 13.9 7.2-14.4 3.4-1.9 14.9-7.9-12.4-14.5 2.6 9.1-11.5-6.6-12.8 14.1 5.2z"/>
														</g>
														<g id="&lt;Group&gt;">
															<path id="&lt;Path&gt;" class="s5" d="m1711.8 851.9l-1.6 13.9 13.9 7.2-14.4 3.4-1.8 14.9-8-12.4-14.4 2.6 9.1-11.5-6.7-12.8 14.1 5.2z"/>
															<path id="&lt;Path&gt;" class="s5" d="m1761.9 851.9l-1.6 13.9 13.9 7.2-14.4 3.4-1.8 14.9-7.9-12.4-14.5 2.6 9.1-11.5-6.7-12.8 14.1 5.2z"/>
														</g>
													</g>
												</g>
											</g>
											<g id="&lt;Group&gt;">
												<g id="&lt;Group&gt;">
													<g id="&lt;Group&gt;">
														<g id="&lt;Group&gt;">
															<path id="&lt;Path&gt;" class="s5" d="m1385 911.9l-1.5 13.9 13.9 7.2-14.4 3.4-1.9 14.9-7.9-12.4-14.5 2.6 9.1-11.5-6.7-12.8 14.2 5.2z"/>
															<path id="&lt;Path&gt;" class="s5" d="m1435.1 911.9l-1.5 13.9 13.9 7.2-14.4 3.4-1.8 14.9-8-12.4-14.4 2.6 9-11.5-6.6-12.8 14.1 5.2z"/>
														</g>
														<g id="&lt;Group&gt;">
															<path id="&lt;Path&gt;" class="s5" d="m1485.3 911.9l-1.6 13.9 13.9 7.2-14.4 3.4-1.8 14.9-8-12.4-14.4 2.6 9.1-11.5-6.7-12.8 14.1 5.2z"/>
															<path id="&lt;Path&gt;" class="s5" d="m1535.4 911.9l-1.5 13.9 13.8 7.2-14.4 3.4-1.8 14.9-7.9-12.4-14.5 2.6 9.1-11.5-6.7-12.8 14.1 5.2z"/>
														</g>
													</g>
													<g id="&lt;Group&gt;">
														<g id="&lt;Group&gt;">
															<path id="&lt;Path&gt;" class="s5" d="m1585.5 911.9l-1.5 13.9 13.9 7.2-14.4 3.4-1.9 14.9-7.9-12.4-14.5 2.6 9.1-11.5-6.7-12.8 14.1 5.2z"/>
															<path id="&lt;Path&gt;" class="s5" d="m1635.6 911.9l-1.5 13.9 13.9 7.2-14.4 3.4-1.9 14.9-7.9-12.4-14.5 2.6 9.1-11.5-6.6-12.8 14.1 5.2z"/>
														</g>
														<g id="&lt;Group&gt;">
															<path id="&lt;Path&gt;" class="s5" d="m1685.8 911.9l-1.6 13.9 13.9 7.2-14.4 3.4-1.8 14.9-8-12.4-14.4 2.6 9.1-11.5-6.7-12.8 14.1 5.2z"/>
															<path id="&lt;Path&gt;" class="s5" d="m1735.9 911.9l-1.6 13.9 13.9 7.2-14.4 3.4-1.8 14.9-7.9-12.4-14.5 2.6 9.1-11.5-6.7-12.8 14.1 5.2z"/>
														</g>
													</g>
												</g>
												<g id="&lt;Group&gt;">
													<g id="&lt;Group&gt;">
														<g id="&lt;Group&gt;">
															<path id="&lt;Path&gt;" class="s5" d="m1411 971.9l-1.5 13.9 13.9 7.2-14.4 3.4-1.9 14.9-7.9-12.4-14.5 2.6 9.1-11.5-6.7-12.8 14.2 5.2z"/>
															<path id="&lt;Path&gt;" class="s5" d="m1461.1 971.9l-1.5 13.9 13.9 7.2-14.4 3.4-1.8 14.9-8-12.4-14.4 2.6 9-11.5-6.6-12.8 14.1 5.2z"/>
														</g>
														<g id="&lt;Group&gt;">
															<path id="&lt;Path&gt;" class="s5" d="m1511.3 971.9l-1.6 13.9 13.9 7.2-14.4 3.4-1.8 14.9-8-12.4-14.4 2.6 9.1-11.5-6.7-12.8 14.1 5.2z"/>
															<path id="&lt;Path&gt;" class="s5" d="m1561.4 971.9l-1.5 13.9 13.8 7.2-14.4 3.4-1.8 14.9-7.9-12.4-14.5 2.6 9.1-11.5-6.7-12.8 14.1 5.2z"/>
														</g>
													</g>
													<g id="&lt;Group&gt;">
														<g id="&lt;Group&gt;">
															<path id="&lt;Path&gt;" class="s5" d="m1611.5 971.9l-1.5 13.9 13.9 7.2-14.4 3.4-1.9 14.9-7.9-12.4-14.5 2.6 9.1-11.5-6.7-12.8 14.1 5.2z"/>
															<path id="&lt;Path&gt;" class="s5" d="m1661.6 971.9l-1.5 13.9 13.9 7.2-14.4 3.4-1.9 14.9-7.9-12.4-14.5 2.6 9.1-11.5-6.6-12.8 14.1 5.2z"/>
														</g>
														<g id="&lt;Group&gt;">
															<path id="&lt;Path&gt;" class="s5" d="m1711.8 971.9l-1.6 13.9 13.9 7.2-14.4 3.4-1.8 14.9-8-12.4-14.4 2.6 9.1-11.5-6.7-12.8 14.1 5.2z"/>
															<path id="&lt;Path&gt;" class="s5" d="m1761.9 971.9l-1.6 13.9 13.9 7.2-14.4 3.4-1.8 14.9-7.9-12.4-14.5 2.6 9.1-11.5-6.7-12.8 14.1 5.2z"/>
														</g>
													</g>
												</g>
											</g>
											<g id="&lt;Group&gt;">
												<g id="&lt;Group&gt;">
													<g id="&lt;Group&gt;">
														<g id="&lt;Group&gt;">
															<path id="&lt;Path&gt;" class="s5" d="m1385 1031.9l-1.5 13.9 13.9 7.2-14.4 3.4-1.9 14.9-7.9-12.4-14.5 2.6 9.1-11.5-6.7-12.8 14.2 5.2z"/>
															<path id="&lt;Path&gt;" class="s5" d="m1435.1 1031.9l-1.5 13.9 13.9 7.2-14.4 3.4-1.8 14.9-8-12.4-14.4 2.6 9-11.5-6.6-12.8 14.1 5.2z"/>
														</g>
														<g id="&lt;Group&gt;">
															<path id="&lt;Path&gt;" class="s5" d="m1485.3 1031.9l-1.6 13.9 13.9 7.2-14.4 3.4-1.8 14.9-8-12.4-14.4 2.6 9.1-11.5-6.7-12.8 14.1 5.2z"/>
															<path id="&lt;Path&gt;" class="s5" d="m1535.4 1031.9l-1.5 13.9 13.8 7.2-14.4 3.4-1.8 14.9-7.9-12.4-14.5 2.6 9.1-11.5-6.7-12.8 14.1 5.2z"/>
														</g>
													</g>
													<g id="&lt;Group&gt;">
														<g id="&lt;Group&gt;">
															<path id="&lt;Path&gt;" class="s5" d="m1585.5 1031.9l-1.5 13.9 13.9 7.2-14.4 3.4-1.9 14.9-7.9-12.4-14.5 2.6 9.1-11.5-6.7-12.8 14.1 5.2z"/>
															<path id="&lt;Path&gt;" class="s5" d="m1635.6 1031.9l-1.5 13.9 13.9 7.2-14.4 3.4-1.9 14.9-7.9-12.4-14.5 2.6 9.1-11.5-6.6-12.8 14.1 5.2z"/>
														</g>
														<g id="&lt;Group&gt;">
															<path id="&lt;Path&gt;" class="s5" d="m1685.8 1031.9l-1.6 13.9 13.9 7.2-14.4 3.4-1.8 14.9-8-12.4-14.4 2.6 9.1-11.5-6.7-12.8 14.1 5.2z"/>
															<path id="&lt;Path&gt;" class="s5" d="m1735.9 1031.9l-1.6 13.9 13.9 7.2-14.4 3.4-1.8 14.9-7.9-12.4-14.5 2.6 9.1-11.5-6.7-12.8 14.1 5.2z"/>
														</g>
													</g>
												</g>
												<g id="&lt;Group&gt;">
													<g id="&lt;Group&gt;">
														<g id="&lt;Group&gt;">
															<path id="&lt;Path&gt;" class="s5" d="m1411 1091.9l-1.5 13.9 13.9 7.2-14.4 3.4-1.9 14.9-7.9-12.4-14.5 2.6 9.1-11.5-6.7-12.8 14.2 5.2z"/>
															<path id="&lt;Path&gt;" class="s5" d="m1461.1 1091.9l-1.5 13.9 13.9 7.2-14.4 3.4-1.8 14.9-8-12.4-14.4 2.6 9-11.5-6.6-12.8 14.1 5.2z"/>
														</g>
														<g id="&lt;Group&gt;">
															<path id="&lt;Path&gt;" class="s5" d="m1511.3 1091.9l-1.6 13.9 13.9 7.2-14.4 3.4-1.8 14.9-8-12.4-14.4 2.6 9.1-11.5-6.7-12.8 14.1 5.2z"/>
															<path id="&lt;Path&gt;" class="s5" d="m1561.4 1091.9l-1.5 13.9 13.8 7.2-14.4 3.4-1.8 14.9-7.9-12.4-14.5 2.6 9.1-11.5-6.7-12.8 14.1 5.2z"/>
														</g>
													</g>
													<g id="&lt;Group&gt;">
														<g id="&lt;Group&gt;">
															<path id="&lt;Path&gt;" class="s5" d="m1611.5 1091.9l-1.5 13.9 13.9 7.2-14.4 3.4-1.9 14.9-7.9-12.4-14.5 2.6 9.1-11.5-6.7-12.8 14.1 5.2z"/>
															<path id="&lt;Path&gt;" class="s5" d="m1661.6 1091.9l-1.5 13.9 13.9 7.2-14.4 3.4-1.9 14.9-7.9-12.4-14.5 2.6 9.1-11.5-6.6-12.8 14.1 5.2z"/>
														</g>
														<g id="&lt;Group&gt;">
															<path id="&lt;Path&gt;" class="s5" d="m1711.8 1091.9l-1.6 13.9 13.9 7.2-14.4 3.4-1.8 14.9-8-12.4-14.4 2.6 9.1-11.5-6.7-12.8 14.1 5.2z"/>
															<path id="&lt;Path&gt;" class="s5" d="m1761.9 1091.9l-1.6 13.9 13.9 7.2-14.4 3.4-1.8 14.9-7.9-12.4-14.5 2.6 9.1-11.5-6.7-12.8 14.1 5.2z"/>
														</g>
													</g>
												</g>
											</g>
										</g>
									</g>
								</g>
								<path id="&lt;Path&gt;" class="s5" d="m1580.6 785.5h-225.2v-49.1h225.2z"/>
							</g>
							<path id="&lt;Path&gt;" class="s7" d="m1476 1015.2h-16v-278.8h16z"/>
						</g>
						<path id="&lt;Path&gt;" class="s9" d="m1563.5 827.9h-191v-42.4h191z"/>
					</g>
					<g id="&lt;Group&gt;">
						<path id="&lt;Path&gt;" class="s7" d="m1468 681.2c-25.9 0 0 55.2 0 55.2 0 0 25.9-55.2 0-55.2z"/>
						<path id="&lt;Path&gt;" class="s7" d="m1522.3 687.5c-17.4-19.3-54.3 48.9-54.3 48.9 0 0 71.6-29.6 54.3-48.9z"/>
						<path id="&lt;Path&gt;" class="s7" d="m1468 736.5c0 0 53.5 29.2 55.1 3.3 1.6-25.8-55.1-3.3-55.1-3.3z"/>
						<path id="&lt;Path&gt;" class="s7" d="m1468 736.4c0 0-36.9-68.2-54.3-48.9-17.3 19.3 54.3 48.9 54.3 48.9z"/>
						<path id="&lt;Path&gt;" class="s7" d="m1412.9 739.8c1.6 25.9 55.1-3.3 55.1-3.3 0 0-56.7-22.5-55.1 3.3z"/>
					</g>
				</g>
			</g>
		</g>
		<g id="&lt;Clip Group&gt;" clip-path="url(#cp5)">
			<g id="&lt;Group&gt;">
				<g id="&lt;Group&gt;">
					<g id="&lt;Group&gt;">
						<path id="&lt;Path&gt;" class="s4" d="m780.2 135.9l-30.2-23.7-30.2 23.7v-75h60.4z"/>
						<path id="&lt;Path&gt;" class="s9" d="m780.2 81.2h-60.4v-20.3h60.4z"/>
					</g>
					<g id="&lt;Group&gt;">
						<path id="&lt;Path&gt;" class="s5" d="m875.3 122.3l-33.7-18.4-25.9 28.3-12.3-74 59.6-9.9z"/>
						<path id="&lt;Path&gt;" class="s9" d="m866.4 68.3l-59.7 9.9-3.3-20 59.6-9.9z"/>
					</g>
					<g id="&lt;Group&gt;">
						<path id="&lt;Path&gt;" class="s6" d="m967.1 89.4l-36.8-10.9-19.4 33.1-27.6-69.8 56.3-22.1z"/>
						<path id="&lt;Path&gt;" class="s9" d="m947.1 38.6l-56.3 22.2-7.5-19 56.3-22.1z"/>
					</g>
					<g id="&lt;Group&gt;">
						<path id="&lt;Path&gt;" class="s7" d="m626.3 122.3l33.7-18.4 25.9 28.3 12.3-74-59.6-9.9z"/>
						<path id="&lt;Path&gt;" class="s9" d="m635.2 68.3l59.7 9.9 3.3-20-59.6-9.9z"/>
					</g>
					<g id="&lt;Group&gt;">
						<path id="&lt;Path&gt;" class="s8" d="m534.5 89.4l36.8-10.9 19.5 33.1 27.5-69.8-56.3-22.1z"/>
						<path id="&lt;Path&gt;" class="s9" d="m554.6 38.6l56.2 22.2 7.5-19-56.3-22.1z"/>
					</g>
				</g>
				<g id="&lt;Group&gt;">
					<path id="&lt;Path&gt;" class="s6" d="m500.2-10.6c8.2 5.7 17.1 10.7 25.9 15.5 22.9 12.5 46.9 23 71.4 31.7 34.4 12.1 70.1 20.6 106.3 24.8 43.7 5 88.1 3.7 131.3-4.5 51.7-9.7 101.2-29.3 146.4-56.1q9.3-5.5 18.3-11.4c2.7-1.8 0.2-6.1-2.5-4.4-45 29.4-94.6 51.6-147.1 63.7-43.3 9.9-88 12.8-132.2 9.1-36.9-3.1-73.3-10.9-108.5-22.4-25.8-8.5-50.9-19-75-31.7-7.3-3.8-14.6-7.8-21.6-12.1-3.3-2-6.5-4.3-9.8-6.3q-0.2-0.1-0.4-0.3c-2.7-1.8-5.2 2.5-2.5 4.4z"/>
				</g>
			</g>
		</g>
		<g id="&lt;Group&gt;">
			<g id="&lt;Group&gt;">
				<path id="&lt;Path&gt;" class="s0" d="m290.9 114.2l3.8 7.2 9-1-5.8 6.3 3.9 7.8-7.8-3.4-6.2 6 0.6-8.6-7.4-4 8.6-2.1z"/>
				<path id="&lt;Path&gt;" class="s0" d="m185.4 118.2l6.2 11.9 15-1.7-9.7 10.5 6.6 12.9-13.1-5.6-10.2 9.8 1.1-14.1-12.3-6.7 14.2-3.4z"/>
				<path id="&lt;Path&gt;" class="s0" d="m253.6 71.5l2.4 4.5 5.6-0.7-3.7 3.9 2.5 4.9-4.9-2.1-3.8 3.7 0.4-5.3-4.6-2.5 5.3-1.3z"/>
			</g>
			<g id="&lt;Group&gt;">
				<path id="&lt;Path&gt;" class="s0" d="m1145.7 84.2l3.8 7.2 9-1-5.8 6.4 3.9 7.8-7.8-3.4-6.2 5.9 0.6-8.5-7.4-4.1 8.6-2z"/>
				<path id="&lt;Path&gt;" class="s0" d="m1298.6 94.2l6.2 12 15.1-1.8-9.8 10.5 6.6 12.9-13-5.6-10.2 9.9 1-14.2-12.2-6.6 14.1-3.4z"/>
				<path id="&lt;Path&gt;" class="s0" d="m1190.1 131l2.4 4.5 5.6-0.7-3.7 3.9 2.5 4.9-4.9-2.1-3.8 3.6 0.4-5.2-4.6-2.5 5.3-1.3z"/>
			</g>
		</g>
	</g>
</svg>