<svg version="1.2" xmlns="http://www.w3.org/2000/svg" viewBox="0 0 790 552" width="790" height="552">
	<title>22110914_6568168-ai</title>
	<style>
		tspan { white-space:pre } 
		.s0 { fill: #ffffff } 
		.s1 { fill: #ffcccc } 
		.s2 { fill: #fa7070 } 
		.t3 { font-size: 47px;fill: #ffffff;font-weight: 800;font-family: "OpenSans-ExtraBold", "Open Sans" } 
		.s4 { fill: #c14d4d } 
		.s5 { fill: #ffbe2c } 
		.s6 { fill: #ff912e } 
		.s7 { fill: #b9efc6 } 
		.s8 { fill: #96cca1 } 
		.s9 { fill: #45334f } 
		.s10 { fill: #523025 } 
		.s11 { fill: #f0c7b2 } 
		.s12 { fill: #bd6f55 } 
		.s13 { fill: #f58e8e } 
		.s14 { fill: #c16b5b } 
		.s15 { fill: #000000 } 
		.s16 { opacity: .5;mix-blend-mode: multiply;fill: #ffa4a4 } 
		.s17 { fill: #f0ba9e } 
		.s18 { fill: #2f2336 } 
		.s19 { fill: #4f2020 } 
		.s20 { fill: #8e4136 } 
		.s21 { fill: #e1eff0 } 
	</style>
	<g id="OBJECTS">
		<g id="&lt;Group&gt;">
			<path id="&lt;Path&gt;" class="s0" d="m120.7 152.5c-12.5 84 20.9 171.4 78.4 231.5 57.6 60.1 136.8 94.4 217.5 105.8 55.3 7.8 112.7 5.3 165.5-13.7 52.8-19.1 100.7-55.4 129.3-105.5 28.5-50.1 35.9-114.2 14.1-167.9-23.5-57.7-77.9-97.7-136.2-113.1-41.2-10.9-83.4-9.8-124.6-21-69.7-19-132.3-73-207.1-65.4-78.1 7.9-125.4 72-136.9 149.3z"/>
			<g id="&lt;Group&gt;">
				<g id="&lt;Group&gt;">
					<path id="&lt;Path&gt;" class="s1" d="m525.5 487.3h-15.2v-362.9h15.2z"/>
					<path id="&lt;Path&gt;" class="s1" d="m556.9 487.3h-15.2v-362.9h15.2z"/>
					<path id="&lt;Path&gt;" class="s1" d="m715.5 487.3h-15.2v-362.9h15.2z"/>
					<path id="&lt;Path&gt;" class="s1" d="m745.5 487.3h-15.2v-362.9h15.2z"/>
					<path id="&lt;Path&gt;" class="s1" d="m730.3 297.3h-229.4v-17.1h229.4z"/>
					<path id="&lt;Path&gt;" class="s1" d="m755.9 124.4h-255v-36.8l127.5-64.4 127.5 64.4z"/>
					<path id="&lt;Path&gt;" class="s1" d="m595.7 297.3l-151.7 190h-82v-38l56.2 0.2 124.3-152.2z"/>
				</g>
				<path id="&lt;Compound Path&gt;" fill-rule="evenodd" class="s1" d="m372.7 262.6c0 24.1-6.1 46.8-16.7 66.7q-2 3.8-4.3 7.5c-6.8 11.1-15.1 21.1-24.5 29.9v119.8h-6.3v-45.1h-180.9v45.1h-6.2v-119.8c-9.5-8.8-17.8-18.8-24.5-29.9q-2.3-3.7-4.3-7.5c-10.7-19.9-16.7-42.6-16.7-66.7 0-24.1 6-46.9 16.7-66.8q2-3.8 4.3-7.4c10.5-17.2 24.6-32 41.2-43.3q3.7-2.5 7.5-4.8c21.2-12.6 46-19.9 72.5-19.9 27 0 52.2 7.5 73.7 20.7q3.8 2.3 7.5 4.8c16.1 11.3 29.7 25.7 40 42.5q2.3 3.6 4.3 7.4c10.6 19.9 16.7 42.7 16.7 66.8zm-25.2-66.8h-35.8v63h53.4q0 0 0 0c-0.6-22.8-6.9-44.3-17.6-63zm-189.5 180.3c20.1 12.9 43.9 20.6 69.4 21.1v-60.4h-69.4zm0-109.8v63h69.4v-63zm69.4-7.4v-63.1h-69.4v63.1zm7.4 138.3q0 0 0 0c25.6-0.8 49.4-8.8 69.4-21.9v-38.5h-69.4zm69.4-67.9v-63h-69.4v63zm0-70.5v-63h-69.3v63zm7.4-103.6v33.2h31.2c-8.5-12.8-19-24-31.2-33.2zm-76.8-27.2q0 0 0 0v60.4h69.4v-38.5c-20.1-13.2-43.9-21.2-69.4-21.9zm-76.9 21.1v39.3h69.4v-60.5c-25.5 0.6-49.2 8.3-69.4 21.2zm-39.9 39.3h32.5v-34.2c-12.7 9.4-23.7 21-32.5 34.2zm-22.3 70.4q0 0 0 0h54.8v-63h-37.1c-10.7 18.7-17 40.2-17.7 63zm17.7 70.5h37.1v-63h-54.8c0.7 22.9 7 44.4 17.7 63zm37.1 41.6v-34.1h-32.5c8.8 13.2 19.8 24.8 32.5 34.1zm170.4 1.2c-3 2.5-6.1 4.9-9.3 7.1q-3.6 2.6-7.4 4.9c-21.6 13.1-46.8 20.7-73.8 20.7-26.5 0-51.3-7.3-72.5-20q-3.8-2.2-7.4-4.7c-3.7-2.5-7.2-5.2-10.6-8v63.1h181zm21.9-35.3h-31.2v33.1c12.2-9.2 22.7-20.4 31.2-33.1zm22.3-70.5h-53.5v63h35.8c10.7-18.7 17-40.2 17.7-63z"/>
			</g>
			<g id="&lt;Group&gt;">
				<g id="&lt;Group&gt;">
					<path id="&lt;Path&gt;" class="s2" d="m593 538h-126.1v-126.1h126.1z"/>
					<text id="C
" style="transform: matrix(2,0,0,2,495.169,506.141)" >
						<tspan x="0" y="0" class="t3">C
</tspan>
					</text>
					<path id="&lt;Path&gt;" class="s4" d="m631.8 538h-38.8v-126.1h38.8z"/>
				</g>
				<g id="&lt;Group&gt;">
					<path id="&lt;Path&gt;" class="s5" d="m751 538h-126.1v-126.1h126.1z"/>
					<text id="A
" style="transform: matrix(2,0,0,2,653.256,506.141)" >
						<tspan x="0" y="0" class="t3">A
</tspan>
					</text>
					<path id="&lt;Path&gt;" class="s6" d="m789.9 538h-38.9v-126.1h38.9z"/>
				</g>
				<g id="&lt;Group&gt;">
					<path id="&lt;Path&gt;" class="s7" d="m691.4 411.9h-126.1v-126.1h126.1z"/>
					<text id="B
" style="transform: matrix(2,0,0,2,595.953,382.583)" >
						<tspan x="0" y="0" class="t3">B
</tspan>
					</text>
					<path id="&lt;Path&gt;" class="s8" d="m730.3 411.9h-38.9v-126.1h38.9z"/>
				</g>
			</g>
			<g id="&lt;Group&gt;">
				<g id="&lt;Group&gt;">
					<path id="&lt;Path&gt;" class="s9" d="m84.6 493.6h-9.1v-373.8h9.1z"/>
					<path id="&lt;Path&gt;" class="s9" d="m103.3 493.6h-46.5v-14.5h46.5z"/>
					<path id="&lt;Path&gt;" class="s9" d="m92.2 479.1h-24.4l2.8-35.7h18.9z"/>
				</g>
				<path id="&lt;Path&gt;" class="s0" d="m104.2 119.8h-48.3l-7-72.5h62.3z"/>
				<path id="&lt;Path&gt;" class="s9" d="m95.6 131.4h-31.1v-11.7h31.1z"/>
				<path id="&lt;Path&gt;" class="s9" d="m105.9 121.5h-51.8v-3.5h51.8z"/>
				<path id="&lt;Path&gt;" class="s9" d="m115.5 47.3h-70.9l3.1-12.5h64.6z"/>
				<path id="&lt;Path&gt;" class="s9" d="m96.8 34.8h-33.5l1.5-5.8h30.5z"/>
			</g>
			<g id="&lt;Group&gt;">
				<path id="&lt;Path&gt;" class="s0" d="m30 159.2c-2.3-2.5-6.1-3.3-9.3-2.2-3.1 1.2-5.4 4.4-5.5 7.8-2.5-2.2-6.4-2.7-9.4-1.2-3 1.5-4.9 4.9-4.7 8.3 0.2 3.7 3 6.9 6.1 8.9 4.7 2.9 10.1 4.3 16.2 3.1v0.1q0.1-0.1 0.2-0.1 0.1-0.1 0.2-0.1v-0.1c4.9-3.6 7.6-8.6 8.6-14 0.7-3.7 0.2-7.8-2.4-10.5z"/>
				<path id="&lt;Path&gt;" class="s0" d="m480.3 3c-2.3-2.4-6.1-3.3-9.3-2.1-3.1 1.2-5.4 4.4-5.5 7.7-2.6-2.2-6.5-2.6-9.4-1.1-3 1.5-5 4.9-4.7 8.2 0.2 3.8 2.9 7 6.1 8.9 4.7 2.9 10.1 4.3 16.2 3.1v0.1q0.1 0 0.2-0.1 0.1 0 0.2 0l-0.1-0.1c5-3.7 7.7-8.6 8.7-14 0.7-3.7 0.1-7.8-2.4-10.6z"/>
				<path id="&lt;Path&gt;" class="s0" d="m32.8 385.1c0-3.4-2.1-6.6-5.2-7.9-3.1-1.3-7-0.6-9.4 1.8-0.3-3.4-2.8-6.4-6-7.3-3.2-1-7 0.1-9.1 2.7-2.4 2.9-2.6 7.1-1.7 10.7 1.4 5.3 4.4 10.1 9.6 13.4v0.1q0.1 0 0.2 0 0.1 0.1 0.2 0.1v-0.1c6.2 0.8 11.5-1 15.9-4.2 3.1-2.2 5.5-5.6 5.5-9.3z"/>
				<path id="&lt;Path&gt;" class="s0" d="m55.7 179.6c-0.4-1.7-1.8-3.2-3.5-3.5-1.8-0.3-3.7 0.5-4.6 2-0.6-1.7-2.2-3-3.9-3.1-1.8-0.2-3.6 0.8-4.4 2.4-0.9 1.7-0.5 3.9 0.3 5.7 1.3 2.5 3.4 4.6 6.4 5.7v0.1q0.1 0 0.1 0 0.1 0 0.1 0c3.2-0.3 5.8-1.8 7.7-3.9 1.3-1.5 2.2-3.5 1.8-5.4z"/>
				<path id="&lt;Path&gt;" class="s0" d="m407.1 7.1c-0.4-1.7-1.9-3.1-3.6-3.5-1.7-0.3-3.6 0.5-4.6 2-0.5-1.7-2.1-3-3.9-3.1-1.7-0.1-3.5 0.9-4.3 2.4-0.9 1.8-0.6 3.9 0.3 5.7 1.3 2.5 3.3 4.6 6.4 5.8q0 0 0.1 0 0 0 0.1 0c3.2-0.3 5.7-1.8 7.7-3.9 1.3-1.5 2.2-3.5 1.8-5.4z"/>
				<path id="&lt;Path&gt;" class="s0" d="m61.1 334.4c-0.3-1.7-1.8-3.1-3.5-3.4-1.7-0.4-3.6 0.4-4.6 1.9-0.5-1.7-2.1-2.9-3.9-3.1-1.7-0.1-3.5 0.9-4.3 2.4-0.9 1.8-0.6 4 0.3 5.7 1.3 2.6 3.3 4.7 6.4 5.8h-0.1q0.1 0 0.2 0 0 0.1 0.1 0.1v-0.1c3.2-0.3 5.7-1.7 7.6-3.9 1.4-1.4 2.3-3.4 1.8-5.4z"/>
				<path id="&lt;Path&gt;" class="s0" d="m116.5 419.8c-0.3-1.8-1.8-3.2-3.5-3.5-1.7-0.3-3.6 0.5-4.6 1.9-0.5-1.6-2.1-2.9-3.9-3.1-1.7-0.1-3.5 0.9-4.3 2.5-0.9 1.7-0.6 3.9 0.3 5.6 1.3 2.6 3.3 4.7 6.4 5.8l-0.1 0.1q0.1 0 0.2-0.1 0 0.1 0.1 0.1v-0.1c3.2-0.2 5.7-1.7 7.6-3.9 1.4-1.4 2.3-3.4 1.8-5.3z"/>
			</g>
			<g id="&lt;Group&gt;">
				<g id="&lt;Group&gt;">
					<g id="&lt;Group&gt;">
						<g id="&lt;Group&gt;">
							<g id="&lt;Group&gt;">
								<g id="&lt;Group&gt;">
									<path id="&lt;Path&gt;" class="s9" d="m389.4 334.4c-21.1 7.5-37.4-0.4-37.5-1.8-1-17.6 6.8-36.5 6.8-36.5l7.9-2.3 7.7 0.2 7.9 2.5c7.4 13.8 7.2 37.9 7.2 37.9z"/>
								</g>
							</g>
							<g id="&lt;Group&gt;">
								<path id="&lt;Path&gt;" class="s10" d="m395 254.8c-0.2-3.9-0.7-7.9-2.4-11.4-1.8-3.5-4.9-6.5-8.8-7.2-3.9-4.9-9.2-9.1-15.1-11.1-5.8-2.1-12.7-1.9-18 1.3-5.1 3.2-8.4 8.6-8.9 14.5-5 9.3-0.6 21.7-0.6 21.7l35.4 22.2c6.4-0.8 11.9-5.4 14.9-11.2 3-5.7 3.7-12.3 3.5-18.8z"/>
								<path id="&lt;Path&gt;" class="s11" d="m340.5 265.7q-0.1 2.5 0.1 4.6c0.6 7.6 3.1 12.4 6.8 15.8 2.5 2.4 5.3 3.8 7.8 5 3.2 1.5 6.1 2.8 7.2 4.7 4 2.6 12 1.7 14.7-0.3 1.8-10 6.9-12.5 8.9-17.1 0.7-1.7 1.2-2.8 1.5-3.2q0-0.2 0-0.2c0 0 5-17.5-1-30.6-7.4-16.4-37.7-13.5-42.5-1.2-2.6 6.5-3.4 16.6-3.5 22.5z"/>
								<path id="&lt;Path&gt;" class="s10" d="m343.1 243c8.7 1.8 17.8 1.8 26.5 0 0.2 3.8 3.5 7.2 7.3 7.5 0.3 7.8 4.7 15.3 11.3 19.3 2.1-5.3 3.1-11.3 2.2-16.9-0.9-5.6-3.6-11-7.8-14.8-3.9-3.5-9-5.7-14.2-6.4-5.3-0.8-10.6-0.3-15.7 1-2.4 0.6-4.8 1.5-6.7 3.1-1.9 1.6-3.5 4.8-2.9 7.2z"/>
								<g id="&lt;Group&gt;">
									<path id="&lt;Path&gt;" class="s12" d="m353.4 262.9q0.9-0.2 2.1 0.6c0.1 0.1 0.1 0.3 0 0.5-0.1 0.1-0.3 0.2-0.4 0.1q-0.9-0.7-1.5-0.5-0.7 0.2-0.4 1.6c0 0.2-0.1 0.4-0.2 0.5q-0.1 0-0.1 0 0 0 0 0c-0.2-0.1-0.3-0.2-0.3-0.3-0.4-1.8 0.2-2.3 0.8-2.5z"/>
									<path id="&lt;Path&gt;" class="s13" d="m340.6 264.5c-0.1 1.3 1.3 2.4 3.1 2.5 1.8 0.1 3.3-0.8 3.4-2.1 0.1-1.2-1.3-2.3-3.1-2.4-1.8-0.1-3.3 0.8-3.4 2z"/>
									<path id="&lt;Path&gt;" class="s13" d="m364.8 265.8c-0.1 1.2 1.3 2.3 3.1 2.4 1.8 0.2 3.3-0.8 3.4-2 0.1-1.2-1.3-2.3-3.1-2.4-1.8-0.1-3.3 0.8-3.4 2z"/>
									<path id="&lt;Path&gt;" class="s14" d="m352.8 270.2c1 0.8 2.3 1.2 3.6 1 1.3-0.2 2.3-1 3-2 0.5-0.7 1.5 0 1.1 0.7-0.9 1.3-2.3 2.2-3.8 2.5-1.7 0.3-3.4-0.2-4.6-1.2-0.7-0.5 0-1.6 0.7-1z"/>
									<g id="&lt;Group&gt;">
										<path id="&lt;Path&gt;" class="s15" d="m362 259.6c0 1.3 1 2.3 2.3 2.4 1.3 0 2.3-1 2.4-2.3 0-1.3-1-2.4-2.3-2.4-1.3 0-2.4 1-2.4 2.3z"/>
										<path id="&lt;Path&gt;" class="s0" d="m363 258.5c0 0.4 0.2 0.6 0.6 0.6 0.3 0 0.5-0.2 0.5-0.5 0-0.3-0.2-0.6-0.5-0.6-0.3 0-0.6 0.2-0.6 0.5z"/>
									</g>
									<g id="&lt;Group&gt;">
										<path id="&lt;Path&gt;" class="s15" d="m344.4 259.3c0 1.3 1.1 2.4 2.3 2.4 1.3 0 2.4-1 2.4-2.3 0-1.3-1-2.3-2.3-2.4-1.3 0-2.3 1-2.4 2.3z"/>
										<path id="&lt;Path&gt;" class="s0" d="m345.4 258.3c0 0.3 0.3 0.5 0.6 0.5 0.3 0 0.6-0.2 0.6-0.5 0-0.3-0.3-0.6-0.6-0.6-0.3 0-0.5 0.3-0.6 0.6z"/>
									</g>
								</g>
								<g id="&lt;Group&gt;">
									<path id="&lt;Path&gt;" class="s11" d="m394.2 276c-2.8 2.9-7 3.5-9.3 1.3-2.4-2.2-2-6.4 0.8-9.3 2.8-3 7-3.5 9.3-1.3 2.3 2.2 1.9 6.4-0.8 9.3z"/>
									<path id="&lt;Path&gt;" class="s12" d="m393.2 268.1c-1.1-0.7-2.6-0.7-3.9-0.2q-1.1 0.4-1.6 1.1c-0.5 0.6-0.7 1.4-0.5 2 0.2 0.6 0.6 1 1 1.4 0.3 0.2 0.6 0.5 0.7 0.7 0.2 0.5 0.1 1-0.2 1.4-0.4 0.3-0.9 0.4-1.4 0.2-0.2-0.2-0.5-0.1-0.6 0.2-0.2 0.2-0.1 0.5 0.2 0.7q0.4 0.2 0.8 0.2c0.6 0 1.3-0.2 1.7-0.6 0.7-0.6 0.8-1.7 0.4-2.5-0.2-0.5-0.6-0.8-0.9-1.1-0.3-0.3-0.6-0.6-0.7-0.9-0.1-0.3 0-0.7 0.3-1.1q0.1-0.2 0.4-0.3c0.5 0 1.1 0.2 1.4 0.6 0.3 0.4 0.5 0.9 0.3 1.5 0 0.2 0.2 0.5 0.4 0.6q0.1 0 0.1 0c0.3 0 0.5-0.2 0.5-0.4 0.2-0.8 0-1.7-0.5-2.4q-0.3-0.3-0.7-0.6c0.8-0.1 1.6 0 2.3 0.3 0.7 0.5 1.3 1.6 0.8 2.5-0.1 0.2 0 0.5 0.2 0.7 0.3 0.1 0.6 0 0.7-0.2 0.7-1.3 0.1-3-1.2-3.8z"/>
								</g>
							</g>
							<path id="&lt;Path&gt;" class="s11" d="m358.7 296.1c-13.4 3.3-24.7 20.5-24.7 20.5l-15.1 6.1 8.4 9.2c0 0 15.8-2.7 17.3-3.9 1.5-1.1 10-11.4 10-11.4z"/>
							<path id="&lt;Path&gt;" class="s11" d="m382.2 296.5c14.8 4.3 24.6 20.4 24.6 20.4l15.1 6.2-8.3 9.2c0 0-15.8-2.8-17.4-3.9-1.5-1.2-10-11.4-10-11.4z"/>
						</g>
						<path id="&lt;Path&gt;" class="s9" d="m358.7 296.1c-11.6 3.3-18.3 11.4-18.3 11.4 4.9 8.5 11.4 13.5 11.4 13.5l4.9-2.6z"/>
						<path id="&lt;Path&gt;" class="s9" d="m382.2 296.5c11.8 3.7 17.2 9.9 17.2 9.9-1.1 5.3-10 15.3-10 15.3l-6-6.4z"/>
					</g>
					<g id="&lt;Group&gt;">
						<g id="&lt;Group&gt;">
							<path id="&lt;Path&gt;" class="s2" d="m431.5 322.7v40.3c0 32.7-26.4 59.1-59.1 59.1h-98.2c-29.3 0-53.7-21.4-58.3-49.4q-0.7-4.7-0.8-9.7v-40.3z"/>
							<path id="&lt;Path&gt;" class="s16" d="m431.5 337.1v25.9c0 32.7-26.4 59.1-59.1 59.1h-98.2c-29.3 0-53.7-21.4-58.3-49.4 57.1 10.8 117.1 6.3 172-13 15.5-5.4 30.9-12.2 43.6-22.6z"/>
							<path id="&lt;Path&gt;" class="s5" d="m311.3 322.7v-111.1c-23.5 21.2-61.9 18.8-61.9 18.8z"/>
							<path id="&lt;Path&gt;" class="s5" d="m311.3 322.7l-61.9-92.2c-7.7 30.6-40.9 50.1-40.9 50.1z"/>
							<path id="&lt;Path&gt;" class="s5" d="m311.3 322.7l-102.8-42.1c10.7 29.7-6.1 64.4-6.1 64.4z"/>
							<path id="&lt;Path&gt;" class="s4" d="m311.3 325.2c-1.4 0-2.5-1.1-2.5-2.5v-111.1c0-1.3 1.1-2.4 2.5-2.4 1.3 0 2.5 1.1 2.5 2.4v111.1c0 1.4-1.2 2.5-2.5 2.5z"/>
							<path id="&lt;Path&gt;" class="s4" d="m312.5 324.2c-1.2 0.8-2.7 0.5-3.5-0.6l-61.8-92.3c-0.8-1.1-0.5-2.7 0.6-3.4 1.2-0.8 2.7-0.5 3.5 0.6l61.9 92.3c0.7 1.1 0.4 2.7-0.7 3.4z"/>
							<path id="&lt;Path&gt;" class="s4" d="m312.9 322.8c-0.5 1.2-1.9 1.8-3.2 1.3l-102.8-42.1c-1.2-0.5-1.8-2-1.3-3.2 0.5-1.3 1.9-1.9 3.2-1.4l102.8 42.1c1.2 0.6 1.9 2 1.3 3.3z"/>
							<path id="&lt;Path&gt;" class="s4" d="m312.5 321.3c0.3 1.3-0.6 2.7-1.9 2.9l-108.9 22.3c-1.3 0.3-2.6-0.6-2.9-1.9-0.3-1.4 0.6-2.7 2-3l108.8-22.2c1.3-0.3 2.6 0.6 2.9 1.9z"/>
							<path id="&lt;Path&gt;" class="s4" d="m318.4 321.3c0 4.2-3.3 7.5-7.4 7.5-4.2 0-7.5-3.3-7.5-7.5 0-4.1 3.3-7.5 7.5-7.5 4.1 0 7.4 3.4 7.4 7.5z"/>
						</g>
						<g id="&lt;Group&gt;">
							<path id="&lt;Path&gt;" class="s2" d="m284.4 525.3c0 14.3-11.6 25.9-25.9 25.9-14.4 0-26-11.6-26-25.9 0-14.3 11.6-25.9 26-25.9 14.3 0 25.9 11.6 25.9 25.9z"/>
							<path id="&lt;Path&gt;" class="s0" d="m275.1 525.3c0 9.2-7.4 16.6-16.6 16.6-9.2 0-16.7-7.4-16.7-16.6 0-9.2 7.5-16.6 16.7-16.6 9.2 0 16.6 7.4 16.6 16.6z"/>
							<path id="&lt;Path&gt;" class="s4" d="m272 525.3c0 7.5-6.1 13.6-13.5 13.6-7.5 0-13.6-6.1-13.6-13.6 0-7.5 6.1-13.6 13.6-13.6 7.4 0 13.5 6.1 13.5 13.6z"/>
						</g>
						<g id="&lt;Group&gt;">
							<path id="&lt;Path&gt;" class="s2" d="m413.4 525.3c0 14.3-11.6 25.9-25.9 25.9-14.3 0-25.9-11.6-25.9-25.9 0-14.3 11.6-25.9 25.9-25.9 14.3 0 25.9 11.6 25.9 25.9z"/>
							<path id="&lt;Path&gt;" class="s0" d="m404.1 525.3c0 9.2-7.4 16.6-16.6 16.6-9.2 0-16.6-7.4-16.6-16.6 0-9.2 7.4-16.6 16.6-16.6 9.2 0 16.6 7.4 16.6 16.6z"/>
							<path id="&lt;Path&gt;" class="s4" d="m401.1 525.3c0 7.5-6.1 13.6-13.6 13.6-7.5 0-13.5-6.1-13.5-13.6 0-7.5 6-13.6 13.5-13.6 7.5 0 13.6 6.1 13.6 13.6z"/>
						</g>
						<path id="&lt;Path&gt;" class="s9" d="m387.4 527.1c-1.1 0-2.1-0.7-2.5-1.8l-27.2-75.8-131.9-27.3c-1-0.2-1.8-1-2-2l-15.7-63.2c-0.4-1.4 0.5-2.9 1.9-3.2 1.5-0.4 2.9 0.5 3.3 1.9l15.3 61.6 131.6 27.3c0.9 0.2 1.7 0.8 2 1.7l27.7 77.2c0.5 1.4-0.2 2.9-1.6 3.4q-0.4 0.2-0.9 0.2z"/>
						<path id="&lt;Path&gt;" class="s9" d="m258.2 527.8q-0.4 0-0.9-0.2c-1.4-0.5-2.1-2-1.6-3.4l29.2-77.9c0.4-0.9 1.1-1.5 2-1.7l131.7-27.3 15.3-61.6c0.3-1.4 1.8-2.3 3.2-1.9 1.4 0.3 2.3 1.8 1.9 3.2l-15.7 63.2c-0.2 1-1 1.8-2 2l-131.9 27.3-28.7 76.5c-0.4 1.1-1.4 1.8-2.5 1.8z"/>
						<path id="&lt;Path&gt;" class="s9" d="m434.1 369q-0.3 0-0.7-0.1c-1.5-0.3-2.5-1.9-2.1-3.4l24.3-105.4c0.3-1.2 1.3-2.1 2.6-2.2l15.7-1.2c1.6-0.1 3 1.1 3.1 2.6 0.1 1.6-1.1 3-2.6 3.1l-13.7 1-23.8 103.4c-0.3 1.3-1.5 2.2-2.8 2.2z"/>
						<path id="&lt;Path&gt;" class="s9" d="m327 372.6c-66 0-114.9-2.6-115.6-2.6-1.5-0.1-2.7-1.4-2.6-2.9 0.1-1.5 1.4-2.6 2.9-2.5 1.1 0 110.8 5.7 223.8 0 1.5-0.1 2.7 1.1 2.8 2.5 0.1 1.5-1.1 2.8-2.6 2.9-37.9 1.9-75.5 2.6-108.7 2.6z"/>
						<path id="&lt;Path&gt;" class="s9" d="m326.8 398.1c-62.7 0-109.2-2.5-109.9-2.5-1.4-0.1-2.5-1.3-2.4-2.7 0-1.4 1.3-2.5 2.7-2.4 1 0 105.4 5.4 212.8 0 1.4-0.1 2.6 1 2.7 2.4 0 1.4-1.1 2.6-2.5 2.7-36 1.9-71.8 2.5-103.4 2.5z"/>
					</g>
					<g id="&lt;Group&gt;">
						<path id="&lt;Path&gt;" class="s11" d="m318.2 320.1c-1.8 1.3-2.6 7.1-1.2 7.6 1.4 0.6 3.7-4 3.7-4 0 0-1.3 6.6 0.8 7.1 2 0.6 3.5-6.8 3.5-6.8 0 0-0.9 7.3 1.1 7.8 1.9 0.4 3-7.2 3-7.2 0 0-0.3 5.9 1.3 6 2.5 0.3 2.3-7.1 2.9-7.8-2.4-3.9-11.1-5.5-15.1-2.7z"/>
						<path id="&lt;Path&gt;" class="s11" d="m424.1 321.7c1.6 1.6 1.5 7.4 0 7.7-1.4 0.4-3-4.6-3-4.6 0 0 0.2 6.8-1.9 7-2.1 0.2-2.3-7.3-2.3-7.3 0 0-0.4 7.3-2.4 7.4-2 0.2-1.9-7.5-1.9-7.5 0 0-0.6 5.8-2.2 5.7-2.5-0.2-1.1-7.4-1.6-8.2 3.1-3.5 11.8-3.6 15.3-0.2z"/>
					</g>
				</g>
				<g id="&lt;Group&gt;">
					<g id="&lt;Group&gt;">
						<g id="&lt;Group&gt;">
							<path id="&lt;Path&gt;" class="s7" d="m507.6 546.6l-0.1 0.5q0 0 0 0 0 0.5-0.1 1-0.1 0.6-0.2 1.1 0 0.2-0.1 0.5 0 0 0 0-0.1 0.5-0.2 1 0 0 0 0.1l-0.1 0.4-74.5-0.3q0 0 0-0.3c-0.1-0.3-0.1-0.9-0.1-1.7 0-0.6 0.1-1.3 0.2-2.1q0 0 0 0 0 0 0 0c0-0.2 0.1-0.4 0.1-0.5 0.8-4.2 3.9-10 14.1-11.8 0.5-0.1 1-0.2 1.6-0.3 0.8-0.1 1.6-0.2 2.5-0.2q0.4-0.1 0.8-0.1 3.2-0.2 6.1-0.6 1.4-0.2 2.8-0.5 1.6-0.2 3.1-0.5 1.5-0.4 2.8-0.7 1.3-0.3 2.4-0.7 1.6-0.4 2.9-0.9 1.7-0.5 3-1.1 1.6-0.6 2.8-1.2c2.4-1.2 3.6-2.1 3.6-2.1q0 0 0 0c1 0.2 12.2 2.3 22.9 0.1 0 0 0.8 1.4 1.7 3.9q0.1 0.2 0.2 0.4 0.2 0.8 0.5 1.6 0.3 1 0.5 2.1 0.1 0.2 0.1 0.4 0.1 0.4 0.2 0.9c0 0.1 0.1 0.2 0.1 0.3 0 0.1 0 0.1 0 0.2q0.5 2.3 0.6 5c0.1 1.9 0.1 3.9-0.2 6.1z"/>
							<path id="&lt;Path&gt;" class="s0" d="m473.6 526.2c0.2-0.3 0.6-0.4 0.9-0.4 0.4 0 0.7 0.2 0.9 0.4q0.4 0.2 0.7 0.5 1.4 1.1 3 2.2c0.2 0.2 0.5 0.4 0.6 0.8 0 0.3 0 0.7-0.2 1-0.3 0.6-1.2 0.9-1.8 0.5q-2.1-1.5-4.1-3.1c-0.3-0.2-0.4-0.7-0.4-1 0-0.3 0.1-0.7 0.4-0.9z"/>
							<path id="&lt;Path&gt;" class="s0" d="m468.3 528.5c0.5-0.4 1.4-0.5 1.9 0q1.4 1.7 3.2 3.1 0.3 0.3 0.6 0.5c0.2 0.2 0.5 0.4 0.6 0.8 0.1 0.3 0 0.7-0.2 1-0.3 0.5-1.2 0.9-1.8 0.5-1.6-1.2-3.1-2.5-4.3-4-0.3-0.3-0.4-0.6-0.4-0.9 0-0.4 0.1-0.7 0.4-1z"/>
							<path id="&lt;Path&gt;" class="s0" d="m463.4 530.2c0.3-0.2 0.6-0.4 1-0.4 0.3 0.1 0.7 0.2 0.9 0.4l3 3.9c0.2 0.3 0.4 0.6 0.4 1 0 0.3-0.2 0.7-0.4 0.9-0.3 0.3-0.6 0.4-0.9 0.4-0.4 0-0.8-0.1-1-0.4l-3-3.9c-0.2-0.3-0.4-0.5-0.4-0.9 0-0.4 0.2-0.7 0.4-1z"/>
							<path id="&lt;Path&gt;" class="s0" d="m458 531.5c0.7-0.4 1.5-0.2 1.9 0.5q0.9 1.7 1.9 3.3c0.4 0.7 0.2 1.6-0.4 1.9-0.7 0.4-1.5 0.2-1.8-0.5q-1-1.7-2-3.3c-0.4-0.6-0.2-1.6 0.4-1.9z"/>
							<path id="&lt;Path&gt;" class="s8" d="m507.6 547.1q-0.2 1-0.4 2.1-0.2 1-0.4 2l-74.5-0.3c0 0-0.1-0.7-0.1-2 0-0.6 0.1-1.3 0.2-2.1z"/>
						</g>
						<g id="&lt;Group&gt;">
							<path id="&lt;Path&gt;" class="s7" d="m616.8 484.9l0.3 0.5q0 0 0 0 0.3 0.4 0.6 0.8 0.3 0.5 0.6 1 0.1 0.2 0.2 0.3 0 0.1 0 0.1 0.3 0.4 0.6 0.9 0 0 0 0l0.2 0.4-55.1 50.2q0 0-0.2-0.2c-0.2-0.2-0.7-0.6-1.2-1.2-0.4-0.5-0.8-1-1.2-1.7q-0.1 0-0.1 0 0 0 0 0c-0.1-0.2-0.2-0.3-0.2-0.5-2.3-3.6-3.9-10 2.4-18.2 0.2-0.4 0.6-0.8 0.9-1.2l0.1-0.1c0.5-0.6 1-1.2 1.6-1.8q0.3-0.3 0.6-0.6 2.2-2.4 4-4.6 1-1.1 1.8-2.2 1-1.3 1.9-2.6 0.9-1.2 1.6-2.4 0.8-1 1.4-2.1 0.8-1.3 1.5-2.5 0.8-1.6 1.4-3 0.7-1.5 1.2-2.7c1-2.5 1.3-4 1.3-4q0 0 0 0c0.8-0.5 10.6-6.6 16.9-15.4 0 0 1.5 0.5 3.9 1.7q0.2 0.1 0.4 0.2 0.7 0.4 1.5 0.8 0.8 0.6 1.8 1.2 0.1 0.1 0.3 0.2 0.4 0.3 0.8 0.6c0.1 0 0.2 0.1 0.2 0.2 0.1 0 0.1 0 0.2 0.1q1.9 1.4 3.8 3.3c1.4 1.3 2.7 2.8 4 4.5z"/>
							<path id="&lt;Path&gt;" class="s0" d="m577.9 493c0-0.4 0.2-0.7 0.4-1 0.3-0.2 0.6-0.3 1-0.3q0.4 0 0.8-0.1 1.8-0.1 3.7-0.4c0.3 0 0.7 0 1 0.2 0.2 0.2 0.5 0.5 0.6 0.9 0.1 0.6-0.3 1.5-1.1 1.6q-2.5 0.3-5.1 0.5c-0.3 0-0.7-0.3-1-0.5-0.2-0.2-0.3-0.6-0.3-0.9z"/>
							<path id="&lt;Path&gt;" class="s0" d="m575.6 498.3c0.1-0.7 0.7-1.4 1.4-1.3q2.2 0.3 4.5 0.1 0.3 0 0.7-0.1c0.3 0 0.7 0 1 0.2 0.2 0.2 0.5 0.5 0.6 0.8 0.1 0.7-0.3 1.5-1.1 1.6-1.9 0.3-3.9 0.3-5.8 0.1-0.4-0.1-0.7-0.2-1-0.5-0.2-0.2-0.3-0.6-0.3-0.9z"/>
							<path id="&lt;Path&gt;" class="s0" d="m573.2 502.8c0-0.3 0.1-0.7 0.4-0.9 0.3-0.2 0.6-0.4 1-0.4l4.8 0.9c0.4 0 0.7 0.1 0.9 0.4 0.3 0.3 0.4 0.6 0.4 1 0 0.3-0.2 0.7-0.5 0.9-0.2 0.2-0.6 0.4-0.9 0.3l-4.9-0.8c-0.3-0.1-0.6-0.1-0.9-0.4-0.2-0.3-0.4-0.7-0.3-1z"/>
							<path id="&lt;Path&gt;" class="s0" d="m570 507.4c0.3-0.7 1-1.1 1.7-0.9q1.9 0.6 3.8 1.2c0.7 0.1 1.2 0.9 0.9 1.6-0.2 0.7-1 1.1-1.7 0.9q-1.8-0.6-3.7-1.2c-0.7-0.1-1.2-0.9-1-1.6z"/>
							<path id="&lt;Path&gt;" class="s8" d="m617.1 485.4q0.6 0.8 1.2 1.8 0.5 0.8 1 1.7l-55 50.2c0 0-0.7-0.5-1.5-1.4-0.4-0.5-0.8-1-1.3-1.7z"/>
						</g>
						<path id="&lt;Path&gt;" class="s17" d="m476.4 229.6c-7.8 56 4.6 296 4.6 296 0 0 11 4 22.9 0.1 0 0 9.3-127.2 6.9-138.5l24-157.6z"/>
						<path id="&lt;Path&gt;" class="s17" d="m529.8 371c0 0 24.6-85.8 25.3-141.4h-54.2c0 0-15.3 131.9-10.1 148.9 3.4 11.4 92.2 109 92.2 109 0 0 15.5-7.5 16.9-15.4 0 0-58.2-94.4-70.1-101.1z"/>
						<path id="&lt;Path&gt;" class="s9" d="m532.7 369.2c0 0 27.1-81.9 22.4-139.6l-79.1 2.5c-9.4 99.9-1.4 270-1.4 270 17 5.2 36.1 1.2 36.1 1.2l2.5-91.6 48.3 60.4c16-4.3 28.9-23.5 28.9-23.5z"/>
						<path id="&lt;Path&gt;" class="s18" d="m509.6 411.1c-6.4-7.3-13-14.8-16.2-24.1-3.5-10.2-2-21.4-1.3-31.9q1.1-17 2.2-33.9l2.1-33.6q1.1-17 2.2-33.9 0.2-2.1 0.3-4.2c0-0.2-0.4-0.2-0.4 0q-1.1 17.1-2.2 34.2l-2.2 34.1q-1.1 17.1-2.2 34.2c-0.4 5.6-0.9 11.1-1 16.7-0.2 5.3 0 10.7 1.3 15.8 2.5 9.3 8.6 17 14.8 24.2q1.1 1.4 2.3 2.7c0.2 0.2 0.5-0.1 0.3-0.3z"/>
					</g>
					<g id="&lt;Group&gt;">
						<path id="&lt;Path&gt;" class="s19" d="m560.1 81.7c-2.5-6.6-6.4-12.6-8.3-19.4-1.1-3.9-1.5-8-2.4-12-0.9-4-2.4-8-5.3-10.8-2.1-2-4.9-3.2-7.7-3.3-6.1-4.8-13.3-8.4-21.1-9.2-9-1-18.9 2.5-23.9 10.1-3.7 5.5-4.6 12.3-4.6 18.9 0 6.6 0.6 13.3-0.4 19.8-1.6 10-7.3 19.2-15.5 25.1-4 4.9-6.8 11.5-4.7 17.5 1.5 4.4 5.5 7.6 9.5 10.1 19.9 12.6 50.6 17.5 71 3 7.5-5.4 12.9-13.6 15.2-22.6 2.2-8.9 1.5-18.6-1.8-27.2z"/>
						<path id="&lt;Path&gt;" class="s17" d="m497.7 115.8c-16.4 4.5-30.7 67.5-30.7 67.5l-60.1-25.4-5.3 13.9c0 0 49 29.2 61.2 32.5 16.2 4.5 21.8 1.7 26.9-10.5 4.5-10.8 8-78 8-78z"/>
						<path id="&lt;Path&gt;" class="s7" d="m497.7 115.8c-16.4 3.7-28.2 42.5-28.2 42.5 10 7.4 25.5 5.6 25.5 5.6z"/>
						<g id="&lt;Group&gt;">
							<g id="&lt;Group&gt;">
								<g id="&lt;Group&gt;">
									<g id="&lt;Group&gt;">
										<g id="&lt;Group&gt;">
											<g id="&lt;Group&gt;">
												<g id="&lt;Group&gt;">
													<g id="&lt;Group&gt;">
														<g id="&lt;Group&gt;">
															<g id="&lt;Group&gt;">
																<g id="&lt;Group&gt;">
																	<g id="&lt;Group&gt;">
																		<g id="&lt;Group&gt;">
																			<g id="&lt;Group&gt;">
																				<g id="&lt;Group&gt;">
																					<g id="&lt;Group&gt;">
																						<g id="&lt;Group&gt;">
																							<g id="&lt;Group&gt;">
																								<g id="&lt;Group&gt;">
																									<g id="&lt;Group&gt;">
																										<g id="&lt;Group&gt;">
																											<g id="&lt;Group&gt;">
																												<path id="&lt;Path&gt;" class="s7" d="m557.2 230.2c-0.2 0-54.7 11.7-80.1 4.3q-1.3-0.4-2.5-0.7l12.9-65.2c-8.7-9.8 0.9-26.6 5.7-28.6l4.5-24.2 14.9-3.7 19.5 0.2 16.1 3.9 6.8 27.9-9.4 57.5c5.5 7.8 9.3 19.1 11.6 28.6z"/>
																											</g>
																										</g>
																									</g>
																								</g>
																							</g>
																						</g>
																					</g>
																				</g>
																			</g>
																		</g>
																	</g>
																</g>
															</g>
														</g>
													</g>
												</g>
											</g>
										</g>
									</g>
								</g>
							</g>
						</g>
						<path id="&lt;Path&gt;" class="s8" d="m534.3 154c0-0.3-0.4-0.3-0.4 0 0.1 2.7-0.4 5.5-1.6 8-1.1 2.3-2.7 4.3-4.7 5.9q-1.7 1.3-3.6 2.2c-0.3 0.1-0.1 0.4 0.2 0.3 4.9-2.1 8.5-6.6 9.7-11.8q0.5-2.3 0.4-4.6z"/>
						<g id="&lt;Group&gt;">
							<g id="&lt;Group&gt;">
								<path id="&lt;Path&gt;" class="s17" d="m491.7 77.8q0 0.2 0.1 0.4 0 0.2 0 0.4c0.9 7.4 3.7 12.1 7.5 15.5 2 1.8 3.9 3.2 5.5 4.4q0.8 0.6 1.5 1.1 0.6 0.5 1.1 0.9c3.7 3 5.8 6.4 5.5 16.1 3 8.4 15.5 10 19.9 0.7 0.3-11.7 2.9-21.8 5.1-28.3 0.6-1.6 1.1-3.1 1.6-4.2 0.8-2.2 1.5-3.4 1.5-3.4 0 0 0.3-25.8-3.1-32.8-8.5-16.9-40.4-12.3-43.4 0.7-2.8 12.5-3.5 21.6-2.8 28.5z"/>
								<path id="&lt;Path&gt;" class="s19" d="m490.7 57c4.4-1.9 7.9-5.7 9.5-10.3 5.6 7.6 15.7 11.4 24.9 9.4 0.4 4.7 2.5 9.3 5.9 12.7 3.3 3.3 7.9 5.5 12.6 5.9 0.5-7.7-0.3-15.5-3-22.7-1.4-4-3.4-7.8-6.4-10.7-3-2.9-7-4.7-11-5.6-7.3-1.7-15.3-0.6-21.6 3.4-6.4 3.9-10.4 10.4-10.9 17.9z"/>
								<g id="&lt;Group&gt;">
									<path id="&lt;Path&gt;" class="s14" d="m506.3 75.5q-0.7-0.4-1.5-0.4c-0.4 0-0.9 0-1.3 0.3-0.4 0.3-0.6 0.8-0.6 1.3-0.1 0.5 0.1 0.9 0.3 1.3 0.1 0.3 0.3 0.5 0.6 0.4 0.2-0.1 0.4-0.4 0.3-0.6-0.1-0.3-0.3-0.7-0.3-1q0-0.3 0.2-0.5 0 0-0.1 0c0.1-0.1 0.3-0.2 0.5-0.2q0 0 0 0 0.1 0 0.2 0 0.1-0.1 0.2 0 0.1 0 0.2 0 0 0 0 0 0 0 0 0c0.3 0 0.6 0.1 0.9 0.2 0.2 0.1 0.5 0 0.6-0.2 0.1-0.2 0-0.5-0.2-0.6z"/>
									<path id="&lt;Path&gt;" class="s19" d="m495.4 64.2c2.3-1.7 5.3-2.3 8.1-1.4 0.6 0.2 1.1 1 0.8 1.7-0.3 0.9-1.1 1-1.9 0.8-1.7-0.5-3.5-0.2-5 0.7q0 0.1-0.1 0.2c-0.6 0.4-1.4 0.5-1.9-0.1-0.5-0.5-0.6-1.5 0-1.9z"/>
									<path id="&lt;Path&gt;" class="s19" d="m511.9 63.1c2.8-0.9 5.8-0.4 8 1.4 0.6 0.5 0.8 1.3 0.3 1.9-0.5 0.6-1.3 0.7-1.9 0.3q-1-0.8-2.3-1.2 0.1 0 0.1 0.1c-1-0.3-2-0.3-3.1 0-0.7 0.1-1.5 0-1.8-0.7-0.2-0.7 0-1.6 0.7-1.8z"/>
									<g id="&lt;Group&gt;">
										<g id="&lt;Group&gt;">
											<path id="&lt;Path&gt;" class="s15" d="m517.2 72.5c0.1 1.2-0.8 2.3-2 2.3-1.2 0.1-2.3-0.8-2.3-2-0.1-1.3 0.8-2.3 2-2.3 1.3-0.1 2.3 0.8 2.3 2z"/>
											<path id="&lt;Path&gt;" class="s0" d="m514.9 71.9c0 0.4-0.3 0.7-0.6 0.7-0.4 0-0.7-0.2-0.7-0.6 0-0.3 0.3-0.6 0.6-0.7 0.4 0 0.7 0.3 0.7 0.6z"/>
										</g>
										<g id="&lt;Group&gt;">
											<path id="&lt;Path&gt;" class="s15" d="m501.3 72.4c0 1.2-0.9 2.2-2.1 2.3-1.2 0-2.2-0.9-2.3-2.1-0.1-1.2 0.9-2.2 2.1-2.3 1.2-0.1 2.2 0.9 2.3 2.1z"/>
											<path id="&lt;Path&gt;" class="s0" d="m498.9 71.8c0 0.4-0.2 0.6-0.6 0.7-0.3 0-0.6-0.3-0.6-0.6-0.1-0.4 0.2-0.7 0.6-0.7 0.3 0 0.6 0.2 0.6 0.6z"/>
										</g>
									</g>
									<g id="&lt;Group&gt;">
										<path id="&lt;Path&gt;" class="s20" d="m511.5 81.4c-0.7-0.8-2.1 0.3-3.8 0.6-1.8 0.3-3.5-0.2-3.8 0.8-0.4 1.3 1.6 3.8 4.5 3.3 2.9-0.5 3.9-3.6 3.1-4.7z"/>
										<path id="&lt;Path&gt;" class="s14" d="m511.6 83.4q-0.9 0-1.8 0.2c-2.1 0.3-3.7 1.1-4.4 1.8 0.7 0.6 1.8 0.9 3 0.7 1.7-0.3 2.8-1.6 3.2-2.7z"/>
										<g id="&lt;Group&gt;">
											<path id="&lt;Path&gt;" class="s21" d="m507.8 83c1.6-0.3 2.9-0.9 3.2-1.8-0.7-0.2-1.9 0.5-3.3 0.8-1.5 0.3-2.8 0-3.5 0.4 0.7 0.7 2.1 0.9 3.6 0.6z"/>
										</g>
									</g>
								</g>
								<g id="&lt;Group&gt;">
									<path id="&lt;Path&gt;" class="s17" d="m547.9 82.2c-2.9 3.1-7.2 3.9-9.7 1.6-2.5-2.2-2.2-6.6 0.6-9.7 2.9-3.2 7.2-3.9 9.7-1.7 2.5 2.3 2.2 6.7-0.6 9.8z"/>
									<path id="&lt;Path&gt;" class="s14" d="m546.7 74c-1.2-0.7-2.7-0.7-4.2-0.1q-1 0.4-1.6 1.2c-0.5 0.6-0.6 1.4-0.4 2.1 0.2 0.6 0.7 1 1.1 1.4 0.3 0.2 0.6 0.5 0.7 0.8 0.3 0.4 0.2 1-0.2 1.4-0.3 0.3-0.9 0.4-1.4 0.2-0.2-0.1-0.6 0-0.7 0.2-0.1 0.3 0 0.6 0.2 0.7q0.5 0.3 1 0.3c0.6 0 1.2-0.2 1.7-0.7 0.7-0.7 0.8-1.8 0.4-2.6-0.3-0.5-0.7-0.8-1-1.1-0.4-0.3-0.7-0.6-0.8-1-0.1-0.3 0-0.7 0.3-1.1q0.1-0.2 0.4-0.4c0.5 0 1.2 0.2 1.5 0.6 0.3 0.4 0.5 1 0.4 1.6-0.1 0.2 0.1 0.5 0.4 0.6q0 0 0.1 0c0.2 0 0.5-0.2 0.5-0.4 0.2-0.9 0-1.8-0.6-2.5-0.2-0.3-0.5-0.4-0.8-0.6 0.9-0.2 1.8-0.1 2.4 0.3 0.8 0.4 1.4 1.6 1 2.5-0.2 0.3-0.1 0.6 0.2 0.7 0.3 0.2 0.6 0.1 0.7-0.2 0.7-1.3 0.1-3.1-1.3-3.9z"/>
								</g>
							</g>
						</g>
						<g id="&lt;Group&gt;">
							<g id="&lt;Group&gt;">
								<path id="&lt;Path&gt;" class="s17" d="m412.2 162.6c-1.8-1.9 0.3-16.6-2.7-17.3-2.4-0.5-5.2 5.3-4.2 8.4-3-2.8-11.5-17.2-14.2-15-2 1.5 5.5 11.6 5.5 11.6 0 0-10-10.7-12.2-8.2-2.2 2.5 9.3 12.1 9.3 12.1 0 0-10.3-7.6-11.7-5.3-1.4 2.2 9.8 9.3 9.8 9.3 0 0-9.6-4.2-10.3-2.9-0.8 1.3 4.5 5.3 9.4 7.1 4.6 7.7 12.4 9.7 12.4 9.7z"/>
							</g>
						</g>
						<g id="&lt;Group&gt;">
							<path id="&lt;Path&gt;" class="s17" d="m548.2 116.2c14 3.5 24.4 79.7 16.3 95.5-7.3 14.4-79.5 42-79.5 42l-6.7-12.6 67.7-41.8-6.8-54.5z"/>
							<g id="&lt;Group&gt;">
								<path id="&lt;Path&gt;" class="s7" d="m548.2 116.2c15.2 3.3 21.1 44.9 21.1 44.9-5.5 4.8-31.5 5-31.5 5l-1.3-21.6z"/>
							</g>
							<g id="&lt;Group&gt;">
								<path id="&lt;Path&gt;" class="s17" d="m480.8 240.9c-1.4-0.6-2.9 0.8-5.3 0.1-2.5-0.7-5.5-4-7.6-4-2-0.1-16.4 3.2-15.4 6.3 0.5 1.9 8.4-0.3 8.6-0.1 0.2 0.1-9.4 3.9-8.3 6.4 1 2.5 11.4-3.3 11.6-3.1 0.2 0.2-7.5 5.4-6 7.4 1.5 2.1 8.5-3.7 8.7-3.5 0.2 0.1-4.2 6.2-2.9 7.5 1.3 1.2 7.1-6.1 7.5-5.9 0.3 0.2 2.7 3.5 5.7 4.3 3 0.9 8.9-2.4 9.2-4.9 0.2-2.4-3.9-9.8-5.8-10.5z"/>
							</g>
						</g>
						<path id="&lt;Path&gt;" class="s8" d="m496.9 117.7q-1.9 8.8-3.7 17.7-0.5 2.5-1 5 0 0 0 0.1c-2.1 1.7-3.8 3.8-5.2 6.1-1.8 3.1-2.8 6.6-3 10.2-0.2 2.1 0 4.2 0.4 6.2 0.1 0.3 0.4 0.2 0.4-0.1-0.8-3.5-0.6-7.3 0.3-10.8 0.9-3.2 2.5-6.2 4.7-8.8q1.8-2.1 4.1-3.7c0.2-0.1 0-0.5-0.2-0.3q-0.5 0.4-1 0.8 1.7-8.6 3.5-17.3 0.5-2.5 1-5c0.1-0.2-0.3-0.3-0.3-0.1z"/>
						<path id="&lt;Path&gt;" class="s8" d="m538.2 164.8q-1.7-6.5-2.9-13.1-1.1-6.6-1.7-13.3-0.3-3.8-0.4-7.5c0-0.3-0.4-0.3-0.4 0q0.2 6.7 1.1 13.4 0.8 6.7 2.2 13.2 0.8 3.7 1.8 7.4c0 0.2 0.4 0.1 0.3-0.1z"/>
					</g>
				</g>
			</g>
		</g>
	</g>
</svg>