<svg version="1.2" xmlns="http://www.w3.org/2000/svg" viewBox="0 0 2807 415" width="2807" height="415">
	<title>26443452_sl_031821_41530_18-ai</title>
	<defs>
		<clipPath clipPathUnits="userSpaceOnUse" id="cp1">
			<path d="m0-1189h2806.24v1603.57h-2806.24z"/>
		</clipPath>
	</defs>
	<style>
		.s0 { fill: #ffffff } 
	</style>
	<g id="Layer 1">
		<g id="&lt;Group&gt;">
			<g id="&lt;Clip Group&gt;" clip-path="url(#cp1)" style="mix-blend-mode: screen">
				<g id="&lt;Group&gt;">
					<path id="&lt;Path&gt;" class="s0" d="m1933.9 345.1c-45.4-47-44.1-121.9 3-167.3 47-45.4 121.9-44.1 167.3 2.9 8.8-53.9 59.7-90.6 113.6-81.8 54 8.7 90.7 59.6 81.9 113.6-14.6-56.1 19.1-113.4 75.1-128 56.1-14.6 113.4 19.1 128 75.1-4.4-39.6 24.3-75.3 63.9-79.6 39.7-4.4 75.4 24.2 79.7 63.9 0.3-79.5 65-143.7 144.5-143.4 79.5 0.4 143.7 65.1 143.4 144.5 10-41.7 52-67.4 93.8-57.4 41.8 10.1 67.5 52.1 57.4 93.8 29.3 7.6 46.9 37.5 39.4 66.8-7.6 29.3-37.4 46.9-66.7 39.3 69.4-9.3 133.3 39.4 142.7 108.9 9.3 69.4-39.4 133.3-108.9 142.7 51.4-5.4 97.3 31.9 102.6 83.3 5.4 51.3-31.9 97.2-83.3 102.6 46.1 16.2 70.2 66.7 53.9 112.8-16.2 46-66.7 70.1-112.8 53.8-0.3 27.6-22.9 49.7-50.5 49.4-27.6-0.4-49.7-23-49.4-50.6 25.2 24 26.1 63.8 2.2 88.9-24 25.1-63.8 26.1-88.9 2.1 13.5 84-43.7 163.1-127.7 176.6-84 13.5-163-43.7-176.5-127.7-21.2 17.8-52.8 15.1-70.7-6.1-17.8-21.1-15.1-52.8 6-70.6-9.5 37-47.2 59.3-84.3 49.7-37-9.5-59.2-47.3-49.7-84.3 7 84.8-56 159.1-140.7 166.1-84.8 7-159.1-56-166.1-140.7-9 43.9-51.8 72.3-95.8 63.3-43.9-8.9-72.3-51.8-63.3-95.7 2.5 28.1-18.3 53-46.4 55.5-28.2 2.6-53.1-18.2-55.6-46.4-6.8 43.2-47.3 72.6-90.4 65.8-43.2-6.8-72.6-47.3-65.8-90.5-10.6 41.9-53.1 67.2-94.9 56.6-41.8-10.5-67.2-53-56.6-94.9 3.2 72.4-52.9 133.5-125.2 136.7-72.3 3.2-133.5-52.9-136.7-125.2 27.4 10.2 41.3 40.7 31 68.1-10.2 27.4-40.7 41.2-68.1 31-21 48.3-77.2 70.5-125.5 49.6-48.4-21-70.6-77.2-49.6-125.5-12 69.4-78.1 116-147.5 104-69.5-12-116.1-78.1-104.1-147.5-8 41.9-48.5 69.4-90.5 61.4-41.9-8.1-69.4-48.6-61.4-90.5 20.2 64.5-15.8 133.2-80.4 153.3-64.5 20.1-133.2-15.9-153.3-80.4 2.4 21.3-12.9 40.5-34.2 42.9-21.3 2.4-40.5-13-42.9-34.3-30.3 34.8-83.1 38.5-118 8.2-34.8-30.3-38.4-83.1-8.1-117.9 26.3 77.6-15.3 161.8-92.9 188.2-77.6 26.3-161.9-15.3-188.2-92.9-35.6 29.7-88.6 25-118.3-10.7-29.8-35.6-25-88.6 10.6-118.3-62.4 48.8-152.6 37.7-201.4-24.7-48.7-62.4-37.7-152.6 24.7-201.4-50.7-48.1-52.8-128.3-4.6-179 48.1-50.7 128.3-52.8 179-4.7-44.8-9.5-73.3-53.6-63.7-98.3 9.5-44.8 53.6-73.3 98.3-63.8 6.3-66.4 65.2-115.3 131.7-109 66.5 6.2 115.3 65.2 109.1 131.7-8.4-21.1 1.9-45 23-53.3 21.1-8.4 44.9 1.9 53.3 23 4.8-40.2 41.3-68.9 81.5-64.1 40.2 4.8 68.9 41.3 64.1 81.5-27.2-55.8-4.1-123.1 51.7-150.4 55.8-27.2 123.1-4 150.4 51.8 43.7-65.4 132.2-82.8 197.5-39.1 65.4 43.8 82.9 132.2 39.1 197.6 5-36 38.2-61.1 74.2-56.1 36 5 61.1 38.2 56.1 74.2-16.2-53.8 14.3-110.6 68.2-126.8 53.9-16.2 110.7 14.4 126.8 68.2 21.8-32.9 66-42 98.9-20.2 33 21.7 42 65.9 20.3 98.9-1.7-56.1 42.4-102.9 98.4-104.5 56-1.7 102.8 42.3 104.5 98.4-0.8-65.9 51.8-119.9 117.6-120.7 65.9-0.9 119.9 51.8 120.7 117.6-11.4-73 38.5-141.4 111.5-152.8 73-11.4 141.4 38.5 152.8 111.5 28-18.3 65.5-10.4 83.8 17.6 18.3 27.9 10.4 65.4-17.6 83.7z"/>
				</g>
			</g>
		</g>
	</g>
</svg>