<svg version="1.2" xmlns="http://www.w3.org/2000/svg" viewBox="0 0 296 276" width="296" height="276">
	<title>1747352_246976-P41NJG-141-ai</title>
	<style>
		.s0 { fill: #d6679c } 
		.s1 { fill: #f49dc2 } 
		.s2 { fill: #fbdeea } 
		.s3 { fill: #fcfdfe } 
	</style>
	<g id="Object">
		<g id="&lt;Group&gt;">
			<g id="&lt;Group&gt;">
				<g id="&lt;Group&gt;">
					<g id="&lt;Group&gt;">
						<path id="&lt;Compound Path&gt;" class="s0" d="m283.4 107.3c-1.3-13.1-8.8-23.4-17.6-31.9-18.4-17.9-41.8-31-65-39.7-1-0.3-4.8-2.3-6.8-3.3-6.7-3.2-12.8 2.1-13.9 7.8q-0.4 0.3-0.8 0.6c-4.4-1.2-9.4 0.2-12.4 3.8-4.4 0.1-8.9-0.7-13-1.5-13.1-2.5-25.7-6.9-38.7-9.5-2.6-2.2-6.2-3-10-1.2-18.9 9.1-39.6 17.7-57.7 31.2-17.4 12.9-42.8 37.5-27.1 62.3 12.9 20.3 35 13.8 52.4 3.5-3.7 8.9-7 17.9-9.6 27.2-5.3 18.4-8.1 38.1-6.5 57.4 1 12.2 3.3 26.5 9.6 36.9 5 8.2 13.2 12.9 22.3 10.2 8.4-2.4 14.5-10.3 19.5-17.5 11.5-16.3 18-41.4 35-52.9 28.2-19 38.2 40.9 52.2 58.7 5.3 6.7 12.1 11.9 20.4 12.5 8.7 0.7 15.8-7.2 19.3-15 14.1-31.6 7.9-70.4-2.5-102-1.7-4.9-3.5-9.6-5.4-14.3 12.4 7.5 26.1 12 38.1 7 11.1-4.7 19.5-17 18.2-30.3z"/>
					</g>
					<g id="&lt;Group&gt;">
						<path id="&lt;Path&gt;" class="s1" d="m195.9 1.6c-2.7-2.4-6.1 0.5-4.7 4q0 0 0 0c-3.7 9.7-13 17.1-21 22.3-3.4 2.2-8.5 3.8-11.7 6.5-2.1 0.8-3.9 2.5-4.8 4.7-0.8-2.2-2.6-3.9-4.7-4.7-3.2-2.7-8.3-4.3-11.7-6.5-8-5.2-17.3-12.6-21-22.3q0 0 0 0c1.4-3.5-2-6.4-4.7-4-14.7 12.8-21.5 40.5-4.4 54.6 14.1 11.5 36.9 5.4 45.8-10.4q0.5-0.8 0.7-1.6 0.3 0.8 0.8 1.6c8.9 15.8 31.7 21.9 45.8 10.4 17.1-14.1 10.3-41.8-4.4-54.6z"/>
						<path id="&lt;Path&gt;" class="s1" d="m16.1 104.6c-6.1-4.8-15.1-2-15.4 6.4-0.3 5.2 1.4 10.9 3 15.8 2.1 6.9 4 14.9 10.4 19 8.7 5.5 18.2-1.9 19-10.9 0.4-5.8-4.5-12.5-7.4-17.4-2.5-4.3-5.7-9.8-9.6-12.9z"/>
						<path id="&lt;Path&gt;" class="s1" d="m280.4 104.6c-4 3.1-7.2 8.6-9.7 12.9-2.8 4.9-7.8 11.6-7.3 17.4 0.7 9 10.2 16.4 18.9 10.9 6.1-3.9 8-11.3 10.1-17.9 1.7-5.3 3.6-11.3 3.4-16.9-0.4-8.4-9.3-11.2-15.4-6.4z"/>
						<path id="&lt;Path&gt;" class="s1" d="m98.7 255c-5.1-2-11 0.2-16.4 0-5.5-0.1-10.6-3.8-14.7-7.2-5.2-4.3-13.3-0.4-11.5 6.8 2.5 10 10.5 16.6 20 19.8 8.6 2.9 23.3 2.4 27.6-7.1 2.4-5.2 0.4-10.3-5-12.3z"/>
						<path id="&lt;Path&gt;" class="s1" d="m234.7 247.8c-4.3 3.6-8.4 5.9-13.8 7.1-5.8 1.4-11.6-2.1-17.3 0.1-5.4 2-7.4 7.1-5 12.3 4.6 9.9 18.8 9.4 27.6 7.1 9.5-2.5 17.7-10.3 20.1-19.8 1.7-7.2-6.4-11.1-11.6-6.8z"/>
					</g>
				</g>
				<g id="&lt;Group&gt;">
					<g id="&lt;Group&gt;">
						<g id="&lt;Group&gt;">
							<path id="&lt;Path&gt;" class="s2" d="m149.6 66.5q-0.5 0.1-0.9 0.3c-4.2 0.9-7.1 5.1-7.1 9.2 0 4.1 2.9 8.3 7.1 9.2q0.4 0.1 0.9 0.2c2.6 0.6 5.2 0.4 7.5-1 3-1.7 4.9-5 4.9-8.4 0-2.6-1.1-5.1-2.9-6.9-2.5-2.6-6.1-3.3-9.5-2.6z"/>
						</g>
					</g>
					<g id="&lt;Group&gt;">
						<g id="&lt;Group&gt;">
							<path id="&lt;Path&gt;" class="s2" d="m152.2 129.2c13.2 0 13.2-20.5 0-20.5-13.3 0-13.3 20.5 0 20.5z"/>
						</g>
					</g>
				</g>
			</g>
			<g id="&lt;Group&gt;">
				<path id="&lt;Path&gt;" class="s3" d="m79 91.3c-2.8-0.6-5.6-0.9-8.5-0.9q0.5-0.6 1.1-1.2c1.5-1.8 2.6-3.9 4-5.9 0.5-0.8-0.6-1.9-1.4-1.3-1.3 0.9-3.1 1.9-4.2 3.1q-1 1.1-2 2.3c-0.2-3.9-0.4-7.8-0.5-11.8-0.1-1.5-2.3-1.5-2.3 0-0.2 3.9-0.4 7.7-0.5 11.5q-0.6-0.7-1.1-1.4c-1.4-1.4-3.3-2.5-4.9-3.7-0.8-0.6-1.8 0.5-1.3 1.3 1.2 1.7 2.1 3.6 3.4 5.2q1 1.1 1.9 2.2c-3.5 0.3-7.1 0.7-10.5 0.9-1 0.1-1 1.6 0 1.6 3.2 0.2 6.6 0.6 9.9 0.9q-0.7 0.8-1.5 1.5c-0.9 0.9-2.2 1.8-2.5 3.1-0.2 0.6 0.2 1.2 0.7 1.4 2.1 0.5 4.2-1.4 5.9-3.2 0.1 3.2 0.4 6.3 0.8 9.5 0.2 0.8 1.5 0.8 1.6 0 0.5-3.2 0.8-6.5 0.9-9.8 1.8 2 4 4.1 6.1 3.5 0.6-0.2 1-0.8 0.8-1.4-0.3-1-1.2-1.9-2-2.6q-0.9-0.8-1.8-1.7c2.7 0 5.3-0.3 7.9-0.8 1.1-0.3 1.1-2.1 0-2.3z"/>
				<path id="&lt;Path&gt;" class="s3" d="m124.9 152.2c-2.7-0.6-5.6-0.8-8.4-0.8q0.5-0.6 1-1.2c1.6-1.8 2.7-4 4-5.9 0.6-0.8-0.5-1.9-1.3-1.3-1.3 0.9-3.1 1.9-4.2 3.1q-1.1 1.1-2.1 2.3c-0.1-3.9-0.3-7.8-0.5-11.8 0-1.5-2.2-1.5-2.2 0-0.2 3.8-0.4 7.6-0.5 11.4q-0.6-0.6-1.2-1.3c-1.3-1.5-3.2-2.6-4.8-3.7-0.8-0.6-1.9 0.5-1.3 1.3 1.2 1.7 2 3.6 3.4 5.2q0.9 1.1 1.9 2.2c-3.5 0.3-7.1 0.7-10.5 0.9-1.1 0-1.1 1.6 0 1.6 3.2 0.2 6.5 0.6 9.9 0.8q-0.8 0.8-1.5 1.6c-1 0.9-2.2 1.8-2.6 3.1-0.1 0.6 0.2 1.2 0.8 1.4 2 0.5 4.2-1.4 5.9-3.2 0.1 3.1 0.3 6.3 0.8 9.5 0.1 0.8 1.5 0.8 1.6 0 0.5-3.3 0.7-6.5 0.9-9.8 1.7 2 4 4 6.1 3.5 0.6-0.2 0.9-0.8 0.8-1.4-0.3-1.1-1.3-1.9-2.1-2.6q-0.9-0.8-1.7-1.7c2.7-0.1 5.3-0.3 7.8-0.9 1.2-0.2 1.2-2 0-2.3z"/>
				<path id="&lt;Path&gt;" class="s3" d="m92.7 211c-2.7-0.6-5.6-0.8-8.4-0.9q0.5-0.6 1-1.2c1.6-1.8 2.7-3.9 4-5.9 0.6-0.7-0.5-1.8-1.3-1.3-1.3 1-3.1 1.9-4.2 3.1q-1.1 1.2-2.1 2.3c-0.1-3.9-0.3-7.8-0.5-11.7 0-1.5-2.2-1.5-2.2 0-0.2 3.8-0.4 7.6-0.5 11.4q-0.6-0.7-1.2-1.3c-1.3-1.5-3.2-2.6-4.8-3.8-0.8-0.5-1.9 0.6-1.3 1.3 1.2 1.7 2.1 3.7 3.4 5.2q0.9 1.2 1.9 2.3c-3.5 0.2-7.1 0.6-10.5 0.8-1.1 0.1-1.1 1.6 0 1.7 3.2 0.2 6.5 0.5 9.9 0.8q-0.8 0.8-1.5 1.6c-1 0.9-2.2 1.8-2.6 3.1-0.1 0.5 0.2 1.2 0.8 1.3 2 0.6 4.2-1.3 5.9-3.2 0.1 3.2 0.3 6.4 0.8 9.6 0.1 0.8 1.5 0.8 1.6 0 0.5-3.3 0.7-6.6 0.9-9.8 1.7 2 4 4 6.1 3.4 0.6-0.1 0.9-0.8 0.8-1.3-0.3-1.1-1.3-1.9-2.1-2.6q-0.9-0.9-1.7-1.7c2.7-0.1 5.3-0.3 7.8-0.9 1.2-0.2 1.2-2 0-2.3z"/>
			</g>
			<g id="&lt;Group&gt;">
				<path id="&lt;Path&gt;" class="s3" d="m222.8 91.3c2.8-0.6 5.6-0.9 8.5-0.9q-0.6-0.6-1.1-1.2c-1.6-1.8-2.6-3.9-4-5.9-0.5-0.8 0.5-1.9 1.3-1.3 1.3 0.9 3.2 1.9 4.2 3.1q1.1 1.1 2.1 2.3c0.1-3.9 0.3-7.8 0.5-11.8 0.1-1.5 2.2-1.5 2.3 0 0.1 3.9 0.3 7.7 0.5 11.5q0.5-0.7 1.1-1.4c1.3-1.4 3.2-2.5 4.9-3.7 0.7-0.6 1.8 0.5 1.3 1.3-1.2 1.7-2.1 3.6-3.4 5.2q-1 1.1-2 2.2c3.6 0.3 7.1 0.7 10.5 0.9 1.1 0.1 1.1 1.6 0 1.6-3.2 0.2-6.5 0.6-9.8 0.9q0.7 0.8 1.5 1.5c0.9 0.9 2.1 1.8 2.5 3.1 0.2 0.6-0.2 1.2-0.8 1.4-2 0.5-4.1-1.4-5.8-3.2-0.1 3.2-0.4 6.3-0.9 9.5-0.1 0.8-1.4 0.8-1.6 0-0.5-3.2-0.7-6.5-0.8-9.8-1.8 2-4.1 4.1-6.2 3.5-0.5-0.2-0.9-0.8-0.7-1.4 0.3-1 1.2-1.9 2-2.6q0.9-0.8 1.7-1.7c-2.6 0-5.2-0.3-7.8-0.8-1.1-0.3-1.1-2.1 0-2.3z"/>
				<path id="&lt;Path&gt;" class="s3" d="m176.8 152.2c2.8-0.6 5.6-0.8 8.5-0.8q-0.5-0.6-1.1-1.2c-1.5-1.8-2.6-4-4-5.9-0.5-0.8 0.6-1.9 1.3-1.3 1.4 0.9 3.2 1.9 4.3 3.1q1 1.1 2 2.3c0.1-3.9 0.4-7.8 0.5-11.8 0.1-1.5 2.2-1.5 2.3 0 0.2 3.8 0.4 7.6 0.5 11.4q0.6-0.6 1.1-1.3c1.4-1.5 3.3-2.6 4.9-3.7 0.8-0.6 1.8 0.5 1.3 1.3-1.2 1.7-2.1 3.6-3.4 5.2q-1 1.1-2 2.2c3.6 0.3 7.1 0.7 10.6 0.9 1 0 1 1.6 0 1.6-3.2 0.2-6.6 0.6-9.9 0.8q0.7 0.8 1.5 1.6c0.9 0.9 2.2 1.8 2.5 3.1 0.2 0.6-0.2 1.2-0.7 1.4-2.1 0.5-4.2-1.4-5.9-3.2-0.1 3.1-0.4 6.3-0.8 9.5-0.2 0.8-1.5 0.8-1.6 0-0.5-3.3-0.8-6.5-0.9-9.8-1.8 2-4 4-6.1 3.5-0.6-0.2-1-0.8-0.8-1.4 0.3-1.1 1.2-1.9 2-2.6q0.9-0.8 1.7-1.7c-2.6-0.1-5.2-0.3-7.8-0.9-1.1-0.2-1.1-2 0-2.3z"/>
				<path id="&lt;Path&gt;" class="s3" d="m209 211c2.8-0.6 5.6-0.8 8.5-0.9q-0.5-0.6-1.1-1.2c-1.5-1.8-2.6-3.9-4-5.9-0.5-0.7 0.6-1.8 1.3-1.3 1.3 1 3.2 1.9 4.3 3.1q1 1.2 2 2.3c0.1-3.9 0.4-7.8 0.5-11.7 0.1-1.5 2.2-1.5 2.3 0 0.2 3.8 0.4 7.6 0.5 11.4q0.6-0.7 1.1-1.3c1.4-1.5 3.3-2.6 4.9-3.8 0.8-0.5 1.8 0.6 1.3 1.3-1.2 1.7-2.1 3.7-3.4 5.2q-1 1.2-2 2.3c3.6 0.2 7.1 0.6 10.6 0.8 1 0.1 1 1.6 0 1.7-3.2 0.2-6.6 0.5-9.9 0.8q0.7 0.8 1.5 1.6c0.9 0.9 2.1 1.8 2.5 3.1 0.2 0.5-0.2 1.2-0.7 1.3-2.1 0.6-4.2-1.3-5.9-3.2-0.1 3.2-0.4 6.4-0.8 9.6-0.2 0.8-1.5 0.8-1.6 0-0.5-3.3-0.8-6.6-0.9-9.8-1.8 2-4 4-6.1 3.4-0.6-0.1-1-0.8-0.8-1.3 0.3-1.1 1.2-1.9 2-2.6q0.9-0.9 1.7-1.7c-2.6-0.1-5.2-0.3-7.8-0.9-1.1-0.2-1.1-2 0-2.3z"/>
			</g>
		</g>
	</g>
</svg>