<svg version="1.2" xmlns="http://www.w3.org/2000/svg" viewBox="0 0 303 374" width="303" height="374">
	<title>14852561_5523262-ai</title>
	<style>
		.s0 { fill: #ebf1f2 } 
		.s1 { fill: #fec689 } 
		.s2 { fill: #6b66a6 } 
		.s3 { fill: #96b5df } 
		.s4 { fill: #f2a574 } 
		.s5 { fill: #819ccc } 
		.s6 { fill: #e08f24 } 
		.s7 { fill: #343f54 } 
		.s8 { fill: none;stroke: #c96751;stroke-linecap: round;stroke-miterlimit:10;stroke-width: 2 } 
		.s9 { fill: #ffffff } 
		.s10 { fill: #f2ab38 } 
	</style>
	<g id="OBJECTS">
		<g id="&lt;Group&gt;">
			<path id="&lt;Path&gt;" class="s0" d="m302.6 347.6c0 8.6-67.7 15.6-151.2 15.6-83.5 0-151.2-7-151.2-15.6 0-8.6 67.7-15.5 151.2-15.5 83.5 0 151.2 6.9 151.2 15.5z"/>
			<g id="&lt;Group&gt;">
				<g id="&lt;Group&gt;">
					<path id="&lt;Path&gt;" class="s1" d="m259.1 298.9c0 0 25.2-27.5 34.7-24.1 7.7 2.7-8.7 67.9-16 72.6-5.3 3.3-24.5-4.2-24.5-4.2z"/>
					<path id="&lt;Path&gt;" class="s2" d="m195.3 277.8l66.3 16.6-7.3 49.5c0 0-65.9 0.5-103.1 2.4-90.2 4.4-62.1 17.2-85.5 5-36.5-19.1-28.1-71.6-3.7-90z"/>
				</g>
				<g id="&lt;Group&gt;">
					<path id="&lt;Path&gt;" class="s3" d="m106.3 208.7c-19.9 6.8-43.3 26.5-58.1 65.2 0 0 55.6 54.8 125.4 20.3 9.8-40.4 16.7-56.7 30.7-94.6z"/>
					<path id="&lt;Path&gt;" class="s4" d="m114.5 226c0 0 24.4 21.9 41.3 18.2 16.8-3.8 32.1-40.8 32.1-40.8z"/>
				</g>
				<g id="&lt;Group&gt;">
					<g id="&lt;Group&gt;">
						<g id="&lt;Group&gt;">
							<path id="&lt;Path&gt;" class="s1" d="m133.5 339.9c4.4 1.3 8.2 4.7 9.9 8.9 1.7 4.3 1.4 9.3-0.8 13.3-0.4 0.8-1 1.6-1.8 2-1.6 0.8-3.7-0.6-4.4-2.3-0.6-1.7-0.3-3.6 0.1-5.4q-4.8 6.3-10 12.2c-1.3 1.5-2.8 3-4.7 2.8-2.1-0.1-3.5-2.6-3.3-4.7 0.1-2.2 1.4-4 2.6-5.8-2.9 3.3-6.4 6.1-10.3 8.3-1.6 0.8-3.5 1.6-5.2 0.8-1.7-0.9-2.2-3.3-1.5-5.2 0.7-1.8 2.3-3.2 3.8-4.5-3.8 2.4-7.8 4.4-11.9 6.1-1.3 0.5-3.4 0.5-3.9-0.3-2.4-3.8 3.4-8 6-10.2-3.8 1.6-5.4 2.4-7.6 3.5-2.2 1.1-5.4 1.2-6.4-1-1-2.1 0.8-4.3 2.6-5.8 12.4-10.5 30.2-17.7 46.8-12.7z"/>
							<path id="&lt;Path&gt;" class="s1" d="m139.3 345.2l-33.3 4.8-3.7-7.3-24.1-47.4-10.1-20 50.7-15.1 2.8 11.5 17.1 70.9z"/>
						</g>
						<path id="&lt;Path&gt;" class="s4" d="m121.6 271.7l-43.4 23.6-10.1-20 50.7-15.1z"/>
					</g>
					<path id="&lt;Path&gt;" class="s5" d="m65.7 287.7l56.5-18.2c0 0-6.1-46.7-29.5-47.8-28.4-1.4-47.1 18.7-27 66z"/>
				</g>
				<g id="&lt;Group&gt;">
					<g id="&lt;Group&gt;">
						<g id="&lt;Group&gt;">
							<path id="&lt;Path&gt;" class="s1" d="m176.9 325.2c-4.4 1.3-8.2 4.7-9.9 8.9-1.7 4.3-1.4 9.3 0.8 13.4 0.4 0.7 0.9 1.5 1.7 1.9 1.7 0.8 3.8-0.5 4.4-2.3 0.7-1.7 0.4-3.6 0-5.4q4.8 6.3 10 12.3c1.2 1.4 2.8 2.9 4.6 2.7 2.2-0.1 3.6-2.6 3.4-4.7-0.2-2.1-1.4-4-2.7-5.8 3 3.3 6.5 6.1 10.4 8.3 1.6 0.8 3.5 1.6 5.1 0.8 1.8-0.9 2.3-3.3 1.6-5.2-0.7-1.8-2.3-3.2-3.8-4.5 3.8 2.4 7.8 4.4 11.9 6.1 1.3 0.5 3.4 0.5 3.9-0.3 2.3-3.8-3.5-8-6-10.2 3.8 1.6 5.4 2.4 7.6 3.5 2.2 1.1 5.4 1.2 6.4-1 1-2.1-0.8-4.3-2.6-5.8-12.4-10.5-30.2-17.7-46.8-12.7z"/>
							<path id="&lt;Path&gt;" class="s1" d="m230 254.5l-7 22.2-16.1 50.8-2.5 7.8-33.3-4.8 0.2-2.3 6.3-67.4 1.6-16.2z"/>
						</g>
						<path id="&lt;Path&gt;" class="s4" d="m230 254.5l-7 22.2-45.4-15.9 1.6-16.2z"/>
					</g>
					<path id="&lt;Path&gt;" class="s5" d="m194.1 199.6c11.1-8.9 28.8-4.4 35.9 10.9 6.8 14.3 4.2 58.9 4.2 58.9l-59.9-9.2c0 0 5.1-48.7 19.8-60.6z"/>
				</g>
				<g id="&lt;Group&gt;">
					<path id="&lt;Path&gt;" class="s4" d="m213.9 139.6c12.8-6.2 26.9-3.7 31.4 5.7 4.6 9.3-2 22-14.8 28.2-12.7 6.3-26.8 3.7-31.4-5.6-4.5-9.4 2.1-22.1 14.8-28.3z"/>
					<g id="&lt;Group&gt;">
						<path id="&lt;Path&gt;" class="s1" d="m54.9 209.3c0 0-84.3-112.5 35.6-151.1 119.9-38.5 124.2 70.2 127.5 91.4 0 0 46.3 39.5-41.8 68.5-88 29-112.6 3.9-121.3-8.8z"/>
						<path id="&lt;Path&gt;" class="s4" d="m54.1 186.6c0 0-8.5-40.7-0.5-53.6 4.1-6.5 21.6-15.9 23.2-41.5 0 0 60.3 2.4 85.2-25.9 0 0 35.2 11.2 52.7 64.5l-19.2-54c-10.1-12.4-37.2-30.3-54.2-28.4l-91.3 38.1-14.1 62.5z"/>
					</g>
					<g id="&lt;Group&gt;">
						<g id="&lt;Group&gt;">
							<path id="&lt;Path&gt;" class="s6" d="m77 162.5c6.7-13.4 20.8-22.7 35.7-23.6-6.6-5.4-16.8-4.5-23.7 0.5-6.9 5-10.8 13.2-12 23.1z"/>
							<path id="&lt;Path&gt;" class="s6" d="m172 129.2c10.7-5 23.5-5.4 34.5-1-4.9-5.3-11.2-9.8-18.4-10.4-7.2-0.5-15.1 4.2-16.1 11.4z"/>
						</g>
						<g id="&lt;Group&gt;">
							<path id="&lt;Path&gt;" class="s7" d="m101.1 190.8c4.1 0 7.4 3.3 7.4 7.3 0 4.1-3.3 7.4-7.4 7.4-4.1 0-7.4-3.3-7.4-7.4 0-4 3.3-7.3 7.4-7.3z"/>
							<path id="&lt;Path&gt;" class="s7" d="m189.8 172.9c4.1 0 7.4 3.3 7.4 7.3 0 4.1-3.3 7.4-7.4 7.4-4 0-7.3-3.3-7.3-7.4 0-4 3.3-7.3 7.3-7.3z"/>
						</g>
						<g id="&lt;Group&gt;">
							<path id="&lt;Path&gt;" class="s8" d="m160.8 183.2c1.6 2.1 1.9 4.8 1.1 7"/>
							<path id="&lt;Path&gt;" class="s9" d="m132.5 208.6c3.9 5.1 10.1 8.2 16.5 8.3 6.3 0.1 12.7-2.8 16.7-7.8 1.6-1.9 2.8-4.2 2.7-6.7-0.1-2.5-2.1-5-4.5-5-2.5 0-4.4 2.1-6.6 3.2-2.6 1.2-5.6 1-8.3 0.3-2.7-0.7-5.4-1.7-8.2-2.1-2.7-0.4-5.8 0-7.9 1.9-2 2-2.2 5.5-0.4 7.9z"/>
						</g>
					</g>
					<g id="&lt;Group&gt;">
						<path id="&lt;Path&gt;" class="s6" d="m155.2 43.8c0 0 28.8 4.3 48.8 39.8 17.1 30.2 13.7 63.4 13.7 63.4 0 0-13.3-77.2-62.8-91.1z"/>
						<path id="&lt;Path&gt;" class="s6" d="m74.2 80c0 0-7.1 36-22.5 47.4-12.5 9.2 8.3 72.5 8.3 72.5l-18.9-7.1c0 0-21.8-39.5-19.4-73.9 2-30.2 16-47 33.8-51z"/>
						<g id="&lt;Group&gt;">
							<path id="&lt;Path&gt;" class="s6" d="m165.9 42.7c0 0 0 0.1 0 0.1q0.2 1.3 0.1 2.7c0 7.2-3.7 14.6-14.6 20.5-61.2 32.9-106.8 9.8-106.8 9.8 0 0-1.4-9.3 7.8-20.3 5.1-6 13.4-12.6 26.8-18.4 30.1-13.1 53.8-26.5 46.7-36.5 0 0 20.4 8.2 18.4 31.2 0.8-0.3 7-3.1 5.5-16.1 0 0 14.5 12.8 16.1 27z"/>
							<path id="&lt;Path&gt;" class="s10" d="m165.9 42.7c0 0 0 0.1 0 0.1q0.2 1.3 0.1 2.7c-2.3-9-5.9-17-12.4-20.8-1.8 7.8-8.2 14.2-15.9 16 3.5-10.3 1-22.5-6.3-30.7-7.9 15.3-23.4 22.3-38.5 28.5-9.3 3.9-19.1 6.3-28.4 10.3-4.2 1.8-8.3 4-12.1 6.7 5.1-6 13.3-12.6 26.7-18.4 30.2-13.1 53.9-26.5 46.8-36.5 0 0 20.3 8.2 18.4 31.2 0.8-0.3 7-3.1 5.5-16.1 0 0 14.5 12.8 16.1 27z"/>
						</g>
					</g>
					<path id="&lt;Path&gt;" class="s1" d="m24.3 205.8c1-10.4 13.2-17.8 27.4-16.4 14.1 1.3 24.8 10.8 23.8 21.2-0.9 10.4-13.2 17.7-27.3 16.4-14.2-1.3-24.8-10.8-23.9-21.2z"/>
				</g>
				<path id="&lt;Path&gt;" class="s4" d="m78.1 294.8c-10.4 2.6-17.7 12.6-19.9 23.1-2.1 10.4-0.1 21.3 2.8 31.6 1.8 6.3 4 12.8 8.5 17.6 4.4 4.9 11.5 7.9 17.7 5.7 8-2.9 11.1-12.4 12.2-20.9 1.4-10 1.5-20.2 0.3-30.3-0.8-6.5-2.1-13.1-5.5-18.6-3.4-5.6-9.3-9.9-16.1-8.2z"/>
			</g>
		</g>
	</g>
</svg>