<svg version="1.2" xmlns="http://www.w3.org/2000/svg" viewBox="0 0 188 141" width="188" height="141">
	<title>44423397_9090580-ai</title>
	<style>
		.s0 { fill: #58a4c7 } 
		.s1 { fill: #ffbf59 } 
		.s2 { fill: #8bcbe8 } 
	</style>
	<g id="OBJECTS">
		<g id="&lt;Group&gt;">
			<path id="&lt;Path&gt;" class="s0" d="m161.4 57.7c-2.9-18.8-14.3-36.6-30.9-46.2-16.4-10.8-35.4-15.6-53.4-6.8-10.2 2.8-19.8 8.5-27.7 15.4-16.4 15.5-23.2 39.8-21.3 62 3.2 32.7 34.2 58.4 66.5 58.6 10 0.4 19.9-2 28.9-6.3 11.4-5.1 21.5-13.1 28.2-23.8 4.6-8 7.3-16.9 8.9-25.9 1.9-8.8 2.5-18 0.8-27z"/>
			<g id="&lt;Group&gt;">
				<path id="&lt;Compound Path&gt;" class="s1" d="m181.1 22.4c-7.2-1-14.3 1.7-21.2 3.7-2.5 0.8-5.1 1.6-7.7 2.3-0.8 0.2-1.6 0.7-2.1 1.4-1.3 1.8-0.4 4.5 1.7 5.2 3.5 0.5 6.9-1.7 10.3-2.4 5.9-1.9 13.1-3.9 16.7-3.6 0.3 0 0.9 0.1 1.4 0.2-1.3 1.8-4.5 4.8-7.9 7.6-22.5 18.3-50 32-77.5 46.2-17.5 9-35.6 16.7-53.7 24.3-11.1 4.3-20 8.9-29.8 10.7q-1.4 0.3-2.7 0.3-0.1 0-0.1 0c-0.2 0-0.6 0-0.9 0q0.3-0.5 0.5-1c4.3-6.3 12.6-13.1 20.6-19.1 1.7-1.5 1.7-0.3 3.2-3 1.1-2.8-2.1-5.6-4.8-4.2-6.8 4.8-29.2 21-26.4 29.8 1.4 4.1 6.3 4.8 10.1 4.2 13.6-2.1 26-8.9 38.8-13.8 27.1-11.2 53.4-24 79-38.2 13.9-7.8 27.8-15.6 40.6-25 6.2-4.7 12.6-9.4 17.2-15.7 2.9-4.5-0.1-9.4-5.3-9.9z"/>
				<path id="&lt;Path&gt;" class="s1" d="m7.2 119q0 0 0 0.1 0-0.1 0-0.1 0 0 0 0z"/>
			</g>
			<path id="&lt;Path&gt;" class="s2" d="m143 44.8c-1 0-1.7 0.7-2.5 1.1-24.3 15.4-50.9 26.7-76.6 39.6-3.9 2-9.6 3.9-11.6 5.8-1 1.4 0.5 3.4 2.2 2.9 15.8-7.2 31.3-15.1 47-22.6 9.3-4.1 18.2-8.9 27-14 4.9-2.6 9.7-5.5 14.5-8.5 0.7-0.5 1.7-0.8 1.9-1.8 0.4-1.2-0.6-2.6-1.9-2.5z"/>
			<path id="&lt;Path&gt;" class="s2" d="m131.7 35.3c-6.4 4.2-13.4 7.1-20.3 10.1-6.9 3.4-13.5 7.1-20.4 10.4q-2.8 1.4-5.5 3c-0.5 0.3-0.8 0.7-0.9 1.2-0.5 1.7 1.4 3.2 2.9 2.3 8.5-4.8 17.3-8.9 25.9-13.4 7.1-3.2 14.6-6 20.8-10.6 1.4-1.6-0.7-4.1-2.5-3z"/>
			<path id="&lt;Path&gt;" class="s2" d="m62.9 71.4c-1.5-2.3-3.8 0.1-5.5 0.9-1.7 1.2-3.7 2-5.2 3.4-1.4 1.6 0.7 4.1 2.5 2.9 2.5-1.4 5-3 7.5-4.5 0.9-0.5 1.2-1.8 0.7-2.7z"/>
			<path id="&lt;Path&gt;" class="s2" d="m124.9 22.2c-1.2-0.3-2.1 0.5-3 0.9-15.2 9.1-30.8 17.4-46.9 24.7-12.4 5.6-24.5 11.6-36.7 17.6-2.2 1.3-0.2 4.7 2.1 3.4 17.1-8.6 34.5-16.6 51.8-24.8 11.3-5.5 22.2-12 33.1-18.1 1.5-0.8 1.2-3.3-0.4-3.7z"/>
			<path id="&lt;Path&gt;" class="s2" d="m70.6 33.2c-1.1-1.1-2.5-0.4-3.6 0.2q-2.5 1.1-4.9 2.4c-5 3-10.6 5.1-15.5 8.1-1.4 1.7 0.8 4.1 2.6 3 7.2-3.6 14.5-7.2 21.5-11.1 0.7-0.8 0.5-2-0.1-2.6z"/>
			<path id="&lt;Path&gt;" class="s2" d="m116.3 12.6c-0.9-0.9-2.2-0.6-3.1 0-2.1 1.2-4.2 2.4-6.3 3.6-5 2.6-10.2 4.6-15.3 7-1.4 1-3.8 1.2-4.5 3-0.5 1.7 1.5 3.2 2.9 2.3 8.6-4.3 17.7-7.7 25.9-12.8 1.1-0.6 1.3-2.2 0.4-3.1z"/>
			<path id="&lt;Path&gt;" class="s2" d="m88.2 10c-1.3-2-3.6-0.2-5.3 0.3q-5.3 2.1-10.4 4.6c-2.8 1.4-5.7 2.9-8.4 4.6-0.5 0.2-0.8 0.7-1 1.2-0.5 1.6 1.5 3.2 3 2.2 6.7-4 13.7-7.2 19.7-9.5 1.6-0.4 3.4-1.5 2.4-3.4z"/>
			<path id="&lt;Path&gt;" class="s2" d="m110.8 87.2c-15.2 7.7-30.2 15.8-45.1 24.1-1.1 0.7-2.7 1-3.1 2.4-0.5 1.6 1.5 3.2 3 2.3 8.3-4.6 16.6-9.3 24.9-13.9 7.6-4 15.6-7.5 22.9-12 1.3-1.6-0.8-4.1-2.6-2.9z"/>
			<path id="&lt;Path&gt;" class="s2" d="m151.6 71c-0.6-0.6-1.7-0.8-2.4-0.3q-3.2 1.7-6.5 3.3c-4.2 2.1-8.5 4.2-12.4 6.7-1.3 1.2-3.6 1.9-3.7 3.8-0.1 1.7 2.2 2.6 3.4 1.4 4.8-4 14.3-7.9 21.2-11.7 1.1-0.7 1.3-2.3 0.4-3.2z"/>
			<path id="&lt;Path&gt;" class="s2" d="m110.4 108.8c-1.5 0.1-2.6 1.3-3.9 1.9-9.2 5.5-19.3 9.2-28.4 14.7-1.4 1.6 0.8 4 2.6 2.9 7.8-4.1 15.8-7.7 23.6-11.8 2.4-1.3 4.8-2.7 7.1-4 0.5-0.3 0.8-0.7 0.9-1.2 0.4-1.2-0.6-2.6-1.9-2.5z"/>
			<path id="&lt;Path&gt;" class="s2" d="m138.5 92.6c-2.9 1.6-5.9 3-8.9 4.5q-6.4 3.1-12.4 6.9c-0.6 0.4-1.4 0.8-1.6 1.6-0.5 1.7 1.4 3.2 2.9 2.3 5.8-3.8 12.1-6.9 18.4-9.9q2.4-1.3 4.8-2.6c0.5-0.3 0.8-0.7 1-1.2 0.4-2.8-2.4-3.1-4.2-1.6z"/>
			<path id="&lt;Path&gt;" class="s2" d="m133.2 115.5c-3.6 1.2-6.9 3.4-10.4 5-5.1 2.4-9.9 5.2-14.9 7.9-0.7 0.4-1.5 0.8-1.7 1.7-0.5 1.6 1.5 3.2 3 2.2 8.3-5 17.3-8.8 25.6-13.6 1.1-1.2 0-3.2-1.6-3.2z"/>
			<path id="&lt;Path&gt;" class="s2" d="m139.7 108.6c-2.6 1.1-0.7 4.9 1.7 3.6 2.6-1.2 0.7-5-1.7-3.6z"/>
		</g>
	</g>
</svg>