<svg version="1.2" xmlns="http://www.w3.org/2000/svg" viewBox="0 0 172 193" width="172" height="193">
	<title>44423397_9090580-ai</title>
	<style>
		.s0 { fill: #ffbf59 } 
		.s1 { fill: #ffffff } 
		.s2 { fill: #58a4c7 } 
		.s3 { fill: #8bcbe8 } 
		.s4 { fill: #ffe591 } 
	</style>
	<g id="OBJECTS">
		<g id="&lt;Group&gt;">
			<path id="&lt;Path&gt;" class="s0" d="m127.8 133.7c2.4 0.6 4.7 1.2 7.2 0.8 2.5-0.6 3.4-3.8 2.1-6-6.3-9.2-11.7-13.4-16.8-22.7-1.4-2.7-4.6-2.7-7-1.3-12 5.8-23 13.6-35 19.3-0.7 0.3-1.9 0.8-2.3 0.9-1.8 0.8-4.2 0.9-5.2 2.7-0.8 1.2-0.5 2.8 0.3 3.8 1.9 9.2 3.9 18.3 7.2 27 1.4 3.3 2.2 7.9 6.2 8.8 5.4 0.7 6.9-4.5 8.4-8.5 2.5 4.2 5.3 11.6 7.8 16.3 1.4 2.7 2.5 6.3 5.7 7.2 6.2 1.2 7-8.6 7.2-16.5 4.6 7.7 10.9 18.1 16.4 24.4 2.9 3.5 7.7 1.4 7.3-3.1-1.9-10.8-5.5-21.2-9.6-31.4 4.2 2.2 8.6 4 13.2 4.5 3.1 0.1 5.1-3.3 3.8-6-1.6-3.8-4.6-6.9-7.3-10q-4.8-5.1-9.6-10.2z"/>
			<path id="&lt;Path&gt;" class="s1" d="m48.9 135c-7.9-17.3-14.3-33.3-21.1-52.6-0.3-0.8-0.5-1.6-0.7-2.3 0.1-1.4-0.7-2.8-2-3.5-1.4-1-3.5-0.7-4.6 0.7-27.9 10.5-23.9 35.5-7.8 56.4 11.4 16.9 25.9 31.4 40.9 45.1 3.9 3.5 7.6 7.2 11.3 10.8 1 1 2.1 2 3.5 2.5 3 1 5.6-2.3 4.5-5.2-7-17.7-16.1-34.5-24-51.9z"/>
			<path id="&lt;Path&gt;" class="s1" d="m133.8 87.8c-10.4-15.9-20.5-29.9-33.1-46-0.5-0.6-1.1-1.2-1.6-1.8-1.2-0.7-2-2.1-1.9-3.5-0.1-1.8 1.4-3.4 3.1-3.6 23.8-17.8 42.8-1.1 51.8 23.7 8.1 18.7 12.6 38.7 16.2 58.7 0.8 5.1 1.9 10.2 3 15.3 0.3 1.4 0.6 2.8 0.2 4.3-0.8 3-4.9 3.4-6.8 1-11.2-15.4-20.5-32.1-30.9-48.1z"/>
			<path id="&lt;Path&gt;" class="s2" d="m141.2 93.8c-7-14.2-15.9-27.4-24-41q-2.1-3.2-4.3-6.4c-3.5-5.6-7.2-11.2-11.1-16.7-8.1-10.8-16.8-22.6-30.1-27.1-15.7-5.4-34.3-0.4-44.4 12.8-4.7 6.1-6.7 13.7-7.7 21.2-0.8 5.5-0.9 11.2-0.5 16.9 0.2 11.2 3.7 22.1 7 32.7 5 15.4 10.8 30.6 19.2 44.4 4.6 8.5 10.2 14.4 20.5 11.9 3.1-0.8 5.9-2.3 8.6-4.1 8.6-4.3 16.2-10.2 24.6-14.7 10.4-6.2 21.5-11.2 32-17.2 4-3.1 12.7-6.4 10.2-12.7z"/>
			<path id="&lt;Path&gt;" class="s3" d="m120.8 58c-1.3 0.8-1.7 2.3-2.6 3.4-0.2 0.4-0.4 0.5-0.4 0.6q0 0 0 0c-14.5 17.5-30.4 28.5-51.1 38.9-8.4 4.1-22 8.5-30.5 9-5-0.7-6 6.5-0.9 6.9 25-1.9 47.5-15.3 67-30.1 6.5-5 12.4-10.6 17.7-16.8 2.2-2.6 5-5.1 5.9-8.5 0.5-2.7-2.8-4.8-5.1-3.4z"/>
			<path id="&lt;Path&gt;" class="s3" d="m50.8 35.1c-4.9 3.6-9.3 9-9.8 15.2-0.5 4.5 0.7 9 2.8 13q0.9 2 2.2 3.7c0.7 1.2 1.7 2.3 2.8 3.2q0.9 0.7 1.8 1.2 1.6 1.1 3.3 1.8 1 0.4 1.9 0.6c13 3.7 26-7.4 26.1-22-0.3-16-17.5-25.6-31.1-16.7z"/>
			<path id="&lt;Path&gt;" class="s1" d="m62.9 38.1c-1.8-1-2.9 0.9-3.8 2.1-1.7 2.2-2.7 3.5-3.8 4.9-3.2 4-6 8.4-9 12.6-0.6 0.6-1.1 1.4-0.8 2.3 0.4 1.6 2.9 2 3.7 0.5 5.3-7.7 10-13.9 14.5-19.9 0.4-0.9 0-2-0.8-2.5z"/>
			<path id="&lt;Path&gt;" class="s1" d="m58.2 57.9q-2.3 3.4-4.7 6.8c-0.3 0.4-0.3 1-0.2 1.5 0.4 1.7 2.9 2 3.7 0.5q2.3-3.4 4.7-6.8c1.3-2.3-2.1-4.3-3.5-2z"/>
			<path id="&lt;Path&gt;" class="s1" d="m72.7 42.7c-0.3-1.3-1.8-1.9-2.9-1.2-0.9 0.7-1.4 1.8-2.2 2.7-1.1 1.5-2.5 2.9-2.9 4.7-0.5 2.1 2.6 3.1 3.6 1.3 1.1-2.2 2.8-4 4.2-6 0.3-0.4 0.4-1 0.2-1.5z"/>
			<path id="&lt;Path&gt;" class="s1" d="m75.5 52.5c-0.4-1.7-2.8-2-3.6-0.5-2.5 3.7-4.9 7.5-7.1 11.4-0.4 1-1.4 2-1 3.1 0.4 1.7 2.8 2 3.6 0.5q3.1-5.7 6.6-11c0.6-1.1 1.9-2.2 1.5-3.5z"/>
			<path id="&lt;Path&gt;" class="s4" d="m116.7 53c-1.9 0.2-3.1 3.1-4.5 4.4-7.3 8.2-15.8 16.5-23.6 22-10.3 6.6-21.3 13.4-31.5 16.8-6.8 2.4-13.4 5.3-20.4 7.1-1.8 0.6-4.4 0.1-5.6 1.7-0.9 1.4 0.6 3.4 2.3 2.9 6.5-0.8 12.6-3.3 18.8-5.6 7.2-2.6 14.5-5.3 21.3-9 6.8-4 13.7-7.9 20.1-12.6 9.1-7.3 17.9-15.5 25-24.9 0.6-1.2-0.5-2.8-1.9-2.8z"/>
			<path id="&lt;Path&gt;" class="s4" d="m85.9 154.5q-0.6-3-1.1-6-0.7-5-1.7-9.9c-0.1-0.8-0.3-1.7-1.1-2.1-1.5-0.9-3.4 0.6-2.9 2.3 1.1 5.7 1.9 11.4 3.1 17.1 0.3 1.3 1.8 1.9 2.9 1.2 1-0.5 1.2-1.7 0.8-2.6z"/>
			<path id="&lt;Path&gt;" class="s4" d="m96.1 147.4c-1-2.7-1.8-5.4-2.6-8.1-0.7-1.7-0.6-4.1-2.1-5.3-1.5-0.9-3.4 0.6-2.9 2.3 1.2 4 2.2 8.2 3.8 12.1 0.1 0.5 0.4 1 0.9 1.2 1.5 0.9 3.4-0.6 2.9-2.2z"/>
			<path id="&lt;Path&gt;" class="s4" d="m106.9 165.1c-3.1-10.6-5.2-21.7-8.6-32.2-1.2-1.8-4.1-0.3-3.5 1.7 1.8 7.5 4.1 14.8 5.8 22.2 0.9 4.4 2.1 8.6 3.5 12.8 0.1 0.5 0.4 1 0.9 1.2 1.1 0.7 2.6 0.1 2.9-1.2 0.2-1.5-0.7-3-1-4.5z"/>
			<path id="&lt;Path&gt;" class="s4" d="m114.8 146.9c-2.8-6.1-7-13.6-9.1-18.2-1.3-1.8-4.2-0.3-3.5 1.7 1.7 4.6 4.5 8.7 6.5 13.1q1.3 2.7 2.6 5.5c0.3 0.4 0.7 0.7 1.2 0.9 1.7 0.5 3.2-1.5 2.3-3z"/>
			<path id="&lt;Path&gt;" class="s4" d="m131.1 179.7c-2.1-4.4-3.1-7.7-5.5-12.8-1.8-3.9-4.6-8.8-5.8-11.2-1.2-1.8-4.1-0.3-3.5 1.7 1.8 4.2 4.4 8.1 6.2 12.2 1.7 3.8 3.8 9.5 6.4 14.5 0.8 1.5 3.2 1.2 3.6-0.5 0.3-1.5-0.9-2.6-1.4-3.9z"/>
			<path id="&lt;Path&gt;" class="s4" d="m122.2 139.1c-3.2-3.8-6.6-9-10.4-14-1.6-1.4-4 0.8-2.9 2.6 3 4.3 6.1 8.7 9.4 12.8 1 1.1 1.6 2.9 3.3 2.9 2.6-0.3 2.3-2.9 0.6-4.3z"/>
			<path id="&lt;Path&gt;" class="s4" d="m135 151.6c-0.6-1.3-2.1-2-3.1-3.1-1.4-1.2-2.7-2.8-4.3-3.8-1.9-0.9-3.8 1.8-2.2 3.3 1.6 1.4 3.2 2.9 4.8 4.3 0.9 0.7 1.6 1.9 2.9 1.9 1.2 0 2.2-1.3 1.9-2.6z"/>
			<path id="&lt;Path&gt;" class="s4" d="m126.1 123.5c-1.5-1.9-2.8-3.9-4.4-5.7-1.6-1.4-4 0.8-2.9 2.6 2 2.6 3.8 5.4 6 7.9 1 1 2.8 0.3 3.1-1 0.4-1.5-1.2-2.6-1.8-3.8z"/>
			<path id="&lt;Path&gt;" class="s2" d="m35.6 145.6c-3.1-3.9-4.6-5.8-7.6-9.8-7-8.5-14.4-20.3-16.1-29.6-0.9-6.6 0.9-11.6 5.2-14.1 0.7-0.2 2.1-0.9 2-1.6 0.5-1.7-1.5-3.2-2.9-2.3-4.5 1.2-8.9 8.7-8.6 14.9 0.5 11.8 9.1 24.8 15.1 32.2 3.2 4.3 6.4 8.5 9.7 12.6 1.2 1.3 2.2 3.9 4.3 3 2.8-1.4 0.2-3.8-1.1-5.3z"/>
			<path id="&lt;Path&gt;" class="s2" d="m54.4 168.1c-1.6-2.6-3.9-4.7-5.8-7.1-0.9-0.8-1.6-2.3-3-2.3-1.7 0-2.7 2.3-1.4 3.4 2.7 2.5 4.7 6 7.5 8.3 1.4 0.8 3.2-0.8 2.7-2.3z"/>
			<path id="&lt;Path&gt;" class="s2" d="m152.6 84.1c-2.9-11.6-6.4-23.1-12.4-33.6-4.7-9-10.8-15.4-21.5-15.8-3-0.5-3.7 3.8-0.6 4 8.5 0.1 13.9 4.7 18.4 13.4 5.2 9.4 8.2 17.1 10.8 27.6q0.9 3.3 1.8 6.7c0.2 0.5 0.5 0.9 1 1.2 2.4 1.1 3.6-1.5 2.5-3.5z"/>
			<path id="&lt;Path&gt;" class="s2" d="m161 112c-0.9-2.4-1.8-4.8-2.7-7.2q-0.8-2.5-1.5-5c-0.2-0.8-0.3-1.7-1.1-2.1-1.5-0.9-3.5 0.6-3 2.3 1.1 4.9 3.2 9.6 4.9 14.3 0.3 1.3 1.9 1.9 2.9 1.2 1.4-0.7 1.1-2.3 0.5-3.5z"/>
			<path id="&lt;Path&gt;" class="s3" d="m37.3 22c0-1.7-2.3-2.7-3.5-1.4-8.2 8.9-9.3 22.1-8.6 33.7 0.3 5.1 1.2 10.1 2.6 15 0.5 1.3 0.5 3.5 2.3 3.6 1.4 0.3 2.6-1.2 2.2-2.5-4.7-15-5.1-34.1 2.7-45 0.7-1.1 2.2-2 2.3-3.4z"/>
			<path id="&lt;Path&gt;" class="s3" d="m50.4 11c-1.9-0.2-3.7 0.9-5.4 1.5-1 0.6-2.4 0.9-2.7 2.1-0.5 1.6 1.5 3.2 3 2.2 2.5-1.4 3-1.1 5.8-2.4 1.3-0.8 0.8-3.1-0.7-3.4z"/>
		</g>
	</g>
</svg>