<svg version="1.2" xmlns="http://www.w3.org/2000/svg" viewBox="0 0 166 127" width="166" height="127">
	<title>810335_23745-NUTUZE-ai</title>
	<style>
		.s0 { fill: #f1d0cb } 
		.s1 { fill: #e28c81 } 
		.s2 { fill: #c69c6d } 
		.s3 { fill: #a8855d } 
		.s4 { fill: #000000 } 
		.s5 { opacity: .1;fill: #000000 } 
		.s6 { opacity: .1;fill: #ffffff } 
	</style>
	<g id="Objects">
		<g id="&lt;Group&gt;">
			<g id="&lt;Group&gt;">
				<g id="&lt;Group&gt;">
					<path id="&lt;Path&gt;" class="s0" d="m62.8 0.2c0 0-1.4 23 18 23 19.3 0 19.3-21.8 19.3-21.8 0 0 26.5-3.8 46 23.6 15.5 21.9 19.2 33.3 19.2 33.3l-18 14.7c0 0-17.7-11.9-20.4-12.9 0 0 0 28-3.9 58.4 0 0-51.8 20.8-85.2-4.5 0 0-1.4-50.8 0-56.1l-22.9 11-14.4-21.2c0 0 6.7-13 17.7-25.1 11.4-12.5 27.2-22.4 44.6-22.4z"/>
					<path id="&lt;Path&gt;" class="s1" d="m100.1 1.4c0 0 0 21.8-19.3 21.8-19.4 0-18-23-18-23q-2.5 0-4.9 0.2c0.2 7 2.6 26.6 22.6 26.6 20.6 0 23.8-19.7 24.3-25.8-2.9-0.1-4.7 0.2-4.7 0.2z"/>
					<path id="&lt;Path&gt;" class="s1" d="m37.7 57.9c5.5-9.5 14.8-30.5 5.4-53.6-9.5 4.1-18 10.7-24.9 18.3-11 12.1-17.7 25.1-17.7 25.1l14.4 21.2z"/>
					<path id="&lt;Path&gt;" class="s1" d="m165.3 58.3c0 0-3.7-11.4-19.2-33.3-8.3-11.7-17.9-17.7-26.2-20.8-9.7 28.6 7 55.9 7 55.9 2.7 1 20.4 12.9 20.4 12.9z"/>
					<path id="&lt;Path&gt;" class="s0" d="m2.4 44.2c-1.2 2.2-1.9 3.5-1.9 3.5l14.4 21.2 2.9-1.4z"/>
					<path id="&lt;Path&gt;" class="s0" d="m147.3 73l18-14.7c0 0-0.3-1-1.2-2.9l-19.5 15.8c1.6 1 2.7 1.8 2.7 1.8z"/>
				</g>
				<g id="&lt;Group&gt;">
					<path id="&lt;Path&gt;" class="s2" d="m76.1 60.9c0 4.4-3.5 8-7.9 8-4.4 0-8-3.6-8-8 0-4.4 3.6-7.9 8-7.9 4.4 0 7.9 3.5 7.9 7.9z"/>
					<path id="&lt;Path&gt;" class="s3" d="m73.6 60.9c0 3-2.4 5.5-5.4 5.5-3 0-5.4-2.5-5.4-5.5 0-3 2.4-5.4 5.4-5.4 3 0 5.4 2.4 5.4 5.4z"/>
					<path id="&lt;Path&gt;" class="s2" d="m105.5 60.9c0 4.4-3.6 8-8 8-4.4 0-7.9-3.6-7.9-8 0-4.4 3.5-7.9 7.9-7.9 4.4 0 8 3.5 8 7.9z"/>
					<path id="&lt;Path&gt;" class="s3" d="m103 60.9c0 3-2.5 5.5-5.5 5.5-3 0-5.4-2.5-5.4-5.5 0-3 2.4-5.4 5.4-5.4 3 0 5.5 2.4 5.5 5.4z"/>
					<path id="&lt;Path&gt;" class="s2" d="m103.5 78.3c0 11.5-9.3 20.8-20.8 20.8-11.5 0-20.8-9.3-20.8-20.8 0-11.5 9.3-20.8 20.8-20.8 11.5 0 20.8 9.3 20.8 20.8z"/>
					<path id="&lt;Path&gt;" class="s3" d="m95.1 84c0 6.9-5.5 12.5-12.4 12.5-6.9 0-12.5-5.6-12.5-12.5 0-6.9 5.6-12.5 12.5-12.5 6.9 0 12.4 5.6 12.4 12.5z"/>
					<path id="&lt;Path&gt;" class="s4" d="m77 68.9c0 0.8-0.7 1.5-1.5 1.5-0.8 0-1.5-0.7-1.5-1.5 0-0.8 0.7-1.5 1.5-1.5 0.8 0 1.5 0.7 1.5 1.5z"/>
					<path id="&lt;Path&gt;" class="s4" d="m91.1 68.9c0 0.8-0.7 1.5-1.5 1.5-0.9 0-1.5-0.7-1.5-1.5 0-0.8 0.6-1.5 1.5-1.5 0.8 0 1.5 0.7 1.5 1.5z"/>
					<path id="&lt;Path&gt;" class="s4" d="m87 79.7c0 1.3-1.9 4.8-4.3 4.8-2.4 0-4.4-3.5-4.4-4.8 0-1.3 2-2.4 4.4-2.4 2.4 0 4.3 1.1 4.3 2.4z"/>
					<g id="&lt;Group&gt;">
						<path id="&lt;Path&gt;" class="s4" d="m71.6 86.2q0 0 0.5 0.3 0.2 0.1 0.5 0.3c0.2 0.2 0.5 0.3 0.7 0.4 0.3 0.2 0.6 0.4 0.9 0.5 0.3 0 0.7 0.2 1 0.3 0.4 0 0.7 0.1 1.1 0.1h0.6q0.3-0.1 0.5-0.1c0.4-0.1 0.8-0.2 1.1-0.3 0.4-0.2 0.7-0.3 1-0.6q0.5-0.2 0.9-0.6c0.3-0.2 0.5-0.4 0.8-0.6 0.9-0.8 1.5-1.4 1.5-1.4 0 0-0.3 0.8-1.1 1.8-0.2 0.2-0.5 0.5-0.7 0.8q-0.4 0.4-0.9 0.7c-0.3 0.3-0.7 0.4-1.1 0.7-0.4 0.1-0.8 0.3-1.3 0.4q-0.3 0-0.7 0.1h-0.6c-0.5 0-0.9-0.2-1.3-0.3-0.4-0.1-0.7-0.3-1.1-0.4-0.3-0.2-0.6-0.4-0.9-0.6q-0.4-0.3-0.6-0.6-0.3-0.3-0.5-0.5-0.3-0.4-0.3-0.4z"/>
					</g>
					<g id="&lt;Group&gt;">
						<path id="&lt;Path&gt;" class="s4" d="m93.6 86.2q0 0-0.4 0.4-0.2 0.2-0.4 0.5-0.3 0.3-0.7 0.6c-0.2 0.2-0.5 0.4-0.8 0.6-0.4 0.1-0.7 0.3-1.1 0.4-0.4 0.1-0.9 0.3-1.3 0.3h-0.7q-0.3-0.1-0.6-0.1c-0.5-0.1-0.9-0.3-1.3-0.4-0.4-0.3-0.8-0.4-1.1-0.7q-0.5-0.3-0.9-0.7c-0.3-0.3-0.5-0.6-0.7-0.8-0.8-1-1.1-1.8-1.1-1.8 0 0 0.6 0.6 1.5 1.4 0.2 0.2 0.5 0.4 0.7 0.6q0.5 0.4 0.9 0.6c0.3 0.3 0.7 0.4 1 0.6 0.4 0.1 0.8 0.2 1.1 0.3q0.3 0 0.6 0.1h0.6c0.3 0 0.7-0.1 1.1-0.1 0.3-0.1 0.6-0.3 1-0.3 0.3-0.1 0.6-0.3 0.8-0.5 0.3-0.1 0.6-0.2 0.8-0.4q0.3-0.2 0.5-0.3 0.5-0.3 0.5-0.3z"/>
					</g>
				</g>
			</g>
			<path id="&lt;Path&gt;" class="s5" d="m134.4 58.9c-1.5-5-3.2-10.3-6.4-14.5-2.2-2.8-5.9-3.5-9.1-1.9-3.8 1.9-5.1 7-5.8 10.8-2.6 13 1 26.3-1.8 39.3-2.4 11.5-11.4 19.3-22.6 21.8-6 1.3-12.1 0.9-18.3 0.5-7.2-0.4-14.2-1.1-20.9-4-3.6-1.6-7.8-4.8-11.9-6.2 0.1 5.6 0.2 9.3 0.2 9.3 33.4 25.3 85.2 4.5 85.2 4.5 3.9-30.4 3.9-58.4 3.9-58.4 1.2 0.5 5.2 3 9.4 5.7q-0.9-3.5-1.9-6.9z"/>
			<path id="&lt;Compound Path&gt;" class="s6" d="m55 19.6c-16.9 7-36 46.3-43.9 28.4-6.7-16.9 21.4-32.6 38.4-41.5 3.6-1.2 5.5 1.1 6.2 4.2 0.8 3 0.3 6.9-0.7 8.9z"/>
		</g>
	</g>
</svg>