<svg version="1.2" xmlns="http://www.w3.org/2000/svg" viewBox="0 0 139 119" width="139" height="119">
	<title>810335_23745-NUTUZE-ai</title>
	<style>
		.s0 { fill: #e466a2 } 
		.s1 { fill: #bb4838 } 
		.s2 { fill: #ecc550 } 
		.s3 { opacity: .1;fill: #000000 } 
		.s4 { opacity: .1;fill: #ffffff } 
	</style>
	<g id="Objects">
		<g id="&lt;Group&gt;">
			<g id="&lt;Group&gt;">
				<path id="&lt;Path&gt;" class="s0" d="m46.8 0.2q-0.6 2.7-0.6 5.5c0 13 10.4 23.6 23.3 23.6 12.9-0.1 23.4-10.6 23.4-23.6q0-2.8-0.6-5.4l0.3-0.1c0 0 29.3-1.9 46.5 25.2l-16.2 19.3-11-9.7c0 0 5.5 38.8-6.2 77.1 0 0-31.8 14.3-76 0 0 0-11.9-33.3-6.2-75.5l-11.1 5.7-12.4-20.4c0 0 13.8-20.7 46.8-21.7z"/>
				<path id="&lt;Path&gt;" class="s1" d="m92.6 0.2l-0.3 0.1q0.6 2.6 0.6 5.4c0 13-10.5 23.6-23.4 23.6-12.9-0.1-23.3-10.6-23.3-23.6q0-2.8 0.6-5.5-2.2 0.1-4.3 0.3-0.4 2.3-0.4 4.7c0 15.3 12.3 27.7 27.4 27.7 15.2 0 27.4-12.4 27.4-27.7q0-2.5-0.4-5c-2.4-0.1-3.9 0-3.9 0z"/>
				<path id="&lt;Path&gt;" class="s1" d="m0 21.9l12.4 20.4 2.6-1.3-12.6-22.2c-1.6 1.9-2.4 3.1-2.4 3.1z"/>
				<path id="&lt;Path&gt;" class="s1" d="m122.9 44.7l16.2-19.3q-1-1.4-1.9-2.8l-16.4 20.3z"/>
				<path id="&lt;Path&gt;" class="s1" d="m27.9 106.1c1 3.9 1.8 6 1.8 6 44.2 14.3 76 0 76 0q0.9-2.9 1.7-5.9c-8.6 3.1-39.2 12.1-79.5-0.1z"/>
				<g id="&lt;Group&gt;">
					<path id="&lt;Path&gt;" class="s2" d="m64.4 44.8c1.8-3.5 4.7-3.5 6.4 0l3.4 6.8c1.7 3.6 6.3 6.9 10.3 7.5l7.5 1.1c3.9 0.6 4.8 3.3 2 6l-5.5 5.4c-2.8 2.7-4.6 8.2-3.9 12.1l1.3 7.5c0.6 3.9-1.7 5.5-5.2 3.7l-6.7-3.5c-3.5-1.9-9.2-1.9-12.7 0l-6.8 3.5c-3.5 1.8-5.8 0.2-5.1-3.7l1.3-7.5c0.6-3.9-1.1-9.4-4-12.1l-5.4-5.4c-2.8-2.7-2-5.4 1.9-6l7.6-1.1c3.9-0.6 8.5-3.9 10.3-7.5z"/>
				</g>
			</g>
			<path id="&lt;Path&gt;" class="s3" d="m105.7 112.1c10.6-34.8 7.1-70 6.3-76.2-1.6-1.1-3.4-1.6-5.3-0.8-3.9 1.7-5.4 6.6-6.5 10.3-1.5 5.2-2.5 10.6-4 15.8-2.1 7.7-4.1 15.6-7.4 22.9-3.1 6.8-7.7 13.3-13.9 17.4-6 3.8-13.1 4.1-20 3.3-10.8-1.4-22.2-5.6-30.2-13.4 2.2 12.9 5 20.7 5 20.7 44.2 14.3 76 0 76 0z"/>
			<path id="&lt;Compound Path&gt;" class="s4" d="m24.7 7c3.6-1.1 13.2-4.7 16.1-1.2 2.5 3.1-5.5 7.2-7.2 8.3-3.2 1.9-6.2 4-8.5 7-2.7 3.6-4.1 8-8.4 10.2-4.5 2.3-8.9-1.6-11.2-5.1-2.1-3.4-2.4-6.5 0.8-9.2 2.2-1.9 18.4-10 18.4-10z"/>
		</g>
	</g>
</svg>