<svg version="1.2" xmlns="http://www.w3.org/2000/svg" viewBox="0 0 212 124" width="212" height="124">
	<title>3603061_67640-ai</title>
	<style>
		.s0 { fill: #b2dbdb } 
		.s1 { fill: #8dc6cc } 
		.s2 { opacity: .1;fill: #2d2d2d } 
		.s3 { fill: #ffe6ee } 
		.s4 { fill: #ffafbf } 
	</style>
	<g id="object">
		<g id="&lt;Group&gt;">
			<g id="&lt;Group&gt;">
				<g id="&lt;Group&gt;">
					<path id="&lt;Path&gt;" class="s0" d="m203.6 3c-11.8-4-33.4-6.5-84.5 14q-2.2-1.1-4.5-2c-8.3-3.4-16.6-7.1-25.4-9.5-4.2-1.1-8.6-2.1-13-2.9-3.6-0.7-7.3-0.8-11.1-0.1-5.2 1-12.1 4.4-12.4 10.1 0 2.1 1 4 1.9 5.8 1.1 2 2.4 4 4 5.6 3.2 3.4 7.6 5.8 11.3 8.7 1.9 1.5 3.6 3.2 5.5 4.8q0.7 0.5 1.4 1.1c-13.2 8.5-21.9 16.2-26.8 21.1-2.4-1.3-4.9-2.5-7.5-3.6-4.9-1.9-10.3-4-15.7-4.9-5.1-0.9-10.3-1.9-15.5-2.2-1.5-0.1-3.3 0-4.8 0.5-4.9 0.8-7.4 4.5-3.9 14 9.2 25.1 28.5 40.3 44.9 44.4 37.8 9.4 112.1-35.5 140.3-58.3 28.3-22.9 27.6-42.6 15.8-46.6z"/>
					<path id="&lt;Path&gt;" class="s1" d="m114.5 54.9c-13.5 7.4-16.7 15.4-23.1 38.7-6.3 23.3-1.7 37.1 15.4 26.2 17-10.9 43.1-52.2 38.6-61.6-4.4-9.3-19.1-9.7-30.9-3.3z"/>
					<path id="&lt;Path&gt;" class="s2" d="m134.7 29.8c0.5 1.6-0.6 2.8-2.4 2.5-1.4-0.2-2.3-2.1-2.2-3.4 0.3-3.1-4.6-3.6-4.9-0.5-0.5 4.3 2.6 8.9 7.6 8.7 2.3-0.2 4.6-1 5.9-3 1.4-1.9 1.3-4.1 0.7-6.2-0.9-3-5.6-1.1-4.7 1.9z"/>
					<path id="&lt;Path&gt;" class="s2" d="m119.3 33.8c-1.2-2.9-5.9-1-4.7 1.9 0.4 0.9 0.9 1.9 0.9 2.9 0.1 1.1-0.8 1.4-1.9 1.5-1 0.1-2.2 0.2-2.6-0.8-0.3-1-0.2-2.5 0.2-3.5 1.3-2.9-3.3-4.7-4.6-1.7-1 2.5-1.1 5.7 0.2 8.1 1.4 2.3 4.1 2.9 6.8 2.7 2.7-0.2 5.5-1.4 6.5-4 1.1-2.3 0.1-5-0.8-7.1z"/>
					<path id="&lt;Path&gt;" class="s2" d="m100.3 41.6c-1.9-2.4-5.9 0.6-4 3 0.8 1.1 1.1 4.7-0.9 4.8-1 0.1-1.7-0.1-2.1-0.9-0.3-0.4-0.4-1-0.5-1.5q-0.1-0.5 0.1-1 0 0 0 0c1.4-2.5-2.2-4.9-4.2-2.5-1.6 2-0.9 5.3 0.1 7.5 1.2 2.4 4.1 3.4 6.8 3.2 3-0.2 5-2 5.9-4.8 0.8-2.4 0.3-5.8-1.2-7.8z"/>
					<path id="&lt;Path&gt;" class="s3" d="m134.7 22.2q-0.1-0.1-0.3-0.2c-3.4-1.5-7.3 0.3-8.6 3.7-1.3 3.5 0.6 7.1 4.1 8.2 3.9 1.2 9.1-1.7 8.8-6.1-0.2-2.6-1.7-4.9-4-5.6z"/>
					<path id="&lt;Path&gt;" class="s3" d="m111.6 29.7c-1.2 0.2-2.2 0.8-3.1 1.6-0.9 0.5-1.7 1.3-2.2 2.5q-0.2 0.5-0.4 1c-0.5 1.5-0.4 3.1 0.3 4.5 0.3 1 0.9 2 1.7 2.6 1.8 1.5 4.4 1.5 6.5 0.4 1.2-0.7 2.2-1.6 2.8-2.6 3.7-4.1 0.3-10.9-5.6-10z"/>
					<path id="&lt;Path&gt;" class="s3" d="m97.7 40.8c-1.5-1.3-3.6-1.8-5.6-1.6q-0.5 0.1-1 0.3-1 0.2-1.9 0.9c-0.9 0.5-1.6 1.2-2 2.2-0.5 1.2-0.5 2.5-0.1 3.6q0.1 1.3 0.7 2.3c0.5 1.7 1.5 3 3.2 3.6 2.1 0.7 4.4 0.2 6.2-1.2 3.2-2.5 3.3-7.4 0.5-10.1z"/>
					<g id="&lt;Group&gt;">
						<path id="&lt;Path&gt;" class="s2" d="m154.5 24.9c7 2.4 15.5 2.7 22.8 0.7 4.2-1.1 8.3-2.4 12.2-4 2.1-0.9 4-2 5.8-3.3q0.3 0 0.7-0.2c1.9-0.8 3.5-2.4 4.9-4.1 2.5-2.2 4.5-4.6 6.4-7.4q0.3-0.4 0.6-1-1.8-1.7-4.3-2.6-1.3-0.4-2.8-0.8c-2.4 3.7-4.9 7.5-7.2 11.4-2.3 1.6-4.6 3-7.3 4.2-3.2 1.2-6.5 2.2-9.8 3.1-12.5 3.6-27.9-0.5-32.9-12.5q-0.1-0.1-0.1-0.2-2.4 0.7-4.8 1.5 0.1 0.3 0.2 0.6c2.6 6.4 8.8 12.3 15.6 14.6z"/>
					</g>
					<g id="&lt;Group&gt;">
						<path id="&lt;Path&gt;" class="s3" d="m151.4 18.9c10.5 5.6 23.9 6.7 34.9 0.4 5.1-3 9.5-7.5 13.4-11.9 1.3-1.5 2.2-3.1 2.7-4.8-10.2-3.2-27.7-4.9-63.7 7.1 1.8 1.8 3.6 3.5 5.6 5.1 2.1 1.8 4.6 2.8 7.1 4.1z"/>
					</g>
					<g id="&lt;Group&gt;">
						<path id="&lt;Path&gt;" class="s2" d="m102.7 23.9q5.8-2.8 11.9-4.9c1.7-0.6 3.3-1.4 4.9-2.2q-0.2 0.1-0.4 0.2-2.2-1.1-4.5-2 0 0-0.1 0-1 0.4-2.1 0.8c-4.1 1.3-8.1 3.2-12 5.1-4.5 2.2-9.2 4.3-13.5 6.8-4.5 2.7-8.8 5.5-13.2 8.1q-0.1 0-0.2 0.1 1 0.8 1.9 1.6 0.6 0.4 1.2 0.9c3.9-2.4 7.8-4.9 11.8-7.2 4.6-2.7 9.5-5 14.3-7.3z"/>
					</g>
				</g>
				<g id="&lt;Group&gt;">
					<path id="&lt;Path&gt;" class="s4" d="m25.1 63.8c-0.1-0.3-0.2-0.5-0.4-0.6l-4.2-1.9-0.7-4.5c-0.1-0.2-0.2-0.4-0.5-0.5-0.2-0.1-0.4 0-0.6 0.2l-3.1 3.3-4.5-0.6c-0.3-0.1-0.5 0-0.6 0.2-0.2 0.2-0.2 0.5-0.1 0.7l2.3 4-2.1 4.1c-0.1 0.2 0 0.4 0.1 0.6q0.1 0.1 0.2 0.2 0.2 0.1 0.4 0.1l4.5-0.9 3.3 3.2c0.2 0.1 0.4 0.2 0.6 0.1 0.3-0.1 0.4-0.3 0.4-0.5l0.6-4.5 4-2.2c0.2-0.1 0.4-0.3 0.4-0.5z"/>
					<g id="&lt;Group&gt;">
						<path id="&lt;Path&gt;" class="s2" d="m20.1 71l0.6-4.5 4-2.2c0.2-0.1 0.4-0.3 0.4-0.5-0.1-0.3-0.2-0.5-0.4-0.6-0.6 1.3-2.8 1.5-3.9 1.9-0.9 0.3-1.4 0.7-1.4 1.7q0 1.4-0.3 2.8c0 0.1-0.1 0.2-0.1 0.3q0 0 0 0-0.7-0.3-1.2-0.6-0.7-0.4-1.4-0.8c-0.4-0.3-0.7-0.6-1.2-0.7-0.9-0.1-1.9 0.3-2.7 0.6q-0.9 0.2-1.8 0.5 0.1 0 0.2 0.1 0.2 0.1 0.4 0.1l4.5-0.9 3.3 3.2q0.2 0.2 0.5 0.1 0.2 0 0.4-0.2 0.1-0.1 0.1-0.3z"/>
					</g>
				</g>
			</g>
		</g>
	</g>
</svg>