<svg version="1.2" xmlns="http://www.w3.org/2000/svg" viewBox="0 0 1948 362" width="1948" height="362">
	<title>154658582_e7ad8047-9946-4efa-9d00-776c94785d65-ai</title>
	<style>
		.s0 { fill: #000000 } 
	</style>
	<g id="Objects">
		<path id="&lt;Compound Path&gt;" class="s0" d="m1313.4 362c-3.8 0-7.6-0.1-11.4-0.1-2.9-0.1-5.3-2.5-5.2-5.4 0-2.9 2.4-5.3 5.3-5.3q0.1 0 0.1 0c10.8 0.2 21.9 0.1 33-0.2 3-0.1 5.4 2.2 5.5 5.1 0.1 3-2.2 5.4-5.1 5.5-7.5 0.2-14.9 0.4-22.2 0.4zm-51.2-2.1q-0.2 0-0.4 0c-11.3-0.9-22.5-2.1-33.5-3.6-2.9-0.4-4.9-3.1-4.5-6 0.4-2.9 3.1-5 6-4.6 10.7 1.5 21.8 2.7 32.8 3.6 2.9 0.3 5.1 2.8 4.9 5.7-0.2 2.8-2.6 4.9-5.3 4.9zm113.1-0.7c-2.7 0-5.1-2.1-5.3-4.8-0.3-3 1.9-5.5 4.8-5.8 10.8-0.9 21.9-2.1 32.9-3.5 2.9-0.4 5.6 1.6 6 4.6 0.4 2.9-1.7 5.5-4.6 5.9-11.2 1.5-22.4 2.7-33.4 3.6q-0.2 0-0.4 0zm72.6-9.6c-2.5 0-4.8-1.8-5.2-4.4-0.5-2.9 1.4-5.6 4.3-6.1 10.7-1.9 21.6-4 32.5-6.4 2.9-0.6 5.7 1.3 6.3 4.1 0.6 2.9-1.2 5.7-4.1 6.3-11 2.4-22 4.5-32.9 6.4q-0.4 0.1-0.9 0.1zm-258.2-0.2q-0.5 0-1.1-0.1c-11-2.4-22-5.1-32.7-8.1-2.8-0.8-4.5-3.7-3.7-6.6 0.8-2.8 3.8-4.4 6.6-3.6 10.4 2.9 21.2 5.6 32 7.9 2.9 0.6 4.7 3.4 4.1 6.3-0.5 2.5-2.7 4.2-5.2 4.2zm329.9-15.3c-2.4 0-4.6-1.6-5.2-4-0.7-2.8 1-5.7 3.8-6.5 10.6-2.6 21.4-5.6 32.1-8.7 2.8-0.8 5.7 0.9 6.5 3.7 0.9 2.8-0.8 5.7-3.6 6.6-10.8 3.1-21.7 6-32.3 8.8q-0.7 0.1-1.3 0.1zm-1514.1-2.2c-2.6 0-4.8-1.8-5.2-4.4-0.5-2.9 1.4-5.7 4.3-6.2 10.8-1.8 21.8-3.9 32.5-6.2 2.9-0.6 5.7 1.3 6.3 4.1 0.6 2.9-1.2 5.7-4.1 6.4-10.9 2.3-21.9 4.4-32.9 6.2q-0.5 0.1-0.9 0.1zm1113.8-2.7q-0.9 0-1.8-0.3c-11-3.9-21.6-8-31.3-12.2-2.7-1.2-4-4.3-2.8-7 1.1-2.7 4.3-4 7-2.8 9.5 4.1 19.9 8.1 30.7 12 2.7 1 4.2 4 3.2 6.8-0.8 2.2-2.8 3.5-5 3.5zm-1042.2-12.8c-2.3 0-4.5-1.6-5.1-4-0.8-2.8 0.9-5.7 3.8-6.5 10.6-2.8 21.3-5.9 31.8-9.1 2.8-0.9 5.8 0.7 6.6 3.5 0.9 2.8-0.7 5.8-3.5 6.7-10.6 3.3-21.5 6.4-32.2 9.2q-0.7 0.2-1.4 0.2zm1512.9-2.8c-2.3 0-4.4-1.4-5.1-3.7-0.9-2.8 0.6-5.8 3.4-6.7 10.4-3.4 21-7 31.5-10.7 2.7-1 5.8 0.4 6.8 3.2 0.9 2.8-0.5 5.8-3.3 6.8-10.5 3.8-21.2 7.4-31.7 10.8q-0.8 0.3-1.6 0.3zm-537.6-14.1c-0.9 0-1.8-0.2-2.6-0.7-10.2-5.6-19.8-11.7-28.7-18.1-2.4-1.7-2.9-5-1.2-7.4 1.7-2.4 5-2.9 7.4-1.2 8.5 6.1 17.8 12 27.7 17.5 2.5 1.4 3.4 4.6 2 7.2-1 1.7-2.8 2.7-4.6 2.7zm-905.4-5.1c-2.2 0-4.2-1.3-5-3.5-1-2.7 0.4-5.8 3.2-6.8 10.3-3.8 20.7-7.8 30.8-12 2.8-1.1 5.9 0.2 7 2.9 1.1 2.7-0.2 5.8-2.9 7-10.3 4.2-20.8 8.3-31.3 12.1q-0.9 0.3-1.8 0.3zm1512-5.6c-2.1 0-4.1-1.3-5-3.4-1-2.7 0.3-5.8 3.1-6.9 10.2-4 20.5-8.2 30.7-12.5 2.7-1.2 5.8 0.1 7 2.8 1.1 2.7-0.2 5.8-2.9 7-10.3 4.3-20.7 8.6-31 12.6q-0.9 0.4-1.9 0.4zm-945.6-9.6q-0.1 0-0.1 0c-11.1-0.1-22.4-0.5-33.5-1.1-2.9-0.2-5.2-2.7-5-5.6 0.1-2.9 2.6-5.2 5.6-5 10.9 0.6 22.1 0.9 33.1 1.1 2.9 0 5.2 2.5 5.2 5.4 0 2.9-2.4 5.2-5.3 5.2zm40-0.3c-2.9 0-5.3-2.3-5.4-5.2-0.1-2.9 2.2-5.4 5.2-5.5 11-0.3 22.1-0.9 33-1.7 3-0.2 5.5 2 5.7 4.9 0.2 3-2 5.5-4.9 5.7-11.1 0.8-22.4 1.4-33.5 1.8q-0.1 0-0.1 0zm-113.2-3.9q-0.2 0-0.5 0c-11.1-1.1-22.3-2.5-33.3-4-2.9-0.4-4.9-3.1-4.5-6 0.4-2.9 3.1-5 6-4.6 10.9 1.6 21.9 2.9 32.9 4 2.9 0.3 5 2.9 4.7 5.8-0.3 2.8-2.6 4.8-5.3 4.8zm186.2-1.7c-2.6 0-4.9-1.9-5.3-4.7-0.3-2.9 1.8-5.5 4.7-5.9 10.9-1.3 21.9-2.8 32.8-4.5 2.9-0.5 5.6 1.5 6.1 4.4 0.4 2.9-1.5 5.6-4.4 6.1-11 1.7-22.2 3.3-33.2 4.6q-0.4 0-0.7 0zm-611.7-7.1c-2 0-4-1.1-4.9-3-1.2-2.7-0.1-5.9 2.6-7.1 9.9-4.7 19.9-9.6 29.6-14.7 2.6-1.4 5.9-0.4 7.2 2.2 1.4 2.7 0.4 5.9-2.2 7.2-9.9 5.2-20 10.2-30.1 14.9q-1.1 0.5-2.2 0.5zm353-1.7q-0.5 0-1-0.1c-10.9-2.1-22-4.4-32.8-6.9-2.9-0.6-4.6-3.5-4-6.4 0.7-2.8 3.5-4.6 6.4-3.9 10.7 2.4 21.6 4.7 32.4 6.8 2.9 0.5 4.8 3.3 4.2 6.2-0.5 2.5-2.7 4.3-5.2 4.3zm331-3c-2.4 0-4.7-1.8-5.2-4.3-0.6-2.8 1.3-5.7 4.1-6.3 10.8-2.2 21.7-4.7 32.3-7.4 2.9-0.7 5.7 1 6.5 3.9 0.7 2.8-1.1 5.7-3.9 6.4-10.8 2.7-21.8 5.3-32.7 7.6q-0.5 0.1-1.1 0.1zm827.8-1.3c-2 0-3.9-1.2-4.8-3.2-1.2-2.6-0.1-5.8 2.6-7 10-4.5 20.1-9.3 30.1-14.1 2.6-1.3 5.8-0.2 7.1 2.5 1.3 2.6 0.2 5.8-2.5 7.1-10 4.8-20.2 9.6-30.3 14.2q-1.1 0.5-2.2 0.5zm-732.8-4.2c-1.4 0-2.8-0.5-3.8-1.5-4.3-4.3-8.5-8.8-12.4-13.4q-3.1 1-6.2 1.9c-2.9 0.9-5.8-0.7-6.7-3.5-0.8-2.8 0.8-5.8 3.6-6.6q1-0.4 2.1-0.7-1.3-1.8-2.7-3.6c-1.7-2.4-1.1-5.7 1.3-7.5 2.4-1.7 5.7-1.1 7.4 1.3q2.3 3.2 4.8 6.4 3.1-1 6.2-2c4.4-1.5 8.4-2.8 12.3-4.2 2.8-1 5.8 0.4 6.8 3.2 1 2.8-0.5 5.8-3.3 6.8-3.9 1.4-8 2.8-12.4 4.3q-1.1 0.3-2.2 0.7 4.3 4.8 8.9 9.3c2.1 2.1 2.1 5.5 0 7.6-1 1-2.4 1.5-3.7 1.5zm-497.3-8.3q-0.7 0-1.5-0.2c-10.7-3-21.5-6.3-32.1-9.7-2.7-0.9-4.3-3.9-3.4-6.7 1-2.8 4-4.4 6.7-3.4 10.5 3.4 21.1 6.6 31.7 9.6 2.8 0.8 4.5 3.7 3.7 6.6-0.7 2.3-2.8 3.8-5.1 3.8zm-216.9-15.6c-1.8 0-3.6-1-4.6-2.7-1.5-2.5-0.6-5.7 1.9-7.2 9.5-5.6 19-11.4 28.2-17.3 2.5-1.6 5.8-0.9 7.4 1.6 1.5 2.4 0.8 5.7-1.6 7.3-9.4 6-19 11.9-28.6 17.5-0.9 0.5-1.8 0.8-2.7 0.8zm1513-3.9c-1.9 0-3.8-1.1-4.7-2.9-1.4-2.6-0.4-5.8 2.3-7.2 9.7-5 19.6-10.3 29.3-15.5 2.6-1.5 5.8-0.5 7.2 2.1 1.4 2.6 0.5 5.8-2.1 7.2-9.8 5.3-19.7 10.6-29.6 15.7-0.7 0.4-1.6 0.6-2.4 0.6zm-1365.7-3.5q-0.9 0-1.9-0.3l-1.6-0.6c-11.4-4.4-20.8-8.3-29.5-12.3-2.7-1.3-3.8-4.4-2.6-7.1 1.2-2.7 4.4-3.8 7.1-2.6 8.5 3.9 17.6 7.7 28.8 12l1.6 0.6c2.7 1.1 4.1 4.1 3.1 6.9-0.8 2.1-2.9 3.4-5 3.4zm611.6-6.9c-2 0-3.9-1.1-4.8-3.1-1.3-2.6-0.2-5.8 2.5-7.1 10.5-5 19.7-10.2 28.3-15.9 2.5-1.6 5.8-1 7.4 1.5 1.6 2.4 1 5.7-1.5 7.3-9 6-18.7 11.5-29.6 16.7q-1.2 0.6-2.3 0.6zm-85.9-21.8c-2.1 0-4.1-1.2-4.9-3.3-4.5-10.5-8.1-21.5-10.6-32.5-0.6-2.9 1.2-5.7 4-6.4 2.9-0.6 5.7 1.2 6.4 4 2.3 10.5 5.7 20.8 9.9 30.8 1.2 2.7-0.1 5.8-2.8 7q-1 0.4-2 0.4zm904.3-3c-1.8 0-3.6-1-4.6-2.7-1.4-2.5-0.6-5.8 2-7.3 9.6-5.5 19.2-11.2 28.5-16.9 2.5-1.6 5.8-0.8 7.3 1.7 1.6 2.5 0.8 5.8-1.7 7.3-9.4 5.8-19.1 11.5-28.8 17.1-0.8 0.5-1.8 0.8-2.7 0.8zm-1495.8-0.3c-1 0-2-0.3-2.9-0.9q-3.9-2.5-7.6-5.2-3.2 2.3-6.4 4.7c-2.4 1.7-5.7 1.1-7.5-1.3-1.7-2.4-1.1-5.7 1.3-7.4q2-1.4 3.9-2.8-5.5-4.6-10.4-9.5c-2.1-2-2.1-5.4-0.1-7.5 2.1-2.1 5.5-2.1 7.6 0 3.7 3.6 7.6 7.1 11.8 10.5 5-3.8 9.4-7.2 13.5-10.6 2.2-1.9 5.6-1.5 7.4 0.7 1.9 2.3 1.6 5.7-0.7 7.5-3.5 2.9-7.3 5.9-11.4 9q2.2 1.6 4.5 3.1c2.4 1.6 3.1 4.9 1.4 7.4-1 1.5-2.7 2.3-4.4 2.3zm736.9-17c-1.3 0-2.6-0.4-3.6-1.4-2.2-2-2.3-5.4-0.3-7.5l0.5-0.5c6.9-7.6 13-16.2 17.9-25.5 1.4-2.5 4.6-3.5 7.2-2.1 2.6 1.3 3.6 4.6 2.2 7.2-5.4 10-11.9 19.3-19.5 27.6l-0.5 0.5c-1.1 1.2-2.5 1.7-3.9 1.7zm821.4-21.1c-1.7 0-3.4-0.9-4.4-2.4-1.6-2.5-0.9-5.8 1.5-7.4 7.9-5.1 15.7-10.3 23.1-15.4 2.4-1.6 5.7-1 7.4 1.4 1.6 2.4 1 5.8-1.4 7.4-7.5 5.1-15.3 10.4-23.3 15.5-0.9 0.6-1.9 0.9-2.9 0.9zm-1523.3-10.4c-1.2 0-2.4-0.4-3.4-1.2-2.2-1.9-2.6-5.2-0.7-7.5 7.2-8.9 12.6-17.7 16.7-27 1.2-2.7 4.3-4 7-2.8 2.7 1.2 3.9 4.3 2.7 7-4.4 10.2-10.4 19.9-18.2 29.5-1 1.3-2.6 2-4.1 2zm-84.6-4.3c-1.9 0-3.8-1.1-4.7-2.9-5.5-10.6-9.4-21.7-11.5-32.8-0.6-2.9 1.3-5.7 4.2-6.2 2.9-0.6 5.7 1.3 6.2 4.2 2 10.1 5.5 20.2 10.5 29.9 1.4 2.6 0.4 5.8-2.2 7.2-0.8 0.4-1.6 0.6-2.5 0.6zm626.6-15.2q0 0-0.1 0c-2.9-0.1-5.3-2.5-5.2-5.5 0.2-11.8 1.7-23.3 4.5-34.1 0.8-2.9 3.7-4.6 6.5-3.9 2.9 0.8 4.6 3.7 3.8 6.5-2.6 10.1-4 20.7-4.2 31.7 0 2.9-2.4 5.3-5.3 5.3zm192.1-13.7q-0.4 0-0.8 0c-2.9-0.5-4.9-3.3-4.4-6.2 0.9-5.5 1.4-11.1 1.4-16.5 0-5.1-0.4-10.1-1.2-14.9-0.5-2.8 1.4-5.6 4.3-6.1 2.9-0.5 5.7 1.5 6.2 4.4 0.9 5.3 1.3 10.9 1.3 16.6 0 6-0.5 12.1-1.5 18.3-0.4 2.6-2.7 4.4-5.3 4.4zm-709.5-34.1c-2.8 0-5.2-2.2-5.3-5.1-0.5-10.9-3.1-21.2-7.7-29.7-1.3-2.6-0.3-5.8 2.3-7.2 2.6-1.4 5.8-0.4 7.1 2.2 5.3 10 8.4 21.8 8.9 34.3 0.1 2.9-2.1 5.4-5.1 5.5q-0.1 0-0.2 0zm-119.3-8q-0.6 0-1.3-0.2c-2.9-0.7-4.6-3.6-3.8-6.5 0.6-2.5 1.4-5.1 2.3-7.5 3.1-8.6 8-16.6 14.5-23.8 1.9-2.1 5.3-2.3 7.5-0.3 2.1 1.9 2.3 5.3 0.3 7.5-5.5 6.1-9.6 12.9-12.3 20.2-0.8 2.2-1.4 4.4-2 6.6-0.6 2.4-2.8 4-5.2 4zm657.1-13.6c-1 0-2-0.3-2.9-0.9-2.5-1.6-3.1-4.9-1.5-7.4q1-1.5 2-3c6-8.4 13.4-16 22.2-22.3 2.3-1.7 5.7-1.2 7.4 1.2 1.7 2.3 1.2 5.7-1.2 7.4-7.8 5.7-14.4 12.3-19.7 19.9q-0.9 1.3-1.8 2.7c-1.1 1.5-2.8 2.4-4.5 2.4zm156.2-13.7c-1.6 0-3.1-0.7-4.2-2-6.3-8-14.4-14.5-23.9-19.3-2.7-1.3-3.7-4.5-2.4-7.1 1.3-2.7 4.5-3.7 7.1-2.4 11 5.5 20.3 13 27.6 22.2 1.8 2.3 1.4 5.6-0.9 7.4-1 0.8-2.1 1.2-3.3 1.2zm-731.5-22.5q-0.8 0-1.7-0.3c-9-3.1-19.3-3.1-29.6-0.2-2.8 0.8-5.8-0.8-6.6-3.7-0.8-2.8 0.8-5.7 3.7-6.5 12.3-3.6 24.9-3.5 35.9 0.3 2.8 0.9 4.3 4 3.4 6.8-0.8 2.2-2.9 3.6-5.1 3.6zm634.2-4.5c-2.3 0-4.5-1.6-5.1-4-0.7-2.9 1-5.8 3.8-6.5 11.3-2.9 23.1-4.1 34.6-3.6 2.9 0.2 5.2 2.7 5.1 5.6-0.2 2.9-2.6 5.2-5.6 5.1-10.5-0.5-21.1 0.6-31.4 3.2q-0.7 0.2-1.4 0.2z"/>
	</g>
</svg>