<svg version="1.2" xmlns="http://www.w3.org/2000/svg" viewBox="0 0 328 532" width="328" height="532">
	<title>44653907_9101614-ai</title>
	<defs>
		<clipPath clipPathUnits="userSpaceOnUse" id="cp1">
			<path d="m323.02 202.24c-21.45 87.46-109.74 140.98-197.2 119.53-87.47-21.45-140.99-109.74-119.54-197.2 21.45-87.46 109.74-140.98 197.2-119.54 87.47 21.45 140.98 109.74 119.54 197.21z"/>
		</clipPath>
		<clipPath clipPathUnits="userSpaceOnUse" id="cp2">
			<path d="m100.1 426.02l-47.56-11.66c0 0-1.09 57.16-10.28 100.86l33.87 8.32 33.88 8.33c12.11-42.98 37.64-94.13 37.64-94.13z"/>
		</clipPath>
	</defs>
	<style>
		.s0 { fill: #99aff2 } 
		.s1 { fill: #6b98f2 } 
		.s2 { opacity: .1;fill: #af74e2 } 
		.s3 { opacity: .3;fill: #fff0f0 } 
		.s4 { fill: #8de0f2 } 
		.s5 { fill: #6bccf2 } 
		.s6 { fill: #e7dcf2 } 
		.s7 { fill: #ef9d84 } 
		.s8 { fill: #fcbaa2 } 
		.s9 { fill: #ef9478 } 
	</style>
	<g id="OBJECTS">
		<g id="&lt;Group&gt;">
			<g id="&lt;Group&gt;">
				<g id="&lt;Group&gt;">
					<g id="&lt;Group&gt;">
						<path id="&lt;Path&gt;" class="s0" d="m323 202.2c-21.4 87.5-109.7 141-197.2 119.6-87.4-21.5-141-109.8-119.5-197.2 21.4-87.5 109.7-141 197.2-119.6 87.4 21.5 141 109.8 119.5 197.2z"/>
						<g id="&lt;Clip Group&gt;" clip-path="url(#cp1)">
							<g id="&lt;Group&gt;">
								<g id="&lt;Group&gt;">
									<path id="&lt;Path&gt;" class="s1" d="m207.9-12.4c0 0-135.6 132.7-86.3 351.7 0 0-149.8-223.2 86.3-351.7z"/>
									<path id="&lt;Path&gt;" class="s1" d="m138.6-11.9c0 0-181.3 84.8-78.2 318.6 0 0-197.1-199.6 78.2-318.6z"/>
								</g>
								<g id="&lt;Group&gt;">
									<path id="&lt;Path&gt;" class="s1" d="m207.8-12.5c0 0 58.8 180.4-86.3 351.8 0 0 236.1-128.6 86.3-351.8z"/>
									<path id="&lt;Path&gt;" class="s1" d="m269 20.1c0 0 121.4 159-78.1 318.6 0 0 267.1-85.8 78.1-318.6z"/>
								</g>
							</g>
						</g>
					</g>
					<path id="&lt;Path&gt;" class="s2" d="m209.6 6.7c56.4 36.7 86.3 106.3 69.3 175.5-21.4 87.4-109.7 141-197.2 119.5q-3-0.7-6-1.6c14.9 9.7 31.8 17.2 50.1 21.7 87.5 21.4 175.8-32.1 197.2-119.6 21-85.4-29.6-171.6-113.4-195.5z"/>
				</g>
				<path id="&lt;Path&gt;" class="s3" d="m162.8 20c-11.3 4.6-21.7 9.5-31.8 15-10.1 5.4-19.8 11.3-29.2 17.7-2.3 1.6-4.5 3.4-6.9 5l-3.5 2.4c-1.1 0.9-2.2 1.8-3.3 2.7-2.3 1.7-4.5 3.5-6.8 5.2q-3.2 2.8-6.6 5.6c-1.1 0.9-2.3 1.8-3.4 2.7-1.1 0.9-2.1 1.9-3.2 2.9q-3.3 2.9-6.7 5.7c-4.5 3.9-8.7 8-13.7 11.8q1.7-4.3 3.6-8.4c0.7-1.4 1.4-2.8 2-4.2q1-2.1 2.3-4 2.4-3.9 4.9-7.7c0.9-1.3 1.7-2.5 2.7-3.8 0.9-1.2 1.9-2.4 2.9-3.5q2.9-3.6 6-7c2.1-2.2 4.4-4.3 6.6-6.5q1.7-1.6 3.4-3.1l3.6-2.9c2.5-1.8 4.9-3.8 7.4-5.5 10.2-7.1 21.5-12.5 33.3-16.2 2.9-1 5.9-1.7 8.9-2.4 3-0.8 6.1-1.1 9.1-1.6 6.1-0.6 12.3-0.9 18.4 0.1z"/>
				<g id="&lt;Group&gt;">
					<g id="&lt;Group&gt;">
						<g id="&lt;Group&gt;">
							<g id="&lt;Group&gt;">
								<path id="&lt;Path&gt;" class="s4" d="m113.9 252.3c12.7 7.4 29.7 1.3 37.9-13.4l-46.1-26.6c-8.2 14.8-4.5 32.7 8.2 40z"/>
								<path id="&lt;Path&gt;" class="s2" d="m102.1 221.8l43.5 25.1c2.3-2.3 4.4-4.9 6.2-8l-46.1-26.6c-1.7 3.1-2.9 6.3-3.6 9.5z"/>
							</g>
							<g id="&lt;Group&gt;">
								<path id="&lt;Path&gt;" class="s5" d="m178.1 282.9c13.6 5.4 29.6-3 35.7-18.8l-49.3-19.6c-6.1 15.8 0 33 13.6 38.4z"/>
								<path id="&lt;Path&gt;" class="s2" d="m162.3 254.4l46.5 18.6c2-2.6 3.7-5.6 5-8.9l-49.3-19.6c-1.3 3.3-2 6.6-2.2 9.9z"/>
							</g>
							<g id="&lt;Group&gt;">
								<path id="&lt;Path&gt;" class="s4" d="m241.2 303.3c14.2 3.7 29-6.7 33.1-23.1l-51.3-13.3c-4.1 16.4 4 32.7 18.2 36.4z"/>
								<path id="&lt;Path&gt;" class="s2" d="m222 277l48.4 12.6c1.7-2.8 3-6 3.9-9.4l-51.3-13.3c-0.8 3.4-1.1 6.8-1 10.1z"/>
							</g>
							<g id="&lt;Group&gt;">
								<path id="&lt;Path&gt;" class="s5" d="m57.7 214.2c-11.6-9.1-12.8-27.4-2.6-40.8l41.9 32.9c-10.1 13.5-27.8 17-39.3 7.9z"/>
								<path id="&lt;Path&gt;" class="s2" d="m89.8 213.4l-39.6-31.1c1.2-3.1 2.8-6.1 4.9-8.9l41.9 32.9c-2.1 2.8-4.6 5.2-7.2 7.1z"/>
							</g>
							<g id="&lt;Group&gt;">
								<path id="&lt;Path&gt;" class="s4" d="m8 169.6c-10.4-10.4-9.3-28.7 2.4-40.8l37.6 38c-11.7 12-29.6 13.3-40 2.8z"/>
								<path id="&lt;Path&gt;" class="s2" d="m40 172.9l-35.5-35.8c1.5-3 3.4-5.8 5.9-8.3l37.6 38c-2.5 2.5-5.2 4.5-8 6.1z"/>
							</g>
						</g>
						<g id="&lt;Group&gt;">
							<path id="&lt;Path&gt;" class="s6" d="m4.9 123.1c3.5 4.6 7.3 8.9 11.2 13.1 10.3 11.4 21.4 22.2 32.9 32.5 16.8 15 34.7 28.9 53.4 41.4 23.1 15.5 47.5 29 72.9 40.1 29.2 12.8 59.7 22.4 90.8 28.5q6.3 1.2 12.6 2.2c1.3 0.2 1.8-1.8 0.5-2-32-5.3-63.4-14.2-93.5-26.6-26.1-10.6-51.1-23.8-74.8-39.1-19.4-12.5-38-26.5-55.5-41.7-12.2-10.6-24-21.8-35-33.7q-5-5.3-9.7-10.9c-1.4-1.6-2.7-3.6-4.2-5.1q-0.1-0.1-0.1-0.2c-0.9-1-2.3 0.5-1.5 1.5z"/>
						</g>
					</g>
					<g id="&lt;Group&gt;">
						<g id="&lt;Group&gt;">
							<g id="&lt;Group&gt;">
								<path id="&lt;Path&gt;" class="s4" d="m164.1 138.1c13.4-0.4 23.9-13.1 23.4-28.4l-48.6 1.6c0.5 15.2 11.8 27.2 25.2 26.8z"/>
								<path id="&lt;Path&gt;" class="s2" d="m140.6 120.3l45.8-1.5c0.8-2.8 1.2-5.9 1.1-9.1l-48.6 1.6c0.1 3.2 0.7 6.2 1.7 9z"/>
							</g>
							<g id="&lt;Group&gt;">
								<path id="&lt;Path&gt;" class="s5" d="m228.8 130.9c13.2-2.3 21.8-16.3 19.1-31.4l-47.8 8.4c2.6 15.1 15.5 25.4 28.7 23z"/>
								<path id="&lt;Path&gt;" class="s2" d="m203 116.6l45.2-7.9c0.3-2.9 0.3-6-0.3-9.2l-47.8 8.4c0.5 3.2 1.6 6.1 2.9 8.7z"/>
							</g>
							<g id="&lt;Group&gt;">
								<path id="&lt;Path&gt;" class="s4" d="m287.8 116.5c12.8-3.9 19.6-19 15.1-33.5l-46.4 14.2c4.4 14.6 18.5 23.2 31.3 19.3z"/>
								<path id="&lt;Path&gt;" class="s2" d="m260.4 105.5l43.9-13.4c0-3-0.5-6.1-1.4-9.1l-46.4 14.2c0.9 3 2.3 5.8 3.9 8.3z"/>
							</g>
							<g id="&lt;Group&gt;">
								<path id="&lt;Path&gt;" class="s5" d="m102.1 135.6c-13.3-1.4-22.8-14.9-21.1-30.1l48.3 5.3c-1.7 15.2-13.8 26.3-27.2 24.8z"/>
								<path id="&lt;Path&gt;" class="s2" d="m126.9 119.7l-45.5-5c-0.6-2.9-0.8-6-0.4-9.2l48.3 5.3c-0.4 3.2-1.2 6.2-2.4 8.9z"/>
							</g>
							<g id="&lt;Group&gt;">
								<path id="&lt;Path&gt;" class="s4" d="m42.3 125.1c-13-3.1-20.8-17.6-17.2-32.5l47.2 11.3c-3.5 14.8-16.9 24.3-30 21.2z"/>
								<path id="&lt;Path&gt;" class="s2" d="m68.9 112.4l-44.6-10.6c-0.2-3 0-6.1 0.8-9.2l47.2 11.3c-0.7 3.1-1.9 5.9-3.4 8.5z"/>
							</g>
						</g>
						<g id="&lt;Group&gt;">
							<path id="&lt;Path&gt;" class="s6" d="m18.1 90.9c4.9 1.8 9.9 3.3 14.9 4.7 13.5 3.9 27.2 6.9 41 9.2 20.2 3.5 40.8 5.7 61.3 6.4 25.4 0.8 50.8-0.4 76-4 28.8-4.1 57.2-11.3 84.5-21.5q5.5-2.1 10.9-4.3c1.1-0.4 0.6-2.3-0.6-1.8-27.5 11.3-56.3 19.4-85.7 24.3-25.4 4.2-51.2 6-77 5.6-21.1-0.4-42.2-2.2-63-5.5-14.6-2.3-29-5.3-43.3-9.2q-6.4-1.7-12.7-3.8c-1.8-0.5-3.7-1.4-5.6-1.9q-0.1 0-0.3-0.1c-1.1-0.4-1.5 1.5-0.4 1.9z"/>
						</g>
					</g>
				</g>
			</g>
			<g id="&lt;Group&gt;">
				<g id="&lt;Group&gt;">
					<g id="&lt;Group&gt;">
						<path id="&lt;Path&gt;" class="s1" d="m36.3 262.7q1.3 8 2.6 16.1 3.2 19.2 6.3 38.5 3.8 23.3 7.6 46.6 3.3 20.2 6.6 40.4 1.1 6.6 2.1 13.3c0.4 2 0.4 4.4 1.1 6.3q0 0.2 0 0.3c0.2 1.4 2.3 0.7 2.1-0.6q-1.3-8-2.6-16-3.2-19.3-6.3-38.6-3.8-23.3-7.6-46.6-3.3-20.2-6.6-40.3-1.1-6.7-2.2-13.4c-0.3-2-0.4-4.4-1-6.3q0-0.2-0.1-0.3c-0.2-1.4-2.2-0.7-2 0.6z"/>
					</g>
					<g id="&lt;Group&gt;">
						<path id="&lt;Path&gt;" class="s1" d="m231 309.3q-4.9 6.5-9.8 13-11.7 15.7-23.4 31.3-14.1 18.9-28.3 37.8-12.2 16.4-24.5 32.7-4 5.4-8.1 10.8c-1.2 1.7-2.7 3.4-3.8 5.2q-0.1 0.1-0.2 0.2c-0.8 1.1 0.7 2.6 1.5 1.5q4.9-6.5 9.8-13 11.7-15.6 23.4-31.2 14.1-18.9 28.3-37.9 12.2-16.3 24.5-32.7 4-5.4 8.1-10.8c1.2-1.7 2.7-3.3 3.8-5.1q0.1-0.2 0.2-0.3c0.8-1.1-0.7-2.6-1.5-1.5z"/>
					</g>
				</g>
				<g id="&lt;Group&gt;">
					<path id="&lt;Path&gt;" class="s1" d="m92.8 308.7q-0.7 17.3-1.5 34.6-1.3 27.6-2.6 55.1-0.3 6.3-0.6 12.6c0 1.4 2.1 1.3 2.2 0q0.8-17.4 1.6-34.7 1.2-27.5 2.5-55.1 0.3-6.3 0.6-12.6c0-1.4-2.1-1.3-2.2 0.1z"/>
				</g>
				<g id="&lt;Group&gt;">
					<path id="&lt;Path&gt;" class="s1" d="m157.3 323.9q-7.3 15.7-14.6 31.4-11.6 25-23.3 50.1-2.6 5.7-5.3 11.4c-0.6 1.3 1.3 2.3 1.9 1q7.3-15.7 14.6-31.4 11.6-25 23.3-50 2.6-5.7 5.3-11.5c0.5-1.2-1.3-2.3-1.9-1z"/>
				</g>
			</g>
			<g id="&lt;Group&gt;">
				<g id="&lt;Group&gt;">
					<path id="&lt;Path&gt;" class="s7" d="m34.6 391.4c-1.1 9.9 7 20.3 17.9 23l94.6 23.1c11 2.7 22.9-2.7 26.5-12 3.7-9.3-2.3-19.1-13.3-21.8l-103.8-25.4c-11-2.7-20.9 3.2-21.9 13.1z"/>
					<path id="&lt;Path&gt;" class="s2" d="m149.8 426.5l-94.5-23.2c-9.6-2.4-16.9-10.5-18-19.1-1.5 2.1-2.4 4.5-2.7 7.2-1.1 9.9 7 20.3 17.9 23l94.6 23.1c11 2.7 22.9-2.7 26.5-12 1-2.5 1.3-5.1 0.9-7.6-4.9 7.1-15.2 10.9-24.7 8.6z"/>
				</g>
				<path id="&lt;Path&gt;" class="s8" d="m100.1 426l-47.6-11.6c0 0-1 57.1-10.2 100.8l33.8 8.3 33.9 8.4c12.1-43 37.6-94.2 37.6-94.2z"/>
				<g id="&lt;Clip Group&gt;" clip-path="url(#cp2)">
					<path id="&lt;Compound Path&gt;" fill-rule="evenodd" class="s9" d="m85.9 405l12 9.6 71.6-89.4 4.9 3.9-71.6 89.4 12.1 9.7 71.6-89.5 4.8 4-71.5 89.4 12 9.6 71.6-89.4 4.9 3.9-71.6 89.4 12 9.7 71.6-89.4 4.9 3.9-71.6 89.4 12.1 9.6 71.5-89.4 4.9 3.9-71.6 89.4 12.1 9.7 71.6-89.4 4.9 3.9-71.6 89.4 12 9.6 71.6-89.4 4.9 3.9-71.6 89.4 89.4 71.6-3.9 4.9-89.4-71.6-9.6 12.1 89.4 71.6-3.9 4.8-89.5-71.5-9.6 12 89.4 71.6-3.9 4.9-89.4-71.6-9.7 12 89.5 71.6-4 4.9-89.4-71.6-9.6 12.1 89.4 71.6-3.9 4.8-89.4-71.5-9.7 12 89.4 71.6-3.9 4.9-89.4-71.6-9.6 12 89.4 71.6-3.9 4.9-89.4-71.6-9.7 12.1 89.4 71.5-3.9 4.9-89.4-71.6-71.6 89.5-4.9-4 71.6-89.4-12-9.6-71.6 89.4-4.9-3.9 71.6-89.4-12.1-9.7-71.5 89.4-4.9-3.9 71.6-89.4-12.1-9.6-71.6 89.4-4.9-3.9 71.6-89.4-12-9.7-71.6 89.4-4.9-3.9 71.6-89.4-12-9.6-71.6 89.4-4.9-3.9 71.6-89.4-12.1-9.7-71.6 89.4-4.9-3.9 71.6-89.4-12-9.6-71.6 89.4-4.9-3.9 71.6-89.5-89.4-71.5 3.9-4.9 89.4 71.6 9.7-12.1-89.5-71.6 4-4.9 89.4 71.6 9.6-12-89.4-71.6 3.9-4.9 89.4 71.6 9.7-12-89.4-71.6 3.9-4.9 89.4 71.6 9.6-12.1-89.4-71.6 3.9-4.9 89.4 71.6 9.7-12-89.4-71.6 3.9-4.9 89.4 71.6 9.6-12-89.4-71.6 3.9-4.9 89.5 71.6 9.6-12.1-89.4-71.6 3.9-4.8 89.4 71.5 71.6-89.4 4.9 3.9zm-27.1 33.9l12 9.6 9.7-12-12.1-9.6zm28.4 58.5l-12-9.6-9.6 12 12 9.7zm-4.7 15.9l12 9.7 9.6-12.1-12-9.6zm-20.9-8.7l-9.6 12.1 12 9.6 9.7-12zm7.3 25.6l12 9.6 9.7-12-12.1-9.7zm17 13.6l12 9.6 9.6-12-12-9.7zm25.6-7.3l9.6-12-12-9.6-9.6 12zm13.5-16.9l9.7-12.1-12.1-9.6-9.6 12zm-7.3-25.6l-12.1-9.6-9.6 12 12 9.7zm-16.9-13.6l-12-9.6-9.7 12 12.1 9.7zm-17-13.6l-12-9.6-9.7 12 12.1 9.6zm-25.6 7.3l-9.7 12.1 12.1 9.6 9.6-12zm-13.5 16.9l-9.7 12.1 12.1 9.6 9.6-12zm-13.5 16.9l-9.7 12 12.1 9.7 9.6-12.1zm7.3 25.6l12 9.7 9.7-12.1-12.1-9.6zm17 13.5l12 9.7 9.7-12.1-12.1-9.6zm16.9 13.5l12.1 9.7 9.6-12.1-12-9.6zm16.9 13.6l12.1 9.6 9.6-12-12-9.7zm25.6-7.3l9.6-12-12-9.7-9.7 12.1zm13.6-16.9l9.6-12.1-12-9.6-9.7 12zm13.6-16.9l9.6-12.1-12-9.6-9.7 12zm13.6-16.9l9.6-12-12-9.7-9.7 12.1zm-7.2-25.6l-12.1-9.7-9.6 12.1 12 9.6zm-16.9-13.5l-12.1-9.7-9.6 12.1 12 9.6zm-16.9-13.6l-12-9.6-9.7 12 12.1 9.7zm-17-13.6l-12-9.6-9.6 12 12 9.7zm-52.2 5.8l12.1 9.6 9.6-12-12-9.7zm-13.6 16.9l12.1 9.7 9.6-12.1-12-9.6zm-13.6 16.9l12 9.7 9.7-12.1-12.1-9.6zm-13.5 16.9l12 9.7 9.7-12.1-12.1-9.6zm-1.5 26.5l9.7-12-12.1-9.6-9.6 12zm16.9 13.6l9.6-12.1-12-9.6-9.6 12zm16.9 13.6l9.6-12.1-12-9.6-9.7 12zm17 13.6l9.6-12.1-12-9.6-9.7 12zm17 13.6l9.6-12-12-9.7-9.7 12.1zm17 13.5l9.6-12-12-9.7-9.7 12.1zm26.6 1.5l-12.1-9.7-9.6 12.1 12 9.6zm13.6-16.9l-12-9.6-9.7 12 12.1 9.6zm13.5-16.9l-12-9.6-9.7 12 12.1 9.6zm13.5-16.9l-12-9.6-9.7 12 12.1 9.7zm13.5-17l-12-9.6-9.6 12 12 9.7zm13.6-17l-12.1-9.6-9.6 12 12 9.7zm1.5-26.6l-9.6 12.1 12 9.6 9.7-12zm-17-13.6l-9.6 12 12 9.7 9.7-12.1zm-17-13.5l-9.6 12 12 9.7 9.7-12.1zm-16.9-13.5l-9.7 12 12.1 9.7 9.6-12.1zm-16.9-13.5l-9.7 12 12.1 9.6 9.6-12zm-16.9-13.6l-9.7 12.1 12.1 9.6 9.6-12zm-16.9-13.6l-9.6 12.1 12 9.6 9.6-12z"/>
				</g>
				<path id="&lt;Path&gt;" class="s2" d="m126.9 432.6c0.2 7.3-0.6 14.8-2.4 22.3-9.6 39-44.1 64-77 55.9q-2.1-0.5-4.1-1.2-0.6 2.8-1.1 5.6l33.8 8.3 33.9 8.4c12.1-43 37.6-94.2 37.6-94.2z"/>
			</g>
		</g>
	</g>
</svg>