<svg version="1.2" xmlns="http://www.w3.org/2000/svg" viewBox="0 0 380 279" width="380" height="279">
	<title>14852561_5523262-ai</title>
	<style>
		.s0 { fill: #ebf1f2 } 
		.s1 { fill: #f2a574 } 
		.s2 { fill: #fec689 } 
		.s3 { fill: #d8edf2 } 
		.s4 { fill: #b8d4de } 
		.s5 { fill: #96b5df } 
		.s6 { fill: #a5c4e8 } 
		.s7 { fill: #87a5d6 } 
		.s8 { fill: #e08f24 } 
		.s9 { fill: #343f54 } 
		.s10 { fill: none;stroke: #c96751;stroke-linecap: round;stroke-miterlimit:10;stroke-width: 2 } 
		.s11 { fill: #ffffff } 
		.s12 { fill: #f2ab38 } 
	</style>
	<g id="OBJECTS">
		<g id="&lt;Group&gt;">
			<path id="&lt;Path&gt;" class="s0" d="m379.4 263.1c0 8.4-84.8 15.1-189.5 15.1-104.6 0-189.5-6.7-189.5-15.1 0-8.4 84.9-15.2 189.5-15.2 104.7 0 189.5 6.8 189.5 15.2z"/>
			<g id="&lt;Group&gt;">
				<g id="&lt;Group&gt;">
					<path id="&lt;Path&gt;" class="s1" d="m106 145.5c0 0-39.8-21.7-48.3-13.5-8.4 8.1 13.2 26.6 13.2 26.6 0 0-24.9 30.4-12.3 49.1 12.5 18.6 33.3 1 33.3 1z"/>
					<g id="&lt;Group&gt;">
						<g id="&lt;Group&gt;">
							<path id="&lt;Path&gt;" class="s2" d="m112.8 258c0 0-62.2 14.2-81.2 0.8-4.6-3.3-7.4-9.6-9-17.2v-0.1c-4.7-23.5 2.4-59.9 2.4-59.9 0 0-30-6-23.7-19.2 6.3-13.1 59.9-6.4 63.2-1.4 3.3 5 0 20.8 0 20.8l7.8-2.7 4.1-1.4 3-1.1 2.9 7.2z"/>
							<path id="&lt;Path&gt;" class="s1" d="m63.1 182.6c-8.3 3.7-16.6 7.3-24.1 12.5 6.2-6.7 14.6-11.2 24.1-12.5z"/>
						</g>
						<path id="&lt;Path&gt;" class="s1" d="m112.8 258c0 0-62.2 14.2-81.2 0.8-4.6-3.3-7.4-9.6-9-17.2 9.5 8.9 25.3 16.7 35.1 18 13.1 1.7 19.4 2.1 9.3-27.8-7.9-23.3 1-44.5 5.3-52.7 1.2-2.3 2.1-3.6 2.1-3.6 0 0 0.7 0.8 2 2.2 1.4 1.4 3.5 3.5 5.9 6.1z"/>
					</g>
					<g id="&lt;Group&gt;">
						<path id="&lt;Path&gt;" class="s3" d="m153.9 261.7c0 0-17.2 0-37.6 0-18.8 0-36.5-10.8-46-34q-1-2.5-1.9-5.2c-8.9-26.9 0.8-63.7 33.3-80.1 29.2-14.7 48-2.3 51.5 0.4q0.6 0.4 0.6 0.5z"/>
						<path id="&lt;Path&gt;" class="s4" d="m153.9 261.7c0 0-17.2 0-37.6 0-18.8 0-36.5-10.8-46-34 11 14 30.3 22.1 41.1 18.9 15.5-4.7-2.1-14.2 3.9-53.4 6-39.2 36.7-50.9 36.7-50.9l1.2 0.5q0.6 0.4 0.6 0.5z"/>
					</g>
				</g>
				<g id="&lt;Group&gt;">
					<g id="&lt;Group&gt;">
						<g id="&lt;Group&gt;">
							<path id="&lt;Path&gt;" class="s2" d="m378.7 252.7c-0.8 0.9-2.1 1-3.3 1.1-3.9 0-8.2-1-11.9-2.2 1.2 1.7 5.4 3.2 7.2 4.2 1.8 1.1 3.4 3.4 2.3 5.1-0.9 1.2-2.6 1.4-4.1 1.2-3.9-0.3-8.7-1.9-12.1-3.7 1.6 1.2 4.3 2.9 5.1 4.7 0.7 1.8 0.3 4.3-1.6 5.1-1.5 0.6-3.2-0.2-4.6-1q-6-3.5-11.9-7.2c0.5 2.1 1 4.2 0.4 6.2-0.6 2-2.8 3.7-4.7 3.1-1.7-0.6-2.5-2.4-3.1-4q-0.2-0.6-0.4-1.2c-1.2-3.7-2.2-7.6-2.9-11.5 6.7-4.6 12.4-9.8 17.4-15.6q1.8-2 3.3-4.1 1 0.1 2 0.3 1 0.1 2 0.3c5.4 0.9 10.7 2 16 3.5 2 0.5 4.4 1.5 4.6 3.6 0.2 1.5-1.1 2.9-2.5 3.5-1.4 0.5-7-1.1-8.6-1.2 1.8 1.7 7 2.9 9.2 4 2.2 1.1 3.9 4.1 2.2 5.8z"/>
							<path id="&lt;Path&gt;" class="s1" d="m355.8 233.2l-5.3 3.8c-5 5.8-10.7 11-17.4 15.6 0.7 3.9 1.7 7.8 2.9 11.5l21.8-30.6"/>
						</g>
						<path id="&lt;Path&gt;" class="s5" d="m299.7 198.3c0 0 21.4 7 34.8 12.4 12.8 5 24.9 19.1 24.9 19.1l-27.2 31.9c0 0-24.2-7.9-30.8-10-6.7-2.1-59.5-4.4-59.5-4.4z"/>
					</g>
					<path id="&lt;Path&gt;" class="s5" d="m187.9 150.8l-38.1-11c0 0-25.3 16.7-30.1 49.8-4.8 33.1 6.7 62.7 24.4 70.9 10.5 4.9 52.1 4.8 79.8-4.2 30.2-9.9 58.1-35.2 63.8-51.9z"/>
				</g>
				<path id="&lt;Path&gt;" class="s1" d="m219.6 203.7c0 0 10 18.6 26.2 20.9 18.6 2.7 32-16.4 32-16.4z"/>
				<g id="&lt;Group&gt;">
					<g id="&lt;Group&gt;">
						<path id="&lt;Path&gt;" class="s2" d="m269.2 255.1c-3.9 2.1-13.9-7.1-14.4-7.6 0.4 0.7 8.2 15.6 4 18.1-4.2 2.5-15.6-9.4-16.2-10.1 0.3 0.9 5.9 16.6 0.5 19.1-5.5 2.6-12-12.3-12-12.3 0 0 2 11.4-2.3 13.7-4.4 2.3-8.8-12.1-8.8-12.1h-0.1c-0.4 0-4.6 0.5-9.2-3l17.4-27.2c0 0 1.6-0.9 4.1-2.1 6.3-2.9 18.1-7.3 23.6-1.5 7.7 8.2 17.5 22.8 13.4 25z"/>
						<path id="&lt;Path&gt;" class="s1" d="m232.2 231.6c-1.5 7.2-5.4 22.2-12.2 32.3h-0.1c-0.4 0-4.6 0.5-9.2-3l17.4-27.2c0 0 1.6-0.9 4.1-2.1z"/>
					</g>
					<g id="&lt;Group&gt;">
						<path id="&lt;Path&gt;" class="s6" d="m197.5 222.7c-0.7-8.2-3.7-16.9-11.5-20.6-9.8-4.6-22.1 0.6-28.4 9.4-6.3 8.8-7.7 20.3-7.3 31.1 0.3 6.1 1.6 12.7 6.4 16.5 8.9 6.7 34.7 8.1 55.4 6.1 6.9-9.1 14.9-24.4 19.9-35-10.5-2.1-26.3-5.8-34.5-7.5z"/>
						<g id="&lt;Group&gt;">
							<path id="&lt;Path&gt;" class="s7" d="m197.1 223.1c-7.1 2-12.9 7.8-14.9 14.9-0.2-3.6 1.2-7.3 3.7-9.9 2.6-2.6 6.3-4 11.2-5z"/>
							<path id="&lt;Path&gt;" class="s7" d="m195.7 223c-3.4-1.7-7.5-2.3-11.3-1.5-3.7 0.7-7.2 2.8-9.7 5.8 6.5-2.6 13.5-4 21-4.3z"/>
						</g>
					</g>
				</g>
				<g id="&lt;Group&gt;">
					<path id="&lt;Path&gt;" class="s1" d="m334.2 148.1c13.1-3.1 25.7 2.2 27.9 11.9 2.3 9.7-6.5 20-19.7 23.1-13.2 3.1-25.7-2.2-28-11.9-2.2-9.6 6.6-20 19.8-23.1z"/>
					<g id="&lt;Group&gt;">
						<path id="&lt;Path&gt;" class="s2" d="m171.7 179.2c0 0-54.6-122.3 65-132.8 119.5-10.4 100.5 91.5 99.1 111.9 0 0 34.6 46.4-53.3 54.7-87.9 8.4-105.4-20.1-110.8-33.8z"/>
						<path id="&lt;Path&gt;" class="s1" d="m175.8 158c0 0 0.6-39.7 10.8-49.9 5.3-5.2 23.5-10.2 30.4-33.7 0 0 55.5 15 84.6-6 0 0 30.3 17.9 35.3 71.1l-6.4-54.3c-6.7-13.7-28.1-36-44.3-37.8l-92.9 16.1-26.3 55z"/>
					</g>
					<g id="&lt;Group&gt;">
						<g id="&lt;Group&gt;">
							<path id="&lt;Path&gt;" class="s8" d="m202.1 140.4c9.1-11 24.1-16.7 38.2-14.4-5-6.3-14.7-7.7-22.1-4.5-7.5 3.2-12.8 10-16.1 18.9z"/>
							<path id="&lt;Path&gt;" class="s8" d="m297.4 129.6c11-2.5 23-0.1 32.3 6.3-3.5-5.9-8.3-11.5-14.9-13.5-6.6-2-14.9 0.7-17.4 7.2z"/>
						</g>
						<g id="&lt;Group&gt;">
							<path id="&lt;Path&gt;" class="s9" d="m217 171.6c3.9 0 7 3.2 7 7 0 3.9-3.1 7-7 7-3.9 0-7-3.1-7-7 0-3.8 3.1-7 7-7z"/>
							<path id="&lt;Path&gt;" class="s9" d="m303.2 173.8c3.8 0 7 3.1 7 7 0 3.8-3.2 7-7 7-3.9 0-7-3.2-7-7 0-3.9 3.1-7 7-7z"/>
						</g>
						<g id="&lt;Group&gt;">
							<path id="&lt;Path&gt;" class="s10" d="m275.6 177.4c1 2.3 0.8 4.8-0.4 6.7"/>
							<path id="&lt;Path&gt;" class="s11" d="m243.9 195c2.6 5.5 7.7 9.8 13.6 11.2 5.9 1.4 12.4 0 17.2-3.7 1.8-1.5 3.5-3.4 3.9-5.7 0.4-2.3-0.9-5-3.2-5.6-2.3-0.5-4.5 1.1-6.8 1.6-2.6 0.6-5.3-0.2-7.7-1.4-2.4-1.2-4.6-2.8-7.1-3.7-2.5-1-5.5-1.3-7.8 0.1-2.3 1.4-3.2 4.6-2.1 7.2z"/>
						</g>
					</g>
					<g id="&lt;Group&gt;">
						<path id="&lt;Path&gt;" class="s8" d="m299.9 46.8c0 0 25.8 10 36.9 47.2 9.5 31.7-0.7 61.8-0.7 61.8 0 0 4-74.6-39.1-98z"/>
						<path id="&lt;Path&gt;" class="s8" d="m217 63.2c0 0-14.3 32-30.9 39.3-13.6 5.9-7.6 69.1-7.6 69.1l-16.1-10.6c0 0-11.9-41.2-2.5-72.7 8.3-27.7 24.9-40.3 42.2-40.3z"/>
						<g id="&lt;Group&gt;">
							<path id="&lt;Path&gt;" class="s8" d="m310 48c0 0 0 0 0 0q-0.1 1.3-0.4 2.5c-1.6 6.7-6.6 12.9-18 16-63.8 17.7-101.3-13.4-101.3-13.4 0 0 0.7-9 11.6-17.3 6-4.5 15.1-8.8 28.7-11.4 30.8-5.8 55.7-13.3 51.2-24 0 0 17.1 11.9 10.5 32.8 0.8-0.1 7.1-1.4 8.5-13.7 0 0 10.8 15 9.2 28.5z"/>
							<path id="&lt;Path&gt;" class="s12" d="m310 48c0 0 0 0 0 0q-0.1 1.3-0.4 2.5c-0.3-8.7-1.9-16.9-7.2-21.9-3.3 6.8-10.6 11.5-18.2 11.6 5.5-8.9 5.7-20.8 0.7-29.9-10.6 12.5-26.5 15.7-41.7 18.3-9.5 1.6-19.2 1.8-28.6 3.6-4.3 0.8-8.6 1.9-12.7 3.6 6-4.5 15.1-8.8 28.7-11.4 30.8-5.8 55.7-13.3 51.2-24 0 0 17.1 11.9 10.5 32.8 0.8-0.1 7.1-1.4 8.5-13.7 0 0 10.8 15 9.2 28.5z"/>
						</g>
					</g>
					<path id="&lt;Path&gt;" class="s2" d="m144 169.5c3.1-9.5 16-13.7 28.9-9.5 12.8 4.2 20.8 15.3 17.7 24.7-3.1 9.5-16.1 13.7-28.9 9.5-12.9-4.2-20.8-15.3-17.7-24.7z"/>
				</g>
			</g>
		</g>
	</g>
</svg>