<svg version="1.2" xmlns="http://www.w3.org/2000/svg" viewBox="0 0 784 58" width="784" height="58">
	<title>3463232_63023-ai</title>
	<style>
		.s0 { fill: #768766 } 
		.s1 { fill: #dac492 } 
	</style>
	<g id="objects">
		<g id="&lt;Group&gt;">
			<path id="&lt;Path&gt;" class="s0" d="m780 30.4c-4.9 0-7.2-1.9-10.1-4.3-3.2-2.6-7.3-6-14.9-6-7.6 0-11.7 3.4-14.9 6-2.9 2.4-5.2 4.3-10.1 4.3-5 0-7.3-1.9-10.2-4.3-3.2-2.6-7.3-6-14.9-6-7.6 0-11.7 3.4-14.9 6-2.9 2.4-5.2 4.3-10.1 4.3-4.9 0-7.2-1.9-10.1-4.3-3.3-2.6-7.4-6-15-6-7.6 0-11.6 3.4-14.9 6-2.9 2.4-5.2 4.3-10.1 4.3-4.9 0-7.2-1.9-10.1-4.3-3.3-2.6-7.3-6-14.9-6-7.7 0-11.7 3.4-15 6-2.9 2.4-5.2 4.3-10.1 4.3-4.9 0-7.2-1.9-10.1-4.3-3.2-2.6-7.3-6-14.9-6-7.6 0-11.7 3.4-14.9 6-2.9 2.4-5.2 4.3-10.1 4.3-5 0-7.3-1.9-10.2-4.3-3.2-2.6-7.3-6-14.9-6-7.6 0-11.6 3.4-14.9 6-2.9 2.4-5.2 4.3-10.1 4.3-4.9 0-7.2-1.9-10.1-4.3-3.3-2.6-7.3-6-14.9-6-7.7 0-11.7 3.4-15 6-2.9 2.4-5.2 4.3-10.1 4.3-4.9 0-7.2-1.9-10.1-4.3-3.3-2.6-7.3-6-14.9-6-7.6 0-11.7 3.4-14.9 6-3 2.4-5.3 4.3-10.2 4.3-4.9 0-7.2-1.9-10.1-4.3-3.2-2.6-7.3-6-14.9-6-7.6 0-11.7 3.4-14.9 6-2.9 2.4-5.2 4.3-10.1 4.3-4.9 0-7.2-1.9-10.1-4.3-3.3-2.6-7.3-6-15-6-7.6 0-11.6 3.4-14.9 6-2.9 2.4-5.2 4.3-10.1 4.3-4.9 0-7.2-1.9-10.1-4.3-3.3-2.6-7.3-6-14.9-6-7.6 0-11.7 3.4-14.9 6-3 2.4-5.3 4.3-10.2 4.3-4.9 0-7.2-1.9-10.1-4.3-3.2-2.6-7.3-6-14.9-6-7.6 0-11.7 3.4-14.9 6-2.9 2.4-5.2 4.3-10.1 4.3-4.9 0-7.2-1.9-10.1-4.3-3.3-2.6-7.3-6-15-6-7.6 0-11.6 3.4-14.9 6-2.9 2.4-5.2 4.3-10.1 4.3-4.9 0-7.2-1.9-10.1-4.3-3.3-2.6-7.3-6-14.9-6-7.6 0-11.7 3.4-14.9 6-2.9 2.4-5.2 4.3-10.1 4.3-5 0-7.2-1.9-10.2-4.3-3.2-2.6-7.3-6-14.9-6-7.6 0-11.6 3.4-14.9 6-2.9 2.4-5.2 4.3-10.1 4.3-4.9 0-7.2-1.9-10.1-4.3-3.3-2.6-7.3-6-14.9-6-2.1 0-3.8 1.7-3.8 3.8 0 2.1 1.7 3.8 3.8 3.8 4.9 0 7.2 1.9 10.1 4.3 3.2 2.7 7.3 6 14.9 6 7.6 0 11.7-3.3 14.9-6 2.9-2.4 5.2-4.3 10.1-4.3 4.9 0 7.2 1.9 10.1 4.3 3.3 2.7 7.3 6 15 6 7.6 0 11.6-3.3 14.9-6 2.9-2.4 5.2-4.3 10.1-4.3 4.9 0 7.2 1.9 10.1 4.3 3.3 2.7 7.3 6 14.9 6 7.6 0 11.7-3.3 14.9-6 2.9-2.4 5.2-4.3 10.1-4.3 5 0 7.3 1.9 10.2 4.3 3.2 2.7 7.3 6 14.9 6 7.6 0 11.6-3.3 14.9-6 2.9-2.4 5.2-4.3 10.1-4.3 4.9 0 7.2 1.9 10.1 4.3 3.3 2.7 7.3 6 14.9 6 7.7 0 11.7-3.3 15-6 2.9-2.4 5.2-4.3 10.1-4.3 4.9 0 7.2 1.9 10.1 4.3 3.2 2.7 7.3 6 14.9 6 7.6 0 11.7-3.3 14.9-6 2.9-2.4 5.2-4.3 10.1-4.3 4.9 0 7.2 1.9 10.2 4.3 3.2 2.7 7.3 6 14.9 6 7.6 0 11.6-3.3 14.9-6 2.9-2.4 5.2-4.3 10.1-4.3 4.9 0 7.2 1.9 10.1 4.3 3.3 2.7 7.3 6 14.9 6 7.7 0 11.7-3.3 15-6 2.9-2.4 5.2-4.3 10.1-4.3 4.9 0 7.2 1.9 10.1 4.3 3.3 2.7 7.3 6 14.9 6 7.6 0 11.7-3.3 14.9-6 2.9-2.4 5.2-4.3 10.2-4.3 4.9 0 7.2 1.9 10.1 4.3 3.2 2.7 7.3 6 14.9 6 7.6 0 11.7-3.3 14.9-6 2.9-2.4 5.2-4.3 10.1-4.3 4.9 0 7.2 1.9 10.1 4.3 3.3 2.7 7.3 6 15 6 7.6 0 11.6-3.3 14.9-6 2.9-2.4 5.2-4.3 10.1-4.3 4.9 0 7.2 1.9 10.1 4.3 3.3 2.7 7.3 6 14.9 6 7.6 0 11.7-3.3 14.9-6 3-2.4 5.3-4.3 10.2-4.3 4.9 0 7.2 1.9 10.1 4.3 3.2 2.7 7.3 6 14.9 6 7.6 0 11.7-3.3 14.9-6 2.9-2.4 5.2-4.3 10.1-4.3 4.9 0 7.2 1.9 10.1 4.3 3.3 2.7 7.4 6 15 6 7.6 0 11.6-3.3 14.9-6 2.9-2.4 5.2-4.3 10.1-4.3 4.9 0 7.2 1.9 10.1 4.3 3.3 2.7 7.3 6 15 6 7.6 0 11.6-3.3 14.9-6 2.9-2.4 5.2-4.3 10.1-4.3 4.9 0 7.2 1.9 10.1 4.3 3.3 2.7 7.3 6 14.9 6 2.1 0 3.8-1.7 3.8-3.8 0-2.1-1.7-3.8-3.8-3.8z"/>
			<path id="&lt;Path&gt;" class="s1" d="m780 49.9c-4.9 0-7.2-1.9-10.1-4.3-3.2-2.6-7.3-5.9-14.9-5.9-7.6 0-11.7 3.3-14.9 5.9-2.9 2.4-5.2 4.3-10.1 4.3-5 0-7.3-1.9-10.2-4.3-3.2-2.6-7.3-5.9-14.9-5.9-7.6 0-11.7 3.3-14.9 5.9-2.9 2.4-5.2 4.3-10.1 4.3-4.9 0-7.2-1.9-10.1-4.3-3.3-2.6-7.4-5.9-15-5.9-7.6 0-11.6 3.3-14.9 5.9-2.9 2.4-5.2 4.3-10.1 4.3-4.9 0-7.2-1.9-10.1-4.3-3.3-2.6-7.3-5.9-14.9-5.9-7.7 0-11.7 3.3-15 5.9-2.9 2.4-5.2 4.3-10.1 4.3-4.9 0-7.2-1.9-10.1-4.3-3.2-2.6-7.3-5.9-14.9-5.9-7.6 0-11.7 3.3-14.9 5.9-2.9 2.4-5.2 4.3-10.1 4.3-5 0-7.3-1.9-10.2-4.3-3.2-2.6-7.3-5.9-14.9-5.9-7.6 0-11.6 3.3-14.9 5.9-2.9 2.4-5.2 4.3-10.1 4.3-4.9 0-7.2-1.9-10.1-4.3-3.3-2.6-7.3-5.9-14.9-5.9-7.7 0-11.7 3.3-15 5.9-2.9 2.4-5.2 4.3-10.1 4.3-4.9 0-7.2-1.9-10.1-4.3-3.3-2.6-7.3-5.9-14.9-5.9-7.6 0-11.7 3.3-14.9 5.9-3 2.4-5.3 4.3-10.2 4.3-4.9 0-7.2-1.9-10.1-4.3-3.2-2.6-7.3-5.9-14.9-5.9-7.6 0-11.7 3.3-14.9 5.9-2.9 2.4-5.2 4.3-10.1 4.3-4.9 0-7.2-1.9-10.1-4.3-3.3-2.6-7.3-5.9-15-5.9-7.6 0-11.6 3.3-14.9 5.9-2.9 2.4-5.2 4.3-10.1 4.3-4.9 0-7.2-1.9-10.1-4.3-3.3-2.6-7.3-5.9-14.9-5.9-7.6 0-11.7 3.3-14.9 5.9-3 2.4-5.3 4.3-10.2 4.3-4.9 0-7.2-1.9-10.1-4.3-3.2-2.6-7.3-5.9-14.9-5.9-7.6 0-11.7 3.3-14.9 5.9-2.9 2.4-5.2 4.3-10.1 4.3-4.9 0-7.2-1.9-10.1-4.3-3.3-2.6-7.3-5.9-15-5.9-7.6 0-11.6 3.3-14.9 5.9-2.9 2.4-5.2 4.3-10.1 4.3-4.9 0-7.2-1.9-10.1-4.3-3.3-2.6-7.3-5.9-14.9-5.9-7.6 0-11.7 3.3-14.9 5.9-2.9 2.4-5.2 4.3-10.1 4.3-5 0-7.2-1.9-10.2-4.3-3.2-2.6-7.3-5.9-14.9-5.9-7.6 0-11.6 3.3-14.9 5.9-2.9 2.4-5.2 4.3-10.1 4.3-4.9 0-7.2-1.9-10.1-4.3-3.3-2.6-7.3-5.9-14.9-5.9-2.1 0-3.8 1.7-3.8 3.8 0 2 1.7 3.7 3.8 3.7 4.9 0 7.2 1.9 10.1 4.3 3.2 2.7 7.3 6 14.9 6 7.6 0 11.7-3.3 14.9-6 2.9-2.4 5.2-4.3 10.1-4.3 4.9 0 7.2 1.9 10.1 4.3 3.3 2.7 7.3 6 15 6 7.6 0 11.6-3.3 14.9-6 2.9-2.4 5.2-4.3 10.1-4.3 4.9 0 7.2 1.9 10.1 4.3 3.3 2.7 7.3 6 14.9 6 7.6 0 11.7-3.3 14.9-6 2.9-2.4 5.2-4.3 10.1-4.3 5 0 7.3 1.9 10.2 4.3 3.2 2.7 7.3 6 14.9 6 7.6 0 11.6-3.3 14.9-6 2.9-2.4 5.2-4.3 10.1-4.3 4.9 0 7.2 1.9 10.1 4.3 3.3 2.7 7.3 6 14.9 6 7.7 0 11.7-3.3 15-6 2.9-2.4 5.2-4.3 10.1-4.3 4.9 0 7.2 1.9 10.1 4.3 3.2 2.7 7.3 6 14.9 6 7.6 0 11.7-3.3 14.9-6 2.9-2.4 5.2-4.3 10.1-4.3 4.9 0 7.2 1.9 10.2 4.3 3.2 2.7 7.3 6 14.9 6 7.6 0 11.6-3.3 14.9-6 2.9-2.4 5.2-4.3 10.1-4.3 4.9 0 7.2 1.9 10.1 4.3 3.3 2.7 7.3 6 14.9 6 7.7 0 11.7-3.3 15-6 2.9-2.4 5.2-4.3 10.1-4.3 4.9 0 7.2 1.9 10.1 4.3 3.3 2.7 7.3 6 14.9 6 7.6 0 11.7-3.3 14.9-6 2.9-2.4 5.2-4.3 10.2-4.3 4.9 0 7.2 1.9 10.1 4.3 3.2 2.7 7.3 6 14.9 6 7.6 0 11.7-3.3 14.9-6 2.9-2.4 5.2-4.3 10.1-4.3 4.9 0 7.2 1.9 10.1 4.3 3.3 2.7 7.3 6 15 6 7.6 0 11.6-3.3 14.9-6 2.9-2.4 5.2-4.3 10.1-4.3 4.9 0 7.2 1.9 10.1 4.3 3.3 2.7 7.3 6 14.9 6 7.6 0 11.7-3.3 14.9-6 3-2.4 5.3-4.3 10.2-4.3 4.9 0 7.2 1.9 10.1 4.3 3.2 2.7 7.3 6 14.9 6 7.6 0 11.7-3.3 14.9-6 2.9-2.4 5.2-4.3 10.1-4.3 4.9 0 7.2 1.9 10.1 4.3 3.3 2.7 7.4 6 15 6 7.6 0 11.6-3.3 14.9-6 2.9-2.4 5.2-4.3 10.1-4.3 4.9 0 7.2 1.9 10.1 4.3 3.3 2.7 7.3 6 15 6 7.6 0 11.6-3.3 14.9-6 2.9-2.4 5.2-4.3 10.1-4.3 4.9 0 7.2 1.9 10.1 4.3 3.3 2.7 7.3 6 14.9 6 2.1 0 3.8-1.7 3.8-3.8 0-2.1-1.7-3.8-3.8-3.8z"/>
			<path id="&lt;Path&gt;" class="s1" d="m780 10.9c-4.9 0-7.2-1.9-10.1-4.3-3.2-2.7-7.3-6-14.9-6-7.6 0-11.7 3.3-14.9 6-2.9 2.4-5.2 4.3-10.1 4.3-5 0-7.3-1.9-10.2-4.3-3.2-2.7-7.3-6-14.9-6-7.6 0-11.7 3.3-14.9 6-2.9 2.4-5.2 4.3-10.1 4.3-4.9 0-7.2-1.9-10.1-4.3-3.3-2.7-7.4-6-15-6-7.6 0-11.6 3.3-14.9 6-2.9 2.4-5.2 4.3-10.1 4.3-4.9 0-7.2-1.9-10.1-4.3-3.3-2.7-7.3-6-14.9-6-7.7 0-11.7 3.3-15 6-2.9 2.4-5.2 4.3-10.1 4.3-4.9 0-7.2-1.9-10.1-4.3-3.2-2.7-7.3-6-14.9-6-7.6 0-11.7 3.3-14.9 6-2.9 2.4-5.2 4.3-10.1 4.3-5 0-7.3-1.9-10.2-4.3-3.2-2.7-7.3-6-14.9-6-7.6 0-11.6 3.3-14.9 6-2.9 2.4-5.2 4.3-10.1 4.3-4.9 0-7.2-1.9-10.1-4.3-3.3-2.7-7.3-6-14.9-6-7.7 0-11.7 3.3-15 6-2.9 2.4-5.2 4.3-10.1 4.3-4.9 0-7.2-1.9-10.1-4.3-3.3-2.7-7.3-6-14.9-6-7.6 0-11.7 3.3-14.9 6-3 2.4-5.3 4.3-10.2 4.3-4.9 0-7.2-1.9-10.1-4.3-3.2-2.7-7.3-6-14.9-6-7.6 0-11.7 3.3-14.9 6-2.9 2.4-5.2 4.3-10.1 4.3-4.9 0-7.2-1.9-10.1-4.3-3.3-2.7-7.3-6-15-6-7.6 0-11.6 3.3-14.9 6-2.9 2.4-5.2 4.3-10.1 4.3-4.9 0-7.2-1.9-10.1-4.3-3.3-2.7-7.3-6-14.9-6-7.6 0-11.7 3.3-14.9 6-3 2.4-5.3 4.3-10.2 4.3-4.9 0-7.2-1.9-10.1-4.3-3.2-2.7-7.3-6-14.9-6-7.6 0-11.7 3.3-14.9 6-2.9 2.4-5.2 4.3-10.1 4.3-4.9 0-7.2-1.9-10.1-4.3-3.3-2.7-7.3-6-15-6-7.6 0-11.6 3.3-14.9 6-2.9 2.4-5.2 4.3-10.1 4.3-4.9 0-7.2-1.9-10.1-4.3-3.3-2.7-7.3-6-14.9-6-7.6 0-11.7 3.3-14.9 6-2.9 2.4-5.2 4.3-10.1 4.3-5 0-7.2-1.9-10.2-4.3-3.2-2.7-7.3-6-14.9-6-7.6 0-11.6 3.3-14.9 6-2.9 2.4-5.2 4.3-10.1 4.3-4.9 0-7.2-1.9-10.1-4.3-3.3-2.7-7.3-6-14.9-6-2.1 0-3.8 1.7-3.8 3.8 0 2.1 1.7 3.8 3.8 3.8 4.9 0 7.2 1.9 10.1 4.3 3.2 2.6 7.3 6 14.9 6 7.6 0 11.7-3.4 14.9-6 2.9-2.4 5.2-4.3 10.1-4.3 4.9 0 7.2 1.9 10.1 4.3 3.3 2.6 7.3 6 15 6 7.6 0 11.6-3.4 14.9-6 2.9-2.4 5.2-4.3 10.1-4.3 4.9 0 7.2 1.9 10.1 4.3 3.3 2.6 7.3 6 14.9 6 7.6 0 11.7-3.4 14.9-6 2.9-2.4 5.2-4.3 10.1-4.3 5 0 7.3 1.9 10.2 4.3 3.2 2.6 7.3 6 14.9 6 7.6 0 11.6-3.4 14.9-6 2.9-2.4 5.2-4.3 10.1-4.3 4.9 0 7.2 1.9 10.1 4.3 3.3 2.6 7.3 6 14.9 6 7.7 0 11.7-3.4 15-6 2.9-2.4 5.2-4.3 10.1-4.3 4.9 0 7.2 1.9 10.1 4.3 3.2 2.6 7.3 6 14.9 6 7.6 0 11.7-3.4 14.9-6 2.9-2.4 5.2-4.3 10.1-4.3 4.9 0 7.2 1.9 10.2 4.3 3.2 2.6 7.3 6 14.9 6 7.6 0 11.6-3.4 14.9-6 2.9-2.4 5.2-4.3 10.1-4.3 4.9 0 7.2 1.9 10.1 4.3 3.3 2.6 7.3 6 14.9 6 7.7 0 11.7-3.4 15-6 2.9-2.4 5.2-4.3 10.1-4.3 4.9 0 7.2 1.9 10.1 4.3 3.3 2.6 7.3 6 14.9 6 7.6 0 11.7-3.4 14.9-6 2.9-2.4 5.2-4.3 10.2-4.3 4.9 0 7.2 1.9 10.1 4.3 3.2 2.6 7.3 6 14.9 6 7.6 0 11.7-3.4 14.9-6 2.9-2.4 5.2-4.3 10.1-4.3 4.9 0 7.2 1.9 10.1 4.3 3.3 2.6 7.3 6 15 6 7.6 0 11.6-3.4 14.9-6 2.9-2.4 5.2-4.3 10.1-4.3 4.9 0 7.2 1.9 10.1 4.3 3.3 2.6 7.3 6 14.9 6 7.6 0 11.7-3.4 14.9-6 3-2.4 5.3-4.3 10.2-4.3 4.9 0 7.2 1.9 10.1 4.3 3.2 2.6 7.3 6 14.9 6 7.6 0 11.7-3.4 14.9-6 2.9-2.4 5.2-4.3 10.1-4.3 4.9 0 7.2 1.9 10.1 4.3 3.3 2.6 7.4 6 15 6 7.6 0 11.6-3.4 14.9-6 2.9-2.4 5.2-4.3 10.1-4.3 4.9 0 7.2 1.9 10.1 4.3 3.3 2.6 7.3 6 15 6 7.6 0 11.6-3.4 14.9-6 2.9-2.4 5.2-4.3 10.1-4.3 4.9 0 7.2 1.9 10.1 4.3 3.3 2.6 7.3 6 14.9 6 2.1 0 3.8-1.7 3.8-3.8 0-2.1-1.7-3.8-3.8-3.8z"/>
		</g>
	</g>
</svg>