<svg version="1.2" xmlns="http://www.w3.org/2000/svg" viewBox="0 0 259 240" width="259" height="240">
	<title>3603061_67640-ai</title>
	<style>
		.s0 { fill: #ffafbf } 
		.s1 { fill: #ffd8d1 } 
		.s2 { fill: #ff7b9e } 
		.s3 { fill: #b2dbdb } 
		.s4 { fill: #ffe6ee } 
		.s5 { opacity: .1;fill: #2d2d2d } 
		.s6 { fill: #514f50 } 
		.s7 { fill: #ffffff } 
		.s8 { fill: #2d2d2d } 
	</style>
	<g id="object">
		<g id="&lt;Group&gt;">
			<g id="&lt;Group&gt;">
				<path id="&lt;Path&gt;" class="s0" d="m49.7 66.4c-1.1-0.5-2.4-0.2-3.2 0.6 0-1.1-0.7-2.2-1.8-2.7-1.5-0.6-3.2 0-3.9 1.5-1.7 4.1 2.5 8.6 2.5 8.6 0 0 6.2-0.2 7.9-4.1 0.7-1.5 0-3.2-1.5-3.9z"/>
				<g id="&lt;Group&gt;">
					<g id="&lt;Group&gt;">
						<g id="&lt;Group&gt;">
							<g id="&lt;Group&gt;">
								<path id="&lt;Path&gt;" class="s1" d="m60.2 21.7c-1-0.7-2.3-1.2-3.5-1.6-6.5-1.9-13.6-0.8-19.7 2.1-4.5 2.1-8.6 5.2-13.4 6.9-3.9 1.4-8.1 1.9-12.2 1.4-2.3-0.3-4.4-0.9-6.6-1.5 4.7 5.2 10.8 9.1 17.5 11.1 6.7 2 13.9 2.1 20.7 0.4 4.4-1.2 8.6-3.1 12-6.1 3.1-2.7 5.4-6.2 6.4-10.2q-0.4-1.2-1.2-2.5z"/>
							</g>
						</g>
						<g id="&lt;Group&gt;">
							<g id="&lt;Group&gt;">
								<path id="&lt;Path&gt;" class="s0" d="m60.2 21.7c-1-0.7-2.3-1.2-3.5-1.6-6.5-1.9-13.6-0.8-19.7 2.1-4.5 2.1-8.6 5.2-13.4 6.9-3.9 1.4-8.1 1.9-12.2 1.4-2.3-0.3-4.4-0.9-6.6-1.5 4.7 5.2 10.8 9.1 17.5 11.1 6.7 2 13.9 2.1 20.7 0.4 4.4-1.2 8.6-3.1 12-6.1 3.1-2.7 5.4-6.2 6.4-10.2q-0.4-1.2-1.2-2.5z"/>
							</g>
						</g>
						<g id="&lt;Group&gt;">
							<path id="&lt;Path&gt;" class="s2" d="m31.1 32.6c5-0.7 9.2-2.3 13.8-4.5 4.6-2.1 11-4.7 16.4-3.9q-0.3-1.3-1.1-2.5c-1-0.7-2.3-1.2-3.5-1.6-6.5-1.9-13.6-0.8-19.7 2.1-4.5 2.1-8.6 5.2-13.4 6.9-3.9 1.4-8.1 1.9-12.2 1.4-2.3-0.3-4.4-0.9-6.6-1.5q1.2 1.3 2.5 2.5c2.1 1.1 4.5 1.5 6.9 1.7 5.6 0.5 11.3 0.2 16.9-0.6z"/>
						</g>
						<g id="&lt;Group&gt;">
						</g>
						<g id="&lt;Group&gt;">
							<path id="&lt;Path&gt;" class="s3" d="m43.1 31.1c-8.6 4.1-16.7 7.9-26.1 7q2.6 1.2 5.3 2c6.7 2 13.9 2.1 20.7 0.4 4.4-1.2 8.6-3.1 12-6.1 2.5-2.2 4.5-5 5.7-8.1-5.8-1.2-12.7 2.4-17.6 4.8z"/>
						</g>
					</g>
					<g id="&lt;Group&gt;">
						<g id="&lt;Group&gt;">
							<path id="&lt;Path&gt;" class="s2" d="m117.8 80.5c-1.3-2.7-1.4-5.7-1.2-8.7 0.1-2.9 0.6-5.9 0.5-8.8-0.1-3.4-1-6.7-2.2-9.9-1.4-3.6-3.4-7.2-6.7-9.3-2.6-1.7-5.9-2.3-8.6-4-3.9-2.5-5.8-7-8.6-10.7-6.7-8.6-19-12.2-29.2-8.5l0.4-0.3c-2.1 0.3-3.9 2.1-4.4 4.2-0.6 2.1-0.2 4.4 0.6 6.4 2.8 6.8 9.6 11 16.1 14.3 6.6 3.3 13.7 6.4 18 12.4 1.6 2.2 2.8 4.6 4.1 7 1.5 2.8 3.2 5.5 5 8.1 2 3 4.2 6 7 8.4 2 1.9 4.3 3.4 6.8 4.5 2.9 1.3 6.7 2 9.2-0.1-3-0.1-5.6-2.3-6.8-5z"/>
						</g>
						<g id="&lt;Group&gt;">
							<path id="&lt;Compound Path&gt;" fill-rule="evenodd" class="s0" d="m70.6 36.9c-3.2-3.2-7.2-4.9-11.7-5q-0.3-0.5-0.5-1c-0.8-2-1.2-4.1-0.7-6.1q0.2-0.2 0.5-0.2c7.7-2.1 16.2 0 21.9 5.7 3.1 3.2 5 7.3 8.5 10.3 3.7 3.2 8 4.5 12.6 5.9 8.7 2.8 12 10.1 12.6 18.7 0.4 4.7-0.5 10.5 1.7 14.9 1.1 2.2 3 3.4 5.2 4 1.1 0.8 2.5 1.4 3.9 1.4-2.5 2.1-6.3 1.4-9.2 0.1-2.5-1.1-4.8-2.6-6.8-4.5q-1.2-1-2.2-2.1-1.6-4.1-2.5-8.5c-0.1-0.7 0-1.3 0.4-1.8q0-0.1-0.1-0.1-1-1.8-1.6-3.8-1.2-2-2.4-4.1-0.8-1.4-1.6-2.9-0.1-0.1-0.2-0.3-1.6-0.9-3.2-1.9-0.8-0.4-1.6-1c-0.9-0.6-1.2-1.4-1.1-2.1q-0.1 0-0.1 0c-0.8 0.4-1.8 0.3-2.7-0.4q-5.2-4.4-10.4-8.7c-0.8 0.2-1.6 0.1-2.3-0.7q-1.3-1.7-2.6-3.4-0.8-0.7-1.6-1.3-0.2-0.2-0.4-0.5c-0.6 0.1-1.3-0.1-1.8-0.6zm27.6 13.6q0.2 0.1 0.4 0.2 0 0 0.1 0-0.2-0.1-0.5-0.2zm-29.4-21.3q-0.7-0.2-1.4-0.3 0.5 0.2 1 0.5 0.2-0.1 0.4-0.2z"/>
						</g>
						<g id="&lt;Group&gt;">
							<path id="&lt;Compound Path&gt;" class="s3" d="m98.9 63.6c1.9 2.4 3.4 5.1 4.7 8 0.4 2.1 0.9 4.2 1.7 6.2q1.5 1.8 3.3 3.3c2 1.9 4.3 3.4 6.8 4.5 2.9 1.3 6.7 2 9.2-0.1q-0.8 0-1.5-0.2c-3.9 0.6-8 0.3-10-3.7-2.1-4.6-1.9-10.3-3.3-15.1-2.1-7.5-6.9-14.6-14.2-17.8-4.3-1.9-8.5-2.1-12-5.5-2.8-2.8-5-6.1-7.7-8.9-4.9-5.3-11.4-8-18.4-8 0 1.6 0.3 3.1 0.9 4.6q0.3 0.6 0.6 1.2 0.4 0.1 0.9 0.2 0.1 0.3 0.5 0.5c1.7 0.9 3.7 1.7 5.6 2.6q0 0.2 0.2 0.4 0.9 0.8 1.9 1.5c2.2 2.5 4.7 4.7 7.5 6.6 0.2 0.2 0.5 0.2 0.7 0.2q0.3 0.3 0.6 0.6c0.2 0.3 0.5 0.3 0.8 0.3q2.2 2.2 4.8 3.9 0.3 0.2 0.6 0.2 0.5 0.3 1 0.6-0.2 0.1-0.4 0.3c3.4 2 6.5 4.4 8.8 7.6q0.4 0.4 0.7 0.9c2.1 1.4 4 3 5.7 5.1z"/>
							<path id="&lt;Path&gt;" class="s3" d="m68.4 34.2q-0.1 0-0.2-0.1 0.1 0 0.1 0 0.1 0 0.1 0.1 0 0 0 0z"/>
						</g>
					</g>
				</g>
				<g id="&lt;Group&gt;">
					<g id="&lt;Group&gt;">
						<path id="&lt;Path&gt;" class="s2" d="m236.5 134.3c-0.7-4.3-0.4-8.6-1-12.9-1.3-9.4-7.3-18.2-15-20.8-3.5-1.1-7.3-1-10.8-0.2-5.5 1.3-10.6 4.2-13.2 8.8-0.4 0.8-0.8 1.7-1.1 2.5q-0.5 1.8-0.4 3.8c0.2 0.5 0.3 1.2 0.2 1.8 0.2 0.6 0.3 1.3 0.4 2 1.6 3.9 3.4 7 7.5 9.2q1 0.6 2.1 1.1c2.1 0.6 4.3 0.9 6.3 2 5.7 3.1 8.3 11.3 12.8 16.7 3.5 4 8.1 6.4 12.8 7.2 4.6 0.7 9.3-0.1 13.7-1.8-7.1-2.8-12.8-10.6-14.3-19.4z"/>
					</g>
					<g id="&lt;Group&gt;">
						<path id="&lt;Compound Path&gt;" fill-rule="evenodd" class="s0" d="m250.8 153.7c-2.1 0.8-4.3 1.4-6.6 1.7-1.9-0.5-3.8-1.2-5.7-2.3-5.6-3-11.2-7.2-15-12.3-4.1-5.5-4.2-13.2-10-17.3-5.3-3.8-11.9-5.7-18.3-6.5q0.1-0.8-0.2-1.5-0.1-1.9 0.4-3.7c0.3-0.9 0.7-1.7 1.1-2.6 1.6-2.8 4.1-4.9 7-6.5 5 1.4 9.6 4.5 13.2 8 3.3 3.3 5.7 7 6.9 11.4 1 3.6 1.2 7.6 2.3 11.2q0.6 1.6 1.4 3.1 0.4 0.9 0.9 1.7 0.2 0.3 0.5 0.6 0.3 0.5 0.4 0.9 0.6 0.9 1.2 1.7c3.9 4.7 8.3 9.4 14 11.5q2.8 0.9 6.1 0.7 0.2 0.1 0.4 0.2zm-50-38q-0.1 0-0.1 0-1-0.2-1.9-0.5-0.3 0-0.6 0 0.3 0 0.6 0.1 1 0.2 2 0.4z"/>
						<path id="&lt;Path&gt;" class="s0" d="m212.1 113.5q0 0 0 0 0.1 0.1 0.2 0.2-0.1-0.1-0.2-0.2z"/>
					</g>
					<g id="&lt;Group&gt;">
						<path id="&lt;Path&gt;" class="s3" d="m250.7 153.6c-4 1-9.5 1-12.7-1.3-3.1-2.1-6.1-5.1-8.8-7.7-5.4-5.2-6.5-12.4-10.7-18.4-3.6-5.3-9.7-8-15.9-9.1-2-0.4-4.8-1-7.5-1.1q0.2 0.6 0.1 1.3c0.2 0.6 0.3 1.3 0.4 2 0.6 1.4 1.2 2.7 1.9 3.8 2.3 0.4 4.5 1.1 6.8 1.9 5.2 1.9 10.3 3.6 12.9 8.9 1.2 2.6 2 5.4 2.9 8.1 1.3 2.2 2.6 4.4 4.2 6.3 3.5 4 8.1 6.4 12.8 7.2 4.6 0.7 9.3-0.1 13.7-1.8q-0.1-0.1-0.1-0.1z"/>
					</g>
				</g>
				<g id="&lt;Group&gt;">
					<path id="&lt;Path&gt;" class="s4" d="m76.2 136.3c0.5 3.9 3.4 8.8 4.7 10.7 3.1 4.7 2.4 6.9 2.4 6.9l-18 30.9-7.4 12.6 14.9 11.8 14.3 5 3.7-9.3 2.7-6.8 13.5-34c0 0 12.4 9 30.5 10.9 18 1.8 33-3.2 33-3.2l10.7 24.9 5.9 14 2.1 4.7 30.4-17.5-6.6-11-18.3-30.6c0 0 18-8.8 16.2-36.1-1.9-27.4-20-36.7-44.2-35.5-24.3 1.3-48.6 3.2-48.6 3.2 0 0-19.3-35.5-31.1-46-11.8-10.6-24.9-14.9-24.9-14.9 0 0 5.9-14.6 0.3-23.5-3.5-5.6-15.7-4.5-16.1 2.7 0.5 11.8 2.1 21.2 2.1 21.2 0 0-2.4 5-11.6 10.6-6.1 3.6-14.6 6-21.7 9.8-20.1 10.9-17 33.3-8.3 45.1 8.7 11.9 26.1 10 37.9 6.9 11.9-3.2 19.9-9.4 19.9-9.4 0 0 4.4-1.3 6.1 10.6 1.6 11.9 4.5 30.1 5.5 35.3z"/>
					<g id="&lt;Group&gt;">
						<path id="&lt;Path&gt;" class="s0" d="m67.1 181.6l-1.8 3.2-7.4 12.6 14.9 11.8 11.3 3.9h3.5l3.2-8.2 2.7-6.8 1.9-4.8c-3.2-0.6-7.5-1.6-12.8-3-6.7-1.7-11.9-5.3-15.5-8.7z"/>
					</g>
					<g id="&lt;Group&gt;">
						<path id="&lt;Path&gt;" class="s0" d="m180.8 196l0.4 0.7 5.9 14 2.1 4.7 30.4-17.5-6.6-11-3.2-5.4c-2.5 2.1-5.9 4.7-10.4 7.9-6.4 4.6-13.4 6.1-18.6 6.6z"/>
					</g>
				</g>
				<g id="&lt;Group&gt;">
					<path id="&lt;Path&gt;" class="s0" d="m34.1 71c-4.3-6.5-9.5-12.6-16.3-16.6-2.4-1.4-5.1-2.5-7.8-3.2-14.3 11.6-11.1 31.1-3.2 41.7 8.3 11.3 24.6 10.1 36.3 7.3 0.4-2.7 0.3-5.4-0.1-8.1-1.2-7.6-4.7-14.6-8.9-21.1z"/>
				</g>
				<path id="&lt;Path&gt;" class="s5" d="m190.8 88.2c-6.8-2.9-15-3.9-24.1-3.5-13.9 0.8-27.8 1.7-37.1 2.3-4.4 0.8-6.7 1.3-6.7 1.3 0 0-1.7 9.1 2.2 23.1 4.8 16.9 22.1 23 22.1 23l0.8 40.9c6.7-0.1 12.5-1.1 16.5-1.9l0.4-39.1c0 0 10.9-1.8 19.5-14.6 7.6-11.2 6.8-27.2 6.4-31.5z"/>
				<path id="&lt;Path&gt;" class="s3" d="m28.4 202.2c66.5 50.4 158.7 50.3 225-0.2 5.9-4.5 6.7-12.9 1.8-18.4q-0.1-0.1-0.2-0.2c-4.4-5-11.8-5.7-17.1-1.7-57.2 43.5-136.7 43.6-193.9 0.1-5.3-4-12.8-3.2-17.2 1.7q-0.1 0.1-0.2 0.2c-4.8 5.5-4 14 1.8 18.5z"/>
				<path id="&lt;Path&gt;" class="s2" d="m185.9 86.6c0 0 2.6 19.5-6.3 32.6-8.6 12.8-19.4 14.7-19.4 14.7l-0.5 40.3c0 0-3.8 0.7-7.9 0.9-6.3 0.3-8.6 0.2-8.6 0.2l-0.8-41.4c0 0-17.3-6.1-22.1-23-3.9-13.9-2.2-23-2.2-23 0 0 14.4-3.6 38.1-4.2 23.6-0.6 29.7 2.9 29.7 2.9z"/>
				<path id="&lt;Path&gt;" class="s0" d="m156.2 83.7c8.5-0.2 14.7 0.1 19.2 0.6 0.8 7.5 0.5 19.7-6.7 27.1-9.9 10.3-27.2 9.4-33.8-4.2-3.8-8-4.8-16-5.1-21.4 6.5-0.9 15.5-1.8 26.4-2.1z"/>
				<path id="&lt;Path&gt;" class="s0" d="m61.6 8.2c-1.3-1.6-4.4-1.7-6.1-0.8-2.4 1.3-2.8 4.2-2.7 6.6q0.2 2.7 0.6 5.3c0 2.6 0.2 6 1.4 7.4 4.3 4.4 6.7-9.4 6.9-10.8 0.3-2.2 1.4-5.8-0.1-7.7z"/>
				<path id="&lt;Path&gt;" class="s0" d="m49.7 66.4c-1.1-0.5-2.4-0.2-3.2 0.6 0-1.1-0.7-2.2-1.8-2.7-1.5-0.6-3.2 0-3.9 1.5-1.7 4.1 2.5 8.6 2.5 8.6 0 0 6.2-0.2 7.9-4.1 0.7-1.5 0-3.2-1.5-3.9z"/>
				<path id="&lt;Path&gt;" class="s6" d="m17 72.3c0 1.2-0.9 2.2-2.1 2.2-1.2 0-2.1-1-2.1-2.2 0-1.1 0.9-2.1 2.1-2.1 1.2 0 2.1 1 2.1 2.1z"/>
				<path id="&lt;Path&gt;" class="s6" d="m37.4 51.1c-1.2 0.6-0.2 2.4 1 1.8 3.5-1.9 7.3 0.9 6.8 4.7-0.1 1.4 1.9 1.4 2.1 0 0.6-5.5-5.2-9.1-9.9-6.5z"/>
				<g id="&lt;Group&gt;">
					<g id="&lt;Group&gt;">
						<g id="&lt;Group&gt;">
							<path id="&lt;Path&gt;" class="s2" d="m38.6 41.6c1.3-1.2 1.9-2.8 2.1-4.4-6.7-10.5-13.9-20.6-21.6-30.4-1.1-1.4-2.2-2.8-3.8-3.4 0.4 4.5 1.9 8.8 3.5 12.9q5.4 14 11.3 27.7c3.2 0.4 6.1 0.1 8.5-2.4z"/>
						</g>
					</g>
					<g id="&lt;Group&gt;">
						<path id="&lt;Path&gt;" class="s7" d="m21.5 9.9q-1.2 3.5-2.5 6.9 0.8 2 1.6 3.9 1.4-4 2.9-8.1-1-1.4-2-2.7z"/>
						<path id="&lt;Path&gt;" class="s7" d="m27.2 17.6q-1.8 5.4-3.5 11 0.8 2 1.6 4 1.9-6.1 3.9-12.3-1-1.4-2-2.7z"/>
						<path id="&lt;Path&gt;" class="s7" d="m34.2 27.5q-2.3 7.7-4.6 15.4 0.2 0.5 0.5 1.1 1 0.1 2 0.1 2.1-6.8 4.1-13.7-1-1.4-2-2.9z"/>
					</g>
				</g>
				<g id="&lt;Group&gt;">
					<g id="&lt;Group&gt;" style="opacity: .1">
						<path id="&lt;Path&gt;" class="s8" d="m76.3 87.9c3.8-4.9 7-10.4 8.7-16.3 0.5-1.8 0.9-3.7 0.1-5.4-2.1 4-5.1 7.5-8.1 10.9q-3.4 3.8-6.8 7.6c-2.8 3.1-5.7 6.2-9.5 8.1l0.1 0.2c2.4-1.5 3.8-2.6 3.8-2.6 0 0 2.9-0.8 4.8 5 2.5-2.4 4.8-4.9 6.9-7.5z"/>
					</g>
				</g>
			</g>
		</g>
	</g>
</svg>