<svg version="1.2" xmlns="http://www.w3.org/2000/svg" viewBox="0 0 1106 821" width="1106" height="821">
	<title>84494636_9972218-ai</title>
	<style>
		.s0 { opacity: .5;mix-blend-mode: multiply;fill: #7c93e4 } 
		.s1 { fill: #f2d97e } 
		.s2 { opacity: .5;mix-blend-mode: multiply;fill: #f2d97e } 
		.s3 { fill: #ffffff } 
		.s4 { opacity: .1;mix-blend-mode: multiply;fill: #df76b9 } 
		.s5 { fill: #e8a3bb } 
		.s6 { opacity: .5;mix-blend-mode: multiply;fill: #e8a3bb } 
		.s7 { fill: none;stroke: #462c6e;stroke-linecap: round;stroke-linejoin: round;stroke-width: 2 } 
		.s8 { fill: #462c6e } 
		.s9 { fill: #f7e3d8 } 
		.s10 { opacity: .5;mix-blend-mode: multiply;fill: #f7e3d8 } 
		.s11 { fill: #7c93e4 } 
		.s12 { opacity: .6;fill: #e8a3bb } 
		.s13 { fill: #df76b9 } 
		.s14 { opacity: .5;mix-blend-mode: multiply;fill: #df76b9 } 
		.s15 { fill: #faf1ce } 
		.s16 { opacity: .5;mix-blend-mode: multiply;fill: #faf1ce } 
		.s17 { fill: none;stroke: #462c6e;stroke-linecap: round;stroke-linejoin: round;stroke-width: 2.2 } 
		.s18 { fill: none;stroke: #ffffff;stroke-linecap: round;stroke-miterlimit:10;stroke-width: 2 } 
	</style>
	<g id="OBJECTS">
		<g id="&lt;Group&gt;">
			<path id="&lt;Path&gt;" class="s0" d="m968.7 754.4c-33.5 0-64.2 2-87.7 5.3-30.2 4.2-60.7 5-91 2.1-50-4.6-113.9-7.4-183.5-7.4-73 0-139.8 3.1-190.8 8.1-32 3.2-64.2 2.3-95.9-2.4-23.9-3.6-55.6-5.7-90.5-5.7-74.1 0-134.2 9.7-134.2 21.8 0 12 60.1 21.8 134.2 21.8 11.1 0 21.8-0.3 32.1-0.7 31.9-1.2 63.9 1.4 95.2 7.4 50.8 9.8 143.7 16.3 249.9 16.3 105.8 0 198.4-6.5 249.2-16.1 29.6-5.7 59.7-8.1 89.8-7.3q11.3 0.4 23.2 0.4c74.2 0 134.3-9.8 134.3-21.8 0-12.1-60.1-21.8-134.3-21.8z"/>
			<g id="&lt;Group&gt;">
				<path id="&lt;Path&gt;" class="s1" d="m843.9 595.9c-6.6-33.7 42.1-42.1 27.2-61.8-8.4-11.1-4.9-23.4 10.3-24.9 5.8-0.1 12.7 3.6 13 9.4 1.8 38.1 33-6.2 57 33.6"/>
				<path id="&lt;Path&gt;" class="s2" d="m934.2 536.1c-19 15.3-45.4 21.8-70.3 20.6-10.1 9.4-23.7 20.4-20 39.2l107.5-43.7c-5.5-9.2-11.4-13.8-17.2-16.1z"/>
				<path id="&lt;Path&gt;" class="s3" d="m857 644.1c12.8 32.7 25.2 64.5 39.1 96.4 6.7 15.4 15 32.1 30.6 38.5 10.6 4.2 22.6 2.8 33.7 0 18.9-4.7 37-13.1 52.8-24.5 5.2-3.7 10.3-8.1 12.8-14 3.8-9.2 0.2-19.7-3.4-29.1-14.6-37.2-31.2-77.1-46.2-114.1"/>
				<path id="&lt;Path&gt;" class="s4" d="m892.5 630.2l-35.5 13.9c12.8 32.7 25.2 64.5 39.1 96.4 6.7 15.4 15 32.1 30.6 38.5 10.6 4.2 22.6 2.8 33.7 0 18.9-4.7 37-13.1 52.8-24.5 2.2-1.6 4.5-3.3 6.5-5.3-20.3-0.8-39.9-6.5-55.2-17.1-37.1-23.8-61.8-62.3-72-101.9z"/>
				<path id="&lt;Path&gt;" class="s5" d="m846.5 632.6l-5.6-13.8c-4.7-11.5 0.9-24.6 12.4-29.2l88.4-35.9c11.5-4.6 24.6 0.9 29.2 12.4l5.7 13.9c4.6 11.5-0.9 24.5-12.4 29.2l-88.5 35.8c-11.5 4.7-24.5-0.9-29.2-12.4z"/>
				<path id="&lt;Path&gt;" class="s6" d="m970.9 566.1q-0.5-1.4-1.3-2.6c-37.8 29.7-83.3 53.6-130 50.7q0.4 2.3 1.3 4.6l5.6 13.8c4.7 11.5 17.7 17.1 29.2 12.4l88.5-35.8c11.5-4.7 17-17.7 12.4-29.2z"/>
				<path id="&lt;Path&gt;" class="s7" d="m846.5 632.6l-5.6-13.8c-4.7-11.5 0.9-24.6 12.4-29.2l88.4-35.9c11.5-4.6 24.6 0.9 29.2 12.4l5.7 13.9c4.6 11.5-0.9 24.5-12.4 29.2l-88.5 35.8c-11.5 4.7-24.5-0.9-29.2-12.4z"/>
				<path id="&lt;Path&gt;" class="s7" d="m843.9 595.9c-6.6-33.7 42.1-42.1 27.2-61.8-8.4-11.1-4.9-23.4 10.3-24.9 5.8-0.1 12.7 3.6 13 9.4 1.8 38.1 33-6.2 57 33.6"/>
				<path id="&lt;Path&gt;" class="s7" d="m855.3 589.4c-1.4 10.1 0.6 20.6 4.8 29.9 4.2 9.3 10.5 17.6 17.8 24.8"/>
				<path id="&lt;Path&gt;" class="s7" d="m877.7 579.7c-0.1 13 6.1 25.1 12.3 36.6 3.2 6.1 6.7 12.5 12.1 16.9"/>
				<path id="&lt;Path&gt;" class="s7" d="m924.6 624.4q-11.1-27.1-22.2-54.2"/>
				<path id="&lt;Path&gt;" class="s7" d="m923.8 562c10.2 16.2 17.9 34.1 22.7 52.7"/>
				<path id="&lt;Path&gt;" class="s7" d="m947.8 552.4c9.2 8.1 12.9 20.8 16.1 32.7 2 7.4 4 14 4.8 21.6"/>
				<path id="&lt;Path&gt;" class="s7" d="m857 644.1c12.8 32.7 25.2 64.5 39.1 96.4 6.7 15.4 15 32.1 30.6 38.5 10.6 4.2 22.6 2.8 33.7 0 18.9-4.7 37-13.1 52.8-24.5 5.2-3.7 10.3-8.1 12.8-14 3.8-9.2 0.2-19.7-3.4-29.1-14.6-37.2-31.2-77.1-46.2-114.1"/>
				<path id="&lt;Path&gt;" class="s7" d="m928.9 636.9q22.5 58.9 45.1 117.7"/>
				<path id="&lt;Path&gt;" class="s7" d="m921.6 654.3q20.2-7.3 39.6-16.3"/>
				<path id="&lt;Path&gt;" class="s7" d="m929.4 676.3q19.7-8.5 39.3-17"/>
				<path id="&lt;Path&gt;" class="s7" d="m941.6 700.1c11.7-4.3 23.1-9.3 34.1-15"/>
				<path id="&lt;Path&gt;" class="s7" d="m948.1 726.4q16.5-6.3 33-12.7"/>
				<path id="&lt;Path&gt;" class="s7" d="m925.8 759.1c3 3.6 6.6 6.8 11 8.4 4.3 1.6 9.6 1.3 13.2-1.7"/>
				<path id="&lt;Path&gt;" class="s7" d="m973.3 616.7q6.1 15.4 13.5 30.1"/>
			</g>
			<g id="&lt;Group&gt;">
				<path id="&lt;Path&gt;" class="s1" d="m147.2 665.9c-10.8-5.6-18-16.8-20.7-28.7-2.7-11.8-1.1-24.4 2.5-36 8-25.7 25.9-48.9 50-61 44.1-22.1 125.1-0.4 131.6 66.3 2.7 28-15.3 54.7-34 75.6"/>
				<path id="&lt;Path&gt;" class="s1" d="m299 651.5c5.1-2.8 11.3-3.8 17.1-2.6 0.9-16.8 21.8-18.4 15.5-4.9 4.5-13.7 23.8-1.7 13.6 8.4 12-11.6 21.2 10.9 6.4 16.3 19.7 34.5-6 76.3-64.5 97.9-79.3 29.3-191.9-18.3-143.6-101.3"/>
				<path id="&lt;Path&gt;" class="s2" d="m359.1 657q-1.4 4.5-3 8.9c2.5-2.5 3.4-5.8 3-8.9z"/>
				<path id="&lt;Path&gt;" class="s2" d="m353.5 672.5c-14.2 34.8-38.3 63.4-82.8 72.7-54.4 9-107.2-19.4-134.7-64-26.1 73.1 77.1 112.7 151.1 85.4 56.4-20.8 82.2-60.4 66.4-94.1z"/>
				<path id="&lt;Path&gt;" class="s5" d="m205.6 622.5c-6.5-0.9-13 1.6-18.5 5.2-2.5 1.7-5 3.8-6.2 6.6-1.2 2.8-0.8 6.5 1.5 8.4 1 0.8 2.1 1.2 3.2 1.5 4.7 1.6 9.7 2.3 14.6 2.2 2.1 0 4.4-0.2 6.1-1.5 1.5-1.2 2.4-3.1 3-5 1.6-5.6 0.9-11.9-3.7-17.4z"/>
				<path id="&lt;Path&gt;" class="s6" d="m205.6 622.5c-1.1-0.2-2.3-0.2-3.5-0.2-1.7 9.2-7.3 17-14.8 22.4 4.2 1.2 8.6 1.8 12.9 1.7 2.1 0 4.4-0.2 6.1-1.5 1.5-1.2 2.4-3.1 3-5 1.6-5.6 0.9-11.9-3.7-17.4z"/>
				<path id="&lt;Path&gt;" class="s5" d="m227.8 611c-3.6 9.9 9.4 7.1 12.5 6.1 0.4 2.1 2 4 4.2 4.9-0.9-1.3-1.1-3-0.5-4.3 1.2 1.4 3.5 1.9 5.3 1.2-1.3-0.7-4.1-3.7-3.8-6.8-11.5 4.5-16 2.6-17.7-1.1z"/>
				<path id="&lt;Path&gt;" class="s5" d="m185.2 604.2c0.4 10.6-11.1 3.9-13.8 1.9-1 1.9-3.1 3.3-5.4 3.4 1.2-0.9 1.9-2.4 1.7-3.9-1.6 1-4 0.8-5.3-0.5 1.3-0.2 4.9-2.2 5.6-5.3 9.6 7.9 14.4 7.4 17.2 4.4z"/>
				<path id="&lt;Path&gt;" class="s5" d="m202.9 532.4c-3.4-3.3-3.8-9.2-1-12.9 2.8-3.8 8.6-5 12.7-2.7 2 1.1 3.6 3.2 3.4 5.5 1.5-7.8 7.8-14.5 15.6-16.4 2.7-0.7 5.7-0.7 8.3 0.4 4.7 2.1 7 7.8 6.7 13-0.3 5.1-2.7 9.9-5.1 14.6"/>
				<path id="&lt;Path&gt;" class="s6" d="m248.6 519.3c0.3-5.2-2-10.9-6.7-13q-1-0.4-2-0.6c-8.9 13.9-23.7 19.4-39.8 20.8 0.3 2.2 1.2 4.3 2.8 5.9l40.6 1.5c2.4-4.7 4.8-9.5 5.1-14.6z"/>
				<path id="&lt;Path&gt;" class="s1" d="m247.1 712.1c-4 7.1-1.6 16.8 4.6 22 6.2 5.3 15.5 6.1 23.1 3 10.5-4.3 17.4-16.3 15.8-27.6 8.4 1.8 16.9-3.7 22.2-10.6 1.3-1.6 2.4-3.4 2.8-5.5 0.4-2-0.1-4.4-1.8-5.6-1.8-1.3-4.3-1-6.5-0.4-3.8 1-7.5 2.7-10.8 5"/>
				<path id="&lt;Path&gt;" class="s2" d="m307.1 696.5c-22.8-0.7-25.9 18.8-41.7 27.8-6.6 3.1-13.9 1.6-20.1-3 0.3 4.9 2.7 9.7 6.4 12.8 6.2 5.3 15.5 6.1 23.1 3 10.5-4.3 17.4-16.3 15.8-27.6 8.4 1.8 16.9-3.7 22.2-10.6 1.3-1.6 2.4-3.4 2.8-5.5q0.1-0.6 0.1-1.2c-2.5 3-5.6 4.8-8.6 4.3z"/>
				<path id="&lt;Path&gt;" class="s7" d="m205.6 622.5c-6.5-0.9-13 1.6-18.5 5.2-2.5 1.7-5 3.8-6.2 6.6-1.2 2.8-0.8 6.5 1.5 8.4 1 0.8 2.1 1.2 3.2 1.5 4.7 1.6 9.7 2.3 14.6 2.2 2.1 0 4.4-0.2 6.1-1.5 1.5-1.2 2.4-3.1 3-5 1.6-5.6 0.9-11.9-3.7-17.4z"/>
				<path id="&lt;Path&gt;" class="s7" d="m182.1 638.3c5 2.6 10.9 2.9 16.5 2.4 3.8-0.3 7.8-1.1 10.7-3.7"/>
				<path id="&lt;Path&gt;" class="s7" d="m147.2 665.9c-10.8-5.6-18-16.8-20.7-28.7-2.7-11.8-1.1-24.4 2.5-36 8-25.7 25.9-48.9 50-61 44.1-22.1 125.1-0.4 131.6 66.3 2.7 28-15.3 54.7-34 75.6"/>
				<path id="&lt;Path&gt;" class="s7" d="m299 651.5c5.1-2.8 11.3-3.8 17.1-2.6 0.9-16.8 21.8-18.4 15.5-4.9 4.5-13.7 23.8-1.7 13.6 8.4 12-11.6 21.2 10.9 6.4 16.3 19.7 34.5-6 76.3-64.5 97.9-79.3 29.3-191.9-18.3-143.6-101.3"/>
				<path id="&lt;Path&gt;" class="s8" d="m227.8 611c-3.6 9.9 9.4 7.1 12.5 6.1 0.4 2.1 2 4 4.2 4.9-0.9-1.3-1.1-3-0.5-4.3 1.2 1.4 3.5 1.9 5.3 1.2-1.3-0.7-4.1-3.7-3.8-6.8-11.5 4.5-16 2.6-17.7-1.1z"/>
				<path id="&lt;Path&gt;" class="s8" d="m185.2 604.2c0.4 10.6-11.1 3.9-13.8 1.9-1 1.9-3.1 3.3-5.4 3.4 1.2-0.9 1.9-2.4 1.7-3.9-1.6 1-4 0.8-5.3-0.5 1.3-0.2 4.9-2.2 5.6-5.3 9.6 7.9 14.4 7.4 17.2 4.4z"/>
				<path id="&lt;Path&gt;" class="s7" d="m202.9 532.4c-3.4-3.3-3.8-9.2-1-12.9 2.8-3.8 8.6-5 12.7-2.7 2 1.1 3.6 3.2 3.4 5.5 1.5-7.8 7.8-14.5 15.6-16.4 2.7-0.7 5.7-0.7 8.3 0.4 4.7 2.1 7 7.8 6.7 13-0.3 5.1-2.7 9.9-5.1 14.6"/>
				<path id="&lt;Path&gt;" class="s7" d="m247.1 712.1c-4 7.1-1.6 16.8 4.6 22 6.2 5.3 15.5 6.1 23.1 3 10.5-4.3 17.4-16.3 15.8-27.6 8.4 1.8 16.9-3.7 22.2-10.6 1.3-1.6 2.4-3.4 2.8-5.5 0.4-2-0.1-4.4-1.8-5.6-1.8-1.3-4.3-1-6.5-0.4-3.8 1-7.5 2.7-10.8 5"/>
				<path id="&lt;Path&gt;" class="s2" d="m159.6 622.2c-0.5 3.7-5.9 6-12 5-6-0.9-10.5-4.7-9.9-8.5 0.6-3.8 6-6 12.1-5.1 6 1 10.4 4.8 9.8 8.6z"/>
				<path id="&lt;Path&gt;" class="s2" d="m265.2 641.4c-0.6 3.7-6 6-12.1 5.1-6-1-10.4-4.8-9.9-8.6 0.6-3.7 6-6 12.1-5.1 6 1 10.5 4.8 9.9 8.6z"/>
			</g>
			<g id="&lt;Group&gt;">
				<path id="&lt;Path&gt;" class="s8" d="m510.1 638.6l178.1-106.7 13.9 23.1-178.1 106.8z"/>
				<path id="&lt;Path&gt;" class="s8" d="m669.8 640.9l-178.2-106.7-13.9 23.2 178.2 106.7z"/>
				<path id="&lt;Path&gt;" class="s3" d="m327.5 393.3v-47.2h538.9v47.2c0 92.1-74.6 166.7-166.6 166.7h-205.7c-92 0-166.6-74.6-166.6-166.7z"/>
				<path id="&lt;Path&gt;" class="s4" d="m569.9 512.3c-83.9-23.3-176.6-73.1-165.1-166.2h-77.3v47.2c0 92.1 74.6 166.7 166.6 166.7h205.7c48.1 0 91.4-20.5 121.9-53.1-81.7 18.8-165.9 25.5-251.8 5.4z"/>
				<g id="&lt;Group&gt;">
					<path id="&lt;Path&gt;" class="s5" d="m643.2 122.4c-17.4-9.8-39.3-8.6-59-8.7-16.5 0-31.1 4.4-46.6 8.5-5.5 1.5-8.9 6.9-7.7 12.5 8.3 39.3 21.9 78.5 52.9 104.7"/>
					<path id="&lt;Path&gt;" class="s6" d="m643.2 122.4c-17.4-9.8-39.3-8.6-59-8.7-16.5 0-31.1 4.4-46.6 8.5-5.5 1.5-8.9 6.9-7.7 12.5 8.3 39.3 21.9 78.5 52.9 104.7"/>
					<path id="&lt;Path&gt;" class="s9" d="m584.9 257.7c-15.9-67.4 32-136.4 106.9-154.1 75-17.7 148.6 22.6 164.6 90 15.9 67.5-32 136.5-106.9 154.2-75 17.6-148.7-22.7-164.6-90.1z"/>
					<path id="&lt;Path&gt;" class="s10" d="m644.4 334.3c29.9 16.5 67.3 22.4 105.1 13.5 52.8-12.5 92.1-50.5 105.2-95.4-47.8 64.9-133 100.1-210.3 81.9z"/>
					<path id="&lt;Path&gt;" class="s5" d="m748 100.9c11.5-16.3 31.9-24.6 49.7-33 14.9-7.1 30-9.4 45.8-12.3 5.5-1 11 2.5 12.3 8.1 9.2 39 13.6 80.3-3.2 117.2l4.2 11.2c-1.5 7.2-8.2 12.2-14.8 15.6-2.8 1.4-5.7 2.6-8.7 3.5-13.2 3.9-28.3 0.2-38.1-9.3-4.8-4.6-8.4-10.4-14.1-13.8-3.4-2.1-7.4-3.1-11.3-3.9-6.8-1.4-13.7-2.4-20.6-1.7-6.5 0.7-12.7 2.8-19.2 3.5-19.4 2.1-39.4-9.8-47.2-27.7-7.9-17.9-3.4-40.2 10.2-54.2l25.5-4.7z"/>
					<path id="&lt;Path&gt;" class="s6" d="m855.8 63.7c-1.3-5.6-6.8-9.1-12.3-8.1q-1.7 0.3-3.4 0.6c8.8 38.9-1.8 82.2 13.9 121.3 15.1-36 10.7-75.9 1.8-113.8z"/>
					<path id="&lt;Path&gt;" class="s8" d="m741.6 284.8c-5.4-0.2-10.8 1.2-15.4 3.9-1 0.6-2.1 1.4-2.1 2.5-0.1 1 0.6 1.9 1.3 2.6 2.8 2.9 6.3 5.1 10.2 6.4 0.7 0.2 1.4 0.4 2.2 0.3 0.9-0.2 1.6-1 2.2-1.7 2.7-3.4 3.6-7.8 4.6-12 0.1-0.8 0.2-1.9-3-2z"/>
					<path id="&lt;Path&gt;" class="s5" d="m702.7 269c-1.6 4.8-6 8.4-10.8 9.6-4.7 1.2-9.8 0.3-14.3-1.6-3.5-1.5-7.2-3.7-11-2.8-3.1 0.9-5.3 3.7-6.9 6.6-1.3 2.5-2.3 5.3-2.9 8.1 2.6-3.3 6-6.1 9.8-7.9-1.2 2.9-0.3 6.5 2 8.4 0.5-1.6 1.1-3.4 2.6-4.4 2.6-1.7 5.8 0.4 8.6 1.7 5.1 2.4 11.5 1.6 16.1-1.8 4.5-3.5 7.2-9.6 6.8-15.9z"/>
					<path id="&lt;Path&gt;" class="s5" d="m751.3 254.2c3.1 4 8.5 5.9 13.4 5.5 4.9-0.4 9.3-2.9 12.9-6.2 2.9-2.6 5.6-5.9 9.5-6.2 3.2-0.3 6.3 1.6 8.7 3.9 2.1 1.9 3.9 4.2 5.4 6.6-3.6-2.2-7.7-3.7-11.8-4.2 2 2.4 2.4 6 0.9 8.6-1.1-1.4-2.3-2.8-3.9-3.3-3.1-0.8-5.4 2.3-7.6 4.5-4.1 3.9-10.3 5.3-15.8 3.5-5.5-1.8-10-6.6-11.7-12.7z"/>
					<path id="&lt;Path&gt;" class="s5" d="m754.2 308.8c-0.2 2.9-0.3 4.9-2 7.3-1.7 2.4-4.1 4.3-7 5-1.2 0.3-2.5 0.4-3.8 0.3-3.7-0.2-7.6-1.8-9.2-5.2l6.4-11.8 9.4 5.5z"/>
					<path id="&lt;Path&gt;" class="s11" d="m836.9 106.4c-0.3-0.7-1.1-1.3-1.8-1 0.9-5.2 0.6-10.6-0.7-15.7-19 0.4-38.4 5.2-49.4 21.5l8.2 3.6c8.5 3.7 16.2 8.9 23 15.2l11.3 10.6c8.8-10.8 6.9-17.9 9.4-31.9 0.1-0.7 0.3-1.5 0-2.3z"/>
					<path id="&lt;Path&gt;" class="s0" d="m836.9 106.4c-0.3-0.7-1.1-1.3-1.8-1 0.9-5.2 0.6-10.6-0.7-15.7q-3.1 0.1-6.2 0.3c2.4 16.5 2.3 33.4-8 45.6l7.3 5c8.8-10.8 6.9-17.9 9.4-31.9 0.1-0.7 0.3-1.5 0-2.3z"/>
					<path id="&lt;Path&gt;" class="s11" d="m614.1 147.5c-16.8-10-36.4-6.1-53.8 1.7 1 5.1 3.1 10.1 6.1 14.5-0.8 0-1.3 0.9-1.2 1.6 0.1 0.8 0.5 1.5 1 2.1 8.2 11.5 9.5 18.8 22.1 24.9"/>
					<path id="&lt;Path&gt;" class="s12" d="m665.3 308.8c1.3 5.6-5.8 12.1-16 14.5-10.2 2.4-19.6-0.2-20.9-5.8-1.3-5.6 5.9-12.1 16.1-14.5 10.2-2.4 19.5 0.1 20.8 5.8z"/>
					<path id="&lt;Path&gt;" class="s12" d="m838.9 266.6c1.3 5.6-5.9 12.1-16.1 14.5-10.1 2.4-19.5-0.2-20.8-5.8-1.3-5.6 5.9-12.1 16.1-14.5 10.2-2.4 19.5 0.2 20.8 5.8z"/>
				</g>
				<path id="&lt;Path&gt;" class="s13" d="m327.5 346.1v-40.3c0-159.6 129.3-289 289-289v329.3z"/>
				<path id="&lt;Path&gt;" class="s14" d="m616.5 16.8c-17.4 0-34.4 1.6-50.9 4.5-4.5 138.8-95.4 263.8-215.7 324.8h266.6z"/>
				<path id="&lt;Path&gt;" class="s15" d="m327.5 346.1v-44.3h289v44.3z"/>
				<path id="&lt;Path&gt;" class="s16" d="m616.5 301.8h-185.6c-16.5 18.1-36.7 32.7-58.7 44.3h244.3z"/>
				<path id="&lt;Path&gt;" class="s15" d="m832.4 346.1c12.5-57.9 39.9-121.6 91-151.7 29.3-17.2 91.1-14 106.2 16.9 3.1 6.4 4.5 14 2.2 20.8-2.2 6.8-8.6 12.4-15.8 12.4-9.2 0-15.8-8.4-23.5-13.5-12.7-8.6-29.6-8.5-44.2-3.9-24.6 7.6-44.7 26.5-57.6 48.8-13 22.3-19.4 47.8-23.2 73.3-12.9-1.8-23.2 2.3-35.1-3.1z"/>
				<path id="&lt;Path&gt;" class="s16" d="m1021.3 200.5c-82.1-1.8-156.3 51.7-175.4 146 7.1 1.2 14.4 1.7 21.6 2.7 3.8-25.5 10.2-51 23.2-73.3 12.9-22.3 33-41.2 57.6-48.8 14.6-4.6 31.5-4.7 44.2 3.9 7.7 5.1 14.3 13.5 23.5 13.5 7.2 0 13.6-5.6 15.8-12.4 2.3-6.8 0.9-14.4-2.2-20.8-2-4.1-4.8-7.7-8.3-10.8z"/>
				<path id="&lt;Path&gt;" class="s5" d="m732.2 518.3c-7.9-4.3-15.2-9.9-21.5-16.4-4.7-4.9-8.9-10.6-9.9-17.2-1.1-6.7 2.1-14.4 8.5-16.6 4.9-1.7 10.6 0.2 14.5 3.7 3.9 3.5 6.5 8.3 8.6 13 2.8-7.2 7.7-13.6 14.1-18 3.6-2.5 8.3-4.5 12.5-2.9 3.2 1.3 5.4 4.4 6.3 7.8 1.5 5.4 0.1 11.4-2.7 16.4-2.7 4.9-6.7 9.1-10.6 13.2-5.8 6-11.5 12.1-19.8 17z"/>
				<path id="&lt;Path&gt;" class="s6" d="m765.3 471.7c-0.9-3.4-3.1-6.5-6.3-7.8-1.7-0.6-3.6-0.7-5.4-0.3-6.2 18.3-16.7 35.9-30.9 48.6 3.1 2.2 6.2 4.3 9.5 6.1 8.3-4.9 14-11 19.8-17 3.9-4.1 7.9-8.3 10.6-13.2 2.8-5 4.2-11 2.7-16.4z"/>
				<path id="&lt;Path&gt;" class="s5" d="m467.6 534.2c43.6 0 87.1 1.6 130.6 4.7"/>
				<path id="&lt;Compound Path&gt;" fill-rule="evenodd" class="s9" d="m539.3 694.4c0 46.1-35.8 83.5-79.9 83.5-44.1 0-79.9-37.4-79.9-83.5 0-46.2 35.8-83.6 79.9-83.6 44.1 0 79.9 37.4 79.9 83.6zm-24.3-0.9c0-32.1-24.9-58.2-55.6-58.2-30.7 0-55.6 26.1-55.6 58.2 0 32.1 24.9 58.2 55.6 58.2 30.7 0 55.6-26.1 55.6-58.2z"/>
				<path id="&lt;Path&gt;" class="s10" d="m497 736.3c-9.9 9.5-23.1 15.4-37.6 15.4-30.7 0-55.6-26.1-55.6-58.2 0-8.6 1.8-16.7 5-24.1-4-10.6-6.3-21.8-6.7-33.2-13.9 15-22.6 35.5-22.6 58.2 0 46.1 35.8 83.5 79.9 83.5 29.6 0 55.4-16.9 69.2-42-10.1 1.2-20.7 1.3-31.6 0.4z"/>
				<path id="&lt;Path&gt;" class="s8" d="m437.5 694.4c0-12.7 9.8-22.9 21.9-22.9 12.1 0 21.9 10.2 21.9 22.9 0 12.6-9.8 22.8-21.9 22.8-12.1 0-21.9-10.2-21.9-22.8z"/>
				<path id="&lt;Path&gt;" class="s5" d="m412.8 664.1l94.6 58.8"/>
				<path id="&lt;Path&gt;" class="s5" d="m412.8 725.2l94.6-61.1"/>
				<path id="&lt;Path&gt;" class="s5" d="m456.9 635.3l6.2 116.4"/>
				<path id="&lt;Compound Path&gt;" fill-rule="evenodd" class="s9" d="m800.3 696.7c0 46.1-35.7 83.6-79.8 83.6-44.2 0-79.9-37.5-79.9-83.6 0-46.2 35.7-83.6 79.9-83.6 44.1 0 79.8 37.4 79.8 83.6zm-24.2-0.9c0-32.1-24.9-58.1-55.6-58.1-30.7 0-55.6 26-55.6 58.1 0 32.2 24.9 58.2 55.6 58.2 30.7 0 55.6-26 55.6-58.2z"/>
				<path id="&lt;Path&gt;" class="s10" d="m720.5 754c-30.7 0-55.6-26-55.6-58.2 0-1.6 0.1-3.2 0.2-4.8-6.6-12-10.6-26.1-11-40.8-8.5 13.3-13.5 29.3-13.5 46.5 0 46.1 35.7 83.6 79.9 83.6 36.4 0 67-25.6 76.7-60.4-9.9 4.4-20.5 7.5-31.2 9.3-10.1 15-26.7 24.8-45.5 24.8z"/>
				<path id="&lt;Path&gt;" class="s8" d="m742.3 696.7c0-12.6-9.8-22.9-21.8-22.9-12.1 0-21.9 10.3-21.9 22.9 0 12.6 9.8 22.9 21.9 22.9 12 0 21.8-10.3 21.8-22.9z"/>
				<path id="&lt;Path&gt;" class="s5" d="m767.1 666.5l-94.6 58.7"/>
				<path id="&lt;Path&gt;" class="s5" d="m767.1 727.5l-94.6-61"/>
				<path id="&lt;Path&gt;" class="s5" d="m722.9 637.7l-6.1 116.3"/>
				<path id="&lt;Path&gt;" class="s11" d="m865.4 388.9c-3.4 9.5-12.6 16.7-22.6 17.7-10 1-20.4-4.2-25.6-12.9-4.3 13.8-17.6 24.2-32 25-14.4 0.9-28.8-7.9-34.7-21-6.3 8.5-15 15.8-25.3 17.5-10.4 1.7-22.3-3.7-25.5-13.7-6.8 14.8-23.6 24.3-39.8 22.5-16.1-1.8-30.4-14.8-33.8-30.7-5 13.4-18.8 23-33.1 22.9-14.2-0.1-28-9.8-32.8-23.2-2.4 14.1-15.5 25.5-29.8 26-14.3 0.4-28.2-10.1-31.5-24 0 13.1-15.1 21.1-28.2 21.3-17.2 0.2-35.5-9.7-39.8-26.3-4 13.9-17.9 24.3-32.4 24.2-14.4-0.1-28.2-10.7-32.1-24.6 0.2 8.3-4.8 16.6-12.3 20.3-7.5 3.6-19.7 1.7-26.1-3.5l-0.5-60.3h538.9z"/>
				<path id="&lt;Path&gt;" class="s0" d="m404.8 346.1h-77.3l0.5 60.3c6.4 5.2 18.6 7.1 26.1 3.5 7.5-3.7 12.5-12 12.3-20.3 3.9 13.9 17.7 24.5 32.1 24.6 5.7 0 11.3-1.6 16.3-4.4-9-18.6-12.9-39.7-10-63.7z"/>
				<path id="&lt;Path&gt;" class="s9" d="m831.8 320.8c-2.1-14-16.8-22.7-30-17.6-3.2 1.3-6.3 2.9-9.1 4.8-11.3 7.7-19.2 19.6-25.8 31.5q-5.7 10.2-9.8 21.1c-5.2 13.4-10.8 32.9 4.1 44 6.5 4.8 15 6 22.8 4.1 17.3-4.4 27.6-19.4 34.9-34.6q4.6-9.5 8.2-19.4c3-8.5 5.5-17.3 5.3-26.2 0-2.6-0.2-5.1-0.6-7.7z"/>
				<path id="&lt;Path&gt;" class="s10" d="m831.8 320.8c-1.2-7.5-5.9-13.4-12-16.5-4.2 38.8-26.6 75.6-64.9 93.3 1.5 2.6 3.5 4.9 6.3 7 6.5 4.8 15 6 22.8 4.1 17.3-4.4 27.6-19.4 34.9-34.6q4.6-9.5 8.2-19.4c3-8.5 5.5-17.3 5.3-26.2 0-2.6-0.2-5.1-0.6-7.7z"/>
				<path id="&lt;Path&gt;" class="s9" d="m619.5 330.7c2.1-14 16.8-22.7 30-17.6 3.2 1.2 6.3 2.8 9.1 4.7 11.3 7.7 19.2 19.7 25.8 31.5q5.7 10.2 9.8 21.1c5.2 13.5 10.8 32.9-4.1 44-6.5 4.9-15 6.1-22.8 4.1-17.3-4.3-27.5-19.4-34.9-34.5q-4.6-9.5-8.2-19.5c-3-8.4-5.5-17.2-5.3-26.2 0-2.5 0.3-5.1 0.6-7.6z"/>
				<path id="&lt;Path&gt;" class="s10" d="m634 313c-7.4 2.7-13.2 9.2-14.5 17.7-0.3 2.5-0.6 5.1-0.6 7.6-0.2 9 2.3 17.8 5.3 26.2q3.6 10 8.2 19.5c7.4 15.1 17.6 30.2 34.9 34.5 7.8 2 16.3 0.8 22.8-4.1 4.5-3.3 7.1-7.4 8.4-11.9-34.8-15.1-61-46-64.5-89.5z"/>
				<path id="&lt;Path&gt;" class="s5" d="m689.6 361.4c-13.5 0.2-25.3 8.3-36.1 16.3-5.7 4.2-11.7 8.8-14.5 15.3l6 11.6c0 0 11.6 10.9 19.3 12.5 7.7 1.6 15.3 2.3 15.3 2.3l11.4-4 8.7-13.9v-16.3l-6.7-16.8z"/>
				<path id="&lt;Path&gt;" class="s6" d="m658.9 373.8q-2.8 1.9-5.4 3.9c-5.7 4.2-11.7 8.8-14.5 15.3l6 11.6c0 0 11.6 10.9 19.3 12.5 7.7 1.6 15.3 2.3 15.3 2.3l11.4-4 8-12.7c-15.5-6.6-29.2-16.4-40.1-28.9z"/>
				<path id="&lt;Path&gt;" class="s1" d="m537.7 334.2c0-23 18.6-41.6 41.6-41.6 23 0 41.6 18.6 41.6 41.6 0 23-18.6 41.6-41.6 41.6-23 0-41.6-18.6-41.6-41.6z"/>
				<path id="&lt;Path&gt;" class="s2" d="m604.3 301c1.4 18.9-4.4 36.8-19.7 49.1-11.7 5.8-23.4 10.1-35.4 12.8 7.6 7.9 18.2 12.9 30.1 12.9 23 0 41.6-18.6 41.6-41.6 0-13.6-6.5-25.6-16.6-33.2z"/>
				<g id="&lt;Group&gt;">
					<path id="&lt;Path&gt;" class="s17" d="m741.6 284.8c-5.4-0.2-10.8 1.2-15.4 3.9-1 0.6-2.1 1.4-2.1 2.5-0.1 1 0.6 1.9 1.3 2.6 2.8 2.9 6.3 5.1 10.2 6.4 0.7 0.2 1.4 0.4 2.2 0.3 0.9-0.2 1.6-1 2.2-1.7 2.7-3.4 3.6-7.8 4.6-12 0.1-0.8 0.2-1.9-3-2z"/>
					<path id="&lt;Path&gt;" class="s17" d="m715.7 306.8c-2.1 1.9-2.1 5.3-0.5 7.6 1.6 2.3 4.4 3.4 7.2 3.7 4.3 0.4 8.8-1.2 11.9-4.3 3-3.1 4.6-7.6 4.2-12 0.9 5 6 8.4 11 8.2 5-0.3 9.5-3.6 12-8 0.8-1.3 1.4-2.7 1.5-4.1 0.3-2.8-1-5.7-3.3-7.3"/>
					<path id="&lt;Path&gt;" class="s8" d="m702.7 269c-1.6 4.8-6 8.4-10.8 9.6-4.7 1.2-9.8 0.3-14.3-1.6-3.5-1.5-7.2-3.7-11-2.8-3.1 0.9-5.3 3.7-6.9 6.6-1.3 2.5-2.3 5.3-2.9 8.1 2.6-3.3 6-6.1 9.8-7.9-1.2 2.9-0.3 6.5 2 8.4 0.5-1.6 1.1-3.4 2.6-4.4 2.6-1.7 5.8 0.4 8.6 1.7 5.1 2.4 11.5 1.6 16.1-1.8 4.5-3.5 7.2-9.6 6.8-15.9z"/>
					<path id="&lt;Path&gt;" class="s8" d="m751.3 254.2c3.1 4 8.5 5.9 13.4 5.5 4.9-0.4 9.3-2.9 12.9-6.2 2.9-2.6 5.6-5.9 9.5-6.2 3.2-0.3 6.3 1.6 8.7 3.9 2.1 1.9 3.9 4.2 5.4 6.6-3.6-2.2-7.7-3.7-11.8-4.2 2 2.4 2.4 6 0.9 8.6-1.1-1.4-2.3-2.8-3.9-3.3-3.1-0.8-5.4 2.3-7.6 4.5-4.1 3.9-10.3 5.3-15.8 3.5-5.5-1.8-10-6.6-11.7-12.7z"/>
					<path id="&lt;Path&gt;" class="s17" d="m732.2 316.2c1.6 3.4 5.5 5 9.2 5.2 1.3 0.1 2.6 0 3.8-0.3 2.9-0.7 5.3-2.6 7-5 1.7-2.4 1.8-4.4 2-7.3"/>
					<path id="&lt;Path&gt;" class="s17" d="m748 100.9c11.5-16.3 31.9-24.6 49.7-33 14.9-7.1 30-9.4 45.8-12.3 5.5-1 11 2.5 12.3 8.1 9.2 39 13.6 80.3-3.2 117.2"/>
					<path id="&lt;Path&gt;" class="s17" d="m785 111.2c11-16.3 30.4-21.1 49.4-21.5 1.3 5.1 1.6 10.5 0.7 15.7 0.7-0.3 1.5 0.3 1.8 1 0.3 0.8 0.1 1.6 0 2.3-2.5 14-0.6 21.1-9.4 31.9"/>
					<path id="&lt;Path&gt;" class="s17" d="m643.2 122.4c-8.1-4.6-17.3-6.8-26.7-7.8"/>
					<path id="&lt;Path&gt;" class="s17" d="m691.9 104.4c-13.6 14-18 36.4-10.1 54.2 7.8 17.9 27.7 29.9 47.1 27.7 6.5-0.7 12.8-2.8 19.3-3.5 6.8-0.7 13.8 0.3 20.5 1.7 4 0.9 7.9 1.9 11.4 4 5.6 3.4 9.3 9.2 14 13.8 9.9 9.5 25 13.2 38.1 9.3 3-0.9 5.9-2.2 8.7-3.6 6.7-3.3 13.3-8.3 14.9-15.6"/>
					<path id="&lt;Path&gt;" class="s17" d="m682.6 346.1h73.1c3.2-0.9 6.3-1.9 9.3-2.9 0.7-1.2 1.2-2.5 1.9-3.7 6.6-11.9 14.5-23.8 25.8-31.5 2.8-1.9 5.9-3.5 9.1-4.8 7.5-2.8 15.4-1.3 21.3 3.1 29.1-30.3 42.9-71.8 33.3-112.7-16-67.4-89.6-107.7-164.6-90-30.4 7.1-56.3 22.8-75.3 43.3v166.5c2.8 2.8 2.7 3 5.8 5.5"/>
				</g>
				<path id="&lt;Path&gt;" class="s17" d="m831.8 320.8c-2.1-14-16.8-22.7-30-17.6-3.2 1.3-6.3 2.9-9.1 4.8-11.3 7.7-19.2 19.6-25.8 31.5q-5.7 10.2-9.8 21.1c-5.2 13.4-10.8 32.9 4.1 44 6.5 4.8 15 6 22.8 4.1 17.3-4.4 27.6-19.4 34.9-34.6q4.6-9.5 8.2-19.4c3-8.5 5.5-17.3 5.3-26.2 0-2.6-0.2-5.1-0.6-7.7z"/>
				<path id="&lt;Path&gt;" class="s17" d="m760.3 401.2c3-8.8 6.8-17.3 11.4-25.4"/>
				<path id="&lt;Path&gt;" class="s17" d="m785.9 383.5c-5.5 7.4-11.1 14.9-13.6 23.7"/>
				<path id="&lt;Path&gt;" class="s17" d="m619.5 330.7c2.1-14 16.8-22.7 30-17.6 3.2 1.2 6.3 2.8 9.1 4.7 11.3 7.7 19.2 19.7 25.8 31.5q5.7 10.2 9.8 21.1c5.2 13.5 10.8 32.9-4.1 44-6.5 4.9-15 6.1-22.8 4.1-17.3-4.3-27.5-19.4-34.9-34.5q-4.6-9.5-8.2-19.5c-3-8.4-5.5-17.2-5.3-26.2 0-2.5 0.3-5.1 0.6-7.6z"/>
				<path id="&lt;Path&gt;" class="s17" d="m691 411c-3-8.8-6.8-17.3-11.4-25.4"/>
				<path id="&lt;Path&gt;" class="s17" d="m665.4 393.4c5.5 7.3 11.1 14.8 13.6 23.7"/>
				<path id="&lt;Path&gt;" class="s17" d="m639 393c2.8-6.5 8.8-11.1 14.5-15.3 10.8-8 22.6-16.1 36.1-16.3"/>
				<path id="&lt;Path&gt;" class="s17" d="m829.8 346.1q-1.2 4.4-2.7 8.6-3.6 9.9-8.2 19.4c-7.3 15.2-17.6 30.2-34.9 34.6-7.8 1.9-16.3 0.7-22.8-4.1-14.9-11.1-9.3-30.6-4.1-44 1.9-5 4.1-9.8 6.4-14.5h-80.9q0.9 1.6 1.8 3.2 5.7 10.2 9.8 21.1c5.2 13.5 10.8 32.9-4.1 44-6.5 4.9-15 6.1-22.8 4.1-17.3-4.3-27.5-19.4-34.9-34.5q-4.6-9.5-8.2-19.5c-2.1-5.9-3.9-12.1-4.8-18.4h-0.3c-5.1 17.2-21 29.7-39.8 29.7-18.9 0-34.8-12.5-39.9-29.7h-211.9v47.2c0 92.1 74.6 166.7 166.6 166.7h205.7c92 0 166.6-74.6 166.6-166.7v-47.2z"/>
				<path id="&lt;Path&gt;" class="s17" d="m537.7 334.2c0-23 18.6-41.6 41.6-41.6 16.3 0 30.3 9.3 37.2 23v-298.8c-159.7 0-289 129.4-289 289v40.3h211.9c-1.1-3.8-1.7-7.8-1.7-11.9z"/>
				<g id="&lt;Group&gt;">
					<path id="&lt;Path&gt;" class="s17" d="m616.5 315.6v-13.8h-11.2c4.7 3.7 8.5 8.4 11.2 13.8z"/>
					<path id="&lt;Path&gt;" class="s17" d="m537.7 334.2c0-13.1 6-24.8 15.5-32.4h-225.7v44.3h211.9c-1.1-3.8-1.7-7.8-1.7-11.9z"/>
				</g>
				<path id="&lt;Path&gt;" class="s17" d="m618.9 338.3c0-2.5 0.3-5.1 0.6-7.6 0.2-1.2 0.5-2.2 0.8-3.3-3.2-19.8-20.4-34.8-41-34.8-23 0-41.6 18.6-41.6 41.6 0 23 18.6 41.6 41.6 41.6 19 0 35.1-12.8 40-30.3-0.3-2.4-0.5-4.8-0.4-7.2z"/>
				<path id="&lt;Path&gt;" class="s17" d="m832.4 346.1c12.5-57.9 39.9-121.6 91-151.7 29.3-17.2 91.1-14 106.2 16.9 3.1 6.4 4.5 14 2.2 20.8-2.2 6.8-8.6 12.4-15.8 12.4-9.2 0-15.8-8.4-23.5-13.5-12.7-8.6-29.6-8.5-44.2-3.9-24.6 7.6-44.7 26.5-57.6 48.8-13 22.3-20.5 44.7-24.3 70.2 0 0-34 1.2-34 0z"/>
				<path id="&lt;Path&gt;" class="s17" d="m732.2 518.3c-7.9-4.3-15.2-9.9-21.5-16.4-4.7-4.9-8.9-10.6-9.9-17.2-1.1-6.7 2.1-14.4 8.5-16.6 4.9-1.7 10.6 0.2 14.5 3.7 3.9 3.5 6.5 8.3 8.6 13 2.8-7.2 7.7-13.6 14.1-18 3.6-2.5 8.3-4.5 12.5-2.9 3.2 1.3 5.4 4.4 6.3 7.8 1.5 5.4 0.1 11.4-2.7 16.4-2.7 4.9-6.7 9.1-10.6 13.2-5.8 6-11.5 12.1-19.8 17z"/>
				<path id="&lt;Path&gt;" class="s17" d="m330.6 407.2c6.5 5.2 16 6.3 23.5 2.7 7.5-3.7 12.5-12 12.3-20.3 3.9 13.9 17.7 24.5 32.1 24.6 14.5 0.1 28.4-10.3 32.4-24.2 4.3 16.6 22.6 26.5 39.8 26.3 13.1-0.2 28.2-8.2 28.2-21.3 3.3 13.9 17.2 24.4 31.5 24 14.3-0.5 27.4-11.9 29.8-26 4.8 13.4 18.6 23.1 32.8 23.2 14.3 0.1 28.1-9.5 33.1-22.9 3.4 15.9 17.7 28.9 33.8 30.7 16.2 1.8 33-7.7 39.8-22.5 3.2 10 15.1 15.4 25.5 13.7 10.3-1.7 19-9 25.3-17.5 5.9 13.1 20.3 21.9 34.7 21 14.4-0.8 27.7-11.2 32-25 5.2 8.7 15.6 13.9 25.6 12.9 10-1 20.2-8.6 23.6-18.1"/>
				<path id="&lt;Path&gt;" class="s17" d="m467.6 534.2c43.6 0 87.1 1.6 130.6 4.7"/>
				<path id="&lt;Path&gt;" class="s17" d="m342 218.8c73 22.5 144.7 49 214.9 79.2"/>
				<path id="&lt;Path&gt;" class="s17" d="m423.3 92.3q75.8 98.7 151.7 197.4"/>
				<path id="&lt;Path&gt;" class="s17" d="m501.4 44c26.4 85.7 62.4 176.1 102.1 256.5"/>
				<path id="&lt;Path&gt;" class="s17" d="m566 24.1q5 45 9.9 90"/>
				<path id="&lt;Path&gt;" class="s17" d="m379.5 694.4c0-46.2 35.8-83.6 79.9-83.6 44.1 0 79.9 37.4 79.9 83.6 0 46.1-35.8 83.5-79.9 83.5-44.1 0-79.9-37.4-79.9-83.5z"/>
				<path id="&lt;Path&gt;" class="s17" d="m403.8 693.5c0-32.1 24.9-58.2 55.6-58.2 30.7 0 55.6 26.1 55.6 58.2 0 32.1-24.9 58.2-55.6 58.2-30.7 0-55.6-26.1-55.6-58.2z"/>
				<path id="&lt;Path&gt;" class="s17" d="m437.5 694.4c0-12.7 9.8-22.9 21.9-22.9 12.1 0 21.9 10.2 21.9 22.9 0 12.6-9.8 22.8-21.9 22.8-12.1 0-21.9-10.2-21.9-22.8z"/>
				<path id="&lt;Path&gt;" class="s17" d="m412.8 664.1l94.6 58.8"/>
				<path id="&lt;Path&gt;" class="s17" d="m412.8 725.2l94.6-61.1"/>
				<path id="&lt;Path&gt;" class="s17" d="m456.9 635.3l6.2 116.4"/>
				<path id="&lt;Path&gt;" class="s17" d="m800.3 696.7c0-46.2-35.7-83.6-79.8-83.6-44.2 0-79.9 37.4-79.9 83.6 0 46.1 35.7 83.6 79.9 83.6 44.1 0 79.8-37.5 79.8-83.6z"/>
				<path id="&lt;Path&gt;" class="s17" d="m776.1 695.8c0-32.1-24.9-58.1-55.6-58.1-30.7 0-55.6 26-55.6 58.1 0 32.2 24.9 58.2 55.6 58.2 30.7 0 55.6-26 55.6-58.2z"/>
				<path id="&lt;Path&gt;" class="s17" d="m742.3 696.7c0-12.6-9.8-22.9-21.8-22.9-12.1 0-21.9 10.3-21.9 22.9 0 12.6 9.8 22.9 21.9 22.9 12 0 21.8-10.3 21.8-22.9z"/>
				<path id="&lt;Path&gt;" class="s17" d="m767.1 666.5l-94.6 58.7"/>
				<path id="&lt;Path&gt;" class="s17" d="m767.1 727.5l-94.6-61"/>
				<path id="&lt;Path&gt;" class="s17" d="m722.9 637.7l-6.1 116.3"/>
				<path id="&lt;Path&gt;" class="s17" d="m641.3 560l-125.5 75.2c6.2 6.5 11.3 14.1 15.2 22.4l162.9-97.6z"/>
				<path id="&lt;Path&gt;" class="s17" d="m494.1 560c-4.4 0-8.7-0.3-13-0.6l167.7 100.5c3.9-8.3 9-15.9 15.3-22.4l-129.4-77.5z"/>
			</g>
		</g>
		<g id="&lt;Group&gt;">
			<g id="&lt;Group&gt;">
				<path id="&lt;Path&gt;" class="s18" d="m38.4 642h-37.3"/>
				<g id="&lt;Group&gt;">
					<path id="&lt;Path&gt;" class="s18" d="m19.4 613.6v58.7"/>
					<path id="&lt;Path&gt;" class="s18" d="m9 628.3l21.5 28.7"/>
					<path id="&lt;Path&gt;" class="s18" d="m31.2 627.6l-23.6 28"/>
				</g>
			</g>
			<g id="&lt;Group&gt;">
				<path id="&lt;Path&gt;" class="s18" d="m367.7 47.8h-37.3"/>
				<g id="&lt;Group&gt;">
					<path id="&lt;Path&gt;" class="s18" d="m348.8 19.5v58.7"/>
					<path id="&lt;Path&gt;" class="s18" d="m338.3 34.2l21.5 28.7"/>
					<path id="&lt;Path&gt;" class="s18" d="m360.5 33.5l-23.6 27.9"/>
				</g>
			</g>
			<g id="&lt;Group&gt;">
				<path id="&lt;Path&gt;" class="s18" d="m1065.8 123.9h-37.2"/>
				<g id="&lt;Group&gt;">
					<path id="&lt;Path&gt;" class="s18" d="m1046.9 95.5v58.7"/>
					<path id="&lt;Path&gt;" class="s18" d="m1036.5 110.2l21.5 28.7"/>
					<path id="&lt;Path&gt;" class="s18" d="m1058.7 109.5l-23.7 28"/>
				</g>
			</g>
			<g id="&lt;Group&gt;">
				<g id="&lt;Group&gt;">
					<path id="&lt;Path&gt;" class="s3" d="m774.1 10.4c2.6 0 5.1-2.3 5-5-0.2-2.7-2.2-5-5-5-2.6 0-5.2 2.3-5 5 0.1 2.7 2.2 5 5 5z"/>
				</g>
			</g>
			<g id="&lt;Group&gt;">
				<g id="&lt;Group&gt;">
					<path id="&lt;Path&gt;" class="s3" d="m267.3 339.4c2.6 0 5.1-2.3 5-5-0.1-2.7-2.2-5-5-5-2.6 0-5.1 2.3-5 5 0.1 2.7 2.2 5 5 5z"/>
				</g>
			</g>
			<g id="&lt;Group&gt;">
				<g id="&lt;Group&gt;">
					<path id="&lt;Path&gt;" class="s3" d="m1100.8 653c2.6 0 5.1-2.3 5-5-0.1-2.7-2.2-5-5-5-2.6 0-5.1 2.3-5 5 0.1 2.7 2.2 5 5 5z"/>
				</g>
			</g>
			<g id="&lt;Group&gt;">
				<g id="&lt;Group&gt;">
					<path id="&lt;Path&gt;" class="s3" d="m988.9 420.8c2.7 0 5.2-2.3 5-5-0.1-2.7-2.2-5-5-5-2.6 0-5.1 2.3-5 5 0.2 2.8 2.2 5 5 5z"/>
				</g>
			</g>
		</g>
	</g>
</svg>