<svg version="1.2" xmlns="http://www.w3.org/2000/svg" viewBox="0 0 1158 801" width="1158" height="801">
	<title>53067345_9340398-ai</title>
	<style>
		.s0 { opacity: .4;mix-blend-mode: multiply;fill: #dbcfff } 
		.s1 { fill: #ffd473 } 
		.s2 { fill: #ffab31 } 
		.s3 { opacity: .4;mix-blend-mode: multiply;fill: #ffd473 } 
		.s4 { fill: #df68a8 } 
		.s5 { fill: #bc7646 } 
		.s6 { fill: #ffffff } 
		.s7 { fill: #93195f } 
		.s8 { fill: #fff9e9 } 
		.s9 { fill: #cec3fa } 
		.s10 { fill: #e2d6fd } 
		.s11 { fill: #f0e9ff } 
		.s12 { fill: #b9a9f7 } 
		.s13 { fill: #acb9e2 } 
		.s14 { fill: #fde2b2 } 
		.s15 { fill: #fcf4de } 
		.s16 { fill: #9373f1 } 
		.s17 { fill: #9e8df4 } 
		.s18 { fill: #ffbe59 } 
		.s19 { fill: #ffbf59 } 
		.s20 { fill: #575f89 } 
		.s21 { fill: #ffd188 } 
		.s22 { fill: #fff5d6 } 
		.s23 { fill: #8996d9 } 
		.s24 { fill: #ed9bd3 } 
		.s25 { fill: #f1c397 } 
		.s26 { fill: #e69dc5 } 
		.s27 { opacity: .4;mix-blend-mode: multiply;fill: #f1c397 } 
		.s28 { fill: #ce8e63 } 
		.s29 { fill: #e682be } 
		.s30 { fill: #f1cbdf } 
		.s31 { opacity: .6;mix-blend-mode: multiply;fill: #f1c397 } 
		.s32 { fill: #e17236 } 
		.s33 { fill: #edb9e1 } 
	</style>
	<g id="BACKGROUND">
		<g id="&lt;Group&gt;">
			<path id="&lt;Path&gt;" class="s0" d="m1158 764c0 20.3-258.3 36.7-576.9 36.7-318.6 0-576.8-16.4-576.8-36.7 0-20.3 258.2-36.7 576.8-36.7 318.6 0 576.9 16.4 576.9 36.7z"/>
		</g>
	</g>
	<g id="OBJECTS">
		<g id="&lt;Group&gt;">
			<g id="&lt;Group&gt;">
				<g id="&lt;Group&gt;">
					<g id="&lt;Group&gt;">
						<g id="&lt;Group&gt;">
							<path id="&lt;Path&gt;" class="s1" d="m558.6 66.7c0 0 6.5 6.8 4.1 13.7-2.4 7-15.4 22.3-9 44.9 6.4 22.6 19.7 33.9 45.6 33.9 26 0 78.4-0.1 78.4-0.1 0 0 61.2-8.4 51-59 0 0-1.9 5-6.2 8.5 0 0 15.9-32.2-2.6-53.8 0 0-5.6 20.2-21.4 20.2-15.9 0-19.8-13.5-47.9-13.4-28.1 0-27.2 16.1-37 10.6-9.9-5.5 7.5-11 7.5-30.4-0.1-16.2-17.2-25.9-33.3-25.9-16.9 0-31.9 6.7-31.9 32.1z"/>
						</g>
						<g id="&lt;Group&gt;">
							<g id="&lt;Group&gt;" style="opacity: .4;mix-blend-mode: multiply">
								<g id="&lt;Group&gt;">
									<path id="&lt;Path&gt;" class="s1" d="m700.1 101.3c-0.1-2.4-1.2-4.8-3-6.3 0 1.3-0.1 2.7-0.5 4.1-0.5 2.4-1.6 4.7-3.4 6.4-1.8 1.6-4.4 2.5-6.8 1.8 2.2 1.5 2.8 4.7 1.6 7.1-1.2 2.4-3.7 3.8-6.3 4.3-2.6 0.5-5.3 0-7.9-0.6 1.3 3.5-1.3 7.4-4.6 8.9-3.4 1.6-7.2 1.4-10.9 1.2-1.4 3.2-4.2 5.5-7.4 6.9-3.1 1.4-6.6 1.9-10 2.2-11.8 1-23.8-0.9-34.8-5.3 6.9 5.5 14.9 9.6 23.6 11.2 5.5 1 11.1 1 16.7 1 10.3 0.1 20.7 0.1 30.7-2.4q-2.9-0.9-5.8-1.7h4.4c2.9-0.4 5.8-1.3 8.5-2.4 2.7-1.2 5.4-2.7 7.3-5.1 1.8-2.4 2.5-5.8 1.1-8.4l1.5-0.7c1.9-1 3.4-2.8 4-4.9 0.8-2.6 0.1-5.6-1.7-7.6 2.2-2.8 3.8-6.2 3.7-9.7z"/>
								</g>
							</g>
							<g id="&lt;Group&gt;">
								<g id="&lt;Group&gt;">
									<g id="&lt;Group&gt;">
										<path id="&lt;Path&gt;" class="s2" d="m694.1 123.5c1-0.7 1.9-1.6 2.5-2.6 0.6-1 0.9-2.1 1-3.2 0.3-2.2-0.6-4.5-2-5.9-0.4-0.4-0.4-1-0.2-1.4h0.1c1.5-2.1 2.7-4.4 3.2-6.8 0.4-2.4 0-4.8-1.4-6.7-0.7-0.9-1.6-1.7-2.6-2.1-0.5-0.3-1-0.4-1.7-0.5-0.7-0.2-1.5-0.3-2.3-0.9-0.7-0.6-1-1.4-1.3-2-0.4-0.5-0.7-1-1.1-1.5-0.8-1.1-1.7-2.1-2.6-2.9-3.9-3.6-8.6-6.3-13.7-7.9-5.1-1.6-10.5-2.3-15.8-2.2 5.3-0.5 10.8 0 16 1.4 5.3 1.4 10.3 3.9 14.4 7.6 1.1 0.9 2 1.9 2.9 3 0.9 1 1.6 2.6 2.3 3 0.6 0.4 2.2 0.2 3.7 0.8 1.5 0.5 2.8 1.5 3.7 2.7 1.9 2.4 2.6 5.8 1.9 8.7-0.6 2.9-2.1 5.4-3.9 7.6v-1.4c1.7 2.2 2.4 5 1.8 7.6-0.3 1.3-1 2.5-1.8 3.5-0.9 0.9-1.9 1.7-3.1 2.1z"/>
									</g>
									<g id="&lt;Group&gt;">
										<path id="&lt;Path&gt;" class="s2" d="m675.7 140.1c2.2-0.8 4.2-1.7 6.1-2.6 2-1 4-1.9 5.7-3 1.7-1.2 3.2-2.5 4.2-4.3 1-1.7 1.5-3.8 0.9-6 1.6 1.7 1.8 4.5 0.9 6.8-0.8 2.4-2.6 4.3-4.6 5.6-2 1.3-4.2 2.2-6.4 2.8-2.2 0.6-4.5 0.9-6.8 0.7z"/>
									</g>
									<g id="&lt;Group&gt;">
										<path id="&lt;Path&gt;" class="s2" d="m598.4 124.5c5 5.1 10.6 9.4 16.8 12.5 6.2 3.1 12.9 5.1 19.8 5.6 6.9 0.5 14 0.4 21 0.5 7.1 0.1 14.1-0.4 21-1.7v0.7q-2.9-1-5.7-2 3 0.6 5.9 1.3c0.1 0.1 0.3 0.2 0.2 0.4q0 0.2-0.2 0.3h-0.1c-6.7 2.2-13.9 2.8-21 3.2q-5.3 0.2-10.6 0.2c-3.6 0-7.1 0-10.7-0.4-7.2-0.6-14.3-2.8-20.5-6.5-6.2-3.6-11.6-8.4-15.9-14.1z"/>
									</g>
								</g>
								<g id="&lt;Group&gt;">
									<path id="&lt;Path&gt;" class="s2" d="m650.2 136.4q3 0.7 6 0.9c2 0.1 4.1-0.1 5.9-0.6 1.8-0.6 3.5-1.7 3.9-3.3 0.6-1.7 0.1-3.7-1.2-4.2-0.5-0.2-0.8-0.9-0.5-1.4 0.2-0.4 0.6-0.7 1-0.7l0.1 0.1c3.3 0.1 6.6-1.3 8.7-3.6 1-1.2 1.7-2.6 1.6-4-0.1-1.4-0.8-2.8-1.9-3.3h-0.1c-0.6-0.3-0.9-1.1-0.6-1.7 0.3-0.5 0.8-0.8 1.3-0.7 1.5 0.1 3.1-0.7 4.1-2.1 0.9-1.3 1.4-3.1 1.4-4.9 0-3.6-1.9-7.5-5.3-8.9h-0.1c-0.4-0.1-0.6-0.6-0.4-1 0.1-0.3 0.4-0.5 0.7-0.5 2 0.2 4-2.1 3.6-4.2-0.2-1.1-1-2-1.9-2.7-1-0.7-2.1-1.3-3.2-1.8 1.2 0.4 2.4 0.7 3.5 1.4 1 0.6 2.1 1.5 2.5 2.9 0.4 1.4 0 2.8-0.8 4-0.8 1.1-2.2 2-3.7 2l0.3-1.5c2.1 0.7 3.9 2.2 5.1 4 1.2 1.8 1.9 4 1.9 6.2 0.1 2.2-0.3 4.5-1.6 6.5-1.4 1.9-3.7 3.3-6.3 3.1l0.6-2.4c2.2 1.1 3.4 3.3 3.4 5.5 0.1 2.2-0.9 4.2-2.3 5.7-2.7 3-6.7 4.4-10.6 4.1l0.6-2c1.2 0.7 1.9 1.9 2.2 3.1 0.2 1.2 0 2.5-0.4 3.6-0.9 2.3-3.2 3.5-5.3 4-2.1 0.5-4.2 0.3-6.3 0.1-2-0.4-4-0.9-5.9-1.7z"/>
								</g>
								<g id="&lt;Group&gt;">
									<path id="&lt;Path&gt;" class="s2" d="m638 134.3c3.2 0.1 6.5 0.3 9.2-1.1 1.3-0.6 2.4-1.7 3-2.9 0.6-1.3 0.8-2.7 0.2-3.8-0.3-0.5-0.1-1 0.4-1.3q0.2-0.1 0.5-0.1h0.1c2.8 0.3 5.8-0.7 7.4-2.8 1.6-2 1.8-5.2 0.3-7.2-0.4-0.5-0.3-1.3 0.3-1.8 0.3-0.2 0.7-0.3 1.1-0.2 1.5 0.4 3.2 0.1 4.7-0.8 1.4-0.8 2.7-2.1 3.1-3.6 0.4-1.4-0.3-3-1.5-4.2-1.2-1.1-3-1.9-4.8-2.6v-0.1c-0.4-0.1-0.6-0.6-0.5-1 0.1-0.2 0.3-0.4 0.6-0.5 2-0.5 3.7-2 4.5-4 0.8-2 0.6-4.5-0.6-6.4 1.5 1.7 2.2 4.3 1.5 6.7-0.6 2.4-2.5 4.4-5 5.3l0.1-1.5c1.8 0.6 3.8 1.2 5.5 2.6 1.7 1.4 3 3.8 2.5 6.3-0.6 2.4-2.3 4-4.2 5.2-1.9 1.1-4.2 1.7-6.5 1.1l1.3-2c1.1 1.6 1.5 3.5 1.4 5.3-0.1 1.8-0.8 3.5-2 5-2.3 2.7-6.1 3.8-9.5 3.2l1.1-1.4c0.8 1.8 0.3 3.9-0.6 5.4-0.9 1.5-2.3 2.7-3.9 3.3-3.3 1.1-6.6 0.5-9.7-0.1z"/>
								</g>
							</g>
						</g>
						<g id="&lt;Group&gt;" style="opacity: .4;mix-blend-mode: multiply">
							<path id="&lt;Path&gt;" class="s3" d="m706.5 137.3c-45.3 24-104 21.2-149.2-2 7.4 15.9 20.3 23.9 42 23.9 26 0 78.4-0.1 78.4-0.1 0 0 51.2-7 52.1-46.9-5.2 10.7-12.4 19.7-23.3 25.1z"/>
						</g>
						<g id="&lt;Group&gt;">
							<path id="&lt;Path&gt;" class="s2" d="m719.1 92.8c2.2-4.3 4-8.5 5.2-12.9 1.2-4.4 1.7-8.9 1.9-13.7 1.8 4.5 1.8 9.7 0.6 14.4-1.3 4.7-3.9 9.2-7.7 12.2z"/>
						</g>
						<g id="&lt;Group&gt;">
							<path id="&lt;Path&gt;" class="s2" d="m717.8 113.6c1.5-1.8 2.6-3.7 3.6-5.7q1.5-2.9 2.6-6c0.8-2.1 1.4-4.2 2.1-6.4 0.7-2.1 1.3-4.3 2.2-6.5 0.2 2.4 0.1 4.7-0.2 7-0.4 2.3-0.9 4.5-1.7 6.7-0.8 2.2-1.9 4.4-3.3 6.3-1.4 1.9-3.1 3.7-5.3 4.6z"/>
						</g>
					</g>
					<g id="&lt;Group&gt;">
						<path id="&lt;Path&gt;" class="s4" d="m526.5 54.2c-1 0-1.7 1.3-1.5 2.3 0.2 1 1 1.8 1.8 2.5 2.5 2.1 5.4 3.8 8.6 4.8 2.8 1 22.5 4.9 24.3 1.7 1.1-2 0-3.1-0.9-5.3-0.8-1.7-1.7-3.6-3.2-4.8-1.9-1.6-4.5-2-6.9-1.9-2.5 0-4.9 0.6-7.4 0.7-4.1 0.2-8.4-0.8-12.4 0.3z"/>
					</g>
					<g id="&lt;Group&gt;">
						<path id="&lt;Path&gt;" class="s4" d="m530.2 46.6c-1.4-0.2-2.9-0.5-4.3-0.5-0.7 0-1.4 0.1-1.9 0.4-1.2 0.6-1.7 2-1.5 3.2 0.2 1.3 0.9 2.4 1.8 3.3 3.7 4.5 9.2 7.5 15.1 8.4 1.6 0.3 3.1 0.4 4.7 0.4 3.9 0.2 7.9 0.3 11.5-1.2 1.8-0.7 3.6-2 3.8-3.9 0.2-1.7-0.9-3.2-1.5-4.9-1.4-3.8 0.6-7.9 0.8-12 0-0.8 0-2.6-0.9-3.1-1-0.5-1.8 0.6-2.4 1.2-1.6 1.6-3.2 3-5.1 4.2-3.7 2.4-8 4-12.5 4.6-2.5 0.3-5.1 0.3-7.6-0.1z"/>
					</g>
					<g id="&lt;Group&gt;">
						<path id="&lt;Path&gt;" class="s5" d="m580.8 37.8c0 3.3-2.7 6.1-6.1 6.1-3.3 0-6-2.7-6-6.1 0-3.3 2.7-6 6-6 3.4 0 6.1 2.7 6.1 6z"/>
					</g>
					<g id="&lt;Group&gt;">
						<path id="&lt;Path&gt;" class="s6" d="m574.4 37.3c0 0.8-0.7 1.6-1.5 1.6-0.9 0-1.6-0.8-1.6-1.6 0-0.9 0.7-1.6 1.6-1.6 0.8 0 1.5 0.7 1.5 1.6z"/>
					</g>
				</g>
				<g id="&lt;Group&gt;">
					<path id="&lt;Path&gt;" class="s7" d="m525.7 54.5c2.5 1.6 5.3 2.5 8.1 3.1q4.2 0.9 8.6 0.9c2.9 0.1 5.8-0.3 8.6-0.6l4.3-0.3c1.3-0.2 2.8-0.3 4-0.9l0.2 0.1c-0.8 1.5-2.4 2.2-3.8 2.7-1.4 0.6-2.9 0.9-4.4 1.1-3.1 0.2-6-0.1-9-0.2-3-0.3-6-0.8-8.8-1.7-2.8-0.9-5.6-2.1-7.9-4z"/>
				</g>
			</g>
			<g id="&lt;Group&gt;">
				<g id="&lt;Group&gt;">
					<g id="&lt;Group&gt;">
						<g id="&lt;Group&gt;">
							<g id="&lt;Group&gt;">
								<g id="&lt;Group&gt;">
									<path id="&lt;Path&gt;" class="s8" d="m503.7 451.4l-69.9 3.5v-284.6l69.9-17.5z"/>
								</g>
								<g id="&lt;Group&gt;" style="mix-blend-mode: multiply">
									<path id="&lt;Path&gt;" class="s8" d="m495.5 388c-9.2 11.3-19.7 21.6-31.3 30.4l31.3-2z"/>
								</g>
								<g id="&lt;Group&gt;">
									<path id="&lt;Compound Path&gt;" fill-rule="evenodd" class="s9" d="m503.7 152.8v298.6l-69.9 3.5v-284.6zm-8.2 35.1l-53.5 10.1v221.9l53.5-3.5z"/>
								</g>
								<g id="&lt;Group&gt;">
									<g id="&lt;Group&gt;">
										<path id="&lt;Compound Path&gt;" class="s10" d="m455.3 257.3q0-5 0.7-7.4 0.7-2.4 1.9-2.6l14.3-2.4q0.5-0.1 1.5-0.7 1.1-0.6 1.5-1.6 0.5-0.1 1-0.8 0.5-0.7 0.9-0.7 1.5-0.3 2.2 3 0.7 3.2 1.1 8 0.3 4.8 0.6 9.5 0.3 3.4 0.6 7.2 0.3 3.7 0.3 7.4 0 4.3-0.8 6.6-0.9 2.2-1.8 2.4-0.9 0.1-1.4-1.8-0.4-1.8-0.9-5-0.7-5.3-1.2-8.3-0.5-3-1.3-4.2-0.8-1.1-2.4-0.9l-3.3 0.5v32.9l1.7-0.2q1.1-0.1 1.5-2.3 0.4-2.2 0.6-5.1 0.2-2.9 0.6-5.1 0.4-2.2 1.5-2.4 0.8-0.1 1.4 2 0.5 2 0.7 5.4l1.3 22.9q0 0.9 0.1 2 0 1 0 2 0 4-0.6 6.5-0.7 2.5-1.6 2.5-0.6 0.1-1.1-1.3-0.4-1.4-0.8-3.2-0.6-3-1-4.2-0.4-1.2-0.9-1.5-0.4-0.2-1.3-0.2l-2.1 0.2v18.2q0 6.9 1 10.9 0.9 4 2.6 4 1.7-0.1 2.6-1.4 0.9-1.3 1.5-4.6 0.6-3.3 1.4-9.5 0.4-3.2 0.9-5.3 0.5-2 1.4-2 1-0.1 1.7 2.5 0.8 2.5 0.8 7.1 0 1.7-0.1 4l-1.2 18q-0.4 6.1-1.1 10.3-0.7 4.1-2.4 4.1-0.6 0-1.3-0.7-0.6-0.6-1.2-1.3-1.2-1.1-2.4-1.1h-15.1q-1.2 0-1.9-2.3-0.7-2.2-0.7-7.3 0-4.5 0.4-6.8 0.5-2.2 1.1-3.6 0.6-1.3 1.1-3.2 0.4-1.9 0.4-5.7v-64.5q0-3.9-0.4-5.6-0.5-1.8-1.1-3.1-0.6-1.3-1.1-3.4-0.4-2.2-0.4-6.8z"/>
									</g>
								</g>
							</g>
							<g id="&lt;Group&gt;">
								<path id="&lt;Path&gt;" class="s11" d="m442.2 422.2l-0.4-4.7 53.6-3.5 0.3 4.7z"/>
							</g>
							<g id="&lt;Group&gt;">
								<path id="&lt;Path&gt;" class="s12" d="m444.3 419.9h-4.6v-221.9h4.6z"/>
							</g>
							<g id="&lt;Group&gt;">
								<g id="&lt;Group&gt;">
									<path id="&lt;Path&gt;" class="s8" d="m433.8 170.3l69.9-17.5z"/>
								</g>
								<g id="&lt;Group&gt;" style="opacity: .4;mix-blend-mode: multiply">
									<path id="&lt;Path&gt;" class="s13" d="m495.5 388v28.4l-31.3 2c-9.4 7.1-19.5 13.2-30.4 18.1v18.4l69.9-3.5v-74.3q-3.9 5.6-8.2 10.9z"/>
								</g>
							</g>
						</g>
						<g id="&lt;Group&gt;">
							<path id="&lt;Path&gt;" class="s10" d="m503.7 152.8v298.6h290.4v-298.6z"/>
						</g>
						<g id="&lt;Group&gt;">
							<path id="&lt;Compound Path&gt;" fill-rule="evenodd" class="s14" d="m794.1 152.8v298.6h-290.4v-298.6zm-34.1 35h-222.1v228.6h222.1z"/>
						</g>
						<g id="&lt;Group&gt;">
							<path id="&lt;Path&gt;" class="s15" d="m762.9 419.3h-225.1v-5.8h219.3v-223.3l5.8-4.7z"/>
						</g>
						<g id="&lt;Group&gt;">
							<g id="&lt;Group&gt;">
								<path id="&lt;Compound Path&gt;" fill-rule="evenodd" class="s16" d="m711.6 339.2q0 9.3-4 15.3-4 5.9-10.5 9.2-6.5 3.3-14.2 4.5-7.6 1.3-15 1.3h-69.6q-4.8 0-7.7-2.3-2.9-2.4-2.9-7.6 0-4.6 1.9-6.9 1.8-2.4 4.2-3.8 2.4-1.5 4.2-3.4 1.8-2 1.8-5.8v-66.7q0-4-1.8-6-1.8-1.9-4.2-3.3-2.4-1.4-4.2-3.7-1.9-2.3-1.9-6.9 0-5.2 2.9-7.6 2.9-2.4 7.7-2.4h54.3q8.6 0 17.8 1.9 9.2 2 17 6.3 7.9 4.4 12.7 11.7 4.8 7.3 4.8 18.1 0 11.8-6.9 18.5-7 6.7-16.6 9.7 7.7 1.7 14.6 5.4 6.9 3.7 11.2 9.7 4.4 6 4.4 14.8zm-68.1-34.2h3.2q10 0 13.8-5.9 3.8-5.9 3.8-15.3 0-10.3-5-16.3-5-6-15.3-6h-0.5zm25.3 32.2q0-7.3-4.1-12.1-4.2-4.8-11.5-4.8h-9.7v15.6q0 7 3.3 11.1 3.3 4.2 10.3 4.2 6.5 0 9.1-3.9 2.6-4 2.6-10.1z"/>
							</g>
							<g id="&lt;Group&gt;">
								<g id="&lt;Group&gt;">
									<g id="&lt;Group&gt;">
										<path id="&lt;Path&gt;" class="s17" d="m593.8 263.7c-2-0.3-3.7-1.3-5.3-2.6-0.8-0.7-1.5-1.7-2-2.7q-0.7-1.5-1-3.1c-0.4-2-0.6-4-0.1-6.3 0.2-1.1 0.6-2.3 1.3-3.4q0.5-0.8 1.2-1.5c0.4-0.5 0.9-0.9 1.4-1.3 2-1.4 4.3-2 6.4-2.2 1.1 0 2.2 0.1 3.1 0.1l2.7 0.1 11 0.2c7.2 0.3 14.5 0.5 21.8 0.9 7.3 0.3 14.6 0.7 21.8 1.2-7.2 0.6-14.5 0.9-21.8 1.3-7.3 0.3-14.6 0.6-21.8 0.8l-11 0.3c-3.8-0.1-6.8 0.5-8.8 2-0.4 0.4-0.8 0.7-1.1 1.2q-0.4 0.7-0.7 1.7c-0.5 1.2-0.6 2.9-0.7 4.5 0 1.5 0 3 0.6 4.3 0.8 1.6 1.8 3 3 4.5z"/>
									</g>
									<g id="&lt;Group&gt;">
										<path id="&lt;Path&gt;" class="s17" d="m598.3 369.5c-2.2 0.4-4.6 0.2-6.9-0.8-1.1-0.5-2.2-1.3-3-2.3-0.8-1-1.4-2.2-1.7-3.4-0.4-1.3-0.6-2.5-0.6-3.7-0.1-1.2-0.1-2.5 0.1-3.8 0.2-1.2 0.7-2.6 1.5-3.9 0.8-1.1 1.5-2 2.5-2.9q0.7-0.7 1.5-1.3 0.4-0.3 0.8-0.5l0.6-0.5q1.2-0.9 2.2-1.9l0.5-0.5 0.3-0.3 0.1-0.2q0.3-0.4 0.4-0.8c0.3-0.7 0.4-1.5 0.4-2.4l-0.1-6.6v-6.8q0-13.4 0.6-26.9c0.5-9 1.1-18 2.3-27 1.2 9 1.8 18 2.3 27q0.6 13.5 0.6 26.9v6.8l-0.1 3.4v1.6 0.9c0 0.3 0 0.6 0 1-0.1 1.3-0.4 2.7-1 4.2-0.3 0.7-0.8 1.4-1.3 2q-0.2 0.2-0.4 0.5l-0.3 0.3-0.8 0.6q-1.4 1.3-3 2.3l-1.4 0.8q-0.6 0.4-1.2 0.8c-0.7 0.6-1.5 1.3-2.1 2-0.5 0.6-0.9 1.4-1.1 2.3-0.6 1.8-0.8 4-0.6 6 0.2 0.9 0.4 1.9 0.9 2.7 0.4 0.8 1.1 1.6 1.9 2.2 1.7 1.2 3.9 1.9 6.1 2.2z"/>
									</g>
								</g>
							</g>
						</g>
						<g id="&lt;Group&gt;">
							<path id="&lt;Path&gt;" class="s17" d="m659.3 267.5c3.6 2.8 5.9 7.2 7 11.7 0.5 2.3 0.7 4.7 0.7 6.9 0.1 2.3-0.1 4.6-0.6 7-0.5 2.4-1.4 4.9-3.1 7-1.5 2.1-3.7 3.7-6 4.7-4.7 1.8-9.5 1.5-13.8 0.2 4.3-1.1 8.5-2.2 11.6-4.3 3.2-2.1 4.8-5.1 5.6-8.8 0.4-1.9 0.6-3.8 0.8-5.9 0.1-2.2 0.2-4.1 0.2-6.2-0.1-4-0.8-8.1-2.4-12.3z"/>
						</g>
						<g id="&lt;Group&gt;">
							<path id="&lt;Path&gt;" class="s17" d="m653.9 351.3c1.6-0.6 3-1 4.4-1.6 1.4-0.5 2.7-1.1 3.7-1.8q0.7-0.6 1.3-1.2c0.1-0.2 0.3-0.3 0.4-0.5 0.1-0.2 0.2-0.4 0.3-0.7 0.5-0.9 0.9-2.2 1.2-3.5 0.5-2.6 0.9-5.4 0.9-8.2 0-2.8-0.2-5.6-1.4-8.6 1.5 0.6 2.8 1.9 3.8 3.3 1 1.4 1.6 3 2.1 4.7 0.9 3.3 1 6.7 0.3 10.1-0.4 1.7-1 3.4-2.1 5.1-0.3 0.4-0.7 0.9-1 1.3-0.4 0.4-0.9 0.7-1.3 1-0.4 0.3-0.8 0.5-1.3 0.8-0.4 0.2-0.9 0.3-1.3 0.5-1.8 0.6-3.6 0.7-5.2 0.5-1.7-0.1-3.3-0.5-4.8-1.2z"/>
						</g>
						<g id="&lt;Group&gt;">
							<path id="&lt;Path&gt;" class="s18" d="m757.1 190.2h-219.3v-4.7h225.1z"/>
						</g>
						<g id="&lt;Group&gt;" style="opacity: .5;mix-blend-mode: multiply">
							<path id="&lt;Path&gt;" class="s10" d="m760 293c-34.7 47.2-80.4 87.2-131.2 116.9q-6 3.5-12.1 6.5h143.3z"/>
						</g>
						<g id="&lt;Group&gt;">
							<g id="&lt;Group&gt;" style="opacity: .3;mix-blend-mode: multiply">
								<path id="&lt;Path&gt;" class="s14" d="m760 293v123.4h-143.3c-35 17.3-73.9 23.2-113 22.8v12.2h290.4v-214.6c-9.6 19.7-21.1 38.5-34.1 56.2z"/>
							</g>
						</g>
					</g>
					<g id="&lt;Group&gt;">
						<path id="&lt;Path&gt;" class="s19" d="m433.8 454.9l22.5-1.5 22.5-1.4 22.4-1.4c1 0 1.9-0.1 2.9-0.1l2.8-0.1 5.6-0.1 11.3-0.1 90.1-0.7 90.1-0.3 90.1-0.1-2.3 2.3 0.2-74.6 0.1-37.4 0.3-37.3 0.6-74.7c0.4-24.9 0.6-49.8 1.1-74.6 0.5 24.8 0.7 49.7 1 74.6l0.7 74.7 0.3 37.3 0.1 37.4 0.2 74.6v2.3h-2.3-90.1l-90.1-0.4-90.1-0.7-11.2-0.1h-5.7l-2.8-0.1c-0.9 0-1.9 0.1-2.8 0.1l-22.5 0.9-22.5 0.8z"/>
					</g>
				</g>
				<g id="&lt;Group&gt;">
					<g id="&lt;Group&gt;">
						<g id="&lt;Group&gt;">
							<g id="&lt;Group&gt;">
								<g id="&lt;Group&gt;">
									<path id="&lt;Compound Path&gt;" class="s12" d="m623.3 453.8h297.2v298.7h-297.2z"/>
								</g>
								<g id="&lt;Group&gt;" style="opacity: .2;mix-blend-mode: multiply">
									<path id="&lt;Path&gt;" class="s10" d="m885.6 581.9c-12.3 21.7-26 43-41.4 64.1-21.5 28.9-47 53-75.6 71.4h117z"/>
								</g>
							</g>
							<g id="&lt;Group&gt;">
								<g id="&lt;Group&gt;">
									<path id="&lt;Path&gt;" class="s14" d="m828.8 544.1q4.9 0 8 2.4 3.1 2.3 3.1 7.6 0 4.2-1.8 6.2-1.7 1.9-4.8 4.3-3.1 2.5-4.8 4.6-1.6 2.2-3.7 5.6l-31.1 52.5v13.4q0 3.8 2.2 5.6 2.2 1.9 5.2 3.2 3 1.4 5.2 3.8 2.2 2.4 2.2 7.3 0 5.3-3.1 7.6-3.1 2.4-8 2.4h-52.2q-4.9 0-8-2.4-3.1-2.4-3.1-7.6 0-4.8 2.2-7.1 2.3-2.4 5.2-3.8 2.9-1.4 5.2-3.3 2.3-1.9 2.3-5.7v-12.2l-31.7-52.8q-2.1-3.5-3.2-5.6-1-2.1-4.8-4.6-3.9-2.6-6-4.4-2.2-1.7-2.2-7 0-5.3 3.1-7.6 3.2-2.4 8.1-2.4h51.7q4.9 0 8 2.4 3.1 2.3 3.1 7.6 0 4.6-2 6.8-1.9 2.3-4.4 3.6-2.5 1.2-4.5 2.4-2 1.3-2 3.7 0 1.9 1 3.9 0.9 2.1 1.9 3.6l17.7 30.6 19.3-33.9q0.7-1.1 1.3-2.4 0.6-1.3 0.6-2.6 0-2.1-1.8-3.2-1.8-1.2-4.1-2.4-2.2-1.2-4-3.5-1.8-2.3-1.8-6.6 0-5.3 3.1-7.6 3.1-2.4 8-2.4z"/>
								</g>
							</g>
							<g id="&lt;Group&gt;">
								<g id="&lt;Group&gt;">
									<path id="&lt;Path&gt;" class="s20" d="m920.5 453.8l29.3 8.2v281.1l-29.3 9.4z"/>
								</g>
							</g>
							<g id="&lt;Group&gt;">
								<g id="&lt;Group&gt;">
									<path id="&lt;Compound Path&gt;" fill-rule="evenodd" class="s21" d="m623.3 453.8h297.2v298.7h-297.2zm262.3 263.6v-228.6h-227.4v228.6z"/>
								</g>
							</g>
							<g id="&lt;Group&gt;">
								<g id="&lt;Group&gt;">
									<path id="&lt;Path&gt;" class="s15" d="m949.8 743.1l-29.3 9.4v-298.7l29.3 8.2z"/>
								</g>
								<g id="&lt;Group&gt;">
									<path id="&lt;Compound Path&gt;" fill-rule="evenodd" class="s12" d="m949.8 743.1l-29.3 9.4v-298.7l29.3 8.2zm-18.6-254.3l1.8 228.5 13.4-5.8v-219.2z"/>
								</g>
								<g id="&lt;Group&gt;">
									<path id="&lt;Compound Path&gt;" class="s18" d="m943.1 557.8q0 3.4-0.2 7.1-0.1 3.6-0.2 6.3l-4 82.6h1.5q0.5 0 0.8-2.7 0.3-2.8 0.4-6.9 0.2-4.1 0.3-8.1 0.1-4.1 0.3-6.9 0.1-2.8 0.4-2.8 0.3 0 0.5 2.6 0.2 2.6 0.2 7.3 0 1.7 0 4l-0.4 22.7q-0.2 6.1-0.3 10.2-0.2 4.2-0.7 4.2-0.2 0-0.4-0.7-0.2-0.8-0.4-1.4-0.3-1.1-0.6-1.1h-4.4q-0.3 0-0.5-2.6-0.2-2.7-0.2-7.4 0-3.5 0.1-7.1 0.1-3.6 0.3-6.4l4-82.5h-1.4q-0.5 0-0.8 2.1-0.3 2.1-0.4 5.2-0.1 3.2-0.2 6.3-0.1 3.2-0.2 5.3-0.2 2.1-0.5 2.1-0.2 0-0.5-2.4-0.2-2.4-0.2-6.2 0-0.4 0-1.3l0.3-20.1q0.1-6.4 0.3-10.4 0.2-4 0.7-4 0.3 0 0.7 1.5 0.3 1.5 0.7 1.5h4.3q0.3 0 0.5 2.6 0.2 2.6 0.2 7.4z"/>
								</g>
							</g>
							<g id="&lt;Group&gt;">
								<g id="&lt;Group&gt;">
									<path id="&lt;Path&gt;" class="s15" d="m709.3 565.5c-1.7-0.4-3.3-1.1-4.9-1.8-0.8-0.3-1.6-0.7-2.4-1.2-1-0.6-1.8-1.7-2.3-2.6-0.9-2-1.2-4-1.4-5.8-0.1-1.9 0.1-4.1 1.1-6.1 0.4-1.1 1.2-2.1 2-2.9 0.9-0.9 1.8-1.4 2.7-1.9 1.9-1 4-1.4 5.9-1.4q0.7 0 1.4 0.1c0.5 0 1 0.1 1.4 0.1h2.5l5 0.2q10.1 0.3 20.2 0.8 10 0.4 20.1 1.1-10.1 0.7-20.1 1.2-10.1 0.5-20.2 0.8l-5 0.1-2.5 0.1c-0.4 0-0.8 0.1-1.2 0.1q-0.5 0.1-1.1 0.3c-2.7 0.6-5.1 2-5.8 3.7-0.5 1-0.8 2.3-0.9 3.7-0.1 1.5-0.1 3 0.1 4.1q0.2 0.9 0.5 1.4l1.6 1.9c1.1 1.3 2.3 2.6 3.3 4z"/>
								</g>
								<g id="&lt;Group&gt;">
									<path id="&lt;Path&gt;" class="s15" d="m745.2 670.6c-2.4 0.3-4.8 0.1-7.1-0.9-1.2-0.5-2.3-1.3-3.2-2.3-0.9-1-1.5-2.2-1.8-3.5-0.4-1.2-0.6-2.5-0.6-3.8-0.1-1.3 0-2.6 0.3-3.9 0.3-1.3 0.9-2.7 1.8-3.9 1-1.1 1.8-1.9 2.9-2.7 1-0.8 2.1-1.6 3.2-2.2q1.4-0.7 2.7-1.7 0.6-0.4 1.2-0.9l0.3-0.3q0.2-0.1 0.2-0.2 0.2-0.2 0.3-0.3c0.4-0.5 0.7-1.2 0.8-2q0-0.6 0-1.3v-1.7l-0.1-3.5q0-3.5 0-7l0.4 1.5q-4-6.5-7.9-13.2c-2.5-4.5-5.1-8.9-7.5-13.5l-3.7-6.7-3.5-6.9c-2.3-4.6-4.6-9.2-6.6-14 3.2 4.1 6.2 8.3 9.2 12.5l4.4 6.3 4.2 6.4c2.9 4.3 5.6 8.6 8.4 13q4 6.5 8 13.1l0.4 0.7v0.8q0 3.5-0.1 7v3.5l-0.1 1.7q0 1.1-0.2 2.2c-0.3 1.5-0.9 3.1-2 4.4q-0.4 0.5-0.9 0.9-0.3 0.2-0.4 0.3l-0.4 0.3q-0.8 0.6-1.6 1.1-1.7 1-3.4 1.8c-1 0.4-1.8 0.8-2.7 1.4-0.9 0.6-1.7 1.3-2.4 1.9-0.6 0.6-1.1 1.3-1.4 2.2-0.6 1.8-0.8 4.1-0.6 6.1 0.2 1 0.4 2 1 2.8 0.5 0.9 1.2 1.6 2.1 2.2 1.8 1.3 4 2 6.4 2.3z"/>
								</g>
								<g id="&lt;Group&gt;">
									<path id="&lt;Path&gt;" class="s15" d="m782.8 608.7c2.3-6.5 5.2-12.8 8.2-19q2.3-4.6 4.7-9.2l2.5-4.5 1.2-2.2c0.4-0.8 0.7-1.4 1.1-2.1l0.2-0.5q0.1-0.2 0.2-0.4 0.1-0.3 0.1-0.7c0.1-0.4 0-0.7 0-0.8q0 0-0.2-0.2 0 0-0.1-0.1l-0.5-0.3-2.1-1.3-1.1-0.7c-0.3-0.2-0.8-0.5-1.2-0.8q-1.3-0.9-2.4-2.1c-0.7-0.8-1.2-1.4-1.8-2.5-0.6-1.1-0.9-2.1-1.1-3.1-0.4-2.1-0.3-4 0-5.9 0.3-1.9 1.1-3.9 2.5-5.4 0.7-0.8 1.6-1.4 2.4-1.8q1.3-0.7 2.7-0.9c1.8-0.4 3.6-0.4 5.3-0.1-1.7 0.4-3.3 0.8-4.8 1.6-1.4 0.7-2.7 1.7-3.3 2.9-0.7 1.2-1 2.6-1 4.1 0 1.5 0.2 3.1 0.6 4.4 0.5 1.3 1.1 2 2.2 3.1q0.8 0.7 1.6 1.2c0.3 0.2 0.6 0.3 1 0.5l1.1 0.7 2.4 1.3 0.6 0.3q0.4 0.3 0.8 0.6c0.6 0.5 1.1 1.1 1.5 1.8 0.8 1.4 0.9 3 0.7 4.2q-0.1 1-0.4 1.9-0.1 0.4-0.3 0.8c-0.1 0.2-0.2 0.4-0.3 0.7-0.5 0.8-0.9 1.7-1.3 2.4l-1.3 2.3-2.7 4.4q-2.7 4.4-5.5 8.7c-3.8 5.7-7.8 11.4-12.2 16.7z"/>
								</g>
							</g>
							<g id="&lt;Group&gt;">
								<path id="&lt;Path&gt;" class="s22" d="m888.5 720.3h-230.3v-5.8h224.5v-225.7h5.8z"/>
							</g>
						</g>
						<g id="&lt;Group&gt;">
							<g id="&lt;Group&gt;" style="opacity: .3;mix-blend-mode: multiply">
								<path id="&lt;Path&gt;" class="s21" d="m920.5 510.1c-10 24.4-21.6 48.3-34.9 71.8v135.5h-117c-25.1 16.2-52.7 28.1-81.9 35.1h233.8z"/>
							</g>
						</g>
					</g>
					<g id="&lt;Group&gt;">
						<g id="&lt;Group&gt;">
							<g id="&lt;Group&gt;">
								<g id="&lt;Group&gt;">
									<g id="&lt;Group&gt;">
										<g id="&lt;Group&gt;">
											<g id="&lt;Group&gt;">
												<g id="&lt;Group&gt;">
													<path id="&lt;Compound Path&gt;" class="s15" d="m329.1 451.4h294.7v298.7h-294.7z"/>
												</g>
												<g id="&lt;Group&gt;" style="opacity: .3;mix-blend-mode: multiply">
													<path id="&lt;Path&gt;" class="s15" d="m589.2 561c-14.5 41.1-36.1 79.9-65.3 114.2-13.1 15.1-28.4 28.5-45.2 39.9h110.5z"/>
												</g>
											</g>
											<g id="&lt;Group&gt;">
												<path id="&lt;Compound Path&gt;" fill-rule="evenodd" class="s12" d="m623.8 451.4v298.7h-294.7v-298.7zm-34.6 35.1h-225.4v228.6h225.4z"/>
											</g>
											<g id="&lt;Group&gt;">
												<g id="&lt;Group&gt;">
													<path id="&lt;Compound Path&gt;" fill-rule="evenodd" class="s12" d="m532.2 569.2q8.4 14.7 8.4 34.4 0 20-8 35.4-8.1 15.4-22.7 24.1-14.6 8.8-34.7 8.8-20.4 0-35.1-8.5-14.7-8.4-22.6-23.7-7.9-15.2-7.9-35.6 0-19.6 8.4-34.4 8.4-14.9 23.2-23.3 14.8-8.3 34-8.3 19.2 0 34 8.1 14.7 8.2 23 23zm-37.6 70.7q0.4-4.8 0.4-8 0-14.5-2.8-28.1-0.7-3.5-2.4-9.2-1.6-5.8-4.1-12.2-2.4-6.3-5.6-12.1-3.2-5.8-7.1-9.4-3.8-3.6-8.1-3.6-4.6 0-6.5 3.9-2 3.8-2.4 8.7-0.4 4.9-0.4 8.2 0 11.3 1.9 22.6 1.8 11.2 5.7 21.9 1.1 3.1 3.3 8.1 2.2 4.9 5.2 9.8 3.1 5 6.7 8.3 3.5 3.4 7.3 3.4 4.6 0 6.5-3.7 2-3.8 2.4-8.6z"/>
												</g>
											</g>
										</g>
									</g>
									<g id="&lt;Group&gt;">
										<g id="&lt;Group&gt;">
											<path id="&lt;Path&gt;" class="s9" d="m329.1 750.1l-48.8-7v-287l48.8-4.7z"/>
										</g>
										<g id="&lt;Group&gt;">
											<path id="&lt;Compound Path&gt;" fill-rule="evenodd" class="s14" d="m329.1 750.1l-48.8-7v-287l48.8-4.7zm-40.7-261.2v221.5l35 4.7v-228.6z"/>
										</g>
										<g id="&lt;Group&gt;">
											<path id="&lt;Compound Path&gt;" fill-rule="evenodd" class="s17" d="m313.1 694.2q-2 0-3.4-6.6-1.4-6.6-2.3-16.6-0.9 0.9-1.8 0.9-3.1 0-5.3-8.4-2.2-8.4-3.4-23.6-1.2-15.3-1.2-35.8 0-19.7 1.3-34.6 1.2-14.8 3.5-23.1 2.2-8.3 5.1-8.3 2.9 0 5.1 8.1 2.2 8.1 3.5 22.9 1.2 14.7 1.2 34.5 0 20.8-1.3 36.5-1.3 15.8-3.6 24 0.5 2.3 1.1 3.5 0.7 1.3 1.5 1.2 0.5 0 1-0.9 0.6-0.9 1.1-0.9 0.4 0 0.6 1.7 0.3 1.6 0.3 4.3 0 1.9-0.1 3.7-0.1 1.8-0.2 3.7-0.3 5.2-0.6 8.2-0.3 3-0.8 4.3-0.4 1.3-1.3 1.3zm-4.5-63.1q0-14-0.4-27.3-0.1-3.5-0.4-9.3-0.2-5.8-0.6-12.1-0.4-6.4-0.9-12.1-0.5-5.8-1-9.4-0.6-3.6-1.3-3.6-0.5 0-0.8 2.4-0.3 2.3-0.5 5.8-0.1 3.4-0.1 7 0 3.6 0 6.3 0 23 1.1 43.8 0.2 3 0.5 7.8 0.3 4.7 0.7 9.5 0.5 4.7 1 8-0.2-4.9-0.4-10 0-1.6 0-3.1 0-3.5 0.2-6.6 0.3-3.2 0.9-3.2 0.7 0 0.9 3.3 0.3 3.2 0.5 6.9 0.1 2.3 0.2 4.6 0.1 2.2 0.2 4.3 0.1-3.3 0.2-6.9 0-3.5 0-6.1z"/>
										</g>
									</g>
									<g id="&lt;Group&gt;">
										<g id="&lt;Group&gt;">
											<g id="&lt;Group&gt;">
												<path id="&lt;Path&gt;" class="s10" d="m440.1 663.4c-7.9-3.7-14.9-9.6-20.3-16.9-2.6-3.6-4.8-7.5-6.7-11.6-1.8-4.2-3.2-8.5-4.2-12.9-1-4.4-1.6-8.9-1.8-13.3-0.3-4.5-0.3-9 0.1-13.6 0.9-9 3.4-18 7.8-26 4.4-8 10.5-15.2 17.9-20.5 3.7-2.7 7.7-5 11.9-6.8 2-0.9 4.2-1.7 6.4-2.4q3.2-1 6.5-1.6c4.5-0.9 9-1.3 13.4-1.4q1.7 0 3.3 0.1h1.7l1.7 0.1q3.3 0.1 6.6 0.6c4.4 0.7 8.8 1.7 13 3.2 4.1 1.4 8.1 3.4 11.8 5.8-7.8-4-16.5-5.8-25-6.5q-3.3-0.2-6.5-0.2l-1.6 0.1-1.6 0.1q-1.6 0-3.2 0.2-3.2 0.2-6.4 0.8-3.1 0.5-6.2 1.3c-8.2 2.1-15.9 5.8-22.5 10.9-3.3 2.6-6.4 5.5-9.1 8.6-2.7 3.2-5 6.7-7 10.4-4 7.3-6.4 15.4-7.3 23.8-1 8.4-0.7 17.1 0.7 25.4q1.1 6.3 3.2 12.3c1.5 4 3.3 7.9 5.6 11.5 4.4 7.3 10.5 13.6 17.8 18.5z"/>
											</g>
											<g id="&lt;Group&gt;">
												<path id="&lt;Path&gt;" class="s10" d="m473.3 643q2.2 2.5 4.7 4.5c1.6 1.4 3.4 2.5 5.3 3.1 0.9 0.2 1.8 0.3 2.7 0.1q1.4-0.2 2.4-0.8c1.4-0.9 2.2-2.5 2.8-4.4 0.6-1.8 0.9-3.9 1-5.8 0.1-2.1 0.2-4.3 0.2-6.4-0.1-4.2-0.4-8.6-0.8-12.8q-0.5-6.4-1.6-12.7c-0.3-2.1-0.6-4.2-1.1-6.3q-0.7-3.1-1.4-6.3-1.5-6.2-3.3-12.5c-1.2-4.2-2.6-8.3-4.1-12.4 2.7 3.5 5 7.3 7 11.3 1.9 4 3.7 8 5.1 12.3q1 3.1 1.9 6.3c0.6 2.2 1.1 4.4 1.5 6.6 0.9 4.4 1.5 8.8 1.8 13.2 0.3 4.5 0.4 8.9 0.1 13.4-0.1 2.3-0.3 4.5-0.6 6.7-0.4 2.4-0.9 4.6-1.8 6.9-0.5 1.1-1.1 2.3-2 3.3-0.8 1-1.9 1.9-3.1 2.5-1.2 0.6-2.6 0.9-3.8 0.9-1.3 0-2.7-0.3-3.8-0.8-2.2-1.1-3.9-2.7-5.4-4.4q-2.2-2.6-3.7-5.5z"/>
											</g>
										</g>
									</g>
									<g id="&lt;Group&gt;">
										<path id="&lt;Path&gt;" class="s10" d="m592.1 718h-228.4v-5.9h222.6v-221l5.8-4.6z"/>
									</g>
								</g>
								<g id="&lt;Group&gt;">
									<path id="&lt;Path&gt;" class="s16" d="m586.3 491.1l-222.6-2.3 0.1-4.6 228.3 2.3z"/>
								</g>
							</g>
							<g id="&lt;Group&gt;">
								<g id="&lt;Group&gt;">
									<path id="&lt;Path&gt;" class="s15" d="m623.8 451.4h-294.7z"/>
								</g>
								<g id="&lt;Group&gt;">
									<path id="&lt;Path&gt;" class="s23" d="m623.8 451.4v298.7-298.7z"/>
								</g>
								<g id="&lt;Group&gt;" style="opacity: .3;mix-blend-mode: multiply">
									<path id="&lt;Path&gt;" class="s12" d="m623.8 451.4h-12.4c-2.5 37.4-9.7 74.3-22.2 109.6v154.1h-110.5c-23.9 16.2-50.8 28.2-78.5 35h223.6z"/>
								</g>
							</g>
						</g>
						<g id="&lt;Group&gt;">
							<path id="&lt;Path&gt;" class="s16" d="m329.1 750.1c24.6-0.3 49.1-0.5 73.7-0.8l36.8-0.3 36.9-0.2 73.6-0.5 36.9-0.2h36.8l-2.1 2-0.2-149.3 0.2-149.4 2.1 2.1-36.8-0.1-36.9-0.2-73.6-0.4-36.9-0.2-36.8-0.4c-24.6-0.2-49.1-0.4-73.7-0.8 24.6-0.3 49.1-0.5 73.7-0.8l36.8-0.3 36.9-0.2 73.6-0.5 36.9-0.1 36.8-0.1h2v2l0.3 149.4-0.3 149.3v2.1h-2l-36.8-0.1-36.9-0.2-73.6-0.4-36.9-0.2-36.8-0.4c-24.6-0.2-49.1-0.4-73.7-0.8z"/>
						</g>
					</g>
				</g>
			</g>
			<g id="&lt;Group&gt;">
				<g id="&lt;Group&gt;">
					<g id="&lt;Group&gt;">
						<g id="&lt;Group&gt;">
							<path id="&lt;Path&gt;" class="s1" d="m988.8 541c-1.6-4.9-5.7-9-10.8-10.8-2.6-0.9-5.7-1.4-7.6-3.4-2.8-2.8-1.9-7.2-1.3-10.9 0.6-3.5 0.7-7.1-0.8-10.3-1.4-3.3-4.6-5.9-8.3-5.9-3.7-0.1-7 2.6-8.5 5.8-1.4 3.2-1.4 6.8-0.9 10.2 0.6 3.8 1.4 8.2-1.3 11-2 2-5.1 2.4-7.8 3.3-5.1 1.7-9.2 5.8-10.8 10.6-1.7 4.9-0.8 10.5 2.3 14.7l26.6 0.1 26.6 0.2c3.2-4.2 4.1-9.7 2.6-14.6z"/>
						</g>
					</g>
					<g id="&lt;Group&gt;" style="opacity: .4;mix-blend-mode: multiply">
						<g id="&lt;Group&gt;">
							<path id="&lt;Path&gt;" class="s1" d="m988.8 541c-1.6-4.9-5.7-9-10.8-10.8-1-0.4-2.1-0.7-3.2-1-1.4 4.9-4.5 9.3-9.3 12.1-1.5 0.9-3.2 1.6-5 2.1-9.8 2.8-20.2 4.7-30.6 1.9-0.1 3.5 1 7.1 3.1 10l26.6 0.1 26.6 0.2c3.2-4.2 4.1-9.7 2.6-14.6z"/>
						</g>
					</g>
				</g>
				<g id="&lt;Group&gt;">
					<g id="&lt;Group&gt;">
						<g id="&lt;Group&gt;">
							<path id="&lt;Path&gt;" class="s6" d="m1007.5 587.3c-0.1-3.2-1.5-6-3.7-8-2.1-2.1-5-3.4-8.2-3.4l-36.1-0.2-36.1-0.2c-3.2 0-6.1 1.2-8.2 3.2-2.2 2-3.7 4.8-3.8 8l-10.6 176.5c-0.2 3.4 1.1 6.5 3.2 8.8 2.2 2.3 5.2 3.8 8.7 3.8l45.6 0.3 45.5 0.3c3.5 0 6.6-1.4 8.7-3.7 2.2-2.3 3.5-5.4 3.4-8.8z"/>
						</g>
					</g>
					<g id="&lt;Group&gt;">
						<g id="&lt;Group&gt;">
							<path id="&lt;Compound Path&gt;" class="s9" d="m995.6 585.1c1.5 0 2.7 1.2 2.7 2.7l8.4 176.5c0 1-0.5 1.7-0.8 2.1-0.3 0.3-1 0.8-2 0.8l-45.6-0.3-45.6-0.3c-1 0-1.7-0.5-2-0.8-0.3-0.4-0.8-1.1-0.7-2.1l10.5-176.4c0.1-1.5 1.3-2.7 2.8-2.6l36.1 0.2z"/>
						</g>
					</g>
					<g id="&lt;Group&gt;">
						<g id="&lt;Group&gt;">
							<path id="&lt;Path&gt;" class="s11" d="m947.6 683.4c-9.6-1.8-15.7-11.5-25.2-15-2.1-0.5-4.4-0.4-6.7 0l-5.7 95.3c-0.1 1 0.4 1.7 0.7 2.1 0.3 0.3 1 0.8 2 0.8l45.6 0.3 45.6 0.3c1 0 1.7-0.5 2-0.8 0.3-0.4 0.8-1.1 0.8-2.1l-4.8-101.5c-14.2 14.8-33.1 24.6-54.3 20.6z"/>
						</g>
					</g>
					<g id="&lt;Group&gt;">
						<g id="&lt;Group&gt;">
							<g id="&lt;Group&gt;">
								<path id="&lt;Path&gt;" class="s16" d="m950.9 752.5l-17.9-0.1c-0.7 0-1.3-0.6-1.3-1.4 0-0.7 0.6-1.3 1.3-1.3l18 0.1c0.7 0.1 1.3 0.6 1.3 1.4 0 0.7-0.6 1.3-1.4 1.3z"/>
							</g>
						</g>
						<g id="&lt;Group&gt;">
							<g id="&lt;Group&gt;">
								<path id="&lt;Path&gt;" class="s16" d="m946.8 739.9l-9.6-0.1c-0.7 0-1.3-0.6-1.3-1.3 0-0.7 0.6-1.3 1.3-1.3l9.7 0.1c0.7 0 1.3 0.6 1.3 1.3 0 0.7-0.6 1.3-1.4 1.3z"/>
							</g>
						</g>
						<g id="&lt;Group&gt;">
							<g id="&lt;Group&gt;">
								<path id="&lt;Path&gt;" class="s16" d="m946.9 727.3h-9.6c-0.7 0-1.3-0.6-1.3-1.3 0-0.8 0.6-1.3 1.3-1.3h9.6c0.8 0 1.3 0.6 1.3 1.3 0 0.8-0.6 1.3-1.3 1.3z"/>
							</g>
						</g>
						<g id="&lt;Group&gt;">
							<g id="&lt;Group&gt;">
								<path id="&lt;Path&gt;" class="s16" d="m947 714.8l-9.6-0.1c-0.7 0-1.3-0.6-1.3-1.3 0-0.7 0.6-1.3 1.3-1.3l9.6 0.1c0.7 0 1.3 0.6 1.3 1.3 0 0.7-0.6 1.3-1.3 1.3z"/>
							</g>
						</g>
						<g id="&lt;Group&gt;">
							<g id="&lt;Group&gt;">
								<path id="&lt;Path&gt;" class="s16" d="m951.3 702.3l-18-0.1c-0.7 0-1.3-0.6-1.3-1.4 0-0.7 0.6-1.3 1.3-1.3l18 0.1c0.7 0.1 1.3 0.6 1.3 1.4 0 0.7-0.6 1.3-1.3 1.3z"/>
							</g>
						</g>
						<g id="&lt;Group&gt;">
							<g id="&lt;Group&gt;">
								<path id="&lt;Path&gt;" class="s16" d="m947.2 689.7l-9.7-0.1c-0.7 0-1.3-0.6-1.3-1.3 0-0.7 0.6-1.3 1.4-1.3l9.6 0.1c0.7 0 1.3 0.6 1.3 1.3 0 0.7-0.6 1.3-1.3 1.3z"/>
							</g>
						</g>
						<g id="&lt;Group&gt;">
							<g id="&lt;Group&gt;">
								<path id="&lt;Path&gt;" class="s16" d="m947.2 677.1h-9.6c-0.7 0-1.3-0.6-1.3-1.3 0-0.8 0.6-1.3 1.3-1.3h9.6c0.8 0 1.4 0.6 1.4 1.3-0.1 0.8-0.6 1.3-1.4 1.3z"/>
							</g>
						</g>
						<g id="&lt;Group&gt;">
							<g id="&lt;Group&gt;">
								<path id="&lt;Path&gt;" class="s16" d="m947.3 664.6l-9.6-0.1c-0.7 0-1.3-0.6-1.3-1.3 0-0.7 0.6-1.3 1.3-1.3l9.6 0.1c0.8 0 1.3 0.6 1.3 1.3 0 0.7-0.6 1.3-1.3 1.3z"/>
							</g>
						</g>
						<g id="&lt;Group&gt;">
							<g id="&lt;Group&gt;">
								<path id="&lt;Path&gt;" class="s16" d="m951.6 652.1l-18-0.1c-0.7 0-1.3-0.6-1.3-1.4 0-0.7 0.6-1.3 1.3-1.3l18 0.1c0.7 0.1 1.3 0.6 1.3 1.4 0 0.7-0.6 1.3-1.3 1.3z"/>
							</g>
						</g>
						<g id="&lt;Group&gt;">
							<g id="&lt;Group&gt;">
								<path id="&lt;Path&gt;" class="s16" d="m947.5 639.5l-9.6-0.1c-0.8 0-1.4-0.6-1.3-1.3 0-0.7 0.5-1.3 1.3-1.3l9.6 0.1c0.7 0 1.3 0.6 1.3 1.3 0 0.7-0.6 1.3-1.3 1.3z"/>
							</g>
						</g>
						<g id="&lt;Group&gt;">
							<g id="&lt;Group&gt;">
								<path id="&lt;Path&gt;" class="s16" d="m947.5 626.9h-9.6c-0.7 0-1.3-0.6-1.3-1.3 0-0.8 0.6-1.3 1.3-1.3h9.7c0.7 0 1.3 0.6 1.3 1.3 0 0.8-0.6 1.3-1.4 1.3z"/>
							</g>
						</g>
						<g id="&lt;Group&gt;">
							<g id="&lt;Group&gt;">
								<path id="&lt;Path&gt;" class="s16" d="m947.6 614.4l-9.6-0.1c-0.7 0-1.3-0.6-1.3-1.3 0-0.7 0.6-1.3 1.3-1.3l9.6 0.1c0.8 0 1.3 0.6 1.3 1.3 0 0.7-0.6 1.3-1.3 1.3z"/>
							</g>
						</g>
						<g id="&lt;Group&gt;">
							<g id="&lt;Group&gt;">
								<path id="&lt;Path&gt;" class="s16" d="m951.9 601.9l-18-0.1c-0.7 0-1.3-0.6-1.3-1.4 0-0.7 0.6-1.3 1.3-1.3l18 0.1c0.7 0.1 1.3 0.6 1.3 1.4 0 0.7-0.6 1.3-1.3 1.3z"/>
							</g>
						</g>
					</g>
					<g id="&lt;Group&gt;" style="mix-blend-mode: multiply">
						<g id="&lt;Group&gt;">
							<path id="&lt;Path&gt;" class="s11" d="m900.9 762.4l-0.1 0.8c-0.2 3.4 1.1 6.5 3.2 8.8 2.2 2.3 5.2 3.8 8.7 3.8l45.6 0.3 45.5 0.3c3.5 0 6.6-1.4 8.7-3.7 2.2-2.3 3.5-5.4 3.4-8.8l-3.9-82.3c-19.8 43.9-62.4 81.6-111.1 80.8z"/>
						</g>
					</g>
				</g>
				<g id="&lt;Group&gt;">
					<g id="&lt;Group&gt;">
						<path id="&lt;Path&gt;" class="s24" d="m992.7 552.8l-66.1-0.5c-1.5 0-2.8 0.6-3.8 1.6-1.1 1-1.8 2.4-1.8 4l-0.1 12c0 1.2 0.4 2.4 1 3.3 1 1.4 2.7 2.3 4.6 2.4l66 0.4c1.4 0 2.7-0.5 3.7-1.4 1.2-1 2-2.5 2-4.2v-12c0.1-1.7-0.7-3.3-1.9-4.3-1-0.8-2.3-1.3-3.6-1.3z"/>
					</g>
				</g>
				<g id="&lt;Group&gt;">
					<g id="&lt;Group&gt;">
						<g id="&lt;Group&gt;">
							<path id="&lt;Path&gt;" class="s4" d="m926.5 573.3c-0.7 0-1.3-0.6-1.3-1.4l0.1-16c0-0.7 0.6-1.3 1.3-1.3 0.7 0 1.3 0.6 1.3 1.4l-0.1 16c0 0.7-0.6 1.3-1.3 1.3z"/>
						</g>
					</g>
					<g id="&lt;Group&gt;">
						<g id="&lt;Group&gt;">
							<path id="&lt;Path&gt;" class="s4" d="m932 573.3c-0.7 0-1.3-0.6-1.3-1.3l0.1-16c0-0.7 0.6-1.3 1.3-1.3 0.7 0 1.3 0.6 1.3 1.3l-0.1 16c0 0.7-0.6 1.3-1.3 1.3z"/>
						</g>
					</g>
					<g id="&lt;Group&gt;">
						<g id="&lt;Group&gt;">
							<path id="&lt;Path&gt;" class="s4" d="m937.5 573.3c-0.7 0-1.3-0.6-1.3-1.3l0.1-16c0-0.7 0.6-1.3 1.3-1.3 0.7 0 1.3 0.6 1.3 1.3l-0.1 16c0 0.7-0.6 1.3-1.3 1.3z"/>
						</g>
					</g>
					<g id="&lt;Group&gt;">
						<g id="&lt;Group&gt;">
							<path id="&lt;Path&gt;" class="s4" d="m943 573.4c-0.7 0-1.3-0.6-1.3-1.4l0.1-15.9c0-0.8 0.6-1.4 1.3-1.4 0.7 0.1 1.3 0.6 1.3 1.4l-0.1 16c0 0.7-0.6 1.3-1.3 1.3z"/>
						</g>
					</g>
					<g id="&lt;Group&gt;">
						<g id="&lt;Group&gt;">
							<path id="&lt;Path&gt;" class="s4" d="m948.5 573.4c-0.7 0-1.3-0.6-1.3-1.3l0.1-16c0-0.7 0.6-1.3 1.3-1.3 0.7 0 1.3 0.6 1.3 1.3l-0.1 16c0 0.7-0.6 1.3-1.3 1.3z"/>
						</g>
					</g>
					<g id="&lt;Group&gt;">
						<g id="&lt;Group&gt;">
							<path id="&lt;Path&gt;" class="s4" d="m954 573.4c-0.7 0-1.3-0.6-1.3-1.3l0.1-16c0-0.7 0.6-1.3 1.3-1.3 0.7 0 1.3 0.6 1.3 1.3l-0.1 16c0 0.7-0.6 1.3-1.3 1.3z"/>
						</g>
					</g>
					<g id="&lt;Group&gt;">
						<g id="&lt;Group&gt;">
							<path id="&lt;Path&gt;" class="s4" d="m959.5 573.5c-0.7 0-1.3-0.6-1.3-1.4l0.1-15.9c0-0.8 0.6-1.4 1.3-1.4 0.8 0.1 1.3 0.6 1.3 1.4l-0.1 16c0 0.7-0.6 1.3-1.3 1.3z"/>
						</g>
					</g>
					<g id="&lt;Group&gt;">
						<g id="&lt;Group&gt;">
							<path id="&lt;Path&gt;" class="s4" d="m965 573.5c-0.7 0-1.3-0.6-1.3-1.3l0.1-16c0-0.7 0.6-1.3 1.3-1.3 0.8 0 1.3 0.6 1.3 1.3l-0.1 16c0 0.7-0.6 1.3-1.3 1.3z"/>
						</g>
					</g>
					<g id="&lt;Group&gt;">
						<g id="&lt;Group&gt;">
							<path id="&lt;Path&gt;" class="s4" d="m970.5 573.5c-0.7 0-1.3-0.6-1.3-1.3l0.1-16c0-0.7 0.6-1.3 1.3-1.3 0.8 0 1.3 0.6 1.3 1.3l-0.1 16c0 0.8-0.6 1.3-1.3 1.3z"/>
						</g>
					</g>
					<g id="&lt;Group&gt;">
						<g id="&lt;Group&gt;">
							<path id="&lt;Path&gt;" class="s4" d="m976 573.6c-0.7 0-1.3-0.6-1.3-1.4l0.1-15.9c0-0.8 0.6-1.4 1.3-1.3 0.8 0 1.4 0.5 1.3 1.3l-0.1 16c0 0.7-0.5 1.3-1.3 1.3z"/>
						</g>
					</g>
					<g id="&lt;Group&gt;">
						<g id="&lt;Group&gt;">
							<path id="&lt;Path&gt;" class="s4" d="m981.5 573.6c-0.7 0-1.3-0.6-1.3-1.3l0.1-16c0-0.7 0.6-1.3 1.3-1.3 0.8 0 1.4 0.6 1.4 1.3l-0.1 16c-0.1 0.7-0.6 1.3-1.4 1.3z"/>
						</g>
					</g>
					<g id="&lt;Group&gt;">
						<g id="&lt;Group&gt;">
							<path id="&lt;Path&gt;" class="s4" d="m987 573.6c-0.7 0-1.3-0.6-1.3-1.3l0.1-16c0-0.7 0.6-1.3 1.4-1.3 0.7 0 1.3 0.6 1.3 1.3l-0.1 16c0 0.8-0.6 1.3-1.4 1.3z"/>
						</g>
					</g>
					<g id="&lt;Group&gt;">
						<g id="&lt;Group&gt;">
							<path id="&lt;Path&gt;" class="s4" d="m992.5 573.7c-0.7 0-1.3-0.6-1.3-1.4l0.1-15.9c0-0.8 0.6-1.4 1.4-1.3 0.7 0 1.3 0.5 1.3 1.3l-0.1 16c0 0.7-0.6 1.3-1.4 1.3z"/>
						</g>
					</g>
				</g>
			</g>
			<g id="&lt;Group&gt;">
				<g id="&lt;Group&gt;">
					<path id="&lt;Path&gt;" class="s25" d="m283.9 505.9c-4.3-1.6-7.5-5.7-8.6-10.2-1-4.6 0.1-9.4 2.4-13.4 1.9-3.3 4.6-6.2 8.1-7.7 2.2-0.9 4.6-1.3 6.9-1.3 5.8 0.2 11.4 3.3 14.6 8.1 3.2 4.8 3.9 11.1 1.8 16.5z"/>
					<path id="&lt;Path&gt;" class="s26" d="m284.2 502.9c-2-0.9-3.4-3.5-3.7-6.5-0.4-3 0.3-6.2 1.5-9 1-2.2 2.5-4.2 4.2-5.3 1.1-0.7 2.3-1.1 3.4-1.1 2.8-0.1 5.4 1.8 6.8 4.8 1.3 3.1 1.5 7.3 0.3 11z"/>
				</g>
				<path id="&lt;Path&gt;" class="s25" d="m246.2 688.9c8.7 6 10.5 18.3 3.8 26.6-6.8 8.5-20.5 19.7-46.5 24.9-45 8.8-80.9 21.6-83.7-31.7-2.8-53.4 26-58.2 36.8-55.4 15.3 4 19.9 25.1 19.9 25.1 0 0 48.1-4.4 69.7 10.5z"/>
				<path id="&lt;Path&gt;" class="s27" d="m137.5 720.8c16-0.6 30.8-3.4 43.8-10.8q-0.7 3-1.3 6.1 0.6-3.1 1.3-6.1 4-2.2 7.7-5-3.7 2.8-7.7 5c2.9-11.5 7.6-22.3 13.2-32.2 15.9 0.2 38.6 2.1 51.7 11.1 8.7 6 10.5 18.3 3.8 26.6-6.8 8.5-20.5 19.7-46.5 24.9-43.5 8.5-78.5 20.8-83.3-26.5 4.3 4.3 9.9 7.2 17.3 6.9z"/>
				<g id="&lt;Group&gt;">
					<g id="&lt;Group&gt;">
						<path id="&lt;Path&gt;" class="s25" d="m288.9 591.5c6.4 3.7 8.7 11.9 5.7 18.6-3.7 8.3-11.6 20.9-28 31.8-27 18-74.3 39.8-88.7 15.8-14.1-23.8 36.8-49 57.6-56.5 19.7-7.1 39.1-17.8 53.4-9.7z"/>
					</g>
					<g id="&lt;Group&gt;" style="opacity: .4;mix-blend-mode: multiply">
						<g id="&lt;Group&gt;">
							<path id="&lt;Path&gt;" class="s25" d="m209.3 622.4c1.1 0.6 2.2 1.1 3.3 1.8-1.1-0.7-2.2-1.2-3.3-1.8q1.5-2 3.2-3.9-1.7 1.9-3.2 3.9c-2.9-1.3-5.9-2.3-8.4-4.1 12.2-7.8 26-14 34.6-17.1 19.7-7.1 39.1-17.8 53.4-9.7 6.4 3.7 8.7 11.9 5.7 18.6-3.7 8.3-11.6 20.9-28 31.8-20.5 13.7-52.7 29.5-73.3 25.8 1.8-16 6.1-32.3 16-45.3z"/>
						</g>
					</g>
				</g>
				<path id="&lt;Path&gt;" class="s25" d="m286.6 573.3c0 0-58 36.6-75.2 87.6-15 44.5-7.6 97.4 44.8 106.9 52.4 9.4 140.1-7.2 95.7-168.2z"/>
				<path id="&lt;Path&gt;" class="s27" d="m305.1 738.1c31.6-15.5 52-45.9 58.1-79.4 9.3 106-61.9 117.2-107 109.1-25.6-4.6-40.5-19.7-47.2-39 26.5 20.2 64.3 25.4 96.1 9.3z"/>
				<path id="&lt;Path&gt;" class="s26" d="m257.1 596.4c16.5-15.2 29.5-23.1 29.5-23.1l65.3 26.3c0.6 2.1 1.5 6 2.1 8.1-30.6 15.8-73.3 14-96.9-11.3z"/>
				<path id="&lt;Path&gt;" class="s28" d="m286.6 573.3c-17.6 11.2-33.8 24.9-47.8 40.6-6.9 7.8-13.3 16.3-18.6 25.4q-4 6.8-7.1 14.1c-2.1 4.9-3.8 9.9-5.1 14.9-2.8 10.2-4.4 20.7-4.5 31.3 0 10.5 1.4 21.2 5.2 31.1 3.8 9.9 10.2 18.9 18.6 25.3 8.4 6.4 18.6 10.1 28.9 11.8-5.1-1.1-10.2-2.6-14.9-4.7-4.8-2.1-9.3-4.7-13.3-8-8.2-6.4-14.1-15.3-17.6-25-3.5-9.7-5-20.1-4.8-30.5 0.1-10.3 1.8-20.7 4.5-30.7 1.3-5 3-9.9 5-14.7q3-7.2 6.9-13.9c5.1-9 11.4-17.4 18.1-25.3 6.8-7.9 14.2-15.3 22-22.3 7.7-6.9 15.9-13.5 24.5-19.4z"/>
				<g id="&lt;Group&gt;">
					<g id="&lt;Group&gt;">
						<path id="&lt;Path&gt;" class="s25" d="m349.4 612.4c-7.3-0.8-14 4.4-15.6 11.6-1.9 8.9-3 23.7 3.8 42.2 11.2 30.5 36.4 76.1 62.2 65.2 25.4-10.8-0.7-61.2-13.1-79.6-11.6-17.4-21-37.5-37.3-39.4z"/>
					</g>
					<g id="&lt;Group&gt;" style="opacity: .4;mix-blend-mode: multiply">
						<g id="&lt;Group&gt;">
							<path id="&lt;Path&gt;" class="s25" d="m408.2 723.7c-1.7 3.3-4.5 6-8.4 7.7-20.9 8.8-41.3-19.3-54.3-46.4 16 22.3 36.6 39.5 62.7 38.7z"/>
						</g>
					</g>
				</g>
				<path id="&lt;Path&gt;" class="s25" d="m315.4 728.6c8.4 6.4 9.5 18.8 2.4 26.8-7.2 8.1-21.4 18.7-47.7 22.5-45.4 6.5-81.8 17.5-82-35.9-0.1-53.4 29-56.8 39.5-53.5 15.2 4.8 18.7 26.1 18.7 26.1 0 0 48.2-1.9 69.1 14z"/>
				<path id="&lt;Path&gt;" class="s27" d="m218.2 765.1c34.8 9.2 77.5 3.9 104.2-20.6-0.3 3.9-1.8 7.7-4.6 10.9-7.2 8.1-21.4 18.7-47.7 22.5-44.6 6.4-80.6 17.2-81.9-33.2 7.8 9.8 17.7 17.3 30 20.4z"/>
				<path id="&lt;Path&gt;" class="s25" d="m250.1 559.9c0.4-15.2 7.6-22 7.6-22 7.6-39.8 48.2-45.9 48.2-45.9h0.1c8.5-1.7 17.4-1.7 26.4 0.4 4.5 1.1 8.8 2.7 12.8 4.7l1.2 0.1v0.5c24.7 13 38.3 42.1 31.3 71.2-7.1 29.7-33 43-61.5 40.8-4.4 0.8-9.1 0.7-14-0.4-38.9-9.4-52.5-31.4-52.1-49.4z"/>
				<path id="&lt;Path&gt;" class="s27" d="m273.1 591.5c41.3 18 89.5-1.3 106.3-41.8 0.4 6.3-0.1 12.7-1.7 19.2-7.1 29.7-33 43-61.5 40.8-4.4 0.8-9.1 0.7-14-0.4-24.5-5.9-38.9-16.8-46.2-28.5 5 4.3 10.7 8 17.1 10.7z"/>
				<g id="&lt;Group&gt;">
					<g id="&lt;Group&gt;">
						<g id="&lt;Group&gt;">
							<path id="&lt;Path&gt;" class="s28" d="m262.7 559.4c-0.3 1.4 0.2 3 1.4 4 0.6 0.5 1.3 0.9 2 1.1q0.6 0.2 1.2 0.2c0.3 0.1 0.9 0.1 1.3-0.1 1-0.2 1.6-0.9 2.1-1.5 0.5-0.7 0.7-1.4 0.9-2.1 0.4-1.3 0.5-2.7 0.2-4.1-0.7 1.2-1.3 2.4-1.9 3.4-0.6 1.1-1.3 2-1.9 2.2-0.2 0.1-0.3 0.1-0.6 0.1q-0.4 0-0.8 0-0.9-0.1-1.6-0.5c-1-0.4-1.8-1.4-2.3-2.7z"/>
							<path id="&lt;Path&gt;" class="s28" d="m283.9 564c-1.5 1-3.1 1.7-4.7 1.9q-1.2 0.2-2.3 0-1.1-0.3-2.2-0.8-0.5-0.3-0.9-0.7c-0.2-0.1-0.3-0.2-0.5-0.3q-0.1-0.2-0.3-0.4-0.5-0.7-0.8-1.8c-0.3-1.5-0.3-3.2-0.4-5-1.2 1.5-1.8 3.3-1.7 5.3 0.1 1 0.5 2.1 1.3 2.9q0.2 0.3 0.6 0.6l0.6 0.4q0.6 0.4 1.2 0.7c1.8 0.9 3.9 1 5.7 0.4 1.8-0.6 3.3-1.8 4.4-3.2z"/>
						</g>
						<g id="&lt;Group&gt;">
							<path id="&lt;Path&gt;" class="s29" d="m284.9 552.4c-0.7 3-8.9 7.3-13.4 6.2-4.7-1.1-7.8-8.1-7.1-11.1 0.5-2.2 4.6-4.5 10.2-3.2 5.7 1.4 11 5.2 10.3 8.1z"/>
							<path id="&lt;Path&gt;" class="s30" d="m278.9 548.7c-0.2 0.8-2.6 0.9-5.3 0.3-2.7-0.7-4.8-1.8-4.6-2.7 0.2-0.8 2.6-0.9 5.3-0.2 2.7 0.6 4.8 1.8 4.6 2.6z"/>
						</g>
					</g>
					<path id="&lt;Path&gt;" class="s28" d="m265 540.2c2.3-0.1 4.4 0.1 6.5 0.4 2.1 0.3 4.2 0.8 6.2 1.4 2.1 0.6 4.1 1.3 6 2.2 1 0.4 2 0.8 3 1.3 1 0.4 2 0.9 3.1 1.3q-1.2-1.2-2.5-2.3c-0.9-0.6-1.8-1.3-2.8-1.9-1.9-1.2-4-2.1-6.1-2.8-2.2-0.6-4.5-1-6.8-1-2.2 0.1-4.5 0.4-6.6 1.4z"/>
				</g>
				<g id="&lt;Group&gt;">
					<path id="&lt;Path&gt;" class="s25" d="m344.8 504.5c0.4-5.9 4.2-11.2 9.3-14.1 5.1-2.8 11.4-3.3 17.1-2 4.6 1.1 9.1 3.5 12.2 7.1 1.9 2.3 3.3 5 4 7.9 1.9 7.1 0.2 15-4.5 20.6-4.6 5.6-12.1 8.7-19.3 8.2z"/>
					<path id="&lt;Path&gt;" class="s28" d="m344.8 504.5c0.5-4.2 2.7-8.1 5.8-10.8 3.1-2.8 7.1-4.4 11.1-4.9 4.1-0.4 8.3 0.1 12.1 1.5 3.8 1.4 7.3 3.8 9.6 7.1 2.4 3.3 3.6 7.3 3.7 11.3 0.1 4.1-0.9 8.2-2.8 11.8-2 3.6-5 6.6-8.7 8.6-3.6 2.1-7.8 3.1-12 3.1 4.2 0.5 8.6-0.3 12.5-2.1 2-1 3.8-2.2 5.5-3.7 1.6-1.4 3-3.2 4.2-5 2.3-3.8 3.4-8.3 3.4-12.7 0-4.5-1.4-8.9-4-12.6-2.6-3.7-6.5-6.3-10.7-7.8-4.1-1.4-8.6-1.9-13-1.2-4.3 0.7-8.5 2.7-11.6 5.8-3 3.1-5.1 7.3-5.1 11.6z"/>
					<path id="&lt;Path&gt;" class="s26" d="m346 510.6c1.8-3.3 4.1-6.4 6.8-9.2 2.7-2.8 6.4-5.4 10.7-4.9 3 0.3 5.6 2.3 7.2 4.7 1.6 2.4 2.2 5.1 2.6 7.9 0.3 2.6 0.4 5.2-0.2 7.7-1.7 6.8-9 11.9-16.9 11.8z"/>
					<path id="&lt;Path&gt;" class="s25" d="m344.8 504.5c0 0 16.6 10 18.8 27.7l-17.4 2.6-6.2-17.9z"/>
				</g>
				<path id="&lt;Path&gt;" class="s28" d="m319 544.8c-3.6 0.3-7 0.6-10.3 0.1-1.6-0.3-3.1-0.8-4.5-1.6-1.5-0.7-2.7-1.9-4-3.2 0.5 1.7 1.4 3.4 2.9 4.7 1.5 1.2 3.4 2 5.2 2.3 1.9 0.3 3.8 0.2 5.6-0.2 1.8-0.4 3.5-1 5.1-2.1z"/>
				<path id="&lt;Path&gt;" class="s28" d="m275.3 534c-2.3-0.1-4.2-0.1-6-0.6-0.9-0.2-1.7-0.5-2.5-1-0.9-0.4-1.6-1.1-2.5-1.8 0.1 1.1 0.5 2.3 1.3 3.2 0.9 0.9 2 1.6 3.2 1.8 1.2 0.3 2.4 0.3 3.5 0 1.1-0.3 2.2-0.8 3-1.6z"/>
				<g id="&lt;Group&gt;">
					<g id="&lt;Group&gt;">
						<path id="&lt;Path&gt;" class="s28" d="m386.7 651.8c-2.2-4.1-4.4-8.2-6.8-12.2-2.3-4.1-4.8-8.1-7.6-11.9-2.8-3.7-5.9-7.4-9.7-10.3-3.8-2.9-8.4-4.9-13.2-5 4.6 1 8.6 3.4 12.1 6.4 3.4 3 6.3 6.5 9 10.3 2.8 3.7 5.3 7.5 8 11.4 2.6 3.8 5.3 7.7 8.2 11.3z"/>
						<path id="&lt;Path&gt;" class="s28" d="m335.4 620c-1.9 3.5-2.8 7.5-3.4 11.5-0.5 4-0.6 8-0.3 12.1 0.6 8 2.6 15.9 5.3 23.5 2.7 7.6 5.9 15 9.5 22.2 3.6 7.2 7.6 14.2 12.2 20.9 4.7 6.5 10 12.8 16.6 17.7 3.3 2.4 7.1 4.4 11.1 5.4 2 0.5 4.1 0.7 6.2 0.6 2.1-0.1 4.2-0.5 6.2-1.2 3.9-1.4 7.5-4.1 9.5-7.8 2.1-3.7 2.8-7.9 2.8-11.9-0.1-4.1-0.7-8.1-1.7-12-0.9-3.9-2.1-7.7-3.6-11.5 2.4 7.6 4.4 15.5 4.2 23.5-0.2 3.9-0.9 7.9-2.9 11.2-2 3.3-5.2 5.6-8.9 6.8-3.6 1.3-7.6 1.4-11.3 0.4-3.7-1-7.2-2.8-10.4-5.2-6.2-4.7-11.4-10.8-16-17.3-9.1-13-16.1-27.5-21.9-42.4-2.9-7.4-5-15.1-5.8-23-0.5-4-0.6-8-0.2-12q0.3-2.9 0.9-5.9c0.5-1.9 1-3.8 1.9-5.6z"/>
					</g>
				</g>
				<path id="&lt;Path&gt;" class="s28" d="m312.8 726.8c-4.8-3.1-10.1-5.4-15.6-7.1-5.4-1.7-11-2.9-16.7-3.8-5.7-0.9-11.4-1.5-17.1-1.9-5.7-0.4-11.4-0.5-17.2-0.4l1 0.9c-0.5-2.9-1.3-5.7-2.3-8.4-1-2.7-2.3-5.3-3.8-7.8-1.6-2.4-3.4-4.7-5.7-6.7-2.2-1.9-4.9-3.4-7.7-4.2-5.8-1.6-11.9-0.9-17.3 1.4-5.5 2.3-10 6.4-13.2 11.1-1.7 2.4-3 5-4.2 7.6-1 2.7-2 5.4-2.6 8.2-1.5 5.5-2.2 11.2-2.5 16.9l-0.2 4.2v4.3c0.1 2.8 0.4 5.7 0.6 8.5 0.3 2.8 0.6 5.6 1.1 8.4 0.5 2.8 1 5.6 2 8.2-0.9-2.7-1.3-5.5-1.7-8.3q-0.5-4.1-0.8-8.4c-0.2-2.8-0.4-5.6-0.4-8.4l0.2-4.2 0.3-4.2c0.5-5.6 1.3-11.2 2.9-16.6 0.7-2.7 1.7-5.3 2.8-7.8 1.1-2.6 2.5-5 4-7.3 3.2-4.5 7.4-8.2 12.5-10.3 5-2.1 10.7-2.7 15.8-1.2 2.6 0.8 5 2.1 7 3.8 2.1 1.7 3.8 3.9 5.3 6.2 2.9 4.6 4.9 9.9 6 15.3l0.2 0.9 0.8-0.1c5.6-0.2 11.4 0 17 0.2 5.7 0.2 11.4 0.7 17 1.4q4.2 0.6 8.4 1.4 4.2 0.8 8.3 1.9c5.5 1.4 10.9 3.4 15.8 6.3z"/>
				<path id="&lt;Path&gt;" class="s28" d="m270.1 777.9c6.6-0.6 13.2-1.7 19.5-3.8 3.2-0.9 6.3-2.2 9.3-3.6 3.1-1.4 6-3.1 8.8-4.9 2.8-1.9 5.4-4 7.8-6.3 1.2-1.2 2.4-2.4 3.4-3.7 1.2-1.4 2-2.9 2.7-4.5 1.4-3.1 1.8-6.7 1.3-10-0.5-3.4-1.9-6.6-4.1-9.1 3.7 5.6 4 12.8 1.2 18.4-0.7 1.4-1.5 2.7-2.6 3.9-1 1.2-2.2 2.3-3.3 3.4q-3.6 3.4-7.7 6c-5.3 3.7-11.2 6.5-17.4 8.8-6.1 2.2-12.4 4-18.9 5.4z"/>
				<path id="&lt;Path&gt;" class="s28" d="m326.5 491.3c-5-1.3-10.3-1.5-15.5-1-5.2 0.4-10.4 1.5-15.3 3.4-4.9 1.9-9.7 4.2-13.9 7.3-2.2 1.4-4.1 3.3-6 5q-0.8 0.6-1.4 1.3l-1.4 1.4q-1.3 1.5-2.6 2.9 1.6-1.2 3.1-2.4c1-0.8 1.9-1.7 3-2.4 2.1-1.5 4.1-3.1 6.3-4.3 1.1-0.7 2.2-1.4 3.3-2l3.4-1.7c1.1-0.6 2.3-1.1 3.4-1.6 1.2-0.5 2.4-1 3.6-1.4 1.2-0.4 2.4-0.9 3.6-1.3l3.6-1q3.7-0.9 7.5-1.5c5-0.7 10.2-1 15.3-0.7z"/>
				<path id="&lt;Path&gt;" class="s28" d="m241.9 704.4c1 2.1 1.8 4.3 2.5 6.6q1 3.4 1.5 7c0.4 2.4 0.6 4.8 0.6 7.2 0.1 2.4-0.1 4.8-0.3 7.3 0.4-2.4 0.7-4.8 0.9-7.3 0.2-2.4 0.1-4.9 0-7.3q-0.3-3.7-1.1-7.3c-0.5-2.4-1.1-4.8-2.1-7.1z"/>
				<path id="&lt;Path&gt;" class="s31" d="m127 701c0 19.3 7 35 15.6 35 8.6 0 15.5-15.7 15.4-35.1 0-19.4-7-35.1-15.6-35-8.5 0-15.5 15.7-15.4 35.1z"/>
				<path id="&lt;Path&gt;" class="s31" d="m194.8 737.5c0 19.4 7 35.1 15.6 35 8.6 0 15.5-15.7 15.4-35.1 0-19.3-7-35-15.6-35-8.6 0-15.5 15.7-15.4 35.1z"/>
				<path id="&lt;Path&gt;" class="s28" d="m315.4 609.6c-5.5 0-11.1-0.6-16.5-1.7-5.3-1.1-10.6-2.6-15.7-4.8-5-2.2-9.7-5-14.1-8.3-4.3-3.3-8.2-7.3-11.8-11.6 2.8 4.8 6.4 9.3 10.7 13 2.1 1.8 4.5 3.5 6.8 5q3.7 2.2 7.6 3.9c5.2 2.2 10.7 3.8 16.3 4.5 5.5 0.8 11.2 0.9 16.7 0z"/>
				<path id="&lt;Path&gt;" class="s28" d="m310.4 522.6c1.4 1.3 2.7 2.2 4 3.2 1.2 0.9 2.7 1.4 4.1 2.3q2 1.3 3.8 3c1.2 1.1 2.3 2.4 3.4 3.7l0.3-0.2c-0.7-1.6-1.5-3.1-2.5-4.6q-1.4-2.1-3.3-4c-1.3-1.2-2.6-2.6-4.3-3.2-1.7-0.7-3.5-1-5.4-0.5z"/>
				<path id="&lt;Path&gt;" class="s28" d="m280.2 516.9c-0.5-0.6-1.2-1-1.9-1.3q-1-0.4-2.1-0.4c-1.5-0.1-2.8 0.7-4 1.3-1.3 0.6-2.4 1.4-3.4 2.4-0.9 1-1.7 2.2-2.1 3.4l0.3 0.2q1.3-1.4 2.9-2.2 1.5-0.9 3.2-1.3c1.2-0.3 2.4-0.1 3.4-0.4 1.1-0.4 2.2-0.7 3.6-1.4z"/>
				<g id="&lt;Group&gt;">
					<path id="&lt;Compound Path&gt;" class="s28" d="m225.4 684.7l-1-0.2q0.5-2.4 1.1-4.9l1 0.3q-0.6 2.4-1.1 4.8zm2.4-9.6l-1-0.3q0.7-2.4 1.5-4.8l1 0.3q-0.8 2.4-1.5 4.8zm3.1-9.5l-0.9-0.3q0.9-2.4 1.8-4.7l1 0.4q-1 2.3-1.9 4.6zm3.9-9.2l-1-0.4q1.1-2.3 2.2-4.5l0.9 0.4q-1.1 2.3-2.1 4.5zm4.4-8.9l-0.8-0.5q1.2-2.2 2.5-4.3l0.8 0.5q-1.3 2.1-2.5 4.3zm5.1-8.5l-0.8-0.6q1.4-2.1 2.8-4.1l0.8 0.5q-1.4 2.1-2.8 4.2zm5.8-8.2l-0.8-0.6q1.5-2 3.1-3.9l0.8 0.6q-1.6 1.9-3.1 3.9zm6.3-7.7l-0.7-0.6q1.7-2 3.4-3.7l0.7 0.7q-1.7 1.7-3.4 3.6zm7-7.1l-0.7-0.7c2.3-2.2 3.7-3.3 3.8-3.4l0.6 0.8c0 0-1.4 1.1-3.7 3.3z"/>
				</g>
				<g id="&lt;Group&gt;">
					<path id="&lt;Path&gt;" class="s32" d="m257.7 599.7c-4.8-0.5-9.5-0.5-13.7 0.1 4.2-0.6 8.9-0.6 13.7-0.1z"/>
					<path id="&lt;Path&gt;" class="s29" d="m211.9 591.5c7.7 4.3 16 7.6 24.7 8.9 3.6 0.5 7.3 0.6 10.9 0.3q2.7-0.2 5.3-0.7 0.2-0.1 0.4-0.2c1.4-0.3 3-1.1 4.3-0.7 8 2-7 12.1-9.1 13.2-6.5 3.5-13.9 5-21.3 4.9q-1.2 0-2.4-0.1c-6.5-0.3-13-1.9-19.1-4.2 6.7 0.2 12.6-4.1 18-8.3-5.1-3-9.2-7.7-11.7-13.1z"/>
					<path id="&lt;Path&gt;" class="s4" d="m253.2 599.8c1.4-0.3 3-1.1 4.3-0.7 8 2-7 12.1-9.1 13.2-6.5 3.5-13.9 5-21.3 4.9q-1.2 0-2.4-0.1c7.6-1.5 15-4.3 22-7.6 4.4-2.1 4.3-6.2 6.5-9.7z"/>
					<path id="&lt;Path&gt;" class="s29" d="m262 602.7c0.5 5-1.3 9.9-3.4 14.5-2.8 6-6.1 11.9-10.7 16.7-4.5 4.9-10.4 8.6-16.9 9.8 4.1-3.8 7.4-8.6 9.3-14-6.5 3.2-14.1 2.2-21.3 1.2 6.3-1.7 11.8-5.6 17-9.4 8.2-6 16.5-11.9 23.3-19.3"/>
					<path id="&lt;Path&gt;" class="s4" d="m261.5 602.2c0 0-26.2-7.7-32.9-21.5 0 0 14.1-2.7 16.5-4.7 0 0 14.7 8.2 15.7 14.2 1 6 0.7 12 0.7 12z"/>
					<path id="&lt;Path&gt;" class="s29" d="m266.4 597.3c0 0 0.3-26-22-28.3 0 0-8 10.3-15.8 11.7 0 0 27.8-0.3 32.9 21.5z"/>
					<path id="&lt;Path&gt;" class="s29" d="m259.8 594.5c3.2-2.2 4.9-1.8 5.8-1 3.2-1 4 1.8 4 1.8 2.1 3.4-3.1 8.2-3.1 8.2 0 0-7.7 4.5-9.2 2.4l-0.1-0.1c-1.3 0.3-2.5 0.4-3-0.3-1.5-2.1-0.1-7 5.6-11z"/>
					<path id="&lt;Path&gt;" class="s33" d="m257.9 603.7c0.4-2.2 1.4-4.3 3-5.9-2.5 1.5-4.7 3.4-6.6 5.7 1.3-1.8 2.6-3.6 4.2-5.1 1.6-1.5 3.6-2.7 5.8-3-0.5 0-1.6 1.5-2 1.9 0.5-0.3 4.4-1.4 4.4-1.4 0 0-4.6 2.8-5.4 3.4-1.3 1.3-2.5 2.8-3.4 4.4z"/>
					<path id="&lt;Path&gt;" class="s4" d="m269.2 594.5c0-0.4-0.2-0.8-0.4-1.1q-0.4-0.5-1-0.8c-0.4-0.1-0.9-0.2-1.3-0.2q-0.7 0.1-1.2 0.4l0.9 0.2c-0.1-0.2-0.2-0.2-0.2-0.3q-0.2-0.1-0.3-0.2-0.3-0.1-0.6-0.3-0.6-0.2-1.2-0.2c-0.8 0-1.5 0.2-2.2 0.5q-0.9 0.5-1.6 1.2-0.8 0.7-1.3 1.6c0.6-0.3 1.1-0.6 1.7-0.9 0.6-0.3 1.1-0.5 1.7-0.7q0.9-0.2 1.6-0.1 0.4 0 0.7 0.1 0.2 0.1 0.3 0.2l0.1 0.1h0.1l1 0.3c0.5-0.3 0.9-0.4 1.4-0.4q0.4 0 0.9 0.1 0.4 0.2 0.9 0.5z"/>
					<path id="&lt;Path&gt;" class="s4" d="m255.5 606q0.4 0.2 0.9 0.3c0.3 0 0.7 0 1-0.1l-0.6-0.3c0.2 0.7 0.8 1 1.3 1.2 0.6 0.1 1.1 0.1 1.6 0q1.4-0.4 2.4-1.5c-0.5 0.1-1 0.2-1.4 0.2q-0.6 0.2-1.2 0.2c-0.4 0.1-0.8 0.1-1.1 0q-0.3 0-0.5-0.1c-0.1-0.1-0.2-0.2-0.3-0.3l-0.4-0.3-0.2 0.1c-0.1 0.1-0.4 0.3-0.7 0.3q-0.4 0.2-0.8 0.3z"/>
					<path id="&lt;Path&gt;" class="s4" d="m311.4 605.1c0 0-4.2 11.2-47.5 0l9.9-7.9 25.3-6.3 7.6 5.1z"/>
					<path id="&lt;Path&gt;" class="s29" d="m269.2 598.2c0 0 26.5-19.1 40-10.6l2.2 17.5c0 0-28-13.7-47.5 0l-2.1-0.4z"/>
					<path id="&lt;Path&gt;" class="s4" d="m274.7 594.7c-1.4 0.4-2.6 1-3.8 1.7q-1.8 1-3.5 2.2-1.7 1.2-3.1 2.6c-1 1-2 2.1-2.5 3.5 1.1-1 2.2-1.7 3.3-2.5q1.6-1.1 3.3-2.3 1.6-1.2 3.2-2.4c1.1-0.9 2.1-1.8 3.1-2.8z"/>
					<path id="&lt;Path&gt;" class="s4" d="m249 575c-1-0.5-2.1-1-3.2-0.8 1.2 2.7 3.9 4.5 6.2 6.3 4.6 3.7 9 11 9 11 0 0-3.1-12.9-12-16.5z"/>
					<path id="&lt;Path&gt;" class="s4" d="m270.5 599.8c0 0 18.3-7.2 27.2-6 1.6 0.2 2.9-1.1 2.8-2.6-0.1-1.2-1-2.1-2.2-2.2-3.3-0.3-11.1 0.7-27.8 10.8z"/>
				</g>
			</g>
		</g>
		<g id="&lt;Group&gt;">
			<g id="&lt;Group&gt;">
				<path id="&lt;Path&gt;" class="s14" d="m22.7 444.7c-0.4 1.7-0.4 3.6 0.7 5 0.8 1 2.2 1.5 3.5 1.7 2.8 0.4 5.8-0.6 8-2.4 2.2-1.8 3.7-4.5 4.3-7.3 0.2-1 0.3-2.1 0-3-0.3-1-1-1.7-1.8-2.3-6.4-5-13.2 2.1-14.7 8.3z"/>
				<path id="&lt;Path&gt;" class="s14" d="m60.6 437.2c0 0.8 0 1.7 0.4 2.4 0.5 1.1 1.6 1.9 2.7 2.4 1 0.6 2.1 1 3.3 1.1 7.7 0.9 11.3-11.3 6.1-16-6.3-5.8-12.4 4.5-12.5 10.1z"/>
				<path id="&lt;Path&gt;" class="s14" d="m45.3 457.5c-0.5 1.7-0.6 3.7 0.5 5.1 0.8 0.8 1.9 1.3 3 1.4 1.9 0.3 3.8-0.5 5.3-1.8 1.4-1.3 2.3-3.1 2.9-4.9 1.1-3.1 0.4-8.6-4-8-3.4 0.5-6.9 5.3-7.7 8.2z"/>
				<path id="&lt;Path&gt;" class="s14" d="m97 465.2c0 1.5 0.5 3.2 1.7 4.2 1.2 0.9 2.9 1 4.4 0.7 3.4-0.7 6.5-2.8 8.3-5.7 2.4-4.2 0.3-10.7-5.2-10.1-5.2 0.5-9.3 6-9.2 10.9z"/>
				<path id="&lt;Path&gt;" class="s14" d="m94.9 504.5c-0.1 1.4 0.1 3 1 4.2 1.2 1.4 3.4 1.7 5.3 1.6 2.8-0.2 5.7-1.2 7.7-3.2 4.1-4 6.5-18.1-1.9-18.8-7.5-0.7-12 10.3-12.1 16.2z"/>
				<path id="&lt;Path&gt;" class="s14" d="m63 534c-0.6 1.8-0.9 3.9 0 5.5 0.5 0.9 1.4 1.6 2.3 2 4 1.9 8.7-0.1 12-3 1.9-1.7 3.6-3.9 4.4-6.4 0.8-2.6 0.6-5.5-0.9-7.7-6.2-8.6-16 3.8-17.8 9.6z"/>
				<path id="&lt;Path&gt;" class="s14" d="m50.4 493.9c-2.1 2.9-2.5 7.1-0.3 9.9 1.6 2.1 4.6 3.1 7.3 2.9 2.4-0.2 4.7-1.3 6.4-2.9 1.7-1.7 2.8-3.9 2.9-6.3 0.6-10.1-11.6-10.1-16.3-3.6z"/>
				<path id="&lt;Path&gt;" class="s14" d="m72.3 469.2c-1.4 2.4-1.8 5.3-1.8 8.1 0 0.8 0.1 1.7 0.3 2.5 0.3 0.8 0.9 1.5 1.6 2.1 2.5 2.1 6.5 2.2 9.2 0.4 2.8-1.9 4.1-5.5 3.5-8.7-1.3-6.2-8.7-11.2-12.8-4.4z"/>
				<path id="&lt;Path&gt;" class="s14" d="m23 487.8c0 0.6 0 1.3 0.3 1.8 0.4 1 1.4 1.5 2.4 1.9 3.1 0.9 6.5 0.1 9.3-1.6 2.4-1.5 4.5-3.7 5.2-6.5 0.7-2.8-0.4-6.1-2.9-7.4-4.3-2.3-6.2-1.6-9.5 1.9-2.6 2.7-4.6 6.1-4.8 9.9z"/>
				<path id="&lt;Path&gt;" class="s14" d="m0.7 476.1c-0.5 2-0.7 4.2 0.3 6.1 1.6 3.1 6 4 9.1 2.4 3.1-1.5 4.9-5 5.2-8.5 0.2-1.7 0-3.5-1-4.8-4.6-6-12-0.7-13.6 4.8z"/>
				<path id="&lt;Path&gt;" class="s14" d="m1.9 511.2c-0.2 1.9-0.3 3.9 0.1 5.8 0.4 1.9 1.4 3.7 3.1 4.7 2.7 1.5 6.3 0.3 8.3-2 2-2.4 2.8-5.6 3.2-8.6 0.6-4.3 0-12.8-6.3-12.4-5.8 0.3-8 8-8.4 12.5z"/>
				<path id="&lt;Path&gt;" class="s14" d="m24.5 525.2c0 0.9 0 1.9 0.4 2.6 0.4 0.7 1 1.2 1.7 1.6 2 1.2 4.5 1.5 6.8 0.9 4.2-0.9 7.7-4.8 7.8-9.1 0-4-4-9.1-8.3-7.8-4.5 1.4-8.1 7.4-8.4 11.8z"/>
			</g>
			<g id="&lt;Group&gt;">
				<path id="&lt;Path&gt;" class="s14" d="m949.8 34.2c-3.5 3.6-7.1 7.6-7.9 12.6-0.2 1.6-0.1 3.3 0.7 4.7 1.3 2.4 4.2 3.3 6.8 3.6 1.7 0.2 3.5 0.3 5.2-0.2 3.6-0.9 6.3-3.7 8.7-6.5 5.7-7 10.4-16 8.8-24.9-2.7-14.9-18.7 6.9-22.3 10.7z"/>
				<path id="&lt;Path&gt;" class="s14" d="m897.1 58.5c-0.1 0.7-0.2 1.3-0.1 1.9 0.2 0.9 0.9 1.7 1.6 2.2 1.7 1.3 4 1.4 6 0.8 2-0.5 3.8-1.7 5.5-3q4.2-3.1 7.9-6.9c3-3.3 5.8-7 7-11.2 0.6-2.4 0.6-5.2-1.1-6.9-0.8-0.8-1.7-1.2-2.7-1.6-11.5-5-22.4 15.8-24.1 24.7z"/>
				<path id="&lt;Path&gt;" class="s14" d="m951.8 94.5c-1 1.9-1.9 4.1-1 6.1 0.8 1.7 2.9 2.6 4.9 2.4 1.9-0.1 3.7-1.1 5.3-2.2 4.2-2.8 7.9-6.4 10.2-10.8 2.3-4.5 3-9.8 1.3-14.5-0.6-1.5-1.4-3-2.9-3.7-5.2-2.5-15.8 18.6-17.8 22.7z"/>
				<path id="&lt;Path&gt;" class="s14" d="m909.4 89.7c-0.6 1.8-0.6 4.1 0.8 5.3 0.8 0.7 1.8 0.9 2.8 1 4.8 0.5 9.7-1.2 13.3-4.4 3.6-3.2 5.9-7.7 6.7-12.5 1.1-6.8-5.1-12.6-10.3-6.8-2.3 2.6-4 5.7-6.4 8.2-2.7 2.8-5.6 5.5-6.9 9.2z"/>
				<path id="&lt;Path&gt;" class="s14" d="m950.6 136.6c-0.1 1.5-0.2 3.1 0.5 4.4 0.8 1.7 2.7 2.7 4.5 2.8 1.8 0.2 3.7-0.3 5.4-1.1 9.4-4 15.7-14.4 14.9-24.6-0.1-1.5-0.4-3-1.3-4.2-4.8-6.3-11.4-1-15 3-4.9 5.5-8.1 12.4-9 19.7z"/>
				<path id="&lt;Path&gt;" class="s14" d="m907.4 129.6c-1.3 1.8-2.5 4.2-1.6 6.3 0.7 1.5 2.3 2.4 3.9 2.6 4.2 0.7 8.1-1.9 11.6-4.4 3.5-2.5 7.3-5.4 8.7-9.5 2-6-4.1-7.9-8.6-6.3-5.4 1.9-10.7 6.8-14 11.3z"/>
				<path id="&lt;Path&gt;" class="s14" d="m865.9 83.9c-3.3 3.2-5.9 7.2-6.4 11.7-0.1 0.5-0.1 0.9 0.1 1.3 0.2 0.5 0.9 0.7 1.5 0.9 2.1 0.6 4.4 1 6.5 0.5 1.5-0.3 2.9-1 4.3-1.7 4.3-2.6 8-6.3 10.4-10.7 2.1-3.8 2.7-9.9-2.9-10-4.7 0-10.5 5.1-13.5 8z"/>
				<path id="&lt;Path&gt;" class="s14" d="m871.2 127.8c-0.3 1.3-0.6 2.6-0.4 3.9 0.7 4.1 5.9 6.1 9.9 4.9 4-1.2 6.9-4.5 9.6-7.7q3.3-3.7 6.5-7.5c1.8-2.1 3.7-4.2 4.8-6.8 1.6-3.7 1.3-8.5-2.3-11-3.9-2.6-7.9 0.1-11.1 2.5-7.3 5.5-14.5 12.7-17 21.7z"/>
			</g>
			<g id="&lt;Group&gt;">
				<path id="&lt;Path&gt;" class="s21" d="m317.8 0.3l5 11.5 11.5 5-11.5 4.9-5 11.5-4.9-11.5-11.5-4.9 11.5-5z"/>
				<path id="&lt;Path&gt;" class="s21" d="m253.5 101.4l2.9 6.8 6.8 2.9-6.8 2.9-2.9 6.7-2.9-6.7-6.7-2.9 6.7-2.9z"/>
				<path id="&lt;Path&gt;" class="s21" d="m268.9 353.5l4 9.3 9.2 4-9.2 3.9-4 9.3-4-9.3-9.2-3.9 9.2-4z"/>
			</g>
			<g id="&lt;Group&gt;">
				<path id="&lt;Path&gt;" class="s21" d="m810.2 11.1l3.6 8.5 8.5 3.7-8.5 3.6-3.6 8.5-3.7-8.5-8.5-3.6 8.5-3.7z"/>
				<path id="&lt;Path&gt;" class="s21" d="m1003.6 313.6l2.2 5 5 2.1-5 2.2-2.2 5-2.1-5-5-2.2 5-2.1z"/>
				<path id="&lt;Path&gt;" class="s21" d="m976.1 368.7l2.9 6.9 6.8 2.9-6.8 2.9-2.9 6.9-3-6.9-6.8-2.9 6.8-2.9z"/>
			</g>
		</g>
	</g>
</svg>