<svg version="1.2" xmlns="http://www.w3.org/2000/svg" viewBox="0 0 1200 1200" width="1200" height="1200">
	<title>3603159_67738-ai</title>
	<style>
		.s0 { fill: #ffffff } 
		.s1 { fill: #8ccad1 } 
		.s2 { fill: #2d2d2d } 
		.s3 { fill: #ffe36c } 
		.s4 { fill: #ffafbf } 
		.s5 { fill: #ff7b9e } 
		.s6 { fill: none } 
		.s7 { fill: #f9e6e4 } 
		.s8 { fill: #63bac6 } 
		.s9 { fill: #bce7ed } 
		.s10 { fill: #ffc33e } 
		.s11 { fill: #514f50 } 
		.s12 { fill: #f993b3 } 
		.s13 { fill: #afe4e8 } 
	</style>
	<g id="_Artboards_">
	</g>
	<g id="object">
		<g id="&lt;Group&gt;">
			<g id="&lt;Group&gt;">
				<g id="&lt;Group&gt;" style="opacity: .6">
					<path id="&lt;Path&gt;" class="s0" d="m124.1 716.9c-12.9 0-12.9 20 0 20 12.9 0 12.9-20 0-20z"/>
				</g>
				<g id="&lt;Group&gt;" style="opacity: .6">
					<path id="&lt;Path&gt;" class="s0" d="m420.1 856.9c-12.9 0-12.9 20 0 20 12.9 0 12.9-20 0-20z"/>
				</g>
				<g id="&lt;Group&gt;" style="opacity: .6">
					<path id="&lt;Path&gt;" class="s0" d="m830.1 664.9c-12.9 0-12.9 20 0 20 12.9 0 12.9-20 0-20z"/>
				</g>
				<g id="&lt;Group&gt;" style="opacity: .6">
					<path id="&lt;Path&gt;" class="s0" d="m1080.1 520.9c-12.9 0-12.9 20 0 20 12.9 0 12.9-20 0-20z"/>
				</g>
				<g id="&lt;Group&gt;" style="opacity: .6">
					<path id="&lt;Path&gt;" class="s0" d="m944.1 854.9c-12.9 0-12.9 20 0 20 12.9 0 12.9-20 0-20z"/>
				</g>
				<g id="&lt;Group&gt;" style="opacity: .6">
					<path id="&lt;Path&gt;" class="s0" d="m508.1 722.4c-8.4 0-8.4 13 0 13 8.4 0 8.4-13 0-13z"/>
				</g>
				<g id="&lt;Group&gt;" style="opacity: .6">
					<path id="&lt;Path&gt;" class="s0" d="m220.1 926.4c-8.4 0-8.4 13 0 13 8.4 0 8.4-13 0-13z"/>
				</g>
				<g id="&lt;Group&gt;" style="opacity: .6">
					<path id="&lt;Path&gt;" class="s0" d="m496.1 1088.4c-8.4 0-8.4 13 0 13 8.4 0 8.4-13 0-13z"/>
				</g>
				<g id="&lt;Group&gt;" style="opacity: .6">
					<path id="&lt;Path&gt;" class="s0" d="m832.1 820.4c-8.4 0-8.4 13 0 13 8.4 0 8.4-13 0-13z"/>
				</g>
				<g id="&lt;Group&gt;" style="opacity: .6">
					<path id="&lt;Path&gt;" class="s0" d="m1092.1 1040.4c-8.4 0-8.4 13 0 13 8.4 0 8.4-13 0-13z"/>
				</g>
				<g id="&lt;Group&gt;" style="opacity: .6">
					<path id="&lt;Path&gt;" class="s0" d="m632.1 929.9c-6.4 0-6.4 10 0 10 6.4 0 6.5-10 0-10z"/>
				</g>
				<g id="&lt;Group&gt;" style="opacity: .6">
					<path id="&lt;Path&gt;" class="s0" d="m682.1 667.9c-6.4 0-6.4 10 0 10 6.4 0 6.5-10 0-10z"/>
				</g>
				<g id="&lt;Group&gt;" style="opacity: .6">
					<path id="&lt;Path&gt;" class="s0" d="m56.1 557.9c-6.4 0-6.4 10 0 10 6.4 0 6.5-10 0-10z"/>
				</g>
				<g id="&lt;Group&gt;" style="opacity: .6">
					<path id="&lt;Path&gt;" class="s0" d="m1100.1 397.9c-6.4 0-6.4 10 0 10 6.4 0 6.5-10 0-10z"/>
				</g>
				<g id="&lt;Group&gt;" style="opacity: .6">
					<path id="&lt;Path&gt;" class="s0" d="m194.1 1073.9c-6.4 0-6.4 10 0 10 6.4 0 6.5-10 0-10z"/>
				</g>
				<g id="&lt;Group&gt;" style="opacity: .6">
					<path id="&lt;Path&gt;" class="s0" d="m904.1 1059.9c-6.4 0-6.4 10 0 10 6.4 0 6.5-10 0-10z"/>
				</g>
				<g id="&lt;Group&gt;" style="opacity: .6">
					<path id="&lt;Path&gt;" class="s0" d="m1146.1 745.9c-6.4 0-6.4 10 0 10 6.4 0 6.5-10 0-10z"/>
				</g>
				<g id="&lt;Group&gt;" style="opacity: .6">
					<path id="&lt;Path&gt;" class="s0" d="m600.7 160.1c-12.8 0-12.8 20 0 20 12.9 0 12.9-20 0-20z"/>
				</g>
				<g id="&lt;Group&gt;" style="opacity: .6">
					<path id="&lt;Path&gt;" class="s0" d="m493.8 295.6c-8.4 0-8.4 13 0 13 8.4 0 8.4-13 0-13z"/>
				</g>
				<g id="&lt;Group&gt;" style="opacity: .6">
					<path id="&lt;Path&gt;" class="s0" d="m208.6 203.3c-6.4 0-6.4 10 0 10 6.5 0 6.5-10 0-10z"/>
				</g>
				<g id="&lt;Group&gt;" style="opacity: .6">
					<path id="&lt;Path&gt;" class="s0" d="m807.8 221.1c-6.4 0-6.4 10 0 10 6.4 0 6.5-10 0-10z"/>
				</g>
			</g>
			<g id="&lt;Group&gt;" style="opacity: .4">
				<g id="&lt;Group&gt;">
					<path id="&lt;Path&gt;" class="s1" d="m909.8 751.7c-4-0.6-7.9 1.3-10 4.5-0.9-3.7-4-6.7-8-7.3-5.5-0.9-10.6 2.8-11.4 8.3-2.3 14.7 15.2 25.9 15.2 25.9 0 0 20.2-5.9 22.5-20 0.8-5.4-2.9-10.5-8.3-11.4z"/>
				</g>
				<g id="&lt;Group&gt;">
					<g id="&lt;Group&gt;">
					</g>
					<g id="&lt;Group&gt;" style="opacity: .1">
						<path id="&lt;Path&gt;" class="s2" d="m916.4 761.7c-1.2 4.1-4.2 7.8-7 10.9-3.7 4.2-8.2 7.6-13.1 10.3 3.5-1.2 19.8-7.2 21.8-19.8 0.5-3.1-0.6-6.2-2.6-8.4 1.1 2.2 1.7 4.5 0.9 7z"/>
					</g>
				</g>
			</g>
			<g id="&lt;Group&gt;">
				<path id="&lt;Path&gt;" class="s0" d="m330.3 425.7c-1.9-4.1-5.1-7.8-9.2-9.7-4.4-2.1-9.4-1.9-14.2-1.4q-1.6 0.2-3.2 0.5c-1.8-3.5-4.5-6.6-8-8.7-4.2-2.6-9.6-4.2-14.6-3.8-1.8 0.1-3.6 0.5-5.4 1q-0.4-0.6-0.9-1.3c-2.2-2.8-4.7-5.4-7.8-7.3-2.7-1.7-5.8-2.9-9-3.5-12.9-2.1-27.3 4.8-33.4 16.5-1.1 2.2-1.8 4.5-2.1 6.8q-1.8 0.5-3.5 1.3c-6.2 2.8-12 7.6-15.3 13.6-3.6 6.4-3.5 14.3 0.1 20.7 3.4 6 10.4 10 17 11.5 3.8 0.9 7.9 1.3 11.8 0.8 1.7-0.2 3.4-0.5 5-1 2.9 1.4 6 2.4 9.1 3.3 2.2 0.7 4.6 0.9 6.9 1 2.5 0.2 4.9 0.1 7.3-0.4 5.3-1 9.9-3.6 13.8-7.3q0.7-0.6 1.3-1.4 0.6 0.3 1.1 0.5c3.9 1.6 8.3 2.2 12.4 2.7 8.7 1.1 17.2-0.1 25.2-3.7 3.9-1.8 7.6-3.9 10.5-7.2 2.4-2.8 4.2-6.2 5.5-9.7 1.6-4.7 1.9-9.3-0.4-13.8z"/>
			</g>
			<g id="&lt;Group&gt;">
				<g id="&lt;Group&gt;">
					<path id="&lt;Path&gt;" class="s3" d="m300.4 682.9c-0.5-0.8-1.3-1.2-2.2-1l-16.3 2.1-11-12.2c-0.5-0.7-1.4-0.9-2.3-0.7-0.8 0.2-1.4 0.9-1.6 1.7l-3 16.2-15 6.7c-0.8 0.3-1.3 1.1-1.4 1.9 0 0.9 0.5 1.7 1.2 2.1l14.4 7.9 1.7 16.3c0.1 0.9 0.7 1.6 1.5 1.9q0.4 0.2 0.7 0.2c0.6 0 1.2-0.2 1.6-0.7l12-11.2 16 3.4c0.9 0.2 1.8-0.1 2.3-0.8 0.5-0.7 0.6-1.6 0.3-2.4l-7.1-14.8 8.2-14.3c0.5-0.7 0.5-1.6 0-2.3z"/>
				</g>
				<g id="&lt;Group&gt;">
					<g id="&lt;Group&gt;">
					</g>
					<g id="&lt;Group&gt;">
					</g>
					<g id="&lt;Group&gt;" style="opacity: .1">
						<path id="&lt;Path&gt;" class="s2" d="m299.3 714.3l-7.1-14.8 8.2-14.3c0.5-0.7 0.5-1.6 0-2.3-0.5-0.7-1.2-1.1-2-1 0.3 5-5.7 9.8-8.5 13.2-2.2 2.7-2.9 4.9-1 8 1.7 2.9 3.3 5.8 4.5 8.9 0.1 0.3 0.2 0.8 0.3 1.3q0 0-0.1 0-2.5 0.3-4.9 0.4-2.8 0.1-5.6 0c-1.8-0.1-3.4-0.2-5.1 0.6-2.8 1.4-4.9 4.3-7 6.6q-2.3 2.4-4.5 5 0.3 0.1 0.6 0.1c0.6 0 1.2-0.2 1.6-0.7l12-11.2 16 3.4c0.7 0.1 1.4 0 2-0.5q0.5-0.6 0.7-1.3c0.1-0.5 0.1-1-0.1-1.4z"/>
					</g>
				</g>
			</g>
			<g id="&lt;Group&gt;">
				<g id="&lt;Group&gt;">
					<path id="&lt;Path&gt;" class="s3" d="m626.7 610.8c-0.1-0.6-0.5-1.1-1-1.4l-10.9-4.2-2.7-11.4c-0.2-0.6-0.6-1-1.2-1.2-0.6-0.1-1.2 0.1-1.6 0.6l-7.4 9-11.7-0.9c-0.6-0.1-1.2 0.2-1.5 0.7-0.3 0.6-0.3 1.2 0 1.7l6.4 9.9-4.6 10.7c-0.2 0.6-0.1 1.3 0.3 1.7q0.2 0.2 0.4 0.4c0.4 0.2 0.8 0.2 1.2 0.1l11.3-3 8.9 7.7c0.5 0.4 1.1 0.5 1.7 0.2 0.5-0.2 0.9-0.7 0.9-1.4l0.7-11.6 10-6.1c0.5-0.3 0.8-0.9 0.8-1.5z"/>
				</g>
				<g id="&lt;Group&gt;">
					<g id="&lt;Group&gt;">
					</g>
					<g id="&lt;Group&gt;">
					</g>
					<g id="&lt;Group&gt;" style="opacity: .1">
						<path id="&lt;Path&gt;" class="s2" d="m615.2 630l0.7-11.6 10-6.1c0.5-0.3 0.8-0.9 0.8-1.5-0.1-0.6-0.4-1.1-0.9-1.3-1.5 3.3-6.9 4.2-9.8 5.4-2.3 0.9-3.5 2-3.4 4.6 0.1 2.4 0.1 4.7-0.2 7.1 0 0.2-0.2 0.6-0.2 0.9q-0.1 0-0.2 0-1.6-0.7-3.1-1.4-1.8-0.9-3.5-1.9c-1.1-0.7-2.1-1.3-3.4-1.4-2.2-0.1-4.6 1-6.6 1.7q-2.3 0.8-4.5 1.6 0.1 0.1 0.3 0.3c0.4 0.2 0.8 0.2 1.2 0.1l11.3-3 8.9 7.7c0.4 0.3 0.9 0.4 1.4 0.3q0.5-0.2 0.9-0.6 0.3-0.3 0.3-0.9z"/>
					</g>
				</g>
			</g>
			<g id="&lt;Group&gt;">
				<g id="&lt;Group&gt;" style="opacity: .8">
					<path id="&lt;Path&gt;" class="s1" d="m134.3 1.4v261c0 2 3 2 3 0v-261c0-1.9-3-1.9-3 0z"/>
				</g>
				<g id="&lt;Group&gt;" style="opacity: .8">
					<path id="&lt;Path&gt;" class="s1" d="m342.6 1.4v175.5c0 2 3 2 3 0v-175.5c0-1.9-3-1.9-3 0z"/>
				</g>
				<g id="&lt;Group&gt;" style="opacity: .8">
					<path id="&lt;Path&gt;" class="s1" d="m458.3 1.4v485c0 1.9 3 1.9 3 0v-485c0-1.9-3-1.9-3 0z"/>
				</g>
				<g id="&lt;Group&gt;" style="opacity: .8">
					<path id="&lt;Path&gt;" class="s1" d="m665 1.4v364.5c0 2 3 2 3 0v-364.5c0-1.9-3-1.9-3 0z"/>
				</g>
				<g id="&lt;Group&gt;" style="opacity: .8">
					<path id="&lt;Path&gt;" class="s1" d="m879.8 1.4v156c0 2 3 2 3 0v-156c0-1.9-3-1.9-3 0z"/>
				</g>
				<g id="&lt;Group&gt;" style="opacity: .8">
					<path id="&lt;Path&gt;" class="s1" d="m1087.6 1.4v339c0 2 3 2 3 0v-339c0-1.9-3-1.9-3 0z"/>
				</g>
				<g id="&lt;Group&gt;" style="opacity: .8">
					<path id="&lt;Path&gt;" class="s1" d="m825.8 1.4v460.5c0 2 3 2 3 0v-460.5c0-1.9-3-1.9-3 0z"/>
				</g>
				<g id="&lt;Group&gt;">
					<g id="&lt;Group&gt;">
						<path id="&lt;Path&gt;" class="s4" d="m1126.5 281.8l-69.4 29.3c9 25.5 6.1 53.8-1.1 79.9-2.1 7.4-4.5 14.9-4.9 22.6-0.5 7.7 1.2 15.9 6.5 21.6 5.1 5.5 12.8 7.9 20.2 8.5 14.2 1.1 28.9-3.7 38.9-13.8 12.8-12.7 16.7-31.6 24.3-48 7-15.2 17.8-30.4 15.2-46.9-3.3-20.2-25.7-33-29.7-53.2z"/>
					</g>
					<g id="&lt;Group&gt;">
						<g id="&lt;Group&gt;">
						</g>
						<g id="&lt;Group&gt;">
							<path id="&lt;Path&gt;" class="s5" d="m1089.3 416.9c-7.7-3.7-16-5.8-24.5-6.4-4.9-0.3-9.3 0.2-13.6 1.4q-0.1 0.9-0.1 1.7c-0.5 7.7 1.2 15.9 6.5 21.6 5.1 5.5 12.8 7.9 20.2 8.5 12 0.9 24.3-2.4 33.9-9.5-6.1-7.2-13.7-13.1-22.4-17.3z"/>
						</g>
					</g>
					<g id="&lt;Group&gt;">
						<g id="&lt;Group&gt;">
						</g>
						<g id="&lt;Group&gt;">
							<path id="&lt;Path&gt;" class="s5" d="m1113.1 335.2c-0.1 9.6 5.4 18.2 11.3 25.3 5.4 6.6 11.6 12.4 18.4 17.5 6.9-13.9 15.8-27.9 13.4-43-2.1-13-12.2-23-20.2-33.8-2.6 2.7-5 5.5-7.6 8.2-7.1 7.5-15.1 14.7-15.3 25.8z"/>
						</g>
					</g>
					<g id="&lt;Group&gt;">
						<g id="&lt;Group&gt;">
						</g>
						<g id="&lt;Group&gt;">
						</g>
						<g id="&lt;Group&gt;" style="opacity: .1">
							<path id="&lt;Path&gt;" class="s2" d="m1101.6 310.5c9.9-6.1 19-13.4 27.1-21.7-1-2.2-1.8-4.5-2.2-7l-10.9 4.6c-5.6 5.1-11.5 9.7-17.9 13.7-11.2 7.2-24.8 15-38.6 12.7q-0.7-0.1-1.4 0 1.8 5.4 2.9 11c14.8 1 28.6-5.7 41-13.3z"/>
						</g>
					</g>
					<g id="&lt;Group&gt;">
						<path id="&lt;Compound Path&gt;" fill-rule="evenodd" class="s5" d="m1130.2 276.1c1.4 4.4-0.5 9.3-3.7 12.6-3.1 3.3-7.3 5.2-11.5 7.2q-9.4 4.4-18.9 8.8-3.9 1.8-8 3.6c-6 3.8-12.4 7-19.2 8.7-4.9 1.3-10.4 1.4-14.7-1.7-3.3-2.4-4.9-6.4-4.1-10.3 0-1.1 0.1-2.2 0.8-3 2.7-3.2 8.9 1.5 11.8-1.4 1.1-1 1.3-2.7 1.7-4.2 1.2-4 5.5-6.8 9.6-6.4 2.1 0.3 4.3 1.3 6.3 0.6 4.3-1.3 5.2-8.6 9.6-8.6 2.2 0 3.9 1.9 6.1 2.3 3.4 0.7 6.2-2.5 8.4-5.3 2.1-2.7 5.4-5.6 8.6-4.3 1 0.4 1.8 1.2 2.8 1.4 2.8 0.5 4.4-3.3 7-4.4 3-1.3 6.4 1.3 7.4 4.4zm-67.8 39.8q0 0 0 0-0.5 0-1 0 0.5 0 1 0z"/>
					</g>
					<g id="&lt;Group&gt;">
						<g id="&lt;Group&gt;">
						</g>
						<g id="&lt;Group&gt;">
						</g>
						<g id="&lt;Group&gt;">
						</g>
						<g id="&lt;Group&gt;">
							<path id="&lt;Compound Path&gt;" fill-rule="evenodd" class="s6" d="m1060.9 301.5q4.2 7.8 9 15.2-0.5 0.2-1 0.3c-4.9 1.3-10.4 1.4-14.7-1.7-3.3-2.4-4.9-6.4-4.1-10.3 0-1.1 0.1-2.2 0.8-3 2.2-2.6 6.8 0.1 10-0.5zm1.5 14.4q0 0 0 0-0.5 0-1 0 0.5 0 1 0z"/>
						</g>
						<g id="&lt;Group&gt;">
						</g>
						<g id="&lt;Group&gt;">
						</g>
						<g id="&lt;Group&gt;">
							<path id="&lt;Path&gt;" class="s7" d="m1062.7 300.6c-0.5 0.6-1.1 0.8-1.8 0.9q4.2 7.8 9 15.2 1.9-0.5 3.7-1.2-5.3-8.1-9.9-16.6c-0.2 0.6-0.5 1.2-1 1.7z"/>
						</g>
						<g id="&lt;Group&gt;">
							<path id="&lt;Path&gt;" class="s7" d="m1080.3 290.6c-0.7 0.2-1.4 0.3-2.1 0.2q2.7 10.1 5.4 20.1 1.8-0.9 3.5-1.9-2.6-9.6-5.2-19.2-0.7 0.6-1.6 0.8z"/>
						</g>
						<g id="&lt;Group&gt;">
							<path id="&lt;Path&gt;" class="s7" d="m1099.1 283.9c-1 0.4-2 0.6-3.1 0.4q-0.5-0.1-0.9-0.2c2 6 3.1 12.3 3.2 18.7q0 0.4 0 0.8 1.9-0.8 3.8-1.7 0-0.2 0-0.3c-0.2-6-1.3-12-3-17.7z"/>
						</g>
						<g id="&lt;Group&gt;">
							<path id="&lt;Path&gt;" class="s7" d="m1120.2 273.8c-1.1 1-2.1 2-3.2 2.3 1.8 5.6 2.7 11.5 2.7 17.5q1.9-1 3.7-2.3c-0.2-5.9-1.3-11.8-3.2-17.5z"/>
						</g>
					</g>
				</g>
				<g id="&lt;Group&gt;">
					<g id="&lt;Group&gt;">
						<g id="&lt;Group&gt;">
							<path id="&lt;Path&gt;" class="s1" d="m958.2 406.1c-13.7-4.6-38.8-7.6-98.3 16.3q-2.6-1.2-5.2-2.3c-9.7-3.9-19.3-8.3-29.6-11.1-4.9-1.3-10-2.4-15.1-3.3-4.2-0.8-8.5-1-12.9-0.1-6 1.1-14.2 5-14.4 11.7-0.1 2.4 1 4.6 2.2 6.7 1.2 2.3 2.7 4.6 4.6 6.5 3.7 3.9 8.8 6.8 13.1 10.2 2.2 1.8 4.3 3.7 6.5 5.5q0.8 0.7 1.6 1.3c-15.4 9.9-25.5 18.9-31.2 24.6-2.8-1.6-5.8-3-8.7-4.2-5.8-2.3-12.1-4.6-18.3-5.7-5.9-1.1-12-2.2-18.1-2.6-1.7-0.1-3.8 0-5.6 0.6-5.7 0.9-8.6 5.3-4.5 16.3 10.8 29.1 33.2 46.9 52.2 51.6 44 11 130.5-41.2 163.4-67.8 32.8-26.6 32-49.5 18.3-54.2z"/>
						</g>
						<g id="&lt;Group&gt;">
							<path id="&lt;Path&gt;" class="s8" d="m854.6 466.5c-15.8 8.6-19.5 17.9-26.9 45-7.4 27.1-2 43.2 17.8 30.5 19.9-12.7 50.2-60.8 45-71.6-5.1-10.9-22.2-11.3-35.9-3.9z"/>
						</g>
						<g id="&lt;Group&gt;" style="opacity: .1">
							<path id="&lt;Path&gt;" class="s2" d="m878 437.3c0.6 1.8-0.6 3.2-2.8 2.9-1.6-0.3-2.6-2.5-2.5-3.9 0.3-3.6-5.4-4.3-5.8-0.7-0.5 5.1 3.2 10.4 8.9 10.1 2.7-0.1 5.3-1 6.9-3.4 1.6-2.3 1.5-4.8 0.8-7.3-1.1-3.4-6.5-1.2-5.5 2.3z"/>
						</g>
						<g id="&lt;Group&gt;" style="opacity: .1">
							<path id="&lt;Path&gt;" class="s2" d="m860.1 441.9c-1.4-3.3-6.8-1.1-5.4 2.2 0.4 1.1 1 2.2 1 3.4 0.1 1.4-1 1.6-2.2 1.8-1.2 0.1-2.5 0.2-3-1-0.4-1.2-0.2-2.9 0.2-4 1.4-3.4-3.9-5.5-5.3-2.1-1.2 2.9-1.3 6.8 0.2 9.5 1.6 2.7 4.8 3.4 7.9 3.2 3.1-0.3 6.3-1.7 7.6-4.7 1.2-2.7 0.1-5.8-1-8.3z"/>
						</g>
						<g id="&lt;Group&gt;" style="opacity: .1">
							<path id="&lt;Path&gt;" class="s2" d="m838 451c-2.2-2.8-6.9 0.7-4.7 3.5 1 1.3 1.4 5.5-1 5.6-1.2 0.1-1.9-0.2-2.5-1-0.2-0.5-0.4-1.2-0.5-1.8q-0.1-0.6 0.1-1.1 0-0.1 0-0.1c1.6-2.8-2.6-5.7-4.8-2.9-2 2.4-1.2 6.2 0 8.7 1.4 2.8 4.7 4 7.9 3.8 3.5-0.3 5.9-2.3 6.9-5.6 1-2.8 0.4-6.7-1.4-9.1z"/>
						</g>
						<g id="&lt;Group&gt;">
							<path id="&lt;Path&gt;" class="s0" d="m878.1 428.4q-0.2-0.1-0.4-0.2c-4-1.7-8.5 0.3-10 4.3-1.6 4 0.7 8.3 4.7 9.5 4.6 1.4 10.7-2 10.3-7-0.2-3-2-5.8-4.6-6.6z"/>
						</g>
						<g id="&lt;Group&gt;">
							<path id="&lt;Path&gt;" class="s0" d="m851.2 437.2c-1.4 0.2-2.6 0.9-3.6 1.8-1.1 0.6-2.1 1.6-2.6 3q-0.3 0.5-0.5 1.1c-0.5 1.8-0.4 3.7 0.4 5.2 0.3 1.2 1 2.3 2 3.1 2.1 1.7 5.1 1.7 7.5 0.4 1.5-0.7 2.5-1.8 3.3-3.1 4.2-4.7 0.3-12.6-6.5-11.5z"/>
						</g>
						<g id="&lt;Group&gt;">
							<path id="&lt;Path&gt;" class="s0" d="m834.9 450.1c-1.6-1.5-4.1-2.2-6.4-1.9q-0.7 0.1-1.2 0.3-1.2 0.3-2.2 1.2c-1 0.5-1.8 1.3-2.4 2.5-0.5 1.3-0.6 2.9-0.1 4.2q0.2 1.4 0.9 2.7c0.5 1.9 1.7 3.4 3.7 4.1 2.4 0.9 5.2 0.3 7.2-1.3 3.7-3 3.9-8.7 0.5-11.8z"/>
						</g>
						<g id="&lt;Group&gt;">
							<g id="&lt;Group&gt;">
							</g>
							<g id="&lt;Group&gt;">
							</g>
							<g id="&lt;Group&gt;" style="opacity: .1">
								<path id="&lt;Path&gt;" class="s2" d="m901.1 431.6c8.1 2.8 18 3.1 26.5 0.8 4.8-1.3 9.6-2.8 14.2-4.7 2.5-1 4.7-2.3 6.8-3.8q0.3 0 0.7-0.2c2.2-1 4.1-2.9 5.8-4.8 2.9-2.5 5.2-5.4 7.3-8.6q0.4-0.5 0.8-1.1c-1.4-1.4-3.1-2.4-5-3.1q-1.6-0.5-3.3-1c-2.8 4.4-5.7 8.8-8.3 13.3-2.7 1.9-5.3 3.6-8.6 4.9-3.6 1.4-7.5 2.6-11.3 3.6-14.6 4.2-32.5-0.6-38.4-14.5q0-0.2-0.1-0.3-2.7 0.9-5.5 1.8 0.1 0.4 0.2 0.7c3.1 7.4 10.3 14.3 18.2 17z"/>
							</g>
						</g>
						<g id="&lt;Group&gt;">
							<g id="&lt;Group&gt;">
								<path id="&lt;Path&gt;" class="s0" d="m897.4 424.6c12.3 6.5 27.9 7.8 40.7 0.5 6-3.5 11.1-8.7 15.5-13.9 1.5-1.7 2.6-3.6 3.2-5.5-11.9-3.8-32.3-5.8-74.1 8.2 2 2.1 4.2 4.1 6.5 6 2.5 2 5.3 3.2 8.2 4.7z"/>
							</g>
							<g id="&lt;Group&gt;">
							</g>
						</g>
						<g id="&lt;Group&gt;">
							<g id="&lt;Group&gt;">
								<path id="&lt;Path&gt;" class="s1" d="m822.4 434.9c5.1-3 10.5-5.4 15.7-8 4.5-2.2 9.2-4.4 13.9-5.9q1.3-0.4 2.6-1c-9.7-3.9-19.3-8.2-29.5-11-4.9-1.3-10-2.4-15.1-3.3-4.2-0.8-8.5-1-12.9-0.1-6 1.1-14.2 5-14.4 11.7-0.1 2.4 1 4.6 2.2 6.7 1.2 2.3 2.7 4.6 4.6 6.5 3.7 3.9 8.8 6.8 13.1 10.2 1.5 1.2 2.9 2.4 4.3 3.6q0 0 0.1 0c5.2-3.1 10.2-6.3 15.4-9.4z"/>
							</g>
							<g id="&lt;Group&gt;">
							</g>
							<g id="&lt;Group&gt;" style="opacity: .1">
								<path id="&lt;Path&gt;" class="s2" d="m840.8 430.4q6.7-3.2 13.8-5.7c2-0.7 3.9-1.6 5.7-2.5q-0.2 0.1-0.4 0.2-2.6-1.2-5.2-2.3-0.1 0-0.1-0.1-1.3 0.6-2.6 1c-4.7 1.5-9.4 3.7-13.9 5.9-5.2 2.6-10.6 5-15.7 8-5.2 3.1-10.2 6.3-15.4 9.4q-0.1 0-0.1 0 1.1 1 2.2 1.9 0.6 0.5 1.3 1c4.6-2.7 9.1-5.6 13.7-8.3 5.4-3.2 11.1-5.8 16.7-8.5z"/>
							</g>
						</g>
					</g>
					<g id="&lt;Group&gt;">
						<g id="&lt;Group&gt;">
							<path id="&lt;Path&gt;" class="s3" d="m750.5 476.8c0-0.3-0.2-0.5-0.5-0.7l-4.8-2.2-0.9-5.2c0-0.3-0.2-0.5-0.5-0.6-0.3-0.1-0.6 0-0.7 0.2l-3.7 3.9-5.2-0.7c-0.3-0.1-0.6 0-0.7 0.3-0.2 0.2-0.2 0.5 0 0.7l2.5 4.7-2.3 4.7c-0.1 0.3-0.1 0.6 0.1 0.8q0.1 0.1 0.2 0.2 0.2 0.1 0.5 0.1l5.2-1.1 3.8 3.7c0.2 0.2 0.5 0.3 0.8 0.2 0.2-0.1 0.4-0.3 0.4-0.6l0.7-5.3 4.7-2.4c0.2-0.2 0.4-0.4 0.4-0.7z"/>
						</g>
						<g id="&lt;Group&gt;">
							<g id="&lt;Group&gt;">
							</g>
							<g id="&lt;Group&gt;">
							</g>
							<g id="&lt;Group&gt;" style="opacity: .1">
								<path id="&lt;Path&gt;" class="s2" d="m744.7 485.2l0.7-5.3 4.7-2.4c0.2-0.2 0.4-0.4 0.4-0.7 0-0.3-0.2-0.5-0.4-0.6-0.8 1.4-3.3 1.7-4.6 2.1-1.1 0.4-1.6 0.9-1.7 2.1q0 1.6-0.3 3.2c0 0.1 0 0.2-0.1 0.4q0 0 0 0-0.8-0.4-1.4-0.8-0.8-0.4-1.6-0.9c-0.4-0.4-0.9-0.7-1.5-0.7-1-0.2-2.1 0.3-3 0.5q-1.1 0.3-2.1 0.6 0.1 0.1 0.2 0.2 0.2 0.1 0.5 0.1l5.2-1.1 3.8 3.7c0.2 0.2 0.4 0.3 0.6 0.2q0.3 0 0.5-0.2 0.1-0.2 0.1-0.4z"/>
							</g>
						</g>
					</g>
				</g>
				<g id="&lt;Group&gt;">
					<g id="&lt;Group&gt;">
						<path id="&lt;Path&gt;" class="s4" d="m81.2 296.8c-0.7 1.4-49.4 100.5-28.8 113.2 20.7 12.6 70.7 29.1 88.7 18.2 18.1-10.9 27-112.9 24.9-119.1-2.1-6.1-78.3-25.8-84.8-12.3z"/>
					</g>
					<g id="&lt;Group&gt;">
						<g id="&lt;Group&gt;">
						</g>
						<g id="&lt;Group&gt;">
						</g>
						<g id="&lt;Group&gt;" style="opacity: .1">
							<path id="&lt;Path&gt;" class="s2" d="m124.7 325.7c13.4 1.5 28.1 1.1 41.3-3 0.3-4.9 0.4-8.8 0.3-11.2-12.2 4.8-26.7 5.4-39.2 3.9-14.9-1.7-33.1-5.5-42.8-17.9-0.7-0.8-1.4-1.4-2.3-1.9q-0.5 0.6-0.8 1.2c-0.1 0.3-1.6 3.4-4 8.5 11.8 13.3 30.2 18.4 47.5 20.4z"/>
						</g>
					</g>
					<g id="&lt;Group&gt;" style="opacity: .1">
						<path id="&lt;Compound Path&gt;" fill-rule="evenodd" class="s2" d="m83.4 366.6c-3.8 11.8-9.2 23.2-18 32.1-1.6 1.7-4 0.4-4.2-1.6-0.5-0.4-0.8-1-0.7-1.8 1.6-24.3 10.3-47.5 24.9-66.9 1.1-1.5 3.8-0.7 4.2 1 1.6 6.3-0.1 12.8-1.4 19-1.4 6.1-2.9 12.2-4.8 18.2zm-1.4-13.6q-0.5 1.6-1.1 3.2 0.2 0.1 0.3 0.3 0.4-1.8 0.8-3.5zm-14.3 35.3q0.3-0.5 0.6-1-0.2 0.4-0.6 0.5 0 0.3 0 0.5zm0.7-1.1q0.2-0.3 0.5-0.7-0.1 0-0.2-0.1 0 0.2-0.1 0.4-0.1 0.2-0.2 0.4z"/>
					</g>
					<g id="&lt;Group&gt;">
						<g id="&lt;Group&gt;">
						</g>
						<g id="&lt;Group&gt;" style="opacity: .1">
							<path id="&lt;Path&gt;" class="s2" d="m162.1 348c-0.2 22.9-8.6 45.9-23.8 63.1-5.5 6.1-11.7 11.5-18.9 15.5q-5.1 2.1-10.4 3.7c13.1 2.2 25.1 2.2 32.1-2.1 11.9-7.2 19.8-53.5 23.2-86.2-1.4 1.6-2.2 3.7-2.2 6z"/>
						</g>
					</g>
					<g id="&lt;Group&gt;">
						<path id="&lt;Path&gt;" class="s0" d="m168 301.6c-0.4-4.4-2.8-8.4-6-11.3-3.5-3.1-7.7-5-12-6.5-1.7-0.6-3.7-1.1-5.1-2.3-1.7-1.4-0.9-3.5-0.3-5.2 3.1-8.1 5.1-18.9-1-26.2-2.9-3.5-7.4-4.7-11.3-2.2q-0.3 0.1-0.6 0.3c-5.4 1.8-8.6 9.9-9.5 14.9-0.6 3.7 0.2 7.8-1.1 11.3-0.6 1.7-2 2.6-3.6 3.4-1.2-0.1-2.4-0.4-3.6-0.7-4.2-1-8.2-1.7-12.6-0.7-3.8 1-7.5 2.9-10.4 5.7q-2.1 2.1-3.6 4.7-0.1 0.1-0.1 0.2c-1 1.4-1.7 2.9-1.6 4.6 0.2 2.2 2.2 3.5 3.9 4.7 3.7 2.6 7.9 4.6 12.2 6.1 9.3 3.3 19.3 4.8 28.9 6.3q7.9 1.2 15.8 2.1c5 0.6 10.3 1.3 15.3 0.4 4.8-0.8 6.6-5.2 6.3-9.6z"/>
					</g>
					<g id="&lt;Group&gt;">
						<g id="&lt;Group&gt;">
						</g>
						<g id="&lt;Group&gt;" style="opacity: .1">
							<path id="&lt;Path&gt;" class="s2" d="m139.4 263.1c-0.8 6.2-3.3 12.5-1.6 18.7 1.8 6.8 7.5 8.4 13 11.4 5.3 2.9 9.6 7.2 12.7 12.4 0.8 1.3 1.9 2.1 3 2.5 1.2-1.8 1.7-4.2 1.5-6.5-0.4-4.4-2.8-8.4-6-11.3-3.5-3.1-7.7-5-12-6.5-1.7-0.6-3.7-1.1-5.1-2.3-1.7-1.4-0.9-3.5-0.3-5.2 3.1-8.1 5.1-18.9-1-26.2-1.2-1.5-2.7-2.5-4.4-3.1 0.8 5.4 0.9 10.8 0.2 16.1z"/>
						</g>
					</g>
					<g id="&lt;Group&gt;">
						<path id="&lt;Path&gt;" class="s1" d="m100.4 316.7c-11.3-4.6-24-11.6-23.2-19.6 0.7-8.1 4.2-12.4 10.2-10.7 6 1.7 18 16.2 46 14.8 27.9-1.4 34.9-2.4 36.8 0.5 1.9 2.8 6.4 10.6-1.5 16.6-8 6-32.7 6.7-44.7 4.5-12-2.2-23.6-6.1-23.6-6.1z"/>
					</g>
					<g id="&lt;Group&gt;">
						<path id="&lt;Path&gt;" class="s9" d="m93.4 294.9q-2.9 5.2-4.6 10.9c-0.5 1.5 1.9 2.3 2.4 0.8q1.6-5.4 4.3-10.3c0.7-1.4-1.3-2.8-2.1-1.4z"/>
					</g>
					<g id="&lt;Group&gt;">
						<path id="&lt;Path&gt;" class="s9" d="m103.4 299.6q-1.7 5.5-2.6 11.2c-0.3 1.5 2.2 1.7 2.5 0.1q0.8-5.3 2.4-10.5c0.5-1.5-1.9-2.3-2.3-0.8z"/>
					</g>
					<g id="&lt;Group&gt;">
						<path id="&lt;Path&gt;" class="s9" d="m114.3 302.9q-0.8 5.3-1.5 10.7c-0.2 1.6 2.3 1.7 2.5 0.2q0.7-5.4 1.5-10.7c0.2-1.6-2.3-1.8-2.5-0.2z"/>
					</g>
					<g id="&lt;Group&gt;">
						<path id="&lt;Path&gt;" class="s9" d="m129.1 305.5c0-1.6-2.4-1.8-2.5-0.2q0 5.9-0.5 11.8c-0.1 1.6 2.4 1.8 2.5 0.2q0.5-5.9 0.5-11.8z"/>
					</g>
					<g id="&lt;Group&gt;">
						<path id="&lt;Path&gt;" class="s9" d="m142.6 316.6q-0.4-5 0-10c0.1-1.6-2.4-1.8-2.5-0.2q-0.3 5.4 0.1 10.7c0.1 1.6 2.6 1.1 2.4-0.5z"/>
					</g>
					<g id="&lt;Group&gt;">
						<path id="&lt;Path&gt;" class="s9" d="m150.4 307.5q-0.7 4.7-1.4 9.4c-0.2 1.6 2.2 1.8 2.5 0.2q0.7-4.8 1.3-9.5c0.3-1.6-2.2-1.7-2.4-0.1z"/>
					</g>
					<g id="&lt;Group&gt;">
						<path id="&lt;Path&gt;" class="s9" d="m163.9 306.4c-0.1-1.5-2.6-1.7-2.5-0.1q0.2 5.4-0.7 10.7c-0.3 1.6 2.1 1.8 2.4 0.2q1-5.3 0.8-10.8z"/>
					</g>
				</g>
				<g id="&lt;Group&gt;">
					<g id="&lt;Group&gt;">
						<path id="&lt;Path&gt;" class="s1" d="m864.4 213.7q9.2 9.2 18.7 18c2.6 2.5 7.4 1.3 9.4-1.3 2.3-3.2 1.2-6.9-1.4-9.4q-4.2-3.9-8.3-7.9-3-4-6.2-7.8 0 0 0-0.1-0.4-0.5-0.8-1.1-0.9-1.5-1.8-2.9-0.8-1.4-1.6-2.8-1.7-3.1-3.3-6.3c-0.6-1.5-1.2-3-1.6-4.6-2.3-9.6 3.9-17.5 12-21.9 8.8-4.8 19.6-6.1 28.4-0.5 7.2 4.5 11.9 11.4 16 18.7 1.7 4.3 3.4 8.6 5.2 12.9 3.2 8 15.6 2.7 12.3-5.3-5.4-13.4-9.9-28.8-19.3-40.1-8.6-10.2-20.9-15-34.2-12.6-25 4.7-49.6 29.6-38.3 56.4 3.1 7.4 9.2 13 14.8 18.6z"/>
					</g>
					<g id="&lt;Group&gt;">
						<g id="&lt;Group&gt;">
						</g>
						<g id="&lt;Group&gt;">
						</g>
						<g id="&lt;Group&gt;">
						</g>
						<g id="&lt;Group&gt;" style="opacity: .1">
							<path id="&lt;Path&gt;" class="s2" d="m883.1 231.7q0.6 0.6 1.3 0.9 4.1-4.7 8.6-9.1c-0.5-0.9-1.1-1.8-1.9-2.5q-3.1-2.9-6.2-5.9-4.8 4.7-9.2 9.7 3.7 3.5 7.4 6.9z"/>
						</g>
						<g id="&lt;Group&gt;" style="opacity: .1">
							<path id="&lt;Path&gt;" class="s2" d="m929.1 196.7q0.4 0.9 0.9 1.6 5.8-2.2 11.9-3.5c0.1-1 0-2.2-0.5-3.4q-1.5-3.8-3-7.9-6.7 1.5-13 4 1.8 4.6 3.7 9.2z"/>
						</g>
					</g>
					<g id="&lt;Group&gt;">
						<path id="&lt;Path&gt;" class="s3" d="m932.6 294.7c8.4 1.8 18.7 0.6 26.3-3.2 7.9-4 14.6-11.2 18.7-19 4-7.7 4.7-16.7 1.4-24.8-3.9-9.7-12-16.7-20.3-22.6-4.6-3.3-9.4-6.4-13.7-10.1-3.7-3-6.8-6.6-9.6-10.4q0-0.2-0.1-0.4c-0.8-4.9-5.1-7.9-10-7.6-4.7 0.3-9.4 2.8-13.4 5.1-4.2 2.5-8.1 5.7-11.4 9.4-3 3.2-6.6 7.6-4.9 12.3 0.6 1.9 2.2 3.5 3.3 5.2q2.2 3.2 3.8 6.7c2 4.5 3.2 9.2 3.9 14.1 1.4 9.5 1.6 19.4 5.7 28.3 3.9 8.7 10.9 14.9 20.3 17z"/>
					</g>
					<g id="&lt;Group&gt;">
						<g id="&lt;Group&gt;">
						</g>
						<g id="&lt;Group&gt;" style="opacity: .1">
							<path id="&lt;Path&gt;" class="s2" d="m924.3 277.3c-3.1-4.4-4.3-9.3-5.1-14.5-2.8-17.2-8.9-34.9-23.4-45-0.7 1.8-0.9 3.7-0.2 5.6 0.6 1.9 2.2 3.5 3.3 5.2q2.2 3.2 3.8 6.7c2 4.5 3.2 9.2 3.9 14.1 1.4 9.5 1.6 19.4 5.7 28.3 3.9 8.7 10.9 14.9 20.3 17 4.4 0.9 9.3 1 14.1 0.4-4.1-1.8-7.9-4.4-11.4-7.1-4-3.1-8.1-6.5-11-10.7z"/>
						</g>
					</g>
					<g id="&lt;Group&gt;">
						<path id="&lt;Path&gt;" class="s4" d="m869 252.2c2.6 2.4 7.1 2.8 9.2 0.1 20.9-27.5 49.2-49.6 84-54.8 3.5-0.5 5.2-4.9 4.1-8.2-1.2-3.9-4.8-5.6-8.2-5-36.8 5.5-67.6 29.1-89.8 58.2-2 2.8-2.1 6.9 0.7 9.7z"/>
					</g>
				</g>
				<g id="&lt;Group&gt;">
					<g id="&lt;Group&gt;">
						<path id="&lt;Path&gt;" class="s5" d="m738.9 306.1c0.5-10.4 0.9-21-0.6-31.4-1.5-10.6-5-23.9-17.4-24.6q-0.1 0-0.1 0 0 0 0 0-0.7 0-1.5 0-1.2-0.2-2.4-0.3c-1.6 0-3.2 0.4-4.5 1.2-1.8 0.8-3.5 2-4.9 3.5-4.8 5.5-4.7 13.1-6 19.9-1.4 7.4-4.3 14.9-10.1 20-10.3 9.3-25.7 9.9-36.6 1.4-6-4.6-9.5-11.2-10.9-18.5-1.3-7.1-0.3-14.1-0.5-21.2 0-3.1-0.8-5.9-2.2-8.2-1.5-4.5-6.6-7.7-11.4-7.8q-0.9 0-1.7 0c-2.7-0.1-5.4 0.4-7.5 1.7-2.4 0.8-4.2 2.6-5.6 4.9q-0.1 0.2-0.2 0.3-0.2 0.3-0.4 0.5c-0.4 0.3-0.7 0.7-1 1.3q-0.2 0.4-0.3 0.8-0.2 0.3-0.4 0.6c-0.6 0.5-0.9 1.2-1 1.8q-2.5 5-3.6 10.5-4.4 11.8-8 23.7c-3.7 12.3-7.7 25-8.2 37.9-0.7 21.3 11.8 39.6 30.1 49.8 10.3 5.8 22.2 8.8 34 10 11 1.1 22.4 1 33.3-1 9.7-1.8 19.5-5.4 27.2-11.8q0.2-0.2 0.3-0.4 2.6-1.8 4.8-4c7.7-7.5 11.6-17.5 13.8-27.9 2.4-10.7 2.8-21.7 3.5-32.7z"/>
					</g>
					<g id="&lt;Group&gt;">
						<g id="&lt;Group&gt;">
						</g>
						<g id="&lt;Group&gt;" style="opacity: .1">
							<path id="&lt;Path&gt;" class="s2" d="m627.3 249.9c6.3 6.7 4.2 18.3 5.9 26.9 2.2 11.3 7 20.2 15.8 27.7 9.2 7.9 24.6 12.2 36.8 8.1 11.1-3.7 19.2-12.2 23.1-22.8 4.5-12.1 1.7-28.9 9.1-39.9q-0.6 0-1.1-0.1c-1.6 0-3.2 0.4-4.5 1.2-1.8 0.8-3.5 2-4.9 3.5-4.8 5.5-4.7 13.1-6 19.9-1.4 7.4-4.3 14.9-10.1 20-10.3 9.3-25.7 9.9-36.6 1.4-6-4.6-9.5-11.2-10.9-18.5-1.3-7.1-0.3-14.1-0.5-21.2 0-3.1-0.8-5.9-2.2-8.2-1.5-4.5-6.6-7.7-11.4-7.8q-0.3 0-0.5 0c-0.3 0.1-0.5 0.5-0.8 0.5-4.1-0.2-3.7 6.7-1.2 9.3z"/>
						</g>
					</g>
					<g id="&lt;Group&gt;">
						<path id="&lt;Compound Path&gt;" fill-rule="evenodd" class="s3" d="m806.3 291.6c-0.9 3.9-7.1 3.1-6.2-0.8 2.2-8.7-10.3-11.3-16-13.8-6.8-3-10.6-7.8-12.9-14.8-2-6-4.2-12.7-10.6-14.3 0.1 3.9-2 7.7-6.1 9-5.3 1.6-10.9-3.3-9.4-8.8 0.6-2.6 2.7-4.3 5.1-5.4-2.1-0.9-4.6-1.3-6.5-1.5-13.2-1.1-25.7 7.4-32.3 18.3-4 6.6-5 14-6.9 21.3-1.7 6.5-4.5 12.3-9.4 17-9.3 9-24.3 12.5-36 6.2-13.1-7.1-15.9-24.2-18.8-37.5-1.6-7.3-3.5-14.8-7.5-21.1-4.1-6.6-10.2-9.3-16.4-13.5q-0.8-0.5-1.5-1.1c-1.9 0.5-3.8 0.7-5.7 0.7-7.3-0.2-15.8-3.2-22-6.9-5.6-3.3-9.8-8.6-10.4-15.2-0.4-4 5.8-4.9 6.2-0.9 0.9 10 12.1 13.5 20.3 15.8 2 0.5 4.3 1 6.6 1-1.7-2.6-2.5-5.6-2.1-8.8 0.8-5.7 6.4-9.4 11.9-6.7 4.9 2.3 6.6 8.9 4.4 13.7-0.7 1.6-1.8 3-3 4.1 3.1 1.9 6.4 3.5 9.3 5.8 6 4.7 10.8 10.9 13.3 18 4.9 13.5 3.5 31.3 13.1 42.7 10.5 12.5 30.5 6.5 38.2-5.9 4.2-6.9 4.5-15.3 6.9-22.7 1.8-5.9 5-11.4 9.2-16 8.3-9.3 20.2-15.3 32.8-14.5 5.2 0.3 11.1 2.1 14.4 6.3q0.6 0.1 1.2 0.1c5.9 0.6 11 4.1 13.9 9.2 3 5.4 3.2 12.6 7.5 17.1 4.8 5.1 12.9 5.4 18.5 9.3 4.7 3.3 8.4 8.7 6.9 14.6zm-190.1-68.1q0.2-0.1 0.3-0.3c1.5-1.1 2.6-2.8 2.3-4.8-0.3-1.8-2.6-4.8-4.4-2.3-1.7 2.3-0.2 5.1 1.8 7.4zm138.3 24.3c-1.2 0.2-2.2 0.6-2.7 1.2-1.4 1.9 1 2.3 2.2 0.9 0.4-0.5 0.5-1.4 0.5-2.1z"/>
					</g>
					<g id="&lt;Group&gt;">
						<path id="&lt;Compound Path&gt;" fill-rule="evenodd" class="s4" d="m741.6 350.1c-1.5 1.3-3.3 2.2-5.2 2.9-0.2 0.1-1 0.5-1.7 0.8 0.1 0.4 0.2 0.8 0.2 0.9 0.3 2 0.6 4.1 0.3 6.2-1.1 9.6-9.5 15.3-18.7 15.2q-0.1 0-0.3 0-0.1 0.7-0.3 1.3c-1.1 4.5-3.8 8-7.9 10.3-4.2 2.4-8.6 2.9-13.4 2.8-3 0-6.5-0.1-8.6 0.7-6 2.5-11.7 8.1-19.1 8.6-4.7 0.3-8.9-1.1-13.1-3-3.4-1.7-5.7-2.9-9.5-2.6-9.4 0.9-17.8 0.3-25.8-5.4-1.9-1.4-3.7-3.1-5.3-4.9-1.1-1.2-1.9-3-3.1-4-0.8-0.6-0.7-0.4-2-0.6-2.1-0.2-4.2-0.8-6.1-1.6-8.9-3.8-12.2-12.5-11.9-21.5 0-0.6 0-2.8 0.2-2.6-0.4-0.8-1.8-1.5-2.9-2.4-3.2-2.7-5.8-6.1-6.4-10.4-0.6-3.6 0.4-7.2 2.2-10.3 0.9-1.7 2-3.2 3.1-4.8q0.6-0.8 1.1-1.7c0.1 0 1.2-1.8 0.9-1.2q0.3-0.6 0.6-1.3 0 0 0 0-0.1 0-0.2-0.1 0.1 0.1 0.2 0.1 0-0.1 0-0.1c-0.2-0.2-1-0.9-1.1-1.1-2.5-3.2-4.5-6.5-4.7-10.8-0.1-3.9 1.5-7.6 4-10.7 1.1-1.3 2.4-2.5 3.6-3.7 0.6-0.5 1.2-1.1 1.7-1.6q0.2-0.2 0.4-0.4 0.5-0.6 1-1.2 0.3-0.5 0.4-0.6c0-1.4-0.7-2.8-1.2-4.2-1.3-3.8-2.3-7.7-1.6-11.7 0.8-5.1 4.1-8.5 8.6-10.7-0.3-1.1-0.5-2.2-0.6-3.2-1.3-10.4 7.2-15.7 16.2-17.2q0.7-0.1 1.4-0.1-1.1 1.1-2 2.5-0.1 0.2-0.2 0.3-0.2 0.3-0.4 0.5c-0.4 0.3-0.7 0.7-1 1.3q-0.2 0.4-0.3 0.8-0.2 0.3-0.4 0.6c-0.6 0.5-0.9 1.2-1 1.8q-2.5 5-3.6 10.5-4.4 11.8-8 23.7c-3.7 12.3-7.7 25-8.2 37.9-0.7 21.3 11.8 39.6 30.1 49.8 10.3 5.8 22.2 8.8 34 10 11 1.1 22.4 1 33.3-1 9.7-1.8 19.5-5.4 27.2-11.8q0.2-0.2 0.3-0.4 2.6-1.8 4.8-4c7.7-7.5 11.6-17.5 13.8-27.9 2.4-10.7 2.8-21.7 3.5-32.7 0.5-10.4 0.9-21-0.6-31.4-0.4-2.6-0.9-5.4-1.6-8.1 1.8 0.8 3.5 1.6 5 2.7 3.8 2.9 6.1 7.3 6.2 12 0.2 5.1-1.5 9.5-4.5 13.6-0.2 0.2-1.6 2.4-1.8 2.3 0.1 1 1.2 2.5 1.8 3.6 2.3 4.4 3.7 9.1 2.7 14.1-0.6 2.8-1.7 5.6-3.4 8-0.7 0.8-1.6 1.9-2.4 2.6 5.1 6.4 9.3 17.9 1.3 24.6zm-1.5-24.5q-0.1 0.1-0.2 0.2c-1.1 0.8 0.1 0.4 0.2-0.2z"/>
					</g>
					<g id="&lt;Group&gt;">
						<g id="&lt;Group&gt;">
						</g>
						<g id="&lt;Group&gt;" style="opacity: .1">
							<path id="&lt;Path&gt;" class="s2" d="m709.8 342.9c-11.6 10.2-24.4 19.6-37.4 27.9-7.7 4.9-15.8 9-24.4 12q4 0.7 8 1.1c11 1.1 22.4 1 33.3-1 9.7-1.8 19.5-5.4 27.2-11.8q0.2-0.2 0.3-0.4 2.6-1.8 4.8-4c7.7-7.5 11.6-17.5 13.8-27.9 2.4-10.7 2.8-21.7 3.5-32.7 0.5-10.4 0.9-21-0.6-31.4-0.5-3.3-1.1-6.9-2.2-10.3 2.4 28.8-3.9 58.7-26.3 78.5z"/>
						</g>
					</g>
				</g>
				<g id="&lt;Group&gt;">
					<g id="&lt;Group&gt;">
						<g id="&lt;Group&gt;">
							<path id="&lt;Path&gt;" class="s3" d="m419.7 229.2c-6-9.1-15.5-14.8-23.3-22.2q-2.3-2.2-4.4-4.6c-1-2.4-1.7-5-2.2-7.5-2.1-9.7-2.6-19.8-7-28.8-6.6-13.7-20.2-19-34.2-18.7-2.3-0.2-4.6-0.2-6.8 0.1q-0.3 0.1-0.5 0.1-2.2 0.1-4.3 0.5c-4.5 0.8-8.5 2.7-12.1 5.2-13 7-21.9 20.2-21.2 35.7 0.5 10.4 5.7 17.9 13.1 24.6 4.4 4.1 6.6 8.2 5.6 14.3-0.7 4-2.5 7.7-4.6 11.2-1.9 2.1-3.9 4.1-5.9 5.9-14.4 12.9-33.5 19.9-52.7 18.9-2.8-0.2-4.2 2.2-4 4.3 0 0.6 0.1 1.2 0.4 1.7 1.9 3.3 4.6 6.1 7.7 8.2-1.8-1-4.7 1.4-4.7 3.7 0 2.4 1.9 4.2 3.6 5.8q4.4 3.8 8.8 7.5c-1.7 0.2-2.7 2.3-2.3 3.9q0 0 0 0c-1.8 1.9-2.3 4.6-0.1 7.2 12.4 14.5 31.4 20.8 50 22.5 19.7 1.7 39.8-1.7 57.6-10.5 30.9-15.3 67.1-53 43.5-89z"/>
						</g>
						<g id="&lt;Group&gt;" style="opacity: .1">
							<path id="&lt;Path&gt;" class="s2" d="m379.4 262.6c-0.7-0.9-2.1-0.3-2.4 0.6q-0.4 1.5-1.1 2.8c-1.6 0.9-3 1.9-4.4 3.2-0.4 0.3-0.5 0.7-0.4 1.1q-0.3 0.3-0.5 0.8-0.2-0.2-0.4-0.2c-0.4-0.3-0.9-0.4-1.4-0.1q-1.7 1-3.3 2.1-2.8 1.5-5.4 3.4-0.3 0.2-0.5 0.5-1.3 0.8-2.6 1.6-3.8 1.9-7.4 4.1-1.2 0.4-2.3 1-3.5 1.3-7 2.5c-0.3-0.4-0.8-0.7-1.4-0.6-3.4 0.5-6.7 1.2-10 2.1q0 0-0.1 0-2.4 0.5-4.8 0.9-1.4 0-2.8 0-5.3-0.5-10.6-1.3c-0.5-0.1-0.8 0.1-1.1 0.3q-0.2 0-0.3 0-0.3-0.1-0.5 0c-3-1.6-5.8-3.7-8.2-6.2-1.2-1.3-3.3 0.6-2 2 2.9 3 6.2 5.4 9.9 7.3q0.2 0.2 0.6 0.4 0.1 0 0.3 0c12.6 6.1 28.7 6.3 41.6 3.4 12-2.6 41.1-14.9 28.5-31.7z"/>
						</g>
						<g id="&lt;Group&gt;">
							<path id="&lt;Path&gt;" class="s10" d="m420.7 169.5c-1.7-3.2-7.2-2.8-10-2.5-9.1 0.9-17.1 2.3-25.8 0.7q-1-0.3-2-0.8c-0.2 0.1-0.5 0.3-0.7 0.5-0.9 0.9-1.1 2.9-1.2 4.1-0.3 3.8 0.7 7.8 2 11.4 1.1 3.2 2.7 5.3 5.3 6.6q2-0.9 4-1.8c2.1-0.4 4.2-0.9 6.1-1.5 4.7-1.4 27-8.1 22.3-16.7z"/>
						</g>
						<g id="&lt;Group&gt;">
							<path id="&lt;Path&gt;" class="s10" d="m376.9 262c-9.3 9.2-20.5 16.1-32.9 20.2-11.5 3.7-26 6.1-37.9 3-5.1-1.3-9.4-6.4-5-11 1.8-2 4.5-3.2 6.9-4.4 3.8-1.9 7.4-4 10.8-6.5 16 2.8 32.2-2.3 43.8-13.6 1.3-1.3-0.8-3.1-2.1-1.8-10.3 10-24.5 14.7-38.6 13.1q0.2-0.2 0.4-0.4c8.4-6.9 15.1-15.7 19.7-25.6 0.7-1.6-1.8-2.8-2.6-1.2-6.7 14.6-18 26.2-32.3 33.4-3.9 1.9-8.8 4-10.4 8.5-1.7 4.8 1.6 9.3 5.9 11.3 5.5 2.5 12.7 2.3 18.6 2.1 7-0.3 14-1.4 20.7-3.3 14.1-4 26.8-11.6 37.1-21.9 1.3-1.3-0.9-3.1-2.1-1.9z"/>
						</g>
						<g id="&lt;Group&gt;">
							<path id="&lt;Path&gt;" class="s11" d="m357.3 173.4c-1.9 0.8-3 2.9-2.3 4.9l0.1 0.3c0.7 1.8 2.9 3 4.8 2.2 1.9-0.8 3-2.8 2.3-4.8l-0.1-0.3c-0.7-1.8-2.9-3-4.8-2.3z"/>
						</g>
					</g>
					<g id="&lt;Group&gt;">
						<g id="&lt;Group&gt;">
						</g>
						<g id="&lt;Group&gt;">
						</g>
						<g id="&lt;Group&gt;">
							<path id="&lt;Path&gt;" class="s5" d="m337.6 224.3c8.6-0.9 17.1-2.4 25.5-4.9 8.3-2.6 16.3-5.9 24.2-9.4 2.7-1.3 5.4-2.7 8-4.2q-1.7-1.6-3.3-3.4-0.7-1.8-1.2-3.7-3 1.7-6.1 3.2c-8.1 3.7-16.3 7.1-24.9 9.6-7.9 2.4-16.1 3.8-24.3 4.6q-6.3 0.6-12.6 0.1c-1.4-0.2-2.8-0.4-4.1-0.6 2.4 2.7 3.7 5.5 3.8 9q1 0.1 2 0.2c4.4 0.2 8.7 0 13-0.5z"/>
						</g>
					</g>
					<g id="&lt;Group&gt;">
						<g id="&lt;Group&gt;">
							<path id="&lt;Path&gt;" class="s4" d="m405.3 198.6q-1.4-2.1-3-4.2c-1.6-2.2-3.6-5.2-6.5-5.8-4.1-0.7-5.4 4.3-5.7 8.9-0.4 0.8-0.4 2-0.2 3.1-0.3 0.8-0.3 1.5 0.2 2.4q0 0.1 0 0.2c0 0.4 0.3 0.6 0.5 0.7 1.5 2 3.9 3.1 6.3 3.7 3.1 0.8 13.1 1 11.1-5-0.5-1.4-1.8-2.8-2.7-4z"/>
						</g>
						<g id="&lt;Group&gt;">
							<path id="&lt;Path&gt;" class="s4" d="m387.9 203c-4.5-1-17.5-2.3-13.9 5.9 1.6 3.7 4.1 6.9 7.1 9.5 2 1.7 5.5 4.8 8.2 2.7 2.6-2.1 1.9-6.9 1.4-9.7-0.2-1.6-0.8-5.5-2.3-7.4 0.1-0.4 0-0.9-0.5-1z"/>
						</g>
						<g id="&lt;Group&gt;">
							<path id="&lt;Path&gt;" class="s12" d="m390.2 199.2c-1.9 0.3-4.8 2.4-5.4 4.3-0.3 1.1 0.3 1.7 0.9 2.5q0.3 0.3 0.6 0.7c0.6 1 1.4 1.9 2 2.5q0.3 0.4 0.7 0.6 0.1 0.1 0.2 0.2c0.2 0.3 0.6 0.3 0.8 0.2 1.1 0 2.2-0.9 3.3-1.8 1.7-1.7 2.7-3.2 1.4-5.5-0.9-1.6-2.4-4-4.5-3.7z"/>
						</g>
					</g>
				</g>
				<g id="&lt;Group&gt;">
					<g id="&lt;Group&gt;">
						<path id="&lt;Path&gt;" class="s3" d="m95 167.1c-0.5-1-1.5-1.7-2.6-1.7l-21.6-0.4-11.8-18.1c-0.6-0.9-1.7-1.4-2.9-1.3-1.1 0.2-2 0.9-2.4 2l-7.1 20.3-20.8 5.7c-1.1 0.3-1.9 1.2-2.1 2.3-0.2 1.1 0.2 2.3 1.1 3l17.2 13-1 21.5c-0.1 1.1 0.5 2.2 1.5 2.7q0.4 0.3 0.9 0.4c0.8 0.1 1.6-0.1 2.2-0.5l17.7-12.3 20.2 7.6c1 0.4 2.2 0.2 3-0.6 0.9-0.8 1.2-1.9 0.9-3l-6.3-20.7 13.5-16.8c0.7-0.9 0.9-2.1 0.4-3.1z"/>
					</g>
					<g id="&lt;Group&gt;">
						<g id="&lt;Group&gt;">
						</g>
						<g id="&lt;Group&gt;">
						</g>
						<g id="&lt;Group&gt;" style="opacity: .1">
							<path id="&lt;Path&gt;" class="s2" d="m87.4 207.7l-6.3-20.7 13.5-16.8c0.7-0.9 0.9-2.1 0.4-3.1-0.5-0.9-1.4-1.6-2.4-1.7-0.6 6.7-9.4 11.7-13.6 15.5-3.4 3.1-4.7 5.8-2.8 10.3 1.6 4 3 8.1 4 12.3 0.1 0.4 0.1 1.1 0.2 1.7q-0.1 0-0.2 0-3.2 0-6.4-0.4-3.7-0.4-7.3-1.1c-2.2-0.4-4.4-0.9-6.7-0.2-3.9 1.2-7.3 4.6-10.4 7.1q-3.4 2.8-6.8 5.6 0.4 0.2 0.8 0.3c0.8 0.1 1.6-0.1 2.2-0.5l17.7-12.3 20.2 7.6c0.8 0.3 1.8 0.2 2.6-0.2q0.8-0.7 1.2-1.7c0.2-0.5 0.2-1.1 0.1-1.7z"/>
						</g>
					</g>
				</g>
				<g id="&lt;Group&gt;">
					<g id="&lt;Group&gt;">
						<path id="&lt;Path&gt;" class="s3" d="m1153.9 120.2c-0.5-0.7-1.4-1-2.2-0.7l-15.9 4.3-12.6-10.5c-0.6-0.6-1.5-0.7-2.3-0.4-0.8 0.4-1.3 1.1-1.4 2l-0.7 16.4-14 8.7c-0.7 0.5-1.1 1.3-1 2.2 0.1 0.8 0.6 1.5 1.4 1.9l15.4 5.7 4 16c0.2 0.8 0.9 1.5 1.7 1.6q0.4 0.1 0.8 0.1c0.5-0.1 1.1-0.4 1.4-0.9l10.3-12.8 16.4 1.2c0.9 0 1.7-0.4 2.1-1.2 0.4-0.7 0.4-1.6-0.1-2.3l-9-13.8 6.2-15.2c0.3-0.8 0.1-1.7-0.5-2.3z"/>
					</g>
					<g id="&lt;Group&gt;">
						<g id="&lt;Group&gt;">
						</g>
						<g id="&lt;Group&gt;">
						</g>
						<g id="&lt;Group&gt;" style="opacity: .1">
							<path id="&lt;Path&gt;" class="s2" d="m1157.2 151.5l-9-13.8 6.2-15.2c0.3-0.8 0.1-1.7-0.5-2.3-0.5-0.6-1.3-0.9-2.1-0.8 1.1 5-4.3 10.6-6.5 14.4-1.8 3-2.2 5.2 0.1 8 2.1 2.6 4.1 5.3 5.7 8.2 0.1 0.2 0.3 0.7 0.5 1.2q-0.1 0-0.1 0-2.4 0.7-4.8 1.1-2.8 0.5-5.6 0.8c-1.7 0.2-3.4 0.3-4.9 1.3-2.6 1.7-4.3 5-6 7.5q-2 2.8-3.8 5.6 0.3 0 0.7 0c0.5-0.1 1.1-0.4 1.4-0.9l10.3-12.8 16.4 1.2c0.7 0 1.4-0.3 1.8-0.8q0.5-0.6 0.6-1.4c0-0.5-0.1-0.9-0.4-1.3z"/>
						</g>
					</g>
				</g>
				<g id="&lt;Group&gt;">
					<g id="&lt;Group&gt;">
						<path id="&lt;Path&gt;" class="s13" d="m573.6 396.1q0 0 0 0-0.5-0.5-1-1 0 0 0-0.1 0 0 0 0-0.1 0-0.1 0 0 0-0.1-0.1-1.2-0.4-2.5-0.8 0.1 0 0.1 0-2.5-0.7-5-1c-7.6-1.1-15.1-2.1-22.7-3.1q-5.2-0.6-10.5-1-1.1-0.1-2.2-0.1 0.1 0 0.1 0-0.3-0.1-0.6-0.1-0.2 0-0.4 0-0.1 0-0.3 0-0.2 0-0.5 0-1-0.1-1.9-0.1-0.2 0-0.4 0-0.2 0-0.5 0-0.1 0-0.3 0-1 0-2 0-0.1 0-0.3 0-0.3 0-0.6 0-0.1 0-0.1 0-1.6 0-3.1 0.1c-3.3 0.2-6.5 0.1-9.8 0.1q-1 0-1.9 0 0 0-0.1 0-0.2 0.1-0.4 0.1-0.4 0-0.7 0-0.3 0-0.5 0.1-0.1 0-0.1 0-0.9 0-1.8 0.1 0 0-0.1 0-0.6 0-1.2 0.1-0.6 0-1.3 0c-10.6 2.3-11.2 4.4-13.3 8.6-2.8 5.4-3.6 33.3-31.9 42.7-28.4 9.4-38.8-32.4-53.5-25.9-9.1 4.1-15.9 7.5-20.8 10.6-3 1.9-5.8 4.1-8.6 6.4-5.6 4.5-11.8 8.5-17.8 12.4-3.1 1.9-6.1 3.9-8.9 6.1-1.5 1.2-3.8 2.4-4.8 4.2-1.1 2.2 0.3 5.3 0.9 7.5 1.1 4 2.6 7.9 4 11.9 2.4 7 5 14.3 8.1 21.1 1.9 4.3 4.7 6.3 9.4 6.1 10.3-0.5 19.6-5.6 28.8-10.4 12.8 34.3 22.3 80.5 23.5 94.8 1.3 17.7 25.5-2.9 49.7 23.1 24.1 26.1 23.8 27.9 48.3 21.4 24.5-6.4 17-40.2 25.2-53.4 8.1-13.2 27.5-16 32.9-26.6 5.1-9.9-22.3-56.1-30-101.4 6.7-1.7 13.5-3.1 20.4-4.4 6-1.1 11.6-1.5 12.6-10.2 0.9-8.7 1-18 0.3-27.1q0-0.3 0-0.5c0-1.9 0.1-4.4-0.1-6.7q-0.2-1.1-0.5-2.2-0.5-0.6-1.1-1.3z"/>
					</g>
					<g id="&lt;Group&gt;">
						<g id="&lt;Group&gt;">
						</g>
						<g id="&lt;Group&gt;">
						</g>
						<g id="&lt;Group&gt;">
						</g>
						<g id="&lt;Group&gt;">
						</g>
						<g id="&lt;Group&gt;">
							<path id="&lt;Path&gt;" class="s1" d="m466.2 449.1c12.4-5.4 20.1-17.3 25.1-30.5 3.3-9.1 6.3-18.9 7.6-28.9q-2.3 0.6-3.9 1.2c-1.2 7.2-3.2 14.3-5.4 21.2-4.2 12.9-10.6 25.8-22.3 32-24.7 13.2-49.5-7.9-65.3-29.3q-1.8 0.8-3.4 1.5c16.2 22.2 41.5 44.3 67.6 32.8z"/>
						</g>
						<g id="&lt;Group&gt;">
							<path id="&lt;Path&gt;" class="s1" d="m465.2 591.1c-7.2-6.2-15.3-8.6-24.1-10.1-5.2-0.9-10.4-1.9-15.5-1.2-3.5 0.4-6.8 1.4-10.1 2.3q0.2 1.9 0.4 3.3 0 0.4 0 0.7c4-1 7.9-2.3 11.9-2.6 4.4-0.2 9 0.7 13.3 1.5 11.5 2 19.6 6.5 28.4 15.3 7.5 7.5 14.6 15.1 19.8 24.8 1.4 2.5 2.7 5.1 4.1 7.6 1.4 0.3 2.8 0.4 4.4 0.3-3.3-5.6-6.1-11.7-9.8-17.2-6.2-9.2-14.5-17.6-22.8-24.7z"/>
						</g>
						<g id="&lt;Group&gt;">
							<path id="&lt;Path&gt;" class="s1" d="m531.6 581.4c3.8-8.9 8.8-18.6 15.7-25 6.9-6.2 15.7-12.6 24.8-14.4q-0.4-1.8-1-3.9c-9.3 1.8-17.7 8-24.9 14.2-8.3 6.9-14.1 17.8-18.3 28.1-3.8 9.5-5.3 19.8-5.4 30.3-0.1 4.8 0.2 9.6 0.6 14.4q2.1-1.8 3.6-4c-0.3-5-0.6-9.3-0.6-10.3 0.1-10.2 1.6-20.2 5.5-29.4z"/>
						</g>
					</g>
					<g id="&lt;Group&gt;">
						<g id="&lt;Group&gt;">
						</g>
						<g id="&lt;Group&gt;">
						</g>
					</g>
					<g id="&lt;Group&gt;">
						<g id="&lt;Group&gt;">
						</g>
						<g id="&lt;Group&gt;">
						</g>
						<g id="&lt;Group&gt;">
						</g>
						<g id="&lt;Group&gt;">
							<path id="&lt;Path&gt;" class="s1" d="m351.4 462.8c-1.5-4.1-3.8-8.7-4.7-13.2q-0.4 0.3-0.7 0.6c-0.8 0.6-1.8 1.2-2.7 1.9 0.9 3 2.1 5.9 3.2 8.8 2.2 6 4.4 11.9 6.7 17.8 3 7.5 6.1 15.1 9.8 22.3q0.3 0 0.6 0 1.9-0.1 3.7-0.4c-3.9-7.4-7.2-15.2-10.2-22.9-2-5-3.8-9.9-5.7-14.9z"/>
						</g>
						<g id="&lt;Group&gt;">
							<path id="&lt;Path&gt;" class="s1" d="m570 422.5c0.2-9.1 0.7-19.1-0.6-28.5q-2-0.6-4.1-0.9c1.5 9.5 1 20 0.7 29.3q-0.3 7.5-0.6 15c0 2-0.1 4.1-0.2 6.2 1.4-0.3 2.8-0.6 4-1.1q0-1.1 0.1-2.1c0.3-6 0.5-12 0.7-17.9z"/>
						</g>
					</g>
					<g id="&lt;Group&gt;">
						<g id="&lt;Group&gt;">
						</g>
						<g id="&lt;Group&gt;" style="opacity: .1">
							<path id="&lt;Path&gt;" class="s2" d="m513.8 588.1c-5.2-2.6-10.1-5.6-15.4-8-9.8-4.5-19-9.3-27.9-15.3-8.6-6-15.5-10.7-23.1-17.7-7.9-7.3-13.7-14.9-19.4-24-5.7-9.3-11.3-18.5-15.8-28.4-4.7-10.5-8-21.2-10.9-32.3-3.2-12.7-6.6-25.4-9.6-38.1q-0.5-2.1-1-4.2c-3.7 1.8-6.8 3.6-9.4 5.2-3 1.9-5.8 4.1-8.6 6.4-5.6 4.5-11.8 8.5-17.8 12.4-3.1 1.9-6.1 3.9-8.9 6.1-1.5 1.2-3.8 2.4-4.8 4.2-1.1 2.2 0.3 5.3 0.9 7.5 1.1 4 2.6 7.9 4 11.9 2.4 7 5 14.3 8.1 21.1 1.9 4.3 4.7 6.3 9.4 6.1 10.3-0.5 19.6-5.6 28.8-10.4 12.8 34.3 22.3 80.5 23.5 94.8 1.3 17.7 25.5-2.9 49.7 23.1 24.1 26.1 23.8 27.9 48.3 21.4 15.9-4.2 18.3-20 20.3-34.1q-4-1.4-8-2.8c-4.4-1.5-8.6-2.9-12.4-4.9z"/>
						</g>
					</g>
					<g id="&lt;Group&gt;">
						<path id="&lt;Path&gt;" class="s1" d="m525.9 469.2c-0.7-2.2-1.2-4.7-1.9-6.9q-0.2-0.8-0.4-1.6c-1-4-2.6-3.6-6.1-3.1-5.3 0.8-10.4 2.3-15.5 3.6-4.2 1.1-8.5 2.5-12.4 4.1-3.2 1.3-1.1 6.3-0.3 9 1.9 7.6 4.3 17 9.5 23.3 1.8 2.6 4.3 5.2 6.8 6.1 4.2 1.6 9.1 0 13-1.7 3.4-1.5 8-4.1 9.4-8 0.7-2.1 0.4-5.1 0.3-7.3-0.1-2.5-0.3-5.1-0.8-7.5-0.1-3.4-0.8-6.9-1.6-10z"/>
					</g>
				</g>
			</g>
			<g id="&lt;Group&gt;">
				<path id="&lt;Path&gt;" class="s0" d="m1034.6 559.4c-2-4-5.2-7.7-9.3-9.7-4.4-2.1-9.4-1.9-14.1-1.4q-1.7 0.2-3.3 0.6c-1.8-3.6-4.5-6.7-8-8.8-4.2-2.5-9.6-4.2-14.6-3.8-1.8 0.1-3.6 0.5-5.3 1.1q-0.5-0.7-1-1.3c-2.2-2.9-4.7-5.4-7.7-7.4-2.8-1.7-5.9-2.9-9.1-3.4-12.9-2.2-27.3 4.7-33.4 16.4-1.1 2.2-1.8 4.5-2.1 6.8q-1.8 0.6-3.5 1.3c-6.1 2.8-12 7.6-15.3 13.6-3.6 6.4-3.5 14.3 0.1 20.7 3.5 6 10.4 10.1 17 11.6 3.8 0.8 7.9 1.2 11.8 0.7 1.7-0.2 3.4-0.5 5-1 2.9 1.4 6 2.4 9.1 3.4 2.2 0.6 4.6 0.8 6.9 1 2.5 0.1 4.9 0.1 7.3-0.4 5.3-1.1 9.9-3.7 13.8-7.3q0.7-0.7 1.4-1.5 0.5 0.3 1 0.5c3.9 1.6 8.3 2.2 12.4 2.7 8.7 1.1 17.2-0.1 25.2-3.7 3.9-1.8 7.6-3.9 10.5-7.2 2.5-2.8 4.2-6.2 5.5-9.7 1.6-4.7 1.9-9.3-0.3-13.8z"/>
			</g>
			<g id="&lt;Group&gt;" style="opacity: .4">
				<g id="&lt;Group&gt;">
					<path id="&lt;Path&gt;" class="s1" d="m275.3 1084.6c-4.1 0.2-7.5 2.8-8.9 6.3-1.7-3.4-5.3-5.8-9.4-5.6-5.4 0.1-9.7 4.7-9.6 10.2 0.5 14.9 19.9 22.6 19.9 22.6 0 0 18.7-9.6 18.3-23.8-0.2-5.5-4.8-9.8-10.3-9.7z"/>
				</g>
				<g id="&lt;Group&gt;">
					<g id="&lt;Group&gt;">
					</g>
					<g id="&lt;Group&gt;" style="opacity: .1">
						<path id="&lt;Path&gt;" class="s2" d="m283.7 1093.2c-0.4 4.2-2.7 8.4-4.8 12-2.9 4.8-6.7 9.1-11 12.6 3.2-1.8 18.1-10.8 17.7-23.5-0.1-3.2-1.8-6-4.2-7.8 1.5 1.9 2.5 4.1 2.3 6.7z"/>
					</g>
				</g>
			</g>
			<g id="&lt;Group&gt;" style="opacity: .4">
				<g id="&lt;Group&gt;">
					<path id="&lt;Path&gt;" class="s1" d="m139.6 625.3c-2.5 1.3-3.9 4-3.7 6.7-2.1-1.7-5-2.1-7.5-0.8-3.4 1.8-4.7 6-2.9 9.4 4.8 9.1 19.2 8.1 19.2 8.1 0 0 8.8-11.8 4.2-20.5-1.8-3.4-6-4.7-9.3-2.9z"/>
				</g>
				<g id="&lt;Group&gt;">
					<g id="&lt;Group&gt;">
					</g>
					<g id="&lt;Group&gt;" style="opacity: .1">
						<path id="&lt;Path&gt;" class="s2" d="m147.4 628.1c1.1 2.8 0.9 6.1 0.7 9-0.4 3.9-1.4 7.7-3.1 11.2 1.5-2.1 8-12.3 3.9-20.1-1-2-2.9-3.2-4.9-3.6 1.5 0.8 2.8 1.8 3.4 3.5z"/>
					</g>
				</g>
			</g>
			<g id="&lt;Group&gt;" style="opacity: .4">
				<g id="&lt;Group&gt;">
					<path id="&lt;Path&gt;" class="s1" d="m692.1 707.1c-2.7-0.7-5.5 0.3-7.2 2.4-0.4-2.6-2.3-4.9-5-5.7-3.7-1-7.5 1.2-8.5 4.9-2.7 10 8.6 19 8.6 19 0 0 14.4-2.5 17-12.1 1-3.7-1.2-7.5-4.9-8.5z"/>
				</g>
				<g id="&lt;Group&gt;">
					<g id="&lt;Group&gt;">
					</g>
					<g id="&lt;Group&gt;" style="opacity: .1">
						<path id="&lt;Path&gt;" class="s2" d="m696 714.5c-1.2 2.8-3.5 5.1-5.7 7-2.9 2.6-6.2 4.7-9.8 6.1 2.5-0.5 14.2-3.5 16.5-12 0.6-2.1 0.1-4.3-1.2-6 0.6 1.6 0.9 3.2 0.2 4.9z"/>
					</g>
				</g>
			</g>
			<g id="&lt;Group&gt;" style="opacity: .4">
				<g id="&lt;Group&gt;">
					<path id="&lt;Path&gt;" class="s1" d="m1042.9 945.1c-2.8-0.2-5.3 1.4-6.6 3.8-0.9-2.5-3.2-4.4-6-4.6-3.8-0.2-7.1 2.7-7.4 6.5-0.6 10.3 12.3 16.9 12.3 16.9 0 0 13.6-5.4 14.2-15.3 0.2-3.8-2.7-7.1-6.5-7.3z"/>
				</g>
				<g id="&lt;Group&gt;">
					<g id="&lt;Group&gt;">
					</g>
					<g id="&lt;Group&gt;" style="opacity: .1">
						<path id="&lt;Path&gt;" class="s2" d="m1048.2 951.6c-0.6 2.9-2.4 5.6-4.2 8-2.3 3.1-5.1 5.8-8.4 8 2.4-1.1 13.3-6.4 13.8-15.2 0.1-2.2-0.8-4.2-2.3-5.6 0.8 1.4 1.4 3 1.1 4.8z"/>
					</g>
				</g>
			</g>
			<g id="&lt;Group&gt;">
				<g id="&lt;Group&gt;">
					<path id="&lt;Path&gt;" class="s3" d="m1035.3 787.4c-0.3-0.5-0.9-0.8-1.5-0.7l-11.6 1.6-7.9-8.6c-0.4-0.5-1.1-0.6-1.6-0.5-0.6 0.2-1.1 0.7-1.2 1.3l-2 11.5-10.6 4.9c-0.6 0.2-1 0.8-1 1.4 0 0.6 0.3 1.1 0.9 1.4l10.3 5.5 1.3 11.6c0.1 0.7 0.5 1.2 1.1 1.4q0.2 0.1 0.5 0.1c0.4 0 0.8-0.2 1.1-0.5l8.4-8.1 11.5 2.3c0.6 0.2 1.2-0.1 1.6-0.6 0.4-0.4 0.4-1.1 0.2-1.6l-5.2-10.6 5.8-10.1c0.3-0.6 0.3-1.2-0.1-1.7z"/>
				</g>
				<g id="&lt;Group&gt;">
					<g id="&lt;Group&gt;">
					</g>
					<g id="&lt;Group&gt;">
					</g>
					<g id="&lt;Group&gt;" style="opacity: .1">
						<path id="&lt;Path&gt;" class="s2" d="m1034.8 809.8l-5.2-10.6 5.8-10.1c0.3-0.6 0.3-1.2-0.1-1.7-0.3-0.5-0.8-0.8-1.4-0.7 0.3 3.6-4 7-5.9 9.5-1.6 1.9-2.1 3.5-0.7 5.7 1.3 2 2.4 4 3.3 6.2 0 0.2 0.1 0.6 0.2 0.9q0 0.1-0.1 0.1-1.7 0.2-3.5 0.3-1.9 0.1-3.9 0c-1.3 0-2.5-0.1-3.7 0.5-1.9 1-3.5 3.1-4.9 4.7q-1.6 1.8-3.2 3.6 0.3 0.1 0.5 0.1c0.4 0 0.8-0.2 1.1-0.5l8.4-8.1 11.5 2.3c0.5 0.1 1 0 1.4-0.3q0.3-0.5 0.5-1 0.1-0.5-0.1-0.9z"/>
					</g>
				</g>
			</g>
			<g id="&lt;Group&gt;" style="opacity: .4">
				<g id="&lt;Group&gt;">
					<path id="&lt;Path&gt;" class="s1" d="m1023.9 223.3c-2.7-0.8-5.5 0.3-7.2 2.3-0.4-2.6-2.3-4.9-5-5.6-3.7-1-7.5 1.1-8.5 4.8-2.7 10 8.6 19.1 8.6 19.1 0 0 14.4-2.6 17-12.1 1-3.7-1.2-7.5-4.9-8.5z"/>
				</g>
				<g id="&lt;Group&gt;">
					<g id="&lt;Group&gt;">
					</g>
					<g id="&lt;Group&gt;" style="opacity: .1">
						<path id="&lt;Path&gt;" class="s2" d="m1027.8 230.7c-1.2 2.7-3.5 5-5.7 7-2.9 2.6-6.3 4.6-9.9 6.1 2.5-0.6 14.3-3.5 16.6-12 0.6-2.2 0.1-4.4-1.2-6 0.6 1.5 0.9 3.2 0.2 4.9z"/>
					</g>
				</g>
			</g>
		</g>
	</g>
</svg>