<svg version="1.2" xmlns="http://www.w3.org/2000/svg" viewBox="0 0 768 756" width="768" height="756">
	<title>1260314_159401-OUO9MD-282-ai</title>
	<defs>
		<linearGradient id="g1" x2="1" gradientUnits="userSpaceOnUse" gradientTransform="matrix(3.691,-27.446,17.207,2.314,320.807,120.478)">
			<stop offset="0" stop-color="#ffffff"/>
			<stop offset="1" stop-color="#320000"/>
		</linearGradient>
	</defs>
	<style>
		.s0 { fill: #2e4672 } 
		.s1 { fill: #514f4f } 
		.s2 { fill: #63605e } 
		.s3 { fill: #efc09a } 
		.s4 { fill: #1e0909 } 
		.s5 { fill: #e0dada } 
		.s6 { fill: #ffffff } 
		.s7 { fill: #ed662b } 
		.s8 { fill: #a5482b } 
		.s9 { fill: #e63231 } 
		.s10 { fill: #679fc1 } 
		.s11 { opacity: .2;mix-blend-mode: multiply;fill: #1e0909 } 
		.s12 { fill: #5b2b1d } 
		.s13 { fill: #472218 } 
		.s14 { fill: #725139 } 
		.s15 { opacity: .2;mix-blend-mode: multiply;fill: url(#g1) } 
		.s16 { fill: #e59595 } 
		.s17 { fill: #bf7f7f } 
		.s18 { fill: #271e54 } 
		.s19 { fill: #425f8e } 
		.s20 { fill: #ffce55 } 
		.s21 { fill: #7a7673 } 
		.s22 { fill: #d89c60 } 
		.s23 { fill: #ba8352 } 
	</style>
	<g id="OBJECTS">
		<g id="&lt;Group&gt;">
			<g id="&lt;Group&gt;">
				<path id="&lt;Compound Path&gt;" fill-rule="evenodd" class="s0" d="m436.7 570.5q-2.5 0-5-0.7c-8.9-2.8-13.9-12.3-11.1-21.2 0.3-0.8 23.5-75.7 30.9-116.7-18.1-6.5-62.9-17.3-101.2-25.2-9.1-1.8-15-10.8-13.1-19.9 1.8-9.2 10.8-15 19.9-13.2 0.3 0.1 30 6.2 59.1 13.3 17.4 4.3 31.3 8.1 41.3 11.4 12.4 4.1 31.2 10.2 29.1 27.2-4.8 40.1-32.5 129.4-33.7 133.2-2.3 7.2-9 11.8-16.2 11.8zm21.7-135.6z"/>
			</g>
			<g id="&lt;Group&gt;">
				<path id="&lt;Path&gt;" class="s1" d="m426.3 546.2c0 0-20.8-28.7-27.8-18.9-6.4 9 27.8 18.9 27.8 18.9z"/>
				<path id="&lt;Path&gt;" class="s2" d="m422.4 541.6l-15.9 71.9c0 0 62 18.5 105.1-2.8 0 0 9.6-41.9-57.7-31.4l7.9-31.9c0 0-15.3 7.8-39.4-5.8z"/>
				<path id="&lt;Path&gt;" class="s1" d="m404.5 609.7c0 0 58.8 21.5 107.6-1.1l1.6 6.2c0 0-39.1 24.1-109.2 2.5z"/>
			</g>
			<g id="&lt;Group&gt;">
				<path id="&lt;Path&gt;" class="s3" d="m520 340.2c-69.2 0-112.4-15.9-128.3-47.2-20.4-39.9 13-86.7 14.5-88.6 4.4-6.2 13-7.5 19.1-3.1 6.2 4.5 7.5 13.1 3.1 19.2-7 9.7-22.8 39.5-12.2 60.1 10.7 21 46.6 32.1 103.8 32.1 7.6 0 13.8 6.2 13.8 13.7 0 7.6-6.2 13.8-13.8 13.8z"/>
			</g>
			<g id="&lt;Group&gt;" style="opacity: .2;mix-blend-mode: multiply">
				<path id="&lt;Path&gt;" class="s4" d="m520 340.2c-69.2 0-112.4-15.9-128.3-47.2-20.4-39.9 13-86.7 14.5-88.6 4.4-6.2 13-7.5 19.1-3.1 6.2 4.5 7.5 13.1 3.1 19.2-7 9.7-22.8 39.5-12.2 60.1 10.7 21 46.6 32.1 103.8 32.1 7.6 0 13.8 6.2 13.8 13.7 0 7.6-6.2 13.8-13.8 13.8z"/>
			</g>
			<path id="&lt;Path&gt;" class="s0" d="m380.8 285l34.7-4c0 0-1.5-31.2 13-55 2.5-4.2 3.8-9.2 3.1-14.1-0.7-5.8-4-12.3-14-15.4-19.9-6.2-27.7 19-27.7 19 0 0-12.7 39.2-9.1 69.5z"/>
			<path id="&lt;Path&gt;" class="s1" d="m403 180.7c0 0 30.3 5.6 38.7-10.5 8.5-16.1 15.5-82.3 23.9-91.9 0 0-94-26.7-108.5-10-14.6 16.6-83.9 110.5 45.9 112.4z"/>
			<g id="&lt;Group&gt;">
				<g id="&lt;Group&gt;">
					<path id="&lt;Path&gt;" class="s1" d="m768 649.1c0 58.7-47.5 106.2-106.2 106.2-58.6 0-106.2-47.5-106.2-106.2 0-58.6 47.6-106.2 106.2-106.2 58.7 0 106.2 47.6 106.2 106.2z"/>
					<g id="&lt;Group&gt;">
						<path id="&lt;Path&gt;" class="s5" d="m719.6 649.1c0 32-25.9 57.8-57.8 57.8-31.9 0-57.8-25.8-57.8-57.8 0-31.9 25.9-57.8 57.8-57.8 31.9 0 57.8 25.9 57.8 57.8z"/>
					</g>
					<g id="&lt;Group&gt;">
						<path id="&lt;Path&gt;" class="s6" d="m712 649.1c0 27.8-22.5 50.2-50.2 50.2-27.7 0-50.2-22.4-50.2-50.2 0-27.7 22.5-50.2 50.2-50.2 27.7 0 50.2 22.5 50.2 50.2z"/>
					</g>
				</g>
				<path id="&lt;Path&gt;" class="s7" d="m648.1 651.8l-62.6-62.6c-4.4-4.4-4.4-11.5 0-15.9 4.4-4.4 11.5-4.4 15.9 0l62.6 62.6c4.4 4.3 4.4 11.5 0 15.9-4.4 4.4-11.5 4.4-15.9 0z"/>
				<g id="&lt;Group&gt;">
					<path id="&lt;Path&gt;" class="s1" d="m281.1 649.1c0 58.7-47.6 106.2-106.2 106.2-58.7 0-106.2-47.5-106.2-106.2 0-58.6 47.5-106.2 106.2-106.2 58.6 0 106.2 47.6 106.2 106.2z"/>
					<g id="&lt;Group&gt;">
						<path id="&lt;Path&gt;" class="s5" d="m232.7 649.1c0 32-25.9 57.8-57.8 57.8-31.9 0-57.8-25.8-57.8-57.8 0-31.9 25.9-57.8 57.8-57.8 31.9 0 57.8 25.9 57.8 57.8z"/>
					</g>
					<g id="&lt;Group&gt;">
						<path id="&lt;Path&gt;" class="s6" d="m225.1 649.1c0 27.8-22.5 50.2-50.2 50.2-27.7 0-50.2-22.4-50.2-50.2 0-27.7 22.5-50.2 50.2-50.2 27.7 0 50.2 22.5 50.2 50.2z"/>
					</g>
				</g>
				<path id="&lt;Path&gt;" class="s7" d="m552.7 361.1h-42.1c-8.6 0-15.6 7-15.6 15.6v230.3c0 8.6-6.9 15.6-15.5 15.6h-123.2c-8.6 0-15.5-7-15.5-15.6v-140.2c0-8.6-7-15.6-15.6-15.6h-179q-1.6 0-3.1 0.3c-15.4 3.2-134.5 32.6-142.7 181.1-0.5 9 6.5 16.5 15.5 16.5h171.9 153 154.2 32c7.9 0 14.6-5.9 15.4-13.8 5.4-53.8 41.8-74.8 59.6-81.9 5.8-2.4 9.6-8.1 9.6-14.4v-67c0-6.3-3.7-12.2-9.6-14.4-25.6-9.6-32.1-57.5-33.8-82-0.5-8.2-7.3-14.5-15.5-14.5z"/>
				<path id="&lt;Path&gt;" class="s8" d="m529.6 654.8c0 0 46.9 17.4 75.1-14.6 28.2-32.1 57.1-61.9 147.2-57.8 0 0-17.6-57.2-90.1-57.2-72.4 0-115.4 52.3-132.2 129.6z"/>
				<path id="&lt;Path&gt;" class="s8" d="m64.5 635.9h222.5c7 0 12.7-5.7 12.7-12.8v-105.3c0-7-5.7-12.7-12.7-12.7h-72.7c-45.7 0-88.9 20.9-117.4 56.7l-42.4 53.4c-6.6 8.4-0.7 20.7 10 20.7z"/>
				<path id="&lt;Path&gt;" class="s7" d="m634.5 649.1c0-15.1 12.2-27.3 27.3-27.3 15.1 0 27.4 12.2 27.4 27.3 0 15.1-12.3 27.4-27.4 27.4-15.1 0-27.3-12.3-27.3-27.4z"/>
				<path id="&lt;Path&gt;" class="s1" d="m330.1 459.7h-260.3c-9.9 0-18.1-8.2-18.1-18.1 0-10 8.2-18.1 18.1-18.1h260.3c10 0 18.1 8.1 18.1 18.1 0 9.9-8.1 18.1-18.1 18.1z"/>
				<g id="&lt;Group&gt;">
					<g id="&lt;Group&gt;">
						<path id="&lt;Path&gt;" class="s5" d="m20.6 598.9h-2.4c-4.9 0-9-4-9-9v-62c0-5 4.1-9.1 9-9.1h2.4c5 0 9.1 4.1 9.1 9.1v62c0 5-4.1 9-9.1 9z"/>
					</g>
					<g id="&lt;Group&gt;">
						<path id="&lt;Path&gt;" class="s9" d="m13.2 598.9c-2.2 0-4-1.8-4-4v-72.1c0-2.2 1.8-4 4-4 2.2 0 4 1.8 4 4v72.1c0 2.2-1.8 4-4 4z"/>
					</g>
				</g>
				<path id="&lt;Path&gt;" class="s7" d="m269.6 621.8h-175.1c-1.8 0-3.3-1.5-3.3-3.2 0-1.8 1.5-3.3 3.3-3.3h175.1c1.8 0 3.3 1.5 3.3 3.3 0 1.7-1.5 3.2-3.3 3.2z"/>
				<path id="&lt;Path&gt;" class="s7" d="m269.6 602.2h-137.1c-1.8 0-3.2-1.5-3.2-3.3 0-1.7 1.4-3.2 3.2-3.2h137.1c1.8 0 3.3 1.5 3.3 3.2 0 1.8-1.5 3.3-3.3 3.3z"/>
				<path id="&lt;Path&gt;" class="s7" d="m269.6 582.6h-95.5c-1.8 0-3.2-1.5-3.2-3.3 0-1.7 1.4-3.2 3.2-3.2h95.5c1.8 0 3.3 1.5 3.3 3.2 0 1.8-1.5 3.3-3.3 3.3z"/>
				<path id="&lt;Path&gt;" class="s7" d="m269.6 562.9h-55.5c-1.7 0-3.2-1.4-3.2-3.2 0-1.7 1.5-3.2 3.2-3.2h55.5c1.8 0 3.3 1.5 3.3 3.2 0 1.8-1.5 3.2-3.3 3.2z"/>
			</g>
			<path id="&lt;Path&gt;" class="s10" d="m281.1 359c0 0 55.9 7 84.9 0 0 0 50-119.4 55.3-146.6 5.4-27.2-83.8-33.5-107.9-18.7-24.1 14.8-32.3 165.3-32.3 165.3z"/>
			<g id="&lt;Group&gt;">
				<path id="&lt;Path&gt;" class="s3" d="m382.8 203.6l-10-1.4c-7.6-1-13-8-12-15.6l3.1-22.9c1-7.6 8.1-13 15.7-11.9l10 1.3c7.6 1 13 8.1 11.9 15.7l-3 22.8c-1.1 7.6-8.1 13-15.7 12z"/>
				<path id="&lt;Path&gt;" class="s11" d="m384.6 190.4l-10-1.4c-7.6-1-13-8.1-12-15.7l3.1-22.8c1-7.6 8.1-13 15.7-12l9.9 1.4c7.7 1 13 8.1 12 15.7l-3 22.8c-1.1 7.6-8.1 13-15.7 12z"/>
				<g id="&lt;Group&gt;">
					<g id="&lt;Group&gt;">
						<path id="&lt;Path&gt;" class="s3" d="m394.2 180.4l-25.7-3.5c-25.9-3.5-44.3-27.6-40.8-53.6l5.3-39.8c3.5-26 27.6-44.4 53.6-40.9l25.6 3.4c26 3.5 44.4 27.6 40.9 53.6l-5.4 39.9c-3.4 26-27.6 44.4-53.5 40.9z"/>
						<path id="&lt;Path&gt;" class="s11" d="m452.8 96.2c-0.8-25.4-19.9-47.4-45.9-50.9l-15-2c-28.9-3.9-55.7 16.6-59.6 45.5l-3.9 29.2q-0.6 4.5-0.4 8.9c13 0.7 39-3.1 49.3-42.4 0 0 40.4 15.8 75.5 11.7z"/>
						<path id="&lt;Path&gt;" class="s12" d="m325.2 123.2c0 0 33.3 10 51-42.7 0 0 44.6 17.4 76.4 12.7 0 0 0.4 5.1 0 9.6 0 0 27.1-34.2-11.4-77.3 0 0 2.3 5.6-8.5 7.6l2.9-4.4c0 0-17.6 5.7-29.6 3.1-12.1-2.6-45.4-4.9-54.3 4.6l3.2-8c0 0-4.6 6.6-4.9 7.9-0.4 1.3-0.4 1.3-0.4 1.3 0 0-9.5-5.9-15-6.6 0 0 5.7 6.3 7.9 10 0 0-11.2 4.7-12.4 23.6-1.2 18.9-4.9 58.6-4.9 58.6z"/>
						<path id="&lt;Path&gt;" class="s13" d="m452.6 93.2c0 0 0.4 5.1 0 9.6 0 0 5-8.3 8.6-21.1-15.4 8.2-37.5 2.5-37.5 2.5l5-2.8c-33.6 4.8-54.4-11-54.4-11l-1.4 3.5-1.9-3.8c-4.8 17.4-14 23.2-14 23.2l1.1-10c-9.7 13-23.3 16.5-30.9 17.4-1.1 12.4-2 22.5-2 22.5 0 0 33.3 10 51-42.7 0 0 44.6 17.4 76.4 12.7z"/>
						<path id="&lt;Path&gt;" class="s14" d="m377.9 46.7l-1.3-5.2c5.5-4.6 9.2-9 11.2-11.8q-2.2-0.1-4.4-0.1c-10.6 10.2-22 16.2-31.9 19.6l-2.9-2.4 1.9 2.7c-7.2 2.4-13.6 3.5-18.1 4q-0.8 2-1.4 4.5 3.7-0.2 7.1-0.7l-1.7 4.2 6.1-4.8c6.1-1.1 11.5-2.8 16.3-4.7l-0.3 5.4 2.2-6.2c5.2-2.4 9.7-5.1 13.4-7.8z"/>
					</g>
					<g id="&lt;Group&gt;">
						<path id="&lt;Path&gt;" class="s3" d="m357.6 108.2c1.4 12.4-3.2 23.1-10.4 24-7.2 0.8-14.2-8.6-15.7-21-1.4-12.4 3.2-23.1 10.4-24 7.2-0.8 14.2 8.6 15.7 21z"/>
						<path id="&lt;Path&gt;" class="s15" d="m352.7 108.8c0.9 7.7-2 14.4-6.5 14.9-4.5 0.6-8.9-5.3-9.8-13.1-0.9-7.7 2-14.4 6.5-14.9 4.5-0.6 8.9 5.3 9.8 13.1z"/>
					</g>
				</g>
				<path id="&lt;Path&gt;" class="s16" d="m431.2 150.6l-4-0.6c-3.8-0.5-6.4-3.9-5.9-7.7l6.3-46.8c0.2-1.9 2-3.2 3.8-3l10.8 1.5c1.9 0.3 3.3 2 3 3.9l-6.3 46.8c-0.5 3.7-3.9 6.4-7.7 5.9z"/>
				<path id="&lt;Path&gt;" class="s17" d="m427.9 150.1l2.6 0.4c2.3 0.3 4.6-0.5 6.2-2.1-8.6 0.5-11.1-3.9-11.1-3.9l7-51.8-0.8-0.1c-2.1-0.3-4 1.2-4.3 3.2l-6.1 45.8c-0.6 4.1 2.4 8 6.5 8.5z"/>
				<path id="&lt;Path&gt;" class="s13" d="m416.4 110.6c-0.9 6.8-4.3 12-7.5 11.6-3.2-0.4-5.1-6.3-4.1-13.2 0.9-6.8 4.2-12 7.4-11.6 3.2 0.4 5.1 6.3 4.2 13.2z"/>
				<path id="&lt;Path&gt;" class="s13" d="m451.8 115.6c-0.9 6.7-3.2 11.9-5.1 11.7-1.9-0.3-2.7-5.9-1.8-12.6 0.9-6.7 3.1-11.9 5.1-11.6 1.9 0.2 2.7 5.8 1.8 12.5z"/>
				<path id="&lt;Path&gt;" class="s18" d="m433.4 154.5c0 0-36.5-2.4-44.3-21.4 0 0-15.1 24.7 6.6 36.2 28.9 15.4 37.7-14.8 37.7-14.8z"/>
				<path id="&lt;Path&gt;" class="s16" d="m395 149.9l4.6 12.5c-4.2-11.4-11.3-17.1-14.6-19.2-2.1 8.1-2 19.4 10.7 26.1 6.7 3.6 12.3 4.7 17 4.3-4.4-16.3-17.7-23.7-17.7-23.7z"/>
				<path id="&lt;Path&gt;" class="s6" d="m391 136.6c3.9 8.3 15.3 24.8 41.5 17.9-5.1-0.5-32-3.6-41.5-17.9z"/>
			</g>
			<g id="&lt;Group&gt;">
				<path id="&lt;Compound Path&gt;" fill-rule="evenodd" class="s19" d="m383 570.5c-2.4 0-4.9-0.5-7.2-1.6-8.5-3.9-12.1-14-8.1-22.4 0.3-0.8 30.4-65 41.7-104.6-21-5.7-70-14.3-112.1-20.4-9.2-1.3-15.7-9.9-14.3-19.1 1.3-9.3 9.9-15.7 19.1-14.4 129.5 18.7 136.1 27.9 140.4 34.1 2.9 4.1 4 9.1 3.1 13.9-8 40.7-45.7 121.4-47.3 124.8-2.9 6.1-9 9.7-15.3 9.7zm35.5-125.5z"/>
			</g>
			<path id="&lt;Path&gt;" class="s19" d="m344.7 423.5h-38.5c-18.4 0-33.3-15-33.3-33.3 0-18.3 14.9-33.3 33.3-33.3h38.5c18.3 0 33.3 15 33.3 33.3 0 18.3-15 33.3-33.3 33.3z"/>
			<path id="&lt;Path&gt;" class="s8" d="m552.3 361.4h-36.7c-12.2 0-22.2-9.9-22.2-22.1v-5.3c0-12.2 10-22.2 22.2-22.2h36.7c12.2 0 22.1 10 22.1 22.2v5.3c0 12.2-9.9 22.1-22.1 22.1z"/>
			<g id="&lt;Group&gt;">
				<g id="&lt;Group&gt;">
					<path id="&lt;Path&gt;" class="s5" d="m571.8 308.6h5.3c4.2 0 7.6 3.4 7.6 7.6v40.9c0 4.1-3.4 7.5-7.6 7.5h-5.3c-4.2 0-7.6-3.4-7.6-7.5v-40.9c0-4.2 3.4-7.6 7.6-7.6z"/>
				</g>
				<g id="&lt;Group&gt;">
					<path id="&lt;Path&gt;" class="s20" d="m580 308.6h1.3c1.9 0 3.4 1.5 3.4 3.4v49.3c0 1.8-1.5 3.3-3.4 3.3h-1.3c-1.8 0-3.3-1.5-3.3-3.3v-49.3c0-1.9 1.5-3.4 3.3-3.4z"/>
				</g>
			</g>
			<g id="&lt;Group&gt;">
				<path id="&lt;Path&gt;" class="s1" d="m368.3 546.2c0 0-20.8-28.7-27.8-18.9-6.4 9 27.8 18.9 27.8 18.9z"/>
				<path id="&lt;Path&gt;" class="s21" d="m364.5 541.6l-16 71.9c0 0 62 18.5 105.1-2.8 0 0 9.6-41.9-57.7-31.4l7.9-31.9c0 0-15.3 7.8-39.3-5.8z"/>
				<path id="&lt;Path&gt;" class="s1" d="m346.5 609.7c0 0 58.8 21.5 107.6-1.1l1.6 6.2c0 0-39.1 24.1-109.2 2.5z"/>
			</g>
			<path id="&lt;Path&gt;" class="s7" d="m471.5 73.4c-7.7-40.7-43.1-72.4-87.4-72.7-43.8-0.3-81.9 32-88.7 75.3-6.8 43.3 18.3 83.2 56.7 97.7 14.5-21.3 7.3-91.1 15.8-100.3 6.7-7.1 62.9 1.3 96.5 7.2 4.2 0.7 7.9-3 7.1-7.2z"/>
			<path id="&lt;Path&gt;" class="s8" d="m398.4 63.4c-45.9-5.6-41.5 9.8-62 47.2-10.4 19-26.5 11.1-40-1.3 6.5 29.4 27.5 53.7 55.7 64.4 14.5-21.3 7.3-91.1 15.8-100.3 6.7-7.1 62.9 1.3 96.5 7.2 3.5 0.6 6.5-1.8 7.1-5-14.2-1.8-41.1-8.3-73.1-12.2z"/>
			<path id="&lt;Path&gt;" class="s6" d="m344.1 96.3c0 14.5-7.2 26.3-16.2 26.3-9 0-16.3-11.8-16.3-26.3 0-14.6 7.3-26.4 16.3-26.4 9 0 16.2 11.8 16.2 26.4z"/>
			<path id="&lt;Path&gt;" class="s1" d="m333.7 96.3c0 7.6-3.8 13.8-8.5 13.8-4.7 0-8.6-6.2-8.6-13.8 0-7.7 3.9-13.9 8.6-13.9 4.7 0 8.5 6.2 8.5 13.9z"/>
			<g id="&lt;Group&gt;">
				<path id="&lt;Path&gt;" class="s3" d="m457.6 346.7c-68.5 0-114.4-17.2-136.2-51-27.8-43-5-95-4-97.2 3.1-6.9 11.3-10 18.2-6.9 6.9 3.1 10 11.2 6.9 18.1-0.3 0.7-17.7 41 2 71.2 16.3 25.1 55.4 38.3 113.1 38.3 7.6 0 13.7 6.2 13.7 13.8 0 7.5-6.1 13.7-13.7 13.7z"/>
			</g>
			<path id="&lt;Path&gt;" class="s1" d="m521.6 326.4l-42.1 12.3c-2.3 0.8-4.3 2.2-5.7 4.2-1.6 2.2-2.9 5.3-1.7 8.9q0 0.1 0 0.2c2 6 9 8.6 14.6 5.9l40.1-19.6c0 0 3.3-1.7 2.2-6.8-1.2-5.1-7.4-5.1-7.4-5.1z"/>
			<path id="&lt;Path&gt;" class="s1" d="m381.4 580.9c0 7-2.9 12.7-6.5 12.7-3.7 0-6.6-5.7-6.6-12.7 0-7 2.9-12.6 6.6-12.6 3.6 0 6.5 5.6 6.5 12.6z"/>
			<path id="&lt;Path&gt;" class="s19" d="m307.6 277l34-8.5c0 0-6.1-33.7 7.3-59.8 0 0 4.3-20.8-16.3-24.3-20.6-3.5-25 22.5-25 22.5 0 0-7.5 40.5 0 70.1z"/>
			<path id="&lt;Path&gt;" class="s22" d="m263.2 423.5h-199.9v-163.1h199.9z"/>
			<path id="&lt;Path&gt;" class="s23" d="m169.8 423.5h-13v-165.9h13z"/>
			<path id="&lt;Path&gt;" class="s23" d="m61.5 347.1v-13.1h203v13.1z"/>
			<path id="&lt;Path&gt;" class="s6" d="m125.6 292.5h-51v-23.1h51z"/>
			<path id="&lt;Path&gt;" class="s3" d="m458.4 319.3c0 0 34.4 2.6 37.5 8.6 3.1 5.9 10.2 20.9 9.3 22.5-0.8 1.6-15.8 11.7-20.7 11-3-0.4-4.1-2.5-4.1-2.5 0 0 4-2.5 3.1-8.6-1.3-8.3-8.5-8.9-8.5-8.9 0 0-3.1 3.6-3.3 6.7-0.1 1-21.2-1.5-21.2-1.5z"/>
		</g>
	</g>
</svg>