<svg version="1.2" xmlns="http://www.w3.org/2000/svg" viewBox="0 0 2500 2000" width="2500" height="2000">
	<title>11878958_Online_Shoping_29-ai</title>
	<defs>
		<clipPath clipPathUnits="userSpaceOnUse" id="cp1">
			<path d="m451.35 377.06l-2.38 1196.86 421.38-0.03 4.03-1193.35z"/>
		</clipPath>
		<linearGradient id="g1" x2="1" gradientUnits="userSpaceOnUse" gradientTransform="matrix(-848.368,-160.186,23.184,-122.785,1551.817,995.218)">
			<stop offset="0" stop-color="#ffffff"/>
			<stop offset="1" stop-color="#000000"/>
		</linearGradient>
		<linearGradient id="g2" x2="1" gradientUnits="userSpaceOnUse" gradientTransform="matrix(-701.014,-132.363,18.605,-98.535,1667.176,807.77)">
			<stop offset="0" stop-color="#ffffff"/>
			<stop offset="1" stop-color="#000000"/>
		</linearGradient>
		<linearGradient id="g3" x2="1" gradientUnits="userSpaceOnUse" gradientTransform="matrix(-685.334,-129.402,36.414,-192.852,1117.768,1447.685)">
			<stop offset="0" stop-color="#ffffff"/>
			<stop offset="1" stop-color="#000000"/>
		</linearGradient>
		<clipPath clipPathUnits="userSpaceOnUse" id="cp2">
			<path d="m1750.68 835.91c7.97-13.49 12.08-31.61 16.72-50.6 23.8 3.16 55.26 6.52 89.08 6.13 9.61 0.05 14.67-69.28-62.81-80.02-31.27-4.33-70.25 6.25-86.77 36.96-17.79 33.09-13.32 70.54 2.5 87.27 10.09 10.68 30.44 12.96 41.28 0.26z"/>
		</clipPath>
		<linearGradient id="g4" x2="1" gradientUnits="userSpaceOnUse" gradientTransform="matrix(329.116,-10.215,6.134,197.628,1897.699,1036.495)">
			<stop offset="0" stop-color="#ffffff"/>
			<stop offset="1" stop-color="#000000"/>
		</linearGradient>
	</defs>
	<style>
		.s0 { fill: #5ad2d6 } 
		.s1 { fill: #027273 } 
		.s2 { fill: #013f40 } 
		.s3 { fill: #03c0c2 } 
		.s4 { fill: #0d0d0d } 
		.s5 { fill: #ffffff } 
		.s6 { fill: #e6e6e6 } 
		.s7 { fill: #04f2f5 } 
		.s8 { fill: #ffd84f } 
		.s9 { fill: #03e484 } 
		.s10 { fill: #94f3f7 } 
		.s11 { fill: #f13005 } 
		.s12 { fill: #f1e3e0 } 
		.s13 { fill: #d62b04 } 
		.s14 { fill: #f1c5bc } 
		.s15 { fill: #808080 } 
		.s16 { fill: #636363 } 
		.s17 { fill: none;stroke: #808080;stroke-miterlimit:10;stroke-width: 10 } 
		.s18 { fill: #222222 } 
		.s19 { fill: #ff3305 } 
		.s20 { opacity: .5;mix-blend-mode: screen;fill: url(#g1) } 
		.s21 { opacity: .5;mix-blend-mode: screen;fill: url(#g2) } 
		.s22 { opacity: .5;mix-blend-mode: screen;fill: url(#g3) } 
		.s23 { opacity: .6;mix-blend-mode: soft-light;fill: #222222 } 
		.s24 { fill: #de7f04 } 
		.s25 { fill: #ffa305 } 
		.s26 { fill: #cccccc } 
		.s27 { fill: #737373 } 
		.s28 { fill: #e82728 } 
		.s29 { fill: #b81f20 } 
		.s30 { fill: #32613f } 
		.s31 { fill: #024545 } 
		.s32 { fill: #56a66b } 
		.s33 { fill: #386b45 } 
		.s34 { fill: #417d51 } 
		.s35 { fill: #ffa794 } 
		.s36 { fill: #b3523d } 
		.s37 { fill: #b33a20 } 
		.s38 { fill: #ff6162 } 
		.s39 { opacity: .8;mix-blend-mode: soft-light;fill: #222222 } 
		.s40 { opacity: .5;mix-blend-mode: screen;fill: url(#g4) } 
		.s41 { fill: #fdf280 } 
	</style>
	<g id="_Artboards_">
	</g>
	<g id="illustration">
		<g id="Layer 3">
			<path id="&lt;Path&gt;" class="s0" d="m892.2 1602.5h-443.2c0 0-131.7-7.3-128.7 32.5 3.5 46.9 513.4 16 550.7 45.5 37.3 29.5 56.8 64.2 123.3 81 66.5 16.9 192.5-26 545.7 20.9 213.7-43.9-478.8-179.9-647.8-179.9z"/>
		</g>
		<g id="&lt;Group&gt;">
			<path id="&lt;Path&gt;" class="s1" d="m363.9 380.3c-0.6-80.1 151.4-91.8 149.6-49.7l272.7 0.9c31.5 0.5 57 29 56.9 63.8l-3.6 1161.4c-0.1 34-25.4 61.6-56.6 61.6l-288.9 1.5c-2.8 5.6-8 10.8-16.2 15-80.9-0.6-117.6-32.5-117.9-73.4-3-7.6 0.8-1166 4-1181.1z"/>
			<path id="&lt;Path&gt;" class="s2" d="m395.1 856.9c6.7 0.1 12.2-5.2 12.3-11.8l2.6-303.2c0-6.8-5.4-12.4-12.2-12.5-6.7-0.2-12.3 5.2-12.4 11.9l-2.4 303.2c0 6.7 5.4 12.2 12.1 12.4z"/>
			<g id="&lt;Group&gt;">
				<path id="&lt;Path&gt;" class="s3" d="m482.6 1635l355.4-0.4c32.3 0.1 58.6-28.2 58.7-63.2l4.3-1194.4c0.2-35.8-26.2-65.1-58.9-65.5l-356.5-4.6c-32.9-0.4-59.7 28.4-59.8 64.4l-2.1 1200c0 35.2 26.3 63.7 58.9 63.7z"/>
				<path id="&lt;Path&gt;" class="s4" d="m475.4 1626.6q3.2 0.4 6.5 0.4l355.4-0.9c27.8 0 50.6-24.8 50.7-55.4l4.2-1193.1c0.1-31.3-22.8-57-50.9-57.3l-356.4-5.2q-1.2 0-2.4 0c-13.2 0.5-25.5 6.4-34.6 16.6-9.4 10.4-14.5 24.2-14.6 39l-2.1 1201.3c-0.1 27.6 18.9 51.1 44.2 54.6z"/>
				<path id="&lt;Path&gt;" class="s5" d="m451.7 377.1l-2.4 1196.8h421.4l4.1-1193.4z"/>
				<g id="&lt;Clip Group&gt;" clip-path="url(#cp1)">
					<g id="&lt;Group&gt;">
						<g id="&lt;Group&gt;">
							<path id="&lt;Path&gt;" class="s6" d="m889.8 491.1h-514v1123.2h514z"/>
							<path id="&lt;Path&gt;" class="s7" d="m952.4 1473.6l-833.6-252.9 33-27.5 783.3 203.7z"/>
							<path id="&lt;Path&gt;" class="s5" d="m1054.6 1514.1l-948.6-274.8 5-17.2 948.6 274.8z"/>
							<g id="&lt;Group&gt;">
								<path id="&lt;Compound Path&gt;" fill-rule="evenodd" class="s8" d="m696.1 1035.2c5.9 57.5-51.5 109.6-133.5 119.6-8.9 1.1-18 1.6-27.2 1.6-9.2 0-18.3-0.5-27-1.6-81.4-10-135.2-62.1-125.4-119.6 8.9-52.2 68.3-92 137.5-99 7.3-0.7 14.8-1.1 22.4-1.1q11.5 0 22.4 1.1c68.8 7 125.5 46.8 130.8 99zm-45.9 0c-2.2-35.8-38.7-64-85.2-70.9-7.4-1.1-15.1-1.7-23-1.7-7.9 0-15.6 0.6-23.1 1.7-46.9 6.9-85.4 35.1-90.1 70.9-4.9 38.2 29.8 72.1 81.7 80.9 8.4 1.5 17.1 2.3 26.2 2.3 9 0 17.9-0.8 26.4-2.3 52.5-8.9 89.5-42.7 87.1-80.9z"/>
								<path id="&lt;Path&gt;" class="s8" d="m567.1 797.4l-2.1 166.9c-7.4-1.1-15.1-1.7-23-1.7-7.9 0-15.6 0.6-23.1 1.7l9.3-166.9z"/>
								<path id="&lt;Path&gt;" class="s8" d="m986.6 1052.7h-325.1c1.4-5.7 1.9-11.6 1.5-17.5-0.4-5.9-1.8-11.5-3.9-16.9h315.5z"/>
								<path id="&lt;Path&gt;" class="s8" d="m535.7 1146.1c9.3 0 18.3-0.9 27-2.6l-4.9 430.7h-70.1l21.3-430.7c8.5 1.7 17.5 2.6 26.7 2.6z"/>
							</g>
							<g id="&lt;Group&gt;">
								<path id="&lt;Path&gt;" class="s5" d="m352.5 907.4h-80.8l12-39.7h84.5z"/>
								<path id="&lt;Path&gt;" class="s5" d="m451.5 907.4h-80.8l16.7-39.7h84.5z"/>
								<path id="&lt;Path&gt;" class="s5" d="m508.9 867.7h-21.2l-21.1 39.7h39.4z"/>
								<path id="&lt;Path&gt;" class="s5" d="m335.8 952.8h-76.3l10.7-35.5h79.8z"/>
								<path id="&lt;Path&gt;" class="s5" d="m429.9 951.4q0.2-0.1 0.4-0.2l17.5-33.9h-79.8l-14.9 35.5h74.1c0.9-0.5 1.8-0.9 2.7-1.4z"/>
								<path id="&lt;Path&gt;" class="s5" d="m479.4 935.6c8.2-1.4 16.5-1.6 24.7-1.6l1.2-15.9h-44.4l-14 26.3c10.4-3.8 21.3-6.8 32.5-8.8z"/>
								<path id="&lt;Path&gt;" class="s5" d="m320.4 991.4h-72.6l9.7-32h75.7z"/>
								<path id="&lt;Path&gt;" class="s5" d="m415 959.4h-64.7l-13.4 32h43.4c7.8-12.2 20-23.1 34.7-32z"/>
							</g>
							<path id="&lt;Path&gt;" class="s9" d="m630.1 1035.2c1.6 36.1-39.9 67.1-92.9 67.1-52.9 0-92.3-31-88.2-67.1 3.8-34 45.2-60.1 92.6-60.1 47.4 0 87 26.1 88.5 60.1z"/>
							<path id="&lt;Path&gt;" class="s7" d="m542.9 980c0 0 78.5 9.2 68.6 49.6-10.6 43.5-54.2 43.5-47.5 15.5 6.3-26.8-16.9-32.6-29.2-44.8-12.1-11.9-12.4-19.8 8.1-20.3z"/>
							<path id="&lt;Path&gt;" class="s9" d="m580.6 856.1l0.1 68.9c0 0 107.3 20.8 124 84.8 94.6 0 228.5 0 228.5 0l-58.4-152.5z"/>
							<g id="&lt;Group&gt;">
								<path id="&lt;Path&gt;" class="s5" d="m828.8 1131.3h-100.4l-12.9-60.5h91z"/>
								<path id="&lt;Path&gt;" class="s5" d="m953.6 1131.3h-100.4l-24.7-60.5h91z"/>
								<path id="&lt;Path&gt;" class="s5" d="m863.4 1224.9h-115l-16.7-78.3h102.7z"/>
								<path id="&lt;Path&gt;" class="s5" d="m1006.2 1224.9h-115l-31.8-78.3h102.7z"/>
								<path id="&lt;Path&gt;" class="s5" d="m905.3 1354.6l-34-108.2h-118.4l10.9 73.5z"/>
								<path id="&lt;Path&gt;" class="s5" d="m659.6 1146.6c-14.9 14.4-33 27.7-54.4 35.4l1.6 42.9h114.3l-13.8-78.3z"/>
								<path id="&lt;Path&gt;" class="s5" d="m971.1 1310.1q47.5 11.4 96.1 23.2l-48.9-86.9h-118.3l21 51.7q24.9 5.9 50.1 12z"/>
							</g>
							<path id="&lt;Path&gt;" class="s5" d="m242.5 1068.4c13.9 1.2 28 2.1 42.3 2.9 0.5-4.5 1.1-9 1.5-13.4 1.1-11.4 1.6-22.6 1.3-33.5 0-1.3-0.1-2.6-0.2-3.8h-48.2l-14.5 46.1c5.9 0.6 11.8 1.2 17.8 1.7z"/>
							<path id="&lt;Path&gt;" class="s5" d="m230.1 1083.6q-5.2-0.5-10.4-1.1l-12.8 40.6 66.6 15.7c3.3-17.7 6.5-34.9 9.1-51.6-17.7-0.9-35.3-1.9-52.5-3.6z"/>
							<path id="&lt;Path&gt;" class="s5" d="m306.5 1072.5c19.9 0.9 39.9 1.7 59.9 2.6-7.9-31 1.7-54.5 1.7-54.5h-59.3q0.1 1.3 0.1 2.6c0.6 15.9-0.5 32.3-2.4 49.3z"/>
							<path id="&lt;Path&gt;" class="s5" d="m372.2 1091.7q-33.9-1.6-67.7-3.4c-2.4 18-5.6 36.6-8.7 55.8l119.7 28.1c0 0 4-7.5 3.2-25.6-24.6-18-38.7-37.2-46.5-54.9z"/>
							<path id="&lt;Path&gt;" class="s9" d="m136.1 1264.7c6.1 0.1 335.5 99 335.5 99l-9.3 128.5h-399.3z"/>
							<path id="&lt;Path&gt;" class="s10" d="m888.8 860.9h-509.8v-367.8h509.8z"/>
						</g>
						<path id="&lt;Path&gt;" class="s5" d="m611.3 1245l111 3.7 5.9 69.4-117.6-33.7z"/>
						<path id="&lt;Path&gt;" class="s5" d="m290 1158.8l120.5 28.7-14.6 54.8-120.5-36.5z"/>
						<path id="&lt;Path&gt;" class="s5" d="m269 1151.9l-18.2 49.3-39.3-13.7 16.5-46.5z"/>
						<path id="&lt;Path&gt;" class="s5" d="m436.1 1158.8l-17.4 88.1 67.6 16.4 9.1-87.6z"/>
					</g>
				</g>
			</g>
			<g id="&lt;Group&gt;">
				<g id="&lt;Group&gt;">
					<path id="&lt;Path&gt;" class="s11" d="m747.6 566.5l-47.6-0.4-152.9-188.3 47.8 0.4z"/>
					<path id="&lt;Path&gt;" class="s12" d="m700 566.1l-47.6-0.4-153.1-188.2 47.8 0.3z"/>
					<path id="&lt;Path&gt;" class="s11" d="m652.4 565.7l-47.5-0.4-153.3-188.2 47.7 0.4z"/>
					<path id="&lt;Path&gt;" class="s12" d="m795.1 566.9l-47.5-0.4-152.7-188.3 47.7 0.4z"/>
					<path id="&lt;Path&gt;" class="s12" d="m890.2 567.7l-47.5-0.4-152.3-188.3 47.8 0.4z"/>
					<path id="&lt;Path&gt;" class="s11" d="m1028.2 568.8l-42.9-0.4-151.6-188.2 43 0.4z"/>
					<path id="&lt;Path&gt;" class="s12" d="m985.3 568.4l-47.5-0.3-151.9-188.3 47.8 0.4z"/>
					<path id="&lt;Path&gt;" class="s11" d="m842.7 567.3l-47.6-0.4-152.5-188.3 47.8 0.4z"/>
					<path id="&lt;Path&gt;" class="s11" d="m937.8 568.1l-47.6-0.4-152-188.3 47.7 0.4z"/>
				</g>
				<path id="&lt;Path&gt;" class="s13" d="m652.4 565.7l0.1 28.7c0 30.4-47.5 30-47.6-0.4v-28.7z"/>
				<path id="&lt;Path&gt;" class="s14" d="m700 566.1v28.7c0 30.3-47.5 30-47.5-0.4l-0.1-28.7z"/>
				<path id="&lt;Path&gt;" class="s13" d="m747.6 566.5l-0.1 28.7c0 30.3-47.5 29.9-47.5-0.4v-28.7z"/>
				<path id="&lt;Path&gt;" class="s14" d="m795.1 566.9l-0.1 28.6c-0.1 30.4-47.5 30-47.5-0.3l0.1-28.7z"/>
				<path id="&lt;Path&gt;" class="s13" d="m842.7 567.3l-0.1 28.6c-0.2 30.4-47.7 30-47.6-0.4l0.1-28.6z"/>
				<path id="&lt;Path&gt;" class="s14" d="m890.2 567.7l-0.1 28.6c-0.2 30.4-47.7 30-47.5-0.4l0.1-28.6z"/>
				<path id="&lt;Path&gt;" class="s13" d="m937.8 568.1l-0.2 28.6c-0.2 30.4-47.7 30-47.5-0.4l0.1-28.6z"/>
				<path id="&lt;Path&gt;" class="s14" d="m985.3 568.4l-0.2 28.7c-0.2 30.4-47.7 30-47.5-0.4l0.2-28.6z"/>
				<path id="&lt;Path&gt;" class="s13" d="m1028.2 568.8l-0.2 28.6c-0.3 30.4-43.1 30.1-42.9-0.3l0.2-28.7z"/>
				<path id="&lt;Path&gt;" class="s11" d="m604.9 565.3l3.7 0.6-157.2-1.4 0.2-187.4z"/>
			</g>
			<path id="&lt;Path&gt;" class="s15" d="m589.6 1326.2c-22.2-22.1 12.8-75.3 64.5-125.4 20.8-20.2 44.4-39.9 68-56.9q1.2-0.6 2-1.5 0.5-0.3 1.1-0.7 0-0.4-0.1-0.8 0.1-0.6 0.1-1.2l-14.2-73.9 109.7-1.1c1.6 0 3.2-0.8 4.1-2.1 0.9-1.4 1-3.1 0.4-4.6l-19.8-48.8c-0.8-1.8-2.5-3-4.5-3h-100c-2.4-5.8-8.5-18.4-20.5-32-14.8-16.7-42-38.2-87-45.5-10.1-0.4-9.6 8.6-1.6 9.6 33.7 5.5 61 19.6 81 42 14.9 16.7 20 32.1 20.1 32.3 0.6 2 2.5 3.4 4.6 3.4h100.1l15.9 39h-109.6c-7 0.1-9.1 4.9-8.9 10.9l7.6 67.8c-69.5 38.9-147.5 90.1-183 121.6-48.2 42.5-47.6 117.1 11 171.9 133.5 124.8 349.8 208.9 576.1 264.9 453.9 112.3 755.2 132.5 785.3 135.3 102.7 8.4 235.9-7.2 223.7-123.1-12.3-115.9 181.9-108.1 202.8-113.3-230.3-9.2-1535.8-72.4-1728.9-264.8z"/>
			<path id="&lt;Path&gt;" class="s16" d="m2318.5 1591c-65.5-1.6-192.8 3.9-207.4 91-1.5 10.2-0.3 20.5 0.4 30.8 1.4 23-4.6 46.8-19.9 64.4-47.7 49.7-125.1 48.7-189.3 46.4-193.2-14.9-385.1-46.2-574.9-85.1-211.1-44.8-425.6-91.9-618.6-191.8-69.2-36.9-137.9-79.3-191.8-136.8-38.5-43.5-43.3-114.5 2.6-154.6-26.9 22.2-40.3 58.4-34.9 92.7 11.7 77.8 102.1 128.1 162.1 169.1 137.1 83.3 290.9 134.7 445.5 174.7 265.9 66.1 536 118.5 809.4 140.9 73.9 3.5 184.7 1.8 214.6-80.7 8.4-22.4 2.4-45.8 4.4-68.7 11.9-77.8 140.6-85.5 197.8-86.1z"/>
			<path id="&lt;Path&gt;" class="s17" d=""/>
			<g id="&lt;Group&gt;">
				<path id="&lt;Path&gt;" class="s5" d="m717 1483.6c56.8 25.2 122.9 48 194.8 68.5 3.9-5.9 10.7-17 12.7-19.7-69.7-17.4-133.9-36.9-189.4-58.8q-9 5-18.1 10z"/>
				<path id="&lt;Path&gt;" class="s5" d="m541.1 1330.4c-1.4 0.2-7.2 2-9.6 2.9 3 13.7 11.4 29.2 21.6 41.7q2.4 2.8 4.9 5.5 5.2-3.6 10.4-7.3c-10.9-11.8-21.6-26.9-27.3-42.8z"/>
				<path id="&lt;Path&gt;" class="s5" d="m625 1201.4c8.4-6.5 17.2-13.2 26.6-20.4q-1.6-0.6-3.3-1.1c-9.2 6.1-18.9 12.6-28.5 19.4q2.6 1.1 5.2 2.1z"/>
				<path id="&lt;Path&gt;" class="s5" d="m608.3 1212c-11.8 8.4-23.5 17.3-34.2 26.4 2.4 1.5 4.9 2.8 7.3 4 10.5-10.3 21.1-19.2 32.5-28.2q-2.8-1.1-5.6-2.2z"/>
				<path id="&lt;Path&gt;" class="s5" d="m568.4 1257.7c-2.8-1.5-5.6-3.2-8.1-5.1-22 20.9-32.9 39.8-30.9 63.3 2.9 0 8.8-0.3 11.7-0.8-0.5-25.5 15.7-44.7 27.3-57.4z"/>
				<path id="&lt;Path&gt;" class="s5" d="m587.5 1408.2c21.2 17.2 46.5 33.5 75.3 49q7.8-4.2 15.6-8.4c-31-15-57.9-31.1-80-48.2q-5.4 3.8-10.9 7.6z"/>
				<path id="&lt;Path&gt;" class="s5" d="m1029.2 1556.3q-12 10.3-24.1 20.6c88.7 21.8 183.1 40.7 277.4 57.2 8.9-5.8 30.1-23.9 36.7-28.6-98.4-13.6-197.2-29.8-290-49.2z"/>
				<path id="&lt;Path&gt;" class="s5" d="m1948.7 1668.1c-92.2-6.4-299.3-24.2-424.4-37.6q-23.4 17.2-46.9 34.4c117.7 17 319.7 38.6 411.9 49.1 19.7-15.5 39.5-30.7 59.4-45.9z"/>
			</g>
			<path id="&lt;Path&gt;" class="s18" d="m629.8 930.7c0 6.4-16.1 11.5-35.9 11.5-19.9 0-35.9-5.1-35.9-11.5 0-6.3 16-11.5 35.9-11.5 19.8 0 35.9 5.2 35.9 11.5z"/>
			<path id="&lt;Path&gt;" class="s5" d="m606.8 929.7c0 2.6-6.4 4.6-14.2 4.6-7.9 0-14.2-2-14.2-4.6 0-2.5 6.3-4.5 14.2-4.5 7.8 0 14.2 2 14.2 4.5z"/>
			<g id="&lt;Group&gt;">
				<path id="&lt;Compound Path&gt;" fill-rule="evenodd" class="s19" d="m666.7 796.7c0 40.9-74.1 115.8-74.1 115.8 0 0-74.1-74.9-74.1-115.8 0-40.9 33.2-74.1 74.1-74.1 40.9 0 74.1 33.2 74.1 74.1zm-32.3-0.1c0-23.1-18.7-41.8-41.8-41.8-23.1 0-41.8 18.7-41.8 41.8 0 23 18.7 41.8 41.8 41.8 23.1 0 41.8-18.8 41.8-41.8z"/>
			</g>
			<g id="&lt;Group&gt;">
				<path id="&lt;Path&gt;" class="s5" d="m1152.8 633.1q0-1 0-2c0-14-11.3-25.4-25.4-25.4-14 0-25.4 11.4-25.4 25.4q0 1 0.1 2z"/>
				<path id="&lt;Path&gt;" class="s5" d="m1236.2 633.1q0.1-1 0.1-2c0-14-11.4-25.4-25.4-25.4-14 0-25.4 11.4-25.4 25.4q0 1 0.1 2z"/>
				<path id="&lt;Path&gt;" class="s5" d="m1257.8 633.1q0.1-1 0.1-2c0-9.9-8-18-17.9-18-10 0-18 8.1-18 18q0 1 0.1 2z"/>
				<path id="&lt;Path&gt;" class="s5" d="m1207 633.1q0.3-2.3 0.3-4.7c0-20.6-16.7-37.2-37.2-37.2-20.6 0-37.2 16.6-37.2 37.2q0 2.4 0.3 4.7z"/>
			</g>
			<g id="&lt;Group&gt;">
				<path id="&lt;Path&gt;" class="s5" d="m1433 540.2q0.1-1.6 0.2-3.3c0-22.8-18.6-41.4-41.5-41.4-22.9 0-41.4 18.6-41.4 41.4q0 1.7 0.1 3.3z"/>
				<path id="&lt;Path&gt;" class="s5" d="m1569.1 540.2q0.2-1.6 0.2-3.3c0-22.8-18.6-41.4-41.5-41.4-22.8 0-41.4 18.6-41.4 41.4q0 1.7 0.1 3.3z"/>
				<path id="&lt;Path&gt;" class="s5" d="m1604.4 540.2q0.2-1.6 0.2-3.3c0-16.1-13.2-29.3-29.3-29.3-16.2 0-29.3 13.2-29.3 29.3q0 1.7 0.1 3.3z"/>
				<path id="&lt;Path&gt;" class="s5" d="m1521.5 540.2q0.5-3.8 0.5-7.7c0-33.6-27.2-60.7-60.7-60.7-33.6 0-60.7 27.1-60.7 60.7q0 3.9 0.5 7.7z"/>
			</g>
			<g id="&lt;Group&gt;">
				<path id="&lt;Path&gt;" class="s5" d="m263.9 1376q-0.1-1-0.1-1.9c0-13.8 11.2-24.9 24.9-24.9 13.8 0 24.9 11.1 24.9 24.9q0 0.9-0.1 1.9z"/>
				<path id="&lt;Path&gt;" class="s5" d="m182.1 1376q-0.1-1-0.1-1.9c0-13.8 11.2-24.9 24.9-24.9 13.8 0 24.9 11.1 24.9 24.9q0 0.9-0.1 1.9z"/>
				<path id="&lt;Path&gt;" class="s5" d="m210.7 1376q-0.2-2.3-0.2-4.6c0-20.2 16.3-36.5 36.4-36.5 20.2 0 36.5 16.3 36.5 36.5q0 2.3-0.3 4.6z"/>
			</g>
			<g id="&lt;Group&gt;">
				<path id="&lt;Path&gt;" class="s20" d="m1605 871c-199.9-7.9-410.1-31.3-625.7-62.8l-8.6 15c216.1 63.5 390.2 101.5 552.3 116.2 10.8-14.4 58.5-58.8 82-68.4z"/>
				<path id="&lt;Path&gt;" class="s21" d="m1711.3 724.3c-200-7.8-328.2-11.7-526.1-34.1l-5.2 9.2c220.4 38.5 331.7 47.7 493.8 62.4 2.7-11.3 19.8-31.1 37.5-37.5z"/>
				<path id="&lt;Path&gt;" class="s22" d="m1161.4 1305.4c-179.6-12.6-351-43.2-483.9-135.6l-5.3 9.1c133.6 119 265.4 192 445.3 217.3 2.7-11.3 25.8-65.2 43.9-90.8z"/>
				<g id="&lt;Group&gt;">
					<g id="&lt;Group&gt;">
						<path id="&lt;Path&gt;" class="s23" d="m1186.3 1523.3l714.6 73c88.9 16.2 16.4 98.1-154.2 86.6 0 0-417.1-50.6-634-84.1-78.4-12.1-58.2-92.1 73.6-75.5z"/>
						<g id="&lt;Group&gt;">
							<g id="&lt;Group&gt;">
								<g id="&lt;Group&gt;">
									<g id="&lt;Group&gt;">
										<g id="&lt;Group&gt;">
											<g id="&lt;Group&gt;">
												<path id="&lt;Path&gt;" class="s24" d="m1328.8 1194.5l-231.8-20.5 3.9-241.8 231.9 20.5z"/>
												<path id="&lt;Path&gt;" class="s24" d="m1092.3 923.1l-0.8 50.8 247.8 21.9 0.9-53.2z"/>
											</g>
										</g>
										<g id="&lt;Group&gt;">
											<g id="&lt;Group&gt;">
												<path id="&lt;Path&gt;" class="s25" d="m1211.5 1186l-192.1-17 4-241.8 192.1 17z"/>
												<path id="&lt;Path&gt;" class="s25" d="m1016.3 917.2l-0.8 51.9 205.3 18.2 0.8-54z"/>
											</g>
										</g>
										<path id="&lt;Path&gt;" class="s24" d="m1263.2 992.2l-240.6-21.4 0.2-2.3 240.6 21.3z"/>
										<path id="&lt;Path&gt;" class="s5" d="m1061 1172.7l-14.4-1.3 4.2-251.6 14.4 1.3z"/>
									</g>
									<path id="&lt;Path&gt;" class="s5" d="m1181.4 1183.5l-14.4-1.3 4.2-252.7 14.4 1.3z"/>
								</g>
								<g id="&lt;Group&gt;">
									<path id="&lt;Path&gt;" class="s18" d="m1399.8 1471c-5.3 57.5-53.8 101.4-108.2 98-54.4-3.4-94.2-52.8-88.8-110.4 5.3-57.5 53.8-101.4 108.2-98 54.4 3.4 94.2 52.8 88.8 110.4z"/>
									<path id="&lt;Path&gt;" class="s18" d="m1424.8 1472.5c-5.6 60.3-54 106.3-117.4 102.3-63.3-3.9-110.2-56.1-104.6-116.4 5.6-60.3 61.5-106 124.9-102 63.4 3.9 102.7 55.8 97.1 116.1z"/>
									<path id="&lt;Path&gt;" class="s26" d="m1371 1469.1c-3.8 40.7-38.1 71.8-76.5 69.4-38.5-2.4-66.6-37.4-62.9-78.1 3.8-40.7 38.1-71.7 76.5-69.3 38.5 2.4 66.6 37.3 62.9 78z"/>
									<path id="&lt;Path&gt;" class="s27" d="m1331 1466.4c-1.7 19-17.7 33.5-35.6 32.4-18-1.2-31.1-17.5-29.3-36.4 1.7-19 17.7-33.5 35.7-32.4 17.9 1.2 31 17.5 29.2 36.4z"/>
								</g>
								<path id="&lt;Path&gt;" class="s28" d="m1582.7 1445.8c-17.8 1.6-213-1.1 0.2-218.4-241.7-22-358.1-67.8-456.4 213.6l436.9 36.1c20.8 1.3 25.1-23.7 19.3-31.3z"/>
								<path id="&lt;Path&gt;" class="s18" d="m1617.9 1229.4l-238.4-19.4c-25.7-2.2-21.1-57 4.7-54.9l238.4 19.5c30.7 2.6 26.1 57.4-4.7 54.8z"/>
								<path id="&lt;Path&gt;" class="s18" d="m1332.4 1214.1l-204.5-16.1c-5.7-0.5-9.9-5.5-9.5-11.2 0.5-5.7 5.6-9.9 11.3-9.5l204.4 16.2c5.8 0.4 10 5.4 9.5 11.1-0.5 5.7-5.5 10-11.2 9.5z"/>
								<path id="&lt;Path&gt;" class="s18" d="m1218.1 1289.6l-74.8-96.9 8.9-6.8 74.7 96.8z"/>
								<path id="&lt;Path&gt;" class="s29" d="m1540 1225.6c0 0-204.2 213.7 0.1 223.9 40.5 1.1 42.6-3.7 42.6-3.7-58.5-10.1-114-32.3-66.5-108 39.2-62.7 105.4-108.9 105.4-108.9z"/>
								<g id="&lt;Group&gt;">
									<g id="&lt;Group&gt;">
										<path id="&lt;Path&gt;" class="s29" d="m1426.2 1465.4c3.2-6.7 6-13.7 8.4-20.8 26.1-78.5-13.7-138.2-85.3-153.1-161.5-33.6-208.3 143.3-209.6 150.2z"/>
										<path id="&lt;Path&gt;" class="s28" d="m1388.7 1462.3c3.2-6.8 6-13.7 8.4-20.8 26.1-78.5-12.1-147.1-85.3-153.1-73.2-6.1-153.7 52.7-179.8 131.2q-3.5 10.7-5.5 21z"/>
									</g>
									<g id="&lt;Group&gt;">
										<path id="&lt;Path&gt;" class="s18" d="m1330.7 1361.5l-94.9-5.8c-1.8-0.1-3.2-1.7-3-3.5v-0.4c0.2-1.8 1.8-3.2 3.7-3.1l94.8 5.8c1.9 0.1 3.2 1.7 3.1 3.5l-0.1 0.4c-0.1 1.8-1.8 3.2-3.6 3.1z"/>
										<path id="&lt;Path&gt;" class="s18" d="m1329.2 1377.3l-94.8-5.8c-1.9-0.1-3.2-1.7-3.1-3.5l0.1-0.3c0.1-1.9 1.8-3.3 3.6-3.1l94.9 5.7c1.8 0.2 3.2 1.8 3 3.6v0.3c-0.2 1.8-1.8 3.2-3.7 3.1z"/>
										<path id="&lt;Path&gt;" class="s18" d="m1327.8 1393.2l-94.9-5.8c-1.8-0.1-3.2-1.7-3-3.6v-0.3c0.2-1.8 1.8-3.2 3.7-3.1l94.8 5.8c1.9 0.1 3.2 1.7 3.1 3.5l-0.1 0.3c-0.1 1.9-1.8 3.3-3.6 3.2z"/>
										<path id="&lt;Path&gt;" class="s18" d="m1326.3 1409l-94.8-5.8c-1.8-0.1-3.2-1.7-3.1-3.5l0.1-0.3c0.1-1.9 1.8-3.3 3.6-3.2l94.9 5.8c1.8 0.2 3.2 1.7 3 3.6v0.3c-0.2 1.8-1.8 3.2-3.7 3.1z"/>
									</g>
								</g>
								<g id="&lt;Group&gt;">
									<path id="&lt;Path&gt;" class="s30" d="m1674.4 913.1c0 0-28.6 101.2-17.1 140.2 23.5 39.3 201 35.5 201 35.5l13.1-28.8-117.3-35.4 11.9-71.1c11.8-63.9-60.5-85.8-91.6-40.4z"/>
									<g id="&lt;Group&gt;">
										<path id="&lt;Path&gt;" class="s31" d="m1556.5 1443.8l72.3 6.1c19.1-25.4 148.8-199.6 152.2-240.1 2.8-33.9-10.4-67-95-102.5-56.7-23.9-122.1-12.1-122.1-12.1 0 0-47.9 50.3-8.1 80.2 39.7 29.8 115.3 47.4 115.3 47.4z"/>
										<path id="&lt;Path&gt;" class="s18" d="m1556.2 1444.4l146.4 11.3c0 0 44.5-18 13.6-56.4-24.1-22.7-72.7-11.3-90.9 13.6l-50.3-3.1z"/>
									</g>
									<g id="&lt;Group&gt;">
										<path id="&lt;Path&gt;" class="s1" d="m1475.9 1438.8l72.3 6.1c19.1-25.4 148.8-199.7 152.2-240.1 2.8-33.9-10.4-67-95-102.6-56.7-23.8-97-17.8-116.8-13.2-19.8 4.6-53.2 51.5-13.4 81.3 39.7 29.9 115.3 47.5 115.3 47.5z"/>
										<path id="&lt;Path&gt;" class="s18" d="m1475.6 1439.3l146.4 11.4c0 0 44.5-18 13.6-56.5-24.1-22.6-72.7-11.2-90.9 13.7l-50.3-3.2c-24.6 12-19.7 23.3-18.8 34.6z"/>
									</g>
									<path id="&lt;Path&gt;" class="s32" d="m1672.6 1107.7c35.9-14.8 59.8-91.9 83.1-139.5 41.5-85.1-90-145.8-160.3-70.8-64.8 65.4-133.1 127.9-124.6 203.3 61.2 29.8 174.4 21 201.8 7z"/>
									<path id="&lt;Path&gt;" class="s33" d="m1646.3 1116.5l-1.1-2.1c12.3-6.9 16.9-21.8 22.3-39.1 5.1-16.2 10.8-34.4 24.2-48.8 34.5-49 44.5-84.1 46.8-104.9 2.4-22.6-3.3-33.7-3.4-33.8l2.1-1.1c0.3 0.5 6.1 11.7 3.7 34.8-2.3 21.2-12.4 56.8-47.4 106.4l-0.1 0.1c-13 14-18.6 32.1-23.6 48-5.6 17.8-10.4 33.1-23.5 40.5z"/>
									<path id="&lt;Path&gt;" class="s34" d="m1596.9 905.2c0 0-98.4 95.2-68.1 148.2 24.4 42.6 175.9 51.6 186.1 40.1l13-28.8c-11-26-67.2-36.5-111.6-46.7l50.6-46.3c44.1-42.8-14.6-115.4-70-66.5z"/>
									<path id="&lt;Path&gt;" class="s34" d="m1742.1 914.6c0 0 8.4 5.1 7.2 17.5 17.3-13.8 0.1-59.3-43.7-75.2-41.6-15 36.5 57.7 36.5 57.7z"/>
									<g id="&lt;Group&gt;">
										<path id="&lt;Path&gt;" class="s35" d="m1693.2 865.9c-12.7 13.6 48.9 48.7 48.9 48.7l43.4-58.5-50.4-32.9z"/>
										<path id="&lt;Path&gt;" class="s35" d="m1718.9 805.8c0 0 13.5 88.7 86.5 81.2 32.6-3.4 47-51.8 46.8-80.1-0.5-62.3-54.6-93-87.2-79.2-54.1 22.9-46.4 69.7-46.1 78.1z"/>
										<path id="&lt;Path&gt;" class="s18" d="m1729.4 839.5c0 0 14 40.2 49.7 47.6 14.4 2 18.1 0.4 18.1 0.4-6-0.2-45.4-12.3-51.7-56.3-2.2-8.5-19-2.1-16.1 8.3z"/>
										<path id="&lt;Path&gt;" class="s28" d="m1750.7 835.9c8-13.5 12.1-31.6 16.7-50.6 23.8 3.2 55.3 6.5 89.1 6.1 9.6 0.1 14.6-69.2-62.8-80-31.3-4.3-70.3 6.3-86.8 37-17.8 33.1-13.3 70.5 2.5 87.3 10.1 10.6 30.4 12.9 41.3 0.2z"/>
										<g id="&lt;Clip Group&gt;" clip-path="url(#cp2)">
											<path id="&lt;Path&gt;" class="s5" d="m1834.8 790.7l-4.3 0.9c7.4-28.1-10.1-49.6-21.6-58.9-19.6-15.9-47.5-23.6-61-16.8l-1.7-3.4c14.9-7.5 44.1 0.2 65.1 17.2 12.2 9.9 31.4 30.9 23.5 61z"/>
											<path id="&lt;Path&gt;" class="s5" d="m1842.6 793.3l-3.7-1.1c5.9-20 0.9-39.9-14-55.9-17.1-18.3-43.4-27.3-65.5-22.4l-0.8-3.8c23.4-5.1 51.1 4.3 69.1 23.6 15.9 17 21.2 38.2 14.9 59.6z"/>
										</g>
										<path id="&lt;Path&gt;" class="s36" d="m1816.8 833.3c-3.4 0-6.1-0.5-6.3-0.6-0.7-0.1-1.1-0.8-1-1.5 0.2-0.6 0.8-1.1 1.5-1 0.1 0.1 9.8 1.9 14.7-1.9 0.4-0.3 0.6-0.8 0.6-1.4 0.3-4.4-7.9-13.4-11.1-16.6-0.5-0.5-0.5-1.3 0-1.8 0.4-0.5 1.3-0.5 1.8 0 1.2 1.2 12.2 12.2 11.9 18.6-0.1 1.3-0.7 2.4-1.6 3.2-3 2.3-7.1 2.9-10.5 3z"/>
										<path id="&lt;Path&gt;" class="s18" d="m1786.7 804.9c-0.3 3.5-2.6 6.2-5.2 6.1-2.6-0.2-4.5-3.2-4.1-6.6 0.3-3.5 2.6-6.2 5.2-6.1 2.6 0.2 4.5 3.2 4.1 6.6z"/>
										<path id="&lt;Path&gt;" class="s18" d="m1842.2 809.3c-0.2 2.9-2.3 5.3-4.5 5.1-2.2-0.1-3.8-2.7-3.5-5.6 0.3-3 2.3-5.3 4.5-5.2 2.2 0.2 3.8 2.7 3.5 5.7z"/>
										<path id="&lt;Path&gt;" class="s37" d="m1781.2 838.3c0 0 14.2 17.4 46.5 15.2 0 0-18.3 24.9-40 14.6-21.7-10.3-6.5-29.8-6.5-29.8z"/>
										<path id="&lt;Path&gt;" class="s18" d="m1767.4 785.3c35.8 3.7 70.2 7 90.9 5.7 0 0 23.7 7.3 17.4 12.1-6.3 4.9-108.3-17.8-108.3-17.8z"/>
									</g>
									<path id="&lt;Path&gt;" class="s34" d="m1705.6 856.9c0 0-13.3-6.2-19.7 7.1 1.7 33.3 27 64.8 40.1 67.9 2.1-5.4 6.6-12 16.1-17.3 0 0-36.5-30.2-36.5-57.7z"/>
								</g>
								<g id="&lt;Group&gt;">
									<g id="&lt;Group&gt;">
										<path id="&lt;Path&gt;" class="s18" d="m1955.8 1525.6c-5.1 54-50.5 95.2-101.6 92-51.1-3.2-88.5-49.6-83.4-103.6 5-54.1 50.4-95.3 101.5-92.1 51.1 3.2 88.5 49.6 83.5 103.7z"/>
										<path id="&lt;Path&gt;" class="s18" d="m1979.2 1527c-5.2 56.7-50.7 99.8-110.2 96.1-59.5-3.8-103.5-52.7-98.2-109.3 5.3-56.7 57.7-99.6 117.2-95.8 59.5 3.7 96.5 52.4 91.2 109z"/>
										<path id="&lt;Path&gt;" class="s26" d="m1928.7 1523.9c-3.6 38.2-35.7 67.3-71.9 65.1-36.1-2.3-62.5-35.1-59-73.3 3.6-38.2 35.7-67.4 71.9-65.1 36.1 2.2 62.5 35 59 73.3z"/>
										<path id="&lt;Path&gt;" class="s27" d="m1891.2 1521.3c-1.7 17.8-16.7 31.4-33.5 30.4-16.9-1.1-29.2-16.4-27.5-34.2 1.6-17.8 16.6-31.4 33.5-30.4 16.8 1.1 29.1 16.4 27.5 34.2z"/>
									</g>
									<path id="&lt;Path&gt;" class="s28" d="m1910.9 1441.1c-18.7 23.6-44 41.2-73.3 48.6q-2.7 0.6-5.4 1.2-4.3 0.9-8.7 1.4c-6.6 0.9-13.2 1.3-19.9 1.1q-3.7-0.1-7.5-0.4l-1.9-0.2-115.8-9.5q0 0 0 0l-110.4-7.7c-51.9-3.2-45.8-23 3.8-29.9 154.7 0.6 223.9-163.7 184.8-250-13.4-31.6 22-55.8 55.9-61 4.4-0.7 8.8-1 13.1-1q4.4 0 8.6 0.5 1.3 0.2 2.6 0.4 6.5 0.8 12.5 2.7c12.2 3.9 22.8 11.1 29.9 22.4l52.3 118.3c25.4 57.5 13.3 120.2-20.6 163.1z"/>
									<path id="&lt;Path&gt;" class="s5" d="m1901 1375.5q-0.6 4.4-1.5 8.6l14.3 0.6q0.6-2.8 1-5.5c6.4-42.8-5.4-77.7-5.9-79.2l-59.6-159.7c-4-1.2-13.7-2.5-16.6-2.5l63.4 168.1c0.6 1.9 10.5 32.6 4.9 69.6z"/>
									<g id="&lt;Group&gt;">
										<path id="&lt;Path&gt;" class="s38" d="m1903 1033.9q-2.3-0.2-4.7-0.1-4 0.3-7.9 1.8c-19.3 7.1-35.5 35.1-37.7 67.5-1.6 22 3.7 41.2 13.1 52.6 3 3.6 6.4 6.5 10.1 8.4l-25.2-8.8-2.1-0.7c-17.3-6.8-28.8-30.9-26.9-60.3 2.3-34.3 21.9-63.4 44.5-66.6q6.1 0.2 12.7 1c7.6 1 15.7 2.7 24.1 5.2z"/>
										<path id="&lt;Path&gt;" class="s28" d="m1848.6 1154.6l-74.1-25.8c0 0-25.9-11.7-11.1-47 0 0 33.4-56.4 102.8-54.1-22.6 3.2-42.2 32.3-44.5 66.6-1.9 29.4 9.6 53.5 26.9 60.3z"/>
										<path id="&lt;Path&gt;" class="s28" d="m1903 1033.9c-0.6 3.1-1.6 8.3-2.8 14.9-4.9 25.7-13.6 72.7-18.3 98.3-2 10.9-3.3 17.9-3.3 17.9l-2.7-0.9c-3.7-1.9-7.1-4.8-10.1-8.4-9.4-11.4-14.7-30.6-13.1-52.6 2.2-32.4 18.4-60.4 37.7-67.5q3.9-1.5 7.9-1.8 2.4-0.1 4.7 0.1z"/>
										<path id="&lt;Path&gt;" class="s38" d="m1934.7 1097.6c-2.6 36.7-23 67.7-45.7 69.2-4.6 0.3-9.1-0.6-13.1-2.7-3.7-1.9-7.1-4.8-10.1-8.4-9.4-11.4-14.7-30.6-13.1-52.6 2.2-32.4 18.4-60.4 37.7-67.5q3.9-1.5 7.9-1.8 2.4-0.1 4.7 0.1c20.2 2.5 34.1 29.6 31.7 63.7z"/>
										<path id="&lt;Path&gt;" class="s5" d="m1930.3 1098c-2.1 30.5-19.1 56.2-37.9 57.5-3.9 0.2-7.5-0.6-10.9-2.3-3.1-1.6-5.9-4-8.4-7-7.7-9.5-12.1-25.3-10.8-43.7 1.8-26.8 15.2-50 31.3-56q3.2-1.2 6.5-1.4 2-0.1 3.9 0.1c16.8 2 28.3 24.5 26.3 52.8z"/>
										<g id="&lt;Group&gt;">
											<path id="&lt;Path&gt;" class="s18" d="m1791.5 1111.6l-88.1 2 0.2-38.2 88.1 3c17.1-0.4 16.1 32.8-0.2 33.2z"/>
											<path id="&lt;Path&gt;" class="s18" d="m1715.7 1094.2c-0.1 10.5-5.6 19.2-12.3 19.4-6.8 0.1-12.2-8.3-12.1-18.9 0-10.5 5.5-19.2 12.3-19.3 6.7-0.2 12.2 8.2 12.1 18.8z"/>
										</g>
									</g>
									<path id="&lt;Path&gt;" class="s29" d="m1926.1 1414.9c-3.5 10.1-8.8 19.9-15.2 29.2-18.7 23.6-44 41.2-73.3 48.6q-7 1.7-14.1 2.6c-9.1 1.2-18.3 1.4-27.4 0.7l-1.9-0.2-115.8-9.5c1.2-0.1 72.6 6 125.4-76.4 45.4-68.8 141.2-49.9 122.3 5z"/>
									<path id="&lt;Path&gt;" class="s28" d="m2014.4 1510.3q1.2-1 1.4-2.3c9.8-69-72-142.7-135.6-135.5-55.6 14.7-90.2 63.9-97.7 122.4z"/>
									<path id="&lt;Path&gt;" class="s35" d="m1712.6 1073.4c0 0 12.7-18.7 42-8.4 29.3 10.2 19.3 43 11.4 47.2-7.8 4.1-35.1 7.9-31.1 0.7 4-7.3 8.1-19.4 1.5-29.3-4.6-6.9-24-7.9-24-7.9z"/>
								</g>
								<path id="&lt;Path&gt;" class="s18" d="m1343 1204.9l-11.7-1.3 7-61.7-49.4-3.1-6.9 60.4-11.7-1.3 7.5-66c0.4-3.1 3.1-5.4 6.2-5.2l61.2 3.9c1.7 0.1 3.2 0.8 4.2 2.1 1 1.2 1.5 2.8 1.3 4.4z"/>
								<path id="&lt;Path&gt;" class="s39" d="m1204.4 1447.5l221.8 17.9-8.8 39.1-214.9-32.1z"/>
								<path id="&lt;Path&gt;" class="s39" d="m1774.3 1494.2l205.3 14c0.6 14.4-0.7 27.8-4.3 39.7l-205-28.6c0.6-9.1 1.8-17.6 4-25.1z"/>
							</g>
						</g>
					</g>
					<g id="&lt;Group&gt;">
						<path id="&lt;Path&gt;" class="s32" d="m1249.3 810.6c0.4 34.5-27.2 62.8-61.6 63.3-34.5 0.4-62.8-27.1-63.3-61.6-0.5-34.5 27.1-62.8 61.6-63.3 34.5-0.5 62.8 27.1 63.3 61.6z"/>
						<path id="&lt;Path&gt;" class="s5" d="m1183.5 840.8l-29.1-45.5 4.8-5.1 24.1 22.8 72.9-65 4.8 6.1z"/>
					</g>
				</g>
				<path id="&lt;Path&gt;" class="s40" d="m1900.1 1045.1l322.6-14.7-33.1 204.3-301.5-79.2z"/>
			</g>
			<g id="&lt;Group&gt;">
				<path id="&lt;Path&gt;" class="s5" d="m943.1 835h-216.5c-9.4 0-17-7.6-17-17v-126.4c0-9.4 7.6-17 17-17h216.5c9.4 0 17 7.6 17 17v126.4c0 9.4-7.6 17-17 17z"/>
				<g id="&lt;Group&gt;">
					<path id="&lt;Path&gt;" class="s41" d="m757.3 791l2.5 7.4h7.7l-6.3 4.5 2.4 7.4-6.3-4.5-6.3 4.5 2.4-7.4-6.3-4.5h7.8z"/>
					<path id="&lt;Path&gt;" class="s41" d="m795.6 791l2.5 7.4h7.7l-6.3 4.5 2.5 7.4-6.4-4.5-6.3 4.5 2.5-7.4-6.4-4.5h7.8z"/>
					<path id="&lt;Path&gt;" class="s41" d="m834 791l2.4 7.4h7.7l-6.3 4.5 2.5 7.4-6.3-4.5-6.4 4.5 2.5-7.4-6.3-4.5h7.7z"/>
					<path id="&lt;Path&gt;" class="s41" d="m872.3 791l2.4 7.4h7.8l-6.3 4.5 2.4 7.4-6.3-4.5-6.3 4.5 2.4-7.4-6.3-4.5h7.7z"/>
					<path id="&lt;Path&gt;" class="s41" d="m910.6 791l2.4 7.4h7.8l-6.3 4.5 2.4 7.4-6.3-4.5-6.3 4.5 2.4-7.4-6.3-4.5h7.8z"/>
				</g>
				<path id="&lt;Path&gt;" class="s10" d="m916.4 714.3h-54c-2.5 0-4.4-1.9-4.4-4.3 0-2.5 1.9-4.4 4.4-4.4h54c2.4 0 4.4 1.9 4.4 4.4 0 2.4-2 4.3-4.4 4.3z"/>
				<path id="&lt;Path&gt;" class="s10" d="m916.4 733.5h-70.1c-2.4 0-4.3-1.9-4.3-4.3 0-2.5 1.9-4.4 4.3-4.4h70.1c2.4 0 4.4 1.9 4.4 4.4 0 2.4-2 4.3-4.4 4.3z"/>
				<path id="&lt;Path&gt;" class="s10" d="m916.4 752.7h-70.1c-2.4 0-4.3-1.9-4.3-4.4 0-2.4 1.9-4.3 4.3-4.3h70.1c2.4 0 4.4 1.9 4.4 4.3 0 2.5-2 4.4-4.4 4.4z"/>
				<path id="&lt;Path&gt;" class="s10" d="m916.4 771.9h-70.1c-2.4 0-4.3-1.9-4.3-4.4 0-2.4 1.9-4.3 4.3-4.3h70.1c2.4 0 4.4 1.9 4.4 4.3 0 2.5-2 4.4-4.4 4.4z"/>
				<path id="&lt;Path&gt;" class="s10" d="m820.6 773.9h-79.4v-71.5h79.4z"/>
			</g>
		</g>
	</g>
</svg>