<svg version="1.2" xmlns="http://www.w3.org/2000/svg" viewBox="0 0 1106 953" width="1106" height="953">
	<title>82531061_9898993-ai</title>
	<defs>
		<clipPath clipPathUnits="userSpaceOnUse" id="cp1">
			<path d="m222.26 204.78c3.04 0 5.5 3.27 5.5 7.29 0 4.03-2.46 7.29-5.5 7.29-3.04 0-5.5-3.26-5.5-7.29 0-4.02 2.46-7.29 5.5-7.29z"/>
		</clipPath>
		<clipPath clipPathUnits="userSpaceOnUse" id="cp2">
			<path d="m254.39 204.78c3.04 0 5.5 3.27 5.5 7.29 0 4.03-2.46 7.29-5.5 7.29-3.04 0-5.5-3.26-5.5-7.29 0-4.02 2.46-7.29 5.5-7.29z"/>
		</clipPath>
		<clipPath clipPathUnits="userSpaceOnUse" id="cp3">
			<path d="m854.59 204.78c-3.03 0-5.49 3.27-5.49 7.29 0 4.03 2.46 7.29 5.49 7.29 3.04 0 5.5-3.26 5.5-7.29 0-4.02-2.46-7.29-5.5-7.29z"/>
		</clipPath>
		<clipPath clipPathUnits="userSpaceOnUse" id="cp4">
			<path d="m822.46 204.78c-3.03 0-5.49 3.27-5.49 7.29 0 4.03 2.46 7.29 5.49 7.29 3.04 0 5.5-3.26 5.5-7.29 0-4.02-2.46-7.29-5.5-7.29z"/>
		</clipPath>
		<clipPath clipPathUnits="userSpaceOnUse" id="cp5">
			<path d="m75.81 555.83c2.99 0 5.42 3.22 5.42 7.19 0 3.97-2.43 7.18-5.42 7.18-2.99 0-5.42-3.21-5.42-7.18 0-3.97 2.43-7.19 5.42-7.19z"/>
		</clipPath>
		<clipPath clipPathUnits="userSpaceOnUse" id="cp6">
			<path d="m107.48 555.83c2.99 0 5.42 3.22 5.42 7.19 0 3.97-2.43 7.18-5.42 7.18-2.99 0-5.42-3.21-5.42-7.18 0-3.97 2.43-7.19 5.42-7.19z"/>
		</clipPath>
		<clipPath clipPathUnits="userSpaceOnUse" id="cp7">
			<path d="m1013.91 428.36c-2.99 0-5.42 3.22-5.42 7.19 0 3.97 2.43 7.18 5.42 7.18 2.99 0 5.42-3.21 5.42-7.18 0-3.97-2.43-7.19-5.42-7.19z"/>
		</clipPath>
		<clipPath clipPathUnits="userSpaceOnUse" id="cp8">
			<path d="m982.23 428.36c-2.99 0-5.41 3.22-5.41 7.19 0 3.97 2.42 7.18 5.41 7.18 3 0 5.42-3.21 5.42-7.18 0-3.97-2.42-7.19-5.42-7.19z"/>
		</clipPath>
		<clipPath clipPathUnits="userSpaceOnUse" id="cp9">
			<path d="m918.26 609.49c16-4.76 27.37-21.76 25.68-38.36-0.25-2.49-0.81-5.06-2.38-7-2.55-3.15-7.28-3.87-11.1-2.54-3.82 1.33-6.84 4.32-9.24 7.57-7.59 10.27-10.15 24.08-6.74 36.38z"/>
		</clipPath>
		<clipPath clipPathUnits="userSpaceOnUse" id="cp10">
			<path d="m904.98 634.12c8.88-14.13 6.23-34.41-5.99-45.78-1.83-1.7-3.94-3.26-6.41-3.69-3.98-0.68-8.02 1.9-10.02 5.41-1.99 3.52-2.29 7.76-1.95 11.79 1.06 12.72 8.24 24.79 18.92 31.79z"/>
		</clipPath>
		<clipPath clipPathUnits="userSpaceOnUse" id="cp11">
			<path d="m885.49 668.41c8.89-14.13 6.23-34.41-5.98-45.78-1.83-1.7-3.95-3.27-6.42-3.69-3.98-0.69-8.01 1.89-10.01 5.41-2 3.52-2.29 7.76-1.96 11.79 1.06 12.72 8.25 24.79 18.92 31.79z"/>
		</clipPath>
		<clipPath clipPathUnits="userSpaceOnUse" id="cp12">
			<path d="m905.97 636.61c6.21-15.49 24.17-25.27 40.55-22.08 2.46 0.48 4.96 1.27 6.75 3.02 2.9 2.82 3.19 7.6 1.52 11.28-1.67 3.69-4.93 6.42-8.39 8.52-10.91 6.62-24.89 7.9-36.83 3.39z"/>
		</clipPath>
		<clipPath clipPathUnits="userSpaceOnUse" id="cp13">
			<path d="m885.35 668.43c8.39-14.43 27.58-21.5 43.32-15.96 2.36 0.84 4.72 1.98 6.24 3.97 2.46 3.21 2.05 7.98-0.14 11.38-2.18 3.41-5.8 5.64-9.53 7.21-11.75 4.97-25.78 4.21-36.93-2z"/>
		</clipPath>
		<clipPath clipPathUnits="userSpaceOnUse" id="cp14">
			<path d="m860.59 700.76c8.39-14.43 27.59-21.5 43.33-15.96 2.36 0.83 4.72 1.98 6.24 3.97 2.46 3.21 2.05 7.98-0.14 11.38-2.19 3.41-5.81 5.63-9.53 7.21-11.76 4.97-25.78 4.21-36.94-2z"/>
		</clipPath>
		<clipPath clipPathUnits="userSpaceOnUse" id="cp15">
			<path d="m941.73 657.53c-7.72-3.07-17.1-10.11-22.42-16.5-2.68-3.22-5.02-6.96-5.42-11.14-0.4-4.17 1.63-8.8 5.54-10.32 2.9-1.13 6.29-0.36 8.88 1.37 2.59 1.73 4.49 4.31 6.09 6.99 4.51 7.55 7 16.29 7.14 25.09z"/>
		</clipPath>
		<clipPath clipPathUnits="userSpaceOnUse" id="cp16">
			<path d="m939.8 662.28c-0.93-8.26 0.87-19.85 4-27.55 1.58-3.88 3.78-7.71 7.27-10.02 3.5-2.32 8.53-2.71 11.72 0.02 2.36 2.03 3.28 5.38 2.98 8.48-0.31 3.1-1.69 5.99-3.3 8.66-4.54 7.53-11.09 13.85-18.78 18.11z"/>
		</clipPath>
		<clipPath clipPathUnits="userSpaceOnUse" id="cp17">
			<path d="m942.71 659.81c-8.29 0.53-19.79-1.83-27.32-5.32-3.8-1.77-7.52-4.15-9.67-7.75-2.14-3.61-2.29-8.66 0.59-11.7 2.14-2.27 5.54-3.02 8.62-2.57 3.08 0.46 5.9 1.98 8.49 3.72 7.3 4.9 13.29 11.74 17.18 19.62z"/>
		</clipPath>
		<clipPath clipPathUnits="userSpaceOnUse" id="cp18">
			<path d="m942.1 660.64c-5.17-6.5-9.81-17.28-11.25-25.46-0.72-4.13-0.89-8.54 0.84-12.36 1.73-3.82 5.79-6.82 9.94-6.2 3.08 0.46 5.64 2.81 7.02 5.6 1.39 2.79 1.76 5.97 1.81 9.09 0.16 8.79-2.03 17.62-6.28 25.32z"/>
		</clipPath>
		<clipPath clipPathUnits="userSpaceOnUse" id="cp19">
			<path d="m940.97 660.55c3.23-7.65 10.48-16.88 16.97-22.06 3.28-2.61 7.07-4.87 11.25-5.18 4.18-0.31 8.77 1.82 10.21 5.76 1.07 2.92 0.23 6.3-1.56 8.85-1.78 2.55-4.41 4.39-7.11 5.93-7.65 4.35-16.45 6.65-25.24 6.61z"/>
		</clipPath>
		<clipPath clipPathUnits="userSpaceOnUse" id="cp20">
			<path d="m258.9 552.78c-9.26 5.66-23.98 9.91-34.82 10.45-5.47 0.27-11.21-0.22-15.88-3.08-4.66-2.86-7.9-8.61-6.42-13.88 1.09-3.92 4.55-6.86 8.39-8.2 3.84-1.35 8.03-1.3 12.07-0.87 11.43 1.22 22.51 5.49 31.8 12.24z"/>
		</clipPath>
		<clipPath clipPathUnits="userSpaceOnUse" id="cp21">
			<path d="m262.34 558.52c-9.35-5.5-20.04-16.48-25.61-25.79-2.82-4.7-5.08-9.99-4.76-15.46 0.33-5.46 3.87-11.03 9.22-12.21 3.97-0.87 8.19 0.8 11.19 3.55 2.99 2.75 4.93 6.47 6.45 10.24 4.3 10.65 5.75 22.44 4.17 33.81z"/>
		</clipPath>
		<clipPath clipPathUnits="userSpaceOnUse" id="cp22">
			<path d="m262.04 553.55c-5.95 9.07-17.43 19.22-27 24.34-4.83 2.58-10.23 4.59-15.67 4-5.44-0.59-10.83-4.4-11.75-9.8-0.68-4.01 1.19-8.14 4.09-11 2.89-2.86 6.69-4.61 10.54-5.95 10.84-3.77 22.68-4.66 33.97-2.53z"/>
		</clipPath>
		<clipPath clipPathUnits="userSpaceOnUse" id="cp23">
			<path d="m262.43 554.84c-10.84 0.3-25.73-3.33-35.4-8.25-4.88-2.48-9.61-5.76-12.24-10.57-2.63-4.8-2.58-11.4 1.32-15.24 2.9-2.85 7.37-3.68 11.37-2.94 4 0.75 7.61 2.87 10.9 5.25 9.3 6.74 16.79 15.96 21.5 26.43z"/>
		</clipPath>
		<clipPath clipPathUnits="userSpaceOnUse" id="cp24">
			<path d="m261.45 555.95c-5.45-9.38-9.39-24.19-9.7-35.03-0.15-5.47 0.46-11.2 3.42-15.81 2.96-4.61 8.78-7.72 14.02-6.13 3.89 1.18 6.76 4.7 8.02 8.57 1.26 3.87 1.13 8.05 0.61 12.09-1.47 11.39-5.97 22.38-12.92 31.52z"/>
		</clipPath>
		<clipPath clipPathUnits="userSpaceOnUse" id="cp25">
			<path d="m233.51 622.03c-3.1-16.4-18.83-29.46-35.52-29.49-2.5-0.01-5.11 0.29-7.21 1.65-3.39 2.21-4.59 6.84-3.67 10.78 0.93 3.94 3.6 7.25 6.59 9.97 9.42 8.61 22.9 12.57 35.48 10.45z"/>
		</clipPath>
		<clipPath clipPathUnits="userSpaceOnUse" id="cp26">
			<path d="m256.63 637.78c-13.13-10.29-33.58-9.74-46.14 1.24-1.89 1.65-3.66 3.59-4.34 6-1.09 3.89 1.06 8.17 4.36 10.52 3.29 2.35 7.48 3.08 11.52 3.16 12.76 0.25 25.51-5.65 33.57-15.55z"/>
		</clipPath>
		<clipPath clipPathUnits="userSpaceOnUse" id="cp27">
			<path d="m288.73 660.69c-13.13-10.29-33.58-9.74-46.15 1.24-1.88 1.65-3.65 3.59-4.33 6-1.09 3.9 1.06 8.17 4.35 10.52 3.3 2.35 7.48 3.08 11.53 3.16 12.76 0.26 25.5-5.65 33.56-15.54z"/>
		</clipPath>
		<clipPath clipPathUnits="userSpaceOnUse" id="cp28">
			<path d="m259.21 637.05c-14.77-7.77-22.64-26.64-17.78-42.61 0.73-2.39 1.78-4.8 3.7-6.4 3.1-2.6 7.88-2.39 11.38-0.35 3.49 2.04 5.87 5.56 7.6 9.22 5.46 11.53 5.3 25.58-0.42 36.99z"/>
		</clipPath>
		<clipPath clipPathUnits="userSpaceOnUse" id="cp29">
			<path d="m288.74 660.84c-13.48-9.83-18.54-29.65-11.41-44.73 1.07-2.27 2.46-4.5 4.59-5.81 3.45-2.11 8.15-1.21 11.31 1.31 3.16 2.53 5 6.36 6.18 10.23 3.73 12.2 1.54 26.08-5.78 36.53z"/>
		</clipPath>
		<clipPath clipPathUnits="userSpaceOnUse" id="cp30">
			<path d="m318.35 688.79c-13.49-9.83-18.54-29.65-11.41-44.73 1.07-2.26 2.46-4.5 4.59-5.81 3.45-2.11 8.15-1.21 11.31 1.32 3.16 2.52 5 6.35 6.18 10.22 3.73 12.2 1.54 26.08-5.78 36.53z"/>
		</clipPath>
		<clipPath clipPathUnits="userSpaceOnUse" id="cp31">
			<path d="m580.06 259.57c-6.45-15.39-0.52-34.96 13.38-44.18 2.09-1.39 4.43-2.58 6.93-2.6 4.05-0.02 7.6 3.18 9 6.98 1.4 3.79 0.99 8.02 0 11.95-3.12 12.37-12.18 23.11-23.85 28.27z"/>
		</clipPath>
		<clipPath clipPathUnits="userSpaceOnUse" id="cp32">
			<path d="m569.44 285.46c5.29-15.83 22.66-26.64 39.19-24.4 2.48 0.34 5.03 0.98 6.92 2.62 3.06 2.65 3.62 7.4 2.17 11.18-1.45 3.77-4.55 6.69-7.88 8.98-10.5 7.25-24.39 9.34-36.57 5.53z"/>
		</clipPath>
		<clipPath clipPathUnits="userSpaceOnUse" id="cp33">
			<path d="m555.28 322.26c5.29-15.82 22.66-26.63 39.2-24.39 2.47 0.34 5.02 0.98 6.91 2.62 3.06 2.64 3.62 7.4 2.17 11.17-1.45 3.78-4.54 6.69-7.87 8.99-10.51 7.25-24.4 9.34-36.58 5.53z"/>
		</clipPath>
		<clipPath clipPathUnits="userSpaceOnUse" id="cp34">
			<path d="m566.88 286.27c8.05-14.62 4.22-34.72-8.63-45.35-1.93-1.6-4.13-3.03-6.62-3.31-4.02-0.46-7.9 2.35-9.69 5.98-1.79 3.63-1.83 7.88-1.26 11.88 1.8 12.64 9.67 24.27 20.73 30.63z"/>
		</clipPath>
		<clipPath clipPathUnits="userSpaceOnUse" id="cp35">
			<path d="m555.36 322.39c5.83-15.63-0.87-34.95-15.14-43.61-2.13-1.3-4.52-2.4-7.02-2.32-4.04 0.14-7.47 3.48-8.72 7.33-1.24 3.85-0.67 8.06 0.48 11.94 3.61 12.24 13.09 22.6 24.96 27.3z"/>
		</clipPath>
		<clipPath clipPathUnits="userSpaceOnUse" id="cp36">
			<path d="m546.05 362.03c5.84-15.63-0.86-34.95-15.13-43.61-2.14-1.3-4.52-2.4-7.02-2.32-4.05 0.14-7.47 3.48-8.72 7.33-1.24 3.85-0.67 8.06 0.47 11.94 3.62 12.24 13.1 22.61 24.97 27.3z"/>
		</clipPath>
		<clipPath clipPathUnits="userSpaceOnUse" id="cp37">
			<path d="m638.63 336.04c-0.32-8.15 2.26-19.37 5.87-26.69 1.82-3.69 4.25-7.28 7.83-9.3 3.59-2.02 8.55-2.04 11.47 0.86 2.17 2.15 2.84 5.5 2.32 8.51-0.52 3.01-2.08 5.75-3.85 8.25-4.98 7.05-11.83 12.77-19.66 16.4z"/>
		</clipPath>
		<clipPath clipPathUnits="userSpaceOnUse" id="cp38">
			<path d="m636.7 338.66c-6.84-4.43-14.53-13.01-18.43-20.17-1.97-3.61-3.5-7.66-3.09-11.76 0.41-4.09 3.25-8.16 7.31-8.88 3.01-0.54 6.13 0.85 8.29 3.01 2.16 2.16 3.5 5.01 4.52 7.89 2.9 8.14 3.62 17.04 2.08 25.53z"/>
		</clipPath>
		<clipPath clipPathUnits="userSpaceOnUse" id="cp39">
			<path d="m635.65 334.89c0.01 8.16-3.01 19.27-6.91 26.44-1.96 3.62-4.52 7.11-8.19 8.99-3.66 1.88-8.61 1.71-11.42-1.3-2.09-2.24-2.62-5.61-1.98-8.6 0.64-2.99 2.3-5.66 4.16-8.09 5.26-6.85 12.33-12.3 20.3-15.62z"/>
		</clipPath>
		<clipPath clipPathUnits="userSpaceOnUse" id="cp40">
			<path d="m638.91 338.94c-7.21 3.8-18.46 6.3-26.61 6.19-4.12-0.05-8.4-0.7-11.77-3.06-3.37-2.37-5.52-6.84-4.16-10.72 1-2.89 3.74-4.93 6.68-5.76 2.95-0.82 6.09-0.59 9.1-0.08 8.51 1.46 16.62 5.19 23.27 10.69z"/>
		</clipPath>
		<clipPath clipPathUnits="userSpaceOnUse" id="cp41">
			<path d="m633.61 336.2c7.03-4.12 18.15-7.13 26.3-7.39 4.12-0.13 8.42 0.32 11.9 2.53 3.47 2.21 5.82 6.58 4.64 10.52-0.87 2.93-3.51 5.09-6.42 6.05-2.9 0.96-6.05 0.87-9.08 0.49-8.57-1.07-16.84-4.42-23.73-9.62z"/>
		</clipPath>
		<clipPath clipPathUnits="userSpaceOnUse" id="cp42">
			<path d="m637.39 333.81c6.51 4.92 13.55 14.04 16.91 21.47 1.7 3.75 2.94 7.9 2.23 11.95-0.71 4.06-3.84 7.9-7.94 8.33-3.04 0.31-6.05-1.3-8.05-3.61-2-2.32-3.12-5.26-3.93-8.21-2.3-8.32-2.37-17.24-0.21-25.6z"/>
		</clipPath>
		<clipPath clipPathUnits="userSpaceOnUse" id="cp43">
			<path d="m636.98 337.83c-3.78-7.23-6.25-18.48-6.11-26.64 0.07-4.11 0.72-8.39 3.1-11.75 2.38-3.36 6.85-5.51 10.73-4.14 2.88 1.02 4.92 3.76 5.73 6.71 0.82 2.94 0.58 6.08 0.06 9.1-1.49 8.5-5.24 16.6-10.76 23.24z"/>
		</clipPath>
		<clipPath clipPathUnits="userSpaceOnUse" id="cp44">
			<path d="m636.4 335.72c3.78 7.23 6.25 18.48 6.11 26.63-0.07 4.12-0.72 8.4-3.1 11.76-2.37 3.36-6.85 5.5-10.73 4.14-2.88-1.02-4.92-3.76-5.73-6.71-0.82-2.95-0.58-6.09-0.06-9.1 1.49-8.5 5.24-16.6 10.77-23.24z"/>
		</clipPath>
		<clipPath clipPathUnits="userSpaceOnUse" id="cp45">
			<path d="m635.99 337.61c3.77-7.23 11.6-15.68 18.36-20.23 3.42-2.3 7.31-4.21 11.42-4.18 4.12 0.03 8.43 2.47 9.53 6.44 0.81 2.95-0.28 6.18-2.23 8.54-1.95 2.35-4.66 3.95-7.43 5.24-7.83 3.65-16.62 5.2-25.22 4.46z"/>
		</clipPath>
		<clipPath clipPathUnits="userSpaceOnUse" id="cp46">
			<path d="m637.39 335.94c-3.77 7.23-11.59 15.68-18.36 20.23-3.42 2.3-7.31 4.21-11.42 4.18-4.12-0.03-8.43-2.48-9.53-6.44-0.81-2.95 0.28-6.19 2.23-8.54 1.95-2.36 4.66-3.95 7.43-5.24 7.83-3.65 16.62-5.2 25.22-4.46z"/>
		</clipPath>
		<clipPath clipPathUnits="userSpaceOnUse" id="cp47">
			<path d="m635.62 336.56c8.15-0.15 19.32 2.67 26.56 6.44 3.65 1.9 7.19 4.4 9.13 8.03 1.94 3.62 1.86 8.58-1.1 11.44-2.2 2.13-5.56 2.72-8.56 2.14-3-0.59-5.7-2.21-8.16-4.02-6.95-5.13-12.52-12.11-15.98-20.02z"/>
		</clipPath>
		<clipPath clipPathUnits="userSpaceOnUse" id="cp48">
			<path d="m637.76 336.99c-8.15 0.15-19.32-2.68-26.56-6.44-3.65-1.9-7.18-4.4-9.13-8.03-1.94-3.63-1.86-8.58 1.1-11.45 2.2-2.12 5.56-2.71 8.56-2.13 3 0.59 5.7 2.2 8.16 4.02 6.95 5.13 12.52 12.1 15.98 20.01z"/>
		</clipPath>
		<clipPath clipPathUnits="userSpaceOnUse" id="cp49">
			<path d="m1106 953h-277.08v-150.75h277.08z"/>
		</clipPath>
	</defs>
	<style>
		.s0 { fill: #ffffff } 
		.s1 { fill: #f7acc0 } 
		.s2 { fill: none;stroke: #ffc96a;stroke-linecap: round;stroke-miterlimit:10;stroke-width: 5 } 
		.s3 { fill: none;stroke: #ffc96a;stroke-linecap: round;stroke-miterlimit:10;stroke-width: 5;stroke-dasharray: 0,11.892700000000001 } 
		.s4 { fill: #f4627d } 
		.s5 { opacity: .3;fill: #ffffff } 
		.s6 { fill: none;stroke: #6b3e3d;stroke-linecap: round;stroke-miterlimit:10;stroke-width: 2 } 
		.s7 { fill: #6b3e3d } 
		.s8 { fill: none;stroke: #ffc96a;stroke-linecap: round;stroke-miterlimit:10;stroke-width: 5;stroke-dasharray: 0,11.989800000000002 } 
		.s9 { fill: #ffc96a } 
		.s10 { fill: none;stroke: #ffc96a;stroke-linecap: round;stroke-miterlimit:10;stroke-width: 5;stroke-dasharray: 0,11.9695 } 
		.s11 { fill: #5e8474 } 
		.s12 { opacity: .5;mix-blend-mode: multiply;fill: #f4627d } 
		.s13 { opacity: .4;fill: #ffffff } 
		.s14 { fill: #94bdae } 
		.s15 { fill: none;stroke: #5e8474;stroke-miterlimit:10;stroke-width: 2 } 
		.s16 { opacity: .3;fill: #f4627d } 
		.s17 { opacity: .7;fill: none;stroke: #ffffff;stroke-miterlimit:10;stroke-width: 2 } 
		.s18 { opacity: .3;fill: #f7acc0 } 
		.s19 { opacity: .5;fill: #f7acc0 } 
		.s20 { opacity: .2;fill: #df8941 } 
		.s21 { opacity: .6;fill: #f4627d } 
		.s22 { fill: #df8941 } 
		.s23 { opacity: .8;fill: #fff2e2 } 
		.s24 { opacity: .3;mix-blend-mode: overlay;fill: #ffffff } 
		.s25 { fill: none;stroke: #6b3e3d;stroke-linecap: round;stroke-miterlimit:10;stroke-width: 2;stroke-dasharray: 11.0561,11.0561 } 
		.s26 { opacity: .5;fill: none;stroke: #6b3e3d;stroke-linecap: round;stroke-miterlimit:10;stroke-width: 2 } 
		.s27 { opacity: .3;fill: #d86b21 } 
		.s28 { opacity: .1;fill: #d86b21 } 
	</style>
	<g id="OBJECTS">
		<g id="&lt;Group&gt;">
			<g id="&lt;Group&gt;">
				<path id="&lt;Path&gt;" class="s0" d="m1054.7 205.1c-1.8-5.9-5.7-11.2-11-14.3-9.3-5.3-22.1-3.6-29.6 4.1 1-12.1-0.5-25.1-8-34.6-7.5-9.5-22.4-13.8-32.2-6.7-1.9-16.3-4-33.2-12-47.6-8-14.5-23.4-26.1-39.8-24.5-13.9 1.3-25.6 11.7-32.1 23.9-6.6 12.3-8.9 26.4-10.9 40.1-13.1-17.4-44-12.3-55 6.5-9.6 16.2-6.1 37.4 4.7 53.1z"/>
			</g>
			<g id="&lt;Group&gt;" style="opacity: .2">
				<path id="&lt;Path&gt;" class="s1" d="m1010.3 205.1c-1.2-3.7-3.6-7-6.9-8.9-5.8-3.3-13.8-2.2-18.5 2.5 0.6-7.5-0.3-15.6-5-21.5-4.7-6-13.9-8.6-20-4.2-1.3-10.2-2.6-20.7-7.5-29.7-5-9-14.6-16.3-24.8-15.3-8.7 0.8-16 7.3-20.1 15-4.1 7.6-5.5 16.4-6.7 25-8.2-10.9-27.5-7.8-34.4 4-5.9 10.1-3.7 23.3 3 33.1z"/>
			</g>
		</g>
		<g id="&lt;Group&gt;">
			<g id="&lt;Group&gt;">
				<g id="&lt;Group&gt;">
					<path id="&lt;Path&gt;" class="s2" d=""/>
					<path id="&lt;Path&gt;" class="s3" d="m235.9 2.8v196.2"/>
					<path id="&lt;Path&gt;" class="s2" d=""/>
				</g>
			</g>
			<g id="&lt;Group&gt;">
				<path id="&lt;Path&gt;" class="s1" d="m199.3 184.1c0 3.5-2.7 6.3-6 6.3-3.2 0-5.9-2.8-5.9-6.3 0-3.5 2.7-6.3 5.9-6.3 3.3 0 6 2.8 6 6.3z"/>
				<path id="&lt;Path&gt;" class="s1" d="m192.4 193.5c0 3.5-2.6 6.3-5.9 6.3-3.3 0-6-2.8-6-6.3 0-3.5 2.7-6.4 6-6.4 3.3 0 5.9 2.9 5.9 6.4z"/>
				<path id="&lt;Path&gt;" class="s1" d="m193.9 215.1c0 3.5-2.7 6.4-6 6.4-3.3 0-5.9-2.9-5.9-6.4 0-3.5 2.6-6.3 5.9-6.3 3.3 0 6 2.8 6 6.3z"/>
				<path id="&lt;Path&gt;" class="s1" d="m198.9 225.2c0 3.5-2.6 6.4-5.9 6.4-3.3 0-6-2.9-6-6.4 0-3.5 2.7-6.3 6-6.3 3.3 0 5.9 2.8 5.9 6.3z"/>
				<path id="&lt;Path&gt;" class="s1" d="m204.1 234.9c0 3.5-2.6 6.3-5.9 6.3-3.3 0-6-2.8-6-6.3 0-3.5 2.7-6.3 6-6.3 3.3 0 5.9 2.8 5.9 6.3z"/>
				<path id="&lt;Path&gt;" class="s1" d="m211 243.2c0 3.5-2.7 6.3-6 6.3-3.3 0-5.9-2.8-5.9-6.3 0-3.5 2.6-6.4 5.9-6.4 3.3 0 6 2.9 6 6.4z"/>
				<path id="&lt;Path&gt;" class="s1" d="m218.6 250.4c0 3.5-2.7 6.3-6 6.3-3.3 0-6-2.8-6-6.3 0-3.5 2.7-6.3 6-6.3 3.3 0 6 2.8 6 6.3z"/>
				<path id="&lt;Path&gt;" class="s1" d="m226.9 255.8c0 3.5-2.7 6.4-6 6.4-3.3 0-6-2.9-6-6.4 0-3.5 2.7-6.3 6-6.3 3.3 0 6 2.8 6 6.3z"/>
				<path id="&lt;Path&gt;" class="s1" d="m235.9 261.2c0 3.5-2.7 6.4-6 6.4-3.3 0-5.9-2.9-5.9-6.4 0-3.5 2.6-6.3 5.9-6.3 3.3 0 6 2.8 6 6.3z"/>
				<path id="&lt;Path&gt;" class="s1" d="m256.3 259.4c0 3.5-2.7 6.4-6 6.4-3.3 0-5.9-2.9-5.9-6.4 0-3.5 2.6-6.3 5.9-6.3 3.3 0 6 2.8 6 6.3z"/>
				<path id="&lt;Path&gt;" class="s1" d="m264.9 255.1c0 3.5-2.6 6.3-5.9 6.3-3.3 0-6-2.8-6-6.3 0-3.5 2.7-6.3 6-6.3 3.3 0 5.9 2.8 5.9 6.3z"/>
				<path id="&lt;Path&gt;" class="s1" d="m271.8 248.6c0 3.5-2.7 6.3-6 6.3-3.3 0-5.9-2.8-5.9-6.3 0-3.5 2.6-6.3 5.9-6.3 3.3 0 6 2.8 6 6.3z"/>
				<path id="&lt;Path&gt;" class="s1" d="m277.5 240.7c0 3.5-2.6 6.3-5.9 6.3-3.3 0-6-2.8-6-6.3 0-3.5 2.7-6.4 6-6.4 3.3 0 5.9 2.9 5.9 6.4z"/>
				<path id="&lt;Path&gt;" class="s1" d="m282.6 231.3c0 3.5-2.7 6.3-6 6.3-3.2 0-5.9-2.8-5.9-6.3 0-3.5 2.7-6.4 5.9-6.4 3.3 0 6 2.9 6 6.4z"/>
				<path id="&lt;Path&gt;" class="s1" d="m287.3 222.6c0 3.5-2.7 6.4-6 6.4-3.2 0-5.9-2.9-5.9-6.4 0-3.5 2.7-6.3 5.9-6.3 3.3 0 6 2.8 6 6.3z"/>
				<path id="&lt;Path&gt;" class="s1" d="m289.8 212.5c0 3.5-2.6 6.4-5.9 6.4-3.3 0-6-2.9-6-6.4 0-3.5 2.7-6.3 6-6.3 3.3 0 5.9 2.8 5.9 6.3z"/>
				<path id="&lt;Path&gt;" class="s1" d="m289.8 191.9c0 3.5-2.6 6.4-5.9 6.4-3.3 0-6-2.9-6-6.4 0-3.5 2.7-6.3 6-6.3 3.3 0 5.9 2.8 5.9 6.3z"/>
				<path id="&lt;Path&gt;" class="s1" d="m285.1 183.3c0 3.5-2.6 6.3-5.9 6.3-3.3 0-6-2.8-6-6.3 0-3.5 2.7-6.3 6-6.3 3.3 0 5.9 2.8 5.9 6.3z"/>
				<path id="&lt;Path&gt;" class="s1" d="m276.5 177.9c0 3.5-2.7 6.3-6 6.3-3.3 0-5.9-2.8-5.9-6.3 0-3.5 2.6-6.4 5.9-6.4 3.3 0 6 2.9 6 6.4z"/>
				<path id="&lt;Path&gt;" class="s1" d="m267.1 179.7c0 3.5-2.7 6.3-6 6.3-3.3 0-5.9-2.8-5.9-6.3 0-3.5 2.6-6.4 5.9-6.4 3.3 0 6 2.9 6 6.4z"/>
				<path id="&lt;Path&gt;" class="s1" d="m257.7 185.1c0 3.5-2.7 6.3-5.9 6.3-3.3 0-6-2.8-6-6.3 0-3.5 2.7-6.3 6-6.3 3.2 0 5.9 2.8 5.9 6.3z"/>
				<path id="&lt;Path&gt;" class="s1" d="m249.4 191.9c0 3.5-2.7 6.4-5.9 6.4-3.3 0-6-2.9-6-6.4 0-3.5 2.7-6.3 6-6.3 3.2 0 5.9 2.8 5.9 6.3z"/>
				<path id="&lt;Path&gt;" class="s1" d="m242.5 198.4c0 3.5-2.6 6.4-5.9 6.4-3.3 0-6-2.9-6-6.4 0-3.5 2.7-6.3 6-6.3 3.3 0 5.9 2.8 5.9 6.3z"/>
				<path id="&lt;Path&gt;" class="s1" d="m235.3 191.9c0 3.5-2.6 6.4-5.9 6.4-3.3 0-6-2.9-6-6.4 0-3.5 2.7-6.3 6-6.3 3.3 0 5.9 2.8 5.9 6.3z"/>
				<path id="&lt;Path&gt;" class="s1" d="m225.2 185.8c0 3.5-2.6 6.4-5.9 6.4-3.3 0-6-2.9-6-6.4 0-3.5 2.7-6.3 6-6.3 3.3 0 5.9 2.8 5.9 6.3z"/>
				<path id="&lt;Path&gt;" class="s1" d="m216.2 181.5c0 3.5-2.7 6.3-5.9 6.3-3.3 0-6-2.8-6-6.3 0-3.5 2.7-6.4 6-6.4 3.2 0 5.9 2.9 5.9 6.4z"/>
				<path id="&lt;Path&gt;" class="s1" d="m206.8 182.6c0 3.5-2.6 6.3-5.9 6.3-3.3 0-6-2.8-6-6.3 0-3.5 2.7-6.4 6-6.4 3.3 0 5.9 2.9 5.9 6.4z"/>
				<path id="&lt;Path&gt;" class="s1" d="m291.3 202.8c0 3.5-2.7 6.3-6 6.3-3.3 0-5.9-2.8-5.9-6.3 0-3.5 2.6-6.4 5.9-6.4 3.3 0 6 2.9 6 6.4z"/>
				<path id="&lt;Path&gt;" class="s1" d="m246.5 262.3c0 3.5-2.6 6.3-5.9 6.3-3.3 0-6-2.8-6-6.3 0-3.5 2.7-6.3 6-6.3 3.3 0 5.9 2.8 5.9 6.3z"/>
				<path id="&lt;Path&gt;" class="s1" d="m192.4 203.9c0 3.5-2.6 6.4-5.9 6.4-3.3 0-6-2.9-6-6.4 0-3.5 2.7-6.3 6-6.3 3.3 0 5.9 2.8 5.9 6.3z"/>
				<path id="&lt;Path&gt;" class="s4" d="m273.5 178.4c-10.8-3-25.9 6-37.4 21.2-12.8-14.1-28.5-21.9-39-18-13.3 5-13.2 26.5 0.3 48.1 7.7 12.6 18.2 22.3 28.3 27.4 1.6 1.7 10.6 4.2 13 3.9 2.5 0.1 11.2-3.2 12.7-5 9.6-5.9 19.2-16.5 25.9-29.7 11.5-22.7 9.8-44.2-3.8-47.9z"/>
				<path id="&lt;Path&gt;" class="s5" d="m266.1 187.9c-8.6-2.4-20.6 4.8-29.8 16.9-10.2-11.3-22.8-17.5-31.2-14.3-10.5 3.9-10.4 21.1 0.3 38.3 6.2 10 14.6 17.8 22.6 21.9 1.3 1.3 8.4 3.3 10.4 3.1 2 0 8.9-2.6 10.1-4 7.6-4.7 15.3-13.2 20.6-23.7 9.2-18.1 7.9-35.2-3-38.2z"/>
				<path id="&lt;Path&gt;" class="s6" d="m245.3 218.8c-0.2 2.9-2.6 5.2-5.6 5.2-3.1 0-5.7-2.5-5.7-5.7"/>
				<path id="&lt;Path&gt;" class="s4" d="m222.3 224.2c0 1.7-2.1 3-4.6 3-2.6 0-4.7-1.3-4.7-3 0-1.7 2.1-3 4.7-3 2.5 0 4.6 1.3 4.6 3z"/>
				<path id="&lt;Path&gt;" class="s4" d="m263.7 224.2c0 1.7-2.1 3-4.7 3-2.6 0-4.6-1.3-4.6-3 0-1.7 2-3 4.6-3 2.6 0 4.7 1.3 4.7 3z"/>
				<g id="&lt;Group&gt;">
					<g id="&lt;Clip Group&gt;" clip-path="url(#cp1)">
						<path id="&lt;Path&gt;" class="s0" d="m222.3 204.8c3 0 5.5 3.2 5.5 7.3 0 4-2.5 7.3-5.5 7.3-3.1 0-5.5-3.3-5.5-7.3 0-4.1 2.4-7.3 5.5-7.3z"/>
						<path id="&lt;Path&gt;" class="s7" d="m228.3 212.3c0 4.4-1.4 7.9-3.1 7.9-1.7 0-3.1-3.5-3.1-7.9 0-4.4 1.4-7.9 3.1-7.9 1.7 0 3.1 3.5 3.1 7.9z"/>
					</g>
					<path id="&lt;Path&gt;" class="s7" d="m227.7 211.7c0 0-1-5.9-5.6-6.4 0 0-4.1 0.5-5.3 6.8 0 0-0.5-7.3 5.9-7.6 0 0 4.4-0.1 5 7.2z"/>
				</g>
				<g id="&lt;Group&gt;">
					<g id="&lt;Clip Group&gt;" clip-path="url(#cp2)">
						<path id="&lt;Path&gt;" class="s0" d="m254.4 204.8c3 0 5.5 3.2 5.5 7.3 0 4-2.5 7.3-5.5 7.3-3 0-5.5-3.3-5.5-7.3 0-4.1 2.5-7.3 5.5-7.3z"/>
						<path id="&lt;Path&gt;" class="s7" d="m260.5 212.3c0 4.4-1.4 7.9-3.1 7.9-1.8 0-3.1-3.5-3.1-7.9 0-4.4 1.3-7.9 3.1-7.9 1.7 0 3.1 3.5 3.1 7.9z"/>
					</g>
					<path id="&lt;Path&gt;" class="s7" d="m259.9 211.7c0 0-1.1-5.9-5.7-6.4 0 0-4.1 0.5-5.3 6.8 0 0-0.4-7.3 5.9-7.6 0 0 4.4-0.1 5.1 7.2z"/>
				</g>
			</g>
		</g>
		<g id="&lt;Group&gt;">
			<g id="&lt;Group&gt;">
				<g id="&lt;Group&gt;">
					<path id="&lt;Path&gt;" class="s2" d=""/>
					<path id="&lt;Path&gt;" class="s3" d="m841 2.8v196.2"/>
					<path id="&lt;Path&gt;" class="s2" d=""/>
				</g>
			</g>
			<g id="&lt;Group&gt;">
				<path id="&lt;Path&gt;" class="s1" d="m877.6 184.1c0 3.5 2.6 6.3 5.9 6.3 3.3 0 6-2.8 6-6.3 0-3.5-2.7-6.3-6-6.3-3.3 0-5.9 2.8-5.9 6.3z"/>
				<path id="&lt;Path&gt;" class="s1" d="m884.4 193.5c0 3.5 2.7 6.3 6 6.3 3.3 0 5.9-2.8 5.9-6.3 0-3.5-2.6-6.4-5.9-6.4-3.3 0-6 2.9-6 6.4z"/>
				<path id="&lt;Path&gt;" class="s1" d="m883 215.1c0 3.5 2.6 6.4 5.9 6.4 3.3 0 6-2.9 6-6.4 0-3.5-2.7-6.3-6-6.3-3.3 0-5.9 2.8-5.9 6.3z"/>
				<path id="&lt;Path&gt;" class="s1" d="m877.9 225.2c0 3.5 2.7 6.4 6 6.4 3.3 0 5.9-2.9 5.9-6.4 0-3.5-2.6-6.3-5.9-6.3-3.3 0-6 2.8-6 6.3z"/>
				<path id="&lt;Path&gt;" class="s1" d="m872.7 234.9c0 3.5 2.7 6.3 6 6.3 3.3 0 5.9-2.8 5.9-6.3 0-3.5-2.6-6.3-5.9-6.3-3.3 0-6 2.8-6 6.3z"/>
				<path id="&lt;Path&gt;" class="s1" d="m865.9 243.2c0 3.5 2.6 6.3 5.9 6.3 3.3 0 6-2.8 6-6.3 0-3.5-2.7-6.4-6-6.4-3.3 0-5.9 2.9-5.9 6.4z"/>
				<path id="&lt;Path&gt;" class="s1" d="m858.3 250.4c0 3.5 2.7 6.3 6 6.3 3.2 0 5.9-2.8 5.9-6.3 0-3.5-2.7-6.3-5.9-6.3-3.3 0-6 2.8-6 6.3z"/>
				<path id="&lt;Path&gt;" class="s1" d="m850 255.8c0 3.5 2.7 6.4 6 6.4 3.2 0 5.9-2.9 5.9-6.4 0-3.5-2.7-6.3-5.9-6.3-3.3 0-6 2.8-6 6.3z"/>
				<path id="&lt;Path&gt;" class="s1" d="m841 261.2c0 3.5 2.6 6.4 5.9 6.4 3.3 0 6-2.9 6-6.4 0-3.5-2.7-6.3-6-6.3-3.3 0-5.9 2.8-5.9 6.3z"/>
				<path id="&lt;Path&gt;" class="s1" d="m820.6 259.4c0 3.5 2.7 6.4 5.9 6.4 3.3 0 6-2.9 6-6.4 0-3.5-2.7-6.3-6-6.3-3.2 0-5.9 2.8-5.9 6.3z"/>
				<path id="&lt;Path&gt;" class="s1" d="m811.9 255.1c0 3.5 2.7 6.3 6 6.3 3.3 0 5.9-2.8 5.9-6.3 0-3.5-2.6-6.3-5.9-6.3-3.3 0-6 2.8-6 6.3z"/>
				<path id="&lt;Path&gt;" class="s1" d="m805.1 248.6c0 3.5 2.6 6.3 5.9 6.3 3.3 0 6-2.8 6-6.3 0-3.5-2.7-6.3-6-6.3-3.3 0-5.9 2.8-5.9 6.3z"/>
				<path id="&lt;Path&gt;" class="s1" d="m799.3 240.7c0 3.5 2.7 6.3 6 6.3 3.2 0 5.9-2.8 5.9-6.3 0-3.5-2.7-6.4-5.9-6.4-3.3 0-6 2.9-6 6.4z"/>
				<path id="&lt;Path&gt;" class="s1" d="m794.3 231.3c0 3.5 2.6 6.3 5.9 6.3 3.3 0 6-2.8 6-6.3 0-3.5-2.7-6.4-6-6.4-3.3 0-5.9 2.9-5.9 6.4z"/>
				<path id="&lt;Path&gt;" class="s1" d="m789.6 222.6c0 3.5 2.6 6.4 5.9 6.4 3.3 0 6-2.9 6-6.4 0-3.5-2.7-6.3-6-6.3-3.3 0-5.9 2.8-5.9 6.3z"/>
				<path id="&lt;Path&gt;" class="s1" d="m787 212.5c0 3.5 2.7 6.4 6 6.4 3.3 0 5.9-2.9 5.9-6.4 0-3.5-2.6-6.3-5.9-6.3-3.3 0-6 2.8-6 6.3z"/>
				<path id="&lt;Path&gt;" class="s1" d="m787 191.9c0 3.5 2.7 6.4 6 6.4 3.3 0 5.9-2.9 5.9-6.4 0-3.5-2.6-6.3-5.9-6.3-3.3 0-6 2.8-6 6.3z"/>
				<path id="&lt;Path&gt;" class="s1" d="m791.7 183.3c0 3.5 2.7 6.3 6 6.3 3.3 0 5.9-2.8 5.9-6.3 0-3.5-2.6-6.3-5.9-6.3-3.3 0-6 2.8-6 6.3z"/>
				<path id="&lt;Path&gt;" class="s1" d="m800.4 177.9c0 3.5 2.7 6.3 5.9 6.3 3.3 0 6-2.8 6-6.3 0-3.5-2.7-6.4-6-6.4-3.2 0-5.9 2.9-5.9 6.4z"/>
				<path id="&lt;Path&gt;" class="s1" d="m809.8 179.7c0 3.5 2.6 6.3 5.9 6.3 3.3 0 6-2.8 6-6.3 0-3.5-2.7-6.4-6-6.4-3.3 0-5.9 2.9-5.9 6.4z"/>
				<path id="&lt;Path&gt;" class="s1" d="m819.2 185.1c0 3.5 2.6 6.3 5.9 6.3 3.3 0 6-2.8 6-6.3 0-3.5-2.7-6.3-6-6.3-3.3 0-5.9 2.8-5.9 6.3z"/>
				<path id="&lt;Path&gt;" class="s1" d="m827.4 191.9c0 3.5 2.7 6.4 6 6.4 3.3 0 6-2.9 6-6.4 0-3.5-2.7-6.3-6-6.3-3.3 0-6 2.8-6 6.3z"/>
				<path id="&lt;Path&gt;" class="s1" d="m834.3 198.4c0 3.5 2.7 6.4 6 6.4 3.2 0 5.9-2.9 5.9-6.4 0-3.5-2.7-6.3-5.9-6.3-3.3 0-6 2.8-6 6.3z"/>
				<path id="&lt;Path&gt;" class="s1" d="m841.5 191.9c0 3.5 2.7 6.4 6 6.4 3.3 0 5.9-2.9 5.9-6.4 0-3.5-2.6-6.3-5.9-6.3-3.3 0-6 2.8-6 6.3z"/>
				<path id="&lt;Path&gt;" class="s1" d="m851.6 185.8c0 3.5 2.7 6.4 6 6.4 3.3 0 5.9-2.9 5.9-6.4 0-3.5-2.6-6.3-5.9-6.3-3.3 0-6 2.8-6 6.3z"/>
				<path id="&lt;Path&gt;" class="s1" d="m860.6 181.5c0 3.5 2.7 6.3 6 6.3 3.3 0 6-2.8 6-6.3 0-3.5-2.7-6.4-6-6.4-3.3 0-6 2.9-6 6.4z"/>
				<path id="&lt;Path&gt;" class="s1" d="m870 182.6c0 3.5 2.7 6.3 6 6.3 3.3 0 5.9-2.8 5.9-6.3 0-3.5-2.6-6.4-5.9-6.4-3.3 0-6 2.9-6 6.4z"/>
				<path id="&lt;Path&gt;" class="s1" d="m785.6 202.8c0 3.5 2.7 6.3 5.9 6.3 3.3 0 6-2.8 6-6.3 0-3.5-2.7-6.4-6-6.4-3.2 0-5.9 2.9-5.9 6.4z"/>
				<path id="&lt;Path&gt;" class="s1" d="m830.3 262.3c0 3.5 2.7 6.3 6 6.3 3.3 0 5.9-2.8 5.9-6.3 0-3.5-2.6-6.3-5.9-6.3-3.3 0-6 2.8-6 6.3z"/>
				<path id="&lt;Path&gt;" class="s1" d="m884.4 203.9c0 3.5 2.7 6.4 6 6.4 3.3 0 5.9-2.9 5.9-6.4 0-3.5-2.6-6.3-5.9-6.3-3.3 0-6 2.8-6 6.3z"/>
				<path id="&lt;Path&gt;" class="s4" d="m803.4 178.4c10.8-3 25.8 6 37.3 21.2 12.8-14.1 28.6-21.9 39.1-18 13.3 5 13.1 26.5-0.3 48.1-7.8 12.6-18.3 22.3-28.3 27.4-1.7 1.7-10.6 4.2-13.1 3.9-2.5 0.1-11.2-3.2-12.7-5-9.5-5.9-19.2-16.5-25.8-29.7-11.6-22.7-9.9-44.2 3.8-47.9z"/>
				<path id="&lt;Path&gt;" class="s5" d="m810.8 187.9c8.6-2.4 20.6 4.8 29.8 16.9 10.2-11.3 22.7-17.5 31.1-14.3 10.6 3.9 10.5 21.1-0.2 38.3-6.2 10-14.6 17.8-22.6 21.9-1.3 1.3-8.4 3.3-10.4 3.1-2 0-8.9-2.6-10.1-4-7.7-4.7-15.4-13.2-20.7-23.7-9.2-18.1-7.8-35.2 3.1-38.2z"/>
				<path id="&lt;Path&gt;" class="s6" d="m831.5 218.8c0.3 2.9 2.7 5.2 5.7 5.2 3.1 0 5.6-2.5 5.6-5.7"/>
				<path id="&lt;Path&gt;" class="s4" d="m854.5 224.2c0 1.7 2.1 3 4.7 3 2.6 0 4.6-1.3 4.6-3 0-1.7-2-3-4.6-3-2.6 0-4.7 1.3-4.7 3z"/>
				<path id="&lt;Path&gt;" class="s4" d="m813.2 224.2c0 1.7 2.1 3 4.6 3 2.6 0 4.7-1.3 4.7-3 0-1.7-2.1-3-4.7-3-2.5 0-4.6 1.3-4.6 3z"/>
				<g id="&lt;Group&gt;">
					<g id="&lt;Clip Group&gt;" clip-path="url(#cp3)">
						<path id="&lt;Path&gt;" class="s0" d="m854.6 204.8c-3 0-5.5 3.2-5.5 7.3 0 4 2.5 7.3 5.5 7.3 3 0 5.5-3.3 5.5-7.3 0-4.1-2.5-7.3-5.5-7.3z"/>
						<path id="&lt;Path&gt;" class="s7" d="m848.5 212.3c0 4.4 1.4 7.9 3.1 7.9 1.7 0 3.1-3.5 3.1-7.9 0-4.4-1.4-7.9-3.1-7.9-1.7 0-3.1 3.5-3.1 7.9z"/>
					</g>
					<path id="&lt;Path&gt;" class="s7" d="m849.1 211.7c0 0 1.1-5.9 5.6-6.4 0 0 4.2 0.5 5.4 6.8 0 0 0.4-7.3-5.9-7.6 0 0-4.4-0.1-5.1 7.2z"/>
				</g>
				<g id="&lt;Group&gt;">
					<g id="&lt;Clip Group&gt;" clip-path="url(#cp4)">
						<path id="&lt;Path&gt;" class="s0" d="m822.5 204.8c-3.1 0-5.5 3.2-5.5 7.3 0 4 2.4 7.3 5.5 7.3 3 0 5.5-3.3 5.5-7.3 0-4.1-2.5-7.3-5.5-7.3z"/>
						<path id="&lt;Path&gt;" class="s7" d="m816.4 212.3c0 4.4 1.4 7.9 3.1 7.9 1.7 0 3.1-3.5 3.1-7.9 0-4.4-1.4-7.9-3.1-7.9-1.7 0-3.1 3.5-3.1 7.9z"/>
					</g>
					<path id="&lt;Path&gt;" class="s7" d="m817 211.7c0 0 1-5.9 5.6-6.4 0 0 4.1 0.5 5.4 6.8 0 0 0.4-7.3-5.9-7.6 0 0-4.5-0.1-5.1 7.2z"/>
				</g>
			</g>
		</g>
		<g id="&lt;Group&gt;">
			<g id="&lt;Group&gt;">
				<g id="&lt;Group&gt;">
					<path id="&lt;Path&gt;" class="s2" d=""/>
					<path id="&lt;Path&gt;" class="s8" d="m91.1 9.5v533.5"/>
					<path id="&lt;Path&gt;" class="s2" d=""/>
				</g>
			</g>
			<g id="&lt;Group&gt;">
				<path id="&lt;Path&gt;" class="s9" d="m99.2 495.7l13.5 41.6c1.1 3.5 4.3 5.8 8 5.8h43.7c8.2 0 11.6 10.5 4.9 15.3l-35.3 25.7c-3 2.1-4.2 5.9-3.1 9.4l13.5 41.6c2.6 7.7-6.4 14.2-13 9.4l-35.3-25.7c-3-2.1-7-2.1-9.9 0l-35.4 25.7c-6.6 4.8-15.5-1.7-13-9.4l13.5-41.6c1.1-3.5-0.1-7.3-3.1-9.4l-35.3-25.7c-6.6-4.8-3.2-15.3 5-15.3h43.7c3.6 0 6.9-2.3 8-5.8l13.5-41.6c2.5-7.8 13.5-7.8 16.1 0z"/>
				<path id="&lt;Path&gt;" class="s5" d="m96.7 519.1l9.4 28.9c0.8 2.4 3 4.1 5.6 4.1h30.4c5.7 0 8 7.3 3.4 10.6l-24.6 17.9c-2 1.5-2.9 4.1-2.1 6.5l9.4 28.9c1.8 5.5-4.4 10-9 6.6l-24.6-17.8c-2.1-1.5-4.9-1.5-6.9 0l-24.6 17.8c-4.6 3.4-10.8-1.1-9.1-6.6l9.4-28.9c0.8-2.4 0-5-2.1-6.5l-24.6-17.9c-4.6-3.3-2.2-10.6 3.5-10.6h30.4c2.5 0 4.8-1.7 5.5-4.1l9.4-28.9c1.8-5.4 9.5-5.4 11.2 0z"/>
				<path id="&lt;Path&gt;" class="s6" d="m98.5 569.6c-0.2 2.9-2.6 5.2-5.5 5.2-3.1 0-5.6-2.5-5.6-5.6"/>
				<path id="&lt;Path&gt;" class="s4" d="m75.9 575c0 1.6-2.1 3-4.6 3-2.5 0-4.6-1.4-4.6-3 0-1.7 2.1-3 4.6-3 2.5 0 4.6 1.3 4.6 3z"/>
				<path id="&lt;Path&gt;" class="s4" d="m116.6 575c0 1.6-2 3-4.6 3-2.5 0-4.5-1.4-4.5-3 0-1.7 2-3 4.5-3 2.6 0 4.6 1.3 4.6 3z"/>
				<g id="&lt;Group&gt;">
					<g id="&lt;Clip Group&gt;" clip-path="url(#cp5)">
						<path id="&lt;Path&gt;" class="s0" d="m75.8 555.8c3 0 5.4 3.2 5.4 7.2 0 4-2.4 7.2-5.4 7.2-3 0-5.4-3.2-5.4-7.2 0-4 2.4-7.2 5.4-7.2z"/>
						<path id="&lt;Path&gt;" class="s7" d="m81.8 563.3c0 4.3-1.4 7.8-3.1 7.8-1.7 0-3-3.5-3-7.8 0-4.3 1.3-7.8 3-7.8 1.7 0 3.1 3.5 3.1 7.8z"/>
					</g>
					<path id="&lt;Path&gt;" class="s7" d="m81.2 562.7c0 0-1-5.9-5.5-6.4 0 0-4.1 0.6-5.3 6.7 0 0-0.4-7.1 5.8-7.5 0 0 4.4 0 5 7.2z"/>
				</g>
				<g id="&lt;Group&gt;">
					<g id="&lt;Clip Group&gt;" clip-path="url(#cp6)">
						<path id="&lt;Path&gt;" class="s0" d="m107.5 555.8c3 0 5.4 3.2 5.4 7.2 0 4-2.4 7.2-5.4 7.2-3 0-5.4-3.2-5.4-7.2 0-4 2.4-7.2 5.4-7.2z"/>
						<path id="&lt;Path&gt;" class="s7" d="m113.5 563.3c0 4.3-1.4 7.8-3.1 7.8-1.7 0-3.1-3.5-3.1-7.8 0-4.3 1.4-7.8 3.1-7.8 1.7 0 3.1 3.5 3.1 7.8z"/>
					</g>
					<path id="&lt;Path&gt;" class="s7" d="m112.9 562.7c0 0-1.1-5.9-5.6-6.4 0 0-4 0.6-5.2 6.7 0 0-0.5-7.1 5.8-7.5 0 0 4.3 0 5 7.2z"/>
				</g>
			</g>
		</g>
		<g id="&lt;Group&gt;">
			<g id="&lt;Group&gt;">
				<g id="&lt;Group&gt;">
					<path id="&lt;Path&gt;" class="s2" d=""/>
					<path id="&lt;Path&gt;" class="s10" d="m998.6 2.6v412.9"/>
					<path id="&lt;Path&gt;" class="s2" d=""/>
				</g>
			</g>
			<g id="&lt;Group&gt;">
				<path id="&lt;Path&gt;" class="s9" d="m990.6 368.3l-13.5 41.5c-1.2 3.5-4.4 5.8-8.1 5.8h-43.7c-8.1 0-11.5 10.5-4.9 15.3l35.3 25.7c3 2.1 4.2 6 3.1 9.4l-13.5 41.6c-2.5 7.8 6.4 14.2 13 9.4l35.3-25.6c3-2.2 7-2.2 10 0l35.3 25.6c6.6 4.8 15.5-1.6 13-9.4l-13.5-41.6c-1.1-3.4 0.1-7.3 3.1-9.4l35.3-25.7c6.6-4.8 3.2-15.3-5-15.3h-43.6c-3.7 0-6.9-2.3-8.1-5.8l-13.5-41.5c-2.5-7.8-13.5-7.8-16 0z"/>
				<path id="&lt;Path&gt;" class="s5" d="m993 391.7l-9.4 28.9c-0.8 2.4-3 4-5.6 4h-30.4c-5.6 0-8 7.3-3.4 10.6l24.6 17.9c2 1.5 2.9 4.2 2.1 6.6l-9.4 28.9c-1.7 5.4 4.5 9.9 9.1 6.5l24.5-17.8c2.1-1.5 4.9-1.5 6.9 0l24.6 17.8c4.6 3.4 10.8-1.1 9.1-6.5l-9.4-28.9c-0.8-2.4 0.1-5.1 2.1-6.6l24.6-17.9c4.6-3.3 2.2-10.6-3.5-10.6h-30.3c-2.6 0-4.8-1.6-5.6-4l-9.4-28.9c-1.8-5.5-9.4-5.5-11.2 0z"/>
				<path id="&lt;Path&gt;" class="s6" d="m991.2 442.2c0.2 2.8 2.6 5.1 5.5 5.1 3.1 0 5.6-2.5 5.6-5.6"/>
				<path id="&lt;Path&gt;" class="s4" d="m1013.9 447.5c0 1.6 2 3 4.5 3 2.6 0 4.6-1.4 4.6-3 0-1.7-2-3-4.6-3-2.5 0-4.5 1.3-4.5 3z"/>
				<path id="&lt;Path&gt;" class="s4" d="m973.1 447.5c0 1.6 2.1 3 4.6 3 2.5 0 4.6-1.4 4.6-3 0-1.7-2.1-3-4.6-3-2.5 0-4.6 1.3-4.6 3z"/>
				<g id="&lt;Group&gt;">
					<g id="&lt;Clip Group&gt;" clip-path="url(#cp7)">
						<path id="&lt;Path&gt;" class="s0" d="m1013.9 428.4c-3 0-5.4 3.2-5.4 7.1 0 4 2.4 7.2 5.4 7.2 3 0 5.4-3.2 5.4-7.2 0-3.9-2.4-7.1-5.4-7.1z"/>
						<path id="&lt;Path&gt;" class="s7" d="m1007.9 435.8c0 4.3 1.4 7.8 3.1 7.8 1.7 0 3-3.5 3-7.8 0-4.3-1.3-7.8-3-7.8-1.7 0-3.1 3.5-3.1 7.8z"/>
					</g>
					<path id="&lt;Path&gt;" class="s7" d="m1008.5 435.2c0 0 1-5.9 5.6-6.3 0 0 4 0.5 5.2 6.6 0 0 0.5-7.1-5.8-7.4 0 0-4.4-0.1-5 7.1z"/>
				</g>
				<g id="&lt;Group&gt;">
					<g id="&lt;Clip Group&gt;" clip-path="url(#cp8)">
						<path id="&lt;Path&gt;" class="s0" d="m982.2 428.4c-3 0-5.4 3.2-5.4 7.1 0 4 2.4 7.2 5.4 7.2 3 0 5.5-3.2 5.5-7.2 0-3.9-2.5-7.1-5.5-7.1z"/>
						<path id="&lt;Path&gt;" class="s7" d="m976.2 435.8c0 4.3 1.4 7.8 3.1 7.8 1.7 0 3.1-3.5 3.1-7.8 0-4.3-1.4-7.8-3.1-7.8-1.7 0-3.1 3.5-3.1 7.8z"/>
					</g>
					<path id="&lt;Path&gt;" class="s7" d="m976.8 435.2c0 0 1.1-5.9 5.6-6.3 0 0 4 0.5 5.3 6.6 0 0 0.4-7.1-5.9-7.4 0 0-4.3-0.1-5 7.1z"/>
				</g>
			</g>
		</g>
		<g id="&lt;Group&gt;">
			<g id="&lt;Group&gt;">
				<path id="&lt;Path&gt;" class="s11" d="m515.9 248.7l-2.1-2.1c0.4-0.5 48.2-49.8 103.2-63.5l0.7 2.9c-54.1 13.5-101.3 62.2-101.8 62.7z"/>
			</g>
			<g id="&lt;Group&gt;">
				<path id="&lt;Path&gt;" class="s11" d="m566.4 208.2l-2.6-1.4c0.6-1.1 14.1-26.1 32.9-38.9l1.7 2.5c-18.2 12.3-31.8 37.5-32 37.8z"/>
			</g>
			<g id="&lt;Group&gt;">
				<path id="&lt;Path&gt;" class="s11" d="m555.2 223.3c-6.1 0-9.9-0.2-10-0.2l0.2-3c0.5 0 47.6 2.9 83.3-12.6l1.2 2.8c-26.3 11.4-58.6 13-74.7 13z"/>
			</g>
			<g id="&lt;Group&gt;">
				<path id="&lt;Path&gt;" class="s4" d="m603.3 167.5c0 3.5-2.8 6.3-6.3 6.3-3.5 0-6.4-2.8-6.4-6.3 0-3.5 2.9-6.3 6.4-6.3 3.5 0 6.3 2.8 6.3 6.3z"/>
				<path id="&lt;Path&gt;" class="s12" d="m598.1 171.9c-6.4 0-6.6-9-1.4-10.7-3.4 0.1-6.1 2.9-6.1 6.3 0 3.5 2.9 6.3 6.4 6.3 3.2 0 5.8-2.4 6.3-5.5-0.8 2-2.5 3.6-5.2 3.6z"/>
				<path id="&lt;Path&gt;" class="s13" d="m601.9 167.6c0 1.1-1 2-2.1 2-1.2 0-2.1-0.9-2.1-2 0-1.2 0.9-2.1 2.1-2.1 1.1 0 2.1 0.9 2.1 2.1z"/>
			</g>
			<g id="&lt;Group&gt;">
				<path id="&lt;Path&gt;" class="s4" d="m622.2 185.5c0 3.5-2.8 6.4-6.3 6.4-3.5 0-6.3-2.9-6.3-6.4 0-3.5 2.8-6.3 6.3-6.3 3.5 0 6.3 2.8 6.3 6.3z"/>
				<path id="&lt;Path&gt;" class="s12" d="m617 189.9c-6.4 0-6.6-8.9-1.4-10.7-3.4 0.1-6 2.9-6 6.3 0 3.5 2.8 6.4 6.3 6.4 3.2 0 5.9-2.4 6.3-5.6-0.8 2-2.5 3.6-5.2 3.6z"/>
				<path id="&lt;Path&gt;" class="s13" d="m620.8 185.6c0 1.1-0.9 2.1-2.1 2.1-1.1 0-2.1-1-2.1-2.1 0-1.1 1-2.1 2.1-2.1 1.2 0 2.1 1 2.1 2.1z"/>
			</g>
			<g id="&lt;Group&gt;">
				<path id="&lt;Path&gt;" class="s4" d="m633.5 209.6c0 3.5-2.9 6.4-6.4 6.4-3.5 0-6.3-2.9-6.3-6.4 0-3.5 2.8-6.3 6.3-6.3 3.5 0 6.4 2.8 6.4 6.3z"/>
				<path id="&lt;Path&gt;" class="s12" d="m628.3 214c-6.4 0-6.6-8.9-1.4-10.7-3.4 0.1-6.1 2.9-6.1 6.3 0 3.5 2.8 6.4 6.3 6.4 3.3 0 5.9-2.4 6.3-5.6-0.7 2-2.5 3.6-5.1 3.6z"/>
				<path id="&lt;Path&gt;" class="s13" d="m632 209.7c0 1.1-0.9 2.1-2 2.1-1.2 0-2.1-1-2.1-2.1 0-1.1 0.9-2.1 2.1-2.1 1.1 0 2 1 2 2.1z"/>
			</g>
		</g>
		<g id="&lt;Group&gt;">
			<g id="&lt;Group&gt;">
				<path id="&lt;Path&gt;" class="s11" d="m920.7 647.1l-1.8-1c0.3-0.5 24.5-40.6 58.9-58.2l1 1.8c-34 17.3-57.9 57-58.1 57.4z"/>
			</g>
			<g id="&lt;Group&gt;">
				<path id="&lt;Path&gt;" class="s11" d="m948.1 612.3l-2-0.5c0.2-0.8 5.4-19.5 15.9-30.9l1.5 1.3c-10.2 11.1-15.4 30-15.4 30.1z"/>
			</g>
			<g id="&lt;Group&gt;">
				<path id="&lt;Path&gt;" class="s11" d="m943 624.2c-4.1 0.9-6.7 1.3-6.7 1.3l-0.4-2c0.3 0 32.2-5.4 53.5-21.2l1.2 1.6c-15.7 11.7-37 17.8-47.6 20.3z"/>
			</g>
			<g id="&lt;Group&gt;">
				<path id="&lt;Path&gt;" class="s4" d="m966.3 579.6c0.6 2.3-0.9 4.6-3.2 5.2-2.3 0.5-4.7-0.9-5.2-3.3-0.5-2.3 0.9-4.6 3.2-5.2 2.4-0.5 4.7 0.9 5.2 3.3z"/>
				<path id="&lt;Path&gt;" class="s12" d="m963.6 583.3c-4.3 1-5.8-4.9-2.6-6.9-2.3 0.6-3.6 2.9-3.1 5.1 0.5 2.4 2.9 3.8 5.2 3.3 2.1-0.5 3.5-2.5 3.3-4.7-0.2 1.5-1.1 2.8-2.8 3.2z"/>
				<path id="&lt;Path&gt;" class="s13" d="m965.4 579.9c0.2 0.7-0.3 1.5-1.1 1.6-0.7 0.2-1.5-0.2-1.7-1-0.1-0.8 0.3-1.5 1.1-1.7 0.8-0.2 1.5 0.3 1.7 1.1z"/>
			</g>
			<g id="&lt;Group&gt;">
				<path id="&lt;Path&gt;" class="s4" d="m981.7 588.7c0.6 2.3-0.9 4.6-3.2 5.2-2.3 0.5-4.7-1-5.2-3.3-0.6-2.3 0.9-4.6 3.2-5.2 2.4-0.5 4.7 0.9 5.2 3.3z"/>
				<path id="&lt;Path&gt;" class="s12" d="m978.9 592.4c-4.2 1-5.7-5-2.6-6.9-2.2 0.6-3.5 2.8-3 5.1 0.5 2.3 2.9 3.8 5.2 3.3 2.1-0.5 3.5-2.6 3.3-4.7-0.2 1.4-1.1 2.8-2.9 3.2z"/>
				<path id="&lt;Path&gt;" class="s13" d="m980.8 588.9c0.1 0.8-0.3 1.6-1.1 1.7-0.8 0.2-1.5-0.3-1.7-1-0.2-0.8 0.3-1.5 1.1-1.7 0.7-0.2 1.5 0.3 1.7 1z"/>
			</g>
			<g id="&lt;Group&gt;">
				<path id="&lt;Path&gt;" class="s4" d="m992.9 603c0.6 2.3-0.9 4.6-3.2 5.2-2.3 0.5-4.7-1-5.2-3.3-0.5-2.3 0.9-4.6 3.2-5.2 2.4-0.5 4.7 0.9 5.2 3.3z"/>
				<path id="&lt;Path&gt;" class="s12" d="m990.1 606.7c-4.2 1-5.7-4.9-2.6-6.9-2.2 0.6-3.5 2.9-3 5.1 0.5 2.3 2.9 3.8 5.2 3.3 2.1-0.5 3.5-2.5 3.3-4.7-0.2 1.4-1.1 2.8-2.9 3.2z"/>
				<path id="&lt;Path&gt;" class="s13" d="m992 603.2c0.1 0.8-0.3 1.6-1.1 1.7-0.7 0.2-1.5-0.3-1.7-1-0.2-0.8 0.3-1.5 1.1-1.7 0.7-0.2 1.5 0.3 1.7 1z"/>
			</g>
		</g>
		<g id="&lt;Group&gt;">
			<g id="&lt;Group&gt;">
				<g id="&lt;Group&gt;">
					<path id="&lt;Path&gt;" class="s14" d="m840.3 722.6c39.8-32.6 69-76.9 83.4-126.3 1.1-3.7-4.7-5.3-5.8-1.5-14.1 48.3-42.8 91.6-81.8 123.5-3 2.5 1.3 6.7 4.2 4.3z"/>
				</g>
			</g>
			<g id="&lt;Clip Group&gt;" clip-path="url(#cp9)">
				<g id="&lt;Group&gt;">
					<path id="&lt;Path&gt;" class="s14" d="m918.3 609.5c16-4.8 27.3-21.8 25.6-38.4-0.2-2.5-0.8-5-2.3-7-2.6-3.1-7.3-3.8-11.1-2.5-3.9 1.3-6.9 4.3-9.3 7.6-7.6 10.2-10.1 24-6.7 36.3z"/>
				</g>
				<g id="&lt;Group&gt;" style="opacity: .3">
					<path id="&lt;Path&gt;" class="s11" d="m919 608.5c10.7-3.1 18.3-14.5 17.1-25.5-0.1-1.7-0.5-3.4-1.6-4.7-1.7-2.1-4.8-2.5-7.3-1.7-2.6 0.9-4.6 2.9-6.2 5.1-5 6.8-6.8 16-4.5 24.2z"/>
				</g>
				<path id="&lt;Path&gt;" class="s15" d="m916.2 611.6c0 0 22.3-43.6 21.8-55.2"/>
				<path id="&lt;Path&gt;" class="s15" d="m945.9 574.6c0 0-14.2 5.8-15.1 5.8-0.9 0-8.5-15.6-8.5-15.6"/>
				<path id="&lt;Path&gt;" class="s15" d="m942.6 590.9l-19.6 7c0 0-10.6-15.5-11.9-18.1"/>
				<g id="&lt;Group&gt;" style="opacity: .3">
					<path id="&lt;Path&gt;" class="s0" d="m930.5 561.6c3.8-1.3 8.5-0.6 11.1 2.5q0.4 0.6 0.7 1.1c-2.7-2.2-6.7-2.6-10.1-1.4-3.8 1.3-6.8 4.3-9.2 7.5-7.5 10.2-10.1 23.8-6.8 36l-1.7-1.8c-3.4-12.3-0.9-26.1 6.7-36.3 2.4-3.3 5.4-6.3 9.3-7.6z"/>
				</g>
			</g>
			<g id="&lt;Clip Group&gt;" clip-path="url(#cp10)">
				<g id="&lt;Group&gt;">
					<path id="&lt;Path&gt;" class="s14" d="m905 634.1c8.9-14.1 6.2-34.4-6-45.8-1.8-1.7-4-3.2-6.4-3.6-4-0.7-8 1.8-10 5.4-2 3.5-2.3 7.7-2 11.8 1.1 12.7 8.3 24.7 18.9 31.7z"/>
				</g>
				<g id="&lt;Group&gt;" style="opacity: .3">
					<path id="&lt;Path&gt;" class="s11" d="m904.9 632.9c5.9-9.4 4.2-22.9-4-30.5-1.2-1.1-2.6-2.2-4.2-2.4-2.7-0.5-5.4 1.2-6.7 3.6-1.3 2.3-1.5 5.1-1.3 7.8 0.7 8.5 5.5 16.5 12.6 21.2z"/>
				</g>
				<path id="&lt;Path&gt;" class="s15" d="m904.8 637.1c0 0-12-47.5-20-55.9"/>
				<path id="&lt;Path&gt;" class="s15" d="m902.8 589.6c0 0-6.9 13.8-7.6 14.4-0.6 0.6-16.7-6.2-16.7-6.2"/>
				<path id="&lt;Path&gt;" class="s15" d="m911 604.1l-10.1 18.2c0 0-18.2-4.6-20.8-5.8"/>
				<g id="&lt;Group&gt;" style="opacity: .3">
					<path id="&lt;Path&gt;" class="s0" d="m882.6 590.1c2-3.6 6-6.1 10-5.4q0.7 0.1 1.3 0.3c-3.5 0.1-6.8 2.4-8.6 5.5-2 3.5-2.3 7.8-1.9 11.8 1 12.6 8.1 24.5 18.5 31.6l-2.4-0.3c-10.6-7-17.8-19-18.9-31.7-0.3-4.1 0-8.3 2-11.8z"/>
				</g>
			</g>
			<g id="&lt;Clip Group&gt;" clip-path="url(#cp11)">
				<g id="&lt;Group&gt;">
					<path id="&lt;Path&gt;" class="s14" d="m885.5 668.4c8.9-14.1 6.2-34.4-6-45.8-1.8-1.7-3.9-3.2-6.4-3.7-4-0.6-8 1.9-10 5.5-2 3.5-2.3 7.7-2 11.7 1.1 12.8 8.3 24.8 18.9 31.8z"/>
				</g>
				<g id="&lt;Group&gt;" style="opacity: .3">
					<path id="&lt;Path&gt;" class="s11" d="m885.4 667.2c6-9.4 4.2-22.9-3.9-30.5-1.3-1.1-2.7-2.2-4.3-2.5-2.7-0.4-5.4 1.3-6.7 3.6-1.3 2.4-1.5 5.2-1.3 7.9 0.7 8.5 5.5 16.5 12.6 21.2z"/>
				</g>
				<path id="&lt;Path&gt;" class="s15" d="m885.3 671.4c0 0-11.9-47.5-19.9-56"/>
				<path id="&lt;Path&gt;" class="s15" d="m883.3 623.9c0 0-6.9 13.8-7.5 14.4-0.7 0.6-16.8-6.2-16.8-6.2"/>
				<path id="&lt;Path&gt;" class="s15" d="m891.5 638.4l-10.1 18.2c0 0-18.2-4.6-20.8-5.8"/>
				<g id="&lt;Group&gt;" style="opacity: .3">
					<path id="&lt;Path&gt;" class="s0" d="m863.1 624.4c2-3.6 6-6.1 10-5.5q0.7 0.2 1.3 0.4c-3.5 0.1-6.8 2.4-8.6 5.5-2 3.5-2.3 7.8-1.9 11.8 1 12.6 8.1 24.5 18.6 31.5l-2.5-0.2c-10.6-7-17.8-19-18.9-31.8-0.3-4 0-8.2 2-11.7z"/>
				</g>
			</g>
			<g id="&lt;Clip Group&gt;" clip-path="url(#cp12)">
				<g id="&lt;Group&gt;">
					<path id="&lt;Path&gt;" class="s14" d="m906 636.6c6.2-15.5 24.1-25.3 40.5-22.1 2.5 0.5 5 1.3 6.8 3 2.9 2.9 3.2 7.7 1.5 11.3-1.7 3.7-4.9 6.4-8.4 8.5-10.9 6.7-24.9 8-36.8 3.4z"/>
				</g>
				<g id="&lt;Group&gt;" style="opacity: .3">
					<path id="&lt;Path&gt;" class="s11" d="m907 635.9c4.1-10.3 16.1-16.8 27-14.7 1.6 0.3 3.3 0.9 4.5 2 1.9 1.9 2.1 5.1 1 7.6-1.1 2.4-3.3 4.2-5.6 5.6-7.2 4.4-16.6 5.3-24.5 2.3z"/>
				</g>
				<path id="&lt;Path&gt;" class="s15" d="m903.7 638.5c0 0 45.4-18.3 57-16.7"/>
				<path id="&lt;Path&gt;" class="s15" d="m943.3 612.2c0 0-7.1 13.7-7.2 14.6-0.1 0.8 14.8 9.9 14.8 9.9"/>
				<path id="&lt;Path&gt;" class="s15" d="m926.7 614.1l-8.7 18.8c0 0 14.4 12.1 16.9 13.5"/>
				<g id="&lt;Group&gt;" style="opacity: .3">
					<path id="&lt;Path&gt;" class="s0" d="m954.8 628.8c1.7-3.6 1.4-8.4-1.5-11.3q-0.5-0.4-1.1-0.8c2 2.9 2.1 6.9 0.6 10.2-1.7 3.7-4.9 6.4-8.4 8.5-10.8 6.5-24.6 7.9-36.4 3.5l1.6 1.8c11.9 4.6 25.9 3.3 36.8-3.4 3.5-2.1 6.7-4.8 8.4-8.5z"/>
				</g>
			</g>
			<g id="&lt;Clip Group&gt;" clip-path="url(#cp13)">
				<g id="&lt;Group&gt;">
					<path id="&lt;Path&gt;" class="s14" d="m885.3 668.4c8.4-14.4 27.6-21.5 43.4-15.9 2.3 0.8 4.7 2 6.2 3.9 2.5 3.3 2.1 8-0.1 11.4-2.2 3.4-5.8 5.7-9.6 7.2-11.7 5-25.7 4.2-36.9-2z"/>
				</g>
				<g id="&lt;Group&gt;" style="opacity: .3">
					<path id="&lt;Path&gt;" class="s11" d="m886.5 667.9c5.6-9.6 18.3-14.3 28.8-10.6 1.6 0.5 3.2 1.3 4.2 2.6 1.6 2.2 1.3 5.3-0.1 7.6-1.5 2.3-3.9 3.7-6.4 4.8-7.8 3.3-17.1 2.8-24.6-1.3z"/>
				</g>
				<path id="&lt;Path&gt;" class="s15" d="m882.8 670c0 0 47.6-11.5 58.8-8.3"/>
				<path id="&lt;Path&gt;" class="s15" d="m925.8 649.7c0 0-9 12.5-9.2 13.4-0.3 0.8 13.2 11.9 13.2 11.9"/>
				<path id="&lt;Path&gt;" class="s15" d="m909.1 649.2l-11.4 17.3c0 0 12.6 14 14.8 15.8"/>
				<g id="&lt;Group&gt;" style="opacity: .3">
					<path id="&lt;Path&gt;" class="s0" d="m934.8 667.8c2.2-3.4 2.6-8.1 0.1-11.4q-0.4-0.5-0.9-1c1.6 3.2 1 7.2-0.9 10.2-2.2 3.4-5.8 5.6-9.5 7.2-11.7 4.9-25.5 4.2-36.6-1.8l1.3 2c11.2 6.2 25.2 7 36.9 2 3.8-1.5 7.4-3.8 9.6-7.2z"/>
				</g>
			</g>
			<g id="&lt;Clip Group&gt;" clip-path="url(#cp14)">
				<g id="&lt;Group&gt;">
					<path id="&lt;Path&gt;" class="s14" d="m860.6 700.8c8.4-14.5 27.6-21.5 43.3-16 2.4 0.8 4.7 2 6.3 4 2.4 3.2 2 8-0.2 11.4-2.2 3.4-5.8 5.6-9.5 7.2-11.8 4.9-25.8 4.2-36.9-2z"/>
				</g>
				<g id="&lt;Group&gt;" style="opacity: .3">
					<path id="&lt;Path&gt;" class="s11" d="m861.7 700.2c5.6-9.6 18.4-14.3 28.9-10.6 1.5 0.6 3.1 1.3 4.1 2.7 1.6 2.1 1.4 5.3-0.1 7.5-1.4 2.3-3.8 3.8-6.3 4.8-7.9 3.3-17.2 2.8-24.6-1.3z"/>
				</g>
				<path id="&lt;Path&gt;" class="s15" d="m858 702.3c0 0 47.7-11.5 58.9-8.3"/>
				<path id="&lt;Path&gt;" class="s15" d="m901 682.1c0 0-8.9 12.4-9.2 13.3-0.2 0.8 13.2 11.9 13.2 11.9"/>
				<path id="&lt;Path&gt;" class="s15" d="m884.4 681.5l-11.4 17.4c0 0 12.5 14 14.8 15.8"/>
				<g id="&lt;Group&gt;" style="opacity: .3">
					<path id="&lt;Path&gt;" class="s0" d="m910 700.2c2.2-3.4 2.6-8.2 0.2-11.4q-0.5-0.6-1-1c1.6 3.1 1.1 7.1-0.9 10.1-2.2 3.4-5.8 5.7-9.5 7.2-11.6 4.9-25.5 4.2-36.6-1.8l1.4 2.1c11.1 6.2 25.1 6.9 36.9 2 3.7-1.6 7.3-3.8 9.5-7.2z"/>
				</g>
			</g>
		</g>
		<g id="&lt;Group&gt;">
			<g id="&lt;Clip Group&gt;" clip-path="url(#cp15)">
				<g id="&lt;Group&gt;">
					<path id="&lt;Path&gt;" class="s1" d="m941.7 657.5c-7.7-3-17.1-10.1-22.4-16.5-2.7-3.2-5-6.9-5.4-11.1-0.4-4.2 1.6-8.8 5.5-10.3 2.9-1.2 6.3-0.4 8.9 1.3 2.6 1.8 4.5 4.4 6.1 7 4.5 7.6 7 16.3 7.1 25.1z"/>
				</g>
				<path id="&lt;Path&gt;" class="s16" d="m938.7 652.7c0 0-14.2-14.8-10.7-16.3 3.4-1.5 10.7 16.3 10.7 16.3z"/>
				<path id="&lt;Path&gt;" class="s17" d="m943.3 659.2c0 0-28.6-22.3-29.9-38.6"/>
				<path id="&lt;Path&gt;" class="s17" d="m941.9 660.8c0 0-1.8-26.8-21.4-43.5"/>
			</g>
			<g id="&lt;Clip Group&gt;" clip-path="url(#cp16)">
				<g id="&lt;Group&gt;">
					<path id="&lt;Path&gt;" class="s1" d="m939.8 662.3c-0.9-8.3 0.9-19.9 4-27.6 1.6-3.9 3.8-7.7 7.3-10 3.5-2.3 8.5-2.7 11.7 0 2.4 2.1 3.3 5.4 3 8.5-0.3 3.1-1.7 6-3.3 8.7-4.6 7.5-11.1 13.8-18.8 18.1z"/>
				</g>
				<path id="&lt;Path&gt;" class="s16" d="m942.6 657.3c0 0 6.4-19.4 9.4-17.1 2.9 2.3-9.4 17.1-9.4 17.1z"/>
				<path id="&lt;Path&gt;" class="s17" d="m939.1 664.4c0 0 6.1-35.7 20-44.6"/>
				<path id="&lt;Path&gt;" class="s17" d="m937 664c0 0 22.8-14.3 28.3-39.4"/>
			</g>
			<g id="&lt;Clip Group&gt;" clip-path="url(#cp17)">
				<g id="&lt;Group&gt;">
					<path id="&lt;Path&gt;" class="s4" d="m942.7 659.8c-8.3 0.5-19.8-1.8-27.3-5.3-3.8-1.8-7.5-4.2-9.7-7.8-2.1-3.6-2.3-8.6 0.6-11.7 2.2-2.2 5.5-3 8.6-2.5 3.1 0.4 5.9 2 8.5 3.7 7.3 4.9 13.3 11.7 17.2 19.6z"/>
				</g>
				<g id="&lt;Group&gt;" style="opacity: .2">
					<path id="&lt;Path&gt;" class="s0" d="m920 634.9q0.4-0.2 0.7-0.4c-1.8-0.9-3.7-1.7-5.8-2-3.1-0.5-6.4 0.3-8.6 2.5-2.9 3.1-2.7 8.1-0.6 11.7 1 1.7 2.3 3 3.8 4.2 1.2-6.4 4.6-13 10.5-16z"/>
				</g>
				<g id="&lt;Group&gt;" style="opacity: .3">
					<path id="&lt;Path&gt;" class="s0" d="m941.8 659.1c-5.1 0.4-12.1-1-16.7-3.2-2.4-1-4.7-2.5-6-4.7-1.3-2.2-1.4-5.3 0.4-7.1 1.3-1.4 3.4-1.9 5.3-1.6 1.9 0.3 3.6 1.2 5.2 2.2 4.5 3 8.2 7.2 10.5 12z"/>
				</g>
				<path id="&lt;Path&gt;" class="s4" d="m937.9 656.8c0 0-19.1-7.4-16.7-10.2 2.5-2.8 16.7 10.2 16.7 10.2z"/>
				<path id="&lt;Path&gt;" class="s17" d="m944.8 660.6c0 0-35.3-7.8-43.5-22.1"/>
				<path id="&lt;Path&gt;" class="s17" d="m944.3 662.7c0 0-13.1-23.5-38-30.2"/>
			</g>
			<g id="&lt;Clip Group&gt;" clip-path="url(#cp18)">
				<g id="&lt;Group&gt;">
					<path id="&lt;Path&gt;" class="s4" d="m942.1 660.6c-5.2-6.5-9.8-17.2-11.2-25.4-0.8-4.2-0.9-8.6 0.8-12.4 1.7-3.8 5.8-6.8 9.9-6.2 3.1 0.5 5.7 2.8 7.1 5.6 1.3 2.8 1.7 6 1.8 9.1 0.1 8.8-2.1 17.6-6.3 25.3z"/>
				</g>
				<g id="&lt;Group&gt;" style="opacity: .2">
					<path id="&lt;Path&gt;" class="s0" d="m949.6 627.8q0.3 0.2 0.7 0.4c-0.3-2.1-0.7-4.1-1.6-6-1.4-2.8-4-5.1-7.1-5.6-4.1-0.6-8.2 2.4-9.9 6.2-0.8 1.7-1.2 3.6-1.3 5.5 5.9-2.7 13.4-3.6 19.2-0.5z"/>
				</g>
				<g id="&lt;Group&gt;" style="opacity: .3">
					<path id="&lt;Path&gt;" class="s0" d="m942.1 659.5c-3.1-4-6-10.6-6.9-15.6-0.5-2.5-0.6-5.2 0.5-7.5 1-2.4 3.5-4.2 6.1-3.8 1.9 0.3 3.4 1.7 4.3 3.4 0.8 1.7 1.1 3.7 1.1 5.6 0.1 5.4-1.2 10.8-3.8 15.5z"/>
				</g>
				<path id="&lt;Path&gt;" class="s4" d="m941.9 654.9c0 0-5-19.8-1.2-19.4 3.7 0.3 1.2 19.4 1.2 19.4z"/>
				<path id="&lt;Path&gt;" class="s17" d="m942.6 662.8c0 0-13.7-33.5-6.7-48.3"/>
				<path id="&lt;Path&gt;" class="s17" d="m940.6 663.6c0 0 11.8-24.2 3.1-48.5"/>
			</g>
			<g id="&lt;Clip Group&gt;" clip-path="url(#cp19)">
				<g id="&lt;Group&gt;">
					<path id="&lt;Path&gt;" class="s4" d="m941 660.6c3.2-7.7 10.4-16.9 16.9-22.1 3.3-2.6 7.1-4.9 11.3-5.2 4.2-0.3 8.8 1.8 10.2 5.8 1.1 2.9 0.2 6.3-1.6 8.8-1.7 2.6-4.4 4.4-7.1 6-7.6 4.3-16.4 6.6-25.2 6.6z"/>
				</g>
				<g id="&lt;Group&gt;" style="opacity: .2">
					<path id="&lt;Path&gt;" class="s0" d="m973.4 651.4q0 0.4 0 0.8c1.7-1.2 3.3-2.6 4.4-4.3 1.8-2.5 2.7-5.9 1.6-8.8-1.4-4-6-6.1-10.2-5.8-1.9 0.1-3.7 0.7-5.4 1.5 5.2 3.9 9.6 10 9.6 16.6z"/>
				</g>
				<g id="&lt;Group&gt;" style="opacity: .3">
					<path id="&lt;Path&gt;" class="s0" d="m942 660.1c1.9-4.7 6.4-10.4 10.3-13.6 2-1.6 4.4-3 6.9-3.2 2.6-0.2 5.4 1.1 6.2 3.5 0.7 1.8 0.2 3.9-0.9 5.5-1.1 1.5-2.7 2.7-4.4 3.6-4.6 2.7-10 4.1-15.4 4.1z"/>
				</g>
				<path id="&lt;Path&gt;" class="s4" d="m945.9 657.6c0 0 15-13.8 16.5-10.4 1.4 3.5-16.5 10.4-16.5 10.4z"/>
				<path id="&lt;Path&gt;" class="s17" d="m939.3 662.1c0 0 22.8-28.1 39.2-29.1"/>
				<path id="&lt;Path&gt;" class="s17" d="m937.7 660.6c0 0 26.8-1.2 44-20.4"/>
			</g>
		</g>
		<g id="&lt;Group&gt;">
			<g id="&lt;Clip Group&gt;" clip-path="url(#cp20)">
				<g id="&lt;Group&gt;">
					<path id="&lt;Path&gt;" class="s1" d="m258.9 552.8c-9.3 5.6-24 9.9-34.8 10.4-5.5 0.3-11.2-0.2-15.9-3.1-4.7-2.8-7.9-8.6-6.4-13.8 1.1-4 4.5-6.9 8.4-8.2 3.8-1.4 8-1.3 12-0.9 11.5 1.2 22.5 5.5 31.8 12.2z"/>
				</g>
				<path id="&lt;Path&gt;" class="s16" d="m251.5 552.2c0 0-26.6 3.1-25.5-1.6 1.1-4.8 25.5 1.6 25.5 1.6z"/>
				<path id="&lt;Path&gt;" class="s17" d="m261.8 552.4c0 0-45.6 12.4-63.8 1"/>
				<path id="&lt;Path&gt;" class="s17" d="m262.5 555.2c0 0-29.5-19.2-62.3-11.8"/>
			</g>
			<g id="&lt;Clip Group&gt;" clip-path="url(#cp21)">
				<g id="&lt;Group&gt;">
					<path id="&lt;Path&gt;" class="s1" d="m262.3 558.5c-9.3-5.5-20-16.5-25.6-25.8-2.8-4.7-5.1-10-4.7-15.4 0.3-5.5 3.8-11.1 9.2-12.2 4-0.9 8.2 0.8 11.2 3.5 3 2.8 4.9 6.5 6.4 10.3 4.3 10.6 5.8 22.4 4.2 33.8z"/>
				</g>
				<path id="&lt;Path&gt;" class="s16" d="m259.4 551.7c0 0-15.3-21.9-10.6-23.2 4.7-1.3 10.6 23.2 10.6 23.2z"/>
				<path id="&lt;Path&gt;" class="s17" d="m264 560.9c0 0-32.4-34.4-30.8-55.8"/>
				<path id="&lt;Path&gt;" class="s17" d="m261.9 562.8c0 0 3-35-18.9-60.5"/>
			</g>
			<g id="&lt;Clip Group&gt;" clip-path="url(#cp22)">
				<g id="&lt;Group&gt;">
					<path id="&lt;Path&gt;" class="s4" d="m262 553.6c-5.9 9-17.4 19.2-27 24.3-4.8 2.6-10.2 4.6-15.6 4-5.5-0.6-10.9-4.4-11.8-9.8-0.7-4 1.2-8.2 4.1-11 2.9-2.9 6.7-4.6 10.5-6 10.9-3.7 22.7-4.6 34-2.5z"/>
				</g>
				<g id="&lt;Group&gt;" style="opacity: .2">
					<path id="&lt;Path&gt;" class="s0" d="m218.2 557.7q0.1-0.5 0.2-1c-2.4 1.1-4.8 2.5-6.7 4.4-2.9 2.8-4.8 7-4.1 11 0.9 5.4 6.3 9.2 11.8 9.8 2.4 0.3 4.9 0 7.3-0.6-5.8-6.3-10-15.1-8.5-23.6z"/>
				</g>
				<g id="&lt;Group&gt;" style="opacity: .3">
					<path id="&lt;Path&gt;" class="s0" d="m260.7 554c-3.7 5.5-10.7 11.8-16.6 14.9-2.9 1.6-6.2 2.9-9.6 2.5-3.3-0.3-6.6-2.7-7.1-6-0.4-2.4 0.7-5 2.5-6.8 1.8-1.7 4.1-2.8 6.4-3.6 6.7-2.3 13.9-2.9 20.8-1.6z"/>
				</g>
				<path id="&lt;Path&gt;" class="s4" d="m255.1 556.2c0 0-22.7 14.2-23.7 9.4-1.1-4.8 23.7-9.4 23.7-9.4z"/>
				<path id="&lt;Path&gt;" class="s17" d="m264.5 552c0 0-35.9 30.7-57.2 28.1"/>
				<path id="&lt;Path&gt;" class="s17" d="m266.3 554.2c0 0-34.8-4.7-61.3 15.9"/>
			</g>
			<g id="&lt;Clip Group&gt;" clip-path="url(#cp23)">
				<g id="&lt;Group&gt;">
					<path id="&lt;Path&gt;" class="s4" d="m262.4 554.8c-10.8 0.3-25.7-3.3-35.4-8.2-4.8-2.5-9.6-5.8-12.2-10.6-2.6-4.8-2.6-11.4 1.3-15.2 2.9-2.9 7.4-3.7 11.4-3 4 0.8 7.6 2.9 10.9 5.3 9.3 6.7 16.8 15.9 21.5 26.4z"/>
				</g>
				<g id="&lt;Group&gt;" style="opacity: .2">
					<path id="&lt;Path&gt;" class="s0" d="m234 521.3q0.5-0.3 1-0.5c-2.4-1.4-4.9-2.5-7.5-3-4-0.7-8.5 0.1-11.4 3-3.9 3.8-3.9 10.4-1.3 15.2 1.2 2.2 2.8 4.1 4.7 5.7 1.9-8.3 6.7-16.8 14.5-20.4z"/>
				</g>
				<g id="&lt;Group&gt;" style="opacity: .3">
					<path id="&lt;Path&gt;" class="s0" d="m261.3 553.9c-6.7 0.2-15.8-2-21.7-5-3-1.5-5.9-3.5-7.5-6.4-1.6-2.9-1.6-7 0.8-9.3 1.8-1.8 4.5-2.3 7-1.8 2.4 0.4 4.6 1.7 6.7 3.2 5.7 4.1 10.3 9.7 13.1 16.1z"/>
				</g>
				<path id="&lt;Path&gt;" class="s4" d="m256.3 550.6c0 0-24.6-10.4-21.3-14 3.3-3.6 21.3 14 21.3 14z"/>
				<path id="&lt;Path&gt;" class="s17" d="m265.1 556c0 0-45.7-11.9-55.7-30.9"/>
				<path id="&lt;Path&gt;" class="s17" d="m264.3 558.7c0 0-16-31.3-48.1-41.2"/>
			</g>
			<g id="&lt;Clip Group&gt;" clip-path="url(#cp24)">
				<g id="&lt;Group&gt;">
					<path id="&lt;Path&gt;" class="s4" d="m261.5 556c-5.5-9.4-9.4-24.2-9.7-35.1-0.2-5.5 0.4-11.2 3.4-15.8 2.9-4.6 8.7-7.7 14-6.1 3.9 1.2 6.7 4.7 8 8.6 1.3 3.8 1.1 8 0.6 12-1.4 11.4-6 22.4-12.9 31.6z"/>
				</g>
				<g id="&lt;Group&gt;" style="opacity: .2">
					<path id="&lt;Path&gt;" class="s0" d="m277.3 514.9q0.5 0.3 0.9 0.7c0.1-2.8-0.2-5.5-1-8-1.3-3.9-4.1-7.4-8-8.6-5.2-1.6-11.1 1.5-14 6.1-1.4 2.1-2.2 4.4-2.7 6.8 8.1-2.3 17.9-2.1 24.8 3z"/>
				</g>
				<g id="&lt;Group&gt;" style="opacity: .3">
					<path id="&lt;Path&gt;" class="s0" d="m261.7 554.5c-3.3-5.7-5.8-14.8-6-21.4-0.1-3.4 0.3-6.9 2.1-9.7 1.8-2.8 5.3-4.7 8.5-3.8 2.4 0.8 4.2 2.9 5 5.3 0.7 2.4 0.7 4.9 0.4 7.4-0.9 7-3.7 13.7-7.9 19.3z"/>
				</g>
				<path id="&lt;Path&gt;" class="s4" d="m262.2 548.5c0 0-2.6-26.6 2.2-25.4 4.7 1.2-2.2 25.4-2.2 25.4z"/>
				<path id="&lt;Path&gt;" class="s17" d="m261.7 558.9c0 0-11.4-45.9 0.5-63.8"/>
				<path id="&lt;Path&gt;" class="s17" d="m259 559.5c0 0 19.8-29 13.1-62"/>
			</g>
		</g>
		<g id="&lt;Group&gt;">
			<g id="&lt;Group&gt;">
				<g id="&lt;Group&gt;">
					<path id="&lt;Path&gt;" class="s14" d="m338.2 711.6c-28.4-43.2-69.6-76.9-117.5-96.4-3.6-1.5-5.1 4.3-1.6 5.8 46.4 18.8 86.4 51.8 113.9 93.6 2.1 3.2 7.3 0.2 5.2-3z"/>
				</g>
			</g>
			<g id="&lt;Clip Group&gt;" clip-path="url(#cp25)">
				<g id="&lt;Group&gt;">
					<path id="&lt;Path&gt;" class="s14" d="m233.5 622c-3.1-16.4-18.8-29.4-35.5-29.5-2.5 0-5.1 0.3-7.2 1.7-3.4 2.2-4.6 6.8-3.7 10.8 0.9 3.9 3.6 7.2 6.6 9.9 9.4 8.6 22.9 12.6 35.5 10.5z"/>
				</g>
				<g id="&lt;Group&gt;" style="opacity: .3">
					<path id="&lt;Path&gt;" class="s11" d="m232.6 621.2c-2-11-12.5-19.7-23.6-19.7-1.7 0-3.4 0.2-4.8 1.1-2.3 1.5-3.1 4.6-2.5 7.2 0.7 2.6 2.4 4.8 4.4 6.6 6.3 5.8 15.3 8.4 23.6 7z"/>
				</g>
				<path id="&lt;Path&gt;" class="s15" d="m235.4 624.3c0 0-41.1-26.7-52.7-27.4"/>
				<path id="&lt;Path&gt;" class="s15" d="m201.6 590.9c0 0 4.3 14.8 4.3 15.6-0.1 0.9-16.5 6.9-16.5 6.9"/>
				<path id="&lt;Path&gt;" class="s15" d="m217.5 595.9l5 20.2c0 0-16.5 9-19.2 10"/>
				<g id="&lt;Group&gt;" style="opacity: .3">
					<path id="&lt;Path&gt;" class="s0" d="m187.1 605c-0.9-4 0.3-8.6 3.7-10.8q0.6-0.4 1.2-0.6c-2.5 2.4-3.4 6.4-2.6 9.8 1 4 3.6 7.3 6.6 10 9.4 8.5 22.6 12.5 35.1 10.5l-1.9 1.5c-12.6 2.1-26.1-1.9-35.5-10.5-3-2.7-5.7-6-6.6-9.9z"/>
				</g>
			</g>
			<g id="&lt;Clip Group&gt;" clip-path="url(#cp26)">
				<g id="&lt;Group&gt;">
					<path id="&lt;Path&gt;" class="s14" d="m256.6 637.8c-13.1-10.3-33.5-9.8-46.1 1.2-1.9 1.7-3.7 3.6-4.3 6-1.1 3.9 1 8.2 4.3 10.5 3.3 2.4 7.5 3.1 11.5 3.2 12.8 0.3 25.5-5.7 33.6-15.5z"/>
				</g>
				<g id="&lt;Group&gt;" style="opacity: .3">
					<path id="&lt;Path&gt;" class="s11" d="m255.4 637.7c-8.7-6.8-22.4-6.5-30.7 0.8-1.3 1.1-2.5 2.4-2.9 4-0.7 2.6 0.7 5.5 2.9 7 2.2 1.6 5 2.1 7.7 2.1 8.5 0.2 16.9-3.7 22.3-10.3z"/>
				</g>
				<path id="&lt;Path&gt;" class="s15" d="m259.6 638.2c0 0-48.5 7.1-57.7 14.2"/>
				<path id="&lt;Path&gt;" class="s15" d="m212.1 635.4c0 0 13 8.3 13.5 9 0.6 0.7-7.8 15.9-7.8 15.9"/>
				<path id="&lt;Path&gt;" class="s15" d="m227.4 628.7l17 11.9c0 0-6.4 17.7-7.8 20.2"/>
				<g id="&lt;Group&gt;" style="opacity: .3">
					<path id="&lt;Path&gt;" class="s0" d="m210.5 655.5c-3.3-2.3-5.4-6.6-4.3-10.5q0.1-0.6 0.4-1.2c-0.3 3.4 1.8 7 4.6 9 3.3 2.4 7.5 3.1 11.6 3.2 12.6 0.3 25.2-5.5 33.3-15.2l-0.5 2.4c-8.1 9.9-20.8 15.8-33.6 15.5-4-0.1-8.2-0.8-11.5-3.2z"/>
				</g>
			</g>
			<g id="&lt;Clip Group&gt;" clip-path="url(#cp27)">
				<g id="&lt;Group&gt;">
					<path id="&lt;Path&gt;" class="s14" d="m288.7 660.7c-13.1-10.3-33.6-9.7-46.1 1.2-1.9 1.7-3.7 3.6-4.3 6-1.1 3.9 1 8.2 4.3 10.6 3.3 2.3 7.5 3 11.5 3.1 12.8 0.3 25.5-5.6 33.6-15.5z"/>
				</g>
				<g id="&lt;Group&gt;" style="opacity: .3">
					<path id="&lt;Path&gt;" class="s11" d="m287.5 660.6c-8.7-6.8-22.4-6.5-30.7 0.8-1.3 1.1-2.5 2.4-2.9 4-0.7 2.6 0.7 5.5 2.9 7 2.2 1.6 5 2.1 7.7 2.1 8.5 0.2 16.9-3.7 22.3-10.3z"/>
				</g>
				<path id="&lt;Path&gt;" class="s15" d="m291.7 661.2c0 0-48.5 7-57.7 14.1"/>
				<path id="&lt;Path&gt;" class="s15" d="m244.2 658.3c0 0 13 8.3 13.5 9 0.6 0.7-7.8 16-7.8 16"/>
				<path id="&lt;Path&gt;" class="s15" d="m259.5 651.6l17 11.9c0 0-6.4 17.7-7.8 20.2"/>
				<g id="&lt;Group&gt;" style="opacity: .3">
					<path id="&lt;Path&gt;" class="s0" d="m242.6 678.5c-3.3-2.4-5.4-6.7-4.3-10.6q0.1-0.6 0.4-1.2c-0.3 3.4 1.8 7 4.6 9.1 3.3 2.3 7.5 3 11.6 3.1 12.6 0.3 25.2-5.5 33.3-15.2l-0.5 2.4c-8.1 9.9-20.8 15.8-33.6 15.5-4-0.1-8.2-0.8-11.5-3.1z"/>
				</g>
			</g>
			<g id="&lt;Clip Group&gt;" clip-path="url(#cp28)">
				<g id="&lt;Group&gt;">
					<path id="&lt;Path&gt;" class="s14" d="m259.2 637c-14.8-7.7-22.6-26.6-17.8-42.6 0.8-2.3 1.8-4.8 3.7-6.4 3.1-2.6 7.9-2.3 11.4-0.3 3.5 2 5.9 5.6 7.6 9.2 5.5 11.5 5.3 25.6-0.4 37z"/>
				</g>
				<g id="&lt;Group&gt;" style="opacity: .3">
					<path id="&lt;Path&gt;" class="s11" d="m258.6 636c-9.8-5.2-15-17.8-11.8-28.4 0.5-1.6 1.2-3.2 2.5-4.3 2-1.7 5.2-1.6 7.5-0.2 2.4 1.4 3.9 3.7 5.1 6.1 3.6 7.7 3.5 17.1-0.3 24.7z"/>
				</g>
				<path id="&lt;Path&gt;" class="s15" d="m260.8 639.6c0 0-13.4-47.2-10.7-58.5"/>
				<path id="&lt;Path&gt;" class="s15" d="m238.8 597.4c0 0 12.9 8.5 13.7 8.7 0.9 0.2 11.4-13.7 11.4-13.7"/>
				<path id="&lt;Path&gt;" class="s15" d="m239 614.1l17.8 10.7c0 0 13.4-13.2 15.2-15.5"/>
				<g id="&lt;Group&gt;" style="opacity: .3">
					<path id="&lt;Path&gt;" class="s0" d="m256.5 587.7c-3.5-2-8.3-2.3-11.4 0.3q-0.5 0.5-0.9 1c3-1.7 7.1-1.3 10.1 0.5 3.5 2 5.9 5.5 7.7 9.2 5.4 11.4 5.2 25.3-0.3 36.6l2-1.4c5.7-11.4 5.9-25.5 0.4-37-1.7-3.6-4.1-7.2-7.6-9.2z"/>
				</g>
			</g>
			<g id="&lt;Clip Group&gt;" clip-path="url(#cp29)">
				<g id="&lt;Group&gt;">
					<path id="&lt;Path&gt;" class="s14" d="m288.7 660.8c-13.4-9.8-18.5-29.6-11.4-44.7 1.1-2.3 2.5-4.5 4.6-5.8 3.5-2.1 8.2-1.2 11.3 1.3 3.2 2.5 5 6.4 6.2 10.2 3.7 12.2 1.5 26.1-5.8 36.6z"/>
				</g>
				<g id="&lt;Group&gt;" style="opacity: .3">
					<path id="&lt;Path&gt;" class="s11" d="m288.3 659.7c-8.9-6.6-12.3-19.8-7.6-29.8 0.8-1.5 1.7-3 3.1-3.9 2.3-1.4 5.4-0.8 7.5 0.9 2.1 1.7 3.4 4.2 4.1 6.8 2.5 8.1 1.1 17.4-3.8 24.3z"/>
				</g>
				<path id="&lt;Path&gt;" class="s15" d="m290 663.6c0 0-6.5-48.6-2.2-59.4"/>
				<path id="&lt;Path&gt;" class="s15" d="m274.3 618.7c0 0 11.5 10.2 12.3 10.5 0.8 0.4 13.3-11.9 13.3-11.9"/>
				<path id="&lt;Path&gt;" class="s15" d="m272 635.2l16.1 13.1c0 0 15.2-11 17.3-13"/>
				<g id="&lt;Group&gt;" style="opacity: .3">
					<path id="&lt;Path&gt;" class="s0" d="m293.2 611.6c-3.1-2.5-7.8-3.4-11.3-1.3q-0.6 0.4-1.1 0.8c3.3-1.2 7.3-0.3 10 2 3.2 2.5 5 6.3 6.2 10.2 3.7 12.1 1.6 25.7-5.5 36.2l2.1-1.1c7.3-10.5 9.5-24.4 5.8-36.6-1.2-3.8-3-7.7-6.2-10.2z"/>
				</g>
			</g>
			<g id="&lt;Clip Group&gt;" clip-path="url(#cp30)">
				<g id="&lt;Group&gt;">
					<path id="&lt;Path&gt;" class="s14" d="m318.3 688.8c-13.4-9.8-18.5-29.7-11.4-44.7 1.1-2.3 2.5-4.5 4.6-5.8 3.5-2.2 8.2-1.3 11.3 1.3 3.2 2.5 5 6.3 6.2 10.2 3.8 12.2 1.6 26.1-5.8 36.5z"/>
				</g>
				<g id="&lt;Group&gt;" style="opacity: .3">
					<path id="&lt;Path&gt;" class="s11" d="m317.9 687.6c-8.9-6.5-12.3-19.7-7.6-29.8 0.8-1.5 1.7-2.9 3.1-3.8 2.3-1.4 5.4-0.8 7.5 0.9 2.1 1.6 3.4 4.2 4.1 6.8 2.5 8.1 1.1 17.3-3.8 24.3z"/>
				</g>
				<path id="&lt;Path&gt;" class="s15" d="m319.6 691.5c0 0-6.5-48.6-2.2-59.4"/>
				<path id="&lt;Path&gt;" class="s15" d="m303.9 646.6c0 0 11.5 10.3 12.3 10.6 0.8 0.3 13.3-11.9 13.3-11.9"/>
				<path id="&lt;Path&gt;" class="s15" d="m301.6 663.1l16.2 13.2c0 0 15.1-11 17.2-13.1"/>
				<g id="&lt;Group&gt;" style="opacity: .3">
					<path id="&lt;Path&gt;" class="s0" d="m322.8 639.6c-3.1-2.6-7.8-3.5-11.3-1.3q-0.5 0.3-1.1 0.8c3.3-1.3 7.3-0.3 10 1.9 3.2 2.5 5 6.4 6.2 10.2 3.7 12.1 1.6 25.8-5.5 36.2l2.1-1.1c7.4-10.4 9.6-24.3 5.8-36.5-1.2-3.9-3-7.7-6.2-10.2z"/>
				</g>
			</g>
		</g>
		<g id="&lt;Group&gt;">
			<g id="&lt;Group&gt;">
				<g id="&lt;Group&gt;">
					<path id="&lt;Path&gt;" class="s14" d="m548 391.8c0-50.4 15.3-99.9 43.8-141.5 2.2-3.2-3-6.2-5.2-3-29 42.3-44.6 93.1-44.6 144.5 0 3.9 6 3.9 6 0z"/>
				</g>
			</g>
			<g id="&lt;Clip Group&gt;" clip-path="url(#cp31)">
				<g id="&lt;Group&gt;">
					<path id="&lt;Path&gt;" class="s14" d="m580.1 259.6c-6.5-15.4-0.6-35 13.3-44.2 2.1-1.4 4.5-2.6 7-2.6 4 0 7.6 3.2 9 7 1.4 3.8 1 8 0 11.9-3.1 12.4-12.2 23.1-23.9 28.3z"/>
				</g>
				<g id="&lt;Group&gt;" style="opacity: .3">
					<path id="&lt;Path&gt;" class="s11" d="m580.3 258.4c-4.3-10.3-0.3-23.3 8.9-29.5 1.4-0.9 3-1.7 4.6-1.7 2.7 0 5.1 2.1 6 4.7 1 2.5 0.7 5.3 0 7.9-2.1 8.3-8.1 15.4-15.9 18.8z"/>
				</g>
				<path id="&lt;Path&gt;" class="s15" d="m579.7 262.5c0 0 19.6-44.9 28.9-51.9"/>
				<path id="&lt;Path&gt;" class="s15" d="m589.5 216c0 0 4.6 14.7 5.1 15.4 0.5 0.7 17.5-3.3 17.5-3.3"/>
				<path id="&lt;Path&gt;" class="s15" d="m579 229l7 19.6c0 0 18.7-1.6 21.5-2.3"/>
				<g id="&lt;Group&gt;" style="opacity: .3">
					<path id="&lt;Path&gt;" class="s0" d="m609.4 219.8c-1.4-3.8-5-7-9-7q-0.7 0-1.4 0.1c3.5 0.7 6.3 3.5 7.6 6.9 1.4 3.8 1 8 0 11.9-3.1 12.3-12 22.9-23.5 28.1l2.4 0.2c11.7-5.2 20.8-15.9 23.9-28.3 1-3.9 1.4-8.1 0-11.9z"/>
				</g>
			</g>
			<g id="&lt;Clip Group&gt;" clip-path="url(#cp32)">
				<g id="&lt;Group&gt;">
					<path id="&lt;Path&gt;" class="s14" d="m569.4 285.5c5.3-15.9 22.7-26.7 39.2-24.4 2.5 0.3 5.1 0.9 7 2.6 3 2.6 3.6 7.4 2.1 11.2-1.4 3.7-4.5 6.6-7.9 8.9-10.5 7.3-24.4 9.4-36.5 5.6z"/>
				</g>
				<g id="&lt;Group&gt;" style="opacity: .3">
					<path id="&lt;Path&gt;" class="s11" d="m570.4 284.7c3.6-10.5 15.1-17.7 26.1-16.2 1.7 0.2 3.4 0.6 4.6 1.7 2.1 1.8 2.4 4.9 1.5 7.5-1 2.5-3.1 4.4-5.3 5.9-7 4.9-16.2 6.3-24.3 3.7z"/>
				</g>
				<path id="&lt;Path&gt;" class="s15" d="m567.2 287.5c0 0 44.4-20.9 56-20.1"/>
				<path id="&lt;Path&gt;" class="s15" d="m605.3 259c0 0-6.3 14-6.4 14.9 0 0.8 15.4 9 15.4 9"/>
				<path id="&lt;Path&gt;" class="s15" d="m588.8 261.8l-7.6 19.3c0 0 15.1 11.2 17.7 12.5"/>
				<g id="&lt;Group&gt;" style="opacity: .3">
					<path id="&lt;Path&gt;" class="s0" d="m617.7 274.9c1.5-3.8 0.9-8.6-2.1-11.2q-0.6-0.5-1.1-0.8c2.1 2.7 2.4 6.8 1.1 10.1-1.4 3.8-4.5 6.7-7.9 9-10.3 7.2-24 9.3-36.1 5.6l1.7 1.8c12.1 3.8 26 1.7 36.5-5.6 3.4-2.3 6.5-5.2 7.9-8.9z"/>
				</g>
			</g>
			<g id="&lt;Clip Group&gt;" clip-path="url(#cp33)">
				<g id="&lt;Group&gt;">
					<path id="&lt;Path&gt;" class="s14" d="m555.3 322.3c5.3-15.9 22.6-26.7 39.2-24.4 2.5 0.3 5 1 6.9 2.6 3.1 2.6 3.6 7.4 2.2 11.2-1.5 3.7-4.6 6.7-7.9 9-10.5 7.2-24.4 9.3-36.6 5.5z"/>
				</g>
				<g id="&lt;Group&gt;" style="opacity: .3">
					<path id="&lt;Path&gt;" class="s11" d="m556.3 321.5c3.5-10.5 15.1-17.7 26.1-16.2 1.6 0.2 3.3 0.6 4.6 1.7 2 1.8 2.4 5 1.4 7.5-1 2.5-3 4.4-5.2 5.9-7 4.9-16.3 6.3-24.4 3.7z"/>
				</g>
				<path id="&lt;Path&gt;" class="s15" d="m553.1 324.3c0 0 44.3-20.9 55.9-20"/>
				<path id="&lt;Path&gt;" class="s15" d="m591.1 295.8c0 0-6.3 14-6.3 14.9-0.1 0.9 15.3 9 15.3 9"/>
				<path id="&lt;Path&gt;" class="s15" d="m574.7 298.6l-7.7 19.3c0 0 15.1 11.2 17.7 12.5"/>
				<g id="&lt;Group&gt;" style="opacity: .3">
					<path id="&lt;Path&gt;" class="s0" d="m603.6 311.7c1.4-3.8 0.9-8.6-2.2-11.2q-0.5-0.5-1.1-0.8c2.2 2.7 2.4 6.8 1.2 10.1-1.5 3.8-4.6 6.7-7.9 9-10.4 7.2-24.1 9.3-36.2 5.6l1.7 1.8c12.2 3.8 26.1 1.7 36.6-5.5 3.3-2.3 6.4-5.3 7.9-9z"/>
				</g>
			</g>
			<g id="&lt;Clip Group&gt;" clip-path="url(#cp34)">
				<g id="&lt;Group&gt;">
					<path id="&lt;Path&gt;" class="s14" d="m566.9 286.3c8-14.7 4.2-34.7-8.7-45.4-1.9-1.6-4.1-3-6.6-3.3-4-0.4-7.9 2.4-9.7 6-1.7 3.6-1.8 7.9-1.2 11.9 1.8 12.6 9.6 24.2 20.7 30.6z"/>
				</g>
				<g id="&lt;Group&gt;" style="opacity: .3">
					<path id="&lt;Path&gt;" class="s11" d="m566.8 285c5.3-9.7 2.8-23.1-5.8-30.2-1.3-1-2.7-2-4.4-2.2-2.7-0.3-5.3 1.6-6.4 4-1.2 2.4-1.3 5.3-0.9 7.9 1.2 8.4 6.5 16.2 13.8 20.4z"/>
				</g>
				<path id="&lt;Path&gt;" class="s15" d="m566.9 289.3c0 0-14.7-46.8-23.2-54.7"/>
				<path id="&lt;Path&gt;" class="s15" d="m562.1 242c0 0-6.1 14.1-6.7 14.7-0.6 0.7-17-5.1-17-5.1"/>
				<path id="&lt;Path&gt;" class="s15" d="m571.1 255.9l-9 18.8c0 0-18.4-3.6-21.1-4.6"/>
				<g id="&lt;Group&gt;" style="opacity: .3">
					<path id="&lt;Path&gt;" class="s0" d="m541.9 243.6c1.8-3.6 5.7-6.4 9.7-6q0.7 0.1 1.4 0.3c-3.5 0.2-6.7 2.8-8.3 6-1.8 3.6-1.8 7.9-1.2 11.9 1.7 12.5 9.5 24 20.3 30.4l-2.4-0.1c-11.1-6.4-18.9-18-20.7-30.6-0.6-4-0.5-8.3 1.2-11.9z"/>
				</g>
			</g>
			<g id="&lt;Clip Group&gt;" clip-path="url(#cp35)">
				<g id="&lt;Group&gt;">
					<path id="&lt;Path&gt;" class="s14" d="m555.4 322.4c5.8-15.6-0.9-35-15.2-43.6-2.1-1.3-4.5-2.4-7-2.3-4 0.1-7.5 3.4-8.7 7.3-1.3 3.8-0.7 8 0.5 11.9 3.6 12.3 13.1 22.6 24.9 27.3z"/>
				</g>
				<g id="&lt;Group&gt;" style="opacity: .3">
					<path id="&lt;Path&gt;" class="s11" d="m555.1 321.2c3.8-10.4-0.6-23.3-10.1-29-1.4-0.9-3-1.6-4.7-1.6-2.7 0.1-5 2.3-5.8 4.9-0.8 2.6-0.4 5.4 0.3 7.9 2.4 8.2 8.7 15.1 16.6 18.2z"/>
				</g>
				<path id="&lt;Path&gt;" class="s15" d="m555.8 325.3c0 0-21.4-44.1-30.9-50.7"/>
				<path id="&lt;Path&gt;" class="s15" d="m544.2 279.3c0 0-4 14.8-4.5 15.5-0.5 0.8-17.6-2.6-17.6-2.6"/>
				<path id="&lt;Path&gt;" class="s15" d="m555.2 291.8l-6.2 19.8c0 0-18.8-0.8-21.6-1.4"/>
				<g id="&lt;Group&gt;" style="opacity: .3">
					<path id="&lt;Path&gt;" class="s0" d="m524.5 283.8c1.2-3.9 4.7-7.2 8.7-7.3q0.7-0.1 1.3 0c-3.3 0.8-6.1 3.8-7.2 7.2-1.3 3.8-0.7 8 0.5 11.9 3.5 12.1 12.8 22.4 24.5 27.1l-2.4 0.3c-11.8-4.7-21.3-15-24.9-27.3-1.2-3.9-1.8-8.1-0.5-11.9z"/>
				</g>
			</g>
			<g id="&lt;Clip Group&gt;" clip-path="url(#cp36)">
				<g id="&lt;Group&gt;">
					<path id="&lt;Path&gt;" class="s14" d="m546.1 362c5.8-15.6-0.9-34.9-15.2-43.6-2.1-1.3-4.5-2.4-7-2.3-4 0.1-7.5 3.5-8.7 7.3-1.3 3.9-0.7 8.1 0.5 12 3.6 12.2 13 22.6 24.9 27.3z"/>
				</g>
				<g id="&lt;Group&gt;" style="opacity: .3">
					<path id="&lt;Path&gt;" class="s11" d="m545.8 360.8c3.8-10.4-0.6-23.2-10.1-29-1.4-0.9-3-1.6-4.7-1.5-2.7 0-5 2.3-5.8 4.8-0.8 2.6-0.4 5.4 0.3 8 2.4 8.1 8.7 15 16.6 18.2z"/>
				</g>
				<path id="&lt;Path&gt;" class="s15" d="m546.5 365c0 0-21.4-44.1-30.9-50.8"/>
				<path id="&lt;Path&gt;" class="s15" d="m534.9 318.9c0 0-4 14.9-4.5 15.6-0.5 0.7-17.6-2.6-17.6-2.6"/>
				<path id="&lt;Path&gt;" class="s15" d="m545.9 331.4l-6.2 19.9c0 0-18.8-0.9-21.6-1.5"/>
				<g id="&lt;Group&gt;" style="opacity: .3">
					<path id="&lt;Path&gt;" class="s0" d="m515.2 323.4c1.2-3.8 4.7-7.2 8.7-7.3q0.7 0 1.3 0.1c-3.4 0.7-6.1 3.7-7.2 7.1-1.3 3.9-0.7 8.1 0.4 12 3.6 12.1 12.9 22.3 24.6 27.1l-2.4 0.3c-11.9-4.7-21.3-15.1-24.9-27.3-1.2-3.9-1.8-8.1-0.5-12z"/>
				</g>
			</g>
		</g>
		<path id="&lt;Path&gt;" class="s18" d="m117.2 724.7c-13.8 5.7-18.4 10.3-24.1 24.1-5.7-13.8-10.3-18.4-24.1-24.1 13.8-5.7 18.4-10.3 24.1-24.1 5.7 13.8 10.3 18.4 24.1 24.1z"/>
		<path id="&lt;Path&gt;" class="s0" d="m201.1 400.7c-7.6 3.2-10.1 5.7-13.2 13.2-3.1-7.5-5.7-10-13.2-13.2 7.5-3.1 10.1-5.6 13.2-13.2 3.1 7.6 5.6 10.1 13.2 13.2z"/>
		<path id="&lt;Path&gt;" class="s0" d="m821.4 371.4c-7.5 3.2-10 5.7-13.2 13.2-3.1-7.5-5.6-10-13.2-13.2 7.6-3.1 10.1-5.6 13.2-13.2 3.2 7.6 5.7 10.1 13.2 13.2z"/>
		<path id="&lt;Path&gt;" class="s0" d="m722.1 112.9c-7.6 3.2-10.1 5.7-13.2 13.2-3.1-7.5-5.7-10-13.2-13.2 7.5-3.1 10.1-5.6 13.2-13.2 3.1 7.6 5.6 10.1 13.2 13.2z"/>
		<path id="&lt;Path&gt;" class="s0" d="m976.7 776.5c-7.5 3.1-10.1 5.6-13.2 13.2-3.1-7.6-5.6-10.1-13.2-13.2 7.6-3.1 10.1-5.7 13.2-13.2 3.1 7.5 5.7 10.1 13.2 13.2z"/>
		<path id="&lt;Path&gt;" class="s19" d="m384.5 107.6c-13.8 5.7-18.4 10.3-24.1 24.1-5.7-13.8-10.3-18.4-24.1-24.1 13.8-5.7 18.4-10.3 24.1-24.1 5.7 13.8 10.3 18.4 24.1 24.1z"/>
		<path id="&lt;Path&gt;" class="s19" d="m941.1 307.5c-13.8 5.7-18.4 10.3-24.1 24.1-5.7-13.8-10.3-18.4-24.1-24.1 13.8-5.7 18.4-10.3 24.1-24.1 5.7 13.8 10.3 18.4 24.1 24.1z"/>
		<path id="&lt;Path&gt;" class="s19" d="m1052.3 672c-13.8 5.7-18.4 10.3-24.1 24.1-5.7-13.8-10.3-18.4-24.1-24.1 13.8-5.7 18.4-10.4 24.1-24.1 5.7 13.7 10.3 18.4 24.1 24.1z"/>
		<path id="&lt;Path&gt;" class="s19" d="m833.5 900.6c-13.8 5.7-18.4 10.4-24.1 24.1-5.7-13.7-10.3-18.4-24.1-24.1 13.8-5.7 18.4-10.3 24.1-24 5.7 13.7 10.3 18.3 24.1 24z"/>
		<g id="&lt;Group&gt;">
			<path id="&lt;Path&gt;" class="s9" d="m855.1 671.1c-180.3 0-326.4-146.1-326.4-326.4 0-100.5 45.5-190.5 117-250.3q-10.1-0.6-20.4-0.6c-212 0-383.9 171.9-383.9 384 0 212 171.9 383.9 383.9 383.9 149.7 0 279.4-85.7 342.7-210.7-35.2 13-73.2 20.1-112.9 20.1z"/>
			<g id="&lt;Group&gt;">
				<path id="&lt;Path&gt;" class="s5" d="m611.7 94.4c-71.6 59.8-117.1 149.8-117.1 250.3 0 180.3 146.2 326.4 326.4 326.4q8.5 0 16.9-0.4c-172.3-9-309.2-151.5-309.2-326 0-100.5 45.5-190.5 117-250.3q-10.1-0.6-20.4-0.6-8.6 0-17.1 0.4 1.7 0.1 3.5 0.2z"/>
			</g>
			<path id="&lt;Path&gt;" class="s20" d="m677.2 818.9c-212 0-383.9-171.9-383.9-383.9 0-107.3 44-204.3 115-274-100.8 69.2-166.9 185.3-166.9 316.8 0 212 171.9 383.9 383.9 383.9 104.8 0 199.7-42 268.9-110-61.7 42.4-136.4 67.2-217 67.2z"/>
			<path id="&lt;Path&gt;" class="s20" d="m466.6 200.4c0 15.6-9.2 28.2-20.6 28.2-11.4 0-20.6-12.6-20.6-28.2 0-15.6 9.2-28.2 20.6-28.2 11.4 0 20.6 12.6 20.6 28.2z"/>
			<path id="&lt;Path&gt;" class="s20" d="m706 762.5c14.8 5 23.8 17.8 20.2 28.6-3.6 10.8-18.6 15.5-33.4 10.5-14.7-5-23.8-17.8-20.1-28.6 3.6-10.7 18.6-15.4 33.3-10.5z"/>
			<path id="&lt;Path&gt;" class="s20" d="m482.3 263c0 9-5.3 16.2-11.9 16.2-6.5 0-11.8-7.2-11.8-16.2 0-9 5.3-16.3 11.8-16.3 6.6 0 11.9 7.3 11.9 16.3z"/>
			<path id="&lt;Path&gt;" class="s20" d="m766.3 751.6c8.7 2.4 14.3 9.5 12.5 15.8-1.8 6.3-10.2 9.4-18.8 7-8.7-2.4-14.3-9.5-12.5-15.8 1.8-6.3 10.2-9.5 18.8-7z"/>
			<g id="&lt;Group&gt;">
				<g id="&lt;Group&gt;">
					<path id="&lt;Path&gt;" class="s7" d="m454.1 540.7c-5.7 0-11.4-1.3-16.2-3.7-12.2-6.2-21.7-19-26.7-36.1-0.3-1 0.3-2.1 1.3-2.4 1.1-0.4 2.2 0.3 2.5 1.3 2.7 9.2 9.5 25.9 24.8 33.6 11.7 6 29.4 4.3 37-7.9 4.5-7.3 4.9-17.6 0.9-27.6-3.7-9.3-10.2-17.2-16.6-24.8-0.7-0.9-0.5-2.1 0.3-2.8 0.9-0.7 2.1-0.6 2.8 0.2 6.5 7.9 13.3 16 17.2 25.9 4.5 11.2 4 22.8-1.2 31.2-5.6 9-15.9 13.1-26.1 13.1z"/>
				</g>
				<g id="&lt;Group&gt;">
					<path id="&lt;Path&gt;" class="s7" d="m421.7 547.5q-0.5 0.1-1-0.2c-0.9-0.6-1.2-1.8-0.7-2.8l9-15.4c0.5-1 1.7-1.3 2.7-0.7 0.9 0.5 1.3 1.8 0.7 2.7l-8.9 15.5c-0.4 0.6-1.1 0.9-1.8 0.9z"/>
				</g>
				<g id="&lt;Group&gt;">
					<path id="&lt;Path&gt;" class="s7" d="m452.6 560.2c-1.1 0-2-0.9-2-2v-17.3c0-1.1 0.9-2 2-2 1.1 0 2 0.9 2 2v17.3c0 1.1-0.9 2-2 2z"/>
				</g>
			</g>
			<g id="&lt;Group&gt;">
				<path id="&lt;Path&gt;" class="s7" d="m548.4 619.6c-11.5 0-19.1-2.6-19.4-2.7-1.1-0.4-1.6-1.5-1.2-2.6 0.3-1 1.5-1.6 2.5-1.2 0.5 0.2 37.2 12.5 70.4-19.6 0.7-0.8 2-0.7 2.8 0 0.8 0.8 0.7 2.1-0.1 2.9-18.2 17.7-37.5 22.3-50.4 23.1q-2.4 0.1-4.6 0.1z"/>
			</g>
			<path id="&lt;Path&gt;" class="s21" d="m445.2 572.5c2.9 5.1-2.1 13.4-11.1 18.6-9 5.2-18.7 5.4-21.6 0.3-2.9-5 2-13.4 11-18.6 9.1-5.2 18.8-5.3 21.7-0.3z"/>
			<g id="&lt;Group&gt;">
				<path id="&lt;Path&gt;" class="s7" d="m523.6 628.1c-0.5 0-1-0.2-1.3-0.5-0.9-0.8-0.9-2-0.2-2.8 0.1-0.2 9.6-11 6.3-23.8-0.3-1.1 0.3-2.2 1.4-2.5 1.1-0.2 2.2 0.4 2.4 1.5 3.9 14.9-6.7 26.9-7.1 27.4-0.4 0.5-1 0.7-1.5 0.7z"/>
			</g>
			<path id="&lt;Path&gt;" class="s5" d="m528.5 609.3c0 8.9-7.5 16.2-16.8 16.2-9.2 0-16.7-7.3-16.7-16.2 0-8.9 7.5-16.1 16.7-16.1 9.3 0 16.8 7.2 16.8 16.1z"/>
		</g>
		<g id="&lt;Group&gt;">
			<path id="&lt;Path&gt;" class="s22" d="m879.7 543.9c-9.7-23.7-27.5-46.1-52.4-52.5-15.6-4-32.2-1.3-48.1-3.6-20.8-2.8-40.2-14.4-52.6-31.2-3.2-4.3-6-9-10.3-12.3-10.4-7.9-25.2-4.6-37.6-0.2-37.7 13.4-73.2 33.2-104.5 58.2-0.4-0.9-2 3.3-3.8 9.2q0.9 6.4 2.3 12.8c6.2 28.4 21.4 55.2 39.3 77.8 9.8 12.4 20.7 23.8 32.5 34.2q5.4 3.9 11 7.5c39.8 25.7 87.9 39.2 135.2 35.1 34.8-3 71.2-17.7 88.3-48.1 14.8-26.1 12.2-59.2 0.7-86.9z"/>
			<path id="&lt;Path&gt;" class="s23" d="m750.7 608.9c-6.6-10.9-18.3-17.3-29.4-22.8-13.3-6.5-26.6-12.5-39-20.6-12.1-7.9-23.5-16.8-34-26.8-17.9-16.9-32-36.8-42.4-59.2-11 7-21.6 14.6-31.7 22.8-0.4-0.9-2 3.3-3.8 9.1q0.9 6.5 2.3 12.9c6.2 28.4 21.4 55.2 39.3 77.8 10.1 12.8 21.4 24.5 33.7 35.2q4.6 3.4 9.4 6.5c24.4 15.8 52 27 80.5 32.3 12.9-8.7 21.1-23.8 21.8-39.9 0.5-9.6-1.7-19.1-6.7-27.3z"/>
			<path id="&lt;Path&gt;" class="s22" d="m891.3 518.8c0 16.2-11.8 29.3-26.4 29.3-14.6 0-26.4-13.1-26.4-29.3 0-16.2 11.8-29.3 26.4-29.3 14.6 0 26.4 13.1 26.4 29.3z"/>
			<path id="&lt;Path&gt;" class="s4" d="m824.2 523.7c-5 0.5-8.6 7.9-9.2 17.8-8.7-4.9-16.8-6-19.9-2.1-4 5 1.5 16 12.3 24.6 6.2 5 12.8 8.1 18.1 8.9 1 0.5 2.1 0.8 3.2 0.7 1.1-0.1 2-0.5 2.9-1.2 1-0.4 1.9-0.9 2.5-1.7 0.7-0.9 1.1-1.9 1.2-3.1 2.3-4.8 3.3-12 2.6-20-1.2-13.7-7.3-24.4-13.7-23.9z"/>
			<path id="&lt;Path&gt;" class="s24" d="m822.9 533.9c-3.2 0.2-5.5 5-5.9 11.3-5.6-3.1-10.8-3.8-12.8-1.3-2.5 3.2 1 10.2 7.9 15.7 4 3.2 8.2 5.2 11.6 5.7q1 0.5 2.1 0.4 1-0.1 1.8-0.7 1-0.3 1.6-1.1 0.7-0.8 0.8-2c1.4-3.1 2.1-7.7 1.7-12.8-0.8-8.8-4.7-15.6-8.8-15.2z"/>
			<g id="&lt;Group&gt;">
				<g id="&lt;Group&gt;">
					<path id="&lt;Path&gt;" class="s6" d="m815.8 535.5q-0.6 2.8-0.8 6-2.8-1.6-5.5-2.6"/>
					<path id="&lt;Path&gt;" class="s25" d="m798.7 537.3c-1.5 0.3-2.8 1-3.6 2.1-4 5 1.5 16 12.3 24.6 6.2 5 12.8 8.1 18.1 8.9 1 0.5 2.1 0.8 3.2 0.7 1-0.1 2-0.5 2.9-1.2 1-0.4 1.9-0.9 2.5-1.7 0.7-0.9 1.1-1.9 1.2-3.1 2.3-4.8 3.3-12 2.6-20-1.2-13.7-7.3-24.4-13.7-23.9-2.8 0.3-5.1 2.7-6.8 6.5"/>
				</g>
			</g>
			<path id="&lt;Path&gt;" class="s22" d="m783.5 591.9c0 0 4.4 83.4 1.1 91.1-3.3 7.7-21.9 15.4-1.1 31.8 20.9 16.5 119.7-12 103.2-147z"/>
			<path id="&lt;Path&gt;" class="s26" d="m865.2 515.9c0 0 12.2 15 14.5 28"/>
			<path id="&lt;Path&gt;" class="s26" d="m873.2 583.5c0 0 3.6 10.7 1.8 18.7"/>
			<path id="&lt;Path&gt;" class="s26" d="m867.9 595.9c0 0-0.9 8.9-1.8 15.2"/>
			<path id="&lt;Path&gt;" class="s27" d="m636.2 571.1c19.1-1.5 38-5.2 55.5-13 17.3-7.7 32-19 43.9-33.7 10.3-12.6 18.4-26.8 23.8-42.1-13-5.5-24.5-14.4-32.8-25.7-3.2-4.3-6-9-10.3-12.3-10.4-7.9-25.2-4.6-37.6-0.2-37.7 13.4-73.2 33.2-104.5 58.2-0.4-0.9-2 3.3-3.8 9.2q0.9 6.4 2.3 12.8c3.3 15 9.1 29.6 16.4 43.3 14.5 6.2 31.9 4.6 47.1 3.5z"/>
			<path id="&lt;Path&gt;" class="s22" d="m546.1 416.8c0 25.6-19.9 46.3-44.5 46.3-24.7 0-44.6-20.7-44.6-46.3 0-25.6 19.9-46.3 44.6-46.3 24.6 0 44.5 20.7 44.5 46.3z"/>
			<path id="&lt;Path&gt;" class="s5" d="m464.1 416.8c0-24.3 18.1-44.3 41-46.2q-1.8-0.1-3.5-0.1c-24.7 0-44.6 20.7-44.6 46.3 0 25.6 19.9 46.3 44.6 46.3q1.7 0 3.5-0.1c-22.9-1.9-41-21.9-41-46.2z"/>
			<path id="&lt;Path&gt;" class="s23" d="m528.9 416.8c0 15.7-12.2 28.4-27.3 28.4-15.2 0-27.4-12.7-27.4-28.4 0-15.7 12.2-28.4 27.4-28.4 15.1 0 27.3 12.7 27.3 28.4z"/>
			<path id="&lt;Path&gt;" class="s28" d="m521.5 419.9c-7.7 7.8-21.6 9.7-31.7 6.8-6.4-1.9-11.6-5.8-15.6-10.7q0 0.4 0 0.8c0 15.7 12.2 28.4 27.4 28.4 15.1 0 27.3-12.7 27.3-28.4 0-2.6-0.4-5.2-1-7.6-1.2 4-3.3 7.6-6.4 10.7z"/>
			<path id="&lt;Path&gt;" class="s22" d="m724 323.3c0 25.6-20 46.3-44.6 46.3-24.6 0-44.5-20.7-44.5-46.3 0-25.6 19.9-46.3 44.5-46.3 24.6 0 44.6 20.7 44.6 46.3z"/>
			<path id="&lt;Path&gt;" class="s5" d="m640.6 329.1c0-25.6 20-46.3 44.6-46.3 10.6 0 20.2 3.8 27.9 10.1-8.2-9.7-20.2-15.9-33.7-15.9-24.6 0-44.5 20.7-44.5 46.3 0 14.6 6.5 27.7 16.7 36.2-6.8-8.2-11-18.8-11-30.4z"/>
			<path id="&lt;Path&gt;" class="s23" d="m706.8 323.3c0 15.7-12.3 28.4-27.4 28.4-15.1 0-27.3-12.7-27.3-28.4 0-15.7 12.2-28.4 27.3-28.4 15.1 0 27.4 12.7 27.4 28.4z"/>
			<path id="&lt;Path&gt;" class="s28" d="m689.5 331.6c-12-6.2-22.4-17.7-26.7-30.9-6.5 5.2-10.7 13.4-10.7 22.6 0 15.7 12.2 28.4 27.3 28.4 10.7 0 19.9-6.3 24.4-15.5-5-0.6-9.9-2.3-14.3-4.6z"/>
			<path id="&lt;Path&gt;" class="s22" d="m776.2 432.6q-1.3-4.7-3.3-9l0.2-0.1c-49-127.2-163.7-91.9-163.7-91.9-150.4 39.1-105.8 179.2-105.8 179.2 9.2 33.1 42.9 53.8 81 52.8 0 0 63.9 1.7 152.9-45.7l-0.2-0.6c31-19.1 47.7-52.8 38.9-84.7z"/>
			<path id="&lt;Path&gt;" class="s5" d="m515.2 510.8c0 0-44.7-140.1 105.8-179.2 0 0 10.9-3.4 27.4-4.3q-0.4-0.1-0.8-0.2c-22.4-0.4-38.2 4.5-38.2 4.5-150.4 39.1-105.8 179.2-105.8 179.2 9.2 33.1 42.9 53.8 81 52.8 0 0 1.8 0.1 5.2-0.1-35.4-1.2-66-21.5-74.6-52.7z"/>
			<path id="&lt;Path&gt;" class="s27" d="m776.2 432.6q-1.3-4.7-3.3-9l0.2-0.1c-23.8-61.6-62.9-85.1-97-93 19.8 10.5 36.5 26.3 47.7 46.2 15.2 26.8 20.1 59.1 14.3 89.3-6 30.9-23.7 58.3-51 74.4q-1.5 0.9-3 1.7c16.4-6.1 34.3-14.1 53.4-24.2l-0.2-0.6c31-19.1 47.7-52.8 38.9-84.7z"/>
			<path id="&lt;Path&gt;" class="s28" d="m683.7 474.9c7.3 18.9-4.6 41-26.6 49.5-21.9 8.5-45.7 0.1-53-18.7-7.3-18.9 4.6-41.1 26.6-49.6 22-8.5 45.7-0.1 53 18.8z"/>
			<g id="&lt;Group&gt;">
				<path id="&lt;Path&gt;" class="s7" d="m660.1 444.9c-2.2 0-4.5-0.5-6.7-1.5-4.4-1.9-7.9-5.5-10-10-0.5-1-0.1-2.2 0.9-2.7 1-0.4 2.2 0 2.7 1 1.7 3.6 4.5 6.5 8 8 3.3 1.5 6.8 1.5 9.9 0.1 3-1.4 5.2-4.1 6.2-7.6 1.1-3.6 0.7-7.6-1-11.3-0.5-1 0-2.2 1-2.7 1-0.4 2.2 0 2.6 1 2.2 4.5 2.6 9.5 1.3 14.1-1.3 4.6-4.3 8.2-8.4 10.1-2.1 1-4.2 1.5-6.5 1.5z"/>
			</g>
			<g id="&lt;Group&gt;">
				<path id="&lt;Path&gt;" class="s7" d="m574.3 485.5c-2.2 0-4.5-0.5-6.8-1.5-4.3-1.9-7.8-5.5-9.9-10-0.5-1-0.1-2.2 0.9-2.7 1-0.4 2.2 0 2.7 1 1.7 3.7 4.5 6.5 7.9 8 3.4 1.5 6.9 1.5 9.9 0.1 6.4-2.9 8.8-11.4 5.3-18.9-0.5-1 0-2.2 1-2.6 1-0.5 2.1-0.1 2.6 0.9 4.4 9.5 1.2 20.3-7.2 24.2-2 1-4.2 1.5-6.4 1.5z"/>
			</g>
			<g id="&lt;Group&gt;">
				<path id="&lt;Path&gt;" class="s7" d="m680.4 430.9q0 0-0.1 0l-6.2-0.3c-1.1 0-2-1-1.9-2.1 0-1.1 1-1.9 2.1-1.9l6.2 0.3c1.1 0 2 1 1.9 2.1 0 1-0.9 1.9-2 1.9z"/>
			</g>
			<g id="&lt;Group&gt;">
				<path id="&lt;Path&gt;" class="s7" d="m559.9 487.7c-0.5 0-1-0.2-1.4-0.5-0.8-0.8-0.8-2.1 0-2.9l5.2-5.1c0.7-0.8 2-0.8 2.8 0 0.8 0.8 0.8 2 0 2.8l-5.2 5.2c-0.3 0.3-0.9 0.5-1.4 0.5z"/>
			</g>
			<g id="&lt;Group&gt;">
				<path id="&lt;Path&gt;" class="s7" d="m566.7 491q-0.3 0-0.6-0.1c-1-0.3-1.6-1.4-1.3-2.5l1.9-6.5c0.3-1 1.4-1.6 2.5-1.3 1 0.3 1.6 1.4 1.3 2.4l-1.9 6.5c-0.2 0.9-1 1.5-1.9 1.5z"/>
			</g>
			<path id="&lt;Path&gt;" class="s4" d="m581.5 496.4c1.5 2.9-1.6 7.4-6.8 10.1-5.3 2.6-10.8 2.4-12.3-0.5-1.5-3 1.6-7.5 6.9-10.2 5.3-2.6 10.8-2.4 12.2 0.6z"/>
			<path id="&lt;Path&gt;" class="s26" d="m633.2 557.7c0 0 92.4-16 130.7-69.3"/>
			<path id="&lt;Path&gt;" class="s23" d="m678.4 474c7.3 18.9-4.6 41-26.6 49.6-22 8.5-45.7 0.1-53-18.8-7.3-18.9 4.6-41.1 26.6-49.6 22-8.5 45.7-0.1 53 18.8z"/>
			<path id="&lt;Path&gt;" class="s7" d="m640.6 466.7c1.5 4-2.3 9.1-8.6 11.5-6.3 2.4-12.7 1.1-14.2-2.9-1.5-4 2.4-9.2 8.7-11.5 6.3-2.4 12.6-1.1 14.1 2.9z"/>
			<g id="&lt;Group&gt;">
				<path id="&lt;Path&gt;" class="s7" d="m615 497.5c-6.1 0-11.1-2.2-11.5-2.3-1-0.5-1.4-1.7-1-2.7 0.4-1 1.6-1.5 2.6-1 0.1 0 10.2 4.3 17.7 0.1 4.4-2.3 7.2-7.2 8.3-14.3 0.2-1 1.2-1.8 2.3-1.6 1.1 0.2 1.8 1.2 1.7 2.3-1.4 8.4-4.9 14.2-10.4 17.2-3.1 1.7-6.5 2.3-9.7 2.3z"/>
			</g>
			<g id="&lt;Group&gt;">
				<path id="&lt;Path&gt;" class="s7" d="m645.7 483.6q-6 0-12.9-3.8c-1-0.5-1.4-1.7-0.8-2.7 0.5-1 1.7-1.3 2.7-0.8 6.3 3.5 11.8 4.2 16.4 2.3 7.9-3.4 10.7-14 10.7-14.1 0.3-1 1.4-1.7 2.5-1.4 1 0.3 1.7 1.4 1.4 2.4-0.1 0.5-3.3 12.5-13 16.7q-3.3 1.4-7 1.4z"/>
			</g>
			<g id="&lt;Group&gt;">
				<path id="&lt;Path&gt;" class="s7" d="m678.2 438.2q-0.1 0-0.3 0l-5.4-0.8c-1.1-0.2-1.8-1.2-1.7-2.3 0.2-1.1 1.2-1.9 2.3-1.7l5.4 0.8c1.1 0.2 1.9 1.2 1.7 2.3-0.1 1-1 1.7-2 1.7z"/>
			</g>
			<path id="&lt;Path&gt;" class="s4" d="m695.2 439.8c1.5 2.9-1.6 7.5-6.8 10.1-5.3 2.7-10.8 2.4-12.3-0.5-1.4-3 1.6-7.5 6.9-10.1 5.3-2.7 10.8-2.4 12.2 0.5z"/>
			<path id="&lt;Path&gt;" class="s26" d="m704.3 375.4c0 0 9.8 3.6 14.2 12.5"/>
			<path id="&lt;Path&gt;" class="s26" d="m722.1 379.9c0 0 8 6.2 10.6 11.5"/>
			<path id="&lt;Path&gt;" class="s26" d="m724.7 400.3c0 0 3.6 4.5 6.3 11.6"/>
			<path id="&lt;Path&gt;" class="s22" d="m739.9 563.2l-30.1-15.1c-4.4 10.2-13.8 17.5-23.2 23.9-11.6 10.1-33.5 20.6-73.8 27.8-16.2 3-23.5 51.6 19.9 56.3 34.8 3.8 72.7-22.4 102.1-57.9 2.1-4.4 4.2-8.8 5.7-13.5 2.3-7.5 2-14.6-0.6-21.5z"/>
			<path id="&lt;Path&gt;" class="s26" d="m673.4 647.2c0 0 55.5-22 67-67.3"/>
			<path id="&lt;Path&gt;" class="s26" d="m780.5 593.3c0 0-27.7 36.3 11.8 67.9 0 0-1.6 11.9-5.5 17.4"/>
			<path id="&lt;Path&gt;" class="s26" d="m775.1 698.3c0 0 9.6 28.4 53 9.2"/>
			<path id="&lt;Path&gt;" class="s26" d="m783.3 707.9c0 0 1.4-10.6 9.6-16.3"/>
			<path id="&lt;Path&gt;" class="s26" d="m805 712.8c0 0 0-12.1 8.2-16.9"/>
			<path id="&lt;Path&gt;" class="s26" d="m600.8 623.2c0 0 12.1-7.7 19.3-3.4"/>
			<path id="&lt;Path&gt;" class="s26" d="m611.4 645.3c0 0 7.2-9.6 18.3-7.7"/>
			<g id="&lt;Group&gt;">
				<g id="&lt;Clip Group&gt;" clip-path="url(#cp37)">
					<g id="&lt;Group&gt;">
						<path id="&lt;Path&gt;" class="s1" d="m638.6 336c-0.3-8.1 2.3-19.3 5.9-26.6 1.8-3.7 4.2-7.3 7.8-9.3 3.6-2.1 8.6-2.1 11.5 0.8 2.2 2.2 2.8 5.5 2.3 8.5-0.5 3-2.1 5.8-3.8 8.3-5 7-11.9 12.7-19.7 16.4z"/>
					</g>
					<path id="&lt;Path&gt;" class="s16" d="m641.7 331.4c0 0 7.7-18.6 10.4-16.1 2.7 2.4-10.4 16.1-10.4 16.1z"/>
					<path id="&lt;Path&gt;" class="s17" d="m637.8 338.1c0 0 8.5-34.5 22.7-42.2"/>
					<path id="&lt;Path&gt;" class="s17" d="m635.7 337.5c0 0 23.4-12.3 30.6-36.6"/>
				</g>
				<g id="&lt;Clip Group&gt;" clip-path="url(#cp38)">
					<g id="&lt;Group&gt;">
						<path id="&lt;Path&gt;" class="s1" d="m636.7 338.7c-6.8-4.5-14.5-13-18.4-20.2-2-3.6-3.5-7.7-3.1-11.8 0.4-4.1 3.2-8.1 7.3-8.9 3-0.5 6.1 0.9 8.3 3.1 2.1 2.1 3.5 5 4.5 7.9 2.9 8.1 3.6 17 2.1 25.5z"/>
					</g>
					<path id="&lt;Path&gt;" class="s16" d="m634.7 333.4c0 0-10.8-16.9-7.2-17.7 3.6-0.8 7.2 17.7 7.2 17.7z"/>
					<path id="&lt;Path&gt;" class="s17" d="m637.9 340.5c0 0-23.3-26.8-21.4-42.9"/>
					<path id="&lt;Path&gt;" class="s17" d="m636.2 341.9c0 0 3.4-26.2-12.3-46.1"/>
				</g>
				<g id="&lt;Clip Group&gt;" clip-path="url(#cp39)">
					<g id="&lt;Group&gt;">
						<path id="&lt;Path&gt;" class="s1" d="m635.7 334.9c0 8.1-3.1 19.3-7 26.4-1.9 3.6-4.5 7.1-8.1 9-3.7 1.9-8.7 1.7-11.5-1.3-2.1-2.2-2.6-5.6-2-8.6 0.7-3 2.4-5.6 4.2-8.1 5.3-6.8 12.3-12.3 20.3-15.6z"/>
					</g>
					<path id="&lt;Path&gt;" class="s16" d="m632.4 339.4c0 0-8.4 18.3-11 15.7-2.7-2.5 11-15.7 11-15.7z"/>
					<path id="&lt;Path&gt;" class="s17" d="m636.6 332.9c0 0-9.9 34.1-24.4 41.3"/>
					<path id="&lt;Path&gt;" class="s17" d="m638.6 333.5c0 0-23.8 11.4-32 35.4"/>
				</g>
				<g id="&lt;Clip Group&gt;" clip-path="url(#cp40)">
					<g id="&lt;Group&gt;">
						<path id="&lt;Path&gt;" class="s1" d="m638.9 338.9c-7.2 3.8-18.4 6.3-26.6 6.2-4.1 0-8.4-0.7-11.8-3-3.3-2.4-5.5-6.9-4.1-10.8 1-2.8 3.7-4.9 6.7-5.7 2.9-0.8 6-0.6 9.1-0.1 8.5 1.5 16.6 5.2 23.2 10.7z"/>
					</g>
					<path id="&lt;Path&gt;" class="s16" d="m633.4 338.1c0 0-20.1 1.1-19-2.4 1-3.5 19 2.4 19 2.4z"/>
					<path id="&lt;Path&gt;" class="s17" d="m641.1 338.8c0 0-34.8 7.2-47.9-2.3"/>
					<path id="&lt;Path&gt;" class="s17" d="m641.5 340.9c0 0-21.2-15.8-46.2-11.8"/>
				</g>
				<g id="&lt;Clip Group&gt;" clip-path="url(#cp41)">
					<g id="&lt;Group&gt;">
						<path id="&lt;Path&gt;" class="s1" d="m633.6 336.2c7-4.1 18.2-7.1 26.3-7.4 4.1-0.1 8.4 0.3 11.9 2.5 3.5 2.3 5.8 6.6 4.7 10.6-0.9 2.9-3.6 5.1-6.5 6-2.9 1-6 0.9-9.1 0.5-8.5-1.1-16.8-4.4-23.7-9.6z"/>
					</g>
					<path id="&lt;Path&gt;" class="s16" d="m639.2 336.8c0 0 20-2.1 19.1 1.5-0.9 3.6-19.1-1.5-19.1-1.5z"/>
					<path id="&lt;Path&gt;" class="s17" d="m631.4 336.4c0 0 34.5-8.7 47.9 0.2"/>
					<path id="&lt;Path&gt;" class="s17" d="m631 334.3c0 0 21.8 14.8 46.6 9.8"/>
				</g>
				<g id="&lt;Clip Group&gt;" clip-path="url(#cp42)">
					<g id="&lt;Group&gt;">
						<path id="&lt;Path&gt;" class="s1" d="m637.4 333.8c6.5 4.9 13.5 14 16.9 21.5 1.7 3.7 2.9 7.9 2.2 11.9-0.7 4.1-3.8 7.9-7.9 8.4-3 0.3-6.1-1.3-8.1-3.7-2-2.3-3.1-5.2-3.9-8.2-2.3-8.3-2.4-17.2-0.2-25.6z"/>
					</g>
					<path id="&lt;Path&gt;" class="s16" d="m639 339.2c0 0 9.5 17.7 5.9 18.2-3.6 0.6-5.9-18.2-5.9-18.2z"/>
					<path id="&lt;Path&gt;" class="s17" d="m636.3 331.9c0 0 21.3 28.5 18.3 44.3"/>
					<path id="&lt;Path&gt;" class="s17" d="m638.1 330.6c0 0-5.3 25.9 8.9 46.9"/>
				</g>
				<g id="&lt;Clip Group&gt;" clip-path="url(#cp43)">
					<g id="&lt;Group&gt;">
						<path id="&lt;Path&gt;" class="s4" d="m637 337.8c-3.8-7.2-6.3-18.5-6.1-26.6 0-4.1 0.7-8.4 3.1-11.8 2.3-3.3 6.8-5.5 10.7-4.1 2.9 1 4.9 3.8 5.7 6.7 0.9 3 0.6 6.1 0.1 9.1-1.5 8.5-5.2 16.6-10.8 23.2z"/>
					</g>
					<g id="&lt;Group&gt;" style="opacity: .2">
						<path id="&lt;Path&gt;" class="s0" d="m650.3 307.5q0.3 0.3 0.6 0.5c0.2-2 0.1-4-0.5-6-0.8-2.9-2.8-5.7-5.7-6.7-3.9-1.4-8.4 0.8-10.7 4.1-1.1 1.6-1.8 3.3-2.3 5.1 6.2-1.5 13.6-1.1 18.6 3z"/>
					</g>
					<g id="&lt;Group&gt;" style="opacity: .3">
						<path id="&lt;Path&gt;" class="s0" d="m637.2 336.8c-2.3-4.5-3.8-11.4-3.8-16.4 0.1-2.5 0.5-5.1 1.9-7.2 1.5-2 4.2-3.3 6.6-2.5 1.7 0.7 3 2.3 3.5 4.1 0.5 1.9 0.4 3.8 0 5.6-0.9 5.2-3.1 10.2-6.5 14.2z"/>
					</g>
					<path id="&lt;Path&gt;" class="s4" d="m637.8 332.3c0 0-1.1-20.1 2.5-19 3.5 1-2.5 19-2.5 19z"/>
					<path id="&lt;Path&gt;" class="s17" d="m637.1 340c0 0-7-34.8 2.5-47.8"/>
					<path id="&lt;Path&gt;" class="s17" d="m635 340.4c0 0 15.8-21.1 12-46.1"/>
				</g>
				<g id="&lt;Clip Group&gt;" clip-path="url(#cp44)">
					<g id="&lt;Group&gt;">
						<path id="&lt;Path&gt;" class="s4" d="m636.4 335.7c3.8 7.2 6.2 18.5 6.1 26.7-0.1 4.1-0.7 8.4-3.1 11.7-2.4 3.4-6.8 5.5-10.7 4.1-2.9-1-4.9-3.7-5.8-6.7-0.8-2.9-0.5-6 0-9.1 1.5-8.5 5.2-16.6 10.8-23.2z"/>
					</g>
					<g id="&lt;Group&gt;" style="opacity: .2">
						<path id="&lt;Path&gt;" class="s0" d="m623.1 366q-0.3-0.2-0.6-0.5c-0.2 2-0.1 4.1 0.4 6 0.9 3 2.9 5.7 5.8 6.7 3.9 1.4 8.3-0.7 10.7-4.1 1.1-1.5 1.8-3.2 2.3-5-6.2 1.4-13.6 1-18.6-3.1z"/>
					</g>
					<g id="&lt;Group&gt;" style="opacity: .3">
						<path id="&lt;Path&gt;" class="s0" d="m636.2 336.8c2.3 4.4 3.8 11.3 3.8 16.3-0.1 2.5-0.5 5.2-1.9 7.2-1.5 2.1-4.2 3.4-6.6 2.5-1.7-0.6-3-2.3-3.5-4.1-0.5-1.8-0.4-3.7-0.1-5.6 0.9-5.2 3.2-10.1 6.6-14.2z"/>
					</g>
					<path id="&lt;Path&gt;" class="s4" d="m635.6 341.3c0 0 1 20-2.5 19-3.5-1.1 2.5-19 2.5-19z"/>
					<path id="&lt;Path&gt;" class="s17" d="m636.3 333.5c0 0 7 34.9-2.5 47.9"/>
					<path id="&lt;Path&gt;" class="s17" d="m638.4 333.2c0 0-15.8 21.1-12 46.1"/>
				</g>
				<g id="&lt;Clip Group&gt;" clip-path="url(#cp45)">
					<g id="&lt;Group&gt;">
						<path id="&lt;Path&gt;" class="s4" d="m636 337.6c3.8-7.2 11.6-15.7 18.4-20.2 3.4-2.3 7.3-4.2 11.4-4.2 4.1 0 8.4 2.5 9.5 6.4 0.8 3-0.3 6.2-2.2 8.6-2 2.3-4.7 3.9-7.5 5.2-7.8 3.7-16.6 5.2-25.2 4.5z"/>
					</g>
					<g id="&lt;Group&gt;" style="opacity: .2">
						<path id="&lt;Path&gt;" class="s0" d="m668.5 331.2q-0.1 0.4-0.1 0.8c1.7-1 3.4-2.3 4.7-3.8 1.9-2.4 3-5.6 2.2-8.6-1.1-3.9-5.4-6.4-9.5-6.4-1.9 0-3.7 0.4-5.5 1 4.8 4.3 8.6 10.6 8.2 17z"/>
					</g>
					<g id="&lt;Group&gt;" style="opacity: .3">
						<path id="&lt;Path&gt;" class="s0" d="m637 337.2c2.3-4.4 7.1-9.6 11.2-12.4 2.1-1.5 4.5-2.6 7-2.6 2.5 0 5.2 1.5 5.8 3.9 0.5 1.8-0.2 3.8-1.3 5.3-1.2 1.4-2.9 2.4-4.6 3.2-4.8 2.2-10.1 3.2-15.4 2.8z"/>
					</g>
					<path id="&lt;Path&gt;" class="s4" d="m641 335.1c0 0 15.9-12.3 17-8.8 1.2 3.5-17 8.8-17 8.8z"/>
					<path id="&lt;Path&gt;" class="s17" d="m634.2 339c0 0 24.6-25.7 40.7-25.4"/>
					<path id="&lt;Path&gt;" class="s17" d="m632.8 337.4c0 0 26.3 1 44.6-16.5"/>
				</g>
				<g id="&lt;Clip Group&gt;" clip-path="url(#cp46)">
					<g id="&lt;Group&gt;">
						<path id="&lt;Path&gt;" class="s4" d="m637.4 335.9c-3.8 7.3-11.6 15.7-18.4 20.3-3.4 2.3-7.3 4.2-11.4 4.1-4.1 0-8.4-2.4-9.5-6.4-0.8-2.9 0.3-6.2 2.2-8.5 2-2.4 4.7-4 7.4-5.3 7.9-3.6 16.7-5.2 25.3-4.4z"/>
					</g>
					<g id="&lt;Group&gt;" style="opacity: .2">
						<path id="&lt;Path&gt;" class="s0" d="m604.9 342.4q0.1-0.5 0.1-0.9c-1.8 1.1-3.4 2.3-4.7 3.9-1.9 2.3-3 5.6-2.2 8.5 1.1 4 5.4 6.4 9.5 6.4 1.9 0.1 3.7-0.3 5.4-1-4.7-4.2-8.6-10.5-8.1-16.9z"/>
					</g>
					<g id="&lt;Group&gt;" style="opacity: .3">
						<path id="&lt;Path&gt;" class="s0" d="m636.4 336.3c-2.3 4.5-7.1 9.7-11.3 12.5-2 1.4-4.4 2.6-6.9 2.6-2.5 0-5.2-1.5-5.8-4-0.5-1.8 0.1-3.8 1.3-5.2 1.2-1.5 2.9-2.5 4.6-3.3 4.8-2.2 10.1-3.2 15.4-2.7z"/>
					</g>
					<path id="&lt;Path&gt;" class="s4" d="m632.4 338.4c0 0-15.9 12.4-17 8.9-1.2-3.5 17-8.9 17-8.9z"/>
					<path id="&lt;Path&gt;" class="s17" d="m639.1 334.6c0 0-24.5 25.7-40.7 25.3"/>
					<path id="&lt;Path&gt;" class="s17" d="m640.6 336.1c0 0-26.4-0.9-44.7 16.5"/>
				</g>
				<g id="&lt;Clip Group&gt;" clip-path="url(#cp47)">
					<g id="&lt;Group&gt;">
						<path id="&lt;Path&gt;" class="s4" d="m635.6 336.6c8.2-0.2 19.3 2.6 26.6 6.4 3.6 1.9 7.2 4.4 9.1 8 2 3.7 1.9 8.6-1.1 11.5-2.2 2.1-5.5 2.7-8.6 2.1-3-0.6-5.7-2.2-8.1-4-7-5.1-12.5-12.1-16-20z"/>
					</g>
					<g id="&lt;Group&gt;" style="opacity: .2">
						<path id="&lt;Path&gt;" class="s0" d="m656.8 362q-0.4 0.2-0.8 0.3c1.8 1.1 3.7 1.9 5.6 2.3 3.1 0.6 6.4 0 8.6-2.1 3-2.9 3.1-7.8 1.1-11.5-0.9-1.6-2.1-3-3.5-4.3-1.4 6.3-5.1 12.6-11 15.3z"/>
					</g>
					<g id="&lt;Group&gt;" style="opacity: .3">
						<path id="&lt;Path&gt;" class="s0" d="m636.5 337.3c5-0.1 11.8 1.6 16.3 3.9 2.2 1.1 4.4 2.6 5.6 4.9 1.2 2.2 1.1 5.2-0.7 6.9-1.4 1.3-3.4 1.7-5.3 1.4-1.8-0.4-3.5-1.4-5-2.5-4.3-3.1-7.7-7.4-9.8-12.2z"/>
					</g>
					<path id="&lt;Path&gt;" class="s4" d="m640.2 339.8c0 0 18.4 8 15.9 10.7-2.5 2.7-15.9-10.7-15.9-10.7z"/>
					<path id="&lt;Path&gt;" class="s17" d="m633.6 335.7c0 0 34.3 9.3 41.7 23.6"/>
					<path id="&lt;Path&gt;" class="s17" d="m634.2 333.6c0 0 11.8 23.6 35.9 31.4"/>
				</g>
				<g id="&lt;Clip Group&gt;" clip-path="url(#cp48)">
					<g id="&lt;Group&gt;">
						<path id="&lt;Path&gt;" class="s4" d="m637.8 337c-8.2 0.1-19.4-2.7-26.6-6.4-3.6-1.9-7.2-4.4-9.1-8.1-2-3.6-1.9-8.6 1.1-11.4 2.2-2.2 5.5-2.7 8.5-2.2 3 0.6 5.7 2.2 8.2 4.1 6.9 5.1 12.5 12.1 16 20z"/>
					</g>
					<g id="&lt;Group&gt;" style="opacity: .2">
						<path id="&lt;Path&gt;" class="s0" d="m616.6 311.6q0.4-0.2 0.7-0.4c-1.7-1-3.6-1.9-5.6-2.3-3-0.5-6.3 0-8.5 2.2-3 2.8-3.1 7.8-1.1 11.4 0.9 1.7 2.1 3.1 3.5 4.3 1.4-6.2 5.1-12.6 11-15.2z"/>
					</g>
					<g id="&lt;Group&gt;" style="opacity: .3">
						<path id="&lt;Path&gt;" class="s0" d="m636.9 336.3c-5 0.1-11.8-1.6-16.3-3.9-2.2-1.2-4.4-2.7-5.6-4.9-1.2-2.2-1.1-5.2 0.7-7 1.4-1.3 3.4-1.7 5.3-1.3 1.8 0.3 3.5 1.3 5 2.4 4.2 3.2 7.6 7.4 9.8 12.2z"/>
					</g>
					<path id="&lt;Path&gt;" class="s4" d="m633.2 333.8c0 0-18.4-8-15.9-10.7 2.5-2.7 15.9 10.7 15.9 10.7z"/>
					<path id="&lt;Path&gt;" class="s17" d="m639.8 337.9c0 0-34.3-9.3-41.7-23.6"/>
					<path id="&lt;Path&gt;" class="s17" d="m639.2 339.9c0 0-11.9-23.6-35.9-31.3"/>
				</g>
			</g>
		</g>
		<g id="&lt;Group&gt;">
			<g id="&lt;Group&gt;">
				<path id="&lt;Path&gt;" class="s0" d="m27.7 953h667.9c-3.3-19.9-11.7-55-28.5-67.1-23.9-17.1-57.6-17.7-82.1-1.5-0.4-41.4-18.5-83.5-51.3-106.5-32.9-23.1-80.4-23.4-110.4 3.6-16.7-37.2-36.2-74.8-67.8-99.2-40.4-31.2-98.3-35.4-142.4-10.2-44.1 25.2-72 78.4-68.7 130.8-35-28.3-90.2-23.8-120.5 9.8-30.4 33.5-31.5 91.5-2.6 126.4z"/>
			</g>
			<g id="&lt;Group&gt;" style="opacity: .2">
				<path id="&lt;Path&gt;" class="s1" d="m138.8 953h436.2c-2.1-13-7.6-35.9-18.6-43.8-15.6-11.2-37.6-11.6-53.6-1-0.3-27-12.1-54.5-33.5-69.6-21.5-15-52.5-15.2-72.1 2.4-10.9-24.3-23.7-48.9-44.3-64.8-26.4-20.4-64.2-23.1-93-6.7-28.8 16.5-47 51.2-44.9 85.5-22.8-18.5-58.9-15.6-78.7 6.3-19.8 22-20.6 59.8-1.7 82.6z"/>
			</g>
		</g>
		<g id="&lt;Clip Group&gt;" clip-path="url(#cp49)">
			<g id="&lt;Group&gt;">
				<g id="&lt;Group&gt;">
					<path id="&lt;Path&gt;" class="s0" d="m1163.9 953h-307.1c1.5-9.2 5.4-25.3 13.1-30.8 11-7.9 26.5-8.2 37.8-0.7 0.2-19.1 8.5-38.4 23.6-49 15.1-10.6 36.9-10.8 50.7 1.6 7.7-17.1 16.7-34.3 31.2-45.6 18.6-14.3 45.2-16.2 65.4-4.6 20.3 11.5 33.2 36 31.7 60.1 16-13 41.4-11 55.4 4.5 13.9 15.4 14.4 42 1.1 58.1z"/>
				</g>
				<g id="&lt;Group&gt;" style="opacity: .2">
					<path id="&lt;Path&gt;" class="s1" d="m1112.8 953h-200.6c1-6 3.6-16.5 8.6-20.1 7.2-5.2 17.3-5.4 24.7-0.5 0.1-12.4 5.5-25.1 15.4-32 9.8-6.9 24.1-7 33.1 1.1 5-11.2 10.9-22.5 20.4-29.8 12.1-9.4 29.5-10.6 42.7-3.1 13.3 7.6 21.7 23.6 20.7 39.3 10.5-8.5 27.1-7.1 36.2 3 9.1 10 9.4 27.4 0.7 37.9z"/>
				</g>
			</g>
		</g>
	</g>
</svg>