<svg version="1.2" xmlns="http://www.w3.org/2000/svg" viewBox="0 0 237 232" width="237" height="232">
	<title>3603065_67644-ai</title>
	<style>
		.s0 { fill: #8dc6cc } 
		.s1 { fill: #a5e1e5 } 
		.s2 { opacity: .1;fill: #2d2d2d } 
	</style>
	<g id="object">
		<g id="&lt;Group&gt;">
			<g id="&lt;Group&gt;">
				<path id="&lt;Path&gt;" class="s0" d="m235.4 24.7q0 0 0-0.1-0.4-0.6-0.7-1.2 0 0 0 0-0.1-0.1-0.1-0.1 0 0-0.1-0.1-1-0.7-2.1-1.4 0 0.1 0 0.1-2.1-1.3-4.5-2.3c-6.8-2.7-13.7-5.5-20.7-8.3q-4.8-1.9-9.7-3.5-1-0.4-2-0.7 0.1 0 0.1 0-0.3 0-0.6-0.1-0.2-0.1-0.4-0.2-0.1 0-0.2 0-0.2-0.1-0.5-0.2-0.9-0.2-1.8-0.5-0.1 0-0.3-0.1-0.3 0-0.5-0.1-0.1-0.1-0.3-0.1-0.9-0.2-1.9-0.5-0.1 0-0.2 0-0.3-0.1-0.6-0.2-0.1 0-0.2 0-1.4-0.4-2.9-0.7c-3.1-0.6-6.2-1.4-9.3-2.3q-0.9-0.2-1.8-0.4 0 0-0.1 0-0.2 0-0.4-0.1-0.3 0-0.6-0.1-0.3 0-0.6-0.1 0 0 0 0-0.9-0.2-1.8-0.3 0 0 0 0-0.6-0.1-1.2-0.3-0.6-0.1-1.2-0.2c-10.7-0.4-11.7 1.5-14.7 4.9-3.9 4.4-11.5 30.6-40.6 32.6-29 2-28.8-40.1-44.3-37.4-9.6 1.7-16.8 3.2-22.2 5-3.3 1-6.5 2.4-9.7 3.9-6.4 2.9-13.2 5.3-19.8 7.4-3.4 1.1-6.7 2.2-9.9 3.7-1.8 0.7-4.2 1.3-5.5 2.8-1.7 1.8-1.1 5.1-1.1 7.3 0.2 4 0.6 8.1 0.9 12.2 0.6 7.3 1.3 14.8 2.6 21.9 0.8 4.5 3 7.1 7.5 8.1 9.7 2 19.8-0.6 29.7-2.8 3.8 35.4 1.6 81.4-0.8 95.3-3 17 24.9 3.5 41.4 33.9 16.6 30.5 15.9 32.1 40.6 31.9 24.7-0.2 25.8-33.9 36.7-44.4 10.9-10.6 29.9-8.5 37.7-17.2 7.2-8.1-7.6-58.4-3.9-103.1 6.8 0 13.5 0.3 20.3 0.7 6 0.4 11.4 1.4 14.4-6.6 3-7.9 5.4-16.8 6.9-25.6q0.1-0.2 0.1-0.4c0.5-1.8 1.1-4.1 1.6-6.4q0-1.1 0-2.1-0.3-0.8-0.7-1.5z"/>
				<g id="&lt;Group&gt;">
					<path id="&lt;Path&gt;" class="s1" d="m120.9 48.8c13.1-2.2 23.3-11.6 31.1-22.9 5.4-7.7 10.6-16.2 14.3-25.4q-2.3 0-4 0.1c-2.9 6.6-6.5 12.8-10.3 18.8-7.1 11.2-16.3 21.9-28.8 24.9-26.6 6.5-44.9-19.5-54.7-43.6q-1.8 0.3-3.6 0.7c10 24.9 28.5 51.9 56 47.4z"/>
					<path id="&lt;Path&gt;" class="s1" d="m85.6 182.9c-5.3-7.7-12.4-11.9-20.4-15.5-4.6-2.1-9.3-4.3-14.3-4.9-3.4-0.4-6.7-0.3-10.1-0.2q-0.2 1.8-0.5 3.2 0 0.4-0.1 0.7c4-0.1 8-0.3 11.9 0.4 4.2 0.8 8.3 2.8 12.2 4.6 10.4 4.7 16.9 10.9 23.1 21.3 5.4 8.9 10.2 17.9 12.8 28.3 0.7 2.7 1.3 5.5 2 8.2q1.9 0.9 4.1 1.4c-1.8-6.2-2.9-12.6-5.1-18.7-3.7-10.2-9.5-20.2-15.6-28.8z"/>
					<path id="&lt;Path&gt;" class="s1" d="m150.7 189.8c5.8-7.6 12.9-15.6 21-19.9 8-4.2 17.9-8.1 26.9-7.6q0.1-1.8 0-3.9c-9.2-0.6-18.7 3.2-27 7.3-9.5 4.6-17.6 13.5-24.1 22.2-5.9 8-9.8 17.4-12.5 27.3-1.2 4.6-2.1 9.2-2.9 13.8q2.4-1.2 4.4-2.9c0.9-4.8 1.7-9 2-9.9 2.5-9.6 6.4-18.7 12.2-26.4z"/>
				</g>
				<g id="&lt;Group&gt;">
				</g>
				<g id="&lt;Group&gt;">
					<path id="&lt;Path&gt;" class="s1" d="m9.1 33.9c-0.5-4.2-1.6-9.1-1.3-13.6q-0.4 0.2-0.8 0.4c-0.9 0.4-2 0.7-3 1.1 0 3.1 0.6 6.2 0.9 9.1 0.6 6.2 1.3 12.3 2 18.5 1 7.8 2.2 15.7 3.9 23.4q0.3 0.1 0.6 0.2 1.8 0.3 3.6 0.5c-2-7.9-3.2-16.1-4.2-24.2-0.6-5.1-1.2-10.2-1.7-15.4z"/>
					<path id="&lt;Path&gt;" class="s1" d="m225.5 48.7c2.5-8.6 5.4-17.9 6.4-27.1q-1.8-1-3.7-1.8c-0.8 9.3-3.9 19.1-6.4 27.8q-2.1 7.1-4.2 14.1c-0.5 1.9-1.1 3.8-1.7 5.8 1.4 0.1 2.8 0.1 4 0q0.3-1.1 0.7-2c1.7-5.6 3.3-11.2 4.9-16.8z"/>
				</g>
				<g id="&lt;Group&gt;">
					<path id="&lt;Path&gt;" class="s2" d="m132.3 191.8c-4.2-3.8-8.2-7.8-12.6-11.3-8.2-6.7-15.7-13.4-22.7-21.3-6.7-7.7-12.1-13.9-17.5-22.3-5.8-8.8-9.5-17.4-12.6-27.4-3.2-10.2-6.2-20.2-8-30.7-1.9-11.1-2.5-22-2.5-33.2 0-12.8-0.1-25.6 0.1-38.4q0-2.1 0.1-4.2c-4 0.9-7.3 1.8-10.2 2.7-3.3 1-6.5 2.4-9.7 3.9-6.4 2.9-13.2 5.3-19.8 7.4-3.4 1.1-6.7 2.2-9.9 3.7-1.8 0.7-4.2 1.3-5.5 2.8-1.7 1.8-1.1 5.1-1.1 7.3 0.2 4 0.6 8.1 0.9 12.2 0.6 7.3 1.3 14.8 2.6 21.9 0.8 4.5 3 7.1 7.5 8.1 9.7 2 19.8-0.6 29.7-2.8 3.8 35.4 1.6 81.4-0.8 95.3-3 17 24.9 3.5 41.4 33.9 16.6 30.5 15.9 32.1 40.6 31.9 16-0.1 22.1-14.4 27.4-27.3q-3.4-2.3-6.9-4.6c-3.8-2.5-7.4-4.8-10.5-7.6z"/>
				</g>
				<path id="&lt;Path&gt;" class="s1" d="m172.5 82.2c0-2.2 0-4.7-0.1-7q0-0.8 0-1.6c0.1-4-1.5-4-5-4.4-5.2-0.5-10.4-0.3-15.6-0.3-4.1 0-8.6 0.2-12.7 0.8-3.3 0.5-2.5 5.7-2.5 8.5 0 7.6 0 17 3.4 24.3 1.2 2.9 2.9 5.9 5 7.4 3.6 2.6 8.6 2.2 12.7 1.6 3.5-0.6 8.6-1.9 10.8-5.4 1.2-1.8 1.6-4.7 2.1-6.8 0.5-2.4 0.9-4.8 1.1-7.3 0.6-3.2 0.9-6.6 0.8-9.8z"/>
			</g>
		</g>
	</g>
</svg>